G04*
G04 #@! TF.GenerationSoftware,Altium Limited,Altium Designer,25.4.2 (15)*
G04*
G04 Layer_Physical_Order=3*
G04 Layer_Color=16440176*
%FSLAX44Y44*%
%MOMM*%
G71*
G04*
G04 #@! TF.SameCoordinates,3657E7AA-FEB6-4A55-804A-CE854462FE3E*
G04*
G04*
G04 #@! TF.FilePolarity,Positive*
G04*
G01*
G75*
%ADD14C,0.2540*%
%ADD15C,0.3810*%
%ADD24C,1.2300*%
%ADD134C,0.3000*%
%ADD135C,2.3000*%
%ADD136C,1.2580*%
%ADD138C,1.3700*%
%ADD139R,1.3700X1.3700*%
%ADD140C,1.4580*%
%ADD141C,1.6000*%
%ADD142R,1.6000X1.6000*%
%ADD143C,6.0000*%
%ADD144C,1.0000*%
%ADD145C,0.4000*%
%ADD148R,2.1496X2.2498*%
G36*
X72648Y837500D02*
X60019Y831975D01*
X36000Y840536D01*
X16458Y833570D01*
X9459Y814000D01*
X18057Y789957D01*
X12506Y777344D01*
X206Y791390D01*
X5266Y814000D01*
X206Y836610D01*
X11965Y837939D01*
Y837959D01*
X12003Y837997D01*
X12081Y837997D01*
X13429Y849800D01*
X36000Y844737D01*
X58571Y849800D01*
X72648Y837500D01*
D02*
G37*
G36*
X837944Y838035D02*
X837959D01*
X837997Y837997D01*
X837997Y837917D01*
X849806Y836531D01*
X849739Y835705D01*
X849538Y834400D01*
X847395Y824398D01*
X844871Y814000D01*
X847395Y803602D01*
X849538Y793599D01*
X849739Y792295D01*
X849806Y791469D01*
X837506Y777359D01*
X832007Y790005D01*
X840530Y814000D01*
X833584Y833555D01*
X814000Y840536D01*
X789981Y831974D01*
X777352Y837500D01*
X791429Y849800D01*
X814000Y844737D01*
X836571Y849800D01*
X837944Y838035D01*
D02*
G37*
G36*
X150446Y576815D02*
X41148D01*
X40454Y576677D01*
X39865Y576283D01*
X39471Y575695D01*
X39333Y575000D01*
Y543560D01*
X39471Y542865D01*
X39865Y542277D01*
X40000Y542186D01*
Y455888D01*
X39908Y455666D01*
Y455625D01*
X38638Y455372D01*
X38256Y456293D01*
X37193Y457356D01*
X35804Y457932D01*
X34300D01*
X32911Y457356D01*
X31848Y456293D01*
X31272Y454904D01*
Y453400D01*
X31848Y452011D01*
X32911Y450947D01*
X34300Y450372D01*
X35804D01*
X37193Y450947D01*
X38256Y452011D01*
X38730Y453154D01*
X40000Y452901D01*
Y444760D01*
X38730Y444644D01*
X38717Y444656D01*
X37328Y445232D01*
X35824D01*
X34435Y444656D01*
X33372Y443593D01*
X32796Y442204D01*
Y440700D01*
X33372Y439311D01*
X34435Y438247D01*
X35824Y437672D01*
X37328D01*
X38717Y438247D01*
X38730Y438260D01*
X40000Y438144D01*
Y432038D01*
X37716Y429754D01*
X37042Y428745D01*
X36805Y427555D01*
Y420159D01*
X36711Y420064D01*
X36135Y418675D01*
Y417171D01*
X36711Y415782D01*
X37774Y414719D01*
X39163Y414143D01*
X40000D01*
Y159390D01*
X49354Y150036D01*
X169202D01*
X169455Y148766D01*
X168612Y148417D01*
X167549Y147353D01*
X166973Y145964D01*
Y144460D01*
X167549Y143071D01*
X168612Y142008D01*
X170002Y141432D01*
X171505D01*
X172894Y142008D01*
X173958Y143071D01*
X174533Y144460D01*
Y145964D01*
X173958Y147353D01*
X172894Y148417D01*
X172052Y148766D01*
X172304Y150036D01*
X248920D01*
Y189318D01*
X251372Y191770D01*
X273552D01*
X275590Y189732D01*
Y102850D01*
X266720Y93980D01*
X14355D01*
X14355Y652780D01*
X39210Y652780D01*
X40167Y651823D01*
X41556Y651248D01*
X43060D01*
X44450Y651823D01*
X45406Y652780D01*
X110452Y652780D01*
X110521Y775023D01*
X115933Y780435D01*
X150446D01*
Y576815D01*
D02*
G37*
G36*
X555184Y632092D02*
X555156Y632055D01*
X555132Y631996D01*
X555110Y631917D01*
X555092Y631816D01*
X555076Y631694D01*
X555053Y631388D01*
X555040Y630770D01*
X552500Y630852D01*
X552499Y631080D01*
X552443Y631994D01*
X552426Y632071D01*
X552407Y632127D01*
X552385Y632162D01*
X555184Y632092D01*
D02*
G37*
G36*
X486604Y601036D02*
X486662Y601013D01*
X486740Y600994D01*
X486840Y600977D01*
X487104Y600951D01*
X487452Y600936D01*
X487885Y600930D01*
Y598390D01*
X487658Y598389D01*
X486740Y598326D01*
X486662Y598307D01*
X486604Y598285D01*
X486568Y598260D01*
Y601060D01*
X486604Y601036D01*
D02*
G37*
G36*
X417515Y598763D02*
X417355Y598601D01*
X416751Y597909D01*
X416709Y597839D01*
X416684Y597783D01*
X416676Y597740D01*
X414696Y599720D01*
X414739Y599728D01*
X414795Y599753D01*
X414865Y599795D01*
X414947Y599853D01*
X415152Y600021D01*
X415409Y600256D01*
X415719Y600559D01*
X417515Y598763D01*
D02*
G37*
G36*
X182880Y684160D02*
X335280D01*
Y669290D01*
X182880D01*
Y575000D01*
X500064D01*
Y543560D01*
X479844D01*
X478440Y546020D01*
X478451Y546100D01*
X478730Y547500D01*
X478437Y548975D01*
X477601Y550225D01*
X476351Y551061D01*
X474876Y551354D01*
X473401Y551061D01*
X472151Y550225D01*
X471315Y548975D01*
X471022Y547500D01*
X471300Y546100D01*
X471312Y546020D01*
X469908Y543560D01*
X440966D01*
X438730Y545338D01*
X438437Y546813D01*
X437601Y548063D01*
X436351Y548899D01*
X434876Y549192D01*
X433401Y548899D01*
X432151Y548063D01*
X431315Y546813D01*
X431022Y545338D01*
X428786Y543560D01*
X361338D01*
X359933Y546020D01*
X359945Y546100D01*
X360224Y547500D01*
X359930Y548975D01*
X359095Y550225D01*
X357844Y551061D01*
X356370Y551354D01*
X354895Y551061D01*
X353644Y550225D01*
X352809Y548975D01*
X352515Y547500D01*
X352794Y546100D01*
X352806Y546020D01*
X351401Y543560D01*
X322460D01*
X320224Y545338D01*
X319930Y546813D01*
X319095Y548063D01*
X317844Y548899D01*
X316369Y549192D01*
X314895Y548899D01*
X313644Y548063D01*
X312809Y546813D01*
X312515Y545338D01*
X310279Y543560D01*
X237468D01*
X236064Y546020D01*
X236076Y546100D01*
X236354Y547500D01*
X236061Y548975D01*
X235225Y550225D01*
X233975Y551061D01*
X232500Y551354D01*
X231025Y551061D01*
X229775Y550225D01*
X228939Y548975D01*
X228646Y547500D01*
X228924Y546100D01*
X228936Y546020D01*
X227532Y543560D01*
X198590D01*
X196354Y545338D01*
X196061Y546813D01*
X195225Y548063D01*
X193975Y548899D01*
X192500Y549192D01*
X191025Y548899D01*
X189775Y548063D01*
X188939Y546813D01*
X188646Y545338D01*
X186410Y543560D01*
X118091D01*
X116687Y546020D01*
X116699Y546100D01*
X116977Y547500D01*
X116684Y548975D01*
X115848Y550225D01*
X114598Y551061D01*
X113123Y551354D01*
X111648Y551061D01*
X110398Y550225D01*
X109562Y548975D01*
X109269Y547500D01*
X109547Y546100D01*
X109559Y546020D01*
X108154Y543560D01*
X79213D01*
X76977Y545338D01*
X76684Y546813D01*
X75848Y548063D01*
X74598Y548899D01*
X73123Y549192D01*
X71648Y548899D01*
X70398Y548063D01*
X69562Y546813D01*
X69269Y545338D01*
X67033Y543560D01*
X41148D01*
Y575000D01*
X152400D01*
Y583475D01*
X152801Y583801D01*
X154940Y584600D01*
X155555Y584189D01*
X157030Y583896D01*
X158505Y584189D01*
X159755Y585025D01*
X160591Y586275D01*
X160884Y587750D01*
X160591Y589225D01*
X159755Y590475D01*
X158505Y591311D01*
X157030Y591604D01*
X155555Y591311D01*
X154940Y590900D01*
X152801Y591699D01*
X152400Y592025D01*
Y782250D01*
X115181D01*
X108675Y775744D01*
Y725649D01*
X58580D01*
Y779080D01*
X90000Y810500D01*
X182880Y810500D01*
Y684160D01*
D02*
G37*
G36*
X636193Y549776D02*
X636765Y549318D01*
X637360Y548914D01*
X637977Y548564D01*
X638616Y548268D01*
X639277Y548025D01*
X639961Y547836D01*
X640667Y547702D01*
X641396Y547621D01*
X642147Y547594D01*
X637548Y545689D01*
X635643Y544865D01*
X632949Y547594D01*
X635643Y550288D01*
X636193Y549776D01*
D02*
G37*
G36*
X777049Y835651D02*
X784987Y832178D01*
X785964Y828978D01*
X784548Y826199D01*
X783002Y821442D01*
X782220Y816501D01*
Y811499D01*
X783002Y806558D01*
X784548Y801801D01*
X786819Y797344D01*
X789760Y793297D01*
X793297Y789760D01*
X797344Y786819D01*
X801801Y784548D01*
X806558Y783002D01*
X807427Y782865D01*
X807227Y780325D01*
X702818D01*
X702123Y780187D01*
X701535Y779793D01*
X701141Y779204D01*
X701003Y778510D01*
Y504190D01*
X701141Y503495D01*
X701535Y502907D01*
X702123Y502513D01*
X702818Y502375D01*
X767598Y502375D01*
X785585Y484388D01*
Y118862D01*
X774437Y107713D01*
X772090Y108685D01*
Y112530D01*
X763970D01*
Y104410D01*
X767815D01*
X768787Y102063D01*
X753588Y86865D01*
X751242Y87837D01*
Y103271D01*
X753310Y104410D01*
X761430D01*
Y113800D01*
Y123190D01*
X753310D01*
X751242Y124329D01*
Y135868D01*
X753782Y136203D01*
X753950Y135576D01*
X755186Y133434D01*
X756934Y131686D01*
X759076Y130450D01*
X761430Y129819D01*
Y139200D01*
Y148581D01*
X759076Y147950D01*
X756934Y146714D01*
X755186Y144966D01*
X753950Y142824D01*
X753782Y142197D01*
X751242Y142532D01*
Y144653D01*
X751104Y145347D01*
X750710Y145936D01*
X742147Y154500D01*
X742564Y157674D01*
X742599Y157694D01*
X744206Y159301D01*
X745342Y161269D01*
X745930Y163464D01*
Y165736D01*
X745342Y167931D01*
X744206Y169899D01*
X742599Y171506D01*
X740631Y172642D01*
X738436Y173230D01*
X736164D01*
X733969Y172642D01*
X732001Y171506D01*
X730394Y169899D01*
X730374Y169864D01*
X727200Y169447D01*
X725250Y171396D01*
Y332195D01*
X735365Y332195D01*
X736060Y332333D01*
X736648Y332727D01*
X737042Y333316D01*
X737180Y334010D01*
Y344864D01*
X737042Y345559D01*
X736648Y346147D01*
X736060Y346541D01*
X735365Y346679D01*
X710201D01*
X709506Y346541D01*
X708917Y346147D01*
X708524Y345559D01*
X708386Y344864D01*
Y105904D01*
X673416D01*
X673240Y105869D01*
X673062D01*
X672897Y105801D01*
X672721Y105766D01*
X672573Y105667D01*
X672407Y105598D01*
X672281Y105472D01*
X672132Y105373D01*
X672033Y105224D01*
X671907Y105098D01*
X671736Y104841D01*
X671346Y104581D01*
X668731Y105098D01*
X668604Y105224D01*
X668505Y105373D01*
X668356Y105472D01*
X668230Y105598D01*
X668065Y105667D01*
X667916Y105766D01*
X667741Y105801D01*
X667576Y105869D01*
X667397D01*
X667222Y105904D01*
X665525D01*
Y197082D01*
X665387Y197776D01*
X664993Y198365D01*
X663955Y199403D01*
X663366Y199797D01*
X662672Y199935D01*
X642620D01*
X641926Y199797D01*
X641337Y199403D01*
X640405Y198472D01*
X640012Y197883D01*
X639874Y197189D01*
Y180266D01*
X637527Y179294D01*
X620165Y196656D01*
X621217Y199196D01*
X621530D01*
X622920Y199771D01*
X623983Y200835D01*
X624558Y202224D01*
Y203728D01*
X623983Y205117D01*
X622920Y206180D01*
X621530Y206756D01*
X620027D01*
X618637Y206180D01*
X617574Y205117D01*
X616998Y203728D01*
Y203174D01*
X615601Y202088D01*
X614849Y201632D01*
X614652Y201578D01*
X613447Y201818D01*
X591335D01*
Y207707D01*
X591049Y209145D01*
X590234Y210364D01*
X580847Y219751D01*
Y251714D01*
Y414957D01*
X580834Y415025D01*
Y415797D01*
X580811Y415852D01*
Y444558D01*
X581823Y445062D01*
X583351Y445337D01*
X584091Y444598D01*
X585480Y444022D01*
X586984D01*
X588373Y444598D01*
X589436Y445661D01*
X590012Y447050D01*
Y448554D01*
X589436Y449943D01*
X588373Y451007D01*
X586984Y451582D01*
X585480D01*
X584091Y451007D01*
X583351Y450267D01*
X581823Y450542D01*
X580811Y451045D01*
Y482815D01*
X639928Y541932D01*
X669537D01*
X669592Y541909D01*
X671096D01*
X672485Y542484D01*
X673549Y543548D01*
X674124Y544937D01*
Y546441D01*
X673549Y547830D01*
X672485Y548894D01*
X671096Y549469D01*
X669592D01*
X669537Y549446D01*
X641403D01*
X640938Y549498D01*
X640373Y549605D01*
X639832Y549755D01*
X639311Y549946D01*
X638808Y550179D01*
X638319Y550456D01*
X637844Y550779D01*
X637479Y551072D01*
X623757Y564793D01*
Y650693D01*
X623780Y650748D01*
Y652252D01*
X623204Y653641D01*
X622141Y654705D01*
X620752Y655280D01*
X619248D01*
X617859Y654705D01*
X616796Y653641D01*
X616220Y652252D01*
Y650748D01*
X616243Y650693D01*
Y563237D01*
X616529Y561799D01*
X617343Y560580D01*
X632646Y545277D01*
X574397Y487028D01*
X573583Y485809D01*
X573297Y484371D01*
Y415852D01*
X573274Y415797D01*
Y414293D01*
X573333Y414150D01*
Y271597D01*
X570793Y271091D01*
X570586Y271591D01*
X569523Y272655D01*
X568133Y273230D01*
X566629D01*
X565240Y272655D01*
X564177Y271591D01*
X563601Y270202D01*
Y268698D01*
X564177Y267309D01*
X564854Y265706D01*
X563902Y264378D01*
X563327Y262989D01*
Y261485D01*
X563903Y260096D01*
X564966Y259032D01*
X566355Y258457D01*
X567859D01*
X569248Y259032D01*
X570312Y260096D01*
X570887Y261485D01*
X573333Y261258D01*
Y256868D01*
X573269Y256504D01*
X573170Y256208D01*
X573060Y256005D01*
X572943Y255861D01*
X572799Y255744D01*
X572596Y255634D01*
X572300Y255536D01*
X571936Y255471D01*
X563340D01*
X563285Y255494D01*
X561781D01*
X560392Y254918D01*
X559328Y253855D01*
X558753Y252466D01*
Y250962D01*
X559328Y249573D01*
X560392Y248510D01*
X561781Y247934D01*
X563285D01*
X563340Y247957D01*
X571936D01*
X572300Y247892D01*
X572596Y247794D01*
X572799Y247684D01*
X572943Y247567D01*
X573060Y247423D01*
X573170Y247220D01*
X573269Y246924D01*
X573333Y246560D01*
Y222588D01*
X487869D01*
X487677Y225048D01*
X489066Y225624D01*
X490129Y226687D01*
X490705Y228076D01*
Y229580D01*
X490129Y230969D01*
X489066Y232033D01*
X487677Y232608D01*
X486173D01*
X484783Y232033D01*
X483720Y230969D01*
X483145Y229580D01*
Y228076D01*
X483720Y226687D01*
X484783Y225624D01*
X486173Y225048D01*
X485980Y222588D01*
X470894D01*
X470702Y225048D01*
X472091Y225624D01*
X473155Y226687D01*
X473730Y228076D01*
Y229580D01*
X473155Y230969D01*
X472091Y232033D01*
X470702Y232608D01*
X469198D01*
X467809Y232033D01*
X466745Y230969D01*
X466170Y229580D01*
Y228076D01*
X466745Y226687D01*
X467809Y225624D01*
X469198Y225048D01*
X469006Y222588D01*
X456728D01*
X447831Y231485D01*
X446612Y232299D01*
X445174Y232585D01*
X420792D01*
X420737Y232608D01*
X419233D01*
X419178Y232585D01*
X377756D01*
X357579Y252762D01*
Y298601D01*
X357631Y299066D01*
X357739Y299631D01*
X357888Y300172D01*
X358079Y300693D01*
X358312Y301196D01*
X358589Y301685D01*
X358913Y302160D01*
X359205Y302525D01*
X372910Y316230D01*
X378941D01*
X378996Y316208D01*
X380500D01*
X380555Y316230D01*
X401718D01*
X403156Y316516D01*
X404375Y317331D01*
X419407Y332363D01*
X420221Y333582D01*
X420507Y335020D01*
Y343693D01*
X420530Y343748D01*
Y345252D01*
X420507Y345307D01*
Y365493D01*
X508743D01*
X510181Y365779D01*
X510425Y365942D01*
X510467Y365938D01*
X512869Y364569D01*
Y271619D01*
X503643Y262393D01*
X404196D01*
X404101Y262487D01*
X402711Y263063D01*
X401208D01*
X399818Y262487D01*
X398755Y261424D01*
X398180Y260035D01*
Y258531D01*
X398755Y257142D01*
X399077Y256820D01*
X398827Y254195D01*
X398674Y253904D01*
X398671Y253902D01*
X397607Y252839D01*
X397032Y251450D01*
Y249946D01*
X397607Y248557D01*
X398671Y247493D01*
X400060Y246918D01*
X401564D01*
X402953Y247493D01*
X404016Y248557D01*
X404556Y249860D01*
X406301Y251604D01*
X493994D01*
X494171Y249138D01*
X492782Y248562D01*
X491718Y247499D01*
X491143Y246110D01*
Y244606D01*
X491718Y243216D01*
X492782Y242153D01*
X494171Y241578D01*
X495675D01*
X497064Y242153D01*
X498128Y243216D01*
X498703Y244606D01*
Y246110D01*
X498128Y247499D01*
X497064Y248562D01*
X495675Y249138D01*
X495852Y251604D01*
X508856D01*
X510046Y251841D01*
X511055Y252515D01*
X523077Y264537D01*
X523751Y265546D01*
X523988Y266736D01*
Y358001D01*
X528156Y362169D01*
X528290D01*
X529679Y362744D01*
X530742Y363808D01*
X531318Y365197D01*
Y366701D01*
X530742Y368090D01*
X529679Y369154D01*
X528290Y369729D01*
X528015D01*
X526963Y372269D01*
X531084Y376390D01*
X536244D01*
X536339Y376296D01*
X537728Y375720D01*
X539232D01*
X540704Y373581D01*
Y331420D01*
X540610Y331325D01*
X540034Y329936D01*
Y328432D01*
X540610Y327043D01*
X541673Y325979D01*
X543062Y325404D01*
X544566D01*
X545955Y325979D01*
X547019Y327043D01*
X547594Y328432D01*
Y329936D01*
X547019Y331325D01*
X546924Y331420D01*
Y447661D01*
X546687Y448851D01*
X546013Y449860D01*
X543702Y452171D01*
X544806Y454659D01*
X545331D01*
X546721Y455234D01*
X547784Y456298D01*
X548120Y457110D01*
X550660Y456605D01*
Y453898D01*
X550516Y453753D01*
X549940Y452364D01*
Y450860D01*
X550516Y449471D01*
X551579Y448408D01*
X552968Y447832D01*
X554472D01*
X555861Y448408D01*
X556925Y449471D01*
X557500Y450860D01*
Y452364D01*
X556925Y453753D01*
X556880Y453798D01*
Y631269D01*
X557024Y631413D01*
X557600Y632803D01*
Y634307D01*
X557024Y635696D01*
X555961Y636759D01*
X554572Y637335D01*
X553068D01*
X551679Y636759D01*
X550615Y635696D01*
X550040Y634307D01*
Y632803D01*
X550615Y631413D01*
X550660Y631369D01*
Y551873D01*
X548120Y550821D01*
X543757Y555184D01*
Y650693D01*
X543780Y650748D01*
Y652252D01*
X543205Y653641D01*
X542141Y654705D01*
X540752Y655280D01*
X539248D01*
X537859Y654705D01*
X536796Y653641D01*
X536220Y652252D01*
Y650748D01*
X536243Y650693D01*
Y553628D01*
X536529Y552190D01*
X537343Y550971D01*
X544085Y544229D01*
X544108Y544174D01*
X545171Y543111D01*
X546561Y542535D01*
X548064D01*
X548120Y542559D01*
X550660Y540999D01*
Y460273D01*
X548120Y459768D01*
X547784Y460580D01*
X546721Y461643D01*
X545331Y462219D01*
X543827D01*
X542438Y461643D01*
X541375Y460580D01*
X540799Y459191D01*
Y458666D01*
X538311Y457561D01*
X532608Y463265D01*
Y463794D01*
X532033Y465183D01*
X530969Y466246D01*
X529580Y466822D01*
X528076D01*
X526687Y466246D01*
X525624Y465183D01*
X525048Y463794D01*
Y462290D01*
X525624Y460901D01*
X526687Y459837D01*
X527631Y459447D01*
X540704Y446373D01*
Y385420D01*
X539232Y383280D01*
X537728D01*
X536339Y382705D01*
X536244Y382610D01*
X530551D01*
X529976Y383014D01*
X529101Y384043D01*
X528651Y384972D01*
X528757Y385507D01*
Y396004D01*
X528471Y397442D01*
X527657Y398661D01*
X511945Y414373D01*
X510726Y415187D01*
X509288Y415473D01*
X408023D01*
X392197Y431300D01*
X390978Y432114D01*
X389540Y432400D01*
X307684D01*
X305532Y433842D01*
Y435346D01*
X304957Y436735D01*
X304112Y438170D01*
X304956Y439604D01*
X305532Y440994D01*
Y442497D01*
X304957Y443887D01*
X304112Y445321D01*
X304956Y446756D01*
X305532Y448145D01*
Y449649D01*
X305221Y450399D01*
X306090Y452312D01*
X306648Y452939D01*
X341749D01*
X342938Y453176D01*
X343947Y453850D01*
X375124Y485026D01*
X375124Y485026D01*
X389761Y499663D01*
X390119D01*
X391508Y500238D01*
X392572Y501302D01*
X393147Y502691D01*
Y504195D01*
X392572Y505584D01*
X391508Y506647D01*
X390119Y507223D01*
X388615D01*
X387226Y506647D01*
X386163Y505584D01*
X385655Y504358D01*
X385612Y504310D01*
X370726Y489424D01*
X370726Y489424D01*
X370726Y489424D01*
X340460Y459158D01*
X303988D01*
X303893Y459253D01*
X302504Y459828D01*
X301000D01*
X299611Y459253D01*
X297242Y460476D01*
Y471914D01*
X303294Y477966D01*
X348349D01*
X349539Y478203D01*
X350548Y478877D01*
X358561Y486890D01*
X359235Y487899D01*
X359472Y489089D01*
X359472Y489089D01*
Y496954D01*
X359566Y497049D01*
X360142Y498438D01*
Y499942D01*
X359566Y501331D01*
X358503Y502394D01*
X357114Y502970D01*
X355610D01*
X354221Y502394D01*
X354189Y502363D01*
X351650Y503415D01*
Y503502D01*
X351074Y504891D01*
X350011Y505955D01*
X348621Y506530D01*
X347118D01*
X345728Y505955D01*
X344665Y504891D01*
X344090Y503502D01*
Y501998D01*
X344665Y500609D01*
X345728Y499546D01*
X347118Y498970D01*
X348621D01*
X350011Y499546D01*
X350042Y499577D01*
X352582Y498525D01*
Y498438D01*
X353158Y497049D01*
X353252Y496954D01*
Y490377D01*
X347061Y484186D01*
X302006D01*
X300816Y483949D01*
X299807Y483275D01*
X291933Y475401D01*
X291259Y474392D01*
X291022Y473202D01*
Y456949D01*
X289991Y456217D01*
X288574Y455805D01*
X280224Y464155D01*
Y492252D01*
X279987Y493442D01*
X279313Y494451D01*
X279313Y494451D01*
X272512Y501252D01*
Y501386D01*
X271936Y502775D01*
X270873Y503839D01*
X269484Y504414D01*
X267980D01*
X266591Y503839D01*
X265527Y502775D01*
X264952Y501386D01*
Y499882D01*
X265527Y498493D01*
X266591Y497430D01*
X267980Y496854D01*
X268114D01*
X274004Y490964D01*
Y463979D01*
X271464Y462927D01*
X241014Y493377D01*
X242194Y495367D01*
X242399Y495584D01*
X243827D01*
X245216Y496160D01*
X246280Y497223D01*
X246855Y498612D01*
Y500116D01*
X246832Y500171D01*
Y502317D01*
X248874Y504220D01*
X250378D01*
X251767Y504795D01*
X252831Y505859D01*
X253406Y507248D01*
Y508752D01*
X252831Y510141D01*
X251767Y511204D01*
X250378Y511780D01*
X248874D01*
X246832Y513684D01*
Y523493D01*
X346199D01*
X346704Y520953D01*
X346105Y520705D01*
X345042Y519641D01*
X344467Y518252D01*
Y516748D01*
X345042Y515359D01*
X346105Y514296D01*
X347495Y513720D01*
X348998D01*
X350388Y514296D01*
X351451Y515359D01*
X352026Y516748D01*
Y518252D01*
X351451Y519641D01*
X350388Y520705D01*
X349789Y520953D01*
X350294Y523493D01*
X363187D01*
Y500171D01*
X363164Y500116D01*
Y498612D01*
X363740Y497223D01*
X364803Y496160D01*
X366193Y495584D01*
X367696D01*
X369086Y496160D01*
X370149Y497223D01*
X370724Y498612D01*
Y500116D01*
X370702Y500171D01*
Y502317D01*
X372744Y504220D01*
X374247D01*
X375637Y504796D01*
X376700Y505859D01*
X377276Y507248D01*
Y508752D01*
X376700Y510141D01*
X375637Y511205D01*
X374247Y511780D01*
X372744D01*
X370702Y513684D01*
Y523493D01*
X464706D01*
X465211Y520953D01*
X464612Y520705D01*
X463549Y519641D01*
X462973Y518252D01*
Y516748D01*
X463549Y515359D01*
X464612Y514296D01*
X466001Y513720D01*
X467505D01*
X468894Y514296D01*
X469958Y515359D01*
X470533Y516748D01*
Y518252D01*
X469970Y519612D01*
X469958Y519642D01*
X470728Y522463D01*
X471213Y522600D01*
X475809Y518004D01*
Y506265D01*
X476095Y504827D01*
X476909Y503608D01*
X483240Y497278D01*
X483262Y497223D01*
X484326Y496160D01*
X485715Y495584D01*
X487219D01*
X488608Y496160D01*
X489672Y497223D01*
X490247Y498612D01*
Y500116D01*
X489672Y501505D01*
X488743Y502434D01*
X490291Y504333D01*
X491680Y503757D01*
X493184D01*
X494574Y504333D01*
X495637Y505396D01*
X496212Y506785D01*
Y508289D01*
X495637Y509678D01*
X494574Y510742D01*
X493184Y511317D01*
X491680D01*
X490291Y510742D01*
X489228Y509678D01*
X488652Y508289D01*
Y506785D01*
X489228Y505396D01*
X487352Y503792D01*
X483323Y507821D01*
Y519560D01*
X483037Y520998D01*
X482223Y522217D01*
X474533Y529907D01*
X473314Y530721D01*
X471876Y531007D01*
X150810D01*
X149372Y530721D01*
X148153Y529907D01*
X137843Y519597D01*
X137029Y518378D01*
X136743Y516940D01*
Y506986D01*
X135008Y505563D01*
X134029Y507248D01*
Y508752D01*
X133454Y510141D01*
X132390Y511204D01*
X131001Y511780D01*
X129497D01*
X128108Y511204D01*
X127044Y510141D01*
X126469Y508752D01*
Y507248D01*
X127044Y505859D01*
X125191Y504200D01*
X118300Y511092D01*
X117081Y511906D01*
X115643Y512192D01*
X108357D01*
X108078Y512673D01*
X107578Y514732D01*
X108204Y515359D01*
X108780Y516748D01*
Y518252D01*
X108204Y519641D01*
X107141Y520704D01*
X105752Y521280D01*
X104248D01*
X102859Y520704D01*
X101796Y519641D01*
X101220Y518252D01*
Y516748D01*
X101796Y515359D01*
X102422Y514732D01*
X102346Y513481D01*
X102208Y513003D01*
X101747Y512089D01*
X100830Y511906D01*
X99612Y511092D01*
X96281Y507761D01*
X95467Y506543D01*
X95181Y505105D01*
Y489942D01*
X95467Y488504D01*
X96281Y487285D01*
X111955Y471612D01*
X110983Y469265D01*
X106693D01*
X106439Y469477D01*
X105205Y471805D01*
X105380Y472226D01*
Y473730D01*
X104804Y475119D01*
X103741Y476183D01*
X102352Y476758D01*
X102218D01*
X98465Y480511D01*
X97456Y481185D01*
X96266Y481422D01*
X84024D01*
X83929Y481516D01*
X82540Y482092D01*
X81036D01*
X79647Y481516D01*
X78583Y480453D01*
X78008Y479064D01*
Y477560D01*
X78583Y476171D01*
X79647Y475107D01*
X81036Y474532D01*
X82540D01*
X83929Y475107D01*
X84024Y475202D01*
X94978D01*
X97820Y472360D01*
Y472226D01*
X97994Y471805D01*
X96761Y469477D01*
X96507Y469265D01*
X67475D01*
X66285Y469028D01*
X65276Y468354D01*
X54946Y458024D01*
X45924D01*
X45829Y458119D01*
X44440Y458694D01*
X42936D01*
X41815Y459443D01*
Y541745D01*
X67033D01*
X67281Y541795D01*
X67533Y541815D01*
X67625Y541863D01*
X67727Y541883D01*
X67937Y542024D01*
X68162Y542140D01*
X70398Y543918D01*
X70580Y544132D01*
X70778Y544330D01*
X70807Y544400D01*
X70856Y544458D01*
X70942Y544725D01*
X71049Y544984D01*
X73483Y545970D01*
X73816Y545950D01*
X75197Y544984D01*
X75304Y544725D01*
X75390Y544458D01*
X75439Y544400D01*
X75468Y544330D01*
X75666Y544132D01*
X75848Y543918D01*
X78084Y542140D01*
X78308Y542024D01*
X78519Y541883D01*
X78621Y541863D01*
X78713Y541815D01*
X78965Y541795D01*
X79213Y541745D01*
X108154D01*
X108392Y541792D01*
X108633Y541809D01*
X108736Y541861D01*
X108849Y541883D01*
X109050Y542018D01*
X109266Y542125D01*
X109342Y542213D01*
X109438Y542277D01*
X109572Y542477D01*
X109731Y542660D01*
X111135Y545120D01*
X111214Y545356D01*
X111320Y545580D01*
X111325Y545689D01*
X111360Y545792D01*
X111342Y546040D01*
X111354Y546288D01*
X111342Y546368D01*
X111742Y546815D01*
X113078Y547979D01*
X113756Y547534D01*
X113898Y547402D01*
X114133Y547173D01*
X114893Y546298D01*
X114892Y546288D01*
X114904Y546040D01*
X114886Y545792D01*
X114921Y545689D01*
X114926Y545580D01*
X115032Y545356D01*
X115111Y545120D01*
X116515Y542660D01*
X116674Y542478D01*
X116808Y542277D01*
X116904Y542213D01*
X116980Y542125D01*
X117196Y542018D01*
X117397Y541883D01*
X117510Y541861D01*
X117613Y541809D01*
X117854Y541792D01*
X118091Y541745D01*
X186410D01*
X186658Y541795D01*
X186910Y541815D01*
X187002Y541863D01*
X187104Y541883D01*
X187314Y542024D01*
X187539Y542140D01*
X189775Y543918D01*
X189957Y544132D01*
X190155Y544330D01*
X190184Y544400D01*
X190233Y544458D01*
X190319Y544725D01*
X190426Y544984D01*
X192860Y545970D01*
X193193Y545950D01*
X194574Y544984D01*
X194681Y544725D01*
X194767Y544458D01*
X194816Y544400D01*
X194845Y544330D01*
X195043Y544132D01*
X195224Y543918D01*
X197461Y542140D01*
X197686Y542024D01*
X197896Y541883D01*
X197998Y541863D01*
X198090Y541815D01*
X198342Y541795D01*
X198590Y541745D01*
X227532D01*
X227769Y541792D01*
X228010Y541809D01*
X228113Y541861D01*
X228226Y541883D01*
X228427Y542018D01*
X228643Y542125D01*
X228719Y542213D01*
X228815Y542277D01*
X228949Y542477D01*
X229108Y542660D01*
X230512Y545120D01*
X230591Y545356D01*
X230697Y545580D01*
X230702Y545689D01*
X230737Y545792D01*
X230719Y546040D01*
X230731Y546288D01*
X230719Y546368D01*
X231119Y546815D01*
X232455Y547979D01*
X233133Y547534D01*
X233275Y547402D01*
X233510Y547173D01*
X234270Y546298D01*
X234269Y546288D01*
X234281Y546040D01*
X234263Y545792D01*
X234298Y545689D01*
X234303Y545580D01*
X234409Y545356D01*
X234488Y545120D01*
X235892Y542660D01*
X236051Y542478D01*
X236185Y542277D01*
X236281Y542213D01*
X236357Y542125D01*
X236573Y542018D01*
X236774Y541883D01*
X236887Y541861D01*
X236990Y541809D01*
X237231Y541792D01*
X237468Y541745D01*
X310279D01*
X310527Y541794D01*
X310779Y541815D01*
X310872Y541863D01*
X310974Y541883D01*
X311184Y542024D01*
X311409Y542140D01*
X313645Y543918D01*
X313826Y544132D01*
X314024Y544330D01*
X314053Y544400D01*
X314103Y544458D01*
X314188Y544725D01*
X314295Y544984D01*
X314518Y546105D01*
X314953Y546755D01*
X315342Y547015D01*
X317960Y546494D01*
X318221Y546105D01*
X318444Y544984D01*
X318551Y544725D01*
X318636Y544458D01*
X318685Y544400D01*
X318715Y544330D01*
X318913Y544132D01*
X319094Y543918D01*
X321330Y542140D01*
X321555Y542024D01*
X321765Y541883D01*
X321867Y541863D01*
X321960Y541815D01*
X322212Y541794D01*
X322460Y541745D01*
X351401D01*
X351638Y541792D01*
X351879Y541809D01*
X351982Y541861D01*
X352096Y541883D01*
X352296Y542018D01*
X352513Y542126D01*
X352589Y542213D01*
X352684Y542277D01*
X352819Y542478D01*
X352977Y542660D01*
X354382Y545120D01*
X354461Y545356D01*
X354567Y545582D01*
X354572Y545690D01*
X354606Y545792D01*
X354589Y546040D01*
X354601Y546289D01*
X354589Y546369D01*
X354768Y547113D01*
X357069Y547915D01*
X358247Y546867D01*
X358165Y546454D01*
Y546410D01*
X358150Y546369D01*
X358138Y546289D01*
X358150Y546040D01*
X358133Y545792D01*
X358167Y545690D01*
X358172Y545582D01*
X358278Y545356D01*
X358357Y545120D01*
X359762Y542660D01*
X359920Y542478D01*
X360055Y542277D01*
X360150Y542213D01*
X360226Y542126D01*
X360442Y542018D01*
X360643Y541883D01*
X360756Y541861D01*
X360860Y541809D01*
X361101Y541792D01*
X361338Y541745D01*
X428786D01*
X429034Y541794D01*
X429286Y541815D01*
X429378Y541863D01*
X429480Y541883D01*
X429691Y542024D01*
X429915Y542140D01*
X432151Y543918D01*
X432333Y544132D01*
X432531Y544330D01*
X432560Y544400D01*
X432609Y544458D01*
X432695Y544725D01*
X432802Y544984D01*
X433025Y546105D01*
X433459Y546755D01*
X433848Y547015D01*
X436467Y546494D01*
X436727Y546105D01*
X436950Y544984D01*
X437057Y544725D01*
X437143Y544458D01*
X437192Y544400D01*
X437221Y544330D01*
X437419Y544132D01*
X437600Y543918D01*
X439837Y542140D01*
X440061Y542024D01*
X440272Y541883D01*
X440374Y541863D01*
X440466Y541815D01*
X440718Y541794D01*
X440966Y541745D01*
X469908D01*
X470145Y541792D01*
X470386Y541809D01*
X470489Y541861D01*
X470602Y541883D01*
X470803Y542018D01*
X471019Y542126D01*
X471095Y542213D01*
X471191Y542277D01*
X471325Y542478D01*
X471484Y542660D01*
X472888Y545120D01*
X472967Y545356D01*
X473074Y545582D01*
X473079Y545690D01*
X473113Y545792D01*
X473095Y546040D01*
X473107Y546289D01*
X473095Y546369D01*
X473275Y547113D01*
X475575Y547915D01*
X476754Y546867D01*
X476671Y546454D01*
Y546410D01*
X476657Y546369D01*
X476645Y546289D01*
X476657Y546040D01*
X476639Y545792D01*
X476673Y545690D01*
X476679Y545582D01*
X476785Y545356D01*
X476864Y545120D01*
X478268Y542660D01*
X478427Y542478D01*
X478561Y542277D01*
X478657Y542213D01*
X478733Y542126D01*
X478949Y542018D01*
X479150Y541883D01*
X479263Y541861D01*
X479366Y541809D01*
X479607Y541792D01*
X479844Y541745D01*
X500064D01*
Y502938D01*
X482850Y485723D01*
X420058D01*
X419050Y486796D01*
X418375Y488066D01*
X418451Y488248D01*
Y489752D01*
X417875Y491141D01*
X416812Y492205D01*
X415422Y492780D01*
X413919D01*
X412529Y492205D01*
X411466Y491141D01*
X410891Y489752D01*
Y488248D01*
X411466Y486859D01*
X412529Y485796D01*
X413919Y485220D01*
X414236D01*
X415288Y482680D01*
X399686Y467078D01*
X399552D01*
X398163Y466503D01*
X397099Y465439D01*
X396524Y464050D01*
Y462546D01*
X397099Y461157D01*
X398163Y460094D01*
X399552Y459518D01*
X401056D01*
X402445Y460094D01*
X403508Y461157D01*
X404084Y462546D01*
Y462680D01*
X420908Y479504D01*
X484138D01*
X485328Y479741D01*
X486337Y480415D01*
X505373Y499451D01*
X506047Y500460D01*
X506284Y501650D01*
Y587324D01*
X508824Y588376D01*
X514542Y582658D01*
Y494048D01*
X484838Y464344D01*
X465309D01*
X464780Y464884D01*
X463832Y466884D01*
X464107Y467547D01*
Y469051D01*
X463531Y470440D01*
X462468Y471504D01*
X461079Y472079D01*
X459575D01*
X458186Y471504D01*
X457122Y470440D01*
X456547Y469051D01*
Y467547D01*
X456822Y466884D01*
X455874Y464884D01*
X455344Y464344D01*
X437084D01*
X436989Y464439D01*
X436164Y464780D01*
X435523Y465249D01*
X434773Y467554D01*
X434790Y467596D01*
Y469100D01*
X434215Y470489D01*
X433151Y471553D01*
X431762Y472128D01*
X430258D01*
X428869Y471553D01*
X427806Y470489D01*
X427230Y469100D01*
Y467596D01*
X427806Y466207D01*
X428869Y465144D01*
X429694Y464802D01*
X430335Y464333D01*
X431086Y462028D01*
X431068Y461986D01*
Y460482D01*
X431643Y459093D01*
X432707Y458029D01*
X434096Y457454D01*
X435600D01*
X436989Y458029D01*
X437084Y458124D01*
X465510D01*
X466304Y456936D01*
Y455432D01*
X466603Y454711D01*
X466409Y454144D01*
X465544Y452828D01*
X465035Y452364D01*
X464298D01*
X462909Y451788D01*
X461846Y450725D01*
X461270Y449336D01*
Y447832D01*
X461846Y446443D01*
X462909Y445379D01*
X464298Y444804D01*
X465802D01*
X467191Y445379D01*
X468255Y446443D01*
X468830Y447832D01*
Y449336D01*
X468531Y450057D01*
X468725Y450624D01*
X469590Y451940D01*
X470099Y452404D01*
X470836D01*
X472225Y452979D01*
X473288Y454043D01*
X473864Y455432D01*
Y456936D01*
X474658Y458124D01*
X486126D01*
X487316Y458361D01*
X488325Y459035D01*
X519851Y490561D01*
X520525Y491570D01*
X520762Y492760D01*
Y583946D01*
X520525Y585136D01*
X519851Y586145D01*
X496737Y609259D01*
X495728Y609933D01*
X494538Y610170D01*
X424016D01*
X422826Y609933D01*
X421817Y609259D01*
X414058Y601500D01*
X413924D01*
X412535Y600924D01*
X411471Y599861D01*
X410896Y598472D01*
Y596968D01*
X411471Y595579D01*
X412535Y594515D01*
X413924Y593940D01*
X415428D01*
X416817Y594515D01*
X417881Y595579D01*
X418456Y596968D01*
Y597102D01*
X425304Y603950D01*
X480492D01*
X481160Y602956D01*
X481773Y601410D01*
X481360Y600412D01*
Y598908D01*
X481936Y597519D01*
X482999Y596456D01*
X484388Y595880D01*
X485892D01*
X487281Y596456D01*
X487376Y596550D01*
X490714D01*
X500064Y587200D01*
Y576815D01*
X184695D01*
Y667475D01*
X335280D01*
X335975Y667613D01*
X336563Y668007D01*
X336957Y668596D01*
X337095Y669290D01*
Y684160D01*
X336957Y684854D01*
X336563Y685443D01*
X335975Y685836D01*
X335280Y685975D01*
X184695D01*
Y810500D01*
X184557Y811195D01*
X184163Y811783D01*
X183575Y812177D01*
X182880Y812315D01*
X90000Y812315D01*
X89305Y812177D01*
X88717Y811783D01*
X57297Y780363D01*
X56903Y779775D01*
X56765Y779080D01*
Y725649D01*
X56903Y724954D01*
X57297Y724365D01*
X57885Y723972D01*
X58580Y723834D01*
X106138D01*
X108676Y721294D01*
X108638Y654595D01*
X45406Y654595D01*
X44712Y654457D01*
X44123Y654063D01*
X43422Y653362D01*
X42699Y653063D01*
X41917D01*
X41195Y653362D01*
X40493Y654063D01*
X39905Y654457D01*
X39210Y654595D01*
X14355Y654595D01*
X14355Y777038D01*
X17843Y784964D01*
X21051Y785949D01*
X23801Y784548D01*
X28558Y783002D01*
X33499Y782220D01*
X38501D01*
X43442Y783002D01*
X48199Y784548D01*
X52656Y786819D01*
X56703Y789760D01*
X60240Y793297D01*
X63181Y797344D01*
X65452Y801801D01*
X66997Y806558D01*
X67780Y811499D01*
Y816501D01*
X66997Y821442D01*
X65452Y826199D01*
X64036Y828979D01*
X65012Y832178D01*
X72951Y835651D01*
X777049Y835651D01*
D02*
G37*
G36*
X151489Y506028D02*
X151467Y505970D01*
X151448Y505892D01*
X151431Y505792D01*
X151405Y505528D01*
X151389Y505180D01*
X151384Y504747D01*
X148844D01*
X148843Y504974D01*
X148780Y505892D01*
X148761Y505970D01*
X148739Y506028D01*
X148714Y506064D01*
X151514D01*
X151489Y506028D01*
D02*
G37*
G36*
X389189Y501451D02*
X389138Y501446D01*
X389075Y501424D01*
X389000Y501386D01*
X388913Y501329D01*
X388813Y501256D01*
X388576Y501058D01*
X388290Y500792D01*
X388129Y500633D01*
X386519Y502615D01*
X386679Y502776D01*
X387362Y503550D01*
X387372Y503582D01*
X389189Y501451D01*
D02*
G37*
G36*
X270740Y500571D02*
X270765Y500515D01*
X270807Y500446D01*
X270865Y500363D01*
X271033Y500158D01*
X271268Y499901D01*
X271571Y499591D01*
X269775Y497795D01*
X269613Y497955D01*
X268920Y498559D01*
X268851Y498601D01*
X268795Y498626D01*
X268752Y498634D01*
X270732Y500614D01*
X270740Y500571D01*
D02*
G37*
G36*
X112627Y497900D02*
X112605Y497842D01*
X112586Y497764D01*
X112569Y497664D01*
X112543Y497401D01*
X112527Y497052D01*
X112522Y496619D01*
X109982D01*
X109981Y496846D01*
X109918Y497764D01*
X109899Y497842D01*
X109877Y497900D01*
X109852Y497936D01*
X112652D01*
X112627Y497900D01*
D02*
G37*
G36*
X232637Y499301D02*
X232662Y499245D01*
X232704Y499175D01*
X232762Y499093D01*
X232930Y498888D01*
X233165Y498631D01*
X233468Y498321D01*
X231672Y496525D01*
X231510Y496685D01*
X230818Y497289D01*
X230748Y497331D01*
X230692Y497356D01*
X230649Y497364D01*
X232629Y499344D01*
X232637Y499301D01*
D02*
G37*
G36*
X357737Y497725D02*
X357715Y497668D01*
X357696Y497590D01*
X357679Y497490D01*
X357653Y497226D01*
X357637Y496878D01*
X357632Y496445D01*
X355092D01*
X355091Y496672D01*
X355028Y497590D01*
X355009Y497668D01*
X354987Y497725D01*
X354962Y497762D01*
X357762D01*
X357737Y497725D01*
D02*
G37*
G36*
X83252Y479687D02*
X83310Y479665D01*
X83388Y479646D01*
X83488Y479629D01*
X83751Y479603D01*
X84100Y479587D01*
X84533Y479582D01*
Y477042D01*
X84306Y477041D01*
X83388Y476978D01*
X83310Y476959D01*
X83252Y476937D01*
X83216Y476912D01*
Y479712D01*
X83252Y479687D01*
D02*
G37*
G36*
X100719Y475657D02*
X101412Y475053D01*
X101481Y475011D01*
X101537Y474986D01*
X101580Y474978D01*
X99600Y472998D01*
X99592Y473041D01*
X99567Y473097D01*
X99525Y473167D01*
X99467Y473249D01*
X99299Y473454D01*
X99064Y473711D01*
X98761Y474021D01*
X100557Y475817D01*
X100719Y475657D01*
D02*
G37*
G36*
X228404Y438126D02*
X228427Y438071D01*
X229490Y437007D01*
X229545Y436985D01*
X238317Y428213D01*
X237264Y425673D01*
X168473D01*
X129070Y465076D01*
X130042Y467423D01*
X150504D01*
X150559Y467400D01*
X152063D01*
X152118Y467423D01*
X199107D01*
X228404Y438126D01*
D02*
G37*
G36*
X403143Y464341D02*
X402983Y464179D01*
X402379Y463487D01*
X402337Y463417D01*
X402312Y463361D01*
X402304Y463318D01*
X400324Y465298D01*
X400367Y465306D01*
X400423Y465331D01*
X400493Y465373D01*
X400575Y465431D01*
X400780Y465599D01*
X401037Y465835D01*
X401347Y466137D01*
X403143Y464341D01*
D02*
G37*
G36*
X530807Y462689D02*
X530826Y462623D01*
X530862Y462545D01*
X530916Y462455D01*
X530987Y462353D01*
X531182Y462114D01*
X531447Y461827D01*
X531606Y461665D01*
X529475Y460204D01*
X528568Y461059D01*
X530806Y462743D01*
X530807Y462689D01*
D02*
G37*
G36*
X436312Y462609D02*
X436370Y462587D01*
X436448Y462568D01*
X436548Y462551D01*
X436811Y462525D01*
X437160Y462509D01*
X437593Y462504D01*
Y459964D01*
X437366Y459963D01*
X436448Y459900D01*
X436370Y459881D01*
X436312Y459859D01*
X436276Y459834D01*
Y462634D01*
X436312Y462609D01*
D02*
G37*
G36*
X303216Y457424D02*
X303274Y457402D01*
X303352Y457382D01*
X303452Y457365D01*
X303715Y457339D01*
X304064Y457324D01*
X304497Y457318D01*
Y454779D01*
X304270Y454777D01*
X303352Y454715D01*
X303274Y454695D01*
X303216Y454673D01*
X303180Y454649D01*
Y457449D01*
X303216Y457424D01*
D02*
G37*
G36*
X45152Y456289D02*
X45210Y456267D01*
X45288Y456248D01*
X45388Y456231D01*
X45651Y456205D01*
X46000Y456189D01*
X46433Y456184D01*
Y453644D01*
X46206Y453643D01*
X45288Y453580D01*
X45210Y453561D01*
X45152Y453539D01*
X45116Y453514D01*
Y456314D01*
X45152Y456289D01*
D02*
G37*
G36*
X555040Y454315D02*
X555041Y454087D01*
X555096Y453173D01*
X555114Y453095D01*
X555133Y453039D01*
X555155Y453005D01*
X552356Y453075D01*
X552383Y453112D01*
X552408Y453171D01*
X552430Y453250D01*
X552448Y453351D01*
X552464Y453472D01*
X552487Y453779D01*
X552500Y454397D01*
X555040Y454315D01*
D02*
G37*
G36*
X300871Y451576D02*
X301563Y450972D01*
X301633Y450930D01*
X301689Y450905D01*
X301732Y450897D01*
X299752Y448917D01*
X299744Y448960D01*
X299719Y449016D01*
X299677Y449086D01*
X299619Y449168D01*
X299451Y449373D01*
X299216Y449630D01*
X298913Y449940D01*
X300709Y451736D01*
X300871Y451576D01*
D02*
G37*
G36*
X290203D02*
X290896Y450972D01*
X290965Y450930D01*
X291021Y450905D01*
X291064Y450897D01*
X289084Y448917D01*
X289076Y448960D01*
X289051Y449016D01*
X289009Y449086D01*
X288951Y449168D01*
X288783Y449373D01*
X288548Y449630D01*
X288245Y449940D01*
X290041Y451736D01*
X290203Y451576D01*
D02*
G37*
G36*
X160936Y410738D02*
X161945Y410064D01*
X163135Y409828D01*
X199358D01*
X200152Y408639D01*
Y407136D01*
X200728Y405746D01*
X201341Y405133D01*
X201771Y404452D01*
X201562Y402036D01*
X201560Y402029D01*
X200987Y400647D01*
Y400513D01*
X187107Y386633D01*
X186433Y385624D01*
X186196Y384434D01*
Y340120D01*
X183966Y338414D01*
X183632Y338552D01*
X182128D01*
X180739Y337976D01*
X179676Y336913D01*
X179100Y335524D01*
Y334020D01*
X179676Y332631D01*
X180739Y331567D01*
X182128Y330992D01*
X182262D01*
X185568Y327686D01*
X186577Y327012D01*
X187767Y326775D01*
X201250D01*
X202440Y327012D01*
X203449Y327686D01*
X211086Y335322D01*
X211760Y336331D01*
X211997Y337521D01*
Y376148D01*
X212092Y376243D01*
X212667Y377633D01*
Y379136D01*
X212092Y380526D01*
X211658Y380959D01*
X212893Y383316D01*
X213604D01*
X214993Y383891D01*
X216056Y384955D01*
X216632Y386344D01*
Y387848D01*
X216056Y389237D01*
X215962Y389332D01*
Y402844D01*
X215962Y402844D01*
X215725Y404034D01*
X215051Y405043D01*
X215051Y405043D01*
X212613Y407481D01*
X213585Y409828D01*
X325931D01*
X363022Y372736D01*
X364031Y372062D01*
X365221Y371825D01*
X365221Y371825D01*
X410976D01*
X412970Y370002D01*
Y368498D01*
X412993Y368443D01*
Y345307D01*
X412970Y345252D01*
Y343748D01*
X412993Y343693D01*
Y336576D01*
X400162Y323745D01*
X380555D01*
X380500Y323768D01*
X378996D01*
X378941Y323745D01*
X371354D01*
X369916Y323459D01*
X368697Y322644D01*
X353891Y307839D01*
X353526Y307547D01*
X353051Y307223D01*
X352562Y306946D01*
X352059Y306713D01*
X351538Y306522D01*
X350997Y306373D01*
X350432Y306265D01*
X349967Y306213D01*
X242373D01*
X242318Y306236D01*
X240814D01*
X240759Y306213D01*
X235405D01*
Y361958D01*
X250671D01*
X266133Y346495D01*
X266156Y346440D01*
X267220Y345376D01*
X268609Y344801D01*
X270113D01*
X271502Y345376D01*
X272565Y346440D01*
X273141Y347829D01*
Y349333D01*
X272565Y350722D01*
X271502Y351785D01*
X271447Y351808D01*
X254883Y368372D01*
X253665Y369186D01*
X252227Y369472D01*
X232455D01*
X232400Y369495D01*
X230896D01*
X229507Y368919D01*
X228444Y367856D01*
X227868Y366467D01*
Y364963D01*
X227891Y364908D01*
Y306213D01*
X179266D01*
X174345Y311134D01*
X174053Y311499D01*
X173730Y311974D01*
X173453Y312463D01*
X173220Y312966D01*
X173029Y313487D01*
X172879Y314028D01*
X172771Y314593D01*
X172720Y315058D01*
Y385723D01*
X172743Y385779D01*
Y387282D01*
X172167Y388672D01*
X171104Y389735D01*
X169715Y390310D01*
X168211D01*
X166822Y389735D01*
X165758Y388672D01*
X165183Y387282D01*
Y385779D01*
X165206Y385723D01*
Y315058D01*
X165154Y314593D01*
X165046Y314028D01*
X164897Y313487D01*
X164706Y312966D01*
X164473Y312463D01*
X164195Y311974D01*
X163872Y311499D01*
X163580Y311134D01*
X146320Y293873D01*
X126244D01*
X125952Y293899D01*
X125534Y293968D01*
X125231Y294050D01*
X125096Y294104D01*
Y299896D01*
X105536D01*
Y280732D01*
X95776D01*
X80326Y296182D01*
Y406689D01*
X95476D01*
X98165Y404001D01*
Y403867D01*
X98740Y402478D01*
X99803Y401414D01*
X101193Y400839D01*
X102697D01*
X104086Y401414D01*
X104181Y401509D01*
X108455D01*
X109645Y401746D01*
X110654Y402420D01*
X119146Y410913D01*
X119821Y411922D01*
X120057Y413111D01*
X120057Y413112D01*
Y427678D01*
X120152Y427773D01*
X120728Y429162D01*
Y430666D01*
X120152Y432056D01*
X119089Y433119D01*
X117699Y433694D01*
X116196D01*
X114806Y433119D01*
X113743Y432056D01*
X113167Y430666D01*
Y429162D01*
X113743Y427773D01*
X113838Y427678D01*
Y414400D01*
X107167Y407729D01*
X104181D01*
X104086Y407823D01*
X102697Y408399D01*
X102563D01*
X98963Y411998D01*
X97955Y412672D01*
X96764Y412909D01*
X79452D01*
X79357Y413004D01*
X77968Y413579D01*
X76464D01*
X75075Y413004D01*
X74012Y411940D01*
X73436Y410551D01*
Y409047D01*
X74012Y407658D01*
X74106Y407563D01*
Y294894D01*
X74343Y293704D01*
X75017Y292695D01*
X92289Y275423D01*
X93298Y274749D01*
X94488Y274512D01*
X106614D01*
X107666Y271972D01*
X106882Y271188D01*
X105494Y268784D01*
X104776Y266104D01*
Y265986D01*
X115316D01*
X125856D01*
Y266104D01*
X125138Y268784D01*
X123750Y271188D01*
X122966Y271972D01*
X124018Y274512D01*
X134434D01*
X139619Y269327D01*
X140628Y268653D01*
X141818Y268416D01*
X293420D01*
X293515Y268321D01*
X294904Y267746D01*
X296408D01*
X297797Y268321D01*
X298860Y269385D01*
X299436Y270774D01*
Y272278D01*
X298860Y273667D01*
X297797Y274730D01*
X296408Y275306D01*
X294904D01*
X293515Y274730D01*
X293420Y274636D01*
X143106D01*
X137921Y279821D01*
X136912Y280495D01*
X135722Y280732D01*
X125096D01*
Y286127D01*
X125231Y286182D01*
X125534Y286264D01*
X125952Y286333D01*
X126244Y286359D01*
X147876D01*
X149314Y286645D01*
X150533Y287459D01*
X167975Y304901D01*
X168277Y305113D01*
X168557Y305253D01*
X168778Y305319D01*
X168963Y305338D01*
X169147Y305319D01*
X169369Y305253D01*
X169648Y305113D01*
X169951Y304901D01*
X175053Y299799D01*
X176272Y298985D01*
X177710Y298699D01*
X240759D01*
X240814Y298676D01*
X242318D01*
X242373Y298699D01*
X311838D01*
X312202Y298635D01*
X312498Y298536D01*
X312701Y298426D01*
X312845Y298309D01*
X312962Y298165D01*
X313072Y297962D01*
X313171Y297666D01*
X313235Y297302D01*
Y268510D01*
X306156Y261431D01*
X296463D01*
X296408Y261454D01*
X294904D01*
X293515Y260879D01*
X292451Y259815D01*
X291876Y258426D01*
Y256922D01*
X292451Y255533D01*
X293515Y254470D01*
X294904Y253894D01*
X296408D01*
X296463Y253917D01*
X307712D01*
X309150Y254203D01*
X310369Y255017D01*
X319649Y264297D01*
X320463Y265516D01*
X320749Y266954D01*
Y297302D01*
X320813Y297666D01*
X320912Y297962D01*
X321022Y298165D01*
X321139Y298309D01*
X321283Y298426D01*
X321486Y298536D01*
X321782Y298635D01*
X322146Y298699D01*
X348667D01*
X349032Y298635D01*
X349328Y298536D01*
X349531Y298426D01*
X349675Y298309D01*
X349792Y298165D01*
X349902Y297962D01*
X350000Y297666D01*
X350065Y297302D01*
Y251206D01*
X350351Y249768D01*
X351165Y248549D01*
X373543Y226171D01*
X374762Y225357D01*
X376200Y225071D01*
X419178D01*
X419233Y225048D01*
X420737D01*
X420792Y225071D01*
X443618D01*
X452515Y216174D01*
X453734Y215359D01*
X455172Y215073D01*
X509407D01*
X509771Y215009D01*
X510067Y214911D01*
X510270Y214801D01*
X510414Y214683D01*
X510531Y214540D01*
X510641Y214336D01*
X510740Y214040D01*
X510804Y213676D01*
Y173017D01*
X511090Y171579D01*
X511904Y170360D01*
X521888Y160376D01*
Y117720D01*
X521865Y117665D01*
Y116945D01*
X521852Y116877D01*
Y112129D01*
X507397Y97675D01*
X473622D01*
X472185Y97388D01*
X470966Y96574D01*
X465988Y91596D01*
X465685Y91384D01*
X465406Y91245D01*
X465185Y91178D01*
X465000Y91160D01*
X464816Y91178D01*
X464594Y91245D01*
X464315Y91384D01*
X464012Y91596D01*
X450336Y105273D01*
X449117Y106087D01*
X447679Y106373D01*
X408117D01*
X393065Y121425D01*
Y141273D01*
X393088Y141328D01*
Y142832D01*
X392512Y144221D01*
X391449Y145285D01*
X390060Y145860D01*
X388556D01*
X388501Y145837D01*
X348533D01*
X348478Y145860D01*
X346974D01*
X345585Y145285D01*
X344521Y144221D01*
X343946Y142832D01*
Y141328D01*
X344521Y139939D01*
X345585Y138876D01*
X346974Y138300D01*
X348478D01*
X348533Y138323D01*
X385550D01*
Y119869D01*
X385836Y118431D01*
X386651Y117212D01*
X403904Y99959D01*
X405123Y99145D01*
X406561Y98859D01*
X446123D01*
X459347Y85635D01*
X459168Y84449D01*
X458913Y83931D01*
X458151Y83114D01*
X458123Y83095D01*
X161412D01*
X160718Y82957D01*
X160129Y82563D01*
X159735Y81974D01*
X159597Y81280D01*
Y14349D01*
X150858D01*
X140858Y14349D01*
X71228D01*
X63425Y18327D01*
X63181Y19344D01*
X65452Y23801D01*
X66997Y28558D01*
X67780Y33499D01*
Y38501D01*
X66997Y43442D01*
X65452Y48199D01*
X63181Y52656D01*
X60240Y56703D01*
X56703Y60240D01*
X52656Y63181D01*
X48199Y65452D01*
X43442Y66997D01*
X38501Y67780D01*
X33499D01*
X28558Y66997D01*
X23801Y65452D01*
X21051Y64051D01*
X17842Y65036D01*
X14355Y72961D01*
Y92165D01*
X266720D01*
X267414Y92303D01*
X268003Y92697D01*
X276873Y101567D01*
X277267Y102156D01*
X277405Y102850D01*
Y175290D01*
X439724D01*
X439819Y175195D01*
X441208Y174619D01*
X442712D01*
X444101Y175195D01*
X445165Y176258D01*
X445740Y177647D01*
Y179151D01*
X445165Y180541D01*
X444101Y181604D01*
X442712Y182179D01*
X441208D01*
X439819Y181604D01*
X439724Y181509D01*
X277405D01*
Y189732D01*
X277267Y190426D01*
X276873Y191015D01*
X274835Y193053D01*
X274246Y193447D01*
X273552Y193585D01*
X251372D01*
X250677Y193447D01*
X250088Y193053D01*
X247637Y190602D01*
X247243Y190013D01*
X247105Y189318D01*
Y151851D01*
X188109D01*
X186544Y154391D01*
X186564Y154439D01*
Y155942D01*
X185989Y157332D01*
X184925Y158395D01*
X183536Y158970D01*
X182032D01*
X180643Y158395D01*
X179580Y157332D01*
X179004Y155942D01*
Y154439D01*
X179024Y154391D01*
X177459Y151851D01*
X172304D01*
X172129Y151816D01*
X171950D01*
X171785Y151748D01*
X171610Y151713D01*
X170753Y151413D01*
X169897Y151713D01*
X169722Y151748D01*
X169557Y151816D01*
X169378D01*
X169202Y151851D01*
X125096D01*
Y170308D01*
X105536D01*
Y151851D01*
X50106D01*
X41815Y160142D01*
Y414143D01*
X41727Y414582D01*
X42056Y414719D01*
X43120Y415782D01*
X43695Y417171D01*
Y418675D01*
X43120Y420064D01*
X43025Y420159D01*
Y426267D01*
X47598Y430840D01*
X51460D01*
X52650Y431077D01*
X53659Y431751D01*
X75236Y453328D01*
X104603D01*
X106456Y451165D01*
Y449661D01*
X107031Y448272D01*
X108095Y447208D01*
X109484Y446633D01*
X110988D01*
X112377Y447208D01*
X113441Y448272D01*
X114016Y449661D01*
Y451165D01*
X115869Y453328D01*
X118346D01*
X160936Y410738D01*
D02*
G37*
G36*
X276119Y443351D02*
X276812Y442746D01*
X276881Y442704D01*
X276937Y442679D01*
X276980Y442671D01*
X275000Y440691D01*
X274992Y440734D01*
X274967Y440791D01*
X274925Y440860D01*
X274867Y440943D01*
X274699Y441147D01*
X274464Y441404D01*
X274161Y441715D01*
X275957Y443511D01*
X276119Y443351D01*
D02*
G37*
G36*
X300324Y440345D02*
X300288Y440370D01*
X300230Y440392D01*
X300152Y440412D01*
X300052Y440429D01*
X299788Y440455D01*
X299440Y440470D01*
X299007Y440476D01*
Y443016D01*
X299234Y443017D01*
X300152Y443079D01*
X300230Y443099D01*
X300288Y443121D01*
X300324Y443145D01*
Y440345D01*
D02*
G37*
G36*
X38040Y442827D02*
X38098Y442805D01*
X38176Y442786D01*
X38276Y442769D01*
X38540Y442743D01*
X38888Y442727D01*
X39321Y442722D01*
Y440182D01*
X39094Y440181D01*
X38176Y440118D01*
X38098Y440099D01*
X38040Y440077D01*
X38004Y440052D01*
Y442852D01*
X38040Y442827D01*
D02*
G37*
G36*
X300158Y433387D02*
X300118Y433423D01*
X300058Y433456D01*
X299977Y433484D01*
X299875Y433509D01*
X299753Y433530D01*
X299446Y433561D01*
X299056Y433576D01*
X298829Y433578D01*
X299257Y436118D01*
X300513Y436164D01*
X300158Y433387D01*
D02*
G37*
G36*
X118323Y428450D02*
X118301Y428393D01*
X118281Y428314D01*
X118264Y428214D01*
X118238Y427951D01*
X118223Y427603D01*
X118217Y427169D01*
X115677D01*
X115676Y427397D01*
X115614Y428314D01*
X115594Y428393D01*
X115572Y428450D01*
X115548Y428486D01*
X118348D01*
X118323Y428450D01*
D02*
G37*
G36*
X41186Y420441D02*
X41249Y419523D01*
X41268Y419445D01*
X41290Y419387D01*
X41315Y419351D01*
X38515D01*
X38540Y419387D01*
X38562Y419445D01*
X38581Y419523D01*
X38598Y419623D01*
X38624Y419887D01*
X38640Y420235D01*
X38645Y420668D01*
X41185D01*
X41186Y420441D01*
D02*
G37*
G36*
X78680Y411174D02*
X78738Y411152D01*
X78816Y411133D01*
X78916Y411116D01*
X79180Y411090D01*
X79528Y411074D01*
X79961Y411069D01*
Y408529D01*
X79734Y408528D01*
X78816Y408465D01*
X78738Y408446D01*
X78680Y408424D01*
X78644Y408399D01*
Y411199D01*
X78680Y411174D01*
D02*
G37*
G36*
X78591Y408335D02*
X78569Y408277D01*
X78550Y408199D01*
X78533Y408099D01*
X78507Y407836D01*
X78491Y407487D01*
X78486Y407054D01*
X75946D01*
X75945Y407281D01*
X75882Y408199D01*
X75863Y408277D01*
X75841Y408335D01*
X75816Y408371D01*
X78616D01*
X78591Y408335D01*
D02*
G37*
G36*
X205397Y409263D02*
X205454Y409241D01*
X205533Y409221D01*
X205632Y409204D01*
X205896Y409178D01*
X206244Y409163D01*
X206677Y409157D01*
Y406617D01*
X206450Y406616D01*
X205533Y406554D01*
X205454Y406534D01*
X205397Y406512D01*
X205361Y406487D01*
Y409287D01*
X205397Y409263D01*
D02*
G37*
G36*
X101063Y407298D02*
X101756Y406693D01*
X101826Y406652D01*
X101882Y406627D01*
X101925Y406619D01*
X99945Y404639D01*
X99937Y404682D01*
X99912Y404738D01*
X99870Y404807D01*
X99811Y404890D01*
X99643Y405094D01*
X99408Y405352D01*
X99106Y405662D01*
X100902Y407458D01*
X101063Y407298D01*
D02*
G37*
G36*
X103409Y405994D02*
X103466Y405972D01*
X103545Y405953D01*
X103645Y405936D01*
X103908Y405910D01*
X104256Y405894D01*
X104690Y405889D01*
Y403349D01*
X104462Y403348D01*
X103545Y403285D01*
X103466Y403266D01*
X103409Y403243D01*
X103373Y403219D01*
Y406019D01*
X103409Y405994D01*
D02*
G37*
G36*
X204747Y397895D02*
X204704Y397887D01*
X204648Y397862D01*
X204578Y397820D01*
X204496Y397761D01*
X204291Y397593D01*
X204034Y397358D01*
X203724Y397056D01*
X201928Y398852D01*
X202087Y399013D01*
X202692Y399706D01*
X202734Y399775D01*
X202759Y399832D01*
X202767Y399875D01*
X204747Y397895D01*
D02*
G37*
G36*
X403240Y409630D02*
X403262Y409575D01*
X404326Y408512D01*
X405715Y407936D01*
X407219D01*
X407274Y407959D01*
X507732D01*
X520604Y395086D01*
X520521Y394669D01*
X519959Y394385D01*
X517810Y394062D01*
X517253Y394618D01*
X515864Y395194D01*
X514360D01*
X512971Y394618D01*
X511908Y393555D01*
X511517Y392612D01*
X508015Y389110D01*
X376146D01*
X342910Y422346D01*
X343962Y424886D01*
X387984D01*
X403240Y409630D01*
D02*
G37*
G36*
X514813Y389436D02*
X514759Y389435D01*
X514693Y389416D01*
X514615Y389380D01*
X514525Y389326D01*
X514423Y389255D01*
X514184Y389060D01*
X513897Y388795D01*
X513735Y388636D01*
X512274Y390767D01*
X513129Y391674D01*
X514813Y389436D01*
D02*
G37*
G36*
X214123Y389614D02*
X214186Y388696D01*
X214205Y388618D01*
X214227Y388560D01*
X214252Y388524D01*
X211452D01*
X211477Y388560D01*
X211499Y388618D01*
X211518Y388696D01*
X211535Y388796D01*
X211561Y389059D01*
X211577Y389408D01*
X211582Y389841D01*
X214122D01*
X214123Y389614D01*
D02*
G37*
G36*
X505843Y378611D02*
X505808Y378634D01*
X505752Y378654D01*
X505674Y378672D01*
X505575Y378687D01*
X505313Y378711D01*
X504759Y378729D01*
X504532Y378730D01*
X504469Y381270D01*
X504696Y381271D01*
X505515Y381321D01*
X505616Y381339D01*
X505695Y381360D01*
X505753Y381384D01*
X505790Y381411D01*
X505843Y378611D01*
D02*
G37*
G36*
X537052Y378100D02*
X537016Y378125D01*
X536958Y378147D01*
X536880Y378166D01*
X536780Y378183D01*
X536516Y378209D01*
X536168Y378225D01*
X535735Y378230D01*
Y380770D01*
X535962Y380771D01*
X536880Y380834D01*
X536958Y380853D01*
X537016Y380875D01*
X537052Y380900D01*
Y378100D01*
D02*
G37*
G36*
X210262Y376920D02*
X210240Y376863D01*
X210221Y376784D01*
X210204Y376684D01*
X210178Y376421D01*
X210162Y376073D01*
X210157Y375639D01*
X207617D01*
X207616Y375867D01*
X207553Y376784D01*
X207534Y376863D01*
X207512Y376920D01*
X207487Y376956D01*
X210287D01*
X210262Y376920D01*
D02*
G37*
G36*
X493572Y373535D02*
X493536Y373560D01*
X493478Y373582D01*
X493400Y373601D01*
X493300Y373618D01*
X493036Y373644D01*
X492688Y373660D01*
X492255Y373665D01*
Y376205D01*
X492482Y376206D01*
X493400Y376269D01*
X493478Y376288D01*
X493536Y376310D01*
X493572Y376335D01*
Y373535D01*
D02*
G37*
G36*
X527518Y363949D02*
X527475Y363941D01*
X527419Y363916D01*
X527349Y363874D01*
X527267Y363816D01*
X527062Y363648D01*
X526805Y363413D01*
X526495Y363110D01*
X524699Y364906D01*
X524859Y365068D01*
X525463Y365761D01*
X525505Y365830D01*
X525530Y365886D01*
X525538Y365929D01*
X527518Y363949D01*
D02*
G37*
G36*
X190577Y339444D02*
X190640Y338526D01*
X190659Y338448D01*
X190681Y338390D01*
X190706Y338354D01*
X187906D01*
X187931Y338390D01*
X187953Y338448D01*
X187972Y338526D01*
X187989Y338626D01*
X188015Y338890D01*
X188031Y339238D01*
X188036Y339671D01*
X190576D01*
X190577Y339444D01*
D02*
G37*
G36*
X184888Y334709D02*
X184913Y334653D01*
X184955Y334584D01*
X185013Y334501D01*
X185181Y334296D01*
X185416Y334039D01*
X185719Y333729D01*
X183923Y331933D01*
X183761Y332093D01*
X183069Y332697D01*
X182999Y332739D01*
X182943Y332764D01*
X182900Y332772D01*
X184880Y334752D01*
X184888Y334709D01*
D02*
G37*
G36*
X545085Y331702D02*
X545148Y330784D01*
X545167Y330706D01*
X545189Y330648D01*
X545214Y330612D01*
X542414D01*
X542439Y330648D01*
X542461Y330706D01*
X542480Y330784D01*
X542497Y330884D01*
X542523Y331147D01*
X542539Y331496D01*
X542544Y331929D01*
X545084D01*
X545085Y331702D01*
D02*
G37*
G36*
X358421Y304361D02*
X357909Y303811D01*
X357451Y303239D01*
X357047Y302644D01*
X356697Y302027D01*
X356400Y301388D01*
X356158Y300726D01*
X355970Y300042D01*
X355835Y299336D01*
X355754Y298608D01*
X355727Y297857D01*
X351917Y296741D01*
D01*
X351917D01*
X351879Y297465D01*
X351765Y298113D01*
X351574Y298684D01*
X351307Y299179D01*
X350965Y299599D01*
X350545Y299941D01*
X350050Y300208D01*
X349479Y300399D01*
X348831Y300513D01*
X348107Y300551D01*
X349223Y304361D01*
X349974Y304388D01*
X350702Y304469D01*
X351409Y304604D01*
X352092Y304792D01*
X352270Y304857D01*
X352754Y305035D01*
X353191Y305237D01*
X353393Y305331D01*
X354010Y305681D01*
X354605Y306085D01*
X355177Y306543D01*
X355727Y307055D01*
D01*
X355727D01*
X358421Y304361D01*
D02*
G37*
G36*
X170895Y315051D02*
X170976Y314322D01*
X171110Y313616D01*
X171299Y312932D01*
X171541Y312271D01*
X171838Y311632D01*
X172188Y311015D01*
X172592Y310420D01*
X173050Y309848D01*
X173562Y309298D01*
X171657Y305815D01*
X171118Y306300D01*
X170579Y306677D01*
X170040Y306946D01*
X169502Y307108D01*
X168963Y307162D01*
X168424Y307108D01*
X167885Y306946D01*
X167346Y306677D01*
X166807Y306300D01*
X166269Y305815D01*
X164364Y309298D01*
X164876Y309848D01*
X165334Y310420D01*
X165738Y311015D01*
X166088Y311632D01*
X166384Y312271D01*
X166627Y312932D01*
X166815Y313616D01*
X166950Y314322D01*
X167031Y315051D01*
X167058Y315802D01*
X170868D01*
X170895Y315051D01*
D02*
G37*
G36*
X322707Y300551D02*
X321983Y300513D01*
X321335Y300399D01*
X320764Y300208D01*
X320269Y299941D01*
X319849Y299599D01*
X319507Y299179D01*
X319240Y298684D01*
X319049Y298113D01*
X318935Y297465D01*
X318897Y296741D01*
X315087D01*
X315049Y297465D01*
X314935Y298113D01*
X314744Y298684D01*
X314477Y299179D01*
X314135Y299599D01*
X313715Y299941D01*
X313220Y300208D01*
X312649Y300399D01*
X312001Y300513D01*
X311277Y300551D01*
X316992Y304361D01*
X322707Y300551D01*
D02*
G37*
G36*
X123299Y293564D02*
X123418Y293240D01*
X123614Y292955D01*
X123884Y292707D01*
X124230Y292497D01*
X124652Y292326D01*
X125150Y292192D01*
X125723Y292097D01*
X126371Y292040D01*
X127095Y292021D01*
Y288211D01*
X126371Y288192D01*
X125723Y288135D01*
X125150Y288040D01*
X124652Y287906D01*
X124230Y287735D01*
X123884Y287525D01*
X123614Y287278D01*
X123418Y286992D01*
X123299Y286668D01*
X123255Y286306D01*
Y293926D01*
X123299Y293564D01*
D02*
G37*
G36*
X294228Y270126D02*
X294192Y270151D01*
X294134Y270173D01*
X294056Y270192D01*
X293956Y270209D01*
X293692Y270235D01*
X293344Y270251D01*
X292911Y270256D01*
Y272796D01*
X293138Y272797D01*
X294056Y272860D01*
X294134Y272879D01*
X294192Y272901D01*
X294228Y272926D01*
Y270126D01*
D02*
G37*
G36*
X403424Y260658D02*
X403481Y260636D01*
X403560Y260616D01*
X403660Y260600D01*
X403923Y260574D01*
X404271Y260558D01*
X404705Y260553D01*
Y258013D01*
X404477Y258011D01*
X403560Y257949D01*
X403481Y257930D01*
X403424Y257908D01*
X403388Y257883D01*
Y260683D01*
X403424Y260658D01*
D02*
G37*
G36*
X403660Y251566D02*
X403500Y251404D01*
X402845Y250670D01*
X402819Y250621D01*
X402809Y250588D01*
X400962Y252692D01*
X401012Y252698D01*
X401074Y252720D01*
X401148Y252759D01*
X401235Y252816D01*
X401334Y252890D01*
X401570Y253088D01*
X402017Y253514D01*
X403660Y251566D01*
D02*
G37*
G36*
X578995Y251714D02*
X575185Y245999D01*
X575147Y246723D01*
X575033Y247371D01*
X574842Y247942D01*
X574576Y248437D01*
X574233Y248857D01*
X573814Y249199D01*
X573318Y249466D01*
X572747Y249657D01*
X572099Y249771D01*
X571375Y249809D01*
Y253619D01*
X572099Y253657D01*
X572747Y253771D01*
X573318Y253962D01*
X573814Y254229D01*
X574233Y254571D01*
X574576Y254991D01*
X574842Y255486D01*
X575033Y256057D01*
X575147Y256705D01*
X575185Y257429D01*
X578995Y251714D01*
D02*
G37*
G36*
X520276Y216926D02*
X519552Y216887D01*
X518904Y216773D01*
X518333Y216583D01*
X517838Y216316D01*
X517419Y215973D01*
X517076Y215554D01*
X516809Y215059D01*
X516618Y214487D01*
X516504Y213839D01*
X516466Y213116D01*
X512656D01*
X512618Y213839D01*
X512504Y214487D01*
X512313Y215059D01*
X512046Y215554D01*
X511703Y215973D01*
X511284Y216316D01*
X510789Y216583D01*
X510218Y216773D01*
X509570Y216887D01*
X508846Y216926D01*
X514561Y220736D01*
X520276Y216926D01*
D02*
G37*
G36*
X440532Y176999D02*
X440496Y177024D01*
X440438Y177046D01*
X440360Y177066D01*
X440260Y177083D01*
X439997Y177108D01*
X439648Y177124D01*
X439215Y177129D01*
Y179669D01*
X439442Y179671D01*
X440360Y179733D01*
X440438Y179753D01*
X440496Y179775D01*
X440532Y179799D01*
Y176999D01*
D02*
G37*
G36*
X583821Y206151D02*
Y198867D01*
X583798Y198812D01*
Y197309D01*
X584373Y195919D01*
X585437Y194856D01*
X586826Y194280D01*
X588330D01*
X588385Y194303D01*
X611891D01*
X633783Y172411D01*
Y133141D01*
X633760Y133086D01*
Y131582D01*
X634336Y130193D01*
X635399Y129129D01*
X636788Y128554D01*
X638292D01*
X639874Y126460D01*
Y105955D01*
X594528D01*
X594528Y179519D01*
X594390Y180213D01*
X593996Y180802D01*
X571077Y203721D01*
X570488Y204115D01*
X569794Y204253D01*
X529590D01*
X528895Y204115D01*
X528307Y203721D01*
X527913Y203132D01*
X527775Y202438D01*
Y187960D01*
X527913Y187265D01*
X528307Y186677D01*
X528895Y186283D01*
X529590Y186145D01*
X554731D01*
X571390Y169487D01*
Y104140D01*
Y83095D01*
X520023D01*
X518971Y85635D01*
X519037Y85701D01*
X519612Y87091D01*
Y88594D01*
X519037Y89984D01*
X517974Y91047D01*
X516584Y91622D01*
X515564D01*
X514639Y92983D01*
X514319Y93969D01*
X528266Y107916D01*
X529080Y109135D01*
X529366Y110573D01*
Y116018D01*
X529425Y116161D01*
Y117665D01*
X529403Y117720D01*
Y161933D01*
X529117Y163370D01*
X528302Y164589D01*
X518318Y174573D01*
Y213676D01*
X518382Y214040D01*
X518481Y214336D01*
X518591Y214540D01*
X518708Y214683D01*
X518852Y214801D01*
X519055Y214911D01*
X519351Y215009D01*
X519715Y215073D01*
X574898D01*
X583821Y206151D01*
D02*
G37*
G36*
X735365Y334010D02*
X723435Y334010D01*
Y170645D01*
X728698Y165382D01*
X728596Y164600D01*
X728892Y162347D01*
X729762Y160248D01*
X731145Y158445D01*
X732948Y157062D01*
X735047Y156192D01*
X737300Y155896D01*
X738082Y155998D01*
X749427Y144653D01*
Y83609D01*
X663710Y83609D01*
Y83609D01*
X662490Y83609D01*
X662440Y83609D01*
X655161D01*
X654776Y84879D01*
X654815Y84905D01*
X655650Y86155D01*
X655944Y87630D01*
X655650Y89105D01*
X654815Y90355D01*
X653564Y91191D01*
X652089Y91484D01*
X650615Y91191D01*
X649364Y90355D01*
X648529Y89105D01*
X648235Y87630D01*
X648529Y86155D01*
X649364Y84905D01*
X649403Y84879D01*
X649018Y83609D01*
X641689D01*
Y58070D01*
X625529D01*
X625000Y58140D01*
X624471Y58070D01*
X605529D01*
X605000Y58140D01*
X604471Y58070D01*
X585529D01*
X585000Y58140D01*
X584471Y58070D01*
X573204D01*
Y104140D01*
Y170238D01*
X555483Y187960D01*
X529590D01*
Y202438D01*
X569794D01*
X592713Y179519D01*
X592713Y104140D01*
X641689D01*
Y197189D01*
X642620Y198120D01*
X662672D01*
X663710Y197082D01*
Y104089D01*
X667222D01*
X667594Y103533D01*
X668844Y102697D01*
X670319Y102404D01*
X671794Y102697D01*
X673044Y103533D01*
X673416Y104089D01*
X710201D01*
Y344864D01*
X735365D01*
Y334010D01*
D02*
G37*
G36*
X469599Y87200D02*
X469087Y86650D01*
X468629Y86078D01*
X468225Y85483D01*
X467875Y84866D01*
X467579Y84227D01*
X467336Y83565D01*
X467147Y82881D01*
X467013Y82175D01*
X466932Y81447D01*
X466905Y80696D01*
X463095D01*
X463068Y81447D01*
X462987Y82175D01*
X462853Y82881D01*
X462664Y83565D01*
X462421Y84227D01*
X462125Y84866D01*
X461775Y85483D01*
X461371Y86078D01*
X460913Y86650D01*
X460401Y87200D01*
X462306Y90683D01*
X462845Y90198D01*
X463383Y89821D01*
X463922Y89551D01*
X464461Y89390D01*
X465000Y89336D01*
X465539Y89390D01*
X466078Y89551D01*
X466616Y89821D01*
X467155Y90198D01*
X467694Y90683D01*
X469599Y87200D01*
D02*
G37*
G36*
X835657Y777059D02*
X835657Y72941D01*
X831231Y62763D01*
X830656Y63181D01*
X826199Y65452D01*
X821442Y66997D01*
X816501Y67780D01*
X811499D01*
X806558Y66997D01*
X801801Y65452D01*
X797344Y63181D01*
X793297Y60240D01*
X789760Y56703D01*
X786819Y52656D01*
X784548Y48199D01*
X783002Y43442D01*
X782220Y38501D01*
Y33499D01*
X783002Y28558D01*
X784548Y23801D01*
X786819Y19344D01*
X789760Y15297D01*
X790708Y14349D01*
X700857D01*
X690857Y14349D01*
X690857D01*
D01*
X430857D01*
X420857Y14349D01*
X420857D01*
D01*
X161412D01*
Y81280D01*
X461243D01*
Y79238D01*
X461208Y78977D01*
X461119Y78589D01*
X460993Y78201D01*
X460828Y77812D01*
X460622Y77418D01*
X460370Y77018D01*
X460072Y76613D01*
X459724Y76203D01*
X459289Y75750D01*
X459203Y75616D01*
X458542Y74955D01*
X457480Y73115D01*
X456930Y71062D01*
Y68938D01*
X457480Y66885D01*
X458542Y65045D01*
X460045Y63542D01*
X461885Y62480D01*
X463938Y61930D01*
X466062D01*
X468115Y62480D01*
X469955Y63542D01*
X471458Y65045D01*
X472520Y66885D01*
X473070Y68938D01*
Y71062D01*
X472520Y73115D01*
X471458Y74955D01*
X470797Y75616D01*
X470711Y75750D01*
X470276Y76202D01*
X469928Y76613D01*
X469630Y77018D01*
X469378Y77417D01*
X469172Y77812D01*
X469007Y78202D01*
X468881Y78589D01*
X468792Y78977D01*
X468757Y79238D01*
Y81280D01*
X571390D01*
Y75023D01*
X569955Y76458D01*
X568115Y77520D01*
X566062Y78070D01*
X563938D01*
X561885Y77520D01*
X560045Y76458D01*
X558542Y74955D01*
X557480Y73115D01*
X556930Y71062D01*
Y68938D01*
X557480Y66885D01*
X558542Y65045D01*
X560045Y63542D01*
X561885Y62480D01*
X563938Y61930D01*
X566062D01*
X568115Y62480D01*
X569955Y63542D01*
X571390Y64977D01*
Y58070D01*
X571528Y57375D01*
X571921Y56787D01*
X572510Y56393D01*
X573204Y56255D01*
X579842D01*
X578542Y54955D01*
X577480Y53115D01*
X576930Y51062D01*
Y48938D01*
X577480Y46885D01*
X578542Y45045D01*
X580045Y43542D01*
X581885Y42480D01*
X583938Y41930D01*
X586062D01*
X588115Y42480D01*
X589955Y43542D01*
X591458Y45045D01*
X592520Y46885D01*
X593070Y48938D01*
Y51062D01*
X592520Y53115D01*
X591458Y54955D01*
X590158Y56255D01*
X599842D01*
X598542Y54955D01*
X597480Y53115D01*
X596930Y51062D01*
Y48938D01*
X597480Y46885D01*
X598542Y45045D01*
X600045Y43542D01*
X601885Y42480D01*
X603938Y41930D01*
X606062D01*
X608115Y42480D01*
X609955Y43542D01*
X611458Y45045D01*
X612520Y46885D01*
X613070Y48938D01*
Y51062D01*
X612520Y53115D01*
X611458Y54955D01*
X610158Y56255D01*
X619842D01*
X618542Y54955D01*
X617480Y53115D01*
X616930Y51062D01*
Y48938D01*
X617480Y46885D01*
X618542Y45045D01*
X620045Y43542D01*
X621885Y42480D01*
X623938Y41930D01*
X626062D01*
X628115Y42480D01*
X629955Y43542D01*
X631458Y45045D01*
X632520Y46885D01*
X633070Y48938D01*
Y51062D01*
X632520Y53115D01*
X631458Y54955D01*
X630158Y56255D01*
X641689D01*
X642383Y56393D01*
X642972Y56787D01*
X643365Y57375D01*
X643504Y58070D01*
Y81280D01*
X750570D01*
X787400Y118110D01*
Y485140D01*
X768350Y504190D01*
X702818Y504190D01*
Y778510D01*
X835026D01*
X835657Y777059D01*
D02*
G37*
G36*
X466930Y79207D02*
X467005Y78653D01*
X467130Y78106D01*
X467305Y77567D01*
X467529Y77035D01*
X467804Y76512D01*
X468129Y75995D01*
X468504Y75487D01*
X468928Y74985D01*
X469403Y74492D01*
X460597D01*
X461072Y74985D01*
X461496Y75487D01*
X461871Y75995D01*
X462196Y76512D01*
X462471Y77035D01*
X462695Y77567D01*
X462870Y78106D01*
X462995Y78653D01*
X463070Y79207D01*
X463095Y79769D01*
X466905D01*
X466930Y79207D01*
D02*
G37*
G36*
X849806Y58532D02*
X849739Y57706D01*
X849538Y56401D01*
X847395Y46399D01*
X844871Y36000D01*
X847395Y25601D01*
X849538Y15599D01*
X849739Y14294D01*
X849806Y13468D01*
X840645Y12375D01*
X841466Y12261D01*
X841865Y11962D01*
X841369Y11544D01*
X839976Y11006D01*
X837736Y10362D01*
X836571Y200D01*
X835750Y267D01*
X834449Y468D01*
X824447Y2607D01*
X815011Y4890D01*
X800856Y200D01*
X799806Y9570D01*
X809922Y8011D01*
X833583Y16444D01*
X840530Y36000D01*
X832006Y59995D01*
X837506Y72641D01*
X849806Y58532D01*
D02*
G37*
G36*
X18057Y60043D02*
X9459Y36000D01*
X16457Y16430D01*
X36000Y9464D01*
X60019Y18026D01*
X70858Y12500D01*
X58571Y200D01*
X57750Y267D01*
X56450Y468D01*
X46447Y2607D01*
X36000Y5135D01*
X25553Y2607D01*
X15550Y468D01*
X14250Y267D01*
X13429Y200D01*
X12068Y11965D01*
X12041D01*
X12003Y12003D01*
X12003Y12081D01*
X206Y13390D01*
X5266Y36000D01*
X206Y58610D01*
X12506Y72656D01*
X18057Y60043D01*
D02*
G37*
%LPC*%
G36*
X125427Y748233D02*
X123923D01*
X122534Y747657D01*
X121470Y746594D01*
X120895Y745204D01*
Y743701D01*
X121470Y742311D01*
X122534Y741248D01*
X123923Y740673D01*
X125427D01*
X126816Y741248D01*
X127879Y742311D01*
X128455Y743701D01*
Y745204D01*
X127879Y746594D01*
X126816Y747657D01*
X125427Y748233D01*
D02*
G37*
G36*
X116417Y703533D02*
X114914D01*
X113524Y702957D01*
X112461Y701894D01*
X111885Y700504D01*
Y699001D01*
X112461Y697611D01*
X113524Y696548D01*
X114914Y695973D01*
X116417D01*
X117807Y696548D01*
X118870Y697611D01*
X119445Y699001D01*
Y700504D01*
X118870Y701894D01*
X117807Y702957D01*
X116417Y703533D01*
D02*
G37*
G36*
X131487Y675017D02*
X129983D01*
X128594Y674442D01*
X127531Y673378D01*
X126955Y671989D01*
Y670485D01*
X127531Y669096D01*
X128594Y668033D01*
X129983Y667457D01*
X131487D01*
X132877Y668033D01*
X133940Y669096D01*
X134515Y670485D01*
Y671989D01*
X133940Y673378D01*
X132877Y674442D01*
X131487Y675017D01*
D02*
G37*
G36*
X134262Y656751D02*
X132758D01*
X131369Y656175D01*
X130306Y655112D01*
X129730Y653723D01*
Y652219D01*
X130306Y650829D01*
X131369Y649766D01*
X132758Y649191D01*
X134262D01*
X135651Y649766D01*
X136715Y650829D01*
X137290Y652219D01*
Y653723D01*
X136715Y655112D01*
X135651Y656175D01*
X134262Y656751D01*
D02*
G37*
G36*
X36340Y648902D02*
X34836D01*
X33447Y648326D01*
X32384Y647263D01*
X31808Y645873D01*
Y644370D01*
X32384Y642980D01*
X33447Y641917D01*
X34836Y641342D01*
X36340D01*
X37729Y641917D01*
X38793Y642980D01*
X39368Y644370D01*
Y645873D01*
X38793Y647263D01*
X37729Y648326D01*
X36340Y648902D01*
D02*
G37*
G36*
X130469Y644164D02*
X128965D01*
X127576Y643588D01*
X126512Y642525D01*
X125937Y641136D01*
Y639632D01*
X126512Y638243D01*
X127576Y637179D01*
X128965Y636604D01*
X130469D01*
X131858Y637179D01*
X132922Y638243D01*
X133497Y639632D01*
Y641136D01*
X132922Y642525D01*
X131858Y643588D01*
X130469Y644164D01*
D02*
G37*
G36*
X43584Y629770D02*
X42080D01*
X40691Y629195D01*
X39627Y628131D01*
X39052Y626742D01*
Y625238D01*
X39627Y623849D01*
X40691Y622785D01*
X42080Y622210D01*
X43584D01*
X44973Y622785D01*
X46037Y623849D01*
X46612Y625238D01*
Y626742D01*
X46037Y628131D01*
X44973Y629195D01*
X43584Y629770D01*
D02*
G37*
G36*
Y619864D02*
X42080D01*
X40691Y619289D01*
X39627Y618225D01*
X39052Y616836D01*
Y615332D01*
X39627Y613943D01*
X40691Y612879D01*
X42080Y612304D01*
X43584D01*
X44973Y612879D01*
X46037Y613943D01*
X46612Y615332D01*
Y616836D01*
X46037Y618225D01*
X44973Y619289D01*
X43584Y619864D01*
D02*
G37*
G36*
X130800Y607250D02*
X129296D01*
X127907Y606674D01*
X126844Y605611D01*
X126268Y604222D01*
Y602718D01*
X126844Y601329D01*
X127907Y600265D01*
X129296Y599690D01*
X130800D01*
X132189Y600265D01*
X133252Y601329D01*
X133828Y602718D01*
Y604222D01*
X133252Y605611D01*
X132189Y606674D01*
X130800Y607250D01*
D02*
G37*
G36*
X46375Y599500D02*
X44871D01*
X43482Y598924D01*
X42418Y597861D01*
X41843Y596472D01*
Y594968D01*
X42418Y593579D01*
X43482Y592515D01*
X44871Y591940D01*
X46375D01*
X47764Y592515D01*
X48828Y593579D01*
X49403Y594968D01*
Y596472D01*
X48828Y597861D01*
X47764Y598924D01*
X46375Y599500D01*
D02*
G37*
G36*
X131468Y592743D02*
X129965D01*
X128575Y592167D01*
X127512Y591104D01*
X126936Y589714D01*
Y588211D01*
X127512Y586821D01*
X128575Y585758D01*
X129965Y585182D01*
X131468D01*
X132858Y585758D01*
X133921Y586821D01*
X134496Y588211D01*
Y589714D01*
X133921Y591104D01*
X132858Y592167D01*
X131468Y592743D01*
D02*
G37*
G36*
X86375Y592150D02*
X84871D01*
X83482Y591575D01*
X82418Y590511D01*
X81843Y589122D01*
Y587618D01*
X82418Y586229D01*
X83482Y585165D01*
X84871Y584590D01*
X86375D01*
X87764Y585165D01*
X88827Y586229D01*
X89403Y587618D01*
Y589122D01*
X88827Y590511D01*
X87764Y591575D01*
X86375Y592150D01*
D02*
G37*
G36*
X21580Y568930D02*
X20076D01*
X18687Y568354D01*
X17623Y567291D01*
X17048Y565902D01*
Y564398D01*
X17623Y563009D01*
X18687Y561945D01*
X20076Y561370D01*
X21580D01*
X22969Y561945D01*
X24032Y563009D01*
X24608Y564398D01*
Y565902D01*
X24032Y567291D01*
X22969Y568354D01*
X21580Y568930D01*
D02*
G37*
G36*
X33010Y508986D02*
X31506D01*
X30117Y508410D01*
X29053Y507347D01*
X28478Y505958D01*
Y504454D01*
X29053Y503065D01*
X30117Y502001D01*
X31506Y501426D01*
X33010D01*
X34399Y502001D01*
X35463Y503065D01*
X36038Y504454D01*
Y505958D01*
X35463Y507347D01*
X34399Y508410D01*
X33010Y508986D01*
D02*
G37*
G36*
X98288Y148661D02*
X96784D01*
X95395Y148085D01*
X94331Y147022D01*
X93756Y145633D01*
Y144129D01*
X94331Y142740D01*
X95395Y141677D01*
X96784Y141101D01*
X98288D01*
X99677Y141677D01*
X100740Y142740D01*
X101316Y144129D01*
Y145633D01*
X100740Y147022D01*
X99677Y148085D01*
X98288Y148661D01*
D02*
G37*
G36*
X238580Y145712D02*
X237076D01*
X235687Y145136D01*
X234624Y144073D01*
X234048Y142684D01*
Y141180D01*
X234624Y139790D01*
X235687Y138727D01*
X237076Y138152D01*
X238580D01*
X239970Y138727D01*
X241033Y139790D01*
X241608Y141180D01*
Y142684D01*
X241033Y144073D01*
X239970Y145136D01*
X238580Y145712D01*
D02*
G37*
G36*
X57140Y138146D02*
X55636D01*
X54247Y137570D01*
X53183Y136507D01*
X52608Y135118D01*
Y133614D01*
X53183Y132225D01*
X54247Y131161D01*
X55636Y130586D01*
X57140D01*
X58529Y131161D01*
X59592Y132225D01*
X60168Y133614D01*
Y135118D01*
X59592Y136507D01*
X58529Y137570D01*
X57140Y138146D01*
D02*
G37*
G36*
X116604Y144908D02*
X114028D01*
X111541Y144242D01*
X109311Y142954D01*
X107490Y141133D01*
X106202Y138903D01*
X105536Y136416D01*
Y133840D01*
X106202Y131353D01*
X107490Y129123D01*
X109311Y127302D01*
X111541Y126014D01*
X114028Y125348D01*
X116604D01*
X119091Y126014D01*
X121321Y127302D01*
X123142Y129123D01*
X124430Y131353D01*
X125096Y133840D01*
Y136416D01*
X124430Y138903D01*
X123142Y141133D01*
X121321Y142954D01*
X119091Y144242D01*
X116604Y144908D01*
D02*
G37*
G36*
X247827Y126970D02*
X246323D01*
X244933Y126395D01*
X243870Y125331D01*
X243295Y123942D01*
Y122438D01*
X243870Y121049D01*
X244933Y119986D01*
X246323Y119410D01*
X247827D01*
X249216Y119986D01*
X250279Y121049D01*
X250855Y122438D01*
Y123942D01*
X250279Y125331D01*
X249216Y126395D01*
X247827Y126970D01*
D02*
G37*
G36*
X229329D02*
X227825D01*
X226436Y126395D01*
X225373Y125331D01*
X224797Y123942D01*
Y122438D01*
X225373Y121049D01*
X226436Y119986D01*
X227825Y119410D01*
X229329D01*
X230718Y119986D01*
X231782Y121049D01*
X232357Y122438D01*
Y123942D01*
X231782Y125331D01*
X230718Y126395D01*
X229329Y126970D01*
D02*
G37*
G36*
X247827Y115540D02*
X246323D01*
X244933Y114965D01*
X243870Y113901D01*
X243295Y112512D01*
Y111008D01*
X243870Y109619D01*
X244933Y108555D01*
X246323Y107980D01*
X247827D01*
X249216Y108555D01*
X250279Y109619D01*
X250855Y111008D01*
Y112512D01*
X250279Y113901D01*
X249216Y114965D01*
X247827Y115540D01*
D02*
G37*
G36*
X229329D02*
X227825D01*
X226436Y114965D01*
X225373Y113901D01*
X224797Y112512D01*
Y111008D01*
X225373Y109619D01*
X226436Y108555D01*
X227825Y107980D01*
X229329D01*
X230718Y108555D01*
X231782Y109619D01*
X232357Y111008D01*
Y112512D01*
X231782Y113901D01*
X230718Y114965D01*
X229329Y115540D01*
D02*
G37*
G36*
X116604Y119508D02*
X114028D01*
X111541Y118841D01*
X109311Y117554D01*
X107490Y115733D01*
X106202Y113503D01*
X105536Y111016D01*
Y108440D01*
X106202Y105953D01*
X107490Y103723D01*
X109311Y101902D01*
X111541Y100615D01*
X114028Y99948D01*
X116604D01*
X119091Y100615D01*
X121321Y101902D01*
X123142Y103723D01*
X124430Y105953D01*
X125096Y108440D01*
Y111016D01*
X124430Y113503D01*
X123142Y115733D01*
X121321Y117554D01*
X119091Y118841D01*
X116604Y119508D01*
D02*
G37*
G36*
X174511Y106772D02*
X173007D01*
X171618Y106197D01*
X170554Y105133D01*
X169979Y103744D01*
Y102240D01*
X170554Y100851D01*
X171618Y99788D01*
X173007Y99212D01*
X174511D01*
X175900Y99788D01*
X176964Y100851D01*
X177539Y102240D01*
Y103744D01*
X176964Y105133D01*
X175900Y106197D01*
X174511Y106772D01*
D02*
G37*
G36*
X167500Y749148D02*
X165132Y748837D01*
X162926Y747923D01*
X161031Y746469D01*
X159577Y744574D01*
X158663Y742368D01*
X158352Y740000D01*
X158663Y737632D01*
X159577Y735426D01*
X161031Y733531D01*
X162926Y732077D01*
X165132Y731163D01*
X167500Y730852D01*
X169868Y731163D01*
X172074Y732077D01*
X173969Y733531D01*
X175423Y735426D01*
X176337Y737632D01*
X176648Y740000D01*
X176337Y742368D01*
X175423Y744574D01*
X173969Y746469D01*
X172074Y747923D01*
X169868Y748837D01*
X167500Y749148D01*
D02*
G37*
G36*
Y701648D02*
X165132Y701337D01*
X162926Y700423D01*
X161031Y698969D01*
X159577Y697074D01*
X158663Y694868D01*
X158352Y692500D01*
X158663Y690132D01*
X159577Y687926D01*
X161031Y686031D01*
X162926Y684577D01*
X165132Y683663D01*
X167500Y683352D01*
X169868Y683663D01*
X172074Y684577D01*
X173969Y686031D01*
X175423Y687926D01*
X176337Y690132D01*
X176648Y692500D01*
X176337Y694868D01*
X175423Y697074D01*
X173969Y698969D01*
X172074Y700423D01*
X169868Y701337D01*
X167500Y701648D01*
D02*
G37*
G36*
X165000Y638484D02*
X163525Y638190D01*
X162275Y637355D01*
X161439Y636104D01*
X161146Y634630D01*
X161439Y633155D01*
X162275Y631904D01*
X163525Y631069D01*
X165000Y630775D01*
X166475Y631069D01*
X167725Y631904D01*
X168561Y633155D01*
X168854Y634630D01*
X168561Y636104D01*
X167725Y637355D01*
X166475Y638190D01*
X165000Y638484D01*
D02*
G37*
G36*
X424380Y569022D02*
X422905Y568728D01*
X421655Y567893D01*
X420820Y566643D01*
X420526Y565168D01*
X420820Y563693D01*
X421655Y562442D01*
X422905Y561607D01*
X424380Y561314D01*
X425855Y561607D01*
X427105Y562442D01*
X427941Y563693D01*
X428234Y565168D01*
X427941Y566643D01*
X427105Y567893D01*
X425855Y568728D01*
X424380Y569022D01*
D02*
G37*
G36*
X305874D02*
X304399Y568728D01*
X303148Y567893D01*
X302313Y566643D01*
X302020Y565168D01*
X302313Y563693D01*
X303148Y562442D01*
X304399Y561607D01*
X305874Y561314D01*
X307349Y561607D01*
X308599Y562442D01*
X309435Y563693D01*
X309728Y565168D01*
X309435Y566643D01*
X308599Y567893D01*
X307349Y568728D01*
X305874Y569022D01*
D02*
G37*
G36*
X182004Y569022D02*
X180529Y568728D01*
X179279Y567893D01*
X178444Y566642D01*
X178150Y565168D01*
X178444Y563693D01*
X179279Y562442D01*
X180529Y561607D01*
X182004Y561314D01*
X183479Y561607D01*
X184729Y562442D01*
X185565Y563693D01*
X185858Y565168D01*
X185565Y566642D01*
X184729Y567893D01*
X183479Y568728D01*
X182004Y569022D01*
D02*
G37*
G36*
X62627D02*
X61152Y568728D01*
X59902Y567893D01*
X59067Y566642D01*
X58773Y565168D01*
X59067Y563693D01*
X59902Y562442D01*
X61152Y561607D01*
X62627Y561314D01*
X64102Y561607D01*
X65353Y562442D01*
X66188Y563693D01*
X66481Y565168D01*
X66188Y566642D01*
X65353Y567893D01*
X64102Y568728D01*
X62627Y569022D01*
D02*
G37*
G36*
X437655Y568771D02*
X436180Y568478D01*
X434930Y567642D01*
X434095Y566392D01*
X433801Y564917D01*
X434095Y563442D01*
X434930Y562192D01*
X436180Y561356D01*
X437655Y561063D01*
X439130Y561356D01*
X440381Y562192D01*
X441216Y563442D01*
X441509Y564917D01*
X441216Y566392D01*
X440381Y567642D01*
X439130Y568478D01*
X437655Y568771D01*
D02*
G37*
G36*
X319149D02*
X317674Y568478D01*
X316423Y567642D01*
X315588Y566392D01*
X315295Y564917D01*
X315588Y563442D01*
X316423Y562192D01*
X317674Y561356D01*
X319149Y561063D01*
X320624Y561356D01*
X321874Y562192D01*
X322710Y563442D01*
X323003Y564917D01*
X322710Y566392D01*
X321874Y567642D01*
X320624Y568478D01*
X319149Y568771D01*
D02*
G37*
G36*
X195279Y568771D02*
X193804Y568477D01*
X192554Y567642D01*
X191719Y566392D01*
X191425Y564917D01*
X191719Y563442D01*
X192554Y562192D01*
X193804Y561356D01*
X195279Y561063D01*
X196754Y561356D01*
X198004Y562192D01*
X198840Y563442D01*
X199133Y564917D01*
X198840Y566392D01*
X198004Y567642D01*
X196754Y568477D01*
X195279Y568771D01*
D02*
G37*
G36*
X75902D02*
X74427Y568477D01*
X73177Y567642D01*
X72342Y566392D01*
X72048Y564917D01*
X72342Y563442D01*
X73177Y562192D01*
X74427Y561356D01*
X75902Y561063D01*
X77377Y561356D01*
X78628Y562192D01*
X79463Y563442D01*
X79756Y564917D01*
X79463Y566392D01*
X78628Y567642D01*
X77377Y568477D01*
X75902Y568771D01*
D02*
G37*
G36*
X454307Y561035D02*
X452832Y560742D01*
X451582Y559906D01*
X450746Y558656D01*
X450453Y557181D01*
X450746Y555706D01*
X451582Y554456D01*
X452832Y553620D01*
X454307Y553327D01*
X455782Y553620D01*
X457032Y554456D01*
X457868Y555706D01*
X458161Y557181D01*
X457868Y558656D01*
X457032Y559906D01*
X455782Y560742D01*
X454307Y561035D01*
D02*
G37*
G36*
X335800D02*
X334326Y560742D01*
X333075Y559906D01*
X332240Y558656D01*
X331946Y557181D01*
X332240Y555706D01*
X333075Y554456D01*
X334326Y553620D01*
X335800Y553327D01*
X337275Y553620D01*
X338526Y554456D01*
X339361Y555706D01*
X339655Y557181D01*
X339361Y558656D01*
X338526Y559906D01*
X337275Y560742D01*
X335800Y561035D01*
D02*
G37*
G36*
X211931Y561035D02*
X210456Y560742D01*
X209206Y559906D01*
X208370Y558656D01*
X208077Y557181D01*
X208370Y555706D01*
X209206Y554456D01*
X210456Y553620D01*
X211931Y553327D01*
X213406Y553620D01*
X214656Y554456D01*
X215492Y555706D01*
X215785Y557181D01*
X215492Y558656D01*
X214656Y559906D01*
X213406Y560742D01*
X211931Y561035D01*
D02*
G37*
G36*
X92554D02*
X91079Y560742D01*
X89829Y559906D01*
X88993Y558656D01*
X88700Y557181D01*
X88993Y555706D01*
X89829Y554456D01*
X91079Y553620D01*
X92554Y553327D01*
X94029Y553620D01*
X95279Y554456D01*
X96115Y555706D01*
X96408Y557181D01*
X96115Y558656D01*
X95279Y559906D01*
X94029Y560742D01*
X92554Y561035D01*
D02*
G37*
G36*
X417529Y559357D02*
X416054Y559063D01*
X414804Y558228D01*
X413968Y556977D01*
X413675Y555503D01*
X413968Y554028D01*
X414804Y552777D01*
X416054Y551942D01*
X417529Y551648D01*
X419004Y551942D01*
X420254Y552777D01*
X421090Y554028D01*
X421383Y555503D01*
X421090Y556977D01*
X420254Y558228D01*
X419004Y559063D01*
X417529Y559357D01*
D02*
G37*
G36*
X299022D02*
X297547Y559063D01*
X296297Y558228D01*
X295462Y556977D01*
X295168Y555503D01*
X295462Y554028D01*
X296297Y552777D01*
X297547Y551942D01*
X299022Y551648D01*
X300497Y551942D01*
X301748Y552777D01*
X302583Y554028D01*
X302876Y555503D01*
X302583Y556977D01*
X301748Y558228D01*
X300497Y559063D01*
X299022Y559357D01*
D02*
G37*
G36*
X175153Y559356D02*
X173678Y559063D01*
X172428Y558228D01*
X171592Y556977D01*
X171299Y555503D01*
X171592Y554028D01*
X172428Y552777D01*
X173678Y551942D01*
X175153Y551648D01*
X176628Y551942D01*
X177878Y552777D01*
X178714Y554028D01*
X179007Y555503D01*
X178714Y556977D01*
X177878Y558228D01*
X176628Y559063D01*
X175153Y559356D01*
D02*
G37*
G36*
X55776D02*
X54301Y559063D01*
X53051Y558228D01*
X52215Y556977D01*
X51922Y555503D01*
X52215Y554028D01*
X53051Y552777D01*
X54301Y551942D01*
X55776Y551648D01*
X57251Y551942D01*
X58501Y552777D01*
X59337Y554028D01*
X59630Y555503D01*
X59337Y556977D01*
X58501Y558228D01*
X57251Y559063D01*
X55776Y559356D01*
D02*
G37*
G36*
X663694Y749070D02*
X661306D01*
X658999Y748452D01*
X656931Y747258D01*
X655242Y745569D01*
X654048Y743501D01*
X653430Y741194D01*
Y738806D01*
X654048Y736499D01*
X655242Y734431D01*
X656931Y732742D01*
X658999Y731548D01*
X661306Y730930D01*
X663694D01*
X666001Y731548D01*
X668069Y732742D01*
X669758Y734431D01*
X670952Y736499D01*
X671570Y738806D01*
Y741194D01*
X670952Y743501D01*
X669758Y745569D01*
X668069Y747258D01*
X666001Y748452D01*
X663694Y749070D01*
D02*
G37*
G36*
X478694D02*
X476306D01*
X473999Y748452D01*
X471931Y747258D01*
X470242Y745569D01*
X469048Y743501D01*
X468430Y741194D01*
Y738806D01*
X469048Y736499D01*
X470242Y734431D01*
X471931Y732742D01*
X473999Y731548D01*
X476306Y730930D01*
X478694D01*
X481001Y731548D01*
X483069Y732742D01*
X484758Y734431D01*
X485952Y736499D01*
X486570Y738806D01*
Y741194D01*
X485952Y743501D01*
X484758Y745569D01*
X483069Y747258D01*
X481001Y748452D01*
X478694Y749070D01*
D02*
G37*
G36*
X353694D02*
X351306D01*
X348999Y748452D01*
X346931Y747258D01*
X345242Y745569D01*
X344048Y743501D01*
X343430Y741194D01*
Y738806D01*
X344048Y736499D01*
X345242Y734431D01*
X346931Y732742D01*
X348999Y731548D01*
X351306Y730930D01*
X353694D01*
X356001Y731548D01*
X358069Y732742D01*
X359758Y734431D01*
X360952Y736499D01*
X361570Y738806D01*
Y741194D01*
X360952Y743501D01*
X359758Y745569D01*
X358069Y747258D01*
X356001Y748452D01*
X353694Y749070D01*
D02*
G37*
G36*
X663694Y701570D02*
X661306D01*
X658999Y700952D01*
X656931Y699758D01*
X655242Y698069D01*
X654048Y696001D01*
X653430Y693694D01*
Y691306D01*
X654048Y688999D01*
X655242Y686931D01*
X656931Y685242D01*
X658999Y684048D01*
X661306Y683430D01*
X663694D01*
X666001Y684048D01*
X668069Y685242D01*
X669758Y686931D01*
X670952Y688999D01*
X671570Y691306D01*
Y693694D01*
X670952Y696001D01*
X669758Y698069D01*
X668069Y699758D01*
X666001Y700952D01*
X663694Y701570D01*
D02*
G37*
G36*
X478694D02*
X476306D01*
X473999Y700952D01*
X471931Y699758D01*
X470242Y698069D01*
X469048Y696001D01*
X468430Y693694D01*
Y691306D01*
X469048Y688999D01*
X470242Y686931D01*
X471931Y685242D01*
X473999Y684048D01*
X476306Y683430D01*
X478694D01*
X481001Y684048D01*
X483069Y685242D01*
X484758Y686931D01*
X485952Y688999D01*
X486570Y691306D01*
Y693694D01*
X485952Y696001D01*
X484758Y698069D01*
X483069Y699758D01*
X481001Y700952D01*
X478694Y701570D01*
D02*
G37*
G36*
X353694D02*
X351306D01*
X348999Y700952D01*
X346931Y699758D01*
X345242Y698069D01*
X344048Y696001D01*
X343430Y693694D01*
Y691306D01*
X344048Y688999D01*
X345242Y686931D01*
X346931Y685242D01*
X348999Y684048D01*
X351306Y683430D01*
X353694D01*
X356001Y684048D01*
X358069Y685242D01*
X359758Y686931D01*
X360952Y688999D01*
X361570Y691306D01*
Y693694D01*
X360952Y696001D01*
X359758Y698069D01*
X358069Y699758D01*
X356001Y700952D01*
X353694Y701570D01*
D02*
G37*
G36*
X640660Y682827D02*
X639156D01*
X637767Y682251D01*
X636703Y681188D01*
X636128Y679799D01*
Y678295D01*
X636703Y676906D01*
X637767Y675842D01*
X639156Y675267D01*
X640660D01*
X642049Y675842D01*
X643112Y676906D01*
X643688Y678295D01*
Y679799D01*
X643112Y681188D01*
X642049Y682251D01*
X640660Y682827D01*
D02*
G37*
G36*
X521111Y682566D02*
X519607D01*
X518218Y681991D01*
X517155Y680927D01*
X516579Y679538D01*
Y678034D01*
X517155Y676645D01*
X518218Y675582D01*
X519607Y675006D01*
X521111D01*
X522500Y675582D01*
X523564Y676645D01*
X524139Y678034D01*
Y679538D01*
X523564Y680927D01*
X522500Y681991D01*
X521111Y682566D01*
D02*
G37*
G36*
X580752Y680280D02*
X579248D01*
X577859Y679705D01*
X576796Y678641D01*
X576220Y677252D01*
Y675748D01*
X576796Y674359D01*
X577859Y673296D01*
X579248Y672720D01*
X580752D01*
X582141Y673296D01*
X583204Y674359D01*
X583780Y675748D01*
Y677252D01*
X583204Y678641D01*
X582141Y679705D01*
X580752Y680280D01*
D02*
G37*
G36*
X560688Y677375D02*
X559184D01*
X557795Y676799D01*
X556732Y675736D01*
X556156Y674347D01*
Y672843D01*
X556732Y671453D01*
X557795Y670390D01*
X559184Y669815D01*
X560688D01*
X562077Y670390D01*
X563141Y671453D01*
X563716Y672843D01*
Y674347D01*
X563141Y675736D01*
X562077Y676799D01*
X560688Y677375D01*
D02*
G37*
G36*
X540752D02*
X539248D01*
X537859Y676799D01*
X536796Y675736D01*
X536220Y674347D01*
Y672843D01*
X536796Y671453D01*
X537859Y670390D01*
X539248Y669815D01*
X540752D01*
X542141Y670390D01*
X543205Y671453D01*
X543780Y672843D01*
Y674347D01*
X543205Y675736D01*
X542141Y676799D01*
X540752Y677375D01*
D02*
G37*
G36*
X600712Y677233D02*
X599209D01*
X597819Y676658D01*
X596756Y675594D01*
X596180Y674205D01*
Y672701D01*
X596756Y671312D01*
X597819Y670249D01*
X599209Y669673D01*
X600712D01*
X602102Y670249D01*
X603165Y671312D01*
X603741Y672701D01*
Y674205D01*
X603165Y675594D01*
X602102Y676658D01*
X600712Y677233D01*
D02*
G37*
G36*
X500752Y655280D02*
X499248D01*
X497859Y654705D01*
X496796Y653641D01*
X496220Y652252D01*
Y650748D01*
X496796Y649359D01*
X497859Y648296D01*
X499248Y647720D01*
X500752D01*
X502141Y648296D01*
X503204Y649359D01*
X503780Y650748D01*
Y652252D01*
X503204Y653641D01*
X502141Y654705D01*
X500752Y655280D01*
D02*
G37*
G36*
X246574Y603489D02*
X245070D01*
X243681Y602913D01*
X242617Y601850D01*
X242042Y600461D01*
Y598957D01*
X242617Y597567D01*
X243681Y596504D01*
X245070Y595929D01*
X246574D01*
X247963Y596504D01*
X249026Y597567D01*
X249602Y598957D01*
Y600461D01*
X249026Y601850D01*
X247963Y602913D01*
X246574Y603489D01*
D02*
G37*
G36*
X369750Y602936D02*
X368246D01*
X366857Y602360D01*
X365794Y601297D01*
X365218Y599908D01*
Y598404D01*
X365794Y597015D01*
X366857Y595951D01*
X368246Y595376D01*
X369750D01*
X371139Y595951D01*
X372203Y597015D01*
X372778Y598404D01*
Y599908D01*
X372203Y601297D01*
X371139Y602360D01*
X369750Y602936D01*
D02*
G37*
G36*
X467128Y506530D02*
X465624D01*
X464235Y505955D01*
X463171Y504891D01*
X462596Y503502D01*
Y501998D01*
X463171Y500609D01*
X464235Y499546D01*
X465624Y498970D01*
X467128D01*
X468517Y499546D01*
X469580Y500609D01*
X470156Y501998D01*
Y503502D01*
X469580Y504891D01*
X468517Y505955D01*
X467128Y506530D01*
D02*
G37*
G36*
X428316Y497968D02*
X426813D01*
X425423Y497393D01*
X424360Y496330D01*
X423784Y494940D01*
Y493437D01*
X424360Y492047D01*
X425423Y490984D01*
X426813Y490409D01*
X428316D01*
X429706Y490984D01*
X430769Y492047D01*
X431344Y493437D01*
Y494940D01*
X430769Y496330D01*
X429706Y497393D01*
X428316Y497968D01*
D02*
G37*
G36*
X309810D02*
X308306D01*
X306917Y497393D01*
X305853Y496330D01*
X305278Y494940D01*
Y493437D01*
X305853Y492047D01*
X306917Y490984D01*
X308306Y490409D01*
X309810D01*
X311199Y490984D01*
X312262Y492047D01*
X312838Y493437D01*
Y494940D01*
X312262Y496330D01*
X311199Y497393D01*
X309810Y497968D01*
D02*
G37*
G36*
X66563D02*
X65060D01*
X63670Y497393D01*
X62607Y496330D01*
X62031Y494940D01*
Y493437D01*
X62607Y492047D01*
X63670Y490984D01*
X65060Y490409D01*
X66563D01*
X67953Y490984D01*
X69016Y492047D01*
X69591Y493437D01*
Y494940D01*
X69016Y496330D01*
X67953Y497393D01*
X66563Y497968D01*
D02*
G37*
G36*
X296916Y492780D02*
X295412D01*
X294023Y492205D01*
X292959Y491141D01*
X292384Y489752D01*
Y488248D01*
X292959Y486859D01*
X294023Y485796D01*
X295412Y485220D01*
X296916D01*
X298305Y485796D01*
X299368Y486859D01*
X299944Y488248D01*
Y489752D01*
X299368Y491141D01*
X298305Y492205D01*
X296916Y492780D01*
D02*
G37*
G36*
X536171Y476950D02*
X534667D01*
X533278Y476375D01*
X532214Y475311D01*
X531639Y473922D01*
Y472418D01*
X532214Y471029D01*
X533278Y469965D01*
X534667Y469390D01*
X536171D01*
X537560Y469965D01*
X538624Y471029D01*
X539199Y472418D01*
Y473922D01*
X538624Y475311D01*
X537560Y476375D01*
X536171Y476950D01*
D02*
G37*
G36*
X416815Y467078D02*
X415311D01*
X413922Y466503D01*
X412859Y465439D01*
X412283Y464050D01*
Y462546D01*
X412859Y461157D01*
X413922Y460094D01*
X415311Y459518D01*
X416815D01*
X418204Y460094D01*
X419268Y461157D01*
X419843Y462546D01*
Y464050D01*
X419268Y465439D01*
X418204Y466503D01*
X416815Y467078D01*
D02*
G37*
G36*
X684022Y641666D02*
X669001D01*
X667811Y641429D01*
X666802Y640755D01*
X662827Y636780D01*
X662693D01*
X661304Y636204D01*
X660240Y635141D01*
X659665Y633752D01*
Y632248D01*
X660240Y630859D01*
X661304Y629795D01*
X662693Y629220D01*
X664197D01*
X665586Y629795D01*
X666649Y630859D01*
X667225Y632248D01*
Y632382D01*
X670289Y635446D01*
X682734D01*
X686500Y631680D01*
Y495826D01*
X646666Y455992D01*
X621996D01*
X621901Y456087D01*
X620512Y456662D01*
X619008D01*
X617619Y456087D01*
X616555Y455023D01*
X615980Y453634D01*
Y452130D01*
X616555Y450741D01*
X617619Y449678D01*
X619008Y449102D01*
X620512D01*
X621901Y449678D01*
X621996Y449772D01*
X647954D01*
X649144Y450009D01*
X650153Y450683D01*
X691809Y492339D01*
X692483Y493348D01*
X692720Y494538D01*
Y632968D01*
X692483Y634158D01*
X691809Y635167D01*
X686221Y640755D01*
X685212Y641429D01*
X684022Y641666D01*
D02*
G37*
G36*
X682736Y476950D02*
X681233D01*
X679843Y476375D01*
X678780Y475311D01*
X678204Y473922D01*
Y473788D01*
X650278Y445862D01*
X638760D01*
X638665Y445956D01*
X637276Y446532D01*
X635772D01*
X634383Y445956D01*
X633320Y444893D01*
X632744Y443504D01*
Y442000D01*
X633320Y440611D01*
X634383Y439548D01*
X635772Y438972D01*
X637276D01*
X638665Y439548D01*
X638760Y439642D01*
X651566D01*
X652757Y439879D01*
X653765Y440553D01*
X682602Y469390D01*
X682736D01*
X684126Y469965D01*
X685189Y471029D01*
X685764Y472418D01*
Y473922D01*
X685189Y475311D01*
X684126Y476375D01*
X682736Y476950D01*
D02*
G37*
G36*
X495752Y445068D02*
X494248D01*
X492859Y444492D01*
X491796Y443429D01*
X491220Y442040D01*
Y440536D01*
X491796Y439147D01*
X492859Y438083D01*
X494248Y437508D01*
X495882Y436882D01*
X496220Y435248D01*
X496796Y433859D01*
X497859Y432795D01*
X499248Y432220D01*
X500752D01*
X502141Y432795D01*
X503205Y433859D01*
X503780Y435248D01*
Y436752D01*
X503205Y438141D01*
X502141Y439204D01*
X500752Y439780D01*
X499118Y440406D01*
X498780Y442040D01*
X498204Y443429D01*
X497141Y444492D01*
X495752Y445068D01*
D02*
G37*
G36*
X475870Y444764D02*
X474366D01*
X472977Y444188D01*
X471913Y443125D01*
X471338Y441736D01*
Y440232D01*
X471913Y438843D01*
X472977Y437779D01*
X474366Y437204D01*
X475103D01*
X475612Y436740D01*
X476477Y435424D01*
X476671Y434857D01*
X476372Y434136D01*
Y432632D01*
X476948Y431243D01*
X478011Y430179D01*
X479400Y429604D01*
X480904D01*
X482293Y430179D01*
X483357Y431243D01*
X483932Y432632D01*
Y434136D01*
X483357Y435525D01*
X482293Y436589D01*
X480904Y437164D01*
X480167D01*
X479658Y437628D01*
X478793Y438944D01*
X478599Y439511D01*
X478898Y440232D01*
Y441736D01*
X478322Y443125D01*
X477259Y444188D01*
X475870Y444764D01*
D02*
G37*
G36*
X450752Y429238D02*
X449248D01*
X447859Y428663D01*
X446795Y427599D01*
X446220Y426210D01*
Y424706D01*
X446795Y423317D01*
X447859Y422254D01*
X449248Y421678D01*
X450752D01*
X452141Y422254D01*
X453204Y423317D01*
X453780Y424706D01*
Y426210D01*
X453204Y427599D01*
X452141Y428663D01*
X450752Y429238D01*
D02*
G37*
G36*
X628563Y398725D02*
X627059D01*
X625670Y398150D01*
X624607Y397086D01*
X624031Y395697D01*
Y394193D01*
X624607Y392804D01*
X625670Y391741D01*
X627059Y391165D01*
X628563D01*
X629952Y391741D01*
X631016Y392804D01*
X631591Y394193D01*
Y395697D01*
X631016Y397086D01*
X629952Y398150D01*
X628563Y398725D01*
D02*
G37*
G36*
X628563Y382494D02*
X627059D01*
X625670Y381918D01*
X624606Y380855D01*
X624031Y379466D01*
Y377962D01*
X624606Y376573D01*
X625670Y375509D01*
X627059Y374934D01*
X628563D01*
X629952Y375509D01*
X631016Y376573D01*
X631591Y377962D01*
Y379466D01*
X631016Y380855D01*
X629952Y381918D01*
X628563Y382494D01*
D02*
G37*
G36*
X620734Y375387D02*
X619230D01*
X617841Y374812D01*
X616777Y373748D01*
X616202Y372359D01*
Y370855D01*
X616777Y369466D01*
X617841Y368402D01*
X619230Y367827D01*
X620734D01*
X622123Y368402D01*
X623186Y369466D01*
X623762Y370855D01*
Y372359D01*
X623186Y373748D01*
X622123Y374812D01*
X620734Y375387D01*
D02*
G37*
G36*
X594604Y373230D02*
X593100D01*
X591711Y372655D01*
X590648Y371591D01*
X590072Y370202D01*
Y368698D01*
X590648Y367309D01*
X591711Y366245D01*
X593100Y365670D01*
X594604D01*
X595993Y366245D01*
X597057Y367309D01*
X597632Y368698D01*
Y370202D01*
X597057Y371591D01*
X595993Y372655D01*
X594604Y373230D01*
D02*
G37*
G36*
X612905Y368280D02*
X611401D01*
X610012Y367705D01*
X608949Y366641D01*
X608373Y365252D01*
Y363748D01*
X608949Y362359D01*
X610012Y361296D01*
X611401Y360720D01*
X612905D01*
X614294Y361296D01*
X615358Y362359D01*
X615933Y363748D01*
Y365252D01*
X615358Y366641D01*
X614294Y367705D01*
X612905Y368280D01*
D02*
G37*
G36*
X613300Y351068D02*
X611796D01*
X610407Y350493D01*
X609343Y349429D01*
X608768Y348040D01*
Y346536D01*
X609343Y345147D01*
X610407Y344084D01*
X611796Y343508D01*
X613300D01*
X614689Y344084D01*
X615753Y345147D01*
X616328Y346536D01*
Y348040D01*
X615753Y349429D01*
X614689Y350493D01*
X613300Y351068D01*
D02*
G37*
G36*
X627682Y344699D02*
X626178D01*
X624789Y344124D01*
X623725Y343060D01*
X623150Y341671D01*
Y340167D01*
X623725Y338778D01*
X624789Y337715D01*
X626178Y337139D01*
X627682D01*
X629071Y337715D01*
X630135Y338778D01*
X630710Y340167D01*
Y341671D01*
X630135Y343060D01*
X629071Y344124D01*
X627682Y344699D01*
D02*
G37*
G36*
X618604Y338330D02*
X617100D01*
X615711Y337755D01*
X614647Y336691D01*
X614072Y335302D01*
Y333798D01*
X614647Y332409D01*
X615711Y331345D01*
X617100Y330770D01*
X618604D01*
X619993Y331345D01*
X621056Y332409D01*
X621632Y333798D01*
Y335302D01*
X621056Y336691D01*
X619993Y337755D01*
X618604Y338330D01*
D02*
G37*
G36*
X424424Y330170D02*
X422920D01*
X421531Y329594D01*
X420467Y328531D01*
X419892Y327142D01*
Y325638D01*
X420467Y324249D01*
X421531Y323186D01*
X422920Y322610D01*
X424424D01*
X425813Y323186D01*
X426876Y324249D01*
X427452Y325638D01*
Y327142D01*
X426876Y328531D01*
X425813Y329594D01*
X424424Y330170D01*
D02*
G37*
G36*
X489672Y330123D02*
X488168D01*
X486779Y329547D01*
X485715Y328484D01*
X485140Y327094D01*
Y325591D01*
X485715Y324201D01*
X486779Y323138D01*
X488168Y322563D01*
X489672D01*
X491061Y323138D01*
X492124Y324201D01*
X492700Y325591D01*
Y327094D01*
X492124Y328484D01*
X491061Y329547D01*
X489672Y330123D01*
D02*
G37*
G36*
X427472Y312390D02*
X425968D01*
X424579Y311814D01*
X423516Y310751D01*
X422940Y309362D01*
Y307858D01*
X423516Y306469D01*
X424579Y305406D01*
X425968Y304830D01*
X427472D01*
X428861Y305406D01*
X429925Y306469D01*
X430500Y307858D01*
Y309362D01*
X429925Y310751D01*
X428861Y311814D01*
X427472Y312390D01*
D02*
G37*
G36*
X489672Y312332D02*
X488168D01*
X486779Y311756D01*
X485715Y310693D01*
X485140Y309304D01*
Y307800D01*
X485715Y306411D01*
X486779Y305347D01*
X488168Y304772D01*
X489672D01*
X491061Y305347D01*
X492124Y306411D01*
X492700Y307800D01*
Y309304D01*
X492124Y310693D01*
X491061Y311756D01*
X489672Y312332D01*
D02*
G37*
G36*
X489654Y294610D02*
X488151D01*
X486761Y294035D01*
X485698Y292971D01*
X485123Y291582D01*
Y290078D01*
X485698Y288689D01*
X486761Y287626D01*
X488151Y287050D01*
X489654D01*
X491044Y287626D01*
X492107Y288689D01*
X492683Y290078D01*
Y291582D01*
X492107Y292971D01*
X491044Y294035D01*
X489654Y294610D01*
D02*
G37*
G36*
X415788Y301722D02*
X414284D01*
X412895Y301147D01*
X411832Y300083D01*
X411256Y298694D01*
Y297190D01*
X411832Y295801D01*
X412895Y294737D01*
X414284Y294162D01*
X415788D01*
X416242Y294350D01*
X416596Y294086D01*
X417934Y292302D01*
X417607Y291513D01*
Y290009D01*
X418182Y288620D01*
X419246Y287556D01*
X420635Y286981D01*
X422139D01*
X423528Y287556D01*
X424591Y288620D01*
X425167Y290009D01*
Y291513D01*
X424591Y292902D01*
X423528Y293965D01*
X422139Y294541D01*
X420635D01*
X420181Y294353D01*
X419827Y294617D01*
X418489Y296401D01*
X418816Y297190D01*
Y298694D01*
X418241Y300083D01*
X417177Y301147D01*
X415788Y301722D01*
D02*
G37*
G36*
Y283280D02*
X414284D01*
X412895Y282705D01*
X411832Y281641D01*
X411256Y280252D01*
Y278748D01*
X411832Y277359D01*
X412895Y276296D01*
X414284Y275720D01*
X415788D01*
X417177Y276296D01*
X418241Y277359D01*
X418816Y278748D01*
Y280252D01*
X418241Y281641D01*
X417177Y282705D01*
X415788Y283280D01*
D02*
G37*
G36*
X489672Y276830D02*
X488168D01*
X486779Y276255D01*
X485715Y275191D01*
X485140Y273802D01*
Y272298D01*
X485715Y270909D01*
X486779Y269846D01*
X488168Y269270D01*
X489672D01*
X491061Y269846D01*
X492124Y270909D01*
X492700Y272298D01*
Y273802D01*
X492124Y275191D01*
X491061Y276255D01*
X489672Y276830D01*
D02*
G37*
G36*
X387754Y285029D02*
X386250D01*
X384861Y284454D01*
X383798Y283391D01*
X383222Y282001D01*
Y280497D01*
X383798Y279108D01*
X384861Y278045D01*
X385502Y277779D01*
Y275123D01*
X384861Y274857D01*
X383798Y273794D01*
X383222Y272405D01*
Y270901D01*
X383798Y269512D01*
X384861Y268448D01*
X386250Y267873D01*
X387754D01*
X389143Y268448D01*
X390207Y269512D01*
X390782Y270901D01*
Y272405D01*
X390207Y273794D01*
X389143Y274857D01*
X388503Y275123D01*
Y277779D01*
X389143Y278045D01*
X390207Y279108D01*
X390782Y280497D01*
Y282001D01*
X390207Y283391D01*
X389143Y284454D01*
X387754Y285029D01*
D02*
G37*
G36*
X763836Y274830D02*
X761564D01*
X759369Y274242D01*
X757401Y273106D01*
X755794Y271499D01*
X754658Y269531D01*
X754070Y267336D01*
Y265064D01*
X754658Y262869D01*
X755794Y260901D01*
X757401Y259294D01*
X759369Y258158D01*
X761564Y257570D01*
X763836D01*
X766031Y258158D01*
X767999Y259294D01*
X769606Y260901D01*
X770742Y262869D01*
X771330Y265064D01*
Y267336D01*
X770742Y269531D01*
X769606Y271499D01*
X767999Y273106D01*
X766031Y274242D01*
X763836Y274830D01*
D02*
G37*
G36*
X738436D02*
X736164D01*
X733969Y274242D01*
X732001Y273106D01*
X730394Y271499D01*
X729258Y269531D01*
X728670Y267336D01*
Y265064D01*
X729258Y262869D01*
X730394Y260901D01*
X732001Y259294D01*
X733969Y258158D01*
X736164Y257570D01*
X738436D01*
X740631Y258158D01*
X742599Y259294D01*
X744206Y260901D01*
X745342Y262869D01*
X745930Y265064D01*
Y267336D01*
X745342Y269531D01*
X744206Y271499D01*
X742599Y273106D01*
X740631Y274242D01*
X738436Y274830D01*
D02*
G37*
G36*
X380436Y249138D02*
X378932D01*
X377543Y248562D01*
X376479Y247499D01*
X375904Y246110D01*
Y244606D01*
X376479Y243216D01*
X377543Y242153D01*
X378932Y241578D01*
X380436D01*
X381825Y242153D01*
X382888Y243216D01*
X383464Y244606D01*
Y246110D01*
X382888Y247499D01*
X381825Y248562D01*
X380436Y249138D01*
D02*
G37*
G36*
X531267Y248492D02*
X529763D01*
X528374Y247916D01*
X527311Y246853D01*
X526735Y245464D01*
Y243960D01*
X527311Y242571D01*
X528374Y241507D01*
X529763Y240932D01*
X531267D01*
X532657Y241507D01*
X533720Y242571D01*
X534295Y243960D01*
Y245464D01*
X533720Y246853D01*
X532657Y247916D01*
X531267Y248492D01*
D02*
G37*
G36*
X608391Y238446D02*
X606887D01*
X605498Y237871D01*
X604159Y236988D01*
X602821Y237871D01*
X601432Y238446D01*
X599928D01*
X598539Y237871D01*
X597476Y236807D01*
X596900Y235418D01*
Y233914D01*
X597476Y232525D01*
X598539Y231462D01*
X599928Y230886D01*
X601432D01*
X602821Y231462D01*
X604159Y232344D01*
X605498Y231461D01*
X606887Y230886D01*
X608391D01*
X609780Y231462D01*
X610843Y232525D01*
X611419Y233914D01*
Y235418D01*
X610843Y236807D01*
X609780Y237871D01*
X608391Y238446D01*
D02*
G37*
G36*
X485802Y243302D02*
X484298D01*
X482909Y242726D01*
X481846Y241663D01*
X481270Y240274D01*
Y238770D01*
X481846Y237381D01*
X482909Y236318D01*
X484298Y235742D01*
X485802D01*
X487191Y236318D01*
X488255Y237381D01*
X488830Y238770D01*
Y240274D01*
X488255Y241663D01*
X487191Y242726D01*
X485802Y243302D01*
D02*
G37*
G36*
X763836Y249430D02*
X761564D01*
X759369Y248842D01*
X757401Y247706D01*
X755794Y246099D01*
X754658Y244131D01*
X754070Y241936D01*
Y239664D01*
X754658Y237469D01*
X755794Y235501D01*
X757401Y233894D01*
X759369Y232758D01*
X761564Y232170D01*
X763836D01*
X766031Y232758D01*
X767999Y233894D01*
X769606Y235501D01*
X770742Y237469D01*
X771330Y239664D01*
Y241936D01*
X770742Y244131D01*
X769606Y246099D01*
X767999Y247706D01*
X766031Y248842D01*
X763836Y249430D01*
D02*
G37*
G36*
X738436D02*
X736164D01*
X733969Y248842D01*
X732001Y247706D01*
X730394Y246099D01*
X729258Y244131D01*
X728670Y241936D01*
Y239664D01*
X729258Y237469D01*
X730394Y235501D01*
X732001Y233894D01*
X733969Y232758D01*
X736164Y232170D01*
X738436D01*
X740631Y232758D01*
X742599Y233894D01*
X744206Y235501D01*
X745342Y237469D01*
X745930Y239664D01*
Y241936D01*
X745342Y244131D01*
X744206Y246099D01*
X742599Y247706D01*
X740631Y248842D01*
X738436Y249430D01*
D02*
G37*
G36*
X763836Y224030D02*
X761564D01*
X759369Y223442D01*
X757401Y222306D01*
X755794Y220699D01*
X754658Y218731D01*
X754070Y216536D01*
Y214264D01*
X754658Y212069D01*
X755794Y210101D01*
X757401Y208494D01*
X759369Y207358D01*
X761564Y206770D01*
X763836D01*
X766031Y207358D01*
X767999Y208494D01*
X769606Y210101D01*
X770742Y212069D01*
X771330Y214264D01*
Y216536D01*
X770742Y218731D01*
X769606Y220699D01*
X767999Y222306D01*
X766031Y223442D01*
X763836Y224030D01*
D02*
G37*
G36*
X738436D02*
X736164D01*
X733969Y223442D01*
X732001Y222306D01*
X730394Y220699D01*
X729258Y218731D01*
X728670Y216536D01*
Y214264D01*
X729258Y212069D01*
X730394Y210101D01*
X732001Y208494D01*
X733969Y207358D01*
X736164Y206770D01*
X738436D01*
X740631Y207358D01*
X742599Y208494D01*
X744206Y210101D01*
X745342Y212069D01*
X745930Y214264D01*
Y216536D01*
X745342Y218731D01*
X744206Y220699D01*
X742599Y222306D01*
X740631Y223442D01*
X738436Y224030D01*
D02*
G37*
G36*
X763836Y198630D02*
X761564D01*
X759369Y198042D01*
X757401Y196906D01*
X755794Y195299D01*
X754658Y193331D01*
X754070Y191136D01*
Y188864D01*
X754658Y186669D01*
X755794Y184701D01*
X757401Y183094D01*
X759369Y181958D01*
X761564Y181370D01*
X763836D01*
X766031Y181958D01*
X767999Y183094D01*
X769606Y184701D01*
X770742Y186669D01*
X771330Y188864D01*
Y191136D01*
X770742Y193331D01*
X769606Y195299D01*
X767999Y196906D01*
X766031Y198042D01*
X763836Y198630D01*
D02*
G37*
G36*
X738436D02*
X736164D01*
X733969Y198042D01*
X732001Y196906D01*
X730394Y195299D01*
X729258Y193331D01*
X728670Y191136D01*
Y188864D01*
X729258Y186669D01*
X730394Y184701D01*
X732001Y183094D01*
X733969Y181958D01*
X736164Y181370D01*
X738436D01*
X740631Y181958D01*
X742599Y183094D01*
X744206Y184701D01*
X745342Y186669D01*
X745930Y188864D01*
Y191136D01*
X745342Y193331D01*
X744206Y195299D01*
X742599Y196906D01*
X740631Y198042D01*
X738436Y198630D01*
D02*
G37*
G36*
X763836Y173230D02*
X761564D01*
X759369Y172642D01*
X757401Y171506D01*
X755794Y169899D01*
X754658Y167931D01*
X754070Y165736D01*
Y163464D01*
X754658Y161269D01*
X755794Y159301D01*
X757401Y157694D01*
X759369Y156558D01*
X761564Y155970D01*
X763836D01*
X766031Y156558D01*
X767999Y157694D01*
X769606Y159301D01*
X770742Y161269D01*
X771330Y163464D01*
Y165736D01*
X770742Y167931D01*
X769606Y169899D01*
X767999Y171506D01*
X766031Y172642D01*
X763836Y173230D01*
D02*
G37*
G36*
X763970Y148581D02*
Y140470D01*
X772081D01*
X771450Y142824D01*
X770214Y144966D01*
X768466Y146714D01*
X766324Y147950D01*
X763970Y148581D01*
D02*
G37*
G36*
X772081Y137930D02*
X763970D01*
Y129819D01*
X766324Y130450D01*
X768466Y131686D01*
X770214Y133434D01*
X771450Y135576D01*
X772081Y137930D01*
D02*
G37*
G36*
X772090Y123190D02*
X763970D01*
Y115070D01*
X772090D01*
Y123190D01*
D02*
G37*
%LPD*%
G36*
X666284Y634043D02*
X666124Y633881D01*
X665520Y633189D01*
X665478Y633119D01*
X665453Y633063D01*
X665445Y633020D01*
X663465Y635000D01*
X663508Y635008D01*
X663564Y635033D01*
X663633Y635075D01*
X663716Y635133D01*
X663921Y635301D01*
X664178Y635536D01*
X664488Y635839D01*
X666284Y634043D01*
D02*
G37*
G36*
X621224Y454257D02*
X621282Y454235D01*
X621360Y454216D01*
X621460Y454199D01*
X621724Y454173D01*
X622072Y454157D01*
X622505Y454152D01*
Y451612D01*
X622278Y451611D01*
X621360Y451548D01*
X621282Y451529D01*
X621224Y451507D01*
X621188Y451482D01*
Y454282D01*
X621224Y454257D01*
D02*
G37*
G36*
X681964Y471170D02*
X681921Y471162D01*
X681865Y471137D01*
X681796Y471095D01*
X681713Y471037D01*
X681509Y470869D01*
X681252Y470634D01*
X680941Y470331D01*
X679146Y472127D01*
X679305Y472289D01*
X679910Y472981D01*
X679952Y473051D01*
X679977Y473107D01*
X679985Y473150D01*
X681964Y471170D01*
D02*
G37*
G36*
X637988Y444127D02*
X638046Y444105D01*
X638124Y444086D01*
X638224Y444069D01*
X638488Y444043D01*
X638836Y444027D01*
X639269Y444022D01*
Y441482D01*
X639042Y441481D01*
X638124Y441418D01*
X638046Y441399D01*
X637988Y441377D01*
X637952Y441352D01*
Y444152D01*
X637988Y444127D01*
D02*
G37*
%LPC*%
G36*
X110988Y442217D02*
X109484D01*
X108095Y441642D01*
X107031Y440578D01*
X106456Y439189D01*
Y437685D01*
X107031Y436296D01*
X108095Y435233D01*
X109484Y434657D01*
X110988D01*
X112377Y435233D01*
X113441Y436296D01*
X114016Y437685D01*
Y439189D01*
X113441Y440578D01*
X112377Y441642D01*
X110988Y442217D01*
D02*
G37*
G36*
X117255Y374976D02*
X115751D01*
X114362Y374401D01*
X113299Y373338D01*
X112723Y371948D01*
Y370444D01*
X113299Y369055D01*
X114362Y367992D01*
X115751Y367416D01*
X117255D01*
X118644Y367992D01*
X119708Y369055D01*
X120283Y370444D01*
Y371948D01*
X119708Y373338D01*
X118644Y374401D01*
X117255Y374976D01*
D02*
G37*
G36*
X105879Y374700D02*
X104375D01*
X102986Y374124D01*
X101923Y373061D01*
X101347Y371671D01*
Y370168D01*
X101923Y368778D01*
X102986Y367715D01*
X104375Y367139D01*
X105879D01*
X107269Y367715D01*
X108332Y368778D01*
X108907Y370168D01*
Y371671D01*
X108332Y373061D01*
X107269Y374124D01*
X105879Y374700D01*
D02*
G37*
G36*
X116853Y359855D02*
X115349D01*
X113959Y359280D01*
X112896Y358216D01*
X112321Y356827D01*
Y355323D01*
X112896Y353934D01*
X113959Y352870D01*
X115349Y352295D01*
X116853D01*
X118242Y352870D01*
X119305Y353934D01*
X119881Y355323D01*
Y356827D01*
X119305Y358216D01*
X118242Y359280D01*
X116853Y359855D01*
D02*
G37*
G36*
X106511Y359581D02*
X105007D01*
X103618Y359006D01*
X102554Y357942D01*
X101979Y356553D01*
Y355049D01*
X102554Y353660D01*
X103618Y352597D01*
X105007Y352021D01*
X106511D01*
X107900Y352597D01*
X108963Y353660D01*
X109539Y355049D01*
Y356553D01*
X108963Y357942D01*
X107900Y359006D01*
X106511Y359581D01*
D02*
G37*
G36*
X242318Y287491D02*
X240814D01*
X239425Y286915D01*
X238361Y285852D01*
X237786Y284463D01*
Y282959D01*
X238361Y281570D01*
X239425Y280506D01*
X240814Y279931D01*
X242318D01*
X243707Y280506D01*
X244771Y281570D01*
X245346Y282959D01*
Y284463D01*
X244771Y285852D01*
X243707Y286915D01*
X242318Y287491D01*
D02*
G37*
G36*
X125856Y263446D02*
X116586D01*
Y254176D01*
X116704D01*
X119384Y254894D01*
X121788Y256282D01*
X123750Y258244D01*
X125138Y260648D01*
X125856Y263328D01*
Y263446D01*
D02*
G37*
G36*
X114046D02*
X104776D01*
Y263328D01*
X105494Y260648D01*
X106882Y258244D01*
X108844Y256282D01*
X111248Y254894D01*
X113928Y254176D01*
X114046D01*
Y263446D01*
D02*
G37*
G36*
X116604Y249096D02*
X114028D01*
X111541Y248430D01*
X109311Y247142D01*
X107490Y245321D01*
X106202Y243091D01*
X105536Y240604D01*
Y238029D01*
X106202Y235541D01*
X107490Y233311D01*
X109311Y231490D01*
X111541Y230203D01*
X114028Y229536D01*
X116604D01*
X119091Y230203D01*
X121321Y231490D01*
X123142Y233311D01*
X124430Y235541D01*
X125096Y238029D01*
Y240604D01*
X124430Y243091D01*
X123142Y245321D01*
X121321Y247142D01*
X119091Y248430D01*
X116604Y249096D01*
D02*
G37*
G36*
X185801Y226368D02*
X184298D01*
X182908Y225793D01*
X181845Y224729D01*
X181269Y223340D01*
Y221836D01*
X181845Y220447D01*
X182908Y219384D01*
X184298Y218808D01*
X185801D01*
X187191Y219384D01*
X188254Y220447D01*
X188829Y221836D01*
Y223340D01*
X188254Y224729D01*
X187191Y225793D01*
X185801Y226368D01*
D02*
G37*
G36*
X253120Y212314D02*
X251617D01*
X250227Y211738D01*
X249164Y210675D01*
X248589Y209286D01*
Y207782D01*
X249164Y206393D01*
X250227Y205329D01*
X251617Y204754D01*
X253120D01*
X254510Y205329D01*
X255573Y206393D01*
X256148Y207782D01*
Y209286D01*
X255573Y210675D01*
X254510Y211738D01*
X253120Y212314D01*
D02*
G37*
G36*
X116604Y223696D02*
X114028D01*
X111541Y223029D01*
X109311Y221742D01*
X107490Y219921D01*
X106202Y217691D01*
X105536Y215204D01*
Y212628D01*
X106202Y210141D01*
X107490Y207911D01*
X109311Y206090D01*
X111541Y204802D01*
X114028Y204136D01*
X116604D01*
X119091Y204802D01*
X121321Y206090D01*
X123142Y207911D01*
X124430Y210141D01*
X125096Y212628D01*
Y215204D01*
X124430Y217691D01*
X123142Y219921D01*
X121321Y221742D01*
X119091Y223029D01*
X116604Y223696D01*
D02*
G37*
G36*
X492967Y211422D02*
X491464D01*
X490074Y210847D01*
X489011Y209783D01*
X488436Y208394D01*
Y206890D01*
X489011Y205501D01*
X490074Y204438D01*
X491464Y203862D01*
X492967D01*
X494357Y204438D01*
X495420Y205501D01*
X495996Y206890D01*
Y208394D01*
X495420Y209783D01*
X494357Y210847D01*
X492967Y211422D01*
D02*
G37*
G36*
X482709D02*
X481205D01*
X479816Y210847D01*
X478753Y209783D01*
X478177Y208394D01*
Y206890D01*
X478753Y205501D01*
X479816Y204438D01*
X481205Y203862D01*
X482709D01*
X484098Y204438D01*
X485162Y205501D01*
X485737Y206890D01*
Y208394D01*
X485162Y209783D01*
X484098Y210847D01*
X482709Y211422D01*
D02*
G37*
G36*
X472450D02*
X470947D01*
X469557Y210847D01*
X468494Y209783D01*
X467919Y208394D01*
Y206890D01*
X468494Y205501D01*
X469557Y204438D01*
X470947Y203862D01*
X472450D01*
X473840Y204438D01*
X474903Y205501D01*
X475479Y206890D01*
Y208394D01*
X474903Y209783D01*
X473840Y210847D01*
X472450Y211422D01*
D02*
G37*
G36*
X462192D02*
X460688D01*
X459299Y210847D01*
X458236Y209783D01*
X457660Y208394D01*
Y206890D01*
X458236Y205501D01*
X459299Y204438D01*
X460688Y203862D01*
X462192D01*
X463581Y204438D01*
X464645Y205501D01*
X465220Y206890D01*
Y208394D01*
X464645Y209783D01*
X463581Y210847D01*
X462192Y211422D01*
D02*
G37*
G36*
X451933D02*
X450430D01*
X449040Y210847D01*
X447977Y209783D01*
X447402Y208394D01*
Y206890D01*
X447977Y205501D01*
X449040Y204438D01*
X450430Y203862D01*
X451933D01*
X453323Y204438D01*
X454386Y205501D01*
X454962Y206890D01*
Y208394D01*
X454386Y209783D01*
X453323Y210847D01*
X451933Y211422D01*
D02*
G37*
G36*
X441675D02*
X440171D01*
X438782Y210847D01*
X437718Y209783D01*
X437143Y208394D01*
Y206890D01*
X437718Y205501D01*
X438782Y204438D01*
X440171Y203862D01*
X441675D01*
X443064Y204438D01*
X444128Y205501D01*
X444703Y206890D01*
Y208394D01*
X444128Y209783D01*
X443064Y210847D01*
X441675Y211422D01*
D02*
G37*
G36*
X116604Y198296D02*
X114028D01*
X111541Y197630D01*
X109311Y196342D01*
X107490Y194521D01*
X106202Y192291D01*
X105536Y189804D01*
Y187229D01*
X106202Y184741D01*
X107490Y182511D01*
X109311Y180690D01*
X111541Y179403D01*
X114028Y178736D01*
X116604D01*
X119091Y179403D01*
X121321Y180690D01*
X123142Y182511D01*
X124430Y184741D01*
X125096Y187229D01*
Y189804D01*
X124430Y192291D01*
X123142Y194521D01*
X121321Y196342D01*
X119091Y197630D01*
X116604Y198296D01*
D02*
G37*
G36*
X403890Y145927D02*
Y143350D01*
X406467D01*
X406045Y144368D01*
X404908Y145505D01*
X403890Y145927D01*
D02*
G37*
G36*
X401350D02*
X400331Y145505D01*
X399195Y144368D01*
X398773Y143350D01*
X401350D01*
Y145927D01*
D02*
G37*
G36*
X416890D02*
Y143350D01*
X419467D01*
X419045Y144368D01*
X417909Y145505D01*
X416890Y145927D01*
D02*
G37*
G36*
X414350D02*
X413331Y145505D01*
X412195Y144368D01*
X411773Y143350D01*
X414350D01*
Y145927D01*
D02*
G37*
G36*
X442890D02*
Y143350D01*
X445467D01*
X445045Y144368D01*
X443909Y145505D01*
X442890Y145927D01*
D02*
G37*
G36*
X429890D02*
Y143350D01*
X432467D01*
X432045Y144368D01*
X430909Y145505D01*
X429890Y145927D01*
D02*
G37*
G36*
X440350D02*
X439332Y145505D01*
X438195Y144368D01*
X437773Y143350D01*
X440350D01*
Y145927D01*
D02*
G37*
G36*
X427350D02*
X426331Y145505D01*
X425195Y144368D01*
X424773Y143350D01*
X427350D01*
Y145927D01*
D02*
G37*
G36*
X406467Y140810D02*
X403890D01*
Y138233D01*
X404908Y138655D01*
X406045Y139791D01*
X406467Y140810D01*
D02*
G37*
G36*
X440350Y140810D02*
X437773D01*
X438195Y139791D01*
X439332Y138655D01*
X440350Y138233D01*
Y140810D01*
D02*
G37*
G36*
X427350D02*
X424773D01*
X425195Y139791D01*
X426331Y138655D01*
X427350Y138233D01*
Y140810D01*
D02*
G37*
G36*
X419467Y140810D02*
X416890D01*
Y138233D01*
X417909Y138655D01*
X419045Y139791D01*
X419467Y140810D01*
D02*
G37*
G36*
X414350D02*
X411773D01*
X412195Y139791D01*
X413331Y138655D01*
X414350Y138233D01*
Y140810D01*
D02*
G37*
G36*
X445467Y140810D02*
X442890D01*
Y138233D01*
X443909Y138655D01*
X445045Y139791D01*
X445467Y140810D01*
D02*
G37*
G36*
X432467D02*
X429890D01*
Y138233D01*
X430909Y138655D01*
X432045Y139791D01*
X432467Y140810D01*
D02*
G37*
G36*
X401350Y140810D02*
X398773D01*
X399195Y139791D01*
X400331Y138655D01*
X401350Y138233D01*
Y140810D01*
D02*
G37*
G36*
X403890Y132927D02*
Y130350D01*
X406467D01*
X406045Y131368D01*
X404908Y132505D01*
X403890Y132927D01*
D02*
G37*
G36*
X401350D02*
X400331Y132505D01*
X399195Y131368D01*
X398773Y130350D01*
X401350D01*
Y132927D01*
D02*
G37*
G36*
X416890D02*
Y130350D01*
X419467D01*
X419045Y131368D01*
X417909Y132505D01*
X416890Y132927D01*
D02*
G37*
G36*
X414350D02*
X413331Y132505D01*
X412195Y131368D01*
X411773Y130350D01*
X414350D01*
Y132927D01*
D02*
G37*
G36*
X442890D02*
Y130350D01*
X445467D01*
X445045Y131368D01*
X443909Y132505D01*
X442890Y132927D01*
D02*
G37*
G36*
X429890D02*
Y130350D01*
X432467D01*
X432045Y131368D01*
X430909Y132505D01*
X429890Y132927D01*
D02*
G37*
G36*
X440350D02*
X439332Y132505D01*
X438195Y131368D01*
X437773Y130350D01*
X440350D01*
Y132927D01*
D02*
G37*
G36*
X427350D02*
X426331Y132505D01*
X425195Y131368D01*
X424773Y130350D01*
X427350D01*
Y132927D01*
D02*
G37*
G36*
X406467Y127810D02*
X403890D01*
Y125233D01*
X404908Y125655D01*
X406045Y126791D01*
X406467Y127810D01*
D02*
G37*
G36*
X440350Y127810D02*
X437773D01*
X438195Y126791D01*
X439332Y125655D01*
X440350Y125233D01*
Y127810D01*
D02*
G37*
G36*
X427350D02*
X424773D01*
X425195Y126791D01*
X426331Y125655D01*
X427350Y125233D01*
Y127810D01*
D02*
G37*
G36*
X419467Y127810D02*
X416890D01*
Y125233D01*
X417909Y125655D01*
X419045Y126791D01*
X419467Y127810D01*
D02*
G37*
G36*
X414350D02*
X411773D01*
X412195Y126791D01*
X413331Y125655D01*
X414350Y125233D01*
Y127810D01*
D02*
G37*
G36*
X445467Y127810D02*
X442890D01*
Y125233D01*
X443909Y125655D01*
X445045Y126791D01*
X445467Y127810D01*
D02*
G37*
G36*
X432467D02*
X429890D01*
Y125233D01*
X430909Y125655D01*
X432045Y126791D01*
X432467Y127810D01*
D02*
G37*
G36*
X401350Y127810D02*
X398773D01*
X399195Y126791D01*
X400331Y125655D01*
X401350Y125233D01*
Y127810D01*
D02*
G37*
G36*
X98288Y86584D02*
X96784D01*
X95395Y86009D01*
X94331Y84945D01*
X93756Y83556D01*
Y82052D01*
X94331Y80663D01*
X95395Y79600D01*
X96784Y79024D01*
X98288D01*
X99677Y79600D01*
X100740Y80663D01*
X101316Y82052D01*
Y83556D01*
X100740Y84945D01*
X99677Y86009D01*
X98288Y86584D01*
D02*
G37*
G36*
X395976Y409926D02*
X394472D01*
X393083Y409351D01*
X392020Y408287D01*
X391444Y406898D01*
Y405394D01*
X392020Y404005D01*
X393083Y402942D01*
X394472Y402366D01*
X395976D01*
X397365Y402942D01*
X398428Y404005D01*
X399004Y405394D01*
Y406898D01*
X398428Y408287D01*
X397365Y409351D01*
X395976Y409926D01*
D02*
G37*
G36*
X657606Y161080D02*
X656131Y160787D01*
X654881Y159951D01*
X654387Y159213D01*
X652951D01*
X652457Y159951D01*
X651207Y160787D01*
X649732Y161080D01*
X648257Y160787D01*
X647007Y159951D01*
X646171Y158701D01*
X645878Y157226D01*
X646171Y155751D01*
X647007Y154501D01*
X648257Y153665D01*
X649732Y153372D01*
X651207Y153665D01*
X652457Y154501D01*
X652951Y155239D01*
X654387D01*
X654881Y154501D01*
X656131Y153665D01*
X657606Y153372D01*
X659081Y153665D01*
X660331Y154501D01*
X661167Y155751D01*
X661460Y157226D01*
X661167Y158701D01*
X660331Y159951D01*
X659081Y160787D01*
X657606Y161080D01*
D02*
G37*
G36*
X738570Y148504D02*
Y140470D01*
X746604D01*
X746448Y141651D01*
X745502Y143935D01*
X743997Y145897D01*
X742036Y147402D01*
X739751Y148348D01*
X738570Y148504D01*
D02*
G37*
G36*
X736030Y148504D02*
X734849Y148348D01*
X732564Y147402D01*
X730603Y145897D01*
X729098Y143935D01*
X728152Y141651D01*
X727996Y140470D01*
X736030D01*
Y148504D01*
D02*
G37*
G36*
Y137930D02*
X727996D01*
X728152Y136749D01*
X729098Y134465D01*
X730603Y132503D01*
X732564Y130998D01*
X734849Y130052D01*
X736030Y129896D01*
Y137930D01*
D02*
G37*
G36*
X746604D02*
X738570D01*
Y129896D01*
X739751Y130052D01*
X742036Y130998D01*
X743997Y132503D01*
X745502Y134465D01*
X746448Y136749D01*
X746604Y137930D01*
D02*
G37*
G36*
X738570Y123104D02*
Y115070D01*
X746604D01*
X746448Y116251D01*
X745502Y118535D01*
X743997Y120497D01*
X742036Y122002D01*
X739751Y122948D01*
X738570Y123104D01*
D02*
G37*
G36*
X736030Y123104D02*
X734849Y122948D01*
X732564Y122002D01*
X730603Y120497D01*
X729098Y118535D01*
X728152Y116251D01*
X727996Y115070D01*
X736030D01*
Y123104D01*
D02*
G37*
G36*
X585000Y114816D02*
X583525Y114522D01*
X582275Y113687D01*
X581439Y112437D01*
X581146Y110962D01*
X581439Y109487D01*
X582275Y108237D01*
X583525Y107401D01*
X585000Y107108D01*
X586475Y107401D01*
X587725Y108237D01*
X588561Y109487D01*
X588854Y110962D01*
X588561Y112437D01*
X587725Y113687D01*
X586475Y114522D01*
X585000Y114816D01*
D02*
G37*
G36*
X736030Y112530D02*
X727996D01*
X728152Y111349D01*
X729098Y109065D01*
X730603Y107103D01*
X732564Y105598D01*
X734849Y104652D01*
X736030Y104496D01*
Y112530D01*
D02*
G37*
G36*
X746604D02*
X738570D01*
Y104496D01*
X739751Y104652D01*
X742036Y105598D01*
X743997Y107103D01*
X745502Y109065D01*
X746448Y111349D01*
X746604Y112530D01*
D02*
G37*
G36*
X631487Y98596D02*
X630012Y98303D01*
X628761Y97467D01*
X627926Y96217D01*
X627633Y94742D01*
X627926Y93267D01*
X628761Y92017D01*
X630012Y91181D01*
X631487Y90888D01*
X632962Y91181D01*
X634212Y92017D01*
X635047Y93267D01*
X635341Y94742D01*
X635047Y96217D01*
X634212Y97467D01*
X632962Y98303D01*
X631487Y98596D01*
D02*
G37*
G36*
X613953D02*
X612478Y98303D01*
X611227Y97467D01*
X610392Y96217D01*
X610099Y94742D01*
X610392Y93267D01*
X611227Y92017D01*
X612478Y91181D01*
X613953Y90888D01*
X615428Y91181D01*
X616678Y92017D01*
X617513Y93267D01*
X617807Y94742D01*
X617513Y96217D01*
X616678Y97467D01*
X615428Y98303D01*
X613953Y98596D01*
D02*
G37*
G36*
X596169D02*
X594694Y98303D01*
X593443Y97467D01*
X592608Y96217D01*
X592314Y94742D01*
X592608Y93267D01*
X593443Y92017D01*
X594694Y91181D01*
X596169Y90888D01*
X597643Y91181D01*
X598894Y92017D01*
X599729Y93267D01*
X600023Y94742D01*
X599729Y96217D01*
X598894Y97467D01*
X597643Y98303D01*
X596169Y98596D01*
D02*
G37*
G36*
X588842Y91647D02*
X587367Y91354D01*
X586117Y90518D01*
X585281Y89268D01*
X584988Y87793D01*
X585281Y86318D01*
X586117Y85068D01*
X587367Y84232D01*
X588842Y83939D01*
X590317Y84232D01*
X591567Y85068D01*
X592403Y86318D01*
X592696Y87793D01*
X592403Y89268D01*
X591567Y90518D01*
X590317Y91354D01*
X588842Y91647D01*
D02*
G37*
G36*
X626270Y78739D02*
Y71270D01*
X633739D01*
X633603Y72305D01*
X632713Y74453D01*
X631298Y76298D01*
X629453Y77713D01*
X627305Y78603D01*
X626270Y78739D01*
D02*
G37*
G36*
X623730D02*
X622695Y78603D01*
X620547Y77713D01*
X618702Y76298D01*
X617287Y74453D01*
X616397Y72305D01*
X616261Y71270D01*
X623730D01*
Y78739D01*
D02*
G37*
G36*
X606270D02*
Y71270D01*
X613739D01*
X613603Y72305D01*
X612713Y74453D01*
X611298Y76298D01*
X609453Y77713D01*
X607305Y78603D01*
X606270Y78739D01*
D02*
G37*
G36*
X603730D02*
X602695Y78603D01*
X600547Y77713D01*
X598702Y76298D01*
X597287Y74453D01*
X596397Y72305D01*
X596261Y71270D01*
X603730D01*
Y78739D01*
D02*
G37*
G36*
X586270D02*
Y71270D01*
X593739D01*
X593603Y72305D01*
X592713Y74453D01*
X591298Y76298D01*
X589453Y77713D01*
X587305Y78603D01*
X586270Y78739D01*
D02*
G37*
G36*
X583730D02*
X582695Y78603D01*
X580547Y77713D01*
X578702Y76298D01*
X577287Y74453D01*
X576397Y72305D01*
X576261Y71270D01*
X583730D01*
Y78739D01*
D02*
G37*
G36*
X633739Y68730D02*
X626270D01*
Y61261D01*
X627305Y61397D01*
X629453Y62287D01*
X631298Y63702D01*
X632713Y65547D01*
X633603Y67695D01*
X633739Y68730D01*
D02*
G37*
G36*
X623730D02*
X616261D01*
X616397Y67695D01*
X617287Y65547D01*
X618702Y63702D01*
X620547Y62287D01*
X622695Y61397D01*
X623730Y61261D01*
Y68730D01*
D02*
G37*
G36*
X613739D02*
X606270D01*
Y61261D01*
X607305Y61397D01*
X609453Y62287D01*
X611298Y63702D01*
X612713Y65547D01*
X613603Y67695D01*
X613739Y68730D01*
D02*
G37*
G36*
X603730D02*
X596261D01*
X596397Y67695D01*
X597287Y65547D01*
X598702Y63702D01*
X600547Y62287D01*
X602695Y61397D01*
X603730Y61261D01*
Y68730D01*
D02*
G37*
G36*
X593739D02*
X586270D01*
Y61261D01*
X587305Y61397D01*
X589453Y62287D01*
X591298Y63702D01*
X592713Y65547D01*
X593603Y67695D01*
X593739Y68730D01*
D02*
G37*
G36*
X583730D02*
X576261D01*
X576397Y67695D01*
X577287Y65547D01*
X578702Y63702D01*
X580547Y62287D01*
X582695Y61397D01*
X583730Y61261D01*
Y68730D01*
D02*
G37*
G36*
X731002Y721894D02*
X729498D01*
X728109Y721319D01*
X727046Y720255D01*
X726470Y718866D01*
Y717362D01*
X727046Y715973D01*
X728109Y714910D01*
X729498Y714334D01*
X731002D01*
X732391Y714910D01*
X733455Y715973D01*
X734030Y717362D01*
Y718866D01*
X733455Y720255D01*
X732391Y721319D01*
X731002Y721894D01*
D02*
G37*
G36*
X715325Y721869D02*
X713821D01*
X712432Y721293D01*
X711368Y720230D01*
X710793Y718840D01*
Y717337D01*
X711368Y715947D01*
X712432Y714884D01*
X713821Y714309D01*
X715325D01*
X716714Y714884D01*
X717777Y715947D01*
X718353Y717337D01*
Y718840D01*
X717777Y720230D01*
X716714Y721293D01*
X715325Y721869D01*
D02*
G37*
G36*
X743784Y618320D02*
X742281D01*
X740891Y617744D01*
X739828Y616681D01*
X739253Y615292D01*
Y613788D01*
X739828Y612399D01*
X740577Y611650D01*
X739828Y610901D01*
X739253Y609512D01*
Y608008D01*
X739828Y606619D01*
X740891Y605555D01*
X742281Y604980D01*
X743784D01*
X745174Y605555D01*
X746237Y606619D01*
X746813Y608008D01*
Y609512D01*
X746237Y610901D01*
X745488Y611650D01*
X746237Y612399D01*
X746813Y613788D01*
Y615292D01*
X746237Y616681D01*
X745174Y617744D01*
X743784Y618320D01*
D02*
G37*
G36*
Y593594D02*
X742281D01*
X740891Y593019D01*
X739828Y591955D01*
X739253Y590566D01*
Y589062D01*
X739828Y587673D01*
X740577Y586924D01*
X739828Y586175D01*
X739253Y584786D01*
Y583282D01*
X739828Y581893D01*
X740891Y580830D01*
X742281Y580254D01*
X743784D01*
X745174Y580830D01*
X746237Y581893D01*
X746813Y583282D01*
Y584786D01*
X746237Y586175D01*
X745488Y586924D01*
X746237Y587673D01*
X746813Y589062D01*
Y590566D01*
X746237Y591955D01*
X745174Y593019D01*
X743784Y593594D01*
D02*
G37*
G36*
X743570Y568376D02*
X742066D01*
X740677Y567800D01*
X739614Y566737D01*
X739038Y565348D01*
Y563844D01*
X739614Y562455D01*
X740363Y561706D01*
X739614Y560957D01*
X739038Y559568D01*
Y558064D01*
X739614Y556675D01*
X740677Y555611D01*
X742066Y555036D01*
X743570D01*
X744959Y555611D01*
X746023Y556675D01*
X746598Y558064D01*
Y559568D01*
X746023Y560957D01*
X745274Y561706D01*
X746023Y562455D01*
X746598Y563844D01*
Y565348D01*
X746023Y566737D01*
X744959Y567800D01*
X743570Y568376D01*
D02*
G37*
G36*
X446270Y78801D02*
Y71270D01*
X453801D01*
X453228Y73408D01*
X452066Y75422D01*
X450422Y77066D01*
X448408Y78228D01*
X446270Y78801D01*
D02*
G37*
G36*
X443730D02*
X441592Y78228D01*
X439578Y77066D01*
X437934Y75422D01*
X436772Y73408D01*
X436199Y71270D01*
X443730D01*
Y78801D01*
D02*
G37*
G36*
X406270D02*
Y71270D01*
X413801D01*
X413228Y73408D01*
X412066Y75422D01*
X410422Y77066D01*
X408408Y78228D01*
X406270Y78801D01*
D02*
G37*
G36*
X403730D02*
X401592Y78228D01*
X399578Y77066D01*
X397934Y75422D01*
X396772Y73408D01*
X396199Y71270D01*
X403730D01*
Y78801D01*
D02*
G37*
G36*
X366270D02*
Y71270D01*
X373801D01*
X373228Y73408D01*
X372066Y75422D01*
X370422Y77066D01*
X368408Y78228D01*
X366270Y78801D01*
D02*
G37*
G36*
X363730D02*
X361592Y78228D01*
X359578Y77066D01*
X357934Y75422D01*
X356772Y73408D01*
X356199Y71270D01*
X363730D01*
Y78801D01*
D02*
G37*
G36*
X286270D02*
Y71270D01*
X293801D01*
X293228Y73408D01*
X292066Y75422D01*
X290422Y77066D01*
X288408Y78228D01*
X286270Y78801D01*
D02*
G37*
G36*
X283730D02*
X281592Y78228D01*
X279578Y77066D01*
X277934Y75422D01*
X276772Y73408D01*
X276199Y71270D01*
X283730D01*
Y78801D01*
D02*
G37*
G36*
X546062Y78070D02*
X543937D01*
X541885Y77520D01*
X540045Y76458D01*
X538542Y74955D01*
X537480Y73115D01*
X536930Y71062D01*
Y68938D01*
X537480Y66885D01*
X538542Y65045D01*
X540045Y63542D01*
X541885Y62480D01*
X543937Y61930D01*
X546062D01*
X548115Y62480D01*
X549955Y63542D01*
X551458Y65045D01*
X552520Y66885D01*
X553070Y68938D01*
Y71062D01*
X552520Y73115D01*
X551458Y74955D01*
X549955Y76458D01*
X548115Y77520D01*
X546062Y78070D01*
D02*
G37*
G36*
X526062D02*
X523938D01*
X521885Y77520D01*
X520045Y76458D01*
X518542Y74955D01*
X517480Y73115D01*
X516930Y71062D01*
Y68938D01*
X517480Y66885D01*
X518542Y65045D01*
X520045Y63542D01*
X521885Y62480D01*
X523938Y61930D01*
X526062D01*
X528115Y62480D01*
X529955Y63542D01*
X531458Y65045D01*
X532520Y66885D01*
X533070Y68938D01*
Y71062D01*
X532520Y73115D01*
X531458Y74955D01*
X529955Y76458D01*
X528115Y77520D01*
X526062Y78070D01*
D02*
G37*
G36*
X506062D02*
X503937D01*
X501885Y77520D01*
X500045Y76458D01*
X498542Y74955D01*
X497480Y73115D01*
X496930Y71062D01*
Y68938D01*
X497480Y66885D01*
X498542Y65045D01*
X500045Y63542D01*
X501885Y62480D01*
X503937Y61930D01*
X506062D01*
X508115Y62480D01*
X509955Y63542D01*
X511458Y65045D01*
X512520Y66885D01*
X513070Y68938D01*
Y71062D01*
X512520Y73115D01*
X511458Y74955D01*
X509955Y76458D01*
X508115Y77520D01*
X506062Y78070D01*
D02*
G37*
G36*
X486062D02*
X483938D01*
X481885Y77520D01*
X480045Y76458D01*
X478542Y74955D01*
X477480Y73115D01*
X476930Y71062D01*
Y68938D01*
X477480Y66885D01*
X478542Y65045D01*
X480045Y63542D01*
X481885Y62480D01*
X483938Y61930D01*
X486062D01*
X488115Y62480D01*
X489955Y63542D01*
X491458Y65045D01*
X492520Y66885D01*
X493070Y68938D01*
Y71062D01*
X492520Y73115D01*
X491458Y74955D01*
X489955Y76458D01*
X488115Y77520D01*
X486062Y78070D01*
D02*
G37*
G36*
X426062D02*
X423938D01*
X421885Y77520D01*
X420045Y76458D01*
X418542Y74955D01*
X417480Y73115D01*
X416930Y71062D01*
Y68938D01*
X417480Y66885D01*
X418542Y65045D01*
X420045Y63542D01*
X421885Y62480D01*
X423938Y61930D01*
X426062D01*
X428115Y62480D01*
X429955Y63542D01*
X431458Y65045D01*
X432520Y66885D01*
X433070Y68938D01*
Y71062D01*
X432520Y73115D01*
X431458Y74955D01*
X429955Y76458D01*
X428115Y77520D01*
X426062Y78070D01*
D02*
G37*
G36*
X386062D02*
X383938D01*
X381885Y77520D01*
X380045Y76458D01*
X378542Y74955D01*
X377480Y73115D01*
X376930Y71062D01*
Y68938D01*
X377480Y66885D01*
X378542Y65045D01*
X380045Y63542D01*
X381885Y62480D01*
X383938Y61930D01*
X386062D01*
X388115Y62480D01*
X389955Y63542D01*
X391458Y65045D01*
X392520Y66885D01*
X393070Y68938D01*
Y71062D01*
X392520Y73115D01*
X391458Y74955D01*
X389955Y76458D01*
X388115Y77520D01*
X386062Y78070D01*
D02*
G37*
G36*
X346062D02*
X343938D01*
X341885Y77520D01*
X340045Y76458D01*
X338542Y74955D01*
X337480Y73115D01*
X336930Y71062D01*
Y68938D01*
X337480Y66885D01*
X338542Y65045D01*
X340045Y63542D01*
X341885Y62480D01*
X343938Y61930D01*
X346062D01*
X348115Y62480D01*
X349955Y63542D01*
X351458Y65045D01*
X352520Y66885D01*
X353070Y68938D01*
Y71062D01*
X352520Y73115D01*
X351458Y74955D01*
X349955Y76458D01*
X348115Y77520D01*
X346062Y78070D01*
D02*
G37*
G36*
X326062D02*
X323938D01*
X321885Y77520D01*
X320045Y76458D01*
X318542Y74955D01*
X317480Y73115D01*
X316930Y71062D01*
Y68938D01*
X317480Y66885D01*
X318542Y65045D01*
X320045Y63542D01*
X321885Y62480D01*
X323938Y61930D01*
X326062D01*
X328115Y62480D01*
X329955Y63542D01*
X331458Y65045D01*
X332520Y66885D01*
X333070Y68938D01*
Y71062D01*
X332520Y73115D01*
X331458Y74955D01*
X329955Y76458D01*
X328115Y77520D01*
X326062Y78070D01*
D02*
G37*
G36*
X306062D02*
X303938D01*
X301885Y77520D01*
X300045Y76458D01*
X298542Y74955D01*
X297480Y73115D01*
X296930Y71062D01*
Y68938D01*
X297480Y66885D01*
X298542Y65045D01*
X300045Y63542D01*
X301885Y62480D01*
X303938Y61930D01*
X306062D01*
X308115Y62480D01*
X309955Y63542D01*
X311458Y65045D01*
X312520Y66885D01*
X313070Y68938D01*
Y71062D01*
X312520Y73115D01*
X311458Y74955D01*
X309955Y76458D01*
X308115Y77520D01*
X306062Y78070D01*
D02*
G37*
G36*
X266062D02*
X263937D01*
X261885Y77520D01*
X260045Y76458D01*
X258542Y74955D01*
X257480Y73115D01*
X256930Y71062D01*
Y68938D01*
X257480Y66885D01*
X258542Y65045D01*
X260045Y63542D01*
X261885Y62480D01*
X263937Y61930D01*
X266062D01*
X268115Y62480D01*
X269955Y63542D01*
X271458Y65045D01*
X272520Y66885D01*
X273070Y68938D01*
Y71062D01*
X272520Y73115D01*
X271458Y74955D01*
X269955Y76458D01*
X268115Y77520D01*
X266062Y78070D01*
D02*
G37*
G36*
X246062D02*
X243938D01*
X241885Y77520D01*
X240045Y76458D01*
X238542Y74955D01*
X237480Y73115D01*
X236930Y71062D01*
Y68938D01*
X237480Y66885D01*
X238542Y65045D01*
X240045Y63542D01*
X241885Y62480D01*
X243938Y61930D01*
X246062D01*
X248115Y62480D01*
X249955Y63542D01*
X251458Y65045D01*
X252520Y66885D01*
X253070Y68938D01*
Y71062D01*
X252520Y73115D01*
X251458Y74955D01*
X249955Y76458D01*
X248115Y77520D01*
X246062Y78070D01*
D02*
G37*
G36*
X226062D02*
X223938D01*
X221885Y77520D01*
X220045Y76458D01*
X218542Y74955D01*
X217480Y73115D01*
X216930Y71062D01*
Y68938D01*
X217480Y66885D01*
X218542Y65045D01*
X220045Y63542D01*
X221885Y62480D01*
X223938Y61930D01*
X226062D01*
X228115Y62480D01*
X229955Y63542D01*
X231458Y65045D01*
X232520Y66885D01*
X233070Y68938D01*
Y71062D01*
X232520Y73115D01*
X231458Y74955D01*
X229955Y76458D01*
X228115Y77520D01*
X226062Y78070D01*
D02*
G37*
G36*
X453801Y68730D02*
X446270D01*
Y61199D01*
X448408Y61772D01*
X450422Y62934D01*
X452066Y64578D01*
X453228Y66592D01*
X453801Y68730D01*
D02*
G37*
G36*
X443730D02*
X436199D01*
X436772Y66592D01*
X437934Y64578D01*
X439578Y62934D01*
X441592Y61772D01*
X443730Y61199D01*
Y68730D01*
D02*
G37*
G36*
X413801D02*
X406270D01*
Y61199D01*
X408408Y61772D01*
X410422Y62934D01*
X412066Y64578D01*
X413228Y66592D01*
X413801Y68730D01*
D02*
G37*
G36*
X403730D02*
X396199D01*
X396772Y66592D01*
X397934Y64578D01*
X399578Y62934D01*
X401592Y61772D01*
X403730Y61199D01*
Y68730D01*
D02*
G37*
G36*
X373801D02*
X366270D01*
Y61199D01*
X368408Y61772D01*
X370422Y62934D01*
X372066Y64578D01*
X373228Y66592D01*
X373801Y68730D01*
D02*
G37*
G36*
X363730D02*
X356199D01*
X356772Y66592D01*
X357934Y64578D01*
X359578Y62934D01*
X361592Y61772D01*
X363730Y61199D01*
Y68730D01*
D02*
G37*
G36*
X293801D02*
X286270D01*
Y61199D01*
X288408Y61772D01*
X290422Y62934D01*
X292066Y64578D01*
X293228Y66592D01*
X293801Y68730D01*
D02*
G37*
G36*
X283730D02*
X276199D01*
X276772Y66592D01*
X277934Y64578D01*
X279578Y62934D01*
X281592Y61772D01*
X283730Y61199D01*
Y68730D01*
D02*
G37*
G36*
X446270Y58801D02*
Y51270D01*
X453801D01*
X453228Y53408D01*
X452066Y55422D01*
X450422Y57066D01*
X448408Y58228D01*
X446270Y58801D01*
D02*
G37*
G36*
X443730D02*
X441592Y58228D01*
X439578Y57066D01*
X437934Y55422D01*
X436772Y53408D01*
X436199Y51270D01*
X443730D01*
Y58801D01*
D02*
G37*
G36*
X406270D02*
Y51270D01*
X413801D01*
X413228Y53408D01*
X412066Y55422D01*
X410422Y57066D01*
X408408Y58228D01*
X406270Y58801D01*
D02*
G37*
G36*
X403730D02*
X401592Y58228D01*
X399578Y57066D01*
X397934Y55422D01*
X396772Y53408D01*
X396199Y51270D01*
X403730D01*
Y58801D01*
D02*
G37*
G36*
X366270D02*
Y51270D01*
X373801D01*
X373228Y53408D01*
X372066Y55422D01*
X370422Y57066D01*
X368408Y58228D01*
X366270Y58801D01*
D02*
G37*
G36*
X363730D02*
X361592Y58228D01*
X359578Y57066D01*
X357934Y55422D01*
X356772Y53408D01*
X356199Y51270D01*
X363730D01*
Y58801D01*
D02*
G37*
G36*
X286270D02*
Y51270D01*
X293801D01*
X293228Y53408D01*
X292066Y55422D01*
X290422Y57066D01*
X288408Y58228D01*
X286270Y58801D01*
D02*
G37*
G36*
X283730D02*
X281592Y58228D01*
X279578Y57066D01*
X277934Y55422D01*
X276772Y53408D01*
X276199Y51270D01*
X283730D01*
Y58801D01*
D02*
G37*
G36*
X226270D02*
Y51270D01*
X233801D01*
X233228Y53408D01*
X232066Y55422D01*
X230422Y57066D01*
X228408Y58228D01*
X226270Y58801D01*
D02*
G37*
G36*
X223730D02*
X221592Y58228D01*
X219578Y57066D01*
X217934Y55422D01*
X216772Y53408D01*
X216199Y51270D01*
X223730D01*
Y58801D01*
D02*
G37*
G36*
X661748Y73280D02*
X658252D01*
X654874Y72375D01*
X651846Y70627D01*
X649373Y68154D01*
X647625Y65126D01*
X646720Y61748D01*
Y58252D01*
X647625Y54874D01*
X649373Y51846D01*
X651846Y49373D01*
X654874Y47625D01*
X658252Y46720D01*
X661748D01*
X665126Y47625D01*
X668154Y49373D01*
X670627Y51846D01*
X672375Y54874D01*
X673280Y58252D01*
Y61748D01*
X672375Y65126D01*
X670627Y68154D01*
X668154Y70627D01*
X665126Y72375D01*
X661748Y73280D01*
D02*
G37*
G36*
X191748D02*
X188252D01*
X184874Y72375D01*
X181846Y70627D01*
X179373Y68154D01*
X177625Y65126D01*
X176720Y61748D01*
Y58252D01*
X177625Y54874D01*
X179373Y51846D01*
X181846Y49373D01*
X184874Y47625D01*
X188252Y46720D01*
X191748D01*
X195126Y47625D01*
X198154Y49373D01*
X200627Y51846D01*
X202375Y54874D01*
X203280Y58252D01*
Y61748D01*
X202375Y65126D01*
X200627Y68154D01*
X198154Y70627D01*
X195126Y72375D01*
X191748Y73280D01*
D02*
G37*
G36*
X566062Y58070D02*
X563938D01*
X561885Y57520D01*
X560045Y56458D01*
X558542Y54955D01*
X557480Y53115D01*
X556930Y51062D01*
Y48938D01*
X557480Y46885D01*
X558542Y45045D01*
X560045Y43542D01*
X561885Y42480D01*
X563938Y41930D01*
X566062D01*
X568115Y42480D01*
X569955Y43542D01*
X571458Y45045D01*
X572520Y46885D01*
X573070Y48938D01*
Y51062D01*
X572520Y53115D01*
X571458Y54955D01*
X569955Y56458D01*
X568115Y57520D01*
X566062Y58070D01*
D02*
G37*
G36*
X546062D02*
X543937D01*
X541885Y57520D01*
X540045Y56458D01*
X538542Y54955D01*
X537480Y53115D01*
X536930Y51062D01*
Y48938D01*
X537480Y46885D01*
X538542Y45045D01*
X540045Y43542D01*
X541885Y42480D01*
X543937Y41930D01*
X546062D01*
X548115Y42480D01*
X549955Y43542D01*
X551458Y45045D01*
X552520Y46885D01*
X553070Y48938D01*
Y51062D01*
X552520Y53115D01*
X551458Y54955D01*
X549955Y56458D01*
X548115Y57520D01*
X546062Y58070D01*
D02*
G37*
G36*
X526062D02*
X523938D01*
X521885Y57520D01*
X520045Y56458D01*
X518542Y54955D01*
X517480Y53115D01*
X516930Y51062D01*
Y48938D01*
X517480Y46885D01*
X518542Y45045D01*
X520045Y43542D01*
X521885Y42480D01*
X523938Y41930D01*
X526062D01*
X528115Y42480D01*
X529955Y43542D01*
X531458Y45045D01*
X532520Y46885D01*
X533070Y48938D01*
Y51062D01*
X532520Y53115D01*
X531458Y54955D01*
X529955Y56458D01*
X528115Y57520D01*
X526062Y58070D01*
D02*
G37*
G36*
X506062D02*
X503937D01*
X501885Y57520D01*
X500045Y56458D01*
X498542Y54955D01*
X497480Y53115D01*
X496930Y51062D01*
Y48938D01*
X497480Y46885D01*
X498542Y45045D01*
X500045Y43542D01*
X501885Y42480D01*
X503937Y41930D01*
X506062D01*
X508115Y42480D01*
X509955Y43542D01*
X511458Y45045D01*
X512520Y46885D01*
X513070Y48938D01*
Y51062D01*
X512520Y53115D01*
X511458Y54955D01*
X509955Y56458D01*
X508115Y57520D01*
X506062Y58070D01*
D02*
G37*
G36*
X486062D02*
X483938D01*
X481885Y57520D01*
X480045Y56458D01*
X478542Y54955D01*
X477480Y53115D01*
X476930Y51062D01*
Y48938D01*
X477480Y46885D01*
X478542Y45045D01*
X480045Y43542D01*
X481885Y42480D01*
X483938Y41930D01*
X486062D01*
X488115Y42480D01*
X489955Y43542D01*
X491458Y45045D01*
X492520Y46885D01*
X493070Y48938D01*
Y51062D01*
X492520Y53115D01*
X491458Y54955D01*
X489955Y56458D01*
X488115Y57520D01*
X486062Y58070D01*
D02*
G37*
G36*
X466062D02*
X463938D01*
X461885Y57520D01*
X460045Y56458D01*
X458542Y54955D01*
X457480Y53115D01*
X456930Y51062D01*
Y48938D01*
X457480Y46885D01*
X458542Y45045D01*
X460045Y43542D01*
X461885Y42480D01*
X463938Y41930D01*
X466062D01*
X468115Y42480D01*
X469955Y43542D01*
X471458Y45045D01*
X472520Y46885D01*
X473070Y48938D01*
Y51062D01*
X472520Y53115D01*
X471458Y54955D01*
X469955Y56458D01*
X468115Y57520D01*
X466062Y58070D01*
D02*
G37*
G36*
X426062D02*
X423938D01*
X421885Y57520D01*
X420045Y56458D01*
X418542Y54955D01*
X417480Y53115D01*
X416930Y51062D01*
Y48938D01*
X417480Y46885D01*
X418542Y45045D01*
X420045Y43542D01*
X421885Y42480D01*
X423938Y41930D01*
X426062D01*
X428115Y42480D01*
X429955Y43542D01*
X431458Y45045D01*
X432520Y46885D01*
X433070Y48938D01*
Y51062D01*
X432520Y53115D01*
X431458Y54955D01*
X429955Y56458D01*
X428115Y57520D01*
X426062Y58070D01*
D02*
G37*
G36*
X386062D02*
X383938D01*
X381885Y57520D01*
X380045Y56458D01*
X378542Y54955D01*
X377480Y53115D01*
X376930Y51062D01*
Y48938D01*
X377480Y46885D01*
X378542Y45045D01*
X380045Y43542D01*
X381885Y42480D01*
X383938Y41930D01*
X386062D01*
X388115Y42480D01*
X389955Y43542D01*
X391458Y45045D01*
X392520Y46885D01*
X393070Y48938D01*
Y51062D01*
X392520Y53115D01*
X391458Y54955D01*
X389955Y56458D01*
X388115Y57520D01*
X386062Y58070D01*
D02*
G37*
G36*
X346062D02*
X343938D01*
X341885Y57520D01*
X340045Y56458D01*
X338542Y54955D01*
X337480Y53115D01*
X336930Y51062D01*
Y48938D01*
X337480Y46885D01*
X338542Y45045D01*
X340045Y43542D01*
X341885Y42480D01*
X343938Y41930D01*
X346062D01*
X348115Y42480D01*
X349955Y43542D01*
X351458Y45045D01*
X352520Y46885D01*
X353070Y48938D01*
Y51062D01*
X352520Y53115D01*
X351458Y54955D01*
X349955Y56458D01*
X348115Y57520D01*
X346062Y58070D01*
D02*
G37*
G36*
X326062D02*
X323938D01*
X321885Y57520D01*
X320045Y56458D01*
X318542Y54955D01*
X317480Y53115D01*
X316930Y51062D01*
Y48938D01*
X317480Y46885D01*
X318542Y45045D01*
X320045Y43542D01*
X321885Y42480D01*
X323938Y41930D01*
X326062D01*
X328115Y42480D01*
X329955Y43542D01*
X331458Y45045D01*
X332520Y46885D01*
X333070Y48938D01*
Y51062D01*
X332520Y53115D01*
X331458Y54955D01*
X329955Y56458D01*
X328115Y57520D01*
X326062Y58070D01*
D02*
G37*
G36*
X306062D02*
X303938D01*
X301885Y57520D01*
X300045Y56458D01*
X298542Y54955D01*
X297480Y53115D01*
X296930Y51062D01*
Y48938D01*
X297480Y46885D01*
X298542Y45045D01*
X300045Y43542D01*
X301885Y42480D01*
X303938Y41930D01*
X306062D01*
X308115Y42480D01*
X309955Y43542D01*
X311458Y45045D01*
X312520Y46885D01*
X313070Y48938D01*
Y51062D01*
X312520Y53115D01*
X311458Y54955D01*
X309955Y56458D01*
X308115Y57520D01*
X306062Y58070D01*
D02*
G37*
G36*
X266062D02*
X263937D01*
X261885Y57520D01*
X260045Y56458D01*
X258542Y54955D01*
X257480Y53115D01*
X256930Y51062D01*
Y48938D01*
X257480Y46885D01*
X258542Y45045D01*
X260045Y43542D01*
X261885Y42480D01*
X263937Y41930D01*
X266062D01*
X268115Y42480D01*
X269955Y43542D01*
X271458Y45045D01*
X272520Y46885D01*
X273070Y48938D01*
Y51062D01*
X272520Y53115D01*
X271458Y54955D01*
X269955Y56458D01*
X268115Y57520D01*
X266062Y58070D01*
D02*
G37*
G36*
X246062D02*
X243938D01*
X241885Y57520D01*
X240045Y56458D01*
X238542Y54955D01*
X237480Y53115D01*
X236930Y51062D01*
Y48938D01*
X237480Y46885D01*
X238542Y45045D01*
X240045Y43542D01*
X241885Y42480D01*
X243938Y41930D01*
X246062D01*
X248115Y42480D01*
X249955Y43542D01*
X251458Y45045D01*
X252520Y46885D01*
X253070Y48938D01*
Y51062D01*
X252520Y53115D01*
X251458Y54955D01*
X249955Y56458D01*
X248115Y57520D01*
X246062Y58070D01*
D02*
G37*
G36*
X453801Y48730D02*
X446270D01*
Y41199D01*
X448408Y41772D01*
X450422Y42934D01*
X452066Y44578D01*
X453228Y46592D01*
X453801Y48730D01*
D02*
G37*
G36*
X443730D02*
X436199D01*
X436772Y46592D01*
X437934Y44578D01*
X439578Y42934D01*
X441592Y41772D01*
X443730Y41199D01*
Y48730D01*
D02*
G37*
G36*
X413801D02*
X406270D01*
Y41199D01*
X408408Y41772D01*
X410422Y42934D01*
X412066Y44578D01*
X413228Y46592D01*
X413801Y48730D01*
D02*
G37*
G36*
X403730D02*
X396199D01*
X396772Y46592D01*
X397934Y44578D01*
X399578Y42934D01*
X401592Y41772D01*
X403730Y41199D01*
Y48730D01*
D02*
G37*
G36*
X373801D02*
X366270D01*
Y41199D01*
X368408Y41772D01*
X370422Y42934D01*
X372066Y44578D01*
X373228Y46592D01*
X373801Y48730D01*
D02*
G37*
G36*
X363730D02*
X356199D01*
X356772Y46592D01*
X357934Y44578D01*
X359578Y42934D01*
X361592Y41772D01*
X363730Y41199D01*
Y48730D01*
D02*
G37*
G36*
X293801D02*
X286270D01*
Y41199D01*
X288408Y41772D01*
X290422Y42934D01*
X292066Y44578D01*
X293228Y46592D01*
X293801Y48730D01*
D02*
G37*
G36*
X283730D02*
X276199D01*
X276772Y46592D01*
X277934Y44578D01*
X279578Y42934D01*
X281592Y41772D01*
X283730Y41199D01*
Y48730D01*
D02*
G37*
G36*
X233801D02*
X226270D01*
Y41199D01*
X228408Y41772D01*
X230422Y42934D01*
X232066Y44578D01*
X233228Y46592D01*
X233801Y48730D01*
D02*
G37*
G36*
X223730D02*
X216199D01*
X216772Y46592D01*
X217934Y44578D01*
X219578Y42934D01*
X221592Y41772D01*
X223730Y41199D01*
Y48730D01*
D02*
G37*
%LPD*%
D14*
X651566Y442752D02*
X681984Y473170D01*
X636633Y442752D02*
X651566D01*
X647954Y452882D02*
X689610Y494538D01*
X619760Y452882D02*
X647954D01*
X553720Y451612D02*
X553770Y451662D01*
Y633505D02*
X553820Y633555D01*
X553770Y451662D02*
Y633505D01*
X503174Y501650D02*
Y588488D01*
X485140Y599660D02*
X492002D01*
X503174Y588488D01*
X517652Y492760D02*
Y583946D01*
X494538Y607060D02*
X517652Y583946D01*
X424016Y607060D02*
X494538D01*
X414676Y597720D02*
X424016Y607060D01*
X268732Y500634D02*
X277114Y492252D01*
Y462867D02*
Y492252D01*
X372925Y487225D02*
X389143Y503443D01*
X389367D01*
X372925Y487225D02*
X372925D01*
X341749Y456049D02*
X372925Y487225D01*
X301498Y434848D02*
X301752Y434594D01*
X256794Y434848D02*
X301498D01*
X121666Y477520D02*
X214122D01*
X111252Y487934D02*
X121666Y477520D01*
X214122D02*
X256794Y434848D01*
X111252Y487934D02*
Y499364D01*
X434848Y461234D02*
X486126D01*
X517652Y492760D01*
X230640Y499353D02*
X288248Y441745D01*
X301752D01*
X348349Y481076D02*
X356362Y489089D01*
Y499190D01*
X294132Y456517D02*
X301752Y448897D01*
X302006Y481076D02*
X348349D01*
X294132Y456517D02*
Y473202D01*
X302006Y481076D01*
X150114Y495808D02*
Y507492D01*
X277114Y462867D02*
X291084Y448897D01*
X332477Y417821D02*
X370298Y380000D01*
X121666Y461518D02*
X165363Y417821D01*
X332477D01*
X338294Y422563D02*
X374858Y386000D01*
X123593Y466155D02*
X167185Y422563D01*
X338294D01*
X73948Y456438D02*
X119634D01*
X163135Y412937D02*
X327219D01*
X119634Y456438D02*
X163135Y412937D01*
X70433Y461518D02*
X121666D01*
X67475Y466155D02*
X123593D01*
X263391Y177020D02*
X264770Y178399D01*
X441960D01*
X543814Y329184D02*
Y447661D01*
X515979Y365683D02*
X529796Y379500D01*
X538480D01*
X528828Y462647D02*
X543814Y447661D01*
X509303Y386000D02*
X514717Y391414D01*
X374858Y386000D02*
X509303D01*
X370298Y380000D02*
X507207D01*
X507245Y380038D01*
X514717Y391414D02*
X515112D01*
X365221Y374935D02*
X495000D01*
X327219Y412937D02*
X365221Y374935D01*
X46310Y433950D02*
X51460D01*
X39915Y427555D02*
X46310Y433950D01*
X51460D02*
X73948Y456438D01*
X39915Y417923D02*
Y427555D01*
X50367Y441452D02*
X70433Y461518D01*
X36576Y441452D02*
X50367D01*
X56234Y454914D02*
X67475Y466155D01*
X43688Y454914D02*
X56234D01*
X520878Y266736D02*
Y359289D01*
X405013Y254714D02*
X508856D01*
X520878Y266736D01*
Y359289D02*
X527538Y365949D01*
X504931Y259283D02*
X515979Y270331D01*
Y365683D01*
X401959Y259283D02*
X504931D01*
X207809Y407887D02*
X212852Y402844D01*
Y387096D02*
Y402844D01*
X203932Y407887D02*
X207809D01*
X77216Y409799D02*
X96764D01*
X101945Y404619D01*
X101945D02*
X108455D01*
X77216Y294894D02*
Y409799D01*
Y294894D02*
X94488Y277622D01*
X135722D01*
X141818Y271526D01*
X295656D01*
X301752Y456049D02*
X341749D01*
X419620Y482614D02*
X484138D01*
X400304Y463298D02*
X419620Y482614D01*
X484138D02*
X503174Y501650D01*
X150114Y495808D02*
X163576Y482346D01*
X235326D01*
X277000Y440672D01*
X96266Y478312D02*
X101600Y472978D01*
X81788Y478312D02*
X96266D01*
X116947Y413111D02*
Y429914D01*
X108455Y404619D02*
X116947Y413111D01*
X400997Y250698D02*
X405013Y254714D01*
X400812Y250698D02*
X400997D01*
X528828Y462647D02*
Y463042D01*
X689610Y494538D02*
Y632968D01*
X669001Y638556D02*
X684022D01*
X689610Y632968D01*
X663445Y633000D02*
X669001Y638556D01*
X189306Y384434D02*
X204767Y399895D01*
X189306Y336926D02*
Y384434D01*
X187767Y329885D02*
X201250D01*
X208887Y337521D02*
Y378385D01*
X201250Y329885D02*
X208887Y337521D01*
X182880Y334772D02*
X187767Y329885D01*
D15*
X124663Y499415D02*
X124714D01*
X115316Y290116D02*
X147876D01*
X168963Y311203D01*
X177710Y302456D01*
X168963Y311203D02*
Y386530D01*
X295656Y257674D02*
X307712D01*
X177710Y302456D02*
X231140D01*
X307712Y257674D02*
X316992Y266954D01*
Y302456D01*
X389308Y119869D02*
Y142080D01*
Y119869D02*
X406561Y102616D01*
X347726Y142080D02*
X389308D01*
X353822Y251206D02*
X376200Y228828D01*
X353822Y251206D02*
Y302456D01*
X376200Y228828D02*
X419985D01*
X231140Y302456D02*
X231648Y302964D01*
X231140Y302456D02*
X241566D01*
X231648Y302964D02*
Y365715D01*
X241566Y302456D02*
X316992D01*
X252227Y365715D02*
X269324Y348617D01*
X231648Y365715D02*
X252227D01*
X316992Y302456D02*
X353822D01*
X353822D02*
X371354Y319988D01*
X379748D01*
X401718D01*
X98938Y489942D02*
X117700Y471180D01*
X98938Y489942D02*
Y505105D01*
X117700Y471180D02*
X151311D01*
X124714Y499364D02*
X136744D01*
X140500Y503120D01*
X124714Y499364D02*
Y499415D01*
X98938Y505105D02*
X102268Y508435D01*
X115643D01*
X124663Y499415D01*
X140500Y503120D02*
Y516940D01*
X150810Y527250D01*
X200663Y471180D02*
X231631Y440212D01*
X243200Y428643D01*
X151311Y471180D02*
X200663D01*
X243200Y428643D02*
X389540D01*
X406467Y411716D01*
X243000Y527250D02*
X366870D01*
X243075Y499364D02*
Y527175D01*
X150810Y527250D02*
X243000D01*
X243075Y527175D01*
X366870Y527250D02*
X471876D01*
X366945Y499364D02*
Y527175D01*
X366870Y527250D02*
X366945Y527175D01*
X406561Y102616D02*
X447679D01*
X465000Y85295D01*
X419985Y228828D02*
X445174D01*
X455172Y218831D01*
X465000Y70000D02*
Y85295D01*
X473622Y93917D01*
X508953D01*
X525609Y110573D01*
Y116877D01*
X525645Y116913D01*
X455172Y218831D02*
X514561D01*
Y173017D02*
Y218831D01*
X525645Y116913D02*
Y161933D01*
X514561Y173017D02*
X525645Y161933D01*
X401718Y319988D02*
X416750Y335020D01*
Y344500D01*
Y369250D01*
X416801D02*
X508743D01*
X525000Y385507D01*
Y396004D01*
X509288Y411716D02*
X525000Y396004D01*
X514561Y218831D02*
X576455D01*
X577090Y219466D01*
X587578Y198060D02*
X613447D01*
X576455Y218831D02*
X587578Y207707D01*
Y198060D02*
Y207707D01*
X637540Y132334D02*
Y173968D01*
X613447Y198060D02*
X637540Y173968D01*
X562533Y251714D02*
X577090D01*
Y219466D02*
Y251714D01*
Y414957D01*
X406467Y411716D02*
X509288D01*
X471876Y527250D02*
X479566Y519560D01*
Y506265D02*
X486467Y499364D01*
X479566Y506265D02*
Y519560D01*
X577054Y415045D02*
Y484371D01*
X637548Y544865D01*
Y545689D02*
X670344D01*
X620000Y563237D02*
X637548Y545689D01*
Y544865D02*
Y545689D01*
X620000Y563237D02*
Y651500D01*
X540000Y553628D02*
X547313Y546315D01*
X540000Y553628D02*
Y651500D01*
D24*
X6356Y12000D02*
G03*
X11994Y6350I5650J0D01*
G01*
X843656Y838000D02*
G03*
X838024Y843650I-5650J0D01*
G01*
X12006Y843650D02*
G03*
X6356Y838012I0J-5650D01*
G01*
X838006Y6350D02*
G03*
X843656Y11988I0J5650D01*
G01*
X12024Y843650D02*
X838006Y843650D01*
X6356Y12025D02*
X6356Y838000D01*
X843656Y12000D02*
X843656Y837975D01*
X12006Y6350D02*
X70858D01*
X140858D01*
X150858Y6350D01*
X190858D01*
X280857D01*
X330857D01*
X420857D01*
X430857Y6350D01*
X580857D01*
X690857D01*
X700857Y6350D01*
X800856D01*
X837981D01*
D134*
X428620Y142080D02*
D03*
Y129080D02*
D03*
X441620Y142080D02*
D03*
Y129080D02*
D03*
X415620Y142080D02*
D03*
Y129080D02*
D03*
X402620Y142080D02*
D03*
Y129080D02*
D03*
D135*
X660000Y60000D02*
D03*
X190000D02*
D03*
D136*
X485000Y70000D02*
D03*
Y50000D02*
D03*
X505000Y70000D02*
D03*
Y50000D02*
D03*
X525000Y70000D02*
D03*
Y50000D02*
D03*
X545000Y70000D02*
D03*
Y50000D02*
D03*
X565000Y70000D02*
D03*
Y50000D02*
D03*
X445000D02*
D03*
Y70000D02*
D03*
X405000Y50000D02*
D03*
Y70000D02*
D03*
X365000Y50000D02*
D03*
Y70000D02*
D03*
X285000Y50000D02*
D03*
Y70000D02*
D03*
X225000Y50000D02*
D03*
X245000D02*
D03*
Y70000D02*
D03*
X305000Y50000D02*
D03*
Y70000D02*
D03*
X325000D02*
D03*
Y50000D02*
D03*
X385000D02*
D03*
Y70000D02*
D03*
X425000Y50000D02*
D03*
Y70000D02*
D03*
X345000Y50000D02*
D03*
Y70000D02*
D03*
X225000D02*
D03*
X265000Y50000D02*
D03*
Y70000D02*
D03*
X625000D02*
D03*
X605000D02*
D03*
X585000D02*
D03*
X465000D02*
D03*
X625000Y50000D02*
D03*
X605000D02*
D03*
X585000D02*
D03*
X465000D02*
D03*
D138*
X737300Y266200D02*
D03*
Y240800D02*
D03*
X762700D02*
D03*
X737300Y215400D02*
D03*
X762700D02*
D03*
X737300Y190000D02*
D03*
X762700D02*
D03*
X737300Y164600D02*
D03*
X762700D02*
D03*
Y266200D02*
D03*
X737300Y113800D02*
D03*
Y139200D02*
D03*
X762700D02*
D03*
D139*
Y113800D02*
D03*
D140*
X477500Y740000D02*
D03*
X662500D02*
D03*
X477500Y692500D02*
D03*
X662500D02*
D03*
X167500Y740000D02*
D03*
X352500D02*
D03*
X167500Y692500D02*
D03*
X352500D02*
D03*
D141*
X115316Y135128D02*
D03*
Y109728D02*
D03*
Y188516D02*
D03*
Y213916D02*
D03*
Y239316D02*
D03*
Y264716D02*
D03*
D142*
Y160528D02*
D03*
Y290116D02*
D03*
D143*
X36000Y36000D02*
D03*
Y814000D02*
D03*
X814000D02*
D03*
Y36000D02*
D03*
D144*
X36000Y59250D02*
D03*
X12750Y36000D02*
D03*
X36000Y13140D02*
D03*
X59250Y36000D02*
D03*
X52440Y52440D02*
D03*
X19560Y19560D02*
D03*
X52440D02*
D03*
X19560Y52440D02*
D03*
Y830440D02*
D03*
X52440Y797560D02*
D03*
X19560D02*
D03*
X52440Y830440D02*
D03*
X59250Y814000D02*
D03*
X36000Y791140D02*
D03*
X12750Y814000D02*
D03*
X36000Y837250D02*
D03*
X814000D02*
D03*
X790750Y814000D02*
D03*
X814000Y791140D02*
D03*
X837250Y814000D02*
D03*
X830440Y830440D02*
D03*
X797560Y797560D02*
D03*
X830440D02*
D03*
X797560Y830440D02*
D03*
Y52440D02*
D03*
X830440Y19560D02*
D03*
X797560D02*
D03*
X830440Y52440D02*
D03*
X837250Y36000D02*
D03*
X814000Y13140D02*
D03*
X790750Y36000D02*
D03*
X814000Y59250D02*
D03*
D145*
X705400Y278782D02*
D03*
X620839Y239522D02*
D03*
X607822Y385826D02*
D03*
X785286Y788782D02*
D03*
X770286Y818782D02*
D03*
Y803782D02*
D03*
Y788782D02*
D03*
Y488782D02*
D03*
Y443782D02*
D03*
Y428782D02*
D03*
Y413782D02*
D03*
Y398782D02*
D03*
Y383782D02*
D03*
Y368782D02*
D03*
Y353782D02*
D03*
Y338782D02*
D03*
Y293782D02*
D03*
Y278782D02*
D03*
Y248782D02*
D03*
Y173782D02*
D03*
X755286Y818782D02*
D03*
Y803782D02*
D03*
Y788782D02*
D03*
Y488782D02*
D03*
Y443782D02*
D03*
Y428782D02*
D03*
Y413782D02*
D03*
Y398782D02*
D03*
Y383782D02*
D03*
Y368782D02*
D03*
Y353782D02*
D03*
Y338782D02*
D03*
Y293782D02*
D03*
Y278782D02*
D03*
Y173782D02*
D03*
Y98782D02*
D03*
X740286Y818782D02*
D03*
Y803782D02*
D03*
Y788782D02*
D03*
Y488782D02*
D03*
Y443782D02*
D03*
Y428782D02*
D03*
Y413782D02*
D03*
Y398782D02*
D03*
Y383782D02*
D03*
Y368782D02*
D03*
Y353782D02*
D03*
Y338782D02*
D03*
Y293782D02*
D03*
Y278782D02*
D03*
Y203782D02*
D03*
X725286Y818782D02*
D03*
Y803782D02*
D03*
Y788782D02*
D03*
Y488782D02*
D03*
Y473782D02*
D03*
Y458782D02*
D03*
X710286Y818782D02*
D03*
Y803782D02*
D03*
Y788782D02*
D03*
Y488782D02*
D03*
Y473782D02*
D03*
Y458782D02*
D03*
Y398782D02*
D03*
X695286Y818782D02*
D03*
Y803782D02*
D03*
Y788782D02*
D03*
Y773782D02*
D03*
Y758782D02*
D03*
Y743782D02*
D03*
Y728782D02*
D03*
Y713782D02*
D03*
Y698782D02*
D03*
Y683782D02*
D03*
Y668782D02*
D03*
Y653782D02*
D03*
Y428782D02*
D03*
Y143782D02*
D03*
X680286Y818782D02*
D03*
Y803782D02*
D03*
Y788782D02*
D03*
Y773782D02*
D03*
Y758782D02*
D03*
Y743782D02*
D03*
Y728782D02*
D03*
Y713782D02*
D03*
Y698782D02*
D03*
Y683782D02*
D03*
Y668782D02*
D03*
Y458782D02*
D03*
X665286Y818782D02*
D03*
Y803782D02*
D03*
Y788782D02*
D03*
Y773782D02*
D03*
Y758782D02*
D03*
Y728782D02*
D03*
Y713782D02*
D03*
Y653782D02*
D03*
Y518782D02*
D03*
Y428782D02*
D03*
X650286Y818782D02*
D03*
Y803782D02*
D03*
Y788782D02*
D03*
Y773782D02*
D03*
Y758782D02*
D03*
Y743782D02*
D03*
Y728782D02*
D03*
Y713782D02*
D03*
Y698782D02*
D03*
Y653782D02*
D03*
Y638782D02*
D03*
Y563782D02*
D03*
Y428782D02*
D03*
Y248782D02*
D03*
X635286Y818782D02*
D03*
Y803782D02*
D03*
Y788782D02*
D03*
Y773782D02*
D03*
Y758782D02*
D03*
Y743782D02*
D03*
Y728782D02*
D03*
Y713782D02*
D03*
Y698782D02*
D03*
Y563782D02*
D03*
Y488782D02*
D03*
Y473782D02*
D03*
X620286Y818782D02*
D03*
Y803782D02*
D03*
Y788782D02*
D03*
Y773782D02*
D03*
Y758782D02*
D03*
Y743782D02*
D03*
Y728782D02*
D03*
Y713782D02*
D03*
Y698782D02*
D03*
Y548782D02*
D03*
Y488782D02*
D03*
Y113782D02*
D03*
X605286Y818782D02*
D03*
Y803782D02*
D03*
Y788782D02*
D03*
Y773782D02*
D03*
Y758782D02*
D03*
Y743782D02*
D03*
Y728782D02*
D03*
Y713782D02*
D03*
Y593782D02*
D03*
Y563782D02*
D03*
Y548782D02*
D03*
Y413782D02*
D03*
Y128782D02*
D03*
Y113782D02*
D03*
X590286Y818782D02*
D03*
Y803782D02*
D03*
Y788782D02*
D03*
Y773782D02*
D03*
Y758782D02*
D03*
Y743782D02*
D03*
Y728782D02*
D03*
Y713782D02*
D03*
Y683782D02*
D03*
Y668782D02*
D03*
Y563782D02*
D03*
Y548782D02*
D03*
Y338782D02*
D03*
X575286Y818782D02*
D03*
Y803782D02*
D03*
Y788782D02*
D03*
Y773782D02*
D03*
Y758782D02*
D03*
Y743782D02*
D03*
Y728782D02*
D03*
Y713782D02*
D03*
Y638782D02*
D03*
Y563782D02*
D03*
Y548782D02*
D03*
X560286Y818782D02*
D03*
Y803782D02*
D03*
Y788782D02*
D03*
Y773782D02*
D03*
Y758782D02*
D03*
Y743782D02*
D03*
Y728782D02*
D03*
Y713782D02*
D03*
Y638782D02*
D03*
Y563782D02*
D03*
Y548782D02*
D03*
Y488782D02*
D03*
X545286Y818782D02*
D03*
Y803782D02*
D03*
Y788782D02*
D03*
Y773782D02*
D03*
Y758782D02*
D03*
Y743782D02*
D03*
Y728782D02*
D03*
Y713782D02*
D03*
Y518782D02*
D03*
Y473782D02*
D03*
Y278782D02*
D03*
X530286Y818782D02*
D03*
Y803782D02*
D03*
Y788782D02*
D03*
Y773782D02*
D03*
Y758782D02*
D03*
Y743782D02*
D03*
Y728782D02*
D03*
Y713782D02*
D03*
Y653782D02*
D03*
Y353782D02*
D03*
X515286Y818782D02*
D03*
Y803782D02*
D03*
Y788782D02*
D03*
Y773782D02*
D03*
Y758782D02*
D03*
Y743782D02*
D03*
Y728782D02*
D03*
Y713782D02*
D03*
X500286Y818782D02*
D03*
Y803782D02*
D03*
Y788782D02*
D03*
Y773782D02*
D03*
Y758782D02*
D03*
Y743782D02*
D03*
Y728782D02*
D03*
Y713782D02*
D03*
Y698782D02*
D03*
Y638782D02*
D03*
X485286Y818782D02*
D03*
Y803782D02*
D03*
Y788782D02*
D03*
Y773782D02*
D03*
Y758782D02*
D03*
Y728782D02*
D03*
Y713782D02*
D03*
Y683782D02*
D03*
Y668782D02*
D03*
Y653782D02*
D03*
Y278782D02*
D03*
X470286Y818782D02*
D03*
Y803782D02*
D03*
Y788782D02*
D03*
Y773782D02*
D03*
Y758782D02*
D03*
Y728782D02*
D03*
Y713782D02*
D03*
Y278782D02*
D03*
X455286Y818782D02*
D03*
Y803782D02*
D03*
Y788782D02*
D03*
Y758782D02*
D03*
Y728782D02*
D03*
Y623782D02*
D03*
X440286Y818782D02*
D03*
Y803782D02*
D03*
Y788782D02*
D03*
Y728782D02*
D03*
Y713782D02*
D03*
Y638782D02*
D03*
Y623782D02*
D03*
Y593782D02*
D03*
X425286Y818782D02*
D03*
Y803782D02*
D03*
Y788782D02*
D03*
Y638782D02*
D03*
Y623782D02*
D03*
Y353782D02*
D03*
Y338782D02*
D03*
X410286Y818782D02*
D03*
Y803782D02*
D03*
Y788782D02*
D03*
Y638782D02*
D03*
X395286Y818782D02*
D03*
Y803782D02*
D03*
Y788782D02*
D03*
Y743782D02*
D03*
Y713782D02*
D03*
Y683782D02*
D03*
Y668782D02*
D03*
Y638782D02*
D03*
Y263782D02*
D03*
Y188782D02*
D03*
X380286Y818782D02*
D03*
Y803782D02*
D03*
Y788782D02*
D03*
Y773782D02*
D03*
Y728782D02*
D03*
X365286Y818782D02*
D03*
Y803782D02*
D03*
Y788782D02*
D03*
Y773782D02*
D03*
Y758782D02*
D03*
Y743782D02*
D03*
Y698782D02*
D03*
Y683782D02*
D03*
Y668782D02*
D03*
Y413782D02*
D03*
Y128782D02*
D03*
Y98782D02*
D03*
X350286Y818782D02*
D03*
Y803782D02*
D03*
Y788782D02*
D03*
Y773782D02*
D03*
Y758782D02*
D03*
Y668782D02*
D03*
Y443782D02*
D03*
Y338782D02*
D03*
Y203782D02*
D03*
Y188782D02*
D03*
X335286Y818782D02*
D03*
Y803782D02*
D03*
Y788782D02*
D03*
Y773782D02*
D03*
Y758782D02*
D03*
Y743782D02*
D03*
Y443782D02*
D03*
Y203782D02*
D03*
X320286Y818782D02*
D03*
Y803782D02*
D03*
Y788782D02*
D03*
Y773782D02*
D03*
Y758782D02*
D03*
Y743782D02*
D03*
Y698782D02*
D03*
Y203782D02*
D03*
Y113782D02*
D03*
X305286Y818782D02*
D03*
Y803782D02*
D03*
Y788782D02*
D03*
Y773782D02*
D03*
Y758782D02*
D03*
Y743782D02*
D03*
Y278782D02*
D03*
Y263782D02*
D03*
Y203782D02*
D03*
Y128782D02*
D03*
Y113782D02*
D03*
Y98782D02*
D03*
X290286Y818782D02*
D03*
Y803782D02*
D03*
Y788782D02*
D03*
Y773782D02*
D03*
Y758782D02*
D03*
Y743782D02*
D03*
Y263782D02*
D03*
X275286Y818782D02*
D03*
Y803782D02*
D03*
Y788782D02*
D03*
Y773782D02*
D03*
Y758782D02*
D03*
Y743782D02*
D03*
Y713782D02*
D03*
Y293782D02*
D03*
X260286Y818782D02*
D03*
Y803782D02*
D03*
Y788782D02*
D03*
Y773782D02*
D03*
Y758782D02*
D03*
Y743782D02*
D03*
Y713782D02*
D03*
Y698782D02*
D03*
Y593782D02*
D03*
Y263782D02*
D03*
Y218782D02*
D03*
X245286Y818782D02*
D03*
Y803782D02*
D03*
Y788782D02*
D03*
Y773782D02*
D03*
Y758782D02*
D03*
Y743782D02*
D03*
Y308782D02*
D03*
Y293782D02*
D03*
Y203782D02*
D03*
X230286Y818782D02*
D03*
Y803782D02*
D03*
Y788782D02*
D03*
Y773782D02*
D03*
Y758782D02*
D03*
Y743782D02*
D03*
Y713782D02*
D03*
Y293782D02*
D03*
Y203782D02*
D03*
X215286Y818782D02*
D03*
Y803782D02*
D03*
Y788782D02*
D03*
Y773782D02*
D03*
Y758782D02*
D03*
Y743782D02*
D03*
Y713782D02*
D03*
Y203782D02*
D03*
X200286Y818782D02*
D03*
Y803782D02*
D03*
Y788782D02*
D03*
Y773782D02*
D03*
Y758782D02*
D03*
Y743782D02*
D03*
Y728782D02*
D03*
Y698782D02*
D03*
Y248782D02*
D03*
X185286Y818782D02*
D03*
Y278782D02*
D03*
X170286Y818782D02*
D03*
X155286D02*
D03*
X140286D02*
D03*
Y83782D02*
D03*
Y68782D02*
D03*
X125286Y818782D02*
D03*
Y308782D02*
D03*
Y248782D02*
D03*
Y203782D02*
D03*
Y83782D02*
D03*
Y68782D02*
D03*
Y53782D02*
D03*
X110286Y818782D02*
D03*
Y83782D02*
D03*
Y68782D02*
D03*
Y53782D02*
D03*
X95286Y818782D02*
D03*
Y308782D02*
D03*
X80286Y818782D02*
D03*
Y278782D02*
D03*
Y263782D02*
D03*
Y248782D02*
D03*
Y233782D02*
D03*
Y218782D02*
D03*
Y203782D02*
D03*
X65286Y668782D02*
D03*
Y293782D02*
D03*
Y278782D02*
D03*
Y263782D02*
D03*
Y248782D02*
D03*
Y233782D02*
D03*
Y218782D02*
D03*
Y203782D02*
D03*
Y68782D02*
D03*
Y53782D02*
D03*
X50286Y383782D02*
D03*
Y368782D02*
D03*
Y353782D02*
D03*
Y338782D02*
D03*
Y323782D02*
D03*
Y308782D02*
D03*
Y293782D02*
D03*
Y278782D02*
D03*
Y263782D02*
D03*
Y248782D02*
D03*
Y233782D02*
D03*
Y218782D02*
D03*
Y203782D02*
D03*
Y68782D02*
D03*
X619982Y371607D02*
D03*
X627811Y378714D02*
D03*
X627811Y394945D02*
D03*
X636524Y442752D02*
D03*
X586232Y447802D02*
D03*
X619760Y452882D02*
D03*
X553720Y451612D02*
D03*
X130716Y588963D02*
D03*
X373679Y588179D02*
D03*
X485140Y599660D02*
D03*
X245822Y599709D02*
D03*
X250374Y587750D02*
D03*
X492002Y587185D02*
D03*
X368998Y599156D02*
D03*
X291084Y448897D02*
D03*
X356362Y499190D02*
D03*
X130048Y603470D02*
D03*
X441960Y178399D02*
D03*
X533128Y191177D02*
D03*
X543542D02*
D03*
X389308Y142080D02*
D03*
X515832Y87842D02*
D03*
X617852Y334550D02*
D03*
X626930Y340919D02*
D03*
X612548Y347288D02*
D03*
X612153Y364500D02*
D03*
X593852Y369450D02*
D03*
X543814Y329184D02*
D03*
X538480Y379500D02*
D03*
X507245Y380038D02*
D03*
X495000Y374935D02*
D03*
X470286Y318782D02*
D03*
X305219Y36026D02*
D03*
X245000Y35560D02*
D03*
X743033Y599820D02*
D03*
Y574820D02*
D03*
X742818Y548960D02*
D03*
X475612Y448584D02*
D03*
X450752Y476676D02*
D03*
X693664Y385299D02*
D03*
Y407588D02*
D03*
X626930Y353292D02*
D03*
X458539Y229082D02*
D03*
X496952Y397442D02*
D03*
X670286Y293846D02*
D03*
X280008Y598782D02*
D03*
Y636250D02*
D03*
Y618823D02*
D03*
X260008D02*
D03*
Y636250D02*
D03*
Y599500D02*
D03*
X165000Y634630D02*
D03*
X72212Y428950D02*
D03*
X46637Y426618D02*
D03*
X72212Y441180D02*
D03*
X434876Y537750D02*
D03*
X426521D02*
D03*
X434876Y545338D02*
D03*
X316369Y537750D02*
D03*
X308015D02*
D03*
X316369Y545338D02*
D03*
X192500Y537750D02*
D03*
X184146D02*
D03*
X192500Y545338D02*
D03*
X86906Y331470D02*
D03*
X85623Y588370D02*
D03*
X205000D02*
D03*
X328869D02*
D03*
X446606Y592350D02*
D03*
X356199Y93263D02*
D03*
X298542Y103180D02*
D03*
X173759Y102992D02*
D03*
X237828Y141932D02*
D03*
X230364Y215655D02*
D03*
X210364D02*
D03*
X170753Y145212D02*
D03*
X528352Y345982D02*
D03*
X292500Y291872D02*
D03*
X321669Y333624D02*
D03*
X105879Y387561D02*
D03*
X206908Y435529D02*
D03*
X170556Y444750D02*
D03*
X142240Y423950D02*
D03*
X45142Y482910D02*
D03*
X39915Y417923D02*
D03*
X127235Y413953D02*
D03*
X141648Y353000D02*
D03*
X417529Y555503D02*
D03*
X454307Y557181D02*
D03*
X299022Y555503D02*
D03*
X335800Y557181D02*
D03*
X175153Y555503D02*
D03*
X211931Y557181D02*
D03*
X92554D02*
D03*
X55776Y555503D02*
D03*
X474876Y547500D02*
D03*
X232500Y547500D02*
D03*
X113123D02*
D03*
X356370Y547500D02*
D03*
X479566Y489000D02*
D03*
X399887Y596438D02*
D03*
X157030Y587750D02*
D03*
X45623Y595720D02*
D03*
X45623Y518319D02*
D03*
X95504Y483362D02*
D03*
X73123Y545338D02*
D03*
X64769Y537750D02*
D03*
X73123D02*
D03*
X384783Y312067D02*
D03*
X423719Y396997D02*
D03*
Y361924D02*
D03*
X467849Y347712D02*
D03*
X528352Y326343D02*
D03*
Y308552D02*
D03*
Y290795D02*
D03*
Y272970D02*
D03*
X657606Y157226D02*
D03*
X649732D02*
D03*
X212852Y387096D02*
D03*
X203932Y407887D02*
D03*
X645034Y124342D02*
D03*
X660118Y124361D02*
D03*
X660099Y136986D02*
D03*
X645016Y137004D02*
D03*
X652373Y145476D02*
D03*
X637540Y132334D02*
D03*
X525645Y116913D02*
D03*
X492432Y507537D02*
D03*
X416063Y463298D02*
D03*
X400304D02*
D03*
X486467Y499364D02*
D03*
X466376Y502750D02*
D03*
X347869D02*
D03*
X224000D02*
D03*
X104623D02*
D03*
X111252Y499364D02*
D03*
X124714D02*
D03*
X230629D02*
D03*
X243075D02*
D03*
X366945D02*
D03*
X151311Y471180D02*
D03*
X231631Y440212D02*
D03*
X406467Y411716D02*
D03*
X414676Y597720D02*
D03*
X434848Y461234D02*
D03*
X269361Y348581D02*
D03*
X416750Y344500D02*
D03*
X562533Y251714D02*
D03*
X620779Y202976D02*
D03*
X587578Y198060D02*
D03*
X347726Y142080D02*
D03*
X182784Y155190D02*
D03*
X419985Y228828D02*
D03*
X379748Y319988D02*
D03*
X295656Y257674D02*
D03*
X231648Y365715D02*
D03*
X241566Y302456D02*
D03*
X168963Y386530D02*
D03*
X252369Y208534D02*
D03*
X241566Y283711D02*
D03*
X258318Y163322D02*
D03*
X267462D02*
D03*
X273304Y153162D02*
D03*
X262890Y153416D02*
D03*
X252730D02*
D03*
X71959Y752602D02*
D03*
X81942D02*
D03*
X91925D02*
D03*
X61976D02*
D03*
X78423Y770008D02*
D03*
X88406D02*
D03*
X98389D02*
D03*
X68440D02*
D03*
X150114Y507492D02*
D03*
X515112Y391414D02*
D03*
X301752Y448897D02*
D03*
Y441745D02*
D03*
Y434594D02*
D03*
X43688Y454914D02*
D03*
X35052Y454152D02*
D03*
X36576Y441452D02*
D03*
X295656Y271526D02*
D03*
X116947Y429914D02*
D03*
X110236Y438437D02*
D03*
X101945Y404619D02*
D03*
X77216Y409799D02*
D03*
X20828Y565150D02*
D03*
X97536Y82804D02*
D03*
X588842Y87793D02*
D03*
X652089Y87630D02*
D03*
X731502Y340018D02*
D03*
X721108Y340042D02*
D03*
X538212Y200195D02*
D03*
X645668Y194056D02*
D03*
X730250Y718114D02*
D03*
X714573Y718089D02*
D03*
X730250Y705614D02*
D03*
X714573Y705589D02*
D03*
X730250Y543114D02*
D03*
X714573Y543089D02*
D03*
X400812Y250698D02*
D03*
X485050Y239522D02*
D03*
X494923Y245358D02*
D03*
X600680Y234666D02*
D03*
X607639D02*
D03*
X401959Y259283D02*
D03*
X527538Y365949D02*
D03*
X528828Y463042D02*
D03*
X544579Y458439D02*
D03*
X535419Y473170D02*
D03*
X567381Y269450D02*
D03*
X567107Y262237D02*
D03*
X379684Y245358D02*
D03*
X486925Y228828D02*
D03*
X469950D02*
D03*
X415036Y279500D02*
D03*
X387002Y271653D02*
D03*
Y281249D02*
D03*
X204767Y399895D02*
D03*
X189306Y336926D02*
D03*
X470084Y456184D02*
D03*
X395224Y406146D02*
D03*
X460327Y468299D02*
D03*
X431010Y468348D02*
D03*
X301752Y456049D02*
D03*
X450000Y425458D02*
D03*
X480152Y433384D02*
D03*
X475118Y440984D02*
D03*
X465050Y448584D02*
D03*
X421387Y290761D02*
D03*
X277000Y440672D02*
D03*
X495000Y441288D02*
D03*
X500000Y436000D02*
D03*
X681984Y473170D02*
D03*
X488920Y273050D02*
D03*
X488903Y290830D02*
D03*
X488920Y308552D02*
D03*
Y326343D02*
D03*
X663445Y633000D02*
D03*
X414670Y489000D02*
D03*
X296164D02*
D03*
X172300Y489085D02*
D03*
X208887Y378385D02*
D03*
X182880Y334772D02*
D03*
X530352Y642112D02*
D03*
X426720Y308610D02*
D03*
X423672Y326390D02*
D03*
X415036Y297942D02*
D03*
X110236Y450413D02*
D03*
X101600Y472978D02*
D03*
X81788Y478312D02*
D03*
X437655Y564917D02*
D03*
X424380Y565168D02*
D03*
X319149Y564917D02*
D03*
X305874Y565168D02*
D03*
X182004Y565168D02*
D03*
X195279Y564917D02*
D03*
X75902D02*
D03*
X407219Y565150D02*
D03*
X288713D02*
D03*
X164843Y565150D02*
D03*
X45466D02*
D03*
X62627Y565168D02*
D03*
X65812Y494188D02*
D03*
X118783Y489016D02*
D03*
X427565Y494188D02*
D03*
X309058D02*
D03*
X185189D02*
D03*
X416750Y369250D02*
D03*
X373495Y508000D02*
D03*
X348246Y517500D02*
D03*
X466753D02*
D03*
X249626Y508000D02*
D03*
X224377Y517500D02*
D03*
X492377Y554750D02*
D03*
X373871D02*
D03*
X250001Y554750D02*
D03*
X130250D02*
D03*
X130249Y508000D02*
D03*
X105000Y517500D02*
D03*
X60500Y697802D02*
D03*
X562270Y496759D02*
D03*
X671090Y586705D02*
D03*
X627022Y609098D02*
D03*
X590381Y609470D02*
D03*
X572185Y633515D02*
D03*
X654304Y488696D02*
D03*
X645281Y633196D02*
D03*
X681860D02*
D03*
X627147Y473048D02*
D03*
X671576Y518922D02*
D03*
X42440Y770008D02*
D03*
X35720Y760102D02*
D03*
X35786Y730127D02*
D03*
X42506Y740033D02*
D03*
X35588Y645122D02*
D03*
X42308Y655028D02*
D03*
X42832Y625990D02*
D03*
Y616084D02*
D03*
X749920Y458664D02*
D03*
X406654Y775716D02*
D03*
X406720Y740222D02*
D03*
Y704662D02*
D03*
Y669102D02*
D03*
X454788Y775600D02*
D03*
Y740040D02*
D03*
X446424Y704444D02*
D03*
Y668884D02*
D03*
X130735Y671237D02*
D03*
X129717Y640384D02*
D03*
X209972Y698754D02*
D03*
X249972D02*
D03*
X289972D02*
D03*
X330426D02*
D03*
X743937Y307618D02*
D03*
X760132Y458445D02*
D03*
X590720Y473135D02*
D03*
X608522D02*
D03*
X210000Y676500D02*
D03*
X250000D02*
D03*
X290000D02*
D03*
X330000D02*
D03*
X56388Y134366D02*
D03*
X580000Y676500D02*
D03*
X620000Y651500D02*
D03*
X540000Y673595D02*
D03*
Y651500D02*
D03*
X500000D02*
D03*
X547313Y546315D02*
D03*
X670344Y545689D02*
D03*
X115665Y699753D02*
D03*
X97536Y144881D02*
D03*
X124226Y689541D02*
D03*
X134647Y769500D02*
D03*
X124443Y764801D02*
D03*
X134647Y758070D02*
D03*
Y744453D02*
D03*
Y730130D02*
D03*
X97536Y103497D02*
D03*
X63424Y649948D02*
D03*
X69699Y640070D02*
D03*
X553820Y633555D02*
D03*
X185049Y222588D02*
D03*
X836321Y843614D02*
D03*
X843620Y526780D02*
D03*
X6386Y35503D02*
D03*
X843620Y586779D02*
D03*
X6386Y645502D02*
D03*
Y425503D02*
D03*
Y405503D02*
D03*
X740856Y6379D02*
D03*
X250858D02*
D03*
X460857D02*
D03*
X660857D02*
D03*
X843620Y406780D02*
D03*
X316322Y843614D02*
D03*
X26323D02*
D03*
X730856Y6379D02*
D03*
X416322Y843614D02*
D03*
X6386Y335503D02*
D03*
X400857Y6379D02*
D03*
X843620Y306780D02*
D03*
X246322Y843614D02*
D03*
X496322D02*
D03*
X6386Y715502D02*
D03*
Y385503D02*
D03*
Y255503D02*
D03*
Y835502D02*
D03*
X843620Y156780D02*
D03*
X430857Y6379D02*
D03*
X100858D02*
D03*
X736321Y843614D02*
D03*
X843620Y186780D02*
D03*
X66323Y843614D02*
D03*
X160858Y6379D02*
D03*
X6386Y545503D02*
D03*
X440857Y6379D02*
D03*
X280857D02*
D03*
X843620Y216780D02*
D03*
X396322Y843614D02*
D03*
X630857Y6379D02*
D03*
X366322Y843614D02*
D03*
X326322D02*
D03*
X6386Y305503D02*
D03*
X30858Y6379D02*
D03*
X390857D02*
D03*
X6386Y775502D02*
D03*
Y735502D02*
D03*
Y665502D02*
D03*
X470857Y6379D02*
D03*
X560857D02*
D03*
X843620Y616779D02*
D03*
X6386Y635502D02*
D03*
X126323Y843614D02*
D03*
X6386Y455503D02*
D03*
X96323Y843614D02*
D03*
X843620Y176780D02*
D03*
X6386Y355503D02*
D03*
X843620Y786779D02*
D03*
X700857Y6379D02*
D03*
X600857D02*
D03*
X716321Y843614D02*
D03*
X586322D02*
D03*
X843620Y366780D02*
D03*
Y556779D02*
D03*
X556322Y843614D02*
D03*
X610857Y6379D02*
D03*
X356322Y843614D02*
D03*
X843620Y86780D02*
D03*
X6386Y525503D02*
D03*
X670857Y6379D02*
D03*
X6386Y815502D02*
D03*
X843620Y276780D02*
D03*
Y66780D02*
D03*
X686321Y843614D02*
D03*
X826321D02*
D03*
X843620Y76780D02*
D03*
Y836779D02*
D03*
X36323Y843614D02*
D03*
X843620Y136780D02*
D03*
X6386Y285503D02*
D03*
X146323Y843614D02*
D03*
X6386Y685502D02*
D03*
X226322Y843614D02*
D03*
X310857Y6379D02*
D03*
X843620Y96780D02*
D03*
Y766779D02*
D03*
X476322Y843614D02*
D03*
X810856Y6379D02*
D03*
X843620Y636779D02*
D03*
X120858Y6379D02*
D03*
X116323Y843614D02*
D03*
X756321D02*
D03*
X6386Y325503D02*
D03*
X90858Y6379D02*
D03*
X6386Y25503D02*
D03*
X220858Y6379D02*
D03*
X843620Y386780D02*
D03*
Y426780D02*
D03*
X6386Y625502D02*
D03*
X380857Y6379D02*
D03*
X590857D02*
D03*
X12233Y843614D02*
D03*
X843620Y416780D02*
D03*
Y686779D02*
D03*
X506322Y843614D02*
D03*
X6386Y165503D02*
D03*
X843620Y316780D02*
D03*
X386322Y843614D02*
D03*
X6386Y435503D02*
D03*
X770856Y6379D02*
D03*
X320857D02*
D03*
X843620Y726779D02*
D03*
Y266780D02*
D03*
X540857Y6379D02*
D03*
X536322Y843614D02*
D03*
X170858Y6379D02*
D03*
X843620Y706779D02*
D03*
X6386Y225503D02*
D03*
X240858Y6379D02*
D03*
X6386Y125503D02*
D03*
X843620Y146780D02*
D03*
Y126780D02*
D03*
Y206780D02*
D03*
X6386Y825502D02*
D03*
Y565503D02*
D03*
X156323Y843614D02*
D03*
X136323D02*
D03*
X790856Y6379D02*
D03*
X86323Y843614D02*
D03*
X6386Y765502D02*
D03*
X290857Y6379D02*
D03*
X6386Y185503D02*
D03*
Y275503D02*
D03*
X436322Y843614D02*
D03*
X576322D02*
D03*
X286322D02*
D03*
X843620Y356780D02*
D03*
X550857Y6379D02*
D03*
X843620Y576779D02*
D03*
X746321Y843614D02*
D03*
X546322D02*
D03*
X843620Y196780D02*
D03*
X370857Y6379D02*
D03*
X426322Y843614D02*
D03*
X6386Y785502D02*
D03*
Y745502D02*
D03*
X676322Y843614D02*
D03*
X306322D02*
D03*
X276322D02*
D03*
X186322D02*
D03*
X106323D02*
D03*
X6386Y575502D02*
D03*
X843620Y646779D02*
D03*
Y776779D02*
D03*
X330857Y6379D02*
D03*
X843620Y226780D02*
D03*
Y346780D02*
D03*
Y746779D02*
D03*
X616322Y843614D02*
D03*
X376322D02*
D03*
X346322D02*
D03*
X176323D02*
D03*
X70858Y6379D02*
D03*
X6386Y615502D02*
D03*
X266322Y843614D02*
D03*
X340857Y6379D02*
D03*
X843620Y246780D02*
D03*
Y736779D02*
D03*
X110858Y6379D02*
D03*
X6386Y95503D02*
D03*
X843620Y436780D02*
D03*
X656322Y843614D02*
D03*
X480857Y6379D02*
D03*
X843620Y456780D02*
D03*
X296322Y843614D02*
D03*
X760856Y6379D02*
D03*
X510857D02*
D03*
X843620Y626779D02*
D03*
Y756779D02*
D03*
X80858Y6379D02*
D03*
X696321Y843614D02*
D03*
X46323D02*
D03*
X6386Y175503D02*
D03*
X350857Y6379D02*
D03*
X843620Y466780D02*
D03*
X776321Y843614D02*
D03*
X420857Y6379D02*
D03*
X843620Y336780D02*
D03*
X6386Y485503D02*
D03*
X843620Y166780D02*
D03*
X6386Y85503D02*
D03*
X336322Y843614D02*
D03*
X6386Y695502D02*
D03*
Y755502D02*
D03*
X486322Y843614D02*
D03*
X6386Y705502D02*
D03*
X200858Y6379D02*
D03*
X500857D02*
D03*
X6386Y585502D02*
D03*
X50858Y6379D02*
D03*
X620857D02*
D03*
X843620Y296780D02*
D03*
Y116780D02*
D03*
Y506780D02*
D03*
X726321Y843614D02*
D03*
X456322D02*
D03*
X843620Y816779D02*
D03*
Y596779D02*
D03*
X786321Y843614D02*
D03*
X636322D02*
D03*
X6386Y45504D02*
D03*
X466322Y843614D02*
D03*
X843620Y46780D02*
D03*
X490857Y6379D02*
D03*
X6386Y265503D02*
D03*
Y15504D02*
D03*
X843620Y516780D02*
D03*
X566322Y843614D02*
D03*
X166323D02*
D03*
X6386Y605502D02*
D03*
X180858Y6379D02*
D03*
X6386Y155503D02*
D03*
Y105503D02*
D03*
X843620Y36780D02*
D03*
X236322Y843614D02*
D03*
X6386Y395503D02*
D03*
Y725502D02*
D03*
Y515503D02*
D03*
Y805502D02*
D03*
Y75503D02*
D03*
X646322Y843614D02*
D03*
X6386Y135503D02*
D03*
Y145503D02*
D03*
X640857Y6379D02*
D03*
X843620Y26781D02*
D03*
X360857Y6379D02*
D03*
X6386Y445503D02*
D03*
X843620Y106780D02*
D03*
X406322Y843614D02*
D03*
X256322D02*
D03*
X6386Y365503D02*
D03*
X190858Y6379D02*
D03*
X666322Y843614D02*
D03*
X6386Y295503D02*
D03*
X843620Y396780D02*
D03*
X6386Y345503D02*
D03*
X843620Y536779D02*
D03*
X60858Y6379D02*
D03*
X843620Y666779D02*
D03*
X570857Y6379D02*
D03*
X766321Y843614D02*
D03*
X56323D02*
D03*
X6386Y505503D02*
D03*
X530857Y6379D02*
D03*
X6386Y65504D02*
D03*
X270857Y6379D02*
D03*
X196322Y843614D02*
D03*
X76323D02*
D03*
X843620Y256780D02*
D03*
X6386Y495503D02*
D03*
X843620Y286780D02*
D03*
Y326780D02*
D03*
Y376780D02*
D03*
Y446780D02*
D03*
X626322Y843614D02*
D03*
X300857Y6379D02*
D03*
X6386Y55504D02*
D03*
X690857Y6379D02*
D03*
X843620Y56780D02*
D03*
Y546779D02*
D03*
Y606779D02*
D03*
X520857Y6379D02*
D03*
X750856D02*
D03*
X843620Y826779D02*
D03*
X6386Y315503D02*
D03*
X800856Y6379D02*
D03*
X706321Y843614D02*
D03*
X40858Y6379D02*
D03*
X446322Y843614D02*
D03*
X843620Y696779D02*
D03*
X410857Y6379D02*
D03*
X206322Y843614D02*
D03*
X10860Y6560D02*
D03*
X843620Y656779D02*
D03*
Y716779D02*
D03*
X680857Y6379D02*
D03*
X6386Y555503D02*
D03*
X580857Y6379D02*
D03*
X843620Y676779D02*
D03*
X516322Y843614D02*
D03*
X140858Y6379D02*
D03*
X6386Y655502D02*
D03*
Y115503D02*
D03*
Y375503D02*
D03*
Y215503D02*
D03*
Y475503D02*
D03*
X843620Y236780D02*
D03*
X596322Y843614D02*
D03*
X6386Y245503D02*
D03*
Y235503D02*
D03*
Y415503D02*
D03*
Y675502D02*
D03*
Y205503D02*
D03*
Y195503D02*
D03*
X130858Y6379D02*
D03*
X710856D02*
D03*
X720856D02*
D03*
X843620Y486780D02*
D03*
Y496780D02*
D03*
X844804Y806704D02*
D03*
X844819Y795831D02*
D03*
X806283Y844220D02*
D03*
X795220Y844373D02*
D03*
X6021Y795118D02*
D03*
X822198Y6858D02*
D03*
X833882Y6347D02*
D03*
X842125Y8881D02*
D03*
X520359Y678786D02*
D03*
X559936Y673595D02*
D03*
X599961Y673453D02*
D03*
X639908Y679047D02*
D03*
X124675Y744453D02*
D03*
X133510Y652971D02*
D03*
X743033Y608760D02*
D03*
Y614540D02*
D03*
X742818Y558816D02*
D03*
Y564596D02*
D03*
X743033Y584034D02*
D03*
Y589814D02*
D03*
X116503Y371196D02*
D03*
X105127Y370919D02*
D03*
X105759Y355801D02*
D03*
X116101Y356075D02*
D03*
X440923Y207642D02*
D03*
X461440D02*
D03*
X471698D02*
D03*
X451181D02*
D03*
X530515Y244712D02*
D03*
X481957Y207642D02*
D03*
X492216D02*
D03*
X316484Y617982D02*
D03*
X300482Y402336D02*
D03*
X307594Y374142D02*
D03*
X302260Y348581D02*
D03*
X162052Y361007D02*
D03*
Y370749D02*
D03*
Y380492D02*
D03*
X363220Y292054D02*
D03*
Y257674D02*
D03*
X342186D02*
D03*
X461772Y291261D02*
D03*
X547116Y591820D02*
D03*
X670319Y106258D02*
D03*
X631487Y94742D02*
D03*
X613953D02*
D03*
X596169D02*
D03*
X585000Y110962D02*
D03*
X538808Y106258D02*
D03*
X625602Y197136D02*
D03*
X500508Y206724D02*
D03*
X415770Y93263D02*
D03*
X379060D02*
D03*
X328638D02*
D03*
X228577Y123190D02*
D03*
Y111760D02*
D03*
X247075Y123190D02*
D03*
Y111760D02*
D03*
X305286Y195595D02*
D03*
X187794Y184284D02*
D03*
X201590Y195595D02*
D03*
X163053Y286086D02*
D03*
X142020Y256451D02*
D03*
X45623Y512119D02*
D03*
X32258Y505206D02*
D03*
X139000Y525250D02*
D03*
X280008Y581139D02*
D03*
X227584Y616458D02*
D03*
X577054Y415045D02*
D03*
X20858Y6379D02*
D03*
X230858D02*
D03*
X6386Y595502D02*
D03*
X650857Y6379D02*
D03*
X843620Y566779D02*
D03*
X606322Y843614D02*
D03*
X780856Y6379D02*
D03*
X526322Y843614D02*
D03*
X210858Y6379D02*
D03*
X450857D02*
D03*
X150858D02*
D03*
X843620Y476780D02*
D03*
X216322Y843614D02*
D03*
X816321D02*
D03*
X6386Y465503D02*
D03*
X260857Y6379D02*
D03*
X843620Y16781D02*
D03*
X6386Y535503D02*
D03*
X268732Y500634D02*
D03*
X389367Y503443D02*
D03*
D148*
X22754Y826751D02*
D03*
X18491Y15655D02*
D03*
X833634Y15871D02*
D03*
X833850Y833093D02*
D03*
M02*
