G04*
G04 #@! TF.GenerationSoftware,Altium Limited,Altium Designer,25.4.2 (15)*
G04*
G04 Layer_Color=8388736*
%FSLAX44Y44*%
%MOMM*%
G71*
G04*
G04 #@! TF.SameCoordinates,0E94A0ED-5039-43A5-B64D-F3D2D1B9ED4A*
G04*
G04*
G04 #@! TF.FilePolarity,Negative*
G04*
G01*
G75*
%ADD24C,1.2300*%
%ADD48R,0.9500X0.9000*%
%ADD69R,1.4032X1.0032*%
G04:AMPARAMS|DCode=70|XSize=0.35mm|YSize=0.9088mm|CornerRadius=0.175mm|HoleSize=0mm|Usage=FLASHONLY|Rotation=90.000|XOffset=0mm|YOffset=0mm|HoleType=Round|Shape=RoundedRectangle|*
%AMROUNDEDRECTD70*
21,1,0.3500,0.5588,0,0,90.0*
21,1,0.0000,0.9088,0,0,90.0*
1,1,0.3500,0.2794,0.0000*
1,1,0.3500,0.2794,0.0000*
1,1,0.3500,-0.2794,0.0000*
1,1,0.3500,-0.2794,0.0000*
%
%ADD70ROUNDEDRECTD70*%
G04:AMPARAMS|DCode=71|XSize=0.35mm|YSize=0.9088mm|CornerRadius=0.175mm|HoleSize=0mm|Usage=FLASHONLY|Rotation=0.000|XOffset=0mm|YOffset=0mm|HoleType=Round|Shape=RoundedRectangle|*
%AMROUNDEDRECTD71*
21,1,0.3500,0.5588,0,0,0.0*
21,1,0.0000,0.9088,0,0,0.0*
1,1,0.3500,0.0000,-0.2794*
1,1,0.3500,0.0000,-0.2794*
1,1,0.3500,0.0000,0.2794*
1,1,0.3500,0.0000,0.2794*
%
%ADD71ROUNDEDRECTD71*%
%ADD72R,2.6960X2.6960*%
%ADD73O,0.8032X2.0032*%
%ADD74R,1.4032X0.8032*%
%ADD75O,0.4500X1.5000*%
%ADD76R,1.7524X0.9524*%
%ADD77R,3.1524X2.2524*%
G04:AMPARAMS|DCode=78|XSize=1.1532mm|YSize=1.0532mm|CornerRadius=0.3141mm|HoleSize=0mm|Usage=FLASHONLY|Rotation=90.000|XOffset=0mm|YOffset=0mm|HoleType=Round|Shape=RoundedRectangle|*
%AMROUNDEDRECTD78*
21,1,1.1532,0.4250,0,0,90.0*
21,1,0.5250,1.0532,0,0,90.0*
1,1,0.6282,0.2125,0.2625*
1,1,0.6282,0.2125,-0.2625*
1,1,0.6282,-0.2125,-0.2625*
1,1,0.6282,-0.2125,0.2625*
%
%ADD78ROUNDEDRECTD78*%
%ADD79R,0.4532X0.8532*%
%ADD80R,0.5032X0.8532*%
%ADD81R,0.8532X0.4532*%
%ADD82R,2.6032X0.5032*%
%ADD83R,0.4016X0.5516*%
%ADD84R,1.7016X1.1016*%
%ADD85R,2.0032X1.6032*%
G04:AMPARAMS|DCode=86|XSize=1.1532mm|YSize=1.0532mm|CornerRadius=0.3141mm|HoleSize=0mm|Usage=FLASHONLY|Rotation=180.000|XOffset=0mm|YOffset=0mm|HoleType=Round|Shape=RoundedRectangle|*
%AMROUNDEDRECTD86*
21,1,1.1532,0.4250,0,0,180.0*
21,1,0.5250,1.0532,0,0,180.0*
1,1,0.6282,-0.2625,0.2125*
1,1,0.6282,0.2625,0.2125*
1,1,0.6282,0.2625,-0.2125*
1,1,0.6282,-0.2625,-0.2125*
%
%ADD86ROUNDEDRECTD86*%
%ADD87R,2.0032X2.0032*%
%ADD88R,5.1032X3.1532*%
%ADD89R,1.6032X2.0032*%
G04:AMPARAMS|DCode=90|XSize=0.9032mm|YSize=2.6032mm|CornerRadius=0.1506mm|HoleSize=0mm|Usage=FLASHONLY|Rotation=0.000|XOffset=0mm|YOffset=0mm|HoleType=Round|Shape=RoundedRectangle|*
%AMROUNDEDRECTD90*
21,1,0.9032,2.3020,0,0,0.0*
21,1,0.6020,2.6032,0,0,0.0*
1,1,0.3012,0.3010,-1.1510*
1,1,0.3012,-0.3010,-1.1510*
1,1,0.3012,-0.3010,1.1510*
1,1,0.3012,0.3010,1.1510*
%
%ADD90ROUNDEDRECTD90*%
G04:AMPARAMS|DCode=91|XSize=3.4032mm|YSize=2.6032mm|CornerRadius=0.1496mm|HoleSize=0mm|Usage=FLASHONLY|Rotation=0.000|XOffset=0mm|YOffset=0mm|HoleType=Round|Shape=RoundedRectangle|*
%AMROUNDEDRECTD91*
21,1,3.4032,2.3040,0,0,0.0*
21,1,3.1040,2.6032,0,0,0.0*
1,1,0.2992,1.5520,-1.1520*
1,1,0.2992,-1.5520,-1.1520*
1,1,0.2992,-1.5520,1.1520*
1,1,0.2992,1.5520,1.1520*
%
%ADD91ROUNDEDRECTD91*%
%ADD92R,1.2032X1.7032*%
%ADD93R,1.1532X1.1032*%
%ADD94R,1.2032X1.7032*%
%ADD95R,1.1032X0.8032*%
G04:AMPARAMS|DCode=96|XSize=1.3032mm|YSize=1.5032mm|CornerRadius=0mm|HoleSize=0mm|Usage=FLASHONLY|Rotation=135.000|XOffset=0mm|YOffset=0mm|HoleType=Round|Shape=Rectangle|*
%AMROTATEDRECTD96*
4,1,4,0.9922,0.0707,-0.0707,-0.9922,-0.9922,-0.0707,0.0707,0.9922,0.9922,0.0707,0.0*
%
%ADD96ROTATEDRECTD96*%

G04:AMPARAMS|DCode=97|XSize=1.1532mm|YSize=1.0532mm|CornerRadius=0.3141mm|HoleSize=0mm|Usage=FLASHONLY|Rotation=315.000|XOffset=0mm|YOffset=0mm|HoleType=Round|Shape=RoundedRectangle|*
%AMROUNDEDRECTD97*
21,1,1.1532,0.4250,0,0,315.0*
21,1,0.5250,1.0532,0,0,315.0*
1,1,0.6282,0.0354,-0.3359*
1,1,0.6282,-0.3359,0.0354*
1,1,0.6282,-0.0354,0.3359*
1,1,0.6282,0.3359,-0.0354*
%
%ADD97ROUNDEDRECTD97*%
G04:AMPARAMS|DCode=98|XSize=1.1532mm|YSize=1.0532mm|CornerRadius=0.3141mm|HoleSize=0mm|Usage=FLASHONLY|Rotation=45.000|XOffset=0mm|YOffset=0mm|HoleType=Round|Shape=RoundedRectangle|*
%AMROUNDEDRECTD98*
21,1,1.1532,0.4250,0,0,45.0*
21,1,0.5250,1.0532,0,0,45.0*
1,1,0.6282,0.3359,0.0354*
1,1,0.6282,-0.0354,-0.3359*
1,1,0.6282,-0.3359,-0.0354*
1,1,0.6282,0.0354,0.3359*
%
%ADD98ROUNDEDRECTD98*%
%ADD99R,1.0032X1.7032*%
%ADD100R,0.9032X1.7032*%
%ADD101R,0.8532X0.5032*%
%ADD102R,0.5032X2.6032*%
%ADD103R,2.0032X2.0032*%
%ADD104R,0.5516X0.4016*%
%ADD105R,1.1016X1.7016*%
%ADD106R,1.6494X0.7604*%
%ADD107R,2.1050X1.4954*%
%ADD108R,3.3020X2.4130*%
%ADD109R,1.9050X1.0160*%
%ADD110R,1.7032X0.9032*%
%ADD111R,1.7032X1.0032*%
%ADD112R,3.1532X3.7032*%
%ADD113R,0.5194X1.7132*%
%ADD114R,1.7132X0.5194*%
%ADD115C,2.5032*%
%ADD116C,1.4612*%
%ADD117R,1.4612X1.4612*%
%ADD118C,1.5732*%
%ADD119R,1.5732X1.5732*%
%ADD120C,1.6612*%
%ADD121C,1.8032*%
%ADD122R,1.8032X1.8032*%
%ADD123C,6.2032*%
%ADD124C,1.2032*%
%ADD125C,0.6032*%
G36*
X72652Y837497D02*
X60031Y831958D01*
X36000Y840539D01*
X16444Y833556D01*
X9461Y814000D01*
X18041Y789969D01*
X12503Y777348D01*
X203Y791409D01*
X5264Y814000D01*
X203Y836591D01*
X11965Y837935D01*
Y837959D01*
X12003Y837997D01*
X12077Y837997D01*
X13409Y849797D01*
X36000Y844736D01*
X58591Y849797D01*
X72652Y837497D01*
D02*
G37*
G36*
X837941Y838035D02*
X837959D01*
X837997Y837997D01*
X837997Y837914D01*
X849803Y836551D01*
X849736Y835727D01*
X849535Y834425D01*
X847394Y824422D01*
X844868Y814000D01*
X847394Y803578D01*
X849535Y793575D01*
X849736Y792273D01*
X849803Y791449D01*
X837503Y777355D01*
X831991Y789993D01*
X840533Y814000D01*
X834066Y832174D01*
X832200Y834040D01*
X814000Y840539D01*
X789968Y831958D01*
X777348Y837496D01*
X791408Y849797D01*
X814000Y844736D01*
X836592Y849797D01*
X837941Y838035D01*
D02*
G37*
G36*
X187517Y259100D02*
X187520Y259100D01*
X187583Y259095D01*
X187646Y259091D01*
X187649Y259090D01*
X187652Y259090D01*
X188672Y258950D01*
X188675Y258949D01*
X188678Y258949D01*
X188740Y258936D01*
X188802Y258923D01*
X188805Y258922D01*
X188808Y258922D01*
X189798Y258643D01*
X189801Y258642D01*
X189804Y258641D01*
X189864Y258620D01*
X189924Y258599D01*
X189927Y258598D01*
X189930Y258596D01*
X190873Y258186D01*
X190875Y258184D01*
X190878Y258183D01*
X190934Y258154D01*
X190991Y258125D01*
X190994Y258123D01*
X190996Y258121D01*
X191874Y257586D01*
X191877Y257584D01*
X191880Y257582D01*
X191931Y257546D01*
X191983Y257509D01*
X191986Y257507D01*
X191988Y257505D01*
X192785Y256854D01*
X192787Y256852D01*
X192790Y256851D01*
X192836Y256807D01*
X192882Y256764D01*
X192884Y256761D01*
X192887Y256759D01*
X193587Y256006D01*
X193589Y256004D01*
X193591Y256001D01*
X193631Y255952D01*
X193671Y255903D01*
X193673Y255900D01*
X193675Y255898D01*
X194266Y255056D01*
X194268Y255053D01*
X194270Y255051D01*
X194303Y254995D01*
X194335Y254942D01*
X194336Y254939D01*
X194338Y254937D01*
X194809Y254022D01*
X194810Y254019D01*
X194811Y254016D01*
X194836Y253960D01*
X194862Y253900D01*
X194863Y253897D01*
X194864Y253894D01*
X195205Y252924D01*
X195206Y252921D01*
X195207Y252918D01*
X195224Y252856D01*
X195241Y252795D01*
X195242Y252792D01*
X195242Y252789D01*
X195345Y252285D01*
X195350Y252250D01*
X195357Y252215D01*
X195359Y252184D01*
X195363Y252153D01*
X195364Y252118D01*
X195366Y252082D01*
X195364Y252051D01*
X195364Y252020D01*
X195359Y251984D01*
X195357Y251949D01*
X195351Y251919D01*
X195347Y251888D01*
X195338Y251853D01*
X195331Y251818D01*
X195321Y251789D01*
X195313Y251759D01*
X195300Y251726D01*
X195288Y251692D01*
X195275Y251664D01*
X195263Y251636D01*
X195245Y251605D01*
X195229Y251573D01*
X195212Y251547D01*
X195197Y251520D01*
X195175Y251492D01*
X195155Y251462D01*
X195135Y251439D01*
X195117Y251414D01*
X195091Y251389D01*
X195068Y251362D01*
X195044Y251341D01*
X195023Y251320D01*
X194995Y251298D01*
X194967Y251274D01*
X194942Y251257D01*
X194918Y251238D01*
X194886Y251220D01*
X194857Y251200D01*
X194829Y251186D01*
X194803Y251171D01*
X194769Y251157D01*
X194737Y251141D01*
X194708Y251131D01*
X194680Y251119D01*
X194645Y251110D01*
X194611Y251098D01*
X194581Y251092D01*
X194551Y251084D01*
X194516Y251079D01*
X194481Y251072D01*
X194450Y251070D01*
X194419Y251066D01*
X194384Y251066D01*
X194348Y251063D01*
X179651Y251063D01*
X179614Y251066D01*
X179579Y251066D01*
X179549Y251070D01*
X179518Y251072D01*
X179482Y251079D01*
X179447Y251084D01*
X179418Y251092D01*
X179387Y251098D01*
X179353Y251110D01*
X179319Y251119D01*
X179291Y251131D01*
X179261Y251141D01*
X179228Y251157D01*
X179196Y251171D01*
X179170Y251186D01*
X179142Y251200D01*
X179111Y251220D01*
X179081Y251238D01*
X179057Y251257D01*
X179031Y251274D01*
X179007Y251294D01*
X179004Y251298D01*
X178976Y251320D01*
X178954Y251341D01*
X178931Y251362D01*
X178907Y251389D01*
X178882Y251414D01*
X178863Y251439D01*
X178843Y251462D01*
X178823Y251492D01*
X178801Y251520D01*
X178786Y251547D01*
X178769Y251572D01*
X178753Y251605D01*
X178735Y251636D01*
X178724Y251664D01*
X178710Y251692D01*
X178698Y251726D01*
X178685Y251759D01*
X178677Y251789D01*
X178667Y251818D01*
X178660Y251853D01*
X178651Y251888D01*
X178647Y251919D01*
X178641Y251949D01*
X178639Y251985D01*
X178634Y252020D01*
X178634Y252051D01*
X178633Y252082D01*
Y252082D01*
X178635Y252118D01*
X178635Y252153D01*
X178639Y252184D01*
X178641Y252215D01*
X178648Y252250D01*
X178653Y252285D01*
X178756Y252789D01*
X178757Y252792D01*
X178757Y252795D01*
X178774Y252856D01*
X178791Y252918D01*
X178792Y252921D01*
X178793Y252924D01*
X179135Y253894D01*
X179136Y253897D01*
X179137Y253900D01*
X179162Y253959D01*
X179187Y254016D01*
X179188Y254019D01*
X179190Y254022D01*
X179660Y254937D01*
X179662Y254939D01*
X179663Y254942D01*
X179697Y254997D01*
X179729Y255051D01*
X179731Y255053D01*
X179732Y255056D01*
X180324Y255898D01*
X180326Y255900D01*
X180327Y255903D01*
X180368Y255953D01*
X180407Y256001D01*
X180409Y256003D01*
X180411Y256006D01*
X181112Y256759D01*
X181114Y256761D01*
X181116Y256764D01*
X181164Y256808D01*
X181209Y256851D01*
X181211Y256852D01*
X181213Y256854D01*
X182010Y257505D01*
X182013Y257507D01*
X182015Y257509D01*
X182068Y257546D01*
X182119Y257582D01*
X182121Y257584D01*
X182124Y257586D01*
X183002Y258121D01*
X183005Y258123D01*
X183007Y258125D01*
X183062Y258153D01*
X183120Y258183D01*
X183123Y258184D01*
X183126Y258186D01*
X184069Y258596D01*
X184072Y258598D01*
X184074Y258599D01*
X184137Y258621D01*
X184194Y258641D01*
X184197Y258642D01*
X184200Y258643D01*
X185190Y258922D01*
X185194Y258922D01*
X185196Y258923D01*
X185258Y258936D01*
X185321Y258949D01*
X185324Y258949D01*
X185327Y258950D01*
X186346Y259090D01*
X186349Y259090D01*
X186352Y259091D01*
X186415Y259095D01*
X186479Y259100D01*
X186482Y259100D01*
X186485Y259100D01*
X187514D01*
X187517Y259100D01*
D02*
G37*
G36*
X194387Y248937D02*
X194423Y248937D01*
X194453Y248933D01*
X194484Y248931D01*
X194519Y248924D01*
X194555Y248919D01*
X194584Y248911D01*
X194614Y248905D01*
X194649Y248893D01*
X194683Y248884D01*
X194711Y248872D01*
X194741Y248862D01*
X194773Y248846D01*
X194806Y248832D01*
X194832Y248817D01*
X194860Y248803D01*
X194890Y248783D01*
X194921Y248765D01*
X194945Y248747D01*
X194971Y248729D01*
X194998Y248705D01*
X195026Y248684D01*
X195047Y248662D01*
X195071Y248642D01*
X195095Y248614D01*
X195120Y248589D01*
X195138Y248565D01*
X195159Y248542D01*
X195179Y248511D01*
X195200Y248483D01*
X195215Y248456D01*
X195233Y248431D01*
X195249Y248398D01*
X195266Y248367D01*
X195278Y248339D01*
X195292Y248311D01*
X195303Y248277D01*
X195317Y248244D01*
X195324Y248214D01*
X195334Y248185D01*
X195341Y248150D01*
X195350Y248115D01*
X195354Y248085D01*
X195360Y248055D01*
X195363Y248019D01*
X195367Y247983D01*
X195367Y247952D01*
X195369Y247922D01*
Y247922D01*
X195367Y247886D01*
X195367Y247850D01*
X195362Y247819D01*
X195360Y247789D01*
X195353Y247754D01*
X195348Y247718D01*
X195246Y247214D01*
X195245Y247211D01*
X195244Y247208D01*
X195227Y247147D01*
X195211Y247086D01*
X195209Y247083D01*
X195208Y247080D01*
X194867Y246109D01*
X194866Y246106D01*
X194865Y246104D01*
X194839Y246044D01*
X194815Y245987D01*
X194813Y245984D01*
X194812Y245981D01*
X194341Y245067D01*
X194340Y245064D01*
X194338Y245061D01*
X194305Y245006D01*
X194273Y244953D01*
X194271Y244950D01*
X194269Y244947D01*
X193678Y244106D01*
X193676Y244103D01*
X193675Y244101D01*
X193634Y244051D01*
X193595Y244002D01*
X193592Y244000D01*
X193590Y243997D01*
X192890Y243244D01*
X192888Y243242D01*
X192886Y243240D01*
X192838Y243195D01*
X192793Y243153D01*
X192791Y243151D01*
X192788Y243149D01*
X191991Y242498D01*
X191989Y242496D01*
X191987Y242494D01*
X191934Y242457D01*
X191883Y242421D01*
X191880Y242419D01*
X191878Y242418D01*
X191000Y241882D01*
X190997Y241880D01*
X190994Y241879D01*
X190939Y241850D01*
X190882Y241820D01*
X190879Y241819D01*
X190876Y241818D01*
X189933Y241407D01*
X189930Y241406D01*
X189927Y241404D01*
X189865Y241383D01*
X189807Y241362D01*
X189805Y241361D01*
X189802Y241360D01*
X188811Y241082D01*
X188808Y241081D01*
X188805Y241080D01*
X188743Y241068D01*
X188681Y241054D01*
X188678Y241054D01*
X188675Y241053D01*
X187656Y240913D01*
X187653Y240913D01*
X187650Y240912D01*
X187586Y240908D01*
X187523Y240903D01*
X187520Y240904D01*
X187517Y240903D01*
X186488D01*
X186485Y240904D01*
X186482Y240903D01*
X186418Y240908D01*
X186355Y240912D01*
X186352Y240913D01*
X186349Y240913D01*
X185330Y241053D01*
X185327Y241054D01*
X185324Y241054D01*
X185262Y241067D01*
X185200Y241080D01*
X185197Y241081D01*
X185194Y241082D01*
X184203Y241360D01*
X184200Y241361D01*
X184197Y241362D01*
X184138Y241383D01*
X184078Y241404D01*
X184075Y241406D01*
X184072Y241407D01*
X183129Y241818D01*
X183126Y241819D01*
X183123Y241820D01*
X183067Y241849D01*
X183011Y241879D01*
X183008Y241880D01*
X183005Y241882D01*
X182127Y242418D01*
X182125Y242419D01*
X182122Y242421D01*
X182070Y242458D01*
X182018Y242494D01*
X182016Y242496D01*
X182013Y242498D01*
X181217Y243149D01*
X181214Y243151D01*
X181212Y243153D01*
X181166Y243196D01*
X181119Y243240D01*
X181117Y243242D01*
X181115Y243244D01*
X180415Y243997D01*
X180413Y244000D01*
X180410Y244002D01*
X180370Y244052D01*
X180330Y244101D01*
X180329Y244103D01*
X180327Y244106D01*
X179736Y244947D01*
X179734Y244950D01*
X179732Y244953D01*
X179699Y245008D01*
X179666Y245061D01*
X179665Y245064D01*
X179664Y245067D01*
X179193Y245981D01*
X179192Y245984D01*
X179190Y245987D01*
X179166Y246043D01*
X179140Y246104D01*
X179139Y246107D01*
X179138Y246109D01*
X178796Y247080D01*
X178796Y247083D01*
X178794Y247086D01*
X178778Y247147D01*
X178761Y247208D01*
X178760Y247211D01*
X178759Y247214D01*
X178656Y247718D01*
X178652Y247754D01*
X178645Y247789D01*
X178643Y247819D01*
X178638Y247850D01*
X178638Y247886D01*
X178636Y247922D01*
X178638Y247952D01*
X178638Y247983D01*
X178642Y248019D01*
X178645Y248055D01*
X178650Y248085D01*
X178654Y248115D01*
X178664Y248150D01*
X178671Y248185D01*
X178680Y248214D01*
X178688Y248244D01*
X178702Y248277D01*
X178713Y248311D01*
X178727Y248339D01*
X178739Y248367D01*
X178756Y248398D01*
X178772Y248431D01*
X178789Y248456D01*
X178804Y248483D01*
X178826Y248512D01*
X178846Y248541D01*
X178866Y248564D01*
X178885Y248589D01*
X178910Y248615D01*
X178934Y248642D01*
X178957Y248662D01*
X178979Y248684D01*
X179007Y248706D01*
X179034Y248729D01*
X179060Y248746D01*
X179084Y248765D01*
X179115Y248784D01*
X179145Y248803D01*
X179172Y248817D01*
X179199Y248832D01*
X179232Y248846D01*
X179264Y248862D01*
X179293Y248872D01*
X179322Y248884D01*
X179357Y248894D01*
X179390Y248905D01*
X179421Y248911D01*
X179450Y248919D01*
X179486Y248924D01*
X179521Y248931D01*
X179552Y248933D01*
X179582Y248937D01*
X179618Y248937D01*
X179654Y248940D01*
X194351Y248940D01*
X194387Y248937D01*
D02*
G37*
G36*
X444450Y171020D02*
X444470D01*
X444500Y171010D01*
X444520D01*
X444550Y171000D01*
X444570Y170990D01*
X444600Y170980D01*
X444620Y170960D01*
X444640Y170950D01*
X444660Y170930D01*
X444680Y170920D01*
X444700Y170900D01*
X444720Y170880D01*
X444740Y170860D01*
X444760Y170840D01*
X444770Y170820D01*
X444790Y170800D01*
X444800Y170780D01*
X444820Y170760D01*
X444830Y170730D01*
X444840Y170710D01*
X444850Y170680D01*
Y170660D01*
X444860Y170630D01*
Y170610D01*
X444870Y170580D01*
Y154580D01*
X444860Y154550D01*
Y154530D01*
X444850Y154500D01*
Y154480D01*
X444840Y154450D01*
X444830Y154430D01*
X444820Y154400D01*
X444800Y154380D01*
X444790Y154360D01*
X444770Y154340D01*
X444760Y154320D01*
X444740Y154300D01*
X444720Y154280D01*
X444700Y154260D01*
X444680Y154240D01*
X444660Y154230D01*
X444640Y154210D01*
X444620Y154200D01*
X444600Y154180D01*
X444570Y154170D01*
X444550Y154160D01*
X444520Y154150D01*
X444500D01*
X444470Y154140D01*
X444450D01*
X444420Y154130D01*
X437920D01*
X437890Y154140D01*
X437870D01*
X437840Y154150D01*
X437820D01*
X437790Y154160D01*
X437770Y154170D01*
X437740Y154180D01*
X437720Y154200D01*
X437700Y154210D01*
X437680Y154230D01*
X437660Y154240D01*
X437640Y154260D01*
X437620Y154280D01*
X437600Y154300D01*
X437580Y154320D01*
X437570Y154340D01*
X437550Y154360D01*
X437540Y154380D01*
X437520Y154400D01*
X437510Y154430D01*
X437500Y154450D01*
X437490Y154480D01*
Y154500D01*
X437480Y154530D01*
Y154550D01*
X437470Y154580D01*
Y170580D01*
X437480Y170610D01*
Y170630D01*
X437490Y170660D01*
Y170680D01*
X437500Y170710D01*
X437510Y170730D01*
X437520Y170760D01*
X437540Y170780D01*
X437550Y170800D01*
X437570Y170820D01*
X437580Y170840D01*
X437600Y170860D01*
X437620Y170880D01*
X437640Y170900D01*
X437660Y170920D01*
X437680Y170930D01*
X437700Y170950D01*
X437720Y170960D01*
X437740Y170980D01*
X437770Y170990D01*
X437790Y171000D01*
X437820Y171010D01*
X437840D01*
X437870Y171020D01*
X437890D01*
X437920Y171030D01*
X444420D01*
X444450Y171020D01*
D02*
G37*
G36*
X431750D02*
X431770D01*
X431800Y171010D01*
X431820D01*
X431850Y171000D01*
X431870Y170990D01*
X431900Y170980D01*
X431920Y170960D01*
X431940Y170950D01*
X431960Y170930D01*
X431980Y170920D01*
X432000Y170900D01*
X432020Y170880D01*
X432040Y170860D01*
X432060Y170840D01*
X432070Y170820D01*
X432090Y170800D01*
X432100Y170780D01*
X432120Y170760D01*
X432130Y170730D01*
X432140Y170710D01*
X432150Y170680D01*
Y170660D01*
X432160Y170630D01*
Y170610D01*
X432170Y170580D01*
Y154580D01*
X432160Y154550D01*
Y154530D01*
X432150Y154500D01*
Y154480D01*
X432140Y154450D01*
X432130Y154430D01*
X432120Y154400D01*
X432100Y154380D01*
X432090Y154360D01*
X432070Y154340D01*
X432060Y154320D01*
X432040Y154300D01*
X432020Y154280D01*
X432000Y154260D01*
X431980Y154240D01*
X431960Y154230D01*
X431940Y154210D01*
X431920Y154200D01*
X431900Y154180D01*
X431870Y154170D01*
X431850Y154160D01*
X431820Y154150D01*
X431800D01*
X431770Y154140D01*
X431750D01*
X431720Y154130D01*
X425220D01*
X425190Y154140D01*
X425170D01*
X425140Y154150D01*
X425120D01*
X425090Y154160D01*
X425070Y154170D01*
X425040Y154180D01*
X425020Y154200D01*
X425000Y154210D01*
X424980Y154230D01*
X424960Y154240D01*
X424940Y154260D01*
X424920Y154280D01*
X424900Y154300D01*
X424880Y154320D01*
X424870Y154340D01*
X424850Y154360D01*
X424840Y154380D01*
X424820Y154400D01*
X424810Y154430D01*
X424800Y154450D01*
X424790Y154480D01*
Y154500D01*
X424780Y154530D01*
Y154550D01*
X424770Y154580D01*
Y170580D01*
X424780Y170610D01*
Y170630D01*
X424790Y170660D01*
Y170680D01*
X424800Y170710D01*
X424810Y170730D01*
X424820Y170760D01*
X424840Y170780D01*
X424850Y170800D01*
X424870Y170820D01*
X424880Y170840D01*
X424900Y170860D01*
X424920Y170880D01*
X424940Y170900D01*
X424960Y170920D01*
X424980Y170930D01*
X425000Y170950D01*
X425020Y170960D01*
X425040Y170980D01*
X425070Y170990D01*
X425090Y171000D01*
X425120Y171010D01*
X425140D01*
X425170Y171020D01*
X425190D01*
X425220Y171030D01*
X431720D01*
X431750Y171020D01*
D02*
G37*
G36*
X419050D02*
X419070D01*
X419100Y171010D01*
X419120D01*
X419150Y171000D01*
X419170Y170990D01*
X419200Y170980D01*
X419220Y170960D01*
X419240Y170950D01*
X419260Y170930D01*
X419280Y170920D01*
X419300Y170900D01*
X419320Y170880D01*
X419340Y170860D01*
X419360Y170840D01*
X419370Y170820D01*
X419390Y170800D01*
X419400Y170780D01*
X419420Y170760D01*
X419430Y170730D01*
X419440Y170710D01*
X419450Y170680D01*
Y170660D01*
X419460Y170630D01*
Y170610D01*
X419470Y170580D01*
Y154580D01*
X419460Y154550D01*
Y154530D01*
X419450Y154500D01*
Y154480D01*
X419440Y154450D01*
X419430Y154430D01*
X419420Y154400D01*
X419400Y154380D01*
X419390Y154360D01*
X419370Y154340D01*
X419360Y154320D01*
X419340Y154300D01*
X419320Y154280D01*
X419300Y154260D01*
X419280Y154240D01*
X419260Y154230D01*
X419240Y154210D01*
X419220Y154200D01*
X419200Y154180D01*
X419170Y154170D01*
X419150Y154160D01*
X419120Y154150D01*
X419100D01*
X419070Y154140D01*
X419050D01*
X419020Y154130D01*
X412520D01*
X412490Y154140D01*
X412470D01*
X412440Y154150D01*
X412420D01*
X412390Y154160D01*
X412370Y154170D01*
X412340Y154180D01*
X412320Y154200D01*
X412300Y154210D01*
X412280Y154230D01*
X412260Y154240D01*
X412240Y154260D01*
X412220Y154280D01*
X412200Y154300D01*
X412180Y154320D01*
X412170Y154340D01*
X412150Y154360D01*
X412140Y154380D01*
X412120Y154400D01*
X412110Y154430D01*
X412100Y154450D01*
X412090Y154480D01*
Y154500D01*
X412080Y154530D01*
Y154550D01*
X412070Y154580D01*
Y170580D01*
X412080Y170610D01*
Y170630D01*
X412090Y170660D01*
Y170680D01*
X412100Y170710D01*
X412110Y170730D01*
X412120Y170760D01*
X412140Y170780D01*
X412150Y170800D01*
X412170Y170820D01*
X412180Y170840D01*
X412200Y170860D01*
X412220Y170880D01*
X412240Y170900D01*
X412260Y170920D01*
X412280Y170930D01*
X412300Y170950D01*
X412320Y170960D01*
X412340Y170980D01*
X412370Y170990D01*
X412390Y171000D01*
X412420Y171010D01*
X412440D01*
X412470Y171020D01*
X412490D01*
X412520Y171030D01*
X419020D01*
X419050Y171020D01*
D02*
G37*
G36*
X406350D02*
X406370D01*
X406400Y171010D01*
X406420D01*
X406450Y171000D01*
X406470Y170990D01*
X406500Y170980D01*
X406520Y170960D01*
X406540Y170950D01*
X406560Y170930D01*
X406580Y170920D01*
X406600Y170900D01*
X406620Y170880D01*
X406640Y170860D01*
X406660Y170840D01*
X406670Y170820D01*
X406690Y170800D01*
X406700Y170780D01*
X406720Y170760D01*
X406730Y170730D01*
X406740Y170710D01*
X406750Y170680D01*
Y170660D01*
X406760Y170630D01*
Y170610D01*
X406770Y170580D01*
Y154580D01*
X406760Y154550D01*
Y154530D01*
X406750Y154500D01*
Y154480D01*
X406740Y154450D01*
X406730Y154430D01*
X406720Y154400D01*
X406700Y154380D01*
X406690Y154360D01*
X406670Y154340D01*
X406660Y154320D01*
X406640Y154300D01*
X406620Y154280D01*
X406600Y154260D01*
X406580Y154240D01*
X406560Y154230D01*
X406540Y154210D01*
X406520Y154200D01*
X406500Y154180D01*
X406470Y154170D01*
X406450Y154160D01*
X406420Y154150D01*
X406400D01*
X406370Y154140D01*
X406350D01*
X406320Y154130D01*
X399820D01*
X399790Y154140D01*
X399770D01*
X399740Y154150D01*
X399720D01*
X399690Y154160D01*
X399670Y154170D01*
X399640Y154180D01*
X399620Y154200D01*
X399600Y154210D01*
X399580Y154230D01*
X399560Y154240D01*
X399540Y154260D01*
X399520Y154280D01*
X399500Y154300D01*
X399480Y154320D01*
X399470Y154340D01*
X399450Y154360D01*
X399440Y154380D01*
X399420Y154400D01*
X399410Y154430D01*
X399400Y154450D01*
X399390Y154480D01*
Y154500D01*
X399380Y154530D01*
Y154550D01*
X399370Y154580D01*
Y170580D01*
X399380Y170610D01*
Y170630D01*
X399390Y170660D01*
Y170680D01*
X399400Y170710D01*
X399410Y170730D01*
X399420Y170760D01*
X399440Y170780D01*
X399450Y170800D01*
X399470Y170820D01*
X399480Y170840D01*
X399500Y170860D01*
X399520Y170880D01*
X399540Y170900D01*
X399560Y170920D01*
X399580Y170930D01*
X399600Y170950D01*
X399620Y170960D01*
X399640Y170980D01*
X399670Y170990D01*
X399690Y171000D01*
X399720Y171010D01*
X399740D01*
X399770Y171020D01*
X399790D01*
X399820Y171030D01*
X406320D01*
X406350Y171020D01*
D02*
G37*
G36*
X437620Y122580D02*
X406620D01*
Y148580D01*
X437620D01*
Y122580D01*
D02*
G37*
G36*
X444450Y117020D02*
X444470D01*
X444500Y117010D01*
X444520D01*
X444550Y117000D01*
X444570Y116990D01*
X444600Y116980D01*
X444620Y116960D01*
X444640Y116950D01*
X444660Y116930D01*
X444680Y116920D01*
X444700Y116900D01*
X444720Y116880D01*
X444740Y116860D01*
X444760Y116840D01*
X444770Y116820D01*
X444790Y116800D01*
X444800Y116780D01*
X444820Y116760D01*
X444830Y116730D01*
X444840Y116710D01*
X444850Y116680D01*
Y116660D01*
X444860Y116630D01*
Y116610D01*
X444870Y116580D01*
Y100580D01*
X444860Y100550D01*
Y100530D01*
X444850Y100500D01*
Y100480D01*
X444840Y100450D01*
X444830Y100430D01*
X444820Y100400D01*
X444800Y100380D01*
X444790Y100360D01*
X444770Y100340D01*
X444760Y100320D01*
X444740Y100300D01*
X444720Y100280D01*
X444700Y100260D01*
X444680Y100240D01*
X444660Y100230D01*
X444640Y100210D01*
X444620Y100200D01*
X444600Y100180D01*
X444570Y100170D01*
X444550Y100160D01*
X444520Y100150D01*
X444500D01*
X444470Y100140D01*
X444450D01*
X444420Y100130D01*
X437920D01*
X437890Y100140D01*
X437870D01*
X437840Y100150D01*
X437820D01*
X437790Y100160D01*
X437770Y100170D01*
X437740Y100180D01*
X437720Y100200D01*
X437700Y100210D01*
X437680Y100230D01*
X437660Y100240D01*
X437640Y100260D01*
X437620Y100280D01*
X437600Y100300D01*
X437580Y100320D01*
X437570Y100340D01*
X437550Y100360D01*
X437540Y100380D01*
X437520Y100400D01*
X437510Y100430D01*
X437500Y100450D01*
X437490Y100480D01*
Y100500D01*
X437480Y100530D01*
Y100550D01*
X437470Y100580D01*
Y116580D01*
X437480Y116610D01*
Y116630D01*
X437490Y116660D01*
Y116680D01*
X437500Y116710D01*
X437510Y116730D01*
X437520Y116760D01*
X437540Y116780D01*
X437550Y116800D01*
X437570Y116820D01*
X437580Y116840D01*
X437600Y116860D01*
X437620Y116880D01*
X437640Y116900D01*
X437660Y116920D01*
X437680Y116930D01*
X437700Y116950D01*
X437720Y116960D01*
X437740Y116980D01*
X437770Y116990D01*
X437790Y117000D01*
X437820Y117010D01*
X437840D01*
X437870Y117020D01*
X437890D01*
X437920Y117030D01*
X444420D01*
X444450Y117020D01*
D02*
G37*
G36*
X431750D02*
X431770D01*
X431800Y117010D01*
X431820D01*
X431850Y117000D01*
X431870Y116990D01*
X431900Y116980D01*
X431920Y116960D01*
X431940Y116950D01*
X431960Y116930D01*
X431980Y116920D01*
X432000Y116900D01*
X432020Y116880D01*
X432040Y116860D01*
X432060Y116840D01*
X432070Y116820D01*
X432090Y116800D01*
X432100Y116780D01*
X432120Y116760D01*
X432130Y116730D01*
X432140Y116710D01*
X432150Y116680D01*
Y116660D01*
X432160Y116630D01*
Y116610D01*
X432170Y116580D01*
Y100580D01*
X432160Y100550D01*
Y100530D01*
X432150Y100500D01*
Y100480D01*
X432140Y100450D01*
X432130Y100430D01*
X432120Y100400D01*
X432100Y100380D01*
X432090Y100360D01*
X432070Y100340D01*
X432060Y100320D01*
X432040Y100300D01*
X432020Y100280D01*
X432000Y100260D01*
X431980Y100240D01*
X431960Y100230D01*
X431940Y100210D01*
X431920Y100200D01*
X431900Y100180D01*
X431870Y100170D01*
X431850Y100160D01*
X431820Y100150D01*
X431800D01*
X431770Y100140D01*
X431750D01*
X431720Y100130D01*
X425220D01*
X425190Y100140D01*
X425170D01*
X425140Y100150D01*
X425120D01*
X425090Y100160D01*
X425070Y100170D01*
X425040Y100180D01*
X425020Y100200D01*
X425000Y100210D01*
X424980Y100230D01*
X424960Y100240D01*
X424940Y100260D01*
X424920Y100280D01*
X424900Y100300D01*
X424880Y100320D01*
X424870Y100340D01*
X424850Y100360D01*
X424840Y100380D01*
X424820Y100400D01*
X424810Y100430D01*
X424800Y100450D01*
X424790Y100480D01*
Y100500D01*
X424780Y100530D01*
Y100550D01*
X424770Y100580D01*
Y116580D01*
X424780Y116610D01*
Y116630D01*
X424790Y116660D01*
Y116680D01*
X424800Y116710D01*
X424810Y116730D01*
X424820Y116760D01*
X424840Y116780D01*
X424850Y116800D01*
X424870Y116820D01*
X424880Y116840D01*
X424900Y116860D01*
X424920Y116880D01*
X424940Y116900D01*
X424960Y116920D01*
X424980Y116930D01*
X425000Y116950D01*
X425020Y116960D01*
X425040Y116980D01*
X425070Y116990D01*
X425090Y117000D01*
X425120Y117010D01*
X425140D01*
X425170Y117020D01*
X425190D01*
X425220Y117030D01*
X431720D01*
X431750Y117020D01*
D02*
G37*
G36*
X419050D02*
X419070D01*
X419100Y117010D01*
X419120D01*
X419150Y117000D01*
X419170Y116990D01*
X419200Y116980D01*
X419220Y116960D01*
X419240Y116950D01*
X419260Y116930D01*
X419280Y116920D01*
X419300Y116900D01*
X419320Y116880D01*
X419340Y116860D01*
X419360Y116840D01*
X419370Y116820D01*
X419390Y116800D01*
X419400Y116780D01*
X419420Y116760D01*
X419430Y116730D01*
X419440Y116710D01*
X419450Y116680D01*
Y116660D01*
X419460Y116630D01*
Y116610D01*
X419470Y116580D01*
Y100580D01*
X419460Y100550D01*
Y100530D01*
X419450Y100500D01*
Y100480D01*
X419440Y100450D01*
X419430Y100430D01*
X419420Y100400D01*
X419400Y100380D01*
X419390Y100360D01*
X419370Y100340D01*
X419360Y100320D01*
X419340Y100300D01*
X419320Y100280D01*
X419300Y100260D01*
X419280Y100240D01*
X419260Y100230D01*
X419240Y100210D01*
X419220Y100200D01*
X419200Y100180D01*
X419170Y100170D01*
X419150Y100160D01*
X419120Y100150D01*
X419100D01*
X419070Y100140D01*
X419050D01*
X419020Y100130D01*
X412520D01*
X412490Y100140D01*
X412470D01*
X412440Y100150D01*
X412420D01*
X412390Y100160D01*
X412370Y100170D01*
X412340Y100180D01*
X412320Y100200D01*
X412300Y100210D01*
X412280Y100230D01*
X412260Y100240D01*
X412240Y100260D01*
X412220Y100280D01*
X412200Y100300D01*
X412180Y100320D01*
X412170Y100340D01*
X412150Y100360D01*
X412140Y100380D01*
X412120Y100400D01*
X412110Y100430D01*
X412100Y100450D01*
X412090Y100480D01*
Y100500D01*
X412080Y100530D01*
Y100550D01*
X412070Y100580D01*
Y116580D01*
X412080Y116610D01*
Y116630D01*
X412090Y116660D01*
Y116680D01*
X412100Y116710D01*
X412110Y116730D01*
X412120Y116760D01*
X412140Y116780D01*
X412150Y116800D01*
X412170Y116820D01*
X412180Y116840D01*
X412200Y116860D01*
X412220Y116880D01*
X412240Y116900D01*
X412260Y116920D01*
X412280Y116930D01*
X412300Y116950D01*
X412320Y116960D01*
X412340Y116980D01*
X412370Y116990D01*
X412390Y117000D01*
X412420Y117010D01*
X412440D01*
X412470Y117020D01*
X412490D01*
X412520Y117030D01*
X419020D01*
X419050Y117020D01*
D02*
G37*
G36*
X406350D02*
X406370D01*
X406400Y117010D01*
X406420D01*
X406450Y117000D01*
X406470Y116990D01*
X406500Y116980D01*
X406520Y116960D01*
X406540Y116950D01*
X406560Y116930D01*
X406580Y116920D01*
X406600Y116900D01*
X406620Y116880D01*
X406640Y116860D01*
X406660Y116840D01*
X406670Y116820D01*
X406690Y116800D01*
X406700Y116780D01*
X406720Y116760D01*
X406730Y116730D01*
X406740Y116710D01*
X406750Y116680D01*
Y116660D01*
X406760Y116630D01*
Y116610D01*
X406770Y116580D01*
Y100580D01*
X406760Y100550D01*
Y100530D01*
X406750Y100500D01*
Y100480D01*
X406740Y100450D01*
X406730Y100430D01*
X406720Y100400D01*
X406700Y100380D01*
X406690Y100360D01*
X406670Y100340D01*
X406660Y100320D01*
X406640Y100300D01*
X406620Y100280D01*
X406600Y100260D01*
X406580Y100240D01*
X406560Y100230D01*
X406540Y100210D01*
X406520Y100200D01*
X406500Y100180D01*
X406470Y100170D01*
X406450Y100160D01*
X406420Y100150D01*
X406400D01*
X406370Y100140D01*
X406350D01*
X406320Y100130D01*
X399820D01*
X399790Y100140D01*
X399770D01*
X399740Y100150D01*
X399720D01*
X399690Y100160D01*
X399670Y100170D01*
X399640Y100180D01*
X399620Y100200D01*
X399600Y100210D01*
X399580Y100230D01*
X399560Y100240D01*
X399540Y100260D01*
X399520Y100280D01*
X399500Y100300D01*
X399480Y100320D01*
X399470Y100340D01*
X399450Y100360D01*
X399440Y100380D01*
X399420Y100400D01*
X399410Y100430D01*
X399400Y100450D01*
X399390Y100480D01*
Y100500D01*
X399380Y100530D01*
Y100550D01*
X399370Y100580D01*
Y116580D01*
X399380Y116610D01*
Y116630D01*
X399390Y116660D01*
Y116680D01*
X399400Y116710D01*
X399410Y116730D01*
X399420Y116760D01*
X399440Y116780D01*
X399450Y116800D01*
X399470Y116820D01*
X399480Y116840D01*
X399500Y116860D01*
X399520Y116880D01*
X399540Y116900D01*
X399560Y116920D01*
X399580Y116930D01*
X399600Y116950D01*
X399620Y116960D01*
X399640Y116980D01*
X399670Y116990D01*
X399690Y117000D01*
X399720Y117010D01*
X399740D01*
X399770Y117020D01*
X399790D01*
X399820Y117030D01*
X406320D01*
X406350Y117020D01*
D02*
G37*
G36*
X849803Y58551D02*
X849736Y57728D01*
X849535Y56425D01*
X847394Y46423D01*
X844868Y36000D01*
X847394Y25577D01*
X849535Y15575D01*
X849736Y14272D01*
X849803Y13449D01*
X838035Y12060D01*
Y12041D01*
X837997Y12003D01*
X837563Y12004D01*
X837503Y11997D01*
X837502Y12004D01*
X833882Y12011D01*
Y197D01*
X832684Y268D01*
X831117Y480D01*
X826880Y1330D01*
X817765Y3667D01*
X813304Y4963D01*
X803579Y2606D01*
X793576Y465D01*
X792274Y264D01*
X791450Y197D01*
X777356Y12497D01*
X789994Y18008D01*
X813976Y9476D01*
X832717Y14242D01*
X832832Y14357D01*
X840533Y36000D01*
X831990Y60007D01*
X837503Y72645D01*
X849803Y58551D01*
D02*
G37*
G36*
X18041Y60031D02*
X9461Y36000D01*
X16451Y16423D01*
X36000Y9467D01*
X60007Y18009D01*
X72644Y12497D01*
X58550Y197D01*
X57727Y264D01*
X56424Y465D01*
X46422Y2606D01*
X36000Y5132D01*
X25578Y2606D01*
X15576Y465D01*
X14273Y264D01*
X13450Y197D01*
X12066Y11965D01*
X12041D01*
X12003Y12003D01*
X12003Y12079D01*
X203Y13410D01*
X5264Y36000D01*
X203Y58590D01*
X12503Y72652D01*
X18041Y60031D01*
D02*
G37*
D24*
X12003Y843647D02*
G03*
X6353Y838009I0J-5650D01*
G01*
X6353Y11997D02*
G03*
X11991Y6347I5650J0D01*
G01*
X838003Y6347D02*
G03*
X843653Y11984I0J5650D01*
G01*
X843653Y837997D02*
G03*
X838020Y843646I-5650J0D01*
G01*
X6353Y12022D02*
X6353Y837997D01*
X12021Y843647D02*
X838003Y843646D01*
X843653Y11997D02*
X843653Y837971D01*
X12003Y6347D02*
X140858D01*
X150858Y6347D01*
X200858D01*
X230858D01*
X370857D01*
X420857D01*
X430857Y6347D01*
X510857D01*
X560857D01*
X620857D01*
X690857D01*
X700857Y6347D01*
X833882D01*
X837978D01*
D48*
X415084Y669138D02*
D03*
Y704698D02*
D03*
Y740258D02*
D03*
Y775818D02*
D03*
D69*
X149300Y60960D02*
D03*
X79300D02*
D03*
D70*
X454307Y525250D02*
D03*
X415445D02*
D03*
Y530250D02*
D03*
Y535250D02*
D03*
Y540250D02*
D03*
Y545250D02*
D03*
Y550250D02*
D03*
X454307D02*
D03*
Y545250D02*
D03*
Y540250D02*
D03*
Y535250D02*
D03*
Y530250D02*
D03*
X335800D02*
D03*
Y535250D02*
D03*
Y540250D02*
D03*
Y545250D02*
D03*
Y550250D02*
D03*
X296938D02*
D03*
Y545250D02*
D03*
Y540250D02*
D03*
Y535250D02*
D03*
Y530250D02*
D03*
Y525250D02*
D03*
X335800D02*
D03*
X211931Y525250D02*
D03*
X173069D02*
D03*
Y530250D02*
D03*
Y535250D02*
D03*
Y540250D02*
D03*
Y545250D02*
D03*
Y550250D02*
D03*
X211931D02*
D03*
Y545250D02*
D03*
Y540250D02*
D03*
Y535250D02*
D03*
Y530250D02*
D03*
X92554D02*
D03*
Y535250D02*
D03*
Y540250D02*
D03*
Y545250D02*
D03*
Y550250D02*
D03*
X53692D02*
D03*
Y545250D02*
D03*
Y540250D02*
D03*
Y535250D02*
D03*
Y530250D02*
D03*
Y525250D02*
D03*
X92554D02*
D03*
D71*
X447376Y518319D02*
D03*
X442376D02*
D03*
X437376D02*
D03*
X432376D02*
D03*
X427376D02*
D03*
X422376D02*
D03*
Y557181D02*
D03*
X427376D02*
D03*
X432376D02*
D03*
X437376D02*
D03*
X442376D02*
D03*
X447376D02*
D03*
X328869D02*
D03*
X323870D02*
D03*
X318869D02*
D03*
X313869D02*
D03*
X308869D02*
D03*
X303869D02*
D03*
Y518319D02*
D03*
X308869D02*
D03*
X313869D02*
D03*
X318869D02*
D03*
X323870D02*
D03*
X328869D02*
D03*
X205000Y518319D02*
D03*
X200000D02*
D03*
X195000D02*
D03*
X190000D02*
D03*
X185000D02*
D03*
X180000D02*
D03*
Y557181D02*
D03*
X185000D02*
D03*
X190000D02*
D03*
X195000D02*
D03*
X200000D02*
D03*
X205000D02*
D03*
X85623D02*
D03*
X80623D02*
D03*
X75623D02*
D03*
X70623D02*
D03*
X65623D02*
D03*
X60623D02*
D03*
Y518319D02*
D03*
X65623D02*
D03*
X70623D02*
D03*
X75623D02*
D03*
X80623D02*
D03*
X85623D02*
D03*
D72*
X434876Y537750D02*
D03*
X316369D02*
D03*
X192500Y537750D02*
D03*
X73123D02*
D03*
D73*
X645160Y525565D02*
D03*
X632460D02*
D03*
Y582065D02*
D03*
X619760Y525565D02*
D03*
X657860Y582065D02*
D03*
X645160D02*
D03*
X657860Y525565D02*
D03*
X619760Y582065D02*
D03*
X572770Y582065D02*
D03*
X585470D02*
D03*
X560070Y525565D02*
D03*
X572770D02*
D03*
X598170Y582065D02*
D03*
X585470Y525565D02*
D03*
X560070Y582065D02*
D03*
X598170Y525565D02*
D03*
D74*
X175315Y276586D02*
D03*
X198315D02*
D03*
Y286086D02*
D03*
Y295586D02*
D03*
X175315D02*
D03*
Y286086D02*
D03*
D75*
X195806Y321999D02*
D03*
X176306Y362999D02*
D03*
Y321999D02*
D03*
X189306Y362999D02*
D03*
X182806D02*
D03*
X189306Y321999D02*
D03*
X182806D02*
D03*
X195806Y362999D02*
D03*
Y468524D02*
D03*
X182806Y427524D02*
D03*
X189306D02*
D03*
X182806Y468524D02*
D03*
X189306D02*
D03*
X176306Y427524D02*
D03*
Y468524D02*
D03*
X195806Y427524D02*
D03*
D76*
X726000Y440000D02*
D03*
Y427500D02*
D03*
Y415000D02*
D03*
Y402500D02*
D03*
Y390000D02*
D03*
Y377500D02*
D03*
Y365000D02*
D03*
Y340000D02*
D03*
Y352500D02*
D03*
Y543100D02*
D03*
Y705600D02*
D03*
Y693100D02*
D03*
Y680600D02*
D03*
Y668100D02*
D03*
Y655600D02*
D03*
Y630600D02*
D03*
Y643100D02*
D03*
Y593100D02*
D03*
Y580600D02*
D03*
Y568100D02*
D03*
Y555600D02*
D03*
Y618100D02*
D03*
Y605600D02*
D03*
Y718100D02*
D03*
D77*
X755000Y314500D02*
D03*
Y465500D02*
D03*
Y743600D02*
D03*
Y517600D02*
D03*
D78*
X277000Y375363D02*
D03*
X292500D02*
D03*
X277000Y428700D02*
D03*
X292500D02*
D03*
X292500Y411157D02*
D03*
X277000D02*
D03*
X216131Y246221D02*
D03*
X231631D02*
D03*
X216131Y264966D02*
D03*
X231631D02*
D03*
X216131Y283711D02*
D03*
X231631D02*
D03*
X216131Y302456D02*
D03*
X231631D02*
D03*
X216131Y321201D02*
D03*
X231631D02*
D03*
X216131Y339946D02*
D03*
X231631D02*
D03*
X216131Y358691D02*
D03*
X231631D02*
D03*
Y377436D02*
D03*
X216131D02*
D03*
X231631Y396181D02*
D03*
X216131D02*
D03*
Y414926D02*
D03*
X231631D02*
D03*
X216131Y433671D02*
D03*
X231631D02*
D03*
X216131Y452417D02*
D03*
X231631D02*
D03*
X216131Y471162D02*
D03*
X231631D02*
D03*
X277000Y305829D02*
D03*
X292500D02*
D03*
X292500Y322686D02*
D03*
X277000D02*
D03*
X292500Y357803D02*
D03*
X277000D02*
D03*
X277000Y340946D02*
D03*
X292500D02*
D03*
X277000Y392906D02*
D03*
X292500D02*
D03*
X584750Y396322D02*
D03*
X600250D02*
D03*
X584750Y415000D02*
D03*
X600250D02*
D03*
X584750Y377645D02*
D03*
X600250D02*
D03*
X701345Y440137D02*
D03*
X685845D02*
D03*
X701345Y418295D02*
D03*
X685845D02*
D03*
X701345Y396452D02*
D03*
X685845D02*
D03*
X701345Y374610D02*
D03*
X685845D02*
D03*
Y352767D02*
D03*
X701345D02*
D03*
X685845Y330925D02*
D03*
X701345D02*
D03*
X685845Y309083D02*
D03*
X701345D02*
D03*
X701345Y287240D02*
D03*
X685845D02*
D03*
X701345Y265397D02*
D03*
X685845D02*
D03*
X701345Y243555D02*
D03*
X685845D02*
D03*
X701345Y221712D02*
D03*
X685845D02*
D03*
X686250Y156185D02*
D03*
X701750D02*
D03*
X686250Y178027D02*
D03*
X701750D02*
D03*
X686250Y199870D02*
D03*
X701750D02*
D03*
X701750Y134342D02*
D03*
X686250D02*
D03*
X701750Y112500D02*
D03*
X686250D02*
D03*
X587550Y248970D02*
D03*
X572050D02*
D03*
X620839D02*
D03*
X605339D02*
D03*
X480675Y188458D02*
D03*
X465175D02*
D03*
X434830D02*
D03*
X450330D02*
D03*
X419985Y212500D02*
D03*
X404485D02*
D03*
X389993D02*
D03*
X374493D02*
D03*
X406250Y624500D02*
D03*
X390750D02*
D03*
X306000D02*
D03*
X290500D02*
D03*
X234250Y624500D02*
D03*
X249750D02*
D03*
X180500D02*
D03*
X165000D02*
D03*
X477250Y580250D02*
D03*
X492750D02*
D03*
X374243D02*
D03*
X358744D02*
D03*
X234874Y580250D02*
D03*
X250374D02*
D03*
X446424Y649884D02*
D03*
X430924D02*
D03*
Y668884D02*
D03*
X446424D02*
D03*
X430924Y704444D02*
D03*
X446424D02*
D03*
Y721004D02*
D03*
X430924D02*
D03*
Y775564D02*
D03*
X446424D02*
D03*
X430924Y740004D02*
D03*
X446424D02*
D03*
Y756564D02*
D03*
X430924D02*
D03*
X446424Y685444D02*
D03*
X430924D02*
D03*
X108726Y634630D02*
D03*
X124226D02*
D03*
X108726Y652933D02*
D03*
X124226D02*
D03*
X108726Y671237D02*
D03*
X124226D02*
D03*
X108726Y689541D02*
D03*
X124226D02*
D03*
X108726Y707845D02*
D03*
X124226D02*
D03*
X108726Y726149D02*
D03*
X124226D02*
D03*
X108726Y744453D02*
D03*
X124226D02*
D03*
X460126Y502750D02*
D03*
X444626D02*
D03*
X412126D02*
D03*
X427626D02*
D03*
X341619D02*
D03*
X326119D02*
D03*
X293619D02*
D03*
X309119D02*
D03*
X217750Y502750D02*
D03*
X202250D02*
D03*
X169750D02*
D03*
X185250D02*
D03*
X115497Y580250D02*
D03*
X130997D02*
D03*
X98373Y502750D02*
D03*
X82873D02*
D03*
X50373D02*
D03*
X65873D02*
D03*
X50704Y672694D02*
D03*
X35204D02*
D03*
X50704Y690873D02*
D03*
X35204D02*
D03*
X50836Y709302D02*
D03*
X35336D02*
D03*
X313465Y122500D02*
D03*
X328965D02*
D03*
X313138Y104117D02*
D03*
X328638D02*
D03*
X157610Y102992D02*
D03*
X142110D02*
D03*
X419985Y188458D02*
D03*
X404485D02*
D03*
X193170Y403860D02*
D03*
X177670D02*
D03*
X193170Y386493D02*
D03*
X177670D02*
D03*
X157610Y246221D02*
D03*
X142110D02*
D03*
X157610Y266700D02*
D03*
X142110D02*
D03*
X157610Y123346D02*
D03*
X142110D02*
D03*
X157610Y164304D02*
D03*
X142110D02*
D03*
X157610Y143825D02*
D03*
X142110D02*
D03*
Y225742D02*
D03*
X157610D02*
D03*
X142110Y205263D02*
D03*
X157610D02*
D03*
X142110Y184783D02*
D03*
X157610D02*
D03*
D79*
X611955Y157217D02*
D03*
X616447Y138717D02*
D03*
Y157187D02*
D03*
X611955Y138717D02*
D03*
X86199Y699510D02*
D03*
X86169Y682010D02*
D03*
X71699D02*
D03*
X71699Y699510D02*
D03*
D80*
X621203Y157188D02*
D03*
X607203Y138717D02*
D03*
Y157217D02*
D03*
X621203Y138717D02*
D03*
D81*
X622953Y155188D02*
D03*
X605453Y140717D02*
D03*
Y155217D02*
D03*
X622953Y140717D02*
D03*
X88199Y693008D02*
D03*
X69699Y688517D02*
D03*
X88169D02*
D03*
X69699Y693008D02*
D03*
D82*
X614214Y145458D02*
D03*
X614203Y150458D02*
D03*
D83*
X647136Y147487D02*
D03*
X653636D02*
D03*
X660136D02*
D03*
Y166987D02*
D03*
X653636D02*
D03*
X647136D02*
D03*
D84*
X653636Y157237D02*
D03*
D85*
Y132258D02*
D03*
Y106258D02*
D03*
X538808Y132258D02*
D03*
Y106258D02*
D03*
X513198Y169360D02*
D03*
Y195360D02*
D03*
X287616Y169596D02*
D03*
Y195595D02*
D03*
X187794Y169596D02*
D03*
Y195595D02*
D03*
D86*
X596169Y121453D02*
D03*
Y105953D02*
D03*
X631487Y121453D02*
D03*
Y105953D02*
D03*
X613953Y121453D02*
D03*
Y105953D02*
D03*
X514452Y118492D02*
D03*
Y102992D02*
D03*
Y130903D02*
D03*
Y146403D02*
D03*
X559267Y194091D02*
D03*
Y178591D02*
D03*
X615888D02*
D03*
Y194091D02*
D03*
X634762Y178591D02*
D03*
Y194091D02*
D03*
X653636Y178591D02*
D03*
Y194091D02*
D03*
X597015Y178591D02*
D03*
Y194091D02*
D03*
X578141Y178591D02*
D03*
Y194091D02*
D03*
X187792Y134106D02*
D03*
Y149606D02*
D03*
Y118492D02*
D03*
Y102992D02*
D03*
X45623Y587750D02*
D03*
Y572250D02*
D03*
X407376Y572250D02*
D03*
Y587750D02*
D03*
X288869D02*
D03*
Y572250D02*
D03*
X165000Y587750D02*
D03*
Y572250D02*
D03*
X353822Y302250D02*
D03*
Y286750D02*
D03*
X372364Y302250D02*
D03*
Y286750D02*
D03*
X372110Y273174D02*
D03*
Y257674D02*
D03*
X353822Y273174D02*
D03*
Y257674D02*
D03*
X314452Y286122D02*
D03*
Y301622D02*
D03*
Y273174D02*
D03*
Y257674D02*
D03*
X492376Y547500D02*
D03*
Y563000D02*
D03*
X474876Y547500D02*
D03*
Y563000D02*
D03*
X373870Y563000D02*
D03*
Y547500D02*
D03*
X356370Y563000D02*
D03*
Y547500D02*
D03*
X250000Y563000D02*
D03*
Y547500D02*
D03*
X232500Y563000D02*
D03*
Y547500D02*
D03*
X130249Y563000D02*
D03*
Y547500D02*
D03*
X113123Y547500D02*
D03*
Y563000D02*
D03*
X373870Y517500D02*
D03*
Y533000D02*
D03*
X356370D02*
D03*
Y517500D02*
D03*
X250000Y517500D02*
D03*
Y533000D02*
D03*
X232500Y517500D02*
D03*
Y533000D02*
D03*
X130249Y517500D02*
D03*
Y533000D02*
D03*
X113123D02*
D03*
Y517500D02*
D03*
X492376D02*
D03*
Y533000D02*
D03*
X474876D02*
D03*
Y517500D02*
D03*
X392376Y533000D02*
D03*
Y517500D02*
D03*
X267369Y533000D02*
D03*
Y517500D02*
D03*
X147500Y533000D02*
D03*
Y517500D02*
D03*
X30623D02*
D03*
Y533000D02*
D03*
X400700Y419950D02*
D03*
Y435450D02*
D03*
X378469D02*
D03*
Y419950D02*
D03*
X356362Y419950D02*
D03*
Y435450D02*
D03*
X287614Y134106D02*
D03*
Y149606D02*
D03*
Y118492D02*
D03*
Y102992D02*
D03*
X535544Y592902D02*
D03*
Y577402D02*
D03*
X535544Y545335D02*
D03*
Y560835D02*
D03*
X535544Y609470D02*
D03*
Y624970D02*
D03*
X535544Y528768D02*
D03*
Y513268D02*
D03*
X590412Y496700D02*
D03*
Y481200D02*
D03*
X572185Y609470D02*
D03*
Y624970D02*
D03*
X681860Y560835D02*
D03*
Y545335D02*
D03*
X681860Y513268D02*
D03*
Y528768D02*
D03*
X681860Y577402D02*
D03*
Y592902D02*
D03*
X681860Y496700D02*
D03*
Y481200D02*
D03*
X608702Y496700D02*
D03*
Y481200D02*
D03*
X663789Y609470D02*
D03*
Y624970D02*
D03*
X151311Y447430D02*
D03*
Y462930D02*
D03*
Y380493D02*
D03*
Y395993D02*
D03*
Y435461D02*
D03*
Y419961D02*
D03*
Y368524D02*
D03*
Y353024D02*
D03*
X151943Y313555D02*
D03*
Y329055D02*
D03*
Y301586D02*
D03*
Y286087D02*
D03*
X535419Y496700D02*
D03*
Y481200D02*
D03*
X553740Y609470D02*
D03*
Y624970D02*
D03*
X571998Y496700D02*
D03*
Y481200D02*
D03*
X608702Y609470D02*
D03*
Y624970D02*
D03*
X590381D02*
D03*
Y609470D02*
D03*
X553708Y481200D02*
D03*
Y496700D02*
D03*
X663445Y496700D02*
D03*
Y481200D02*
D03*
X681984Y609470D02*
D03*
Y624970D02*
D03*
X626866Y496700D02*
D03*
Y481200D02*
D03*
X645343Y609470D02*
D03*
Y624970D02*
D03*
X627022D02*
D03*
Y609470D02*
D03*
X645155Y481200D02*
D03*
Y496700D02*
D03*
D87*
X570255Y150962D02*
D03*
Y110962D02*
D03*
X472159Y117101D02*
D03*
Y157102D02*
D03*
D88*
X422120Y135580D02*
D03*
D89*
X353060Y108576D02*
D03*
X379060D02*
D03*
X65461Y765048D02*
D03*
X39461D02*
D03*
X65144Y649948D02*
D03*
X39144D02*
D03*
D90*
X250528Y177182D02*
D03*
X263228D02*
D03*
X225128D02*
D03*
X212428D02*
D03*
X237828D02*
D03*
D91*
Y116682D02*
D03*
D92*
X459489Y587185D02*
D03*
X431027D02*
D03*
X340983D02*
D03*
X312520D02*
D03*
X188651Y587185D02*
D03*
X217113D02*
D03*
X97736D02*
D03*
X69274D02*
D03*
D93*
X390084Y659638D02*
D03*
X415084Y650138D02*
D03*
Y685698D02*
D03*
X390084Y695198D02*
D03*
X415084Y721258D02*
D03*
X390084Y730758D02*
D03*
X415084Y756818D02*
D03*
X390084Y766318D02*
D03*
D94*
X640000Y676500D02*
D03*
X600000D02*
D03*
X560000D02*
D03*
X520000D02*
D03*
X640000Y651500D02*
D03*
X600000D02*
D03*
X560000D02*
D03*
X520000D02*
D03*
X540000D02*
D03*
X500000D02*
D03*
Y676500D02*
D03*
X540000D02*
D03*
X580000Y651500D02*
D03*
X620000D02*
D03*
Y676500D02*
D03*
X580000D02*
D03*
X310000D02*
D03*
X270000D02*
D03*
X230000D02*
D03*
X190000D02*
D03*
X330000Y651500D02*
D03*
X310000D02*
D03*
X290000D02*
D03*
X270000D02*
D03*
X250000D02*
D03*
X230000D02*
D03*
X210000D02*
D03*
X190000D02*
D03*
X210000Y676500D02*
D03*
X250000D02*
D03*
X290000D02*
D03*
X330000D02*
D03*
D95*
X334010Y289172D02*
D03*
Y273172D02*
D03*
D96*
X349062Y324515D02*
D03*
X365326Y340779D02*
D03*
X352598Y353507D02*
D03*
X336334Y337243D02*
D03*
D97*
X335287Y360972D02*
D03*
X324327Y350012D02*
D03*
D98*
X334296Y311537D02*
D03*
X323336Y322497D02*
D03*
D99*
X124675Y766307D02*
D03*
D100*
X108675D02*
D03*
D101*
X88199Y697760D02*
D03*
X88169Y683760D02*
D03*
X69699Y683760D02*
D03*
Y697760D02*
D03*
D102*
X81440Y690760D02*
D03*
X76440Y690749D02*
D03*
D103*
X79342Y734953D02*
D03*
X39342D02*
D03*
D104*
X52628Y627497D02*
D03*
Y620997D02*
D03*
Y614497D02*
D03*
X33128D02*
D03*
Y620997D02*
D03*
Y627497D02*
D03*
D105*
X42878Y620997D02*
D03*
D106*
X127482Y441180D02*
D03*
Y451180D02*
D03*
Y461180D02*
D03*
Y471180D02*
D03*
X72212D02*
D03*
Y461180D02*
D03*
Y451180D02*
D03*
Y441180D02*
D03*
D107*
X101682Y428180D02*
D03*
Y484180D02*
D03*
X46412D02*
D03*
Y428180D02*
D03*
D108*
X81325Y331470D02*
D03*
Y394970D02*
D03*
D109*
X110325Y369470D02*
D03*
Y356970D02*
D03*
D110*
X538230Y177699D02*
D03*
D111*
Y193699D02*
D03*
D112*
X375715Y168676D02*
D03*
X321215D02*
D03*
D113*
X420000Y411716D02*
D03*
X425000D02*
D03*
X430000D02*
D03*
X435000D02*
D03*
X440000D02*
D03*
X445000D02*
D03*
X450000D02*
D03*
X455000D02*
D03*
X460000D02*
D03*
X465000D02*
D03*
X470000D02*
D03*
X475000D02*
D03*
X480000D02*
D03*
X485000D02*
D03*
X490000D02*
D03*
X495000D02*
D03*
X500000D02*
D03*
X505000D02*
D03*
X510000D02*
D03*
X515000D02*
D03*
X520000D02*
D03*
X525000D02*
D03*
X530000D02*
D03*
X535000D02*
D03*
X540000D02*
D03*
Y257284D02*
D03*
X535000D02*
D03*
X530000D02*
D03*
X525000D02*
D03*
X520000D02*
D03*
X515000D02*
D03*
X510000D02*
D03*
X505000D02*
D03*
X500000D02*
D03*
X495000D02*
D03*
X490000D02*
D03*
X485000D02*
D03*
X480000D02*
D03*
X475000D02*
D03*
X470000D02*
D03*
X465000D02*
D03*
X460000D02*
D03*
X455000D02*
D03*
X450000D02*
D03*
X445000D02*
D03*
X440000D02*
D03*
X435000D02*
D03*
X430000D02*
D03*
X425000D02*
D03*
X420000D02*
D03*
D114*
X557216Y394500D02*
D03*
Y389500D02*
D03*
Y384500D02*
D03*
Y379500D02*
D03*
Y374500D02*
D03*
Y369500D02*
D03*
Y364500D02*
D03*
Y359500D02*
D03*
Y354500D02*
D03*
Y349500D02*
D03*
Y344500D02*
D03*
Y339500D02*
D03*
Y334500D02*
D03*
Y329500D02*
D03*
Y324500D02*
D03*
Y319500D02*
D03*
Y314500D02*
D03*
Y309500D02*
D03*
Y304500D02*
D03*
Y299500D02*
D03*
Y294500D02*
D03*
Y289500D02*
D03*
Y284500D02*
D03*
Y279500D02*
D03*
Y274500D02*
D03*
X402784D02*
D03*
Y279500D02*
D03*
Y284500D02*
D03*
Y289500D02*
D03*
Y294500D02*
D03*
Y299500D02*
D03*
Y304500D02*
D03*
Y309500D02*
D03*
Y314500D02*
D03*
Y319500D02*
D03*
Y324500D02*
D03*
Y329500D02*
D03*
Y334500D02*
D03*
Y339500D02*
D03*
Y344500D02*
D03*
Y349500D02*
D03*
Y354500D02*
D03*
Y359500D02*
D03*
Y364500D02*
D03*
Y369500D02*
D03*
Y374500D02*
D03*
Y379500D02*
D03*
Y384500D02*
D03*
Y389500D02*
D03*
Y394500D02*
D03*
D115*
X660000Y60000D02*
D03*
X190000D02*
D03*
D116*
X485000Y70000D02*
D03*
Y50000D02*
D03*
X505000Y70000D02*
D03*
Y50000D02*
D03*
X525000Y70000D02*
D03*
Y50000D02*
D03*
X545000Y70000D02*
D03*
Y50000D02*
D03*
X565000Y70000D02*
D03*
Y50000D02*
D03*
X445000D02*
D03*
Y70000D02*
D03*
X405000Y50000D02*
D03*
Y70000D02*
D03*
X365000Y50000D02*
D03*
Y70000D02*
D03*
X285000Y50000D02*
D03*
Y70000D02*
D03*
X225000Y50000D02*
D03*
X245000D02*
D03*
Y70000D02*
D03*
X305000Y50000D02*
D03*
Y70000D02*
D03*
X325000D02*
D03*
Y50000D02*
D03*
X385000D02*
D03*
Y70000D02*
D03*
X425000Y50000D02*
D03*
Y70000D02*
D03*
X345000Y50000D02*
D03*
Y70000D02*
D03*
X265000Y50000D02*
D03*
Y70000D02*
D03*
X625000D02*
D03*
X605000D02*
D03*
X585000D02*
D03*
X465000D02*
D03*
X625000Y50000D02*
D03*
X605000D02*
D03*
X585000D02*
D03*
X465000D02*
D03*
D117*
X225000Y70000D02*
D03*
D118*
X737300Y266200D02*
D03*
Y240800D02*
D03*
X762700D02*
D03*
X737300Y215400D02*
D03*
X762700D02*
D03*
X737300Y190000D02*
D03*
X762700D02*
D03*
X737300Y164600D02*
D03*
X762700D02*
D03*
Y266200D02*
D03*
X737300Y113800D02*
D03*
Y139200D02*
D03*
X762700D02*
D03*
D119*
Y113800D02*
D03*
D120*
X477500Y740000D02*
D03*
X662500D02*
D03*
X477500Y692500D02*
D03*
X662500D02*
D03*
X167500Y740000D02*
D03*
X352500D02*
D03*
X167500Y692500D02*
D03*
X352500D02*
D03*
D121*
X115316Y135128D02*
D03*
Y109728D02*
D03*
Y188516D02*
D03*
Y213916D02*
D03*
Y239316D02*
D03*
Y264716D02*
D03*
D122*
Y160528D02*
D03*
Y290116D02*
D03*
D123*
X36000Y36000D02*
D03*
Y814000D02*
D03*
X814000D02*
D03*
Y36000D02*
D03*
D124*
X36000Y59250D02*
D03*
X12750Y36000D02*
D03*
X36000Y13140D02*
D03*
X59250Y36000D02*
D03*
X52440Y52440D02*
D03*
X19560Y19560D02*
D03*
X52440D02*
D03*
X19560Y52440D02*
D03*
Y830440D02*
D03*
X52440Y797560D02*
D03*
X19560D02*
D03*
X52440Y830440D02*
D03*
X59250Y814000D02*
D03*
X36000Y791140D02*
D03*
X12750Y814000D02*
D03*
X36000Y837250D02*
D03*
X814000D02*
D03*
X790750Y814000D02*
D03*
X814000Y791140D02*
D03*
X837250Y814000D02*
D03*
X830440Y830440D02*
D03*
X797560Y797560D02*
D03*
X830440D02*
D03*
X797560Y830440D02*
D03*
Y52440D02*
D03*
X830440Y19560D02*
D03*
X797560D02*
D03*
X830440Y52440D02*
D03*
X837250Y36000D02*
D03*
X814000Y13140D02*
D03*
X790750Y36000D02*
D03*
X814000Y59250D02*
D03*
D125*
X470286Y318782D02*
D03*
M02*
