G04*
G04 #@! TF.GenerationSoftware,Altium Limited,Altium Designer,25.4.2 (15)*
G04*
G04 Layer_Color=8421504*
%FSLAX44Y44*%
%MOMM*%
G71*
G04*
G04 #@! TF.SameCoordinates,3657E7AA-FEB6-4A55-804A-CE854462FE3E*
G04*
G04*
G04 #@! TF.FilePolarity,Positive*
G04*
G01*
G75*
%ADD24C,1.2300*%
%ADD25R,4.9000X2.9500*%
G04:AMPARAMS|DCode=26|XSize=1.55mm|YSize=0.6mm|CornerRadius=0.03mm|HoleSize=0mm|Usage=FLASHONLY|Rotation=270.000|XOffset=0mm|YOffset=0mm|HoleType=Round|Shape=RoundedRectangle|*
%AMROUNDEDRECTD26*
21,1,1.5500,0.5400,0,0,270.0*
21,1,1.4900,0.6000,0,0,270.0*
1,1,0.0600,-0.2700,-0.7450*
1,1,0.0600,-0.2700,0.7450*
1,1,0.0600,0.2700,0.7450*
1,1,0.0600,0.2700,-0.7450*
%
%ADD26ROUNDEDRECTD26*%
G04:AMPARAMS|DCode=27|XSize=1.4697mm|YSize=0.6mm|CornerRadius=0.15mm|HoleSize=0mm|Usage=FLASHONLY|Rotation=180.000|XOffset=0mm|YOffset=0mm|HoleType=Round|Shape=RoundedRectangle|*
%AMROUNDEDRECTD27*
21,1,1.4697,0.3000,0,0,180.0*
21,1,1.1697,0.6000,0,0,180.0*
1,1,0.3000,-0.5849,0.1500*
1,1,0.3000,0.5849,0.1500*
1,1,0.3000,0.5849,-0.1500*
1,1,0.3000,-0.5849,-0.1500*
%
%ADD27ROUNDEDRECTD27*%
G04:AMPARAMS|DCode=28|XSize=0.95mm|YSize=0.85mm|CornerRadius=0.2125mm|HoleSize=0mm|Usage=FLASHONLY|Rotation=180.000|XOffset=0mm|YOffset=0mm|HoleType=Round|Shape=RoundedRectangle|*
%AMROUNDEDRECTD28*
21,1,0.9500,0.4250,0,0,180.0*
21,1,0.5250,0.8500,0,0,180.0*
1,1,0.4250,-0.2625,0.2125*
1,1,0.4250,0.2625,0.2125*
1,1,0.4250,0.2625,-0.2125*
1,1,0.4250,-0.2625,-0.2125*
%
%ADD28ROUNDEDRECTD28*%
G04:AMPARAMS|DCode=29|XSize=0.95mm|YSize=0.85mm|CornerRadius=0.2125mm|HoleSize=0mm|Usage=FLASHONLY|Rotation=270.000|XOffset=0mm|YOffset=0mm|HoleType=Round|Shape=RoundedRectangle|*
%AMROUNDEDRECTD29*
21,1,0.9500,0.4250,0,0,270.0*
21,1,0.5250,0.8500,0,0,270.0*
1,1,0.4250,-0.2125,-0.2625*
1,1,0.4250,-0.2125,0.2625*
1,1,0.4250,0.2125,0.2625*
1,1,0.4250,0.2125,-0.2625*
%
%ADD29ROUNDEDRECTD29*%
%ADD30R,1.2000X0.8000*%
G04:AMPARAMS|DCode=31|XSize=0.254mm|YSize=0.8128mm|CornerRadius=0.127mm|HoleSize=0mm|Usage=FLASHONLY|Rotation=90.000|XOffset=0mm|YOffset=0mm|HoleType=Round|Shape=RoundedRectangle|*
%AMROUNDEDRECTD31*
21,1,0.2540,0.5588,0,0,90.0*
21,1,0.0000,0.8128,0,0,90.0*
1,1,0.2540,0.2794,0.0000*
1,1,0.2540,0.2794,0.0000*
1,1,0.2540,-0.2794,0.0000*
1,1,0.2540,-0.2794,0.0000*
%
%ADD31ROUNDEDRECTD31*%
G04:AMPARAMS|DCode=32|XSize=0.254mm|YSize=0.8128mm|CornerRadius=0.127mm|HoleSize=0mm|Usage=FLASHONLY|Rotation=0.000|XOffset=0mm|YOffset=0mm|HoleType=Round|Shape=RoundedRectangle|*
%AMROUNDEDRECTD32*
21,1,0.2540,0.5588,0,0,0.0*
21,1,0.0000,0.8128,0,0,0.0*
1,1,0.2540,0.0000,-0.2794*
1,1,0.2540,0.0000,-0.2794*
1,1,0.2540,0.0000,0.2794*
1,1,0.2540,0.0000,0.2794*
%
%ADD32ROUNDEDRECTD32*%
%ADD33O,0.6000X1.8000*%
%ADD34R,1.2000X0.6000*%
%ADD35O,0.3500X1.4000*%
%ADD36R,1.6000X0.8000*%
%ADD37R,3.0000X2.1000*%
%ADD38R,0.2500X0.6500*%
%ADD39R,0.3000X0.6500*%
%ADD40R,0.6500X0.2500*%
%ADD41R,2.4000X0.3000*%
%ADD42R,0.3000X0.4500*%
%ADD43R,1.8000X1.4000*%
%ADD44R,1.8000X1.8000*%
%ADD45R,1.4000X1.8000*%
G04:AMPARAMS|DCode=46|XSize=0.7mm|YSize=2.4mm|CornerRadius=0.049mm|HoleSize=0mm|Usage=FLASHONLY|Rotation=0.000|XOffset=0mm|YOffset=0mm|HoleType=Round|Shape=RoundedRectangle|*
%AMROUNDEDRECTD46*
21,1,0.7000,2.3020,0,0,0.0*
21,1,0.6020,2.4000,0,0,0.0*
1,1,0.0980,0.3010,-1.1510*
1,1,0.0980,-0.3010,-1.1510*
1,1,0.0980,-0.3010,1.1510*
1,1,0.0980,0.3010,1.1510*
%
%ADD46ROUNDEDRECTD46*%
G04:AMPARAMS|DCode=47|XSize=3.2mm|YSize=2.4mm|CornerRadius=0.048mm|HoleSize=0mm|Usage=FLASHONLY|Rotation=0.000|XOffset=0mm|YOffset=0mm|HoleType=Round|Shape=RoundedRectangle|*
%AMROUNDEDRECTD47*
21,1,3.2000,2.3040,0,0,0.0*
21,1,3.1040,2.4000,0,0,0.0*
1,1,0.0960,1.5520,-1.1520*
1,1,0.0960,-1.5520,-1.1520*
1,1,0.0960,-1.5520,1.1520*
1,1,0.0960,1.5520,1.1520*
%
%ADD47ROUNDEDRECTD47*%
%ADD48R,1.0000X1.5000*%
%ADD49R,0.9500X0.9000*%
%ADD50R,1.0000X1.5000*%
%ADD51R,0.9000X0.6000*%
G04:AMPARAMS|DCode=52|XSize=1.1mm|YSize=1.3mm|CornerRadius=0mm|HoleSize=0mm|Usage=FLASHONLY|Rotation=135.000|XOffset=0mm|YOffset=0mm|HoleType=Round|Shape=Rectangle|*
%AMROTATEDRECTD52*
4,1,4,0.8485,0.0707,-0.0707,-0.8485,-0.8485,-0.0707,0.0707,0.8485,0.8485,0.0707,0.0*
%
%ADD52ROTATEDRECTD52*%

G04:AMPARAMS|DCode=53|XSize=0.95mm|YSize=0.85mm|CornerRadius=0.2125mm|HoleSize=0mm|Usage=FLASHONLY|Rotation=315.000|XOffset=0mm|YOffset=0mm|HoleType=Round|Shape=RoundedRectangle|*
%AMROUNDEDRECTD53*
21,1,0.9500,0.4250,0,0,315.0*
21,1,0.5250,0.8500,0,0,315.0*
1,1,0.4250,0.0354,-0.3359*
1,1,0.4250,-0.3359,0.0354*
1,1,0.4250,-0.0354,0.3359*
1,1,0.4250,0.3359,-0.0354*
%
%ADD53ROUNDEDRECTD53*%
G04:AMPARAMS|DCode=54|XSize=0.95mm|YSize=0.85mm|CornerRadius=0.2125mm|HoleSize=0mm|Usage=FLASHONLY|Rotation=45.000|XOffset=0mm|YOffset=0mm|HoleType=Round|Shape=RoundedRectangle|*
%AMROUNDEDRECTD54*
21,1,0.9500,0.4250,0,0,45.0*
21,1,0.5250,0.8500,0,0,45.0*
1,1,0.4250,0.3359,0.0354*
1,1,0.4250,-0.0354,-0.3359*
1,1,0.4250,-0.3359,-0.0354*
1,1,0.4250,0.0354,0.3359*
%
%ADD54ROUNDEDRECTD54*%
%ADD55R,0.8000X1.5000*%
%ADD56R,0.7000X1.5000*%
%ADD57R,0.6500X0.3000*%
%ADD58R,0.3000X2.4000*%
%ADD59R,1.8000X1.8000*%
%ADD60R,0.4500X0.3000*%
%ADD61R,1.5494X0.6604*%
%ADD62R,1.9050X1.2954*%
%ADD63R,3.0988X2.2098*%
%ADD64R,1.7018X0.8128*%
%ADD65R,1.5000X0.7000*%
%ADD66R,1.5000X0.8000*%
%ADD67R,2.9500X3.5000*%
%ADD68R,0.2794X1.4732*%
%ADD69R,1.4732X0.2794*%
G36*
X837997Y837997D02*
X837984Y830638D01*
X837837D01*
X830440Y838035D01*
X837959D01*
X837997Y837997D01*
D02*
G37*
G36*
X19362Y837984D02*
Y837837D01*
X11965Y830440D01*
Y837959D01*
X12003Y837997D01*
X19362Y837984D01*
D02*
G37*
G36*
X47484Y628988D02*
X47576Y628960D01*
X47661Y628915D01*
X47735Y628854D01*
X47796Y628779D01*
X47841Y628695D01*
X47869Y628603D01*
X47878Y628507D01*
Y622487D01*
X47869Y622392D01*
X47841Y622300D01*
X47796Y622215D01*
X47735Y622141D01*
X47661Y622080D01*
X47576Y622034D01*
X47484Y622007D01*
X47388Y621997D01*
X38368D01*
X38273Y622007D01*
X38181Y622034D01*
X38096Y622080D01*
X38022Y622141D01*
X37961Y622215D01*
X37916Y622300D01*
X37888Y622392D01*
X37878Y622487D01*
Y628507D01*
X37888Y628603D01*
X37916Y628695D01*
X37961Y628779D01*
X38022Y628854D01*
X38096Y628915D01*
X38181Y628960D01*
X38273Y628988D01*
X38368Y628997D01*
X47388D01*
X47484Y628988D01*
D02*
G37*
G36*
Y619988D02*
X47576Y619960D01*
X47661Y619915D01*
X47735Y619854D01*
X47796Y619780D01*
X47841Y619695D01*
X47869Y619603D01*
X47878Y619507D01*
Y613487D01*
X47869Y613392D01*
X47841Y613300D01*
X47796Y613215D01*
X47735Y613141D01*
X47661Y613080D01*
X47576Y613035D01*
X47484Y613007D01*
X47388Y612997D01*
X38368D01*
X38273Y613007D01*
X38181Y613035D01*
X38096Y613080D01*
X38022Y613141D01*
X37961Y613215D01*
X37916Y613300D01*
X37888Y613392D01*
X37878Y613487D01*
Y619507D01*
X37888Y619603D01*
X37916Y619695D01*
X37961Y619780D01*
X38022Y619854D01*
X38096Y619915D01*
X38181Y619960D01*
X38273Y619988D01*
X38368Y619997D01*
X47388D01*
X47484Y619988D01*
D02*
G37*
G36*
X447084Y538750D02*
X435876D01*
Y549958D01*
X447084D01*
Y538750D01*
D02*
G37*
G36*
X433876D02*
X422668D01*
Y549958D01*
X433876D01*
Y538750D01*
D02*
G37*
G36*
X328577D02*
X317369D01*
Y549958D01*
X328577D01*
Y538750D01*
D02*
G37*
G36*
X315369D02*
X304161D01*
Y549958D01*
X315369D01*
Y538750D01*
D02*
G37*
G36*
X204708Y538750D02*
X193500D01*
Y549958D01*
X204708D01*
Y538750D01*
D02*
G37*
G36*
X191500D02*
X180292D01*
Y549958D01*
X191500D01*
Y538750D01*
D02*
G37*
G36*
X85331D02*
X74123D01*
Y549958D01*
X85331D01*
Y538750D01*
D02*
G37*
G36*
X72123D02*
X60915D01*
Y549958D01*
X72123D01*
Y538750D01*
D02*
G37*
G36*
X447084Y525542D02*
X435876D01*
Y536750D01*
X447084D01*
Y525542D01*
D02*
G37*
G36*
X433876D02*
X422668D01*
Y536750D01*
X433876D01*
Y525542D01*
D02*
G37*
G36*
X328577D02*
X317369D01*
Y536750D01*
X328577D01*
Y525542D01*
D02*
G37*
G36*
X315369D02*
X304161D01*
Y536750D01*
X315369D01*
Y525542D01*
D02*
G37*
G36*
X204708Y525542D02*
X193500D01*
Y536750D01*
X204708D01*
Y525542D01*
D02*
G37*
G36*
X191500D02*
X180292D01*
Y536750D01*
X191500D01*
Y525542D01*
D02*
G37*
G36*
X85331D02*
X74123D01*
Y536750D01*
X85331D01*
Y525542D01*
D02*
G37*
G36*
X72123D02*
X60915D01*
Y536750D01*
X72123D01*
Y525542D01*
D02*
G37*
G36*
X661242Y162227D02*
X661333Y162199D01*
X661418Y162154D01*
X661492Y162093D01*
X661553Y162019D01*
X661599Y161934D01*
X661627Y161842D01*
X661636Y161747D01*
Y152727D01*
X661627Y152631D01*
X661599Y152539D01*
X661553Y152455D01*
X661492Y152380D01*
X661418Y152319D01*
X661333Y152274D01*
X661242Y152246D01*
X661146Y152237D01*
X655126D01*
X655030Y152246D01*
X654938Y152274D01*
X654854Y152319D01*
X654779Y152380D01*
X654718Y152455D01*
X654673Y152539D01*
X654645Y152631D01*
X654636Y152727D01*
Y161747D01*
X654645Y161842D01*
X654673Y161934D01*
X654718Y162019D01*
X654779Y162093D01*
X654854Y162154D01*
X654938Y162199D01*
X655030Y162227D01*
X655126Y162237D01*
X661146D01*
X661242Y162227D01*
D02*
G37*
G36*
X652242D02*
X652333Y162199D01*
X652418Y162154D01*
X652492Y162093D01*
X652553Y162019D01*
X652599Y161934D01*
X652626Y161842D01*
X652636Y161747D01*
Y152727D01*
X652626Y152631D01*
X652599Y152539D01*
X652553Y152455D01*
X652492Y152380D01*
X652418Y152319D01*
X652333Y152274D01*
X652242Y152246D01*
X652146Y152237D01*
X646126D01*
X646030Y152246D01*
X645938Y152274D01*
X645854Y152319D01*
X645779Y152380D01*
X645719Y152455D01*
X645673Y152539D01*
X645645Y152631D01*
X645636Y152727D01*
Y161747D01*
X645645Y161842D01*
X645673Y161934D01*
X645719Y162019D01*
X645779Y162093D01*
X645854Y162154D01*
X645938Y162199D01*
X646030Y162227D01*
X646126Y162237D01*
X652146D01*
X652242Y162227D01*
D02*
G37*
G36*
X437620Y122580D02*
X406620D01*
Y148580D01*
X437620D01*
Y122580D01*
D02*
G37*
G36*
X838035Y12041D02*
X837997Y12003D01*
X830638Y12016D01*
Y12163D01*
X838035Y19560D01*
Y12041D01*
D02*
G37*
G36*
X19560Y11965D02*
X12041D01*
X12003Y12003D01*
X12016Y19362D01*
X12163D01*
X19560Y11965D01*
D02*
G37*
D24*
X12003Y843647D02*
G03*
X6353Y838009I0J-5650D01*
G01*
X6353Y11997D02*
G03*
X11991Y6347I5650J0D01*
G01*
X838003Y6347D02*
G03*
X843653Y11984I0J5650D01*
G01*
X843653Y837997D02*
G03*
X838020Y843646I-5650J0D01*
G01*
X6353Y12022D02*
X6353Y837997D01*
X12021Y843647D02*
X838003Y843646D01*
X843653Y11997D02*
X843653Y837971D01*
X12003Y6347D02*
X140858D01*
X150858Y6347D01*
X200858D01*
X230858D01*
X370857D01*
X420857D01*
X430857Y6347D01*
X510857D01*
X560857D01*
X620857D01*
X690857D01*
X700857Y6347D01*
X833882D01*
X837978D01*
D25*
X422120Y135580D02*
D03*
D26*
X441170Y162580D02*
D03*
X428470D02*
D03*
X415770D02*
D03*
X403070D02*
D03*
Y108580D02*
D03*
X415770D02*
D03*
X428470D02*
D03*
X441170D02*
D03*
D27*
X187002Y244922D02*
D03*
X186999Y255082D02*
D03*
D28*
X616966Y401704D02*
D03*
Y386204D02*
D03*
X596169Y121453D02*
D03*
Y105953D02*
D03*
X631487Y121453D02*
D03*
Y105953D02*
D03*
X613953Y121453D02*
D03*
Y105953D02*
D03*
X514452Y118492D02*
D03*
Y102992D02*
D03*
Y130903D02*
D03*
Y146403D02*
D03*
X559267Y194091D02*
D03*
Y178591D02*
D03*
X615888D02*
D03*
Y194091D02*
D03*
X634762Y178591D02*
D03*
Y194091D02*
D03*
X653636Y178591D02*
D03*
Y194091D02*
D03*
X597015Y178591D02*
D03*
Y194091D02*
D03*
X578141Y178591D02*
D03*
Y194091D02*
D03*
X187792Y134106D02*
D03*
Y149606D02*
D03*
Y118492D02*
D03*
Y102992D02*
D03*
X45623Y587750D02*
D03*
Y572250D02*
D03*
X407376Y572250D02*
D03*
Y587750D02*
D03*
X288869D02*
D03*
Y572250D02*
D03*
X165000Y587750D02*
D03*
Y572250D02*
D03*
X353822Y302250D02*
D03*
Y286750D02*
D03*
X372364Y302250D02*
D03*
Y286750D02*
D03*
X372110Y273174D02*
D03*
Y257674D02*
D03*
X353822Y273174D02*
D03*
Y257674D02*
D03*
X314452Y286122D02*
D03*
Y301622D02*
D03*
Y273174D02*
D03*
Y257674D02*
D03*
X492376Y547500D02*
D03*
Y563000D02*
D03*
X474876Y547500D02*
D03*
Y563000D02*
D03*
X373870Y563000D02*
D03*
Y547500D02*
D03*
X356370Y563000D02*
D03*
Y547500D02*
D03*
X250000Y563000D02*
D03*
Y547500D02*
D03*
X232500Y563000D02*
D03*
Y547500D02*
D03*
X130249Y563000D02*
D03*
Y547500D02*
D03*
X113123Y547500D02*
D03*
Y563000D02*
D03*
X373870Y517500D02*
D03*
Y533000D02*
D03*
X356370D02*
D03*
Y517500D02*
D03*
X250000Y517500D02*
D03*
Y533000D02*
D03*
X232500Y517500D02*
D03*
Y533000D02*
D03*
X130249Y517500D02*
D03*
Y533000D02*
D03*
X113123D02*
D03*
Y517500D02*
D03*
X492376D02*
D03*
Y533000D02*
D03*
X474876D02*
D03*
Y517500D02*
D03*
X392376Y533000D02*
D03*
Y517500D02*
D03*
X267369Y533000D02*
D03*
Y517500D02*
D03*
X147500Y533000D02*
D03*
Y517500D02*
D03*
X30623D02*
D03*
Y533000D02*
D03*
X400700Y419950D02*
D03*
Y435450D02*
D03*
X378469D02*
D03*
Y419950D02*
D03*
X356362Y419950D02*
D03*
Y435450D02*
D03*
X287614Y134106D02*
D03*
Y149606D02*
D03*
Y118492D02*
D03*
Y102992D02*
D03*
X535544Y592902D02*
D03*
Y577402D02*
D03*
X535544Y545335D02*
D03*
Y560835D02*
D03*
X535544Y609470D02*
D03*
Y624970D02*
D03*
X535544Y528768D02*
D03*
Y513268D02*
D03*
X590412Y496700D02*
D03*
Y481200D02*
D03*
X572185Y609470D02*
D03*
Y624970D02*
D03*
X681860Y560835D02*
D03*
Y545335D02*
D03*
X681860Y513268D02*
D03*
Y528768D02*
D03*
X681860Y577402D02*
D03*
Y592902D02*
D03*
X681860Y496700D02*
D03*
Y481200D02*
D03*
X608702Y496700D02*
D03*
Y481200D02*
D03*
X663789Y609470D02*
D03*
Y624970D02*
D03*
X151311Y447430D02*
D03*
Y462930D02*
D03*
Y380493D02*
D03*
Y395993D02*
D03*
Y435461D02*
D03*
Y419961D02*
D03*
Y368524D02*
D03*
Y353024D02*
D03*
X151943Y313555D02*
D03*
Y329055D02*
D03*
Y301586D02*
D03*
Y286087D02*
D03*
X535419Y496700D02*
D03*
Y481200D02*
D03*
X553740Y609470D02*
D03*
Y624970D02*
D03*
X571998Y496700D02*
D03*
Y481200D02*
D03*
X608702Y609470D02*
D03*
Y624970D02*
D03*
X590381D02*
D03*
Y609470D02*
D03*
X553708Y481200D02*
D03*
Y496700D02*
D03*
X663445Y496700D02*
D03*
Y481200D02*
D03*
X681984Y609470D02*
D03*
Y624970D02*
D03*
X626866Y496700D02*
D03*
Y481200D02*
D03*
X645343Y609470D02*
D03*
Y624970D02*
D03*
X627022D02*
D03*
Y609470D02*
D03*
X645155Y481200D02*
D03*
Y496700D02*
D03*
D29*
X599570Y384500D02*
D03*
X584070D02*
D03*
X277000Y375363D02*
D03*
X292500D02*
D03*
X277000Y428700D02*
D03*
X292500D02*
D03*
X292500Y411157D02*
D03*
X277000D02*
D03*
X216131Y246221D02*
D03*
X231631D02*
D03*
X216131Y264966D02*
D03*
X231631D02*
D03*
X216131Y283711D02*
D03*
X231631D02*
D03*
X216131Y302456D02*
D03*
X231631D02*
D03*
X216131Y321201D02*
D03*
X231631D02*
D03*
X216131Y339946D02*
D03*
X231631D02*
D03*
X216131Y358691D02*
D03*
X231631D02*
D03*
Y377436D02*
D03*
X216131D02*
D03*
X231631Y396181D02*
D03*
X216131D02*
D03*
Y414926D02*
D03*
X231631D02*
D03*
X216131Y433671D02*
D03*
X231631D02*
D03*
X216131Y452417D02*
D03*
X231631D02*
D03*
X216131Y471162D02*
D03*
X231631D02*
D03*
X277000Y305829D02*
D03*
X292500D02*
D03*
X292500Y322686D02*
D03*
X277000D02*
D03*
X292500Y357803D02*
D03*
X277000D02*
D03*
X277000Y340946D02*
D03*
X292500D02*
D03*
X277000Y392906D02*
D03*
X292500D02*
D03*
X583562Y403860D02*
D03*
X599062D02*
D03*
X701345Y440137D02*
D03*
X685845D02*
D03*
X701345Y418295D02*
D03*
X685845D02*
D03*
X701345Y396452D02*
D03*
X685845D02*
D03*
X701345Y374610D02*
D03*
X685845D02*
D03*
Y352767D02*
D03*
X701345D02*
D03*
X685845Y330925D02*
D03*
X701345D02*
D03*
X685845Y309083D02*
D03*
X701345D02*
D03*
X701345Y287240D02*
D03*
X685845D02*
D03*
X701345Y265397D02*
D03*
X685845D02*
D03*
X701345Y243555D02*
D03*
X685845D02*
D03*
X701345Y221712D02*
D03*
X685845D02*
D03*
X686250Y156185D02*
D03*
X701750D02*
D03*
X686250Y178027D02*
D03*
X701750D02*
D03*
X686250Y199870D02*
D03*
X701750D02*
D03*
X701750Y134342D02*
D03*
X686250D02*
D03*
X701750Y112500D02*
D03*
X686250D02*
D03*
X587550Y248970D02*
D03*
X572050D02*
D03*
X620839D02*
D03*
X605339D02*
D03*
X480675Y188458D02*
D03*
X465175D02*
D03*
X434830D02*
D03*
X450330D02*
D03*
X419985Y212500D02*
D03*
X404485D02*
D03*
X389993D02*
D03*
X374493D02*
D03*
X406250Y624500D02*
D03*
X390750D02*
D03*
X306000D02*
D03*
X290500D02*
D03*
X234250Y624500D02*
D03*
X249750D02*
D03*
X180500D02*
D03*
X165000D02*
D03*
X477250Y580250D02*
D03*
X492750D02*
D03*
X374243D02*
D03*
X358744D02*
D03*
X234874Y580250D02*
D03*
X250374D02*
D03*
X446424Y649884D02*
D03*
X430924D02*
D03*
Y668884D02*
D03*
X446424D02*
D03*
X430924Y704444D02*
D03*
X446424D02*
D03*
Y721004D02*
D03*
X430924D02*
D03*
Y775564D02*
D03*
X446424D02*
D03*
X430924Y740004D02*
D03*
X446424D02*
D03*
Y756564D02*
D03*
X430924D02*
D03*
X446424Y685444D02*
D03*
X430924D02*
D03*
X108726Y634630D02*
D03*
X124226D02*
D03*
X108726Y652933D02*
D03*
X124226D02*
D03*
X108726Y671237D02*
D03*
X124226D02*
D03*
X108726Y689541D02*
D03*
X124226D02*
D03*
X108726Y707845D02*
D03*
X124226D02*
D03*
X108726Y726149D02*
D03*
X124226D02*
D03*
X108726Y744453D02*
D03*
X124226D02*
D03*
X460126Y502750D02*
D03*
X444626D02*
D03*
X412126D02*
D03*
X427626D02*
D03*
X341619D02*
D03*
X326119D02*
D03*
X293619D02*
D03*
X309119D02*
D03*
X217750Y502750D02*
D03*
X202250D02*
D03*
X169750D02*
D03*
X185250D02*
D03*
X115497Y580250D02*
D03*
X130997D02*
D03*
X98373Y502750D02*
D03*
X82873D02*
D03*
X50373D02*
D03*
X65873D02*
D03*
X50704Y672694D02*
D03*
X35204D02*
D03*
X50704Y690873D02*
D03*
X35204D02*
D03*
X50836Y709302D02*
D03*
X35336D02*
D03*
X313465Y122500D02*
D03*
X328965D02*
D03*
X313138Y104117D02*
D03*
X328638D02*
D03*
X157610Y102992D02*
D03*
X142110D02*
D03*
X419985Y188458D02*
D03*
X404485D02*
D03*
X193170Y403860D02*
D03*
X177670D02*
D03*
X193170Y386493D02*
D03*
X177670D02*
D03*
X157610Y246221D02*
D03*
X142110D02*
D03*
X157610Y266700D02*
D03*
X142110D02*
D03*
X157610Y123346D02*
D03*
X142110D02*
D03*
X157610Y164304D02*
D03*
X142110D02*
D03*
X157610Y143825D02*
D03*
X142110D02*
D03*
Y225742D02*
D03*
X157610D02*
D03*
X142110Y205263D02*
D03*
X157610D02*
D03*
X142110Y184783D02*
D03*
X157610D02*
D03*
D30*
X149300Y60960D02*
D03*
X79300D02*
D03*
D31*
X454307Y525250D02*
D03*
X415445D02*
D03*
Y530250D02*
D03*
Y535250D02*
D03*
Y540250D02*
D03*
Y545250D02*
D03*
Y550250D02*
D03*
X454307D02*
D03*
Y545250D02*
D03*
Y540250D02*
D03*
Y535250D02*
D03*
Y530250D02*
D03*
X335800D02*
D03*
Y535250D02*
D03*
Y540250D02*
D03*
Y545250D02*
D03*
Y550250D02*
D03*
X296938D02*
D03*
Y545250D02*
D03*
Y540250D02*
D03*
Y535250D02*
D03*
Y530250D02*
D03*
Y525250D02*
D03*
X335800D02*
D03*
X211931Y525250D02*
D03*
X173069D02*
D03*
Y530250D02*
D03*
Y535250D02*
D03*
Y540250D02*
D03*
Y545250D02*
D03*
Y550250D02*
D03*
X211931D02*
D03*
Y545250D02*
D03*
Y540250D02*
D03*
Y535250D02*
D03*
Y530250D02*
D03*
X92554D02*
D03*
Y535250D02*
D03*
Y540250D02*
D03*
Y545250D02*
D03*
Y550250D02*
D03*
X53692D02*
D03*
Y545250D02*
D03*
Y540250D02*
D03*
Y535250D02*
D03*
Y530250D02*
D03*
Y525250D02*
D03*
X92554D02*
D03*
D32*
X447376Y518319D02*
D03*
X442376D02*
D03*
X437376D02*
D03*
X432376D02*
D03*
X427376D02*
D03*
X422376D02*
D03*
Y557181D02*
D03*
X427376D02*
D03*
X432376D02*
D03*
X437376D02*
D03*
X442376D02*
D03*
X447376D02*
D03*
X328869D02*
D03*
X323870D02*
D03*
X318869D02*
D03*
X313869D02*
D03*
X308869D02*
D03*
X303869D02*
D03*
Y518319D02*
D03*
X308869D02*
D03*
X313869D02*
D03*
X318869D02*
D03*
X323870D02*
D03*
X328869D02*
D03*
X205000Y518319D02*
D03*
X200000D02*
D03*
X195000D02*
D03*
X190000D02*
D03*
X185000D02*
D03*
X180000D02*
D03*
Y557181D02*
D03*
X185000D02*
D03*
X190000D02*
D03*
X195000D02*
D03*
X200000D02*
D03*
X205000D02*
D03*
X85623D02*
D03*
X80623D02*
D03*
X75623D02*
D03*
X70623D02*
D03*
X65623D02*
D03*
X60623D02*
D03*
Y518319D02*
D03*
X65623D02*
D03*
X70623D02*
D03*
X75623D02*
D03*
X80623D02*
D03*
X85623D02*
D03*
D33*
X645160Y525565D02*
D03*
X632460D02*
D03*
Y582065D02*
D03*
X619760Y525565D02*
D03*
X657860Y582065D02*
D03*
X645160D02*
D03*
X657860Y525565D02*
D03*
X619760Y582065D02*
D03*
X572770Y582065D02*
D03*
X585470D02*
D03*
X560070Y525565D02*
D03*
X572770D02*
D03*
X598170Y582065D02*
D03*
X585470Y525565D02*
D03*
X560070Y582065D02*
D03*
X598170Y525565D02*
D03*
D34*
X175315Y276586D02*
D03*
X198315D02*
D03*
Y286086D02*
D03*
Y295586D02*
D03*
X175315D02*
D03*
Y286086D02*
D03*
D35*
X195806Y321999D02*
D03*
X176306Y362999D02*
D03*
Y321999D02*
D03*
X189306Y362999D02*
D03*
X182806D02*
D03*
X189306Y321999D02*
D03*
X182806D02*
D03*
X195806Y362999D02*
D03*
Y468524D02*
D03*
X182806Y427524D02*
D03*
X189306D02*
D03*
X182806Y468524D02*
D03*
X189306D02*
D03*
X176306Y427524D02*
D03*
Y468524D02*
D03*
X195806Y427524D02*
D03*
D36*
X726000Y440000D02*
D03*
Y427500D02*
D03*
Y415000D02*
D03*
Y402500D02*
D03*
Y390000D02*
D03*
Y377500D02*
D03*
Y365000D02*
D03*
Y340000D02*
D03*
Y352500D02*
D03*
Y543100D02*
D03*
Y705600D02*
D03*
Y693100D02*
D03*
Y680600D02*
D03*
Y668100D02*
D03*
Y655600D02*
D03*
Y630600D02*
D03*
Y643100D02*
D03*
Y593100D02*
D03*
Y580600D02*
D03*
Y568100D02*
D03*
Y555600D02*
D03*
Y618100D02*
D03*
Y605600D02*
D03*
Y718100D02*
D03*
D37*
X755000Y314500D02*
D03*
Y465500D02*
D03*
Y743600D02*
D03*
Y517600D02*
D03*
D38*
X611955Y157217D02*
D03*
X616447Y138717D02*
D03*
Y157187D02*
D03*
X611955Y138717D02*
D03*
X86199Y699510D02*
D03*
X86169Y682010D02*
D03*
X71699D02*
D03*
X71699Y699510D02*
D03*
D39*
X621203Y157188D02*
D03*
X607203Y138717D02*
D03*
Y157217D02*
D03*
X621203Y138717D02*
D03*
D40*
X622953Y155188D02*
D03*
X605453Y140717D02*
D03*
Y155217D02*
D03*
X622953Y140717D02*
D03*
X88199Y693008D02*
D03*
X69699Y688517D02*
D03*
X88169D02*
D03*
X69699Y693008D02*
D03*
D41*
X614214Y145458D02*
D03*
X614203Y150458D02*
D03*
D42*
X647136Y147487D02*
D03*
X653636D02*
D03*
X660136D02*
D03*
Y166987D02*
D03*
X653636D02*
D03*
X647136D02*
D03*
D43*
X653636Y132258D02*
D03*
Y106258D02*
D03*
X538808Y132258D02*
D03*
Y106258D02*
D03*
X513198Y169360D02*
D03*
Y195360D02*
D03*
X287616Y169596D02*
D03*
Y195595D02*
D03*
X187794Y169596D02*
D03*
Y195595D02*
D03*
D44*
X570255Y150962D02*
D03*
Y110962D02*
D03*
X472159Y117101D02*
D03*
Y157102D02*
D03*
D45*
X353060Y108576D02*
D03*
X379060D02*
D03*
X65461Y765048D02*
D03*
X39461D02*
D03*
X65144Y649948D02*
D03*
X39144D02*
D03*
D46*
X250528Y177182D02*
D03*
X263228D02*
D03*
X225128D02*
D03*
X212428D02*
D03*
X237828D02*
D03*
D47*
Y116682D02*
D03*
D48*
X459489Y587185D02*
D03*
X431027D02*
D03*
X340983D02*
D03*
X312520D02*
D03*
X188651Y587185D02*
D03*
X217113D02*
D03*
X97736D02*
D03*
X69274D02*
D03*
D49*
X390084Y659638D02*
D03*
X415084Y650138D02*
D03*
Y669138D02*
D03*
Y685698D02*
D03*
X390084Y695198D02*
D03*
X415084Y704698D02*
D03*
Y721258D02*
D03*
X390084Y730758D02*
D03*
X415084Y740258D02*
D03*
Y756818D02*
D03*
X390084Y766318D02*
D03*
X415084Y775818D02*
D03*
D50*
X640000Y676500D02*
D03*
X600000D02*
D03*
X560000D02*
D03*
X520000D02*
D03*
X640000Y651500D02*
D03*
X600000D02*
D03*
X560000D02*
D03*
X520000D02*
D03*
X540000D02*
D03*
X500000D02*
D03*
Y676500D02*
D03*
X540000D02*
D03*
X580000Y651500D02*
D03*
X620000D02*
D03*
Y676500D02*
D03*
X580000D02*
D03*
X310000D02*
D03*
X270000D02*
D03*
X230000D02*
D03*
X190000D02*
D03*
X330000Y651500D02*
D03*
X310000D02*
D03*
X290000D02*
D03*
X270000D02*
D03*
X250000D02*
D03*
X230000D02*
D03*
X210000D02*
D03*
X190000D02*
D03*
X210000Y676500D02*
D03*
X250000D02*
D03*
X290000D02*
D03*
X330000D02*
D03*
D51*
X334010Y289172D02*
D03*
Y273172D02*
D03*
D52*
X349062Y324515D02*
D03*
X365326Y340779D02*
D03*
X352598Y353507D02*
D03*
X336334Y337243D02*
D03*
D53*
X335287Y360972D02*
D03*
X324327Y350012D02*
D03*
D54*
X334296Y311537D02*
D03*
X323336Y322497D02*
D03*
D55*
X124675Y766307D02*
D03*
D56*
X108675D02*
D03*
D57*
X88199Y697760D02*
D03*
X88169Y683760D02*
D03*
X69699Y683760D02*
D03*
Y697760D02*
D03*
D58*
X81440Y690760D02*
D03*
X76440Y690749D02*
D03*
D59*
X79342Y734953D02*
D03*
X39342D02*
D03*
D60*
X52628Y627497D02*
D03*
Y620997D02*
D03*
Y614497D02*
D03*
X33128D02*
D03*
Y620997D02*
D03*
Y627497D02*
D03*
D61*
X127482Y441180D02*
D03*
Y451180D02*
D03*
Y461180D02*
D03*
Y471180D02*
D03*
X72212D02*
D03*
Y461180D02*
D03*
Y451180D02*
D03*
Y441180D02*
D03*
D62*
X101682Y428180D02*
D03*
Y484180D02*
D03*
X46412D02*
D03*
Y428180D02*
D03*
D63*
X81325Y331470D02*
D03*
Y394970D02*
D03*
D64*
X110325Y369470D02*
D03*
Y356970D02*
D03*
D65*
X538230Y177699D02*
D03*
D66*
Y193699D02*
D03*
D67*
X375715Y168676D02*
D03*
X321215D02*
D03*
D68*
X420000Y411716D02*
D03*
X425000D02*
D03*
X430000D02*
D03*
X435000D02*
D03*
X440000D02*
D03*
X445000D02*
D03*
X450000D02*
D03*
X455000D02*
D03*
X460000D02*
D03*
X465000D02*
D03*
X470000D02*
D03*
X475000D02*
D03*
X480000D02*
D03*
X485000D02*
D03*
X490000D02*
D03*
X495000D02*
D03*
X500000D02*
D03*
X505000D02*
D03*
X510000D02*
D03*
X515000D02*
D03*
X520000D02*
D03*
X525000D02*
D03*
X530000D02*
D03*
X535000D02*
D03*
X540000D02*
D03*
Y257284D02*
D03*
X535000D02*
D03*
X530000D02*
D03*
X525000D02*
D03*
X520000D02*
D03*
X515000D02*
D03*
X510000D02*
D03*
X505000D02*
D03*
X500000D02*
D03*
X495000D02*
D03*
X490000D02*
D03*
X485000D02*
D03*
X480000D02*
D03*
X475000D02*
D03*
X470000D02*
D03*
X465000D02*
D03*
X460000D02*
D03*
X455000D02*
D03*
X450000D02*
D03*
X445000D02*
D03*
X440000D02*
D03*
X435000D02*
D03*
X430000D02*
D03*
X425000D02*
D03*
X420000D02*
D03*
D69*
X557216Y394500D02*
D03*
Y389500D02*
D03*
Y384500D02*
D03*
Y379500D02*
D03*
Y374500D02*
D03*
Y369500D02*
D03*
Y364500D02*
D03*
Y359500D02*
D03*
Y354500D02*
D03*
Y349500D02*
D03*
Y344500D02*
D03*
Y339500D02*
D03*
Y334500D02*
D03*
Y329500D02*
D03*
Y324500D02*
D03*
Y319500D02*
D03*
Y314500D02*
D03*
Y309500D02*
D03*
Y304500D02*
D03*
Y299500D02*
D03*
Y294500D02*
D03*
Y289500D02*
D03*
Y284500D02*
D03*
Y279500D02*
D03*
Y274500D02*
D03*
X402784D02*
D03*
Y279500D02*
D03*
Y284500D02*
D03*
Y289500D02*
D03*
Y294500D02*
D03*
Y299500D02*
D03*
Y304500D02*
D03*
Y309500D02*
D03*
Y314500D02*
D03*
Y319500D02*
D03*
Y324500D02*
D03*
Y329500D02*
D03*
Y334500D02*
D03*
Y339500D02*
D03*
Y344500D02*
D03*
Y349500D02*
D03*
Y354500D02*
D03*
Y359500D02*
D03*
Y364500D02*
D03*
Y369500D02*
D03*
Y374500D02*
D03*
Y379500D02*
D03*
Y384500D02*
D03*
Y389500D02*
D03*
Y394500D02*
D03*
M02*
