M48
;Layer_Color=9474304
;FILE_FORMAT=4:2
METRIC,TZ
;TYPE=PLATED
T01F00S00C0.20
T02F00S00C0.50
T03F00S00C0.75
T04F00S00C0.95
T05F00S00C1.02
T06F00S00C1.10
T07F00S00C3.30
;TYPE=NON_PLATED
T08F00S00C2.30
%
T01
X109Y66
X209Y64
X309
X409
X509
X609
X709
X809
X909
X1009
X1109
X1209
X1309
X1409
X1509
X1609
X1709
X1809
X1909
X2009
X2109
X2209
X2309
X2409
X2378Y1419
X2303Y1988
X2304Y2157
X2104
X2103Y1988
X1850Y2226
X1503Y2188
Y1988
X1303
Y2188
X903
Y1988
X703
Y2188
X503
Y1988
X64Y1955
Y1855
Y1755
Y1655
Y1555
Y1455
Y1355
Y1255
Y1155
Y1055
Y955
Y855
Y755
Y655
Y555
Y455
Y355
Y255
Y155
X903Y588
X1103
X1303
Y788
X1503
X1103
X975Y828
Y1035
Y1449
X564Y1344
X64Y2055
Y2155
Y2255
X1708Y1452
X1828Y1552
X1738Y1030
X2985Y1032
X3372Y925
X3562Y933
X3915Y1177
X4026Y1291
X4156
Y1421
X4026
X4416
Y1291
X4348Y1770
X4409Y2076
X4512
X4614
X4717
X4820
X4922
X4869Y2288
X4699
X4585Y2291
X4200Y2288
X3503Y2188
Y1988
X3303
Y2188
X3103
Y1988
X2903Y2188
X2703
Y1988
X2524Y2085
X2583Y1633
X2675
X2629Y1534
X2527
X2733Y1532
X2450Y356
X2509Y64
X2609
X2709
X2809
X2909
X3009
X3109
X3209
X3309
X3409
X3509
X3609
X3709
X3809
X3909
X4009
X4109
X4209
X4309
X4409
X4509
X4609
X4709
X4809
X4909
X5009
X5109
X5209
X5309
X5409
X5509
X5609
X5709
X5809
X5909
X6009
X6109
X6209
X6309
X6409
X6375Y1323
X6208Y2030
X5876Y1981
X5448Y1912
X5321
X5382Y2007
X5503Y1788
Y1188
X5256Y1169
X5158Y878
X5888Y878
X3052Y360
X6509Y64
X6609
X6709
X6809
X6909
X7009
X7109
X7209
X7309
X7409
X7509
X7609
X7709
X7809
X7909
X8009
X8109
X8222Y69
X8339Y63
X8421Y89
X8436Y168
Y268
Y368
Y468
Y568
Y668
Y768
Y868
Y968
Y1068
Y1168
Y1268
Y1368
Y1468
Y1568
Y1668
Y1768
Y1868
Y1968
Y2068
Y2168
Y2268
X7703Y1988
Y1788
X7503
Y1588
X7303Y1988
X6457Y1941
X6497Y1572
X6576
X6524Y1455
X6450Y1370
X6450Y1243
X6601Y1244
X6601Y1370
X6703Y1188
X6521Y876
X6503Y2388
X6703Y2588
Y2788
Y2938
X6903Y2988
Y3188
X7303
Y2988
X7503
X7439Y3076
X7703Y2988
Y2788
X7303
X6903
X7211Y3400
X7315Y3400
X7503Y3388
X7703
Y3588
Y3788
Y3988
Y4188
Y4388
X7503
Y4188
Y3988
Y3788
Y3588
X7103Y3988
Y4188
X6937Y4076
Y3853
X7103Y4588
X7303
X7499Y4587
X7601Y4584
X7503Y4988
X7303
Y4788
X7103
Y4988
X7146Y5431
X7303Y5431
X7428Y5490
Y5588
Y5646
X7430Y5748
Y5840
Y5898
Y5998
Y6088
Y6145
X6711Y5867
X6703Y5457
X6503Y5388
Y5588
X6716Y5189
X6543Y4887
X6820Y4732
X6703Y4588
X8436Y4568
Y4668
Y4768
Y4868
Y4968
Y5068
Y5168
Y5268
Y5368
Y5468
Y5568
Y5668
Y5768
Y5868
Y5968
Y6068
Y6168
Y6268
Y4468
Y4368
Y4268
Y4168
Y4068
Y3968
Y3868
Y3768
Y3668
Y3568
Y3468
Y3368
Y3268
Y3168
Y3068
Y2968
Y2868
Y2768
Y2668
Y2568
Y2468
Y2368
X7503Y2388
X6076Y2347
X6007
X5625Y2517
X5671Y2622
X5674Y2694
X5284Y2730
Y2908
Y3086
Y3263
X5438Y3292
X5284Y3460
X5303Y3588
X5275Y3659
X5340Y3792
X5303Y3988
X5151Y3914
X5072Y3800
X4950Y3749
X4903Y3588
X5103
X4970Y3974
X5000Y4360
X4950Y4413
X4751Y4410
X4756Y4486
X4651
X4701Y4562
X4603Y4683
X4508Y4767
X4310Y4683
X4348Y4612
X4161Y4633
X4003
X4147Y4890
X4276Y4942
X4265Y5378
X4349
Y5453
X4377Y5649
X4244Y5652
X4175Y5555
X4072Y5652
X3999Y5964
X4147Y5977
X4303Y6188
X4503
X4466Y5923
X4696Y5913
X4852Y5891
X4924Y5548
X4749Y5475
X4543Y5572
X4668Y5175
X4664Y5028
X4865Y4994
X4924Y5075
X4903Y4788
X4796Y4890
X4802Y4334
X4500Y4255
X4103Y4188
X4065Y4117
X3952Y4061
X3903Y4188
X4237Y3970
X4167Y3692
X4237Y3619
X4167Y3445
X4237Y3264
X4267Y3086
X4303Y2988
X4150Y2979
X4214Y2908
X4150Y2795
X3870Y2812
Y2717
X3903Y2588
X4020Y2593
X4008Y2507
X3797Y2454
X3848Y3121
X3797Y3200
X3503Y3388
X3217Y3336
X2694Y3486
X2925Y2919
X2957Y2715
Y2577
X2703Y2588
X2770Y4407
X2875Y4483
X3018Y4489
Y4417
Y4346
Y4560
X2962Y4890
X3091Y4942
X3080Y5378
X3164
Y5453
X3191Y5649
X3059Y5652
X2990Y5555
X2887Y5652
X2903Y5988
X2800
Y6188
X2600
Y5995
X2500Y5547
X2496Y5080
X2591Y4994
X3479Y5028
X3545Y4994
X3669
X3735Y5080
X3851Y4994
X3482Y5175
X3564Y5475
X3739Y5548
X3358Y5572
X3289Y5884
X3510Y5941
X3667Y5891
X3303Y6188
X5904Y6095
X6103Y5988
Y5788
Y5588
Y5388
X5903
Y5588
X5703
X5473Y5463
X5623Y4968
X5354Y4732
X5288Y4630
X5446Y4584
X5537Y4437
X5503Y4188
X5703
X5771Y4150
X5829Y3595
X5900Y3645
X6036Y3495
X6269Y3533
Y3403
X6200Y3346
X6103Y3788
X6197Y4439
X6325Y4491
X6358Y4387
X6271Y4730
X6085Y4731
X5907
X6270Y6091
X4678Y3477
X4703Y3188
X4903
X4889Y3263
Y3086
X4903Y2988
X4889Y2908
X4889Y2731
X4703Y2788
Y2988
X4851Y2395
X4949Y2454
X5305Y2447
X2416Y2837
Y3025
X2316Y3657
X2089Y3784
X2129Y3871
X2048Y3999
X2039Y4079
X2069Y4355
X2316Y4402
X2306Y4994
X2240Y5028
X2244Y5175
X2431Y4994
X2325Y5475
X2119Y5572
X1953Y5649
X1820Y5652
X1752Y5555
X1648Y5651
X1570Y5878
X1231Y5891
X1077Y5941
X856Y5884
X759Y5649
X626Y5652
X558Y5555
X455Y5651
X208
X64Y5655
Y5755
Y5855
Y5955
Y6055
Y6155
Y6255
X428Y6260
Y6161
X456Y5957
X648Y5378
X731
Y5453
X926Y5572
X1131Y5475
X1302Y5547
X1302Y5080
X1247Y4994
X1113
X1046Y5028
X1050Y5175
X1188Y4890
X955Y4834
X1016Y4730
X818Y4783
X658Y4942
X451Y4829
X437Y4549
X351Y4542
X366Y4415
X466Y4266
X399Y4179
X64Y4155
Y4255
Y4355
Y4455
Y4555
Y4655
Y4755
Y4855
Y4955
Y5055
Y5155
Y5255
Y5355
Y5455
Y5555
X456Y5183
X722Y4412
Y4289
X772Y4098
X1019Y4046
X1059Y3876
X1051Y3709
X1165Y3712
X1161Y3561
X1058Y3558
X1416Y3530
X1303Y3388
Y2988
Y2588
X1503
X1703
X1503Y2388
X1303
X903
Y2588
X703
Y2788
X503
Y2988
Y3188
Y3388
Y3588
Y3788
X64Y3755
Y3855
Y3955
Y4055
Y3655
Y3555
Y3455
Y3355
Y3255
Y3155
Y3055
Y2955
Y2855
Y2755
Y2655
Y2555
Y2455
Y2355
X503Y2388
X703
X503Y2588
X869Y3315
X1829Y3348
X1893Y3369
X1690Y3865
X1706Y4448
X1513Y4712
X1501Y5075
X1723Y4891
X1852Y4942
X1841Y5378
X1925
Y5453
X2050Y5884
X2271Y5941
X2428Y5891
X1102Y4504
Y4384
X1169Y4299
X1367Y4237
X1272Y4140
X1297Y6404
X1335Y6530
X1307Y6712
X1242Y6895
X1157Y6998
X1346Y7301
Y7445
X1247
X1244Y7648
X1346Y7695
Y7581
X919Y7526
X819
X720
X620
X684Y7700
X784
X884
X984
X424
X503Y7788
X357Y7601
X425Y7400
X358Y7301
X503Y7188
X605Y6978
X634Y6499
X697Y6401
X356Y6451
X423Y6550
X64Y6555
Y6455
Y6355
Y6655
Y6755
Y6855
Y6955
Y7055
Y7155
Y7255
Y7355
Y7455
Y7555
Y7655
Y7755
Y7855
X60Y7951
X64Y8055
Y8155
Y8255
Y8355
X122Y8436
X263
X363
X463
X563
X663
X763
X863
X963
X1063
X1163
X1263
X1363
X1463
X1563
X1663
X1763
X1863
X1963
X2063
X2163
X2263
X2363
X2303Y8188
Y7988
Y7788
Y7588
Y7388
Y7188
X2103Y7388
Y7588
Y7788
Y7988
Y8188
X1903
Y7988
Y7788
Y7588
Y7388
Y7188
X2100Y6988
X2100Y6765
X1650Y6346
X903Y6588
Y8188
X1103
X1303
X1503
X1703
X703
Y7988
X2503
X2703
X2903
X3103
X3303
X3503
X3703
X3903
X4103
X4303
X4503
X4703
X4903
X5103
X5303
X5503
X5703
X5903
X6103
X6303
Y8188
X6103
X5903
X5703
X5503
X5303
X5103
X4903
X4703
X4503
X4303
X4103
X3903
X3703
X3503
X3303
X3103
X2903
X2703
X2503
X2463Y8436
X2563
X2663
X2763
X2863
X2963
X3063
X3163
X3263
X3363
X3463
X3563
X3663
X3763
X3863
X3963
X4063
X4163
X4263
X4363
X4463
X4563
X4663
X4763
X4863
X4963
X5063
X5163
X5263
X5363
X5463
X5563
X5663
X5763
X5863
X5963
X6063
X6163
X6263
X6363
X6303Y7788
Y7588
Y7388
Y7188
Y6988
Y6788
X6399Y6790
X6303Y6588
X6200Y6515
X6103Y6588
Y6788
X6000Y6735
X5903Y6788
X5800Y6765
X5703Y6788
X5599Y6736
X5400
Y6515
X5304Y6421
X5503Y6388
X5538Y6336
X5722Y6335
X5703Y6388
X6103
X6303
X5903Y6588
X6103Y6988
Y7188
Y7388
Y7588
Y7788
X5903
Y7588
Y7388
Y7188
X5703
Y7388
Y7588
Y7788
X5503
Y7588
Y7388
Y7188
X5303
Y7388
Y7588
Y7788
X5103
Y7588
Y7388
Y7188
Y6988
Y6788
X5204Y6788
X4903Y6788
Y6988
Y7188
Y7388
Y7588
Y7788
X4703
X4548Y7756
X4703Y7588
X4548Y7400
X4703Y7188
X4464Y7044
Y6689
X4503Y6588
X4903
X5000Y6515
X4303Y6388
X4103
X4067Y6691
X3903Y6788
X3703
X3503
X3300Y6765
X3304Y6988
X3303Y7388
Y7588
X3503
X3703
Y7788
X3903
X4067Y7757
X4067Y7402
Y7047
X3703Y7388
X3503Y7788
X3303
X3103
Y7588
Y7388
X2903
Y7588
Y7788
X2703
Y7588
Y7388
X2503
Y7588
Y7788
X2500Y6988
X2500Y6765
X2900
X2900Y6988
X2800Y6362
X2600
X6453Y6332
X6503Y6388
X6634Y6330
X6819Y6332
X6903Y6588
Y6788
Y6988
Y7188
Y7388
Y7588
Y7788
Y7988
X7103
X7303
X7503
X7703
Y8188
X7503
X7303
X7103
X6903
X6703
Y7988
Y7788
Y7588
X6503
Y7788
Y7988
Y8188
X6463Y8436
X6563
X6663
X6763
X6863
X6963
X7063
X7163
X7263
X7363
X7463
X7563
X7663
X7763
X7863
X7952Y8444
X8063Y8442
X8163Y8436
X8263
X8363
X8436Y8368
Y8268
Y8168
X8448Y8067
X8448Y7958
X8436Y7868
Y7768
Y7668
Y7568
Y7468
Y7368
Y7268
Y7168
Y7068
Y6968
Y6868
Y6768
Y6668
Y6568
Y6468
Y6368
X7303Y7056
Y7181
X7146Y7181
Y7056
X6703Y7188
X6503
Y7388
Y6988
X6703Y6788
X6503Y6588
T02
X196Y196
X360Y131
X524Y196
X593Y360
X524Y524
X360Y593
X196Y524
X127Y360
X7907
X7976Y524
X8140Y593
X8304Y524
X8372Y360
X8304Y196
X8140Y131
X7976Y196
X524Y7976
X360Y7911
X196Y7976
X127Y8140
X196Y8304
X360Y8372
X524Y8304
X593Y8140
X7907
X7976Y7976
X8140Y7911
X8304Y7976
X8372Y8140
X8304Y8304
X8140Y8372
X7976Y8304
T03
X2250Y500
Y700
X2450
X2650
X2850
Y500
X3050
X3250
Y700
X3050
X3450
X3650
Y500
X3450
X3850
X4050
Y700
X3850
X4250
X4450
X4650
X4850
X5050
Y500
X4850
X4650
X4450
X4250
X5250
X5450
Y700
X5250
X5650
Y500
X5850
X6050
Y700
X5850
X6250
Y500
X2650
X2450
T04
X1675Y6925
Y7400
X3525
Y6925
X4775
Y7400
X6625
Y6925
T05
X7373Y1138
Y1392
Y1646
Y1900
Y2154
X7627
Y1900
Y1646
Y1392
Y1138
Y2408
X7373
Y2662
X7627
T06
X1153Y1097
Y1351
Y1605
Y1885
Y2139
Y2393
Y2647
Y2901
T07
X360Y360
X8140
X360Y8140
X8140
T08
X1900Y600
X6600
M30
