G04*
G04 #@! TF.GenerationSoftware,Altium Limited,Altium Designer,24.1.2 (44)*
G04*
G04 Layer_Color=2752767*
%FSLAX44Y44*%
%MOMM*%
G71*
G04*
G04 #@! TF.SameCoordinates,6F585FF1-4DE3-4077-9EA4-C48F536BE3D4*
G04*
G04*
G04 #@! TF.FilePolarity,Positive*
G04*
G01*
G75*
%ADD20C,0.1270*%
%ADD176C,0.1693*%
D20*
X654920Y54920D02*
X657460Y60000D01*
X654920Y65080D01*
X660000Y62540D01*
X665080Y65080D01*
X662540Y60000D01*
X665080Y54920D01*
X660000Y57460D01*
X654920Y54920D01*
X184920D02*
X187460Y60000D01*
X184920Y65080D01*
X190000Y62540D01*
X195080Y65080D01*
X192540Y60000D01*
X195080Y54920D01*
X190000Y57460D01*
X184920Y54920D01*
X222460Y67460D02*
Y64920D01*
X227540D01*
Y67460D01*
X230080D01*
Y72540D01*
X227540D01*
Y75080D01*
X222460D01*
Y72540D01*
X219920D01*
Y67460D01*
X222460D01*
Y47460D02*
Y44920D01*
X227540D01*
Y47460D01*
X230080D01*
Y52540D01*
X227540D01*
Y55080D01*
X222460D01*
Y52540D01*
X219920D01*
Y47460D01*
X222460D01*
X242460Y67460D02*
Y64920D01*
X247540D01*
Y67460D01*
X250080D01*
Y72540D01*
X247540D01*
Y75080D01*
X242460D01*
Y72540D01*
X239920D01*
Y67460D01*
X242460D01*
Y47460D02*
Y44920D01*
X247540D01*
Y47460D01*
X250080D01*
Y52540D01*
X247540D01*
Y55080D01*
X242460D01*
Y52540D01*
X239920D01*
Y47460D01*
X242460D01*
X262460Y67460D02*
Y64920D01*
X267540D01*
Y67460D01*
X270080D01*
Y72540D01*
X267540D01*
Y75080D01*
X262460D01*
Y72540D01*
X259920D01*
Y67460D01*
X262460D01*
Y47460D02*
Y44920D01*
X267540D01*
Y47460D01*
X270080D01*
Y52540D01*
X267540D01*
Y55080D01*
X262460D01*
Y52540D01*
X259920D01*
Y47460D01*
X262460D01*
X282460Y67460D02*
Y64920D01*
X287540D01*
Y67460D01*
X290080D01*
Y72540D01*
X287540D01*
Y75080D01*
X282460D01*
Y72540D01*
X279920D01*
Y67460D01*
X282460D01*
Y47460D02*
Y44920D01*
X287540D01*
Y47460D01*
X290080D01*
Y52540D01*
X287540D01*
Y55080D01*
X282460D01*
Y52540D01*
X279920D01*
Y47460D01*
X282460D01*
X302460Y67460D02*
Y64920D01*
X307540D01*
Y67460D01*
X310080D01*
Y72540D01*
X307540D01*
Y75080D01*
X302460D01*
Y72540D01*
X299920D01*
Y67460D01*
X302460D01*
Y47460D02*
Y44920D01*
X307540D01*
Y47460D01*
X310080D01*
Y52540D01*
X307540D01*
Y55080D01*
X302460D01*
Y52540D01*
X299920D01*
Y47460D01*
X302460D01*
X322460Y67460D02*
Y64920D01*
X327540D01*
Y67460D01*
X330080D01*
Y72540D01*
X327540D01*
Y75080D01*
X322460D01*
Y72540D01*
X319920D01*
Y67460D01*
X322460D01*
Y47460D02*
Y44920D01*
X327540D01*
Y47460D01*
X330080D01*
Y52540D01*
X327540D01*
Y55080D01*
X322460D01*
Y52540D01*
X319920D01*
Y47460D01*
X322460D01*
X342460Y67460D02*
Y64920D01*
X347540D01*
Y67460D01*
X350080D01*
Y72540D01*
X347540D01*
Y75080D01*
X342460D01*
Y72540D01*
X339920D01*
Y67460D01*
X342460D01*
Y47460D02*
Y44920D01*
X347540D01*
Y47460D01*
X350080D01*
Y52540D01*
X347540D01*
Y55080D01*
X342460D01*
Y52540D01*
X339920D01*
Y47460D01*
X342460D01*
X362460Y67460D02*
Y64920D01*
X367540D01*
Y67460D01*
X370080D01*
Y72540D01*
X367540D01*
Y75080D01*
X362460D01*
Y72540D01*
X359920D01*
Y67460D01*
X362460D01*
Y47460D02*
Y44920D01*
X367540D01*
Y47460D01*
X370080D01*
Y52540D01*
X367540D01*
Y55080D01*
X362460D01*
Y52540D01*
X359920D01*
Y47460D01*
X362460D01*
X382460Y67460D02*
Y64920D01*
X387540D01*
Y67460D01*
X390080D01*
Y72540D01*
X387540D01*
Y75080D01*
X382460D01*
Y72540D01*
X379920D01*
Y67460D01*
X382460D01*
Y47460D02*
Y44920D01*
X387540D01*
Y47460D01*
X390080D01*
Y52540D01*
X387540D01*
Y55080D01*
X382460D01*
Y52540D01*
X379920D01*
Y47460D01*
X382460D01*
X402460Y67460D02*
Y64920D01*
X407540D01*
Y67460D01*
X410080D01*
Y72540D01*
X407540D01*
Y75080D01*
X402460D01*
Y72540D01*
X399920D01*
Y67460D01*
X402460D01*
Y47460D02*
Y44920D01*
X407540D01*
Y47460D01*
X410080D01*
Y52540D01*
X407540D01*
Y55080D01*
X402460D01*
Y52540D01*
X399920D01*
Y47460D01*
X402460D01*
X422460Y67460D02*
Y64920D01*
X427540D01*
Y67460D01*
X430080D01*
Y72540D01*
X427540D01*
Y75080D01*
X422460D01*
Y72540D01*
X419920D01*
Y67460D01*
X422460D01*
Y47460D02*
Y44920D01*
X427540D01*
Y47460D01*
X430080D01*
Y52540D01*
X427540D01*
Y55080D01*
X422460D01*
Y52540D01*
X419920D01*
Y47460D01*
X422460D01*
X442460Y67460D02*
Y64920D01*
X447540D01*
Y67460D01*
X450080D01*
Y72540D01*
X447540D01*
Y75080D01*
X442460D01*
Y72540D01*
X439920D01*
Y67460D01*
X442460D01*
Y47460D02*
Y44920D01*
X447540D01*
Y47460D01*
X450080D01*
Y52540D01*
X447540D01*
Y55080D01*
X442460D01*
Y52540D01*
X439920D01*
Y47460D01*
X442460D01*
X462460Y67460D02*
Y64920D01*
X467540D01*
Y67460D01*
X470080D01*
Y72540D01*
X467540D01*
Y75080D01*
X462460D01*
Y72540D01*
X459920D01*
Y67460D01*
X462460D01*
Y47460D02*
Y44920D01*
X467540D01*
Y47460D01*
X470080D01*
Y52540D01*
X467540D01*
Y55080D01*
X462460D01*
Y52540D01*
X459920D01*
Y47460D01*
X462460D01*
X482460Y67460D02*
Y64920D01*
X487540D01*
Y67460D01*
X490080D01*
Y72540D01*
X487540D01*
Y75080D01*
X482460D01*
Y72540D01*
X479920D01*
Y67460D01*
X482460D01*
Y47460D02*
Y44920D01*
X487540D01*
Y47460D01*
X490080D01*
Y52540D01*
X487540D01*
Y55080D01*
X482460D01*
Y52540D01*
X479920D01*
Y47460D01*
X482460D01*
X502460Y67460D02*
Y64920D01*
X507540D01*
Y67460D01*
X510080D01*
Y72540D01*
X507540D01*
Y75080D01*
X502460D01*
Y72540D01*
X499920D01*
Y67460D01*
X502460D01*
Y47460D02*
Y44920D01*
X507540D01*
Y47460D01*
X510080D01*
Y52540D01*
X507540D01*
Y55080D01*
X502460D01*
Y52540D01*
X499920D01*
Y47460D01*
X502460D01*
X522460Y67460D02*
Y64920D01*
X527540D01*
Y67460D01*
X530080D01*
Y72540D01*
X527540D01*
Y75080D01*
X522460D01*
Y72540D01*
X519920D01*
Y67460D01*
X522460D01*
Y47460D02*
Y44920D01*
X527540D01*
Y47460D01*
X530080D01*
Y52540D01*
X527540D01*
Y55080D01*
X522460D01*
Y52540D01*
X519920D01*
Y47460D01*
X522460D01*
X542460Y67460D02*
Y64920D01*
X547540D01*
Y67460D01*
X550080D01*
Y72540D01*
X547540D01*
Y75080D01*
X542460D01*
Y72540D01*
X539920D01*
Y67460D01*
X542460D01*
Y47460D02*
Y44920D01*
X547540D01*
Y47460D01*
X550080D01*
Y52540D01*
X547540D01*
Y55080D01*
X542460D01*
Y52540D01*
X539920D01*
Y47460D01*
X542460D01*
X562460Y67460D02*
Y64920D01*
X567540D01*
Y67460D01*
X570080D01*
Y72540D01*
X567540D01*
Y75080D01*
X562460D01*
Y72540D01*
X559920D01*
Y67460D01*
X562460D01*
Y47460D02*
Y44920D01*
X567540D01*
Y47460D01*
X570080D01*
Y52540D01*
X567540D01*
Y55080D01*
X562460D01*
Y52540D01*
X559920D01*
Y47460D01*
X562460D01*
X582460Y67460D02*
Y64920D01*
X587540D01*
Y67460D01*
X590080D01*
Y72540D01*
X587540D01*
Y75080D01*
X582460D01*
Y72540D01*
X579920D01*
Y67460D01*
X582460D01*
Y47460D02*
Y44920D01*
X587540D01*
Y47460D01*
X590080D01*
Y52540D01*
X587540D01*
Y55080D01*
X582460D01*
Y52540D01*
X579920D01*
Y47460D01*
X582460D01*
X602460Y67460D02*
Y64920D01*
X607540D01*
Y67460D01*
X610080D01*
Y72540D01*
X607540D01*
Y75080D01*
X602460D01*
Y72540D01*
X599920D01*
Y67460D01*
X602460D01*
Y47460D02*
Y44920D01*
X607540D01*
Y47460D01*
X610080D01*
Y52540D01*
X607540D01*
Y55080D01*
X602460D01*
Y52540D01*
X599920D01*
Y47460D01*
X602460D01*
X622460Y67460D02*
Y64920D01*
X627540D01*
Y67460D01*
X630080D01*
Y72540D01*
X627540D01*
Y75080D01*
X622460D01*
Y72540D01*
X619920D01*
Y67460D01*
X622460D01*
Y47460D02*
Y44920D01*
X627540D01*
Y47460D01*
X630080D01*
Y52540D01*
X627540D01*
Y55080D01*
X622460D01*
Y52540D01*
X619920D01*
Y47460D01*
X622460D01*
X275140Y163680D02*
X280220Y168760D01*
X285300Y163680D01*
X280220Y158600D01*
X275140Y163680D01*
Y176680D02*
X280220Y181760D01*
X285300Y176680D01*
X280220Y171600D01*
X275140Y176680D01*
X288140Y163680D02*
X293220Y168760D01*
X298300Y163680D01*
X293220Y158600D01*
X288140Y163680D01*
Y176680D02*
X293220Y181760D01*
X298300Y176680D01*
X293220Y171600D01*
X288140Y176680D01*
X301140Y163680D02*
X306220Y168760D01*
X311300Y163680D01*
X306220Y158600D01*
X301140Y163680D01*
Y176680D02*
X306220Y181760D01*
X311300Y176680D01*
X306220Y171600D01*
X301140Y176680D01*
X314140Y163680D02*
X319220Y168760D01*
X324300Y163680D01*
X319220Y158600D01*
X314140Y163680D01*
Y176680D02*
X319220Y181760D01*
X324300Y176680D01*
X319220Y171600D01*
X314140Y176680D01*
X757620Y210320D02*
Y220480D01*
X767780D01*
Y210320D01*
X757620D01*
X759652Y212352D02*
Y218448D01*
X765748D01*
Y212352D01*
X759652D01*
X757620Y184920D02*
Y195080D01*
X767780D01*
Y184920D01*
X757620D01*
X759652Y186952D02*
Y193048D01*
X765748D01*
Y186952D01*
X759652D01*
X732220Y261120D02*
Y271280D01*
X742380D01*
Y261120D01*
X732220D01*
X734252Y263152D02*
Y269248D01*
X740348D01*
Y263152D01*
X734252D01*
X757620Y261120D02*
Y271280D01*
X767780D01*
Y261120D01*
X757620D01*
X759652Y263152D02*
Y269248D01*
X765748D01*
Y263152D01*
X759652D01*
X732220Y235720D02*
Y245880D01*
X742380D01*
Y235720D01*
X732220D01*
X734252Y237752D02*
Y243848D01*
X740348D01*
Y237752D01*
X734252D01*
X757620Y235720D02*
Y245880D01*
X767780D01*
Y235720D01*
X757620D01*
X759652Y237752D02*
Y243848D01*
X765748D01*
Y237752D01*
X759652D01*
X732220Y210320D02*
Y220480D01*
X742380D01*
Y210320D01*
X732220D01*
X734252Y212352D02*
Y218448D01*
X740348D01*
Y212352D01*
X734252D01*
X732220Y184920D02*
Y195080D01*
X742380D01*
Y184920D01*
X732220D01*
X734252Y186952D02*
Y193048D01*
X740348D01*
Y186952D01*
X734252D01*
X732220Y159520D02*
Y169680D01*
X742380D01*
Y159520D01*
X732220D01*
X734252Y161552D02*
Y167648D01*
X740348D01*
Y161552D01*
X734252D01*
X757620Y159520D02*
Y169680D01*
X767780D01*
Y159520D01*
X757620D01*
X759652Y161552D02*
Y167648D01*
X765748D01*
Y161552D01*
X759652D01*
X732220Y134120D02*
Y144280D01*
X742380D01*
Y134120D01*
X732220D01*
X734252Y136152D02*
Y142248D01*
X740348D01*
Y136152D01*
X734252D01*
X757620Y134120D02*
Y144280D01*
X767780D01*
Y134120D01*
X757620D01*
X759652Y136152D02*
Y142248D01*
X765748D01*
Y136152D01*
X759652D01*
X732220Y108720D02*
Y118880D01*
X742380D01*
Y108720D01*
X732220D01*
X734252Y110752D02*
Y116848D01*
X740348D01*
Y110752D01*
X734252D01*
X757620Y108720D02*
Y118880D01*
X767780D01*
Y108720D01*
X757620D01*
X759652Y110752D02*
Y116848D01*
X765748D01*
Y110752D01*
X759652D01*
X110236Y187198D02*
Y197358D01*
X120396D01*
Y187198D01*
X110236D01*
Y212598D02*
Y222758D01*
X120396D01*
Y212598D01*
X110236D01*
Y237998D02*
Y248158D01*
X120396D01*
Y237998D01*
X110236D01*
Y263398D02*
Y273558D01*
X120396D01*
Y263398D01*
X110236D01*
Y288798D02*
Y298958D01*
X120396D01*
Y288798D01*
X110236D01*
Y155448D02*
Y165608D01*
X120396D01*
Y155448D01*
X110236D01*
Y130048D02*
Y140208D01*
X120396D01*
Y130048D01*
X110236D01*
Y104648D02*
Y114808D01*
X120396D01*
Y104648D01*
X110236D01*
X19560Y825360D02*
X22100Y827900D01*
X24640D01*
X22100Y830440D01*
X24640Y832980D01*
X22100D01*
X19560Y835520D01*
X17020Y832980D01*
X14480D01*
X17020Y830440D01*
X14480Y827900D01*
X17020D01*
X19560Y825360D01*
X52440Y792480D02*
X54980Y795020D01*
X57520D01*
X54980Y797560D01*
X57520Y800100D01*
X54980D01*
X52440Y802640D01*
X49900Y800100D01*
X47360D01*
X49900Y797560D01*
X47360Y795020D01*
X49900D01*
X52440Y792480D01*
X19560D02*
X22100Y795020D01*
X24640D01*
X22100Y797560D01*
X24640Y800100D01*
X22100D01*
X19560Y802640D01*
X17020Y800100D01*
X14480D01*
X17020Y797560D01*
X14480Y795020D01*
X17020D01*
X19560Y792480D01*
X52440Y825360D02*
X54980Y827900D01*
X57520D01*
X54980Y830440D01*
X57520Y832980D01*
X54980D01*
X52440Y835520D01*
X49900Y832980D01*
X47360D01*
X49900Y830440D01*
X47360Y827900D01*
X49900D01*
X52440Y825360D01*
X59250Y808920D02*
X61790Y811460D01*
X64330D01*
X61790Y814000D01*
X64330Y816540D01*
X61790D01*
X59250Y819080D01*
X56710Y816540D01*
X54170D01*
X56710Y814000D01*
X54170Y811460D01*
X56710D01*
X59250Y808920D01*
X36000Y786060D02*
X38540Y788600D01*
X41080D01*
X38540Y791140D01*
X41080Y793680D01*
X38540D01*
X36000Y796220D01*
X33460Y793680D01*
X30920D01*
X33460Y791140D01*
X30920Y788600D01*
X33460D01*
X36000Y786060D01*
X12750Y808920D02*
X15290Y811460D01*
X17830D01*
X15290Y814000D01*
X17830Y816540D01*
X15290D01*
X12750Y819080D01*
X10210Y816540D01*
X7670D01*
X10210Y814000D01*
X7670Y811460D01*
X10210D01*
X12750Y808920D01*
X36000Y832170D02*
X38540Y834710D01*
X41080D01*
X38540Y837250D01*
X41080Y839790D01*
X38540D01*
X36000Y842330D01*
X33460Y839790D01*
X30920D01*
X33460Y837250D01*
X30920Y834710D01*
X33460D01*
X36000Y832170D01*
Y808920D02*
X30920Y819080D01*
X41080D01*
X36000Y808920D01*
X814000Y30920D02*
X808920Y41080D01*
X819080D01*
X814000Y30920D01*
Y54170D02*
X816540Y56710D01*
X819080D01*
X816540Y59250D01*
X819080Y61790D01*
X816540D01*
X814000Y64330D01*
X811460Y61790D01*
X808920D01*
X811460Y59250D01*
X808920Y56710D01*
X811460D01*
X814000Y54170D01*
X790750Y30920D02*
X793290Y33460D01*
X795830D01*
X793290Y36000D01*
X795830Y38540D01*
X793290D01*
X790750Y41080D01*
X788210Y38540D01*
X785670D01*
X788210Y36000D01*
X785670Y33460D01*
X788210D01*
X790750Y30920D01*
X814000Y8060D02*
X816540Y10600D01*
X819080D01*
X816540Y13140D01*
X819080Y15680D01*
X816540D01*
X814000Y18220D01*
X811460Y15680D01*
X808920D01*
X811460Y13140D01*
X808920Y10600D01*
X811460D01*
X814000Y8060D01*
X837250Y30920D02*
X839790Y33460D01*
X842330D01*
X839790Y36000D01*
X842330Y38540D01*
X839790D01*
X837250Y41080D01*
X834710Y38540D01*
X832170D01*
X834710Y36000D01*
X832170Y33460D01*
X834710D01*
X837250Y30920D01*
X830440Y47360D02*
X832980Y49900D01*
X835520D01*
X832980Y52440D01*
X835520Y54980D01*
X832980D01*
X830440Y57520D01*
X827900Y54980D01*
X825360D01*
X827900Y52440D01*
X825360Y49900D01*
X827900D01*
X830440Y47360D01*
X797560Y14480D02*
X800100Y17020D01*
X802640D01*
X800100Y19560D01*
X802640Y22100D01*
X800100D01*
X797560Y24640D01*
X795020Y22100D01*
X792480D01*
X795020Y19560D01*
X792480Y17020D01*
X795020D01*
X797560Y14480D01*
X830440D02*
X832980Y17020D01*
X835520D01*
X832980Y19560D01*
X835520Y22100D01*
X832980D01*
X830440Y24640D01*
X827900Y22100D01*
X825360D01*
X827900Y19560D01*
X825360Y17020D01*
X827900D01*
X830440Y14480D01*
X797560Y47360D02*
X800100Y49900D01*
X802640D01*
X800100Y52440D01*
X802640Y54980D01*
X800100D01*
X797560Y57520D01*
X795020Y54980D01*
X792480D01*
X795020Y52440D01*
X792480Y49900D01*
X795020D01*
X797560Y47360D01*
X814000Y808920D02*
X808920Y819080D01*
X819080D01*
X814000Y808920D01*
Y832170D02*
X816540Y834710D01*
X819080D01*
X816540Y837250D01*
X819080Y839790D01*
X816540D01*
X814000Y842330D01*
X811460Y839790D01*
X808920D01*
X811460Y837250D01*
X808920Y834710D01*
X811460D01*
X814000Y832170D01*
X790750Y808920D02*
X793290Y811460D01*
X795830D01*
X793290Y814000D01*
X795830Y816540D01*
X793290D01*
X790750Y819080D01*
X788210Y816540D01*
X785670D01*
X788210Y814000D01*
X785670Y811460D01*
X788210D01*
X790750Y808920D01*
X814000Y786060D02*
X816540Y788600D01*
X819080D01*
X816540Y791140D01*
X819080Y793680D01*
X816540D01*
X814000Y796220D01*
X811460Y793680D01*
X808920D01*
X811460Y791140D01*
X808920Y788600D01*
X811460D01*
X814000Y786060D01*
X837250Y808920D02*
X839790Y811460D01*
X842330D01*
X839790Y814000D01*
X842330Y816540D01*
X839790D01*
X837250Y819080D01*
X834710Y816540D01*
X832170D01*
X834710Y814000D01*
X832170Y811460D01*
X834710D01*
X837250Y808920D01*
X830440Y825360D02*
X832980Y827900D01*
X835520D01*
X832980Y830440D01*
X835520Y832980D01*
X832980D01*
X830440Y835520D01*
X827900Y832980D01*
X825360D01*
X827900Y830440D01*
X825360Y827900D01*
X827900D01*
X830440Y825360D01*
X797560Y792480D02*
X800100Y795020D01*
X802640D01*
X800100Y797560D01*
X802640Y800100D01*
X800100D01*
X797560Y802640D01*
X795020Y800100D01*
X792480D01*
X795020Y797560D01*
X792480Y795020D01*
X795020D01*
X797560Y792480D01*
X830440D02*
X832980Y795020D01*
X835520D01*
X832980Y797560D01*
X835520Y800100D01*
X832980D01*
X830440Y802640D01*
X827900Y800100D01*
X825360D01*
X827900Y797560D01*
X825360Y795020D01*
X827900D01*
X830440Y792480D01*
X797560Y825360D02*
X800100Y827900D01*
X802640D01*
X800100Y830440D01*
X802640Y832980D01*
X800100D01*
X797560Y835520D01*
X795020Y832980D01*
X792480D01*
X795020Y830440D01*
X792480Y827900D01*
X795020D01*
X797560Y825360D01*
X36000Y30920D02*
X30920Y41080D01*
X41080D01*
X36000Y30920D01*
Y54170D02*
X38540Y56710D01*
X41080D01*
X38540Y59250D01*
X41080Y61790D01*
X38540D01*
X36000Y64330D01*
X33460Y61790D01*
X30920D01*
X33460Y59250D01*
X30920Y56710D01*
X33460D01*
X36000Y54170D01*
X12750Y30920D02*
X15290Y33460D01*
X17830D01*
X15290Y36000D01*
X17830Y38540D01*
X15290D01*
X12750Y41080D01*
X10210Y38540D01*
X7670D01*
X10210Y36000D01*
X7670Y33460D01*
X10210D01*
X12750Y30920D01*
X36000Y8060D02*
X38540Y10600D01*
X41080D01*
X38540Y13140D01*
X41080Y15680D01*
X38540D01*
X36000Y18220D01*
X33460Y15680D01*
X30920D01*
X33460Y13140D01*
X30920Y10600D01*
X33460D01*
X36000Y8060D01*
X59250Y30920D02*
X61790Y33460D01*
X64330D01*
X61790Y36000D01*
X64330Y38540D01*
X61790D01*
X59250Y41080D01*
X56710Y38540D01*
X54170D01*
X56710Y36000D01*
X54170Y33460D01*
X56710D01*
X59250Y30920D01*
X52440Y47360D02*
X54980Y49900D01*
X57520D01*
X54980Y52440D01*
X57520Y54980D01*
X54980D01*
X52440Y57520D01*
X49900Y54980D01*
X47360D01*
X49900Y52440D01*
X47360Y49900D01*
X49900D01*
X52440Y47360D01*
X19560Y14480D02*
X22100Y17020D01*
X24640D01*
X22100Y19560D01*
X24640Y22100D01*
X22100D01*
X19560Y24640D01*
X17020Y22100D01*
X14480D01*
X17020Y19560D01*
X14480Y17020D01*
X17020D01*
X19560Y14480D01*
X52440D02*
X54980Y17020D01*
X57520D01*
X54980Y19560D01*
X57520Y22100D01*
X54980D01*
X52440Y24640D01*
X49900Y22100D01*
X47360D01*
X49900Y19560D01*
X47360Y17020D01*
X49900D01*
X52440Y14480D01*
X19560Y47360D02*
X22100Y49900D01*
X24640D01*
X22100Y52440D01*
X24640Y54980D01*
X22100D01*
X19560Y57520D01*
X17020Y54980D01*
X14480D01*
X17020Y52440D01*
X14480Y49900D01*
X17020D01*
X19560Y47360D01*
X685908Y256803D02*
X690988Y261883D01*
X696068Y256803D01*
X690988Y251723D01*
X685908Y256803D01*
X699443Y205087D02*
X704523Y210167D01*
X709603Y205087D01*
X704523Y200007D01*
X699443Y205087D01*
X687930Y225204D02*
X693009Y230284D01*
X698090Y225204D01*
X693009Y220124D01*
X687930Y225204D01*
X698923Y257952D02*
X704003Y263032D01*
X709083Y257952D01*
X704003Y252872D01*
X698923Y257952D01*
X399565Y234466D02*
X404645Y239546D01*
X409725Y234466D01*
X404645Y229386D01*
X399565Y234466D01*
X399434Y225062D02*
X404514Y230142D01*
X409594Y225062D01*
X404514Y219982D01*
X399434Y225062D01*
X399565Y215658D02*
X404645Y220738D01*
X409725Y215658D01*
X404645Y210578D01*
X399565Y215658D01*
X389987D02*
X395067Y220738D01*
X400147Y215658D01*
X395067Y210578D01*
X389987Y215658D01*
X380409D02*
X385489Y220738D01*
X390569Y215658D01*
X385489Y210578D01*
X380409Y215658D01*
X370830D02*
X375910Y220738D01*
X380990Y215658D01*
X375910Y210578D01*
X370830Y215658D01*
X84489Y623167D02*
X89569Y628247D01*
X94649Y623167D01*
X89569Y618087D01*
X84489Y623167D01*
X84022Y642440D02*
X89102Y647520D01*
X94182Y642440D01*
X89102Y637360D01*
X84022Y642440D01*
X74619Y632570D02*
X79699Y637650D01*
X84779Y632570D01*
X79699Y627490D01*
X74619Y632570D01*
X58941Y621038D02*
X64021Y626118D01*
X69101Y621038D01*
X64021Y615958D01*
X58941Y621038D01*
Y632578D02*
X64021Y637658D01*
X69101Y632578D01*
X64021Y627498D01*
X58941Y632578D01*
X71261Y739078D02*
X76341Y744158D01*
X81421Y739078D01*
X76341Y733998D01*
X71261Y739078D01*
X91261D02*
X96341Y744158D01*
X101421Y739078D01*
X96341Y733998D01*
X91261Y739078D01*
X100664Y748948D02*
X105744Y754028D01*
X110824Y748948D01*
X105744Y743868D01*
X100664Y748948D01*
X80664D02*
X85744Y754028D01*
X90824Y748948D01*
X85744Y743868D01*
X80664Y748948D01*
X70067Y758818D02*
X75147Y763897D01*
X80227Y758818D01*
X75147Y753737D01*
X70067Y758818D01*
X110067D02*
X115147Y763897D01*
X120227Y758818D01*
X115147Y753737D01*
X110067Y758818D01*
X90067D02*
X95147Y763897D01*
X100227Y758818D01*
X95147Y753737D01*
X90067Y758818D01*
X290544Y256002D02*
X295625Y261082D01*
X300704Y256002D01*
X295625Y250922D01*
X290544Y256002D01*
X309282D02*
X314362Y261082D01*
X319442Y256002D01*
X314362Y250922D01*
X309282Y256002D01*
X732206Y675782D02*
X737287Y680862D01*
X742366Y675782D01*
X737287Y670702D01*
X732206Y675782D01*
X734625Y514177D02*
X739705Y519257D01*
X744785Y514177D01*
X739705Y509097D01*
X734625Y514177D01*
X735035Y539496D02*
X740115Y544576D01*
X745195Y539496D01*
X740115Y534416D01*
X735035Y539496D01*
X735361Y564296D02*
X740441Y569376D01*
X745521Y564296D01*
X740441Y559216D01*
X735361Y564296D01*
X735417Y588772D02*
X740497Y593852D01*
X745577Y588772D01*
X740497Y583692D01*
X735417Y588772D01*
X812206Y755782D02*
X817287Y760863D01*
X822366Y755782D01*
X817287Y750703D01*
X812206Y755782D01*
X802206Y735782D02*
X807287Y740863D01*
X812366Y735782D01*
X807287Y730703D01*
X802206Y735782D01*
X812206Y715782D02*
X817287Y720863D01*
X822366Y715782D01*
X817287Y710703D01*
X812206Y715782D01*
Y675782D02*
X817287Y680862D01*
X822366Y675782D01*
X817287Y670702D01*
X812206Y675782D01*
Y635782D02*
X817287Y640862D01*
X822366Y635782D01*
X817287Y630702D01*
X812206Y635782D01*
Y75782D02*
X817287Y80862D01*
X822366Y75782D01*
X817287Y70702D01*
X812206Y75782D01*
X792206Y755782D02*
X797287Y760863D01*
X802366Y755782D01*
X797287Y750703D01*
X792206Y755782D01*
X782206Y735782D02*
X787287Y740863D01*
X792366Y735782D01*
X787287Y730703D01*
X782206Y735782D01*
Y695782D02*
X787287Y700863D01*
X792366Y695782D01*
X787287Y690703D01*
X782206Y695782D01*
X792206Y675782D02*
X797287Y680862D01*
X802366Y675782D01*
X797287Y670702D01*
X792206Y675782D01*
X782206Y535782D02*
X787287Y540862D01*
X792366Y535782D01*
X787287Y530702D01*
X782206Y535782D01*
X772206Y715782D02*
X777287Y720863D01*
X782366Y715782D01*
X777287Y710703D01*
X772206Y715782D01*
X762206Y655782D02*
X767287Y660862D01*
X772366Y655782D01*
X767287Y650702D01*
X762206Y655782D01*
Y535782D02*
X767287Y540862D01*
X772366Y535782D01*
X767287Y530702D01*
X762206Y535782D01*
X772206Y35782D02*
X777287Y40862D01*
X782366Y35782D01*
X777287Y30702D01*
X772206Y35782D01*
X752206Y675782D02*
X757287Y680862D01*
X762366Y675782D01*
X757287Y670702D01*
X752206Y675782D01*
Y515782D02*
X757287Y520862D01*
X762366Y515782D01*
X757287Y510702D01*
X752206Y515782D01*
X722206Y695782D02*
X727287Y700863D01*
X732366Y695782D01*
X727287Y690703D01*
X722206Y695782D01*
X702206Y655782D02*
X707287Y660862D01*
X712366Y655782D01*
X707287Y650702D01*
X702206Y655782D01*
Y615782D02*
X707287Y620862D01*
X712366Y615782D01*
X707287Y610702D01*
X702206Y615782D01*
Y575782D02*
X707287Y580862D01*
X712366Y575782D01*
X707287Y570702D01*
X702206Y575782D01*
Y535782D02*
X707287Y540862D01*
X712366Y535782D01*
X707287Y530702D01*
X702206Y535782D01*
X232206Y35782D02*
X237286Y40862D01*
X242366Y35782D01*
X237286Y30702D01*
X232206Y35782D01*
X611928Y816996D02*
X617008Y822076D01*
X622088Y816996D01*
X617008Y811916D01*
X611928Y816996D01*
X51927Y776996D02*
X57007Y782076D01*
X62087Y776996D01*
X57007Y771916D01*
X51927Y776996D01*
X501928Y756996D02*
X507008Y762076D01*
X512088Y756996D01*
X507008Y751916D01*
X501928Y756996D01*
X171928Y816996D02*
X177008Y822076D01*
X182087Y816996D01*
X177008Y811916D01*
X171928Y816996D01*
X621928Y636996D02*
X627008Y642076D01*
X632088Y636996D01*
X627008Y631916D01*
X621928Y636996D01*
X191928Y296996D02*
X197008Y302076D01*
X202088Y296996D01*
X197008Y291915D01*
X191928Y296996D01*
X561928Y756996D02*
X567008Y762076D01*
X572088Y756996D01*
X567008Y751916D01*
X561928Y756996D01*
X681928Y716996D02*
X687008Y722076D01*
X692088Y716996D01*
X687008Y711916D01*
X681928Y716996D01*
X561928Y556996D02*
X567008Y562076D01*
X572088Y556996D01*
X567008Y551916D01*
X561928Y556996D01*
X511928Y736996D02*
X517008Y742076D01*
X522088Y736996D01*
X517008Y731916D01*
X511928Y736996D01*
X731928Y176995D02*
X737008Y182075D01*
X742088Y176995D01*
X737008Y171915D01*
X731928Y176995D01*
X761928Y436996D02*
X767008Y442076D01*
X772088Y436996D01*
X767008Y431916D01*
X761928Y436996D01*
Y396996D02*
X767008Y402076D01*
X772088Y396996D01*
X767008Y391916D01*
X761928Y396996D01*
X541928Y716996D02*
X547008Y722076D01*
X552088Y716996D01*
X547008Y711916D01*
X541928Y716996D01*
X461928Y756996D02*
X467008Y762076D01*
X472088Y756996D01*
X467008Y751916D01*
X461928Y756996D01*
X361928Y676996D02*
X367008Y682076D01*
X372088Y676996D01*
X367008Y671916D01*
X361928Y676996D01*
X691928Y416996D02*
X697008Y422076D01*
X702088Y416996D01*
X697008Y411916D01*
X691928Y416996D01*
X531928Y816996D02*
X537008Y822076D01*
X542088Y816996D01*
X537008Y811916D01*
X531928Y816996D01*
X331928Y736996D02*
X337008Y742076D01*
X342088Y736996D01*
X337008Y731916D01*
X331928Y736996D01*
X621928Y716996D02*
X627008Y722076D01*
X632088Y716996D01*
X627008Y711916D01*
X621928Y716996D01*
X431928Y696996D02*
X437008Y702076D01*
X442088Y696996D01*
X437008Y691916D01*
X431928Y696996D01*
X231928Y576996D02*
X237008Y582076D01*
X242088Y576996D01*
X237008Y571916D01*
X231928Y576996D01*
X121927Y76995D02*
X127008Y82075D01*
X132087Y76995D01*
X127008Y71915D01*
X121927Y76995D01*
X571928Y816996D02*
X577008Y822076D01*
X582088Y816996D01*
X577008Y811916D01*
X571928Y816996D01*
X101927Y316996D02*
X107008Y322076D01*
X112087Y316996D01*
X107008Y311915D01*
X101927Y316996D01*
X711928Y456996D02*
X717008Y462076D01*
X722088Y456996D01*
X717008Y451916D01*
X711928Y456996D01*
X101927Y36995D02*
X107008Y42075D01*
X112087Y36995D01*
X107008Y31915D01*
X101927Y36995D01*
X491928Y776996D02*
X497008Y782076D01*
X502088Y776996D01*
X497008Y771916D01*
X491928Y776996D01*
X311928Y816996D02*
X317008Y822076D01*
X322088Y816996D01*
X317008Y811916D01*
X311928Y816996D01*
X181928Y716996D02*
X187008Y722076D01*
X192088Y716996D01*
X187008Y711916D01*
X181928Y716996D01*
Y756996D02*
X187008Y762076D01*
X192088Y756996D01*
X187008Y751916D01*
X181928Y756996D01*
X331928Y776996D02*
X337008Y782076D01*
X342088Y776996D01*
X337008Y771916D01*
X331928Y776996D01*
X241928Y756996D02*
X247008Y762076D01*
X252088Y756996D01*
X247008Y751916D01*
X241928Y756996D01*
X221928D02*
X227008Y762076D01*
X232088Y756996D01*
X227008Y751916D01*
X221928Y756996D01*
X541928D02*
X547008Y762076D01*
X552088Y756996D01*
X547008Y751916D01*
X541928Y756996D01*
X601928Y716996D02*
X607008Y722076D01*
X612088Y716996D01*
X607008Y711916D01*
X601928Y716996D01*
X111927Y336996D02*
X117008Y342076D01*
X122087Y336996D01*
X117008Y331916D01*
X111927Y336996D01*
X371928Y136995D02*
X377008Y142075D01*
X382088Y136995D01*
X377008Y131915D01*
X371928Y136995D01*
X321928Y276996D02*
X327008Y282076D01*
X332088Y276996D01*
X327008Y271915D01*
X321928Y276996D01*
X501928D02*
X507008Y282076D01*
X512088Y276996D01*
X507008Y271915D01*
X501928Y276996D01*
X721928Y796996D02*
X727008Y802076D01*
X732088Y796996D01*
X727008Y791916D01*
X721928Y796996D01*
X311928Y776996D02*
X317008Y782076D01*
X322088Y776996D01*
X317008Y771916D01*
X311928Y776996D01*
X211928Y576996D02*
X217008Y582076D01*
X222088Y576996D01*
X217008Y571916D01*
X211928Y576996D01*
X531928Y776996D02*
X537008Y782076D01*
X542088Y776996D01*
X537008Y771916D01*
X531928Y776996D01*
X271928Y816996D02*
X277008Y822076D01*
X282088Y816996D01*
X277008Y811916D01*
X271928Y816996D01*
X141927Y36995D02*
X147008Y42075D01*
X152087Y36995D01*
X147008Y31915D01*
X141927Y36995D01*
X21927Y116995D02*
X27008Y122075D01*
X32088Y116995D01*
X27008Y111915D01*
X21927Y116995D01*
X491928Y536996D02*
X497008Y542076D01*
X502088Y536996D01*
X497008Y531916D01*
X491928Y536996D01*
X271928Y576996D02*
X277008Y582076D01*
X282088Y576996D01*
X277008Y571916D01*
X271928Y576996D01*
X291928Y776996D02*
X297008Y782076D01*
X302088Y776996D01*
X297008Y771916D01*
X291928Y776996D01*
X141927Y476996D02*
X147008Y482076D01*
X152087Y476996D01*
X147008Y471916D01*
X141927Y476996D01*
X481928Y716996D02*
X487008Y722076D01*
X492088Y716996D01*
X487008Y711916D01*
X481928Y716996D01*
X471928Y816996D02*
X477008Y822076D01*
X482088Y816996D01*
X477008Y811916D01*
X471928Y816996D01*
X711928D02*
X717008Y822076D01*
X722088Y816996D01*
X717008Y811916D01*
X711928Y816996D01*
X381928Y116995D02*
X387008Y122075D01*
X392088Y116995D01*
X387008Y111915D01*
X381928Y116995D01*
X281928Y796996D02*
X287008Y802076D01*
X292088Y796996D01*
X287008Y791916D01*
X281928Y796996D01*
X591928Y816996D02*
X597008Y822076D01*
X602088Y816996D01*
X597008Y811916D01*
X591928Y816996D01*
X361928Y436996D02*
X367008Y442076D01*
X372088Y436996D01*
X367008Y431916D01*
X361928Y436996D01*
X751928Y416996D02*
X757008Y422076D01*
X762088Y416996D01*
X757008Y411916D01*
X751928Y416996D01*
X551928Y776996D02*
X557008Y782076D01*
X562088Y776996D01*
X557008Y771916D01*
X551928Y776996D01*
X641928Y556996D02*
X647008Y562076D01*
X652088Y556996D01*
X647008Y551916D01*
X641928Y556996D01*
X341928Y756996D02*
X347008Y762076D01*
X352088Y756996D01*
X347008Y751916D01*
X341928Y756996D01*
X51927Y96995D02*
X57007Y102075D01*
X62087Y96995D01*
X57007Y91915D01*
X51927Y96995D01*
X601928Y556996D02*
X607008Y562076D01*
X612088Y556996D01*
X607008Y551916D01*
X601928Y556996D01*
X661928Y756996D02*
X667008Y762076D01*
X672088Y756996D01*
X667008Y751916D01*
X661928Y756996D01*
X301928Y796996D02*
X307008Y802076D01*
X312088Y796996D01*
X307008Y791916D01*
X301928Y796996D01*
X551928Y736996D02*
X557008Y742076D01*
X562088Y736996D01*
X557008Y731916D01*
X551928Y736996D01*
X231928Y816996D02*
X237008Y822076D01*
X242088Y816996D01*
X237008Y811916D01*
X231928Y816996D01*
X111927D02*
X117008Y822076D01*
X122087Y816996D01*
X117008Y811916D01*
X111927Y816996D01*
X391928Y776996D02*
X397008Y782076D01*
X402088Y776996D01*
X397008Y771916D01*
X391928Y776996D01*
X661928Y436996D02*
X667008Y442076D01*
X672088Y436996D01*
X667008Y431916D01*
X661928Y436996D01*
X651928Y816996D02*
X657008Y822076D01*
X662088Y816996D01*
X657008Y811916D01*
X651928Y816996D01*
X561928Y796996D02*
X567008Y802076D01*
X572088Y796996D01*
X567008Y791916D01*
X561928Y796996D01*
X651928Y656996D02*
X657008Y662076D01*
X662088Y656996D01*
X657008Y651916D01*
X651928Y656996D01*
X341928Y156995D02*
X347008Y162075D01*
X352088Y156995D01*
X347008Y151915D01*
X341928Y156995D01*
X371928Y776996D02*
X377008Y782076D01*
X382088Y776996D01*
X377008Y771916D01*
X371928Y776996D01*
X771928Y456996D02*
X777008Y462076D01*
X782088Y456996D01*
X777008Y451916D01*
X771928Y456996D01*
X251928Y816996D02*
X257008Y822076D01*
X262088Y816996D01*
X257008Y811916D01*
X251928Y816996D01*
X451928Y136995D02*
X457008Y142075D01*
X462088Y136995D01*
X457008Y131915D01*
X451928Y136995D01*
X341928Y676996D02*
X347008Y682076D01*
X352088Y676996D01*
X347008Y671916D01*
X341928Y676996D01*
X201928Y796996D02*
X207008Y802076D01*
X212088Y796996D01*
X207008Y791916D01*
X201928Y796996D01*
X671928Y776996D02*
X677008Y782076D01*
X682088Y776996D01*
X677008Y771916D01*
X671928Y776996D01*
X681928Y676996D02*
X687008Y682076D01*
X692088Y676996D01*
X687008Y671916D01*
X681928Y676996D01*
X481928Y596996D02*
X487008Y602076D01*
X492088Y596996D01*
X487008Y591916D01*
X481928Y596996D01*
X211928Y776996D02*
X217008Y782076D01*
X222088Y776996D01*
X217008Y771916D01*
X211928Y776996D01*
X741928Y436996D02*
X747008Y442076D01*
X752088Y436996D01*
X747008Y431916D01*
X741928Y436996D01*
X141927Y396996D02*
X147008Y402076D01*
X152087Y396996D01*
X147008Y391916D01*
X141927Y396996D01*
X561928Y716996D02*
X567008Y722076D01*
X572088Y716996D01*
X567008Y711916D01*
X561928Y716996D01*
X361928Y796996D02*
X367008Y802076D01*
X372088Y796996D01*
X367008Y791916D01*
X361928Y796996D01*
X401928D02*
X407008Y802076D01*
X412088Y796996D01*
X407008Y791916D01*
X401928Y796996D01*
X651928Y456996D02*
X657008Y462076D01*
X662088Y456996D01*
X657008Y451916D01*
X651928Y456996D01*
X231928Y776996D02*
X237008Y782076D01*
X242088Y776996D01*
X237008Y771916D01*
X231928Y776996D01*
X611928Y736996D02*
X617008Y742076D01*
X622088Y736996D01*
X617008Y731916D01*
X611928Y736996D01*
X761928Y356996D02*
X767008Y362076D01*
X772088Y356996D01*
X767008Y351916D01*
X761928Y356996D01*
X721928Y476996D02*
X727008Y482076D01*
X732088Y476996D01*
X727008Y471916D01*
X721928Y476996D01*
X681928Y756996D02*
X687008Y762076D01*
X692088Y756996D01*
X687008Y751916D01*
X681928Y756996D01*
X571928Y736996D02*
X577008Y742076D01*
X582088Y736996D01*
X577008Y731916D01*
X571928Y736996D01*
X501928Y796996D02*
X507008Y802076D01*
X512088Y796996D01*
X507008Y791916D01*
X501928Y796996D01*
X411928Y816996D02*
X417008Y822076D01*
X422088Y816996D01*
X417008Y811916D01*
X411928Y816996D01*
X741928Y796996D02*
X747008Y802076D01*
X752088Y796996D01*
X747008Y791916D01*
X741928Y796996D01*
X691928Y456996D02*
X697008Y462076D01*
X702088Y456996D01*
X697008Y451916D01*
X691928Y456996D01*
X301928Y756996D02*
X307008Y762076D01*
X312088Y756996D01*
X307008Y751916D01*
X301928Y756996D01*
X601928D02*
X607008Y762076D01*
X612088Y756996D01*
X607008Y751916D01*
X601928Y756996D01*
X451928Y576996D02*
X457008Y582076D01*
X462088Y576996D01*
X457008Y571916D01*
X451928Y576996D01*
X431928Y816996D02*
X437008Y822076D01*
X442088Y816996D01*
X437008Y811916D01*
X431928Y816996D01*
X91927D02*
X97008Y822076D01*
X102087Y816996D01*
X97008Y811916D01*
X91927Y816996D01*
X501928Y716996D02*
X507008Y722076D01*
X512088Y716996D01*
X507008Y711916D01*
X501928Y716996D01*
X621928Y796996D02*
X627008Y802076D01*
X632088Y796996D01*
X627008Y791916D01*
X621928Y796996D01*
X131927Y336996D02*
X137008Y342076D01*
X142087Y336996D01*
X137008Y331916D01*
X131927Y336996D01*
X81927Y356996D02*
X87008Y362076D01*
X92087Y356996D01*
X87008Y351916D01*
X81927Y356996D01*
X531928Y736996D02*
X537008Y742076D01*
X542088Y736996D01*
X537008Y731916D01*
X531928Y736996D01*
X431928Y336996D02*
X437008Y342076D01*
X442088Y336996D01*
X437008Y331916D01*
X431928Y336996D01*
X571928Y136995D02*
X577008Y142075D01*
X582088Y136995D01*
X577008Y131915D01*
X571928Y136995D01*
X671928Y816996D02*
X677008Y822076D01*
X682088Y816996D01*
X677008Y811916D01*
X671928Y816996D01*
X601928Y796996D02*
X607008Y802076D01*
X612088Y796996D01*
X607008Y791916D01*
X601928Y796996D01*
X521928Y756996D02*
X527008Y762076D01*
X532088Y756996D01*
X527008Y751916D01*
X521928Y756996D01*
X671928Y136995D02*
X677008Y142075D01*
X682088Y136995D01*
X677008Y131915D01*
X671928Y136995D01*
X91927Y376996D02*
X97008Y382076D01*
X102087Y376996D01*
X97008Y371916D01*
X91927Y376996D01*
X611928Y696996D02*
X617008Y702076D01*
X622088Y696996D01*
X617008Y691916D01*
X611928Y696996D01*
X361928Y756996D02*
X367008Y762076D01*
X372088Y756996D01*
X367008Y751916D01*
X361928Y756996D01*
X211928Y736996D02*
X217008Y742076D01*
X222088Y736996D01*
X217008Y731916D01*
X211928Y736996D01*
X661928Y716996D02*
X667008Y722076D01*
X672088Y716996D01*
X667008Y711916D01*
X661928Y716996D01*
X491928Y496996D02*
X497008Y502076D01*
X502088Y496996D01*
X497008Y491916D01*
X491928Y496996D01*
X431928Y136995D02*
X437008Y142075D01*
X442088Y136995D01*
X437008Y131915D01*
X431928Y136995D01*
X91927Y496996D02*
X97008Y502076D01*
X102087Y496996D01*
X97008Y491916D01*
X91927Y496996D01*
X71927Y816996D02*
X77007Y822076D01*
X82087Y816996D01*
X77007Y811916D01*
X71927Y816996D01*
X651928Y776996D02*
X657008Y782076D01*
X662088Y776996D01*
X657008Y771916D01*
X651928Y776996D01*
X121927Y116995D02*
X127008Y122075D01*
X132087Y116995D01*
X127008Y111915D01*
X121927Y116995D01*
X441928Y796996D02*
X447008Y802076D01*
X452088Y796996D01*
X447008Y791916D01*
X441928Y796996D01*
X51927Y176995D02*
X57007Y182075D01*
X62087Y176995D01*
X57007Y171915D01*
X51927Y176995D01*
X291928Y816996D02*
X297008Y822076D01*
X302088Y816996D01*
X297008Y811916D01*
X291928Y816996D01*
X151927D02*
X157008Y822076D01*
X162087Y816996D01*
X157008Y811916D01*
X151927Y816996D01*
X161928Y36995D02*
X167008Y42075D01*
X172087Y36995D01*
X167008Y31915D01*
X161928Y36995D01*
X511928Y816996D02*
X517008Y822076D01*
X522088Y816996D01*
X517008Y811916D01*
X511928Y816996D01*
X521928Y796996D02*
X527008Y802076D01*
X532088Y796996D01*
X527008Y791916D01*
X521928Y796996D01*
X201928Y756996D02*
X207008Y762076D01*
X212088Y756996D01*
X207008Y751916D01*
X201928Y756996D01*
X601928Y516996D02*
X607008Y522076D01*
X612088Y516996D01*
X607008Y511916D01*
X601928Y516996D01*
X341928Y796996D02*
X347008Y802076D01*
X352088Y796996D01*
X347008Y791916D01*
X341928Y796996D01*
X111927Y56995D02*
X117008Y62075D01*
X122087Y56995D01*
X117008Y51915D01*
X111927Y56995D01*
X351928Y576996D02*
X357008Y582076D01*
X362088Y576996D01*
X357008Y571916D01*
X351928Y576996D01*
X451928Y816996D02*
X457008Y822076D01*
X462088Y816996D01*
X457008Y811916D01*
X451928Y816996D01*
X491928D02*
X497008Y822076D01*
X502088Y816996D01*
X497008Y811916D01*
X491928Y816996D01*
X431928Y496996D02*
X437008Y502076D01*
X442088Y496996D01*
X437008Y491916D01*
X431928Y496996D01*
X191928Y736996D02*
X197008Y742076D01*
X202088Y736996D01*
X197008Y731916D01*
X191928Y736996D01*
X241928Y796996D02*
X247008Y802076D01*
X252088Y796996D01*
X247008Y791916D01*
X241928Y796996D01*
X91927Y56995D02*
X97008Y62075D01*
X102087Y56995D01*
X97008Y51915D01*
X91927Y56995D01*
X261928Y156995D02*
X267008Y162075D01*
X272088Y156995D01*
X267008Y151915D01*
X261928Y156995D01*
X201928Y276996D02*
X207008Y282076D01*
X212088Y276996D01*
X207008Y271915D01*
X201928Y276996D01*
X771928Y376996D02*
X777008Y382076D01*
X782088Y376996D01*
X777008Y371916D01*
X771928Y376996D01*
X701928Y476996D02*
X707008Y482076D01*
X712088Y476996D01*
X707008Y471916D01*
X701928Y476996D01*
X151927Y96995D02*
X157008Y102075D01*
X162087Y96995D01*
X157008Y91915D01*
X151927Y96995D01*
X141927Y76995D02*
X147008Y82075D01*
X152087Y76995D01*
X147008Y71915D01*
X141927Y76995D01*
X191928Y696996D02*
X197008Y702076D01*
X202088Y696996D01*
X197008Y691916D01*
X191928Y696996D01*
X611928Y776996D02*
X617008Y782076D01*
X622088Y776996D01*
X617008Y771916D01*
X611928Y776996D01*
X751928Y376996D02*
X757008Y382076D01*
X762088Y376996D01*
X757008Y371916D01*
X751928Y376996D01*
X671928Y736996D02*
X677008Y742076D01*
X682088Y736996D01*
X677008Y731916D01*
X671928Y736996D01*
X271928Y696996D02*
X277008Y702076D01*
X282088Y696996D01*
X277008Y691916D01*
X271928Y696996D01*
X351928Y816996D02*
X357008Y822076D01*
X362088Y816996D01*
X357008Y811916D01*
X351928Y816996D01*
X221928Y796996D02*
X227008Y802076D01*
X232088Y796996D01*
X227008Y791916D01*
X221928Y796996D01*
X391928Y576996D02*
X397008Y582076D01*
X402088Y576996D01*
X397008Y571916D01*
X391928Y576996D01*
X661928Y796996D02*
X667008Y802076D01*
X672088Y796996D01*
X667008Y791916D01*
X661928Y796996D01*
X641928Y716996D02*
X647008Y722076D01*
X652088Y716996D01*
X647008Y711916D01*
X641928Y716996D01*
X281928Y276996D02*
X287008Y282076D01*
X292088Y276996D01*
X287008Y271915D01*
X281928Y276996D01*
X231928Y736996D02*
X237008Y742076D01*
X242088Y736996D01*
X237008Y731916D01*
X231928Y736996D01*
X41927Y156995D02*
X47007Y162075D01*
X52087Y156995D01*
X47007Y151915D01*
X41927Y156995D01*
X471928Y776996D02*
X477008Y782076D01*
X482088Y776996D01*
X477008Y771916D01*
X471928Y776996D01*
X691928Y736996D02*
X697008Y742076D01*
X702088Y736996D01*
X697008Y731916D01*
X691928Y736996D01*
X271928Y776996D02*
X277008Y782076D01*
X282088Y776996D01*
X277008Y771916D01*
X271928Y776996D01*
X691928Y656996D02*
X697008Y662076D01*
X702088Y656996D01*
X697008Y651916D01*
X691928Y656996D01*
X761928Y796996D02*
X767008Y802076D01*
X772088Y796996D01*
X767008Y791916D01*
X761928Y796996D01*
X31927Y776996D02*
X37008Y782076D01*
X42087Y776996D01*
X37008Y771916D01*
X31927Y776996D01*
X621928Y756996D02*
X627008Y762076D01*
X632088Y756996D01*
X627008Y751916D01*
X621928Y756996D01*
X381928Y676996D02*
X387008Y682076D01*
X392088Y676996D01*
X387008Y671916D01*
X381928Y676996D01*
X131927Y816996D02*
X137008Y822076D01*
X142087Y816996D01*
X137008Y811916D01*
X131927Y816996D01*
X631928D02*
X637008Y822076D01*
X642088Y816996D01*
X637008Y811916D01*
X631928Y816996D01*
X491928Y696996D02*
X497008Y702076D01*
X502088Y696996D01*
X497008Y691916D01*
X491928Y696996D01*
X511928Y776996D02*
X517008Y782076D01*
X522088Y776996D01*
X517008Y771916D01*
X511928Y776996D01*
X481928Y676996D02*
X487008Y682076D01*
X492088Y676996D01*
X487008Y671916D01*
X481928Y676996D01*
X391928Y816996D02*
X397008Y822076D01*
X402088Y816996D01*
X397008Y811916D01*
X391928Y816996D01*
X711928Y496996D02*
X717008Y502076D01*
X722088Y496996D01*
X717008Y491916D01*
X711928Y496996D01*
X121927Y36995D02*
X127008Y42075D01*
X132087Y36995D01*
X127008Y31915D01*
X121927Y36995D01*
X741928Y396996D02*
X747008Y402076D01*
X752088Y396996D01*
X747008Y391916D01*
X741928Y396996D01*
X211928Y816996D02*
X217008Y822076D01*
X222088Y816996D01*
X217008Y811916D01*
X211928Y816996D01*
X591928Y736996D02*
X597008Y742076D01*
X602088Y736996D01*
X597008Y731916D01*
X591928Y736996D01*
X491928D02*
X497008Y742076D01*
X502088Y736996D01*
X497008Y731916D01*
X491928Y736996D01*
X121927Y276996D02*
X127008Y282076D01*
X132087Y276996D01*
X127008Y271915D01*
X121927Y276996D01*
X291928Y736996D02*
X297008Y742076D01*
X302088Y736996D01*
X297008Y731916D01*
X291928Y736996D01*
X271928D02*
X277008Y742076D01*
X282088Y736996D01*
X277008Y731916D01*
X271928Y736996D01*
X581928Y756996D02*
X587008Y762076D01*
X592088Y756996D01*
X587008Y751916D01*
X581928Y756996D01*
X331928Y816996D02*
X337008Y822076D01*
X342088Y816996D01*
X337008Y811916D01*
X331928Y816996D01*
X591928Y776996D02*
X597008Y782076D01*
X602088Y776996D01*
X597008Y771916D01*
X591928Y776996D01*
X281928Y756996D02*
X287008Y762076D01*
X292088Y756996D01*
X287008Y751916D01*
X281928Y756996D01*
X431928Y656996D02*
X437008Y662076D01*
X442088Y656996D01*
X437008Y651916D01*
X431928Y656996D01*
X351928Y776996D02*
X357008Y782076D01*
X362088Y776996D01*
X357008Y771916D01*
X351928Y776996D01*
X181928Y796996D02*
X187008Y802076D01*
X192088Y796996D01*
X187008Y791916D01*
X181928Y796996D01*
X541928D02*
X547008Y802076D01*
X552088Y796996D01*
X547008Y791916D01*
X541928Y796996D01*
X321928D02*
X327008Y802076D01*
X332088Y796996D01*
X327008Y791916D01*
X321928Y796996D01*
X461928Y596996D02*
X467008Y602076D01*
X472088Y596996D01*
X467008Y591916D01*
X461928Y596996D01*
X671928Y336996D02*
X677008Y342076D01*
X682088Y336996D01*
X677008Y331916D01*
X671928Y336996D01*
X131927Y296996D02*
X137008Y302076D01*
X142087Y296996D01*
X137008Y291915D01*
X131927Y296996D01*
X641928Y756996D02*
X647008Y762076D01*
X652088Y756996D01*
X647008Y751916D01*
X641928Y756996D01*
X311928Y736996D02*
X317008Y742076D01*
X322088Y736996D01*
X317008Y731916D01*
X311928Y736996D01*
X131927Y56995D02*
X137008Y62075D01*
X142087Y56995D01*
X137008Y51915D01*
X131927Y56995D01*
X751928Y816996D02*
X757008Y822076D01*
X762088Y816996D01*
X757008Y811916D01*
X751928Y816996D01*
X511928Y136995D02*
X517008Y142075D01*
X522088Y136995D01*
X517008Y131915D01*
X511928Y136995D01*
X291928Y536996D02*
X297008Y542076D01*
X302088Y536996D01*
X297008Y531916D01*
X291928Y536996D01*
X691928Y816996D02*
X697008Y822076D01*
X702088Y816996D01*
X697008Y811916D01*
X691928Y816996D01*
X251928Y776996D02*
X257008Y782076D01*
X262088Y776996D01*
X257008Y771916D01*
X251928Y776996D01*
X321928Y756996D02*
X327008Y762076D01*
X332088Y756996D01*
X327008Y751916D01*
X321928Y756996D01*
X251928Y736996D02*
X257008Y742076D01*
X262088Y736996D01*
X257008Y731916D01*
X251928Y736996D01*
X731928Y816996D02*
X737008Y822076D01*
X742088Y816996D01*
X737008Y811916D01*
X731928Y816996D01*
X771928D02*
X777008Y822076D01*
X782088Y816996D01*
X777008Y811916D01*
X771928Y816996D01*
X331928Y576996D02*
X337008Y582076D01*
X342088Y576996D01*
X337008Y571916D01*
X331928Y576996D01*
X481928Y756996D02*
X487008Y762076D01*
X492088Y756996D01*
X487008Y751916D01*
X481928Y756996D01*
X421928Y796996D02*
X427008Y802076D01*
X432088Y796996D01*
X427008Y791916D01*
X421928Y796996D01*
X381928D02*
X387008Y802076D01*
X392088Y796996D01*
X387008Y791916D01*
X381928Y796996D01*
X701928D02*
X707008Y802076D01*
X712088Y796996D01*
X707008Y791916D01*
X701928Y796996D01*
X311928Y696996D02*
X317008Y702076D01*
X322088Y696996D01*
X317008Y691916D01*
X311928Y696996D01*
X631928Y776996D02*
X637008Y782076D01*
X642088Y776996D01*
X637008Y771916D01*
X631928Y776996D01*
X261928Y796996D02*
X267008Y802076D01*
X272088Y796996D01*
X267008Y791916D01*
X261928Y796996D01*
X61927Y276996D02*
X67007Y282076D01*
X72087Y276996D01*
X67007Y271915D01*
X61927Y276996D01*
X691928Y696996D02*
X697008Y702076D01*
X702088Y696996D01*
X697008Y691916D01*
X691928Y696996D01*
X81927Y36995D02*
X87008Y42075D01*
X92087Y36995D01*
X87008Y31915D01*
X81927Y36995D01*
X661928Y676996D02*
X667008Y682076D01*
X672088Y676996D01*
X667008Y671916D01*
X661928Y676996D01*
X501928Y636996D02*
X507008Y642076D01*
X512088Y636996D01*
X507008Y631916D01*
X501928Y636996D01*
X641928Y796996D02*
X647008Y802076D01*
X652088Y796996D01*
X647008Y791916D01*
X641928Y796996D01*
X201928Y76995D02*
X207008Y82075D01*
X212088Y76995D01*
X207008Y71915D01*
X201928Y76995D01*
X221928Y716996D02*
X227008Y722076D01*
X232088Y716996D01*
X227008Y711916D01*
X221928Y716996D01*
X521928D02*
X527008Y722076D01*
X532088Y716996D01*
X527008Y711916D01*
X521928Y716996D01*
X251928Y576996D02*
X257008Y582076D01*
X262088Y576996D01*
X257008Y571916D01*
X251928Y576996D01*
X771928Y416996D02*
X777008Y422076D01*
X782088Y416996D01*
X777008Y411916D01*
X771928Y416996D01*
X441928Y116995D02*
X447008Y122075D01*
X452088Y116995D01*
X447008Y111915D01*
X441928Y116995D01*
X671928Y696996D02*
X677008Y702076D01*
X682088Y696996D01*
X677008Y691916D01*
X671928Y696996D01*
X51927Y496996D02*
X57007Y502076D01*
X62087Y496996D01*
X57007Y491916D01*
X51927Y496996D01*
X551928Y816996D02*
X557008Y822076D01*
X562088Y816996D01*
X557008Y811916D01*
X551928Y816996D01*
X581928Y556996D02*
X587008Y562076D01*
X592088Y556996D01*
X587008Y551916D01*
X581928Y556996D01*
X191928Y776996D02*
X197008Y782076D01*
X202088Y776996D01*
X197008Y771916D01*
X191928Y776996D01*
X161928Y76995D02*
X167008Y82075D01*
X172087Y76995D01*
X167008Y71915D01*
X161928Y76995D01*
X581928Y796996D02*
X587008Y802076D01*
X592088Y796996D01*
X587008Y791916D01*
X581928Y796996D01*
X681928D02*
X687008Y802076D01*
X692088Y796996D01*
X687008Y791916D01*
X681928Y796996D01*
X601928Y596996D02*
X607008Y602076D01*
X612088Y596996D01*
X607008Y591916D01*
X601928Y596996D01*
X231928Y696996D02*
X237008Y702076D01*
X242088Y696996D01*
X237008Y691916D01*
X231928Y696996D01*
X261928Y596996D02*
X267008Y602076D01*
X272088Y596996D01*
X267008Y591916D01*
X261928Y596996D01*
X571928Y776996D02*
X577008Y782076D01*
X582088Y776996D01*
X577008Y771916D01*
X571928Y776996D01*
X631928Y696996D02*
X637008Y702076D01*
X642088Y696996D01*
X637008Y691916D01*
X631928Y696996D01*
X101927Y76995D02*
X107008Y82075D01*
X112087Y76995D01*
X107008Y71915D01*
X101927Y76995D01*
X631928Y736996D02*
X637008Y742076D01*
X642088Y736996D01*
X637008Y731916D01*
X631928Y736996D01*
X481928Y796996D02*
X487008Y802076D01*
X492088Y796996D01*
X487008Y791916D01*
X481928Y796996D01*
X751928Y96995D02*
X757008Y102075D01*
X762088Y96995D01*
X757008Y91915D01*
X751928Y96995D01*
X461928Y796996D02*
X467008Y802076D01*
X472088Y796996D01*
X467008Y791916D01*
X461928Y796996D01*
X581928Y716996D02*
X587008Y722076D01*
X592088Y716996D01*
X587008Y711916D01*
X581928Y716996D01*
X371928Y816996D02*
X377008Y822076D01*
X382088Y816996D01*
X377008Y811916D01*
X371928Y816996D01*
X91927Y136995D02*
X97008Y142075D01*
X102087Y136995D01*
X97008Y131915D01*
X91927Y136995D01*
X261928Y756996D02*
X267008Y762076D01*
X272088Y756996D01*
X267008Y751916D01*
X261928Y756996D01*
X191928Y816996D02*
X197008Y822076D01*
X202088Y816996D01*
X197008Y811916D01*
X191928Y816996D01*
X244293Y142377D02*
X249373Y147457D01*
X254453Y142377D01*
X249373Y137297D01*
X244293Y142377D01*
Y154051D02*
X249373Y159131D01*
X254453Y154051D01*
X249373Y148971D01*
X244293Y154051D01*
X400550Y479139D02*
X405630Y484219D01*
X410710Y479139D01*
X405630Y474059D01*
X400550Y479139D01*
X449420Y195149D02*
X454500Y200229D01*
X459580Y195149D01*
X454500Y190069D01*
X449420Y195149D01*
X483804Y484382D02*
X488884Y489462D01*
X493964Y484382D01*
X488884Y479302D01*
X483804Y484382D01*
X522616Y475382D02*
X527696Y480462D01*
X532776Y475382D01*
X527696Y470302D01*
X522616Y475382D01*
X545465Y340699D02*
X550545Y345779D01*
X555625Y340699D01*
X550545Y335619D01*
X545465Y340699D01*
X46852Y428252D02*
X51932Y433332D01*
X57012Y428252D01*
X51932Y423172D01*
X46852Y428252D01*
X420087Y552127D02*
X425167Y557207D01*
X430247Y552127D01*
X425167Y547047D01*
X420087Y552127D01*
X303519D02*
X308598Y557207D01*
X313678Y552127D01*
X308598Y547047D01*
X303519Y552127D01*
X187150Y555005D02*
X192230Y560085D01*
X197311Y555005D01*
X192230Y549925D01*
X187150Y555005D01*
X109022Y518835D02*
X114102Y523915D01*
X119182Y518835D01*
X114102Y513755D01*
X109022Y518835D01*
X70381Y554321D02*
X75462Y559401D01*
X80541Y554321D01*
X75462Y549241D01*
X70381Y554321D01*
X356616Y337058D02*
X361696Y342138D01*
X366776Y337058D01*
X361696Y331978D01*
X356616Y337058D01*
X376936D02*
X382016Y342138D01*
X387096Y337058D01*
X382016Y331978D01*
X376936Y337058D01*
X393446D02*
X398526Y342138D01*
X403606Y337058D01*
X398526Y331978D01*
X393446Y337058D01*
X413766D02*
X418846Y342138D01*
X423926Y337058D01*
X418846Y331978D01*
X413766Y337058D01*
Y352168D02*
X418846Y357248D01*
X423926Y352168D01*
X418846Y347088D01*
X413766Y352168D01*
X298443Y468568D02*
X303523Y473647D01*
X308603Y468568D01*
X303523Y463488D01*
X298443Y468568D01*
X279905Y468531D02*
X284986Y473611D01*
X290065Y468531D01*
X284986Y463451D01*
X279905Y468531D01*
X257823Y627122D02*
X262903Y632202D01*
X267983Y627122D01*
X262903Y622042D01*
X257823Y627122D01*
Y615442D02*
X262903Y620522D01*
X267983Y615442D01*
X262903Y610362D01*
X257823Y615442D01*
X288713Y627122D02*
X293793Y632202D01*
X298873Y627122D01*
X293793Y622042D01*
X288713Y627122D01*
X645922Y133604D02*
X651002Y138684D01*
X656082Y133604D01*
X651002Y128524D01*
X645922Y133604D01*
X554602Y133579D02*
X559682Y138659D01*
X564762Y133579D01*
X559682Y128499D01*
X554602Y133579D01*
X187758Y508677D02*
X192838Y513757D01*
X197918Y508677D01*
X192838Y503597D01*
X187758Y508677D01*
X250809Y485010D02*
X255889Y490090D01*
X260969Y485010D01*
X255889Y479930D01*
X250809Y485010D01*
X545338Y246418D02*
X550418Y251499D01*
X555498Y246418D01*
X550418Y241339D01*
X545338Y246418D01*
Y228092D02*
X550418Y233172D01*
X555498Y228092D01*
X550418Y223012D01*
X545338Y228092D01*
X532679Y184091D02*
X537759Y189171D01*
X542839Y184091D01*
X537759Y179011D01*
X532679Y184091D01*
X549402Y173990D02*
X554482Y179070D01*
X559562Y173990D01*
X554482Y168910D01*
X549402Y173990D01*
X462204Y326166D02*
X467284Y331246D01*
X472364Y326166D01*
X467284Y321086D01*
X462204Y326166D01*
X469473Y334076D02*
X474553Y339156D01*
X479633Y334076D01*
X474553Y328996D01*
X469473Y334076D01*
X345629Y314816D02*
X350709Y319895D01*
X355789Y314816D01*
X350709Y309736D01*
X345629Y314816D01*
X243493Y276702D02*
X248573Y281782D01*
X253653Y276702D01*
X248573Y271622D01*
X243493Y276702D01*
X130950Y278384D02*
X136030Y283464D01*
X141110Y278384D01*
X136030Y273304D01*
X130950Y278384D01*
X346964Y329184D02*
X352044Y334264D01*
X357124Y329184D01*
X352044Y324104D01*
X346964Y329184D01*
X506378Y118404D02*
X511458Y123484D01*
X516538Y118404D01*
X511458Y113324D01*
X506378Y118404D01*
X419020Y447542D02*
X424100Y452622D01*
X429180Y447542D01*
X424100Y442462D01*
X419020Y447542D01*
X66040Y204942D02*
X71120Y210022D01*
X76200Y204942D01*
X71120Y199862D01*
X66040Y204942D01*
X432464Y277466D02*
X437544Y282546D01*
X442624Y277466D01*
X437544Y272386D01*
X432464Y277466D01*
X325346Y698754D02*
X330426Y703834D01*
X335506Y698754D01*
X330426Y693674D01*
X325346Y698754D01*
X284892D02*
X289972Y703834D01*
X295052Y698754D01*
X289972Y693674D01*
X284892Y698754D01*
X244892D02*
X249972Y703834D01*
X255052Y698754D01*
X249972Y693674D01*
X244892Y698754D01*
X204892D02*
X209972Y703834D01*
X215052Y698754D01*
X209972Y693674D01*
X204892Y698754D01*
X281988Y331466D02*
X287068Y336546D01*
X292148Y331466D01*
X287068Y326386D01*
X281988Y331466D01*
X295918Y328760D02*
X300998Y333840D01*
X306078Y328760D01*
X300998Y323680D01*
X295918Y328760D01*
X146304Y278384D02*
X151384Y283464D01*
X156464Y278384D01*
X151384Y273304D01*
X146304Y278384D01*
X162051Y289486D02*
X167131Y294566D01*
X172211Y289486D01*
X167131Y284406D01*
X162051Y289486D01*
X239198Y223338D02*
X244278Y228418D01*
X249358Y223338D01*
X244278Y218258D01*
X239198Y223338D01*
X245918Y233244D02*
X250998Y238324D01*
X256078Y233244D01*
X250998Y228164D01*
X245918Y233244D01*
X132307Y198043D02*
X137387Y203123D01*
X142467Y198043D01*
X137387Y192963D01*
X132307Y198043D01*
X132973Y222585D02*
X138053Y227665D01*
X143133Y222585D01*
X138053Y217505D01*
X132973Y222585D01*
X139693Y232491D02*
X144773Y237571D01*
X149853Y232491D01*
X144773Y227411D01*
X139693Y232491D01*
X490304Y575009D02*
X495384Y580089D01*
X500464Y575009D01*
X495384Y569929D01*
X490304Y575009D01*
X484773Y583463D02*
X489853Y588543D01*
X494933Y583463D01*
X489853Y578383D01*
X484773Y583463D01*
X473712D02*
X478792Y588543D01*
X483872Y583463D01*
X478792Y578383D01*
X473712Y583463D01*
X479243Y575009D02*
X484323Y580089D01*
X489403Y575009D01*
X484323Y569929D01*
X479243Y575009D01*
X462651Y583463D02*
X467731Y588543D01*
X472811Y583463D01*
X467731Y578383D01*
X462651Y583463D01*
X468181Y575009D02*
X473261Y580089D01*
X478341Y575009D01*
X473261Y569929D01*
X468181Y575009D01*
X413686Y626424D02*
X418766Y631504D01*
X423846Y626424D01*
X418766Y621344D01*
X413686Y626424D01*
X446870D02*
X451950Y631504D01*
X457030Y626424D01*
X451950Y621344D01*
X446870Y626424D01*
X441339Y634878D02*
X446419Y639958D01*
X451499Y634878D01*
X446419Y629798D01*
X441339Y634878D01*
X430278D02*
X435358Y639958D01*
X440438Y634878D01*
X435358Y629798D01*
X430278Y634878D01*
X435808Y626424D02*
X440888Y631504D01*
X445969Y626424D01*
X440888Y621344D01*
X435808Y626424D01*
X419217Y634878D02*
X424297Y639958D01*
X429377Y634878D01*
X424297Y629798D01*
X419217Y634878D01*
X424747Y626424D02*
X429827Y631504D01*
X434907Y626424D01*
X429827Y621344D01*
X424747Y626424D01*
X123243Y571528D02*
X128323Y576608D01*
X133403Y571528D01*
X128323Y566448D01*
X123243Y571528D01*
X156427D02*
X161507Y576608D01*
X166587Y571528D01*
X161507Y566448D01*
X156427Y571528D01*
X150896Y579981D02*
X155976Y585061D01*
X161056Y579981D01*
X155976Y574901D01*
X150896Y579981D01*
X139835D02*
X144915Y585061D01*
X149995Y579981D01*
X144915Y574901D01*
X139835Y579981D01*
X145366Y571528D02*
X150446Y576608D01*
X155526Y571528D01*
X150446Y566448D01*
X145366Y571528D01*
X128774Y579981D02*
X133854Y585061D01*
X138934Y579981D01*
X133854Y574901D01*
X128774Y579981D01*
X134305Y571528D02*
X139384Y576608D01*
X144465Y571528D01*
X139384Y566448D01*
X134305Y571528D01*
X239812D02*
X244892Y576608D01*
X249972Y571528D01*
X244892Y566448D01*
X239812Y571528D01*
X272995D02*
X278075Y576608D01*
X283155Y571528D01*
X278075Y566448D01*
X272995Y571528D01*
X267465Y579981D02*
X272545Y585061D01*
X277625Y579981D01*
X272545Y574901D01*
X267465Y579981D01*
X256404D02*
X261484Y585061D01*
X266564Y579981D01*
X261484Y574901D01*
X256404Y579981D01*
X261934Y571528D02*
X267014Y576608D01*
X272094Y571528D01*
X267014Y566448D01*
X261934Y571528D01*
X245342Y579981D02*
X250422Y585061D01*
X255502Y579981D01*
X250422Y574901D01*
X245342Y579981D01*
X250873Y571528D02*
X255953Y576608D01*
X261033Y571528D01*
X255953Y566448D01*
X250873Y571528D01*
X367441D02*
X372522Y576608D01*
X377602Y571528D01*
X372522Y566448D01*
X367441Y571528D01*
X361911Y579981D02*
X366991Y585061D01*
X372071Y579981D01*
X366991Y574901D01*
X361911Y579981D01*
X378503Y571528D02*
X383583Y576608D01*
X388663Y571528D01*
X383583Y566448D01*
X378503Y571528D01*
X372972Y579981D02*
X378052Y585061D01*
X383132Y579981D01*
X378052Y574901D01*
X372972Y579981D01*
X384033D02*
X389113Y585061D01*
X394193Y579981D01*
X389113Y574901D01*
X384033Y579981D01*
X389564Y571528D02*
X394644Y576608D01*
X399724Y571528D01*
X394644Y566448D01*
X389564Y571528D01*
X356380D02*
X361460Y576608D01*
X366540Y571528D01*
X361460Y566448D01*
X356380Y571528D01*
X345948Y624078D02*
X351028Y629158D01*
X356108Y624078D01*
X351028Y618998D01*
X345948Y624078D01*
X318098Y624321D02*
X323178Y629401D01*
X328258Y624321D01*
X323178Y619241D01*
X318098Y624321D01*
X331726D02*
X336805Y629401D01*
X341885Y624321D01*
X336805Y619241D01*
X331726Y624321D01*
X211838Y620360D02*
X216918Y625440D01*
X221998Y620360D01*
X216918Y615280D01*
X211838Y620360D01*
X201413D02*
X206493Y625440D01*
X211573Y620360D01*
X206493Y615280D01*
X201413Y620360D01*
X190987D02*
X196067Y625440D01*
X201147Y620360D01*
X196067Y615280D01*
X190987Y620360D01*
X142048Y621407D02*
X147128Y626487D01*
X152208Y621407D01*
X147128Y616327D01*
X142048Y621407D01*
X134637Y632884D02*
X139717Y637964D01*
X144797Y632884D01*
X139717Y627804D01*
X134637Y632884D01*
X135655Y663737D02*
X140735Y668817D01*
X145815Y663737D01*
X140735Y658657D01*
X135655Y663737D01*
X441344Y668884D02*
X446424Y673964D01*
X451504Y668884D01*
X446424Y663804D01*
X441344Y668884D01*
Y704444D02*
X446424Y709524D01*
X451504Y704444D01*
X446424Y699364D01*
X441344Y704444D01*
X449708Y740040D02*
X454788Y745120D01*
X459868Y740040D01*
X454788Y734960D01*
X449708Y740040D01*
Y775600D02*
X454788Y780680D01*
X459868Y775600D01*
X454788Y770520D01*
X449708Y775600D01*
X401640Y669102D02*
X406720Y674182D01*
X411800Y669102D01*
X406720Y664022D01*
X401640Y669102D01*
Y704662D02*
X406720Y709742D01*
X411800Y704662D01*
X406720Y699582D01*
X401640Y704662D01*
Y740222D02*
X406720Y745302D01*
X411800Y740222D01*
X406720Y735142D01*
X401640Y740222D01*
X401574Y775716D02*
X406654Y780796D01*
X411734Y775716D01*
X406654Y770636D01*
X401574Y775716D01*
X694690Y772739D02*
X699770Y777819D01*
X704850Y772739D01*
X699770Y767659D01*
X694690Y772739D01*
X704596Y766019D02*
X709676Y771099D01*
X714756Y766019D01*
X709676Y760939D01*
X704596Y766019D01*
X758190Y772739D02*
X763270Y777819D01*
X768350Y772739D01*
X763270Y767659D01*
X758190Y772739D01*
X768096Y766019D02*
X773176Y771099D01*
X778256Y766019D01*
X773176Y760939D01*
X768096Y766019D01*
X752602Y715888D02*
X757682Y720968D01*
X762762Y715888D01*
X757682Y710808D01*
X752602Y715888D01*
X762508Y709168D02*
X767588Y714248D01*
X772668Y709168D01*
X767588Y704088D01*
X762508Y709168D01*
X744840Y485764D02*
X749920Y490844D01*
X755000Y485764D01*
X749920Y480684D01*
X744840Y485764D01*
X754746Y479044D02*
X759826Y484124D01*
X764906Y479044D01*
X759826Y473964D01*
X754746Y479044D01*
X744840Y458664D02*
X749920Y463744D01*
X755000Y458664D01*
X749920Y453584D01*
X744840Y458664D01*
X754746Y451944D02*
X759826Y457024D01*
X764906Y451944D01*
X759826Y446864D01*
X754746Y451944D01*
X737902Y296884D02*
X742982Y301964D01*
X748062Y296884D01*
X742982Y291804D01*
X737902Y296884D01*
X737616Y311658D02*
X742696Y316738D01*
X747776Y311658D01*
X742696Y306578D01*
X737616Y311658D01*
X564642Y201930D02*
X569722Y207010D01*
X574802Y201930D01*
X569722Y196850D01*
X564642Y201930D01*
X662527Y201925D02*
X667607Y207005D01*
X672687Y201925D01*
X667607Y196845D01*
X662527Y201925D01*
X650748Y178816D02*
X655828Y183896D01*
X660908Y178816D01*
X655828Y173736D01*
X650748Y178816D01*
X566674Y179070D02*
X571754Y184150D01*
X576834Y179070D01*
X571754Y173990D01*
X566674Y179070D01*
X467360Y140970D02*
X472440Y146050D01*
X477520Y140970D01*
X472440Y135890D01*
X467360Y140970D01*
X318858Y117300D02*
X323938Y122380D01*
X329018Y117300D01*
X323938Y112220D01*
X318858Y117300D01*
X89190Y233298D02*
X94270Y238378D01*
X99350Y233298D01*
X94270Y228218D01*
X89190Y233298D01*
X79880Y323757D02*
X84960Y328837D01*
X90040Y323757D01*
X84960Y318677D01*
X79880Y323757D01*
X89520Y339692D02*
X94600Y344772D01*
X99680Y339692D01*
X94600Y334612D01*
X89520Y339692D01*
X38247Y486118D02*
X43327Y491198D01*
X48407Y486118D01*
X43327Y481038D01*
X38247Y486118D01*
X48153Y479398D02*
X53233Y484478D01*
X58313Y479398D01*
X53233Y474318D01*
X48153Y479398D01*
X47752Y608584D02*
X52832Y613664D01*
X57912Y608584D01*
X52832Y603504D01*
X47752Y608584D01*
Y618490D02*
X52832Y623570D01*
X57912Y618490D01*
X52832Y613410D01*
X47752Y618490D01*
X47228Y647528D02*
X52308Y652608D01*
X57388Y647528D01*
X52308Y642448D01*
X47228Y647528D01*
X40508Y637622D02*
X45588Y642702D01*
X50668Y637622D01*
X45588Y632542D01*
X40508Y637622D01*
X47426Y732533D02*
X52506Y737613D01*
X57586Y732533D01*
X52506Y727453D01*
X47426Y732533D01*
X40706Y722627D02*
X45786Y727707D01*
X50866Y722627D01*
X45786Y717547D01*
X40706Y722627D01*
X40640Y752602D02*
X45720Y757682D01*
X50800Y752602D01*
X45720Y747522D01*
X40640Y752602D01*
X47360Y762508D02*
X52440Y767588D01*
X57520Y762508D01*
X52440Y757428D01*
X47360Y762508D01*
X92350Y428202D02*
X97430Y433282D01*
X102510Y428202D01*
X97430Y423122D01*
X92350Y428202D01*
X77215D02*
X82296Y433282D01*
X87375Y428202D01*
X82296Y423122D01*
X77215Y428202D01*
X666496Y518922D02*
X671576Y524002D01*
X676656Y518922D01*
X671576Y513842D01*
X666496Y518922D01*
X622067Y473048D02*
X627147Y478128D01*
X632227Y473048D01*
X627147Y467968D01*
X622067Y473048D01*
X676779Y633196D02*
X681860Y638276D01*
X686939Y633196D01*
X681860Y628116D01*
X676779Y633196D01*
X640201D02*
X645281Y638276D01*
X650360Y633196D01*
X645281Y628116D01*
X640201Y633196D01*
X649224Y488696D02*
X654304Y493776D01*
X659384Y488696D01*
X654304Y483616D01*
X649224Y488696D01*
X584515Y473048D02*
X589595Y478128D01*
X594675Y473048D01*
X589595Y467968D01*
X584515Y473048D01*
X603435Y474137D02*
X608515Y479217D01*
X613595Y474137D01*
X608515Y469058D01*
X603435Y474137D01*
X567105Y633515D02*
X572185Y638595D01*
X577265Y633515D01*
X572185Y628435D01*
X567105Y633515D01*
X585301Y609470D02*
X590381Y614550D01*
X595461Y609470D01*
X590381Y604390D01*
X585301Y609470D01*
X621942Y609098D02*
X627022Y614178D01*
X632102Y609098D01*
X627022Y604018D01*
X621942Y609098D01*
X666010Y586705D02*
X671090Y591785D01*
X676170Y586705D01*
X671090Y581625D01*
X666010Y586705D01*
X658709Y633196D02*
X663789Y638276D01*
X668869Y633196D01*
X663789Y628116D01*
X658709Y633196D01*
X530352Y637516D02*
X535432Y642596D01*
X540512Y637516D01*
X535432Y632436D01*
X530352Y637516D01*
X557190Y496759D02*
X562270Y501839D01*
X567350Y496759D01*
X562270Y491679D01*
X557190Y496759D01*
X655899Y460863D02*
X660979Y465943D01*
X666059Y460863D01*
X660979Y455783D01*
X655899Y460863D01*
X665013Y354308D02*
X670093Y359388D01*
X675173Y354308D01*
X670093Y349228D01*
X665013Y354308D01*
X559260Y349061D02*
X564340Y354141D01*
X569420Y349061D01*
X564340Y343981D01*
X559260Y349061D01*
X669222Y278130D02*
X674302Y283210D01*
X679382Y278130D01*
X674302Y273050D01*
X669222Y278130D01*
X568699Y278442D02*
X573779Y283522D01*
X578859Y278442D01*
X573779Y273362D01*
X568699Y278442D01*
X384175Y286492D02*
X389255Y291572D01*
X394335Y286492D01*
X389255Y281412D01*
X384175Y286492D01*
X336016Y208494D02*
X341096Y213574D01*
X346176Y208494D01*
X341096Y203414D01*
X336016Y208494D01*
Y220066D02*
X341096Y225146D01*
X346176Y220066D01*
X341096Y214986D01*
X336016Y220066D01*
X350390Y208494D02*
X355470Y213574D01*
X360550Y208494D01*
X355470Y203414D01*
X350390Y208494D01*
X521560Y350998D02*
X526640Y356078D01*
X531720Y350998D01*
X526640Y345919D01*
X521560Y350998D01*
X392938Y123952D02*
X398018Y129032D01*
X403098Y123952D01*
X398018Y118872D01*
X392938Y123952D01*
X48772Y195790D02*
X53851Y200870D01*
X58931Y195790D01*
X53851Y190710D01*
X48772Y195790D01*
X586246Y134637D02*
X591326Y139717D01*
X596406Y134637D01*
X591326Y129557D01*
X586246Y134637D01*
X521834Y118404D02*
X526914Y123484D01*
X531994Y118404D01*
X526914Y113324D01*
X521834Y118404D01*
X321475Y291011D02*
X326555Y296091D01*
X331635Y291011D01*
X326555Y285931D01*
X321475Y291011D01*
X493573Y546862D02*
X498653Y551942D01*
X503733Y546862D01*
X498653Y541782D01*
X493573Y546862D01*
X483404D02*
X488484Y551942D01*
X493564Y546862D01*
X488484Y541782D01*
X483404Y546862D01*
X473236D02*
X478316Y551942D01*
X483396Y546862D01*
X478316Y541782D01*
X473236Y546862D01*
X48568Y536766D02*
X53648Y541846D01*
X58728Y536766D01*
X53648Y531686D01*
X48568Y536766D01*
X51229Y547585D02*
X56309Y552665D01*
X61389Y547585D01*
X56309Y542505D01*
X51229Y547585D01*
X398839Y536500D02*
X403919Y541580D01*
X408999Y536500D01*
X403919Y531420D01*
X398839Y536500D01*
X282076Y536733D02*
X287156Y541813D01*
X292236Y536733D01*
X287156Y531653D01*
X282076Y536733D01*
X165345Y537214D02*
X170425Y542294D01*
X175505Y537214D01*
X170425Y532134D01*
X165345Y537214D01*
X350998Y546862D02*
X356078Y551942D01*
X361158Y546862D01*
X356078Y541782D01*
X350998Y546862D01*
X361548D02*
X366628Y551942D01*
X371708Y546862D01*
X366628Y541782D01*
X361548Y546862D01*
X372097D02*
X377177Y551942D01*
X382257Y546862D01*
X377177Y541782D01*
X372097Y546862D01*
X382646D02*
X387726Y551942D01*
X392806Y546862D01*
X387726Y541782D01*
X382646Y546862D01*
X393196D02*
X398276Y551942D01*
X403356Y546862D01*
X398276Y541782D01*
X393196Y546862D01*
X403745D02*
X408825Y551942D01*
X413905Y546862D01*
X408825Y541782D01*
X403745Y546862D01*
X234430D02*
X239510Y551942D01*
X244590Y546862D01*
X239510Y541782D01*
X234430Y546862D01*
X244979D02*
X250059Y551942D01*
X255139Y546862D01*
X250059Y541782D01*
X244979Y546862D01*
X255529D02*
X260609Y551942D01*
X265689Y546862D01*
X260609Y541782D01*
X255529Y546862D01*
X266078D02*
X271158Y551942D01*
X276238Y546862D01*
X271158Y541782D01*
X266078Y546862D01*
X276627D02*
X281707Y551942D01*
X286787Y546862D01*
X281707Y541782D01*
X276627Y546862D01*
X287176D02*
X292257Y551942D01*
X297337Y546862D01*
X292257Y541782D01*
X287176Y546862D01*
X117861D02*
X122942Y551942D01*
X128021Y546862D01*
X122942Y541782D01*
X117861Y546862D01*
X128411D02*
X133491Y551942D01*
X138571Y546862D01*
X133491Y541782D01*
X128411Y546862D01*
X138960D02*
X144040Y551942D01*
X149120Y546862D01*
X144040Y541782D01*
X138960Y546862D01*
X149509D02*
X154589Y551942D01*
X159669Y546862D01*
X154589Y541782D01*
X149509Y546862D01*
X160059D02*
X165139Y551942D01*
X170219Y546862D01*
X165139Y541782D01*
X160059Y546862D01*
X170608D02*
X175688Y551942D01*
X180768Y546862D01*
X175688Y541782D01*
X170608Y546862D01*
X204892Y648624D02*
X209972Y653705D01*
X215052Y648624D01*
X209972Y643544D01*
X204892Y648624D01*
X385064Y533825D02*
X390144Y538905D01*
X395224Y533825D01*
X390144Y528745D01*
X385064Y533825D01*
X434619Y538718D02*
X439699Y543798D01*
X444779Y538718D01*
X439699Y533638D01*
X434619Y538718D01*
X317796Y538973D02*
X322876Y544053D01*
X327956Y538973D01*
X322876Y533893D01*
X317796Y538973D01*
X85929Y538718D02*
X91009Y543798D01*
X96089Y538718D01*
X91009Y533638D01*
X85929Y538718D01*
X95171D02*
X100252Y543798D01*
X105331Y538718D01*
X100252Y533638D01*
X95171Y538718D01*
X211740D02*
X216820Y543798D01*
X221900Y538718D01*
X216820Y533638D01*
X211740Y538718D01*
X202498D02*
X207578Y543798D01*
X212658Y538718D01*
X207578Y533638D01*
X202498Y538718D01*
X233934Y518617D02*
X239014Y523697D01*
X244094Y518617D01*
X239014Y513537D01*
X233934Y518617D01*
X268478Y534416D02*
X273558Y539496D01*
X278638Y534416D01*
X273558Y529336D01*
X268478Y534416D01*
X158061Y360195D02*
X163141Y365275D01*
X168221Y360195D01*
X163141Y355115D01*
X158061Y360195D01*
X272494Y124150D02*
X277574Y129230D01*
X282654Y124150D01*
X277574Y119070D01*
X272494Y124150D01*
X513650Y278406D02*
X518730Y283486D01*
X523810Y278406D01*
X518730Y273326D01*
X513650Y278406D01*
X471325Y259425D02*
X476405Y264505D01*
X481485Y259425D01*
X476405Y254345D01*
X471325Y259425D01*
X453969Y259388D02*
X459049Y264468D01*
X464129Y259388D01*
X459049Y254308D01*
X453969Y259388D01*
X465321Y280254D02*
X470401Y285334D01*
X475481Y280254D01*
X470401Y275174D01*
X465321Y280254D01*
X401003Y264843D02*
X406083Y269923D01*
X411163Y264843D01*
X406083Y259763D01*
X401003Y264843D01*
X521563Y407663D02*
X526643Y412743D01*
X531723Y407663D01*
X526643Y402584D01*
X521563Y407663D01*
X664059Y307912D02*
X669139Y312992D01*
X674219Y307912D01*
X669139Y302832D01*
X664059Y307912D01*
X638279Y301871D02*
X643360Y306952D01*
X648439Y301871D01*
X643360Y296791D01*
X638279Y301871D01*
X657606Y392219D02*
X662686Y397299D01*
X667766Y392219D01*
X662686Y387139D01*
X657606Y392219D01*
X671555Y196028D02*
X676635Y201108D01*
X681715Y196028D01*
X676635Y190948D01*
X671555Y196028D01*
X671114Y168737D02*
X676194Y173817D01*
X681274Y168737D01*
X676194Y163657D01*
X671114Y168737D01*
X669941Y183263D02*
X675021Y188343D01*
X680101Y183263D01*
X675021Y178183D01*
X669941Y183263D01*
X674735Y127626D02*
X679815Y132706D01*
X684895Y127626D01*
X679815Y122546D01*
X674735Y127626D01*
X479044Y149098D02*
X484124Y154178D01*
X489204Y149098D01*
X484124Y144018D01*
X479044Y149098D01*
X627218Y127328D02*
X632298Y132408D01*
X637378Y127328D01*
X632298Y122248D01*
X627218Y127328D01*
X68344Y642448D02*
X73424Y647528D01*
X78504Y642448D01*
X73424Y637368D01*
X68344Y642448D01*
X129347Y692253D02*
X134427Y697333D01*
X139507Y692253D01*
X134427Y687172D01*
X129347Y692253D01*
X241501Y326750D02*
X246581Y331830D01*
X251661Y326750D01*
X246581Y321670D01*
X241501Y326750D01*
X263906Y279022D02*
X268986Y284102D01*
X274066Y279022D01*
X268986Y273942D01*
X263906Y279022D01*
X311402Y364354D02*
X316481Y369434D01*
X321562Y364354D01*
X316481Y359274D01*
X311402Y364354D01*
X258318Y380238D02*
X263398Y385318D01*
X268478Y380238D01*
X263398Y375158D01*
X258318Y380238D01*
X563118Y290830D02*
X568198Y295910D01*
X573278Y290830D01*
X568198Y285750D01*
X563118Y290830D01*
X521716Y244856D02*
X526796Y249936D01*
X531876Y244856D01*
X526796Y239776D01*
X521716Y244856D01*
X521834Y184391D02*
X526914Y189471D01*
X531994Y184391D01*
X526914Y179311D01*
X521834Y184391D01*
X207761Y169381D02*
X212840Y174461D01*
X217920Y169381D01*
X212840Y164301D01*
X207761Y169381D01*
X88235Y179810D02*
X93315Y184890D01*
X98395Y179810D01*
X93315Y174730D01*
X88235Y179810D01*
X146304Y122936D02*
X151384Y128016D01*
X156464Y122936D01*
X151384Y117856D01*
X146304Y122936D01*
X171450Y444500D02*
X176530Y449580D01*
X181610Y444500D01*
X176530Y439420D01*
X171450Y444500D01*
X180086Y466090D02*
X185166Y471170D01*
X190246Y466090D01*
X185166Y461010D01*
X180086Y466090D01*
X40698Y528903D02*
X45778Y533983D01*
X50858Y528903D01*
X45778Y523823D01*
X40698Y528903D01*
X110236Y451104D02*
X115316Y456184D01*
X120396Y451104D01*
X115316Y446024D01*
X110236Y451104D01*
X235415Y438387D02*
X240495Y443467D01*
X245575Y438387D01*
X240495Y433307D01*
X235415Y438387D01*
X346115Y484274D02*
X351195Y489355D01*
X356275Y484274D01*
X351195Y479194D01*
X346115Y484274D01*
X542233Y546315D02*
X547313Y551395D01*
X552393Y546315D01*
X547313Y541235D01*
X542233Y546315D01*
X665264Y545689D02*
X670344Y550769D01*
X675424Y545689D01*
X670344Y540609D01*
X665264Y545689D01*
X574920Y676500D02*
X580000Y681580D01*
X585080Y676500D01*
X580000Y671420D01*
X574920Y676500D01*
X614920Y651500D02*
X620000Y656580D01*
X625080Y651500D01*
X620000Y646420D01*
X614920Y651500D01*
X534920Y673595D02*
X540000Y678675D01*
X545080Y673595D01*
X540000Y668515D01*
X534920Y673595D01*
X494920Y651500D02*
X500000Y656580D01*
X505080Y651500D01*
X500000Y646420D01*
X494920Y651500D01*
X534920D02*
X540000Y656580D01*
X545080Y651500D01*
X540000Y646420D01*
X534920Y651500D01*
X488897Y126542D02*
X493977Y131622D01*
X499057Y126542D01*
X493977Y121462D01*
X488897Y126542D01*
X483238Y229717D02*
X488318Y234797D01*
X493398Y229717D01*
X488318Y224637D01*
X483238Y229717D01*
X475175Y221826D02*
X480255Y226906D01*
X485335Y221826D01*
X480255Y216746D01*
X475175Y221826D01*
X441166Y204773D02*
X446246Y209853D01*
X451326Y204773D01*
X446246Y199693D01*
X441166Y204773D01*
X475084D02*
X480164Y209853D01*
X485244Y204773D01*
X480164Y199693D01*
X475084Y204773D01*
X458125D02*
X463205Y209853D01*
X468285Y204773D01*
X463205Y199693D01*
X458125Y204773D01*
X441774Y221166D02*
X446854Y226246D01*
X451934Y221166D01*
X446854Y216086D01*
X441774Y221166D01*
X432612Y229808D02*
X437692Y234888D01*
X442772Y229808D01*
X437692Y224728D01*
X432612Y229808D01*
Y212849D02*
X437692Y217929D01*
X442772Y212849D01*
X437692Y207769D01*
X432612Y212849D01*
X466533Y212664D02*
X471613Y217744D01*
X476693Y212664D01*
X471613Y207584D01*
X466533Y212664D01*
Y229717D02*
X471613Y234797D01*
X476693Y229717D01*
X471613Y224637D01*
X466533Y229717D01*
X449574Y212664D02*
X454654Y217744D01*
X459734Y212664D01*
X454654Y207584D01*
X449574Y212664D01*
X449665Y229717D02*
X454745Y234797D01*
X459825Y229717D01*
X454745Y224637D01*
X449665Y229717D01*
X458216Y221826D02*
X463296Y226906D01*
X468376Y221826D01*
X463296Y216746D01*
X458216Y221826D01*
X186469Y447025D02*
X191549Y452105D01*
X196629Y447025D01*
X191549Y441945D01*
X186469Y447025D01*
X177738Y414220D02*
X182818Y419300D01*
X187898Y414220D01*
X182818Y409140D01*
X177738Y414220D01*
X51308Y134366D02*
X56388Y139446D01*
X61468Y134366D01*
X56388Y129286D01*
X51308Y134366D01*
X92456Y103497D02*
X97536Y108576D01*
X102616Y103497D01*
X97536Y98417D01*
X92456Y103497D01*
X47604Y382524D02*
X52684Y387604D01*
X57764Y382524D01*
X52684Y377444D01*
X47604Y382524D01*
X72136Y91948D02*
X77216Y97028D01*
X82296Y91948D01*
X77216Y86868D01*
X72136Y91948D01*
X149388Y221349D02*
X154467Y226429D01*
X159548Y221349D01*
X154467Y216269D01*
X149388Y221349D01*
X92456Y144881D02*
X97536Y149961D01*
X102616Y144881D01*
X97536Y139801D01*
X92456Y144881D01*
X99221Y172926D02*
X104302Y178006D01*
X109382Y172926D01*
X104302Y167846D01*
X99221Y172926D01*
X439968Y272354D02*
X445048Y277434D01*
X450128Y272354D01*
X445048Y267274D01*
X439968Y272354D01*
X433348Y259642D02*
X438428Y264722D01*
X443508Y259642D01*
X438428Y254562D01*
X433348Y259642D01*
X497162Y118404D02*
X502242Y123484D01*
X507322Y118404D01*
X502242Y113324D01*
X497162Y118404D01*
X672195Y96827D02*
X677275Y101907D01*
X682355Y96827D01*
X677275Y91747D01*
X672195Y96827D01*
X233934Y487202D02*
X239014Y492282D01*
X244094Y487202D01*
X239014Y482122D01*
X233934Y487202D01*
X408980Y474928D02*
X414061Y480008D01*
X419141Y474928D01*
X414061Y469848D01*
X408980Y474928D01*
X377048Y484824D02*
X382128Y489904D01*
X387208Y484824D01*
X382128Y479744D01*
X377048Y484824D01*
X362591D02*
X367671Y489904D01*
X372751Y484824D01*
X367671Y479744D01*
X362591Y484824D01*
X350390Y513307D02*
X355470Y518387D01*
X360550Y513307D01*
X355470Y508227D01*
X350390Y513307D01*
X357591Y448056D02*
X362671Y453136D01*
X367751Y448056D01*
X362671Y442976D01*
X357591Y448056D01*
X347726D02*
X352806Y453136D01*
X357886Y448056D01*
X352806Y442976D01*
X347726Y448056D01*
X523240Y461010D02*
X528320Y466090D01*
X533400Y461010D01*
X528320Y455930D01*
X523240Y461010D01*
X522418Y437950D02*
X527498Y443030D01*
X532578Y437950D01*
X527498Y432870D01*
X522418Y437950D01*
X396613Y441227D02*
X401693Y446307D01*
X406773Y441227D01*
X401693Y436147D01*
X396613Y441227D01*
X387662Y436774D02*
X392742Y441854D01*
X397822Y436774D01*
X392742Y431694D01*
X387662Y436774D01*
X388413Y426746D02*
X393493Y431826D01*
X398573Y426746D01*
X393493Y421666D01*
X388413Y426746D01*
X242427Y455479D02*
X247507Y460559D01*
X252587Y455479D01*
X247507Y450399D01*
X242427Y455479D01*
X210234Y414221D02*
X215314Y419301D01*
X220394Y414221D01*
X215314Y409142D01*
X210234Y414221D01*
X419621Y264843D02*
X424701Y269923D01*
X429781Y264843D01*
X424701Y259763D01*
X419621Y264843D01*
X418192Y275734D02*
X423272Y280814D01*
X428352Y275734D01*
X423272Y270653D01*
X418192Y275734D01*
X413517Y257831D02*
X418597Y262911D01*
X423677Y257831D01*
X418597Y252751D01*
X413517Y257831D01*
X406313Y315434D02*
X411393Y320513D01*
X416473Y315434D01*
X411393Y310354D01*
X406313Y315434D01*
X290585Y308865D02*
X295665Y313945D01*
X300746Y308865D01*
X295665Y303785D01*
X290585Y308865D01*
X307404Y340361D02*
X312484Y345441D01*
X317564Y340361D01*
X312484Y335281D01*
X307404Y340361D01*
X298559Y347619D02*
X303638Y352699D01*
X308718Y347619D01*
X303638Y342539D01*
X298559Y347619D01*
X737317Y342076D02*
X742397Y347156D01*
X747477Y342076D01*
X742397Y336996D01*
X737317Y342076D01*
X726920Y342275D02*
X732000Y347355D01*
X737080Y342275D01*
X732000Y337195D01*
X726920Y342275D01*
X652780Y426720D02*
X657860Y431800D01*
X662940Y426720D01*
X657860Y421640D01*
X652780Y426720D01*
X726920Y330180D02*
X732000Y335260D01*
X737080Y330180D01*
X732000Y325100D01*
X726920Y330180D01*
X708660D02*
X713740Y335260D01*
X718820Y330180D01*
X713740Y325100D01*
X708660Y330180D01*
X716102Y683221D02*
X721182Y688301D01*
X726262Y683221D01*
X721182Y678141D01*
X716102Y683221D01*
X309376Y404312D02*
X314456Y409392D01*
X319536Y404312D01*
X314456Y399232D01*
X309376Y404312D01*
X110236Y392864D02*
X115316Y397944D01*
X120396Y392864D01*
X115316Y387784D01*
X110236Y392864D01*
X336917Y436301D02*
X341997Y441381D01*
X347077Y436301D01*
X341997Y431221D01*
X336917Y436301D01*
X342382Y430130D02*
X347462Y435210D01*
X352542Y430130D01*
X347462Y425050D01*
X342382Y430130D01*
X181644Y93027D02*
X186724Y98108D01*
X191804Y93027D01*
X186724Y87948D01*
X181644Y93027D01*
Y106362D02*
X186724Y111442D01*
X191804Y106362D01*
X186724Y101283D01*
X181644Y106362D01*
X172720Y99695D02*
X177800Y104775D01*
X182880Y99695D01*
X177800Y94615D01*
X172720Y99695D01*
Y86360D02*
X177800Y91440D01*
X182880Y86360D01*
X177800Y81280D01*
X172720Y86360D01*
X190568D02*
X195648Y91440D01*
X200728Y86360D01*
X195648Y81280D01*
X190568Y86360D01*
Y99695D02*
X195648Y104775D01*
X200728Y99695D01*
X195648Y94615D01*
X190568Y99695D01*
Y113030D02*
X195648Y118110D01*
X200728Y113030D01*
X195648Y107950D01*
X190568Y113030D01*
X172720D02*
X177800Y118110D01*
X182880Y113030D01*
X177800Y107950D01*
X172720Y113030D01*
X214812Y129472D02*
X219892Y134552D01*
X224972Y129472D01*
X219892Y124392D01*
X214812Y129472D01*
X213853Y220980D02*
X218933Y226060D01*
X224013Y220980D01*
X218933Y215900D01*
X213853Y220980D01*
X226653Y233612D02*
X231733Y238692D01*
X236813Y233612D01*
X231733Y228532D01*
X226653Y233612D01*
X227134Y221285D02*
X232215Y226365D01*
X237295Y221285D01*
X232215Y216205D01*
X227134Y221285D01*
X213853Y233612D02*
X218933Y238692D01*
X224013Y233612D01*
X218933Y228532D01*
X213853Y233612D01*
X309297Y454155D02*
X314377Y459235D01*
X319457Y454155D01*
X314377Y449075D01*
X309297Y454155D01*
X200486Y321310D02*
X205566Y326390D01*
X210646Y321310D01*
X205566Y316230D01*
X200486Y321310D01*
X190500D02*
X195580Y326390D01*
X200660Y321310D01*
X195580Y316230D01*
X190500Y321310D01*
X495164Y456126D02*
X500244Y461206D01*
X505324Y456126D01*
X500244Y451046D01*
X495164Y456126D01*
X467660Y430936D02*
X472741Y436016D01*
X477821Y430936D01*
X472741Y425856D01*
X467660Y430936D01*
X484020Y455025D02*
X489100Y460105D01*
X494180Y455025D01*
X489100Y449945D01*
X484020Y455025D01*
X474456Y452762D02*
X479536Y457842D01*
X484616Y452762D01*
X479536Y447682D01*
X474456Y452762D01*
X479815Y465139D02*
X484895Y470219D01*
X489975Y465139D01*
X484895Y460059D01*
X479815Y465139D01*
X468897Y462333D02*
X473977Y467413D01*
X479057Y462333D01*
X473977Y457253D01*
X468897Y462333D01*
X548740Y633555D02*
X553820Y638635D01*
X558900Y633555D01*
X553820Y628475D01*
X548740Y633555D01*
X483711Y520917D02*
X488791Y525997D01*
X493871Y520917D01*
X488791Y515837D01*
X483711Y520917D01*
X417721Y483089D02*
X422801Y488169D01*
X427881Y483089D01*
X422801Y478009D01*
X417721Y483089D01*
X432339Y483408D02*
X437419Y488488D01*
X442499Y483408D01*
X437419Y478328D01*
X432339Y483408D01*
X452903Y496449D02*
X457983Y501529D01*
X463063Y496449D01*
X457983Y491369D01*
X452903Y496449D01*
X491235Y385893D02*
X496315Y390973D01*
X501395Y385893D01*
X496315Y380813D01*
X491235Y385893D01*
X496248Y369698D02*
X501328Y374778D01*
X506408Y369698D01*
X501328Y364618D01*
X496248Y369698D01*
X460592Y417558D02*
X465672Y422638D01*
X470752Y417558D01*
X465672Y412478D01*
X460592Y417558D01*
X447351Y374220D02*
X452431Y379300D01*
X457511Y374220D01*
X452431Y369140D01*
X447351Y374220D01*
X453781Y367509D02*
X458861Y372589D01*
X463941Y367509D01*
X458861Y362429D01*
X453781Y367509D01*
X434878Y385222D02*
X439958Y390302D01*
X445037Y385222D01*
X439958Y380142D01*
X434878Y385222D01*
X441095Y379906D02*
X446175Y384986D01*
X451255Y379906D01*
X446175Y374826D01*
X441095Y379906D01*
X493982Y395999D02*
X499062Y401079D01*
X504142Y395999D01*
X499062Y390919D01*
X493982Y395999D01*
X685178Y392500D02*
X690258Y397580D01*
X695338Y392500D01*
X690258Y387420D01*
X685178Y392500D01*
X678424Y404857D02*
X683504Y409937D01*
X688584Y404857D01*
X683504Y399777D01*
X678424Y404857D01*
X679406Y419290D02*
X684486Y424370D01*
X689566Y419290D01*
X684486Y414210D01*
X679406Y419290D01*
X503381Y354992D02*
X508461Y360072D01*
X513541Y354992D01*
X508461Y349912D01*
X503381Y354992D01*
X496388Y359874D02*
X501468Y364953D01*
X506548Y359874D01*
X501468Y354794D01*
X496388Y359874D01*
X498715Y345749D02*
X503795Y350829D01*
X508875Y345749D01*
X503795Y340669D01*
X498715Y345749D01*
X129595Y736953D02*
X134675Y742033D01*
X139755Y736953D01*
X134675Y731873D01*
X129595Y736953D01*
X138430Y645471D02*
X143510Y650551D01*
X148590Y645471D01*
X143510Y640391D01*
X138430Y645471D01*
X324920Y676500D02*
X330000Y681580D01*
X335080Y676500D01*
X330000Y671420D01*
X324920Y676500D01*
X284920D02*
X290000Y681580D01*
X295080Y676500D01*
X290000Y671420D01*
X284920Y676500D01*
X244920D02*
X250000Y681580D01*
X255080Y676500D01*
X250000Y671420D01*
X244920Y676500D01*
X204920D02*
X210000Y681580D01*
X215080Y676500D01*
X210000Y671420D01*
X204920Y676500D01*
X139567Y722630D02*
X144647Y727710D01*
X149727Y722630D01*
X144647Y717550D01*
X139567Y722630D01*
Y736953D02*
X144647Y742033D01*
X149727Y736953D01*
X144647Y731873D01*
X139567Y736953D01*
Y750570D02*
X144647Y755650D01*
X149727Y750570D01*
X144647Y745490D01*
X139567Y750570D01*
X129363Y757301D02*
X134443Y762381D01*
X139523Y757301D01*
X134443Y752221D01*
X129363Y757301D01*
X139567Y762000D02*
X144647Y767080D01*
X149727Y762000D01*
X144647Y756920D01*
X139567Y762000D01*
X129146Y682041D02*
X134226Y687121D01*
X139306Y682041D01*
X134226Y676961D01*
X129146Y682041D01*
X373303Y239668D02*
X378383Y244748D01*
X383463Y239668D01*
X378383Y234588D01*
X373303Y239668D01*
X388205Y252601D02*
X393285Y257681D01*
X398365Y252601D01*
X393285Y247521D01*
X388205Y252601D01*
X39936Y547585D02*
X45016Y552665D01*
X50096Y547585D01*
X45016Y542505D01*
X39936Y547585D01*
X737870Y740410D02*
X742950Y745490D01*
X748030Y740410D01*
X742950Y735330D01*
X737870Y740410D01*
X725170D02*
X730250Y745490D01*
X735330Y740410D01*
X730250Y735330D01*
X725170Y740410D01*
X685070Y341630D02*
X690150Y346710D01*
X695229Y341630D01*
X690150Y336550D01*
X685070Y341630D01*
X685178Y321310D02*
X690258Y326390D01*
X695338Y321310D01*
X690258Y316230D01*
X685178Y321310D01*
X495197Y328792D02*
X500277Y333872D01*
X505357Y328792D01*
X500277Y323712D01*
X495197Y328792D01*
X499263Y321093D02*
X504343Y326173D01*
X509423Y321093D01*
X504343Y316013D01*
X499263Y321093D01*
X499110Y335649D02*
X504190Y340729D01*
X509270Y335649D01*
X504190Y330569D01*
X499110Y335649D01*
X678229Y244478D02*
X683309Y249558D01*
X688389Y244478D01*
X683309Y239398D01*
X678229Y244478D01*
X677770Y286984D02*
X682850Y292064D01*
X687930Y286984D01*
X682850Y281904D01*
X677770Y286984D01*
X685178Y363056D02*
X690258Y368136D01*
X695338Y363056D01*
X690258Y357976D01*
X685178Y363056D01*
X515279Y678786D02*
X520359Y683866D01*
X525439Y678786D01*
X520359Y673706D01*
X515279Y678786D01*
X554856Y673595D02*
X559936Y678675D01*
X565016Y673595D01*
X559936Y668515D01*
X554856Y673595D01*
X594880Y673453D02*
X599961Y678533D01*
X605041Y673453D01*
X599961Y668373D01*
X594880Y673453D01*
X634828Y679047D02*
X639908Y684127D01*
X644988Y679047D01*
X639908Y673967D01*
X634828Y679047D01*
X375666Y367668D02*
X380746Y372748D01*
X385826Y367668D01*
X380746Y362588D01*
X375666Y367668D01*
X413766D02*
X418846Y372748D01*
X423926Y367668D01*
X418846Y362588D01*
X413766Y367668D01*
X356616D02*
X361696Y372748D01*
X366776Y367668D01*
X361696Y362588D01*
X356616Y367668D01*
X394716D02*
X399796Y372748D01*
X404876Y367668D01*
X399796Y362588D01*
X394716Y367668D01*
X357840Y420801D02*
X362920Y425881D01*
X368000Y420801D01*
X362920Y415721D01*
X357840Y420801D01*
X367595Y415466D02*
X372676Y420546D01*
X377756Y415466D01*
X372676Y410386D01*
X367595Y415466D01*
X309446Y415300D02*
X314526Y420381D01*
X319606Y415300D01*
X314526Y410220D01*
X309446Y415300D01*
X300930Y420715D02*
X306010Y425795D01*
X311090Y420715D01*
X306010Y415635D01*
X300930Y420715D01*
X380453Y246858D02*
X385533Y251938D01*
X390613Y246858D01*
X385533Y241778D01*
X380453Y246858D01*
X448396Y290320D02*
X453476Y295400D01*
X458556Y290320D01*
X453476Y285240D01*
X448396Y290320D01*
X710346Y137794D02*
X715426Y142874D01*
X720506Y137794D01*
X715426Y132714D01*
X710346Y137794D01*
X735417Y579820D02*
X740497Y584900D01*
X745577Y579820D01*
X740497Y574740D01*
X735417Y579820D01*
Y574040D02*
X740497Y579120D01*
X745577Y574040D01*
X740497Y568960D01*
X735417Y574040D01*
X735035Y554793D02*
X740115Y559873D01*
X745195Y554793D01*
X740115Y549713D01*
X735035Y554793D01*
Y549013D02*
X740115Y554093D01*
X745195Y549013D01*
X740115Y543933D01*
X735035Y549013D01*
X734822Y523494D02*
X739902Y528574D01*
X744982Y523494D01*
X739902Y518414D01*
X734822Y523494D01*
Y529274D02*
X739902Y534354D01*
X744982Y529274D01*
X739902Y524194D01*
X734822Y529274D01*
X720344Y671576D02*
X725424Y676656D01*
X730504Y671576D01*
X725424Y666496D01*
X720344Y671576D01*
X721106Y508000D02*
X726186Y513080D01*
X731266Y508000D01*
X726186Y502920D01*
X721106Y508000D01*
X337598Y277182D02*
X342678Y282262D01*
X347758Y277182D01*
X342678Y272102D01*
X337598Y277182D01*
X356549Y277622D02*
X361629Y282702D01*
X366709Y277622D01*
X361629Y272542D01*
X356549Y277622D01*
X109995Y356970D02*
X115075Y362050D01*
X120155Y356970D01*
X115075Y351890D01*
X109995Y356970D01*
Y371441D02*
X115075Y376521D01*
X120155Y371441D01*
X115075Y366362D01*
X109995Y371441D01*
X99018D02*
X104099Y376521D01*
X109178Y371441D01*
X104099Y366362D01*
X99018Y371441D01*
X99023Y356970D02*
X104103Y362050D01*
X109183Y356970D01*
X104103Y351890D01*
X99023Y356970D01*
X514234Y430983D02*
X519314Y436063D01*
X524394Y430983D01*
X519314Y425903D01*
X514234Y430983D01*
X493287Y437950D02*
X498367Y443030D01*
X503447Y437950D01*
X498367Y432870D01*
X493287Y437950D01*
X493776Y426049D02*
X498856Y431129D01*
X503936Y426049D01*
X498856Y420969D01*
X493776Y426049D01*
X348802Y390856D02*
X353882Y395936D01*
X358963Y390856D01*
X353882Y385776D01*
X348802Y390856D01*
X339311Y395955D02*
X344391Y401035D01*
X349471Y395955D01*
X344391Y390875D01*
X339311Y395955D01*
X303784Y383601D02*
X308864Y388681D01*
X313944Y383601D01*
X308864Y378521D01*
X303784Y383601D01*
X260572Y399996D02*
X265653Y405076D01*
X270732Y399996D01*
X265653Y394916D01*
X260572Y399996D01*
X282826Y405638D02*
X287906Y410718D01*
X292986Y405638D01*
X287906Y400558D01*
X282826Y405638D01*
X274704Y392085D02*
X279784Y397165D01*
X284864Y392085D01*
X279784Y387005D01*
X274704Y392085D01*
X25190Y448064D02*
X30270Y453144D01*
X35350Y448064D01*
X30270Y442984D01*
X25190Y448064D01*
X19815Y393193D02*
X24895Y398273D01*
X29975Y393193D01*
X24895Y388113D01*
X19815Y393193D01*
X47693Y393017D02*
X52773Y398097D01*
X57853Y393017D01*
X52773Y387937D01*
X47693Y393017D01*
X114300Y433252D02*
X119380Y438332D01*
X124460Y433252D01*
X119380Y428172D01*
X114300Y433252D01*
Y423152D02*
X119380Y428232D01*
X124460Y423152D01*
X119380Y418072D01*
X114300Y423152D01*
X82278Y457150D02*
X87358Y462230D01*
X92438Y457150D01*
X87358Y452070D01*
X82278Y457150D01*
X92400Y457200D02*
X97480Y462280D01*
X102560Y457200D01*
X97480Y452120D01*
X92400Y457200D01*
X77301Y509548D02*
X82381Y514627D01*
X87461Y509548D01*
X82381Y504468D01*
X77301Y509548D01*
X47693Y448310D02*
X52773Y453390D01*
X57853Y448310D01*
X52773Y443230D01*
X47693Y448310D01*
Y414782D02*
X52773Y419863D01*
X57853Y414782D01*
X52773Y409702D01*
X47693Y414782D01*
Y437707D02*
X52773Y442788D01*
X57853Y437707D01*
X52773Y432627D01*
X47693Y437707D01*
X422910Y498856D02*
X427990Y503936D01*
X433070Y498856D01*
X427990Y493776D01*
X422910Y498856D01*
X254040Y517453D02*
X259120Y522533D01*
X264200Y517453D01*
X259120Y512373D01*
X254040Y517453D01*
X225427Y511637D02*
X230507Y516717D01*
X235587Y511637D01*
X230507Y506557D01*
X225427Y511637D01*
X312015Y505932D02*
X317096Y511012D01*
X322175Y505932D01*
X317096Y500852D01*
X312015Y505932D01*
X64187Y538260D02*
X69267Y543340D01*
X74347Y538260D01*
X69267Y533180D01*
X64187Y538260D01*
X144184Y384414D02*
X149264Y389494D01*
X154344Y384414D01*
X149264Y379334D01*
X144184Y384414D01*
X227654Y402681D02*
X232734Y407761D01*
X237814Y402681D01*
X232734Y397601D01*
X227654Y402681D01*
X227375Y376844D02*
X232455Y381925D01*
X237535Y376844D01*
X232455Y371764D01*
X227375Y376844D01*
X155889Y372875D02*
X160969Y377955D01*
X166049Y372875D01*
X160969Y367795D01*
X155889Y372875D01*
X413795Y321404D02*
X418875Y326484D01*
X423955Y321404D01*
X418875Y316324D01*
X413795Y321404D01*
X394819Y321403D02*
X399899Y326483D01*
X404979Y321403D01*
X399899Y316323D01*
X394819Y321403D01*
X375878Y321549D02*
X380958Y326629D01*
X386038Y321549D01*
X380958Y316469D01*
X375878Y321549D01*
X357282Y313528D02*
X362362Y318608D01*
X367442Y313528D01*
X362362Y308448D01*
X357282Y313528D01*
X356549Y321090D02*
X361629Y326170D01*
X366709Y321090D01*
X361629Y316010D01*
X356549Y321090D01*
X337312Y349504D02*
X342392Y354584D01*
X347472Y349504D01*
X342392Y344424D01*
X337312Y349504D01*
X446278Y558292D02*
X451358Y563372D01*
X456438Y558292D01*
X451358Y553212D01*
X446278Y558292D01*
X329692Y558800D02*
X334772Y563880D01*
X339852Y558800D01*
X334772Y553720D01*
X329692Y558800D01*
X212598Y559054D02*
X217678Y564134D01*
X222758Y559054D01*
X217678Y553974D01*
X212598Y559054D01*
X95763Y559705D02*
X100843Y564785D01*
X105923Y559705D01*
X100843Y554625D01*
X95763Y559705D01*
X374748Y513402D02*
X379828Y518483D01*
X384908Y513402D01*
X379828Y508322D01*
X374748Y513402D01*
X141611D02*
X146691Y518483D01*
X151771Y513402D01*
X146691Y508322D01*
X141611Y513402D01*
X413395Y538249D02*
X418475Y543329D01*
X423555Y538249D01*
X418475Y533169D01*
X413395Y538249D01*
X418688Y533337D02*
X423768Y538417D01*
X428848Y533337D01*
X423768Y528257D01*
X418688Y533337D01*
X298066Y538163D02*
X303146Y543243D01*
X308226Y538163D01*
X303146Y533083D01*
X298066Y538163D01*
X302120Y533337D02*
X307199Y538417D01*
X312279Y533337D01*
X307199Y528257D01*
X302120Y533337D01*
X435377Y531834D02*
X440457Y536914D01*
X445537Y531834D01*
X440457Y526754D01*
X435377Y531834D01*
X444877D02*
X449957Y536914D01*
X455037Y531834D01*
X449957Y526754D01*
X444877Y531834D01*
X318809D02*
X323889Y536914D01*
X328969Y531834D01*
X323889Y526754D01*
X318809Y531834D01*
X328308D02*
X333388Y536914D01*
X338469Y531834D01*
X333388Y526754D01*
X328308Y531834D01*
X202240D02*
X207320Y536914D01*
X212400Y531834D01*
X207320Y526754D01*
X202240Y531834D01*
X211740D02*
X216820Y536914D01*
X221900Y531834D01*
X216820Y526754D01*
X211740Y531834D01*
X290559Y454155D02*
X295639Y459235D01*
X300719Y454155D01*
X295639Y449075D01*
X290559Y454155D01*
X271821Y454155D02*
X276901Y459235D01*
X281981Y454155D01*
X276901Y449075D01*
X271821Y454155D01*
X253083D02*
X258163Y459235D01*
X263243Y454155D01*
X258163Y449075D01*
X253083Y454155D01*
X327752Y484964D02*
X332832Y490044D01*
X337912Y484964D01*
X332832Y479884D01*
X327752Y484964D01*
X308590D02*
X313670Y490044D01*
X318750Y484964D01*
X313670Y479884D01*
X308590Y484964D01*
X290052D02*
X295132Y490044D01*
X300212Y484964D01*
X295132Y479884D01*
X290052Y484964D01*
X271515D02*
X276595Y490044D01*
X281675Y484964D01*
X276595Y479884D01*
X271515Y484964D01*
X261717Y461742D02*
X266797Y466822D01*
X271877Y461742D01*
X266797Y456662D01*
X261717Y461742D01*
X280692Y476914D02*
X285772Y481994D01*
X290852Y476914D01*
X285772Y471834D01*
X280692Y476914D01*
X227721Y212152D02*
X232801Y217232D01*
X237881Y212152D01*
X232801Y207072D01*
X227721Y212152D01*
X144468Y60764D02*
X149548Y65844D01*
X154628Y60764D01*
X149548Y55684D01*
X144468Y60764D01*
X190319Y533411D02*
X195399Y538491D01*
X200479Y533411D01*
X195399Y528331D01*
X190319Y533411D01*
X692342Y372864D02*
X697422Y377944D01*
X702502Y372864D01*
X697422Y367785D01*
X692342Y372864D01*
X692786Y352002D02*
X697866Y357082D01*
X702946Y352002D01*
X697866Y346922D01*
X692786Y352002D01*
X155956Y159512D02*
X161036Y164592D01*
X166116Y159512D01*
X161036Y154432D01*
X155956Y159512D01*
X65420Y690302D02*
X70500Y695381D01*
X75580Y690302D01*
X70500Y685221D01*
X65420Y690302D01*
X68983Y533337D02*
X74062Y538417D01*
X79142Y533337D01*
X74062Y528257D01*
X68983Y533337D01*
X95171Y531834D02*
X100252Y536914D01*
X105331Y531834D01*
X100252Y526754D01*
X95171Y531834D01*
X85672D02*
X90752Y536914D01*
X95832Y531834D01*
X90752Y526754D01*
X85672Y531834D01*
X182250Y538295D02*
X187330Y543375D01*
X192411Y538295D01*
X187330Y533215D01*
X182250Y538295D01*
X325374Y650250D02*
X330454Y655330D01*
X335534Y650250D01*
X330454Y645170D01*
X325374Y650250D01*
X284920D02*
X290000Y655330D01*
X295080Y650250D01*
X290000Y645170D01*
X284920Y650250D01*
X244920D02*
X250000Y655330D01*
X255080Y650250D01*
X250000Y645170D01*
X244920Y650250D01*
X87908Y515981D02*
X92988Y521061D01*
X98068Y515981D01*
X92988Y510901D01*
X87908Y515981D01*
X110328Y509267D02*
X115408Y514347D01*
X120488Y509267D01*
X115408Y504187D01*
X110328Y509267D01*
X97819Y513739D02*
X102899Y518819D01*
X107979Y513739D01*
X102899Y508659D01*
X97819Y513739D01*
X204477Y515981D02*
X209557Y521061D01*
X214637Y515981D01*
X209557Y510901D01*
X204477Y515981D01*
X214388Y513739D02*
X219468Y518819D01*
X224548Y513739D01*
X219468Y508659D01*
X214388Y513739D01*
X321045Y515981D02*
X326125Y521061D01*
X331205Y515981D01*
X326125Y510901D01*
X321045Y515981D01*
X343465Y509267D02*
X348545Y514347D01*
X353625Y509267D01*
X348545Y504187D01*
X343465Y509267D01*
X330956Y513739D02*
X336036Y518819D01*
X341116Y513739D01*
X336036Y508659D01*
X330956Y513739D01*
X437443Y499936D02*
X442523Y505016D01*
X447603Y499936D01*
X442523Y494856D01*
X437443Y499936D01*
X448000Y514849D02*
X453080Y519929D01*
X458160Y514849D01*
X453080Y509769D01*
X448000Y514849D01*
X442635Y507438D02*
X447715Y512518D01*
X452795Y507438D01*
X447715Y502358D01*
X442635Y507438D01*
X837045Y8881D02*
X842125Y13961D01*
X847205Y8881D01*
X842125Y3801D01*
X837045Y8881D01*
X828802Y6347D02*
X833882Y11427D01*
X838962Y6347D01*
X833882Y1267D01*
X828802Y6347D01*
X817118Y6858D02*
X822198Y11938D01*
X827278Y6858D01*
X822198Y1778D01*
X817118Y6858D01*
X941Y795118D02*
X6021Y800198D01*
X11101Y795118D01*
X6021Y790038D01*
X941Y795118D01*
X790140Y844373D02*
X795220Y849453D01*
X800300Y844373D01*
X795220Y839293D01*
X790140Y844373D01*
X801203Y844220D02*
X806283Y849300D01*
X811363Y844220D01*
X806283Y839140D01*
X801203Y844220D01*
X839739Y795831D02*
X844819Y800911D01*
X849899Y795831D01*
X844819Y790751D01*
X839739Y795831D01*
X839724Y806704D02*
X844804Y811784D01*
X849884Y806704D01*
X844804Y801624D01*
X839724Y806704D01*
X838540Y496780D02*
X843620Y501860D01*
X848700Y496780D01*
X843620Y491699D01*
X838540Y496780D01*
Y486780D02*
X843620Y491860D01*
X848700Y486780D01*
X843620Y481699D01*
X838540Y486780D01*
X715777Y6379D02*
X720856Y11459D01*
X725937Y6379D01*
X720856Y1299D01*
X715777Y6379D01*
X705777D02*
X710856Y11459D01*
X715937Y6379D01*
X710856Y1299D01*
X705777Y6379D01*
X125778D02*
X130858Y11459D01*
X135938Y6379D01*
X130858Y1299D01*
X125778Y6379D01*
X1306Y195503D02*
X6386Y200583D01*
X11466Y195503D01*
X6386Y190423D01*
X1306Y195503D01*
Y205503D02*
X6386Y210583D01*
X11466Y205503D01*
X6386Y200423D01*
X1306Y205503D01*
Y675502D02*
X6386Y680582D01*
X11466Y675502D01*
X6386Y670422D01*
X1306Y675502D01*
Y415503D02*
X6386Y420583D01*
X11466Y415503D01*
X6386Y410423D01*
X1306Y415503D01*
Y235503D02*
X6386Y240583D01*
X11466Y235503D01*
X6386Y230423D01*
X1306Y235503D01*
Y245503D02*
X6386Y250583D01*
X11466Y245503D01*
X6386Y240423D01*
X1306Y245503D01*
X591242Y843614D02*
X596322Y848694D01*
X601402Y843614D01*
X596322Y838534D01*
X591242Y843614D01*
X838540Y236780D02*
X843620Y241860D01*
X848700Y236780D01*
X843620Y231700D01*
X838540Y236780D01*
X1306Y475503D02*
X6386Y480583D01*
X11466Y475503D01*
X6386Y470423D01*
X1306Y475503D01*
Y215503D02*
X6386Y220583D01*
X11466Y215503D01*
X6386Y210423D01*
X1306Y215503D01*
Y375503D02*
X6386Y380583D01*
X11466Y375503D01*
X6386Y370423D01*
X1306Y375503D01*
Y115503D02*
X6386Y120583D01*
X11466Y115503D01*
X6386Y110423D01*
X1306Y115503D01*
Y655502D02*
X6386Y660582D01*
X11466Y655502D01*
X6386Y650422D01*
X1306Y655502D01*
X135778Y6379D02*
X140858Y11459D01*
X145938Y6379D01*
X140858Y1299D01*
X135778Y6379D01*
X511242Y843614D02*
X516322Y848694D01*
X521402Y843614D01*
X516322Y838534D01*
X511242Y843614D01*
X838540Y386780D02*
X843620Y391860D01*
X848700Y386780D01*
X843620Y381700D01*
X838540Y386780D01*
X215777Y6379D02*
X220858Y11459D01*
X225938Y6379D01*
X220858Y1299D01*
X215777Y6379D01*
X1306Y25503D02*
X6386Y30584D01*
X11466Y25503D01*
X6386Y20424D01*
X1306Y25503D01*
X85778Y6379D02*
X90858Y11459D01*
X95938Y6379D01*
X90858Y1299D01*
X85778Y6379D01*
X1306Y325503D02*
X6386Y330583D01*
X11466Y325503D01*
X6386Y320423D01*
X1306Y325503D01*
X751241Y843614D02*
X756321Y848694D01*
X761401Y843614D01*
X756321Y838534D01*
X751241Y843614D01*
X111243D02*
X116323Y848694D01*
X121403Y843614D01*
X116323Y838534D01*
X111243Y843614D01*
X115778Y6379D02*
X120858Y11459D01*
X125938Y6379D01*
X120858Y1299D01*
X115778Y6379D01*
X838540Y636779D02*
X843620Y641859D01*
X848700Y636779D01*
X843620Y631699D01*
X838540Y636779D01*
X805776Y6379D02*
X810856Y11459D01*
X815936Y6379D01*
X810856Y1299D01*
X805776Y6379D01*
X471242Y843614D02*
X476322Y848694D01*
X481402Y843614D01*
X476322Y838534D01*
X471242Y843614D01*
X838540Y766779D02*
X843620Y771859D01*
X848700Y766779D01*
X843620Y761699D01*
X838540Y766779D01*
Y96780D02*
X843620Y101860D01*
X848700Y96780D01*
X843620Y91700D01*
X838540Y96780D01*
X305777Y6379D02*
X310857Y11459D01*
X315937Y6379D01*
X310857Y1299D01*
X305777Y6379D01*
X221243Y843614D02*
X226322Y848694D01*
X231402Y843614D01*
X226322Y838534D01*
X221243Y843614D01*
X1306Y685502D02*
X6386Y690582D01*
X11466Y685502D01*
X6386Y680422D01*
X1306Y685502D01*
X141243Y843614D02*
X146323Y848694D01*
X151403Y843614D01*
X146323Y838534D01*
X141243Y843614D01*
X1306Y285503D02*
X6386Y290583D01*
X11466Y285503D01*
X6386Y280423D01*
X1306Y285503D01*
X838540Y136780D02*
X843620Y141860D01*
X848700Y136780D01*
X843620Y131700D01*
X838540Y136780D01*
X31243Y843614D02*
X36323Y848694D01*
X41403Y843614D01*
X36323Y838534D01*
X31243Y843614D01*
X838540Y836779D02*
X843620Y841859D01*
X848700Y836779D01*
X843620Y831699D01*
X838540Y836779D01*
Y76780D02*
X843620Y81860D01*
X848700Y76780D01*
X843620Y71700D01*
X838540Y76780D01*
X821241Y843614D02*
X826321Y848694D01*
X831401Y843614D01*
X826321Y838534D01*
X821241Y843614D01*
X838540Y676779D02*
X843620Y681859D01*
X848700Y676779D01*
X843620Y671699D01*
X838540Y676779D01*
X575777Y6379D02*
X580857Y11459D01*
X585937Y6379D01*
X580857Y1299D01*
X575777Y6379D01*
X1306Y555503D02*
X6386Y560583D01*
X11466Y555503D01*
X6386Y550423D01*
X1306Y555503D01*
X675777Y6379D02*
X680857Y11459D01*
X685937Y6379D01*
X680857Y1299D01*
X675777Y6379D01*
X838540Y716779D02*
X843620Y721859D01*
X848700Y716779D01*
X843620Y711699D01*
X838540Y716779D01*
Y656779D02*
X843620Y661859D01*
X848700Y656779D01*
X843620Y651699D01*
X838540Y656779D01*
X5780Y6560D02*
X10860Y11640D01*
X15940Y6560D01*
X10860Y1480D01*
X5780Y6560D01*
X201243Y843614D02*
X206322Y848694D01*
X211402Y843614D01*
X206322Y838534D01*
X201243Y843614D01*
X405777Y6379D02*
X410857Y11459D01*
X415937Y6379D01*
X410857Y1299D01*
X405777Y6379D01*
X838540Y696779D02*
X843620Y701859D01*
X848700Y696779D01*
X843620Y691699D01*
X838540Y696779D01*
X441242Y843614D02*
X446322Y848694D01*
X451402Y843614D01*
X446322Y838534D01*
X441242Y843614D01*
X35778Y6379D02*
X40858Y11459D01*
X45938Y6379D01*
X40858Y1299D01*
X35778Y6379D01*
X701242Y843614D02*
X706321Y848694D01*
X711402Y843614D01*
X706321Y838534D01*
X701242Y843614D01*
X795776Y6379D02*
X800856Y11459D01*
X805936Y6379D01*
X800856Y1299D01*
X795776Y6379D01*
X1306Y315503D02*
X6386Y320583D01*
X11466Y315503D01*
X6386Y310423D01*
X1306Y315503D01*
X838540Y826779D02*
X843620Y831859D01*
X848700Y826779D01*
X843620Y821699D01*
X838540Y826779D01*
X745777Y6379D02*
X750856Y11459D01*
X755937Y6379D01*
X750856Y1299D01*
X745777Y6379D01*
X515777D02*
X520857Y11459D01*
X525937Y6379D01*
X520857Y1299D01*
X515777Y6379D01*
X838540Y606779D02*
X843620Y611859D01*
X848700Y606779D01*
X843620Y601699D01*
X838540Y606779D01*
Y546779D02*
X843620Y551859D01*
X848700Y546779D01*
X843620Y541699D01*
X838540Y546779D01*
Y56780D02*
X843620Y61860D01*
X848700Y56780D01*
X843620Y51700D01*
X838540Y56780D01*
X685777Y6379D02*
X690857Y11459D01*
X695937Y6379D01*
X690857Y1299D01*
X685777Y6379D01*
X1306Y55504D02*
X6386Y60584D01*
X11466Y55504D01*
X6386Y50423D01*
X1306Y55504D01*
X295777Y6379D02*
X300857Y11459D01*
X305937Y6379D01*
X300857Y1299D01*
X295777Y6379D01*
X621242Y843614D02*
X626322Y848694D01*
X631402Y843614D01*
X626322Y838534D01*
X621242Y843614D01*
X838540Y446780D02*
X843620Y451860D01*
X848700Y446780D01*
X843620Y441700D01*
X838540Y446780D01*
Y376780D02*
X843620Y381860D01*
X848700Y376780D01*
X843620Y371700D01*
X838540Y376780D01*
Y326780D02*
X843620Y331860D01*
X848700Y326780D01*
X843620Y321700D01*
X838540Y326780D01*
Y286780D02*
X843620Y291860D01*
X848700Y286780D01*
X843620Y281700D01*
X838540Y286780D01*
X1306Y495503D02*
X6386Y500583D01*
X11466Y495503D01*
X6386Y490423D01*
X1306Y495503D01*
X838540Y256780D02*
X843620Y261860D01*
X848700Y256780D01*
X843620Y251700D01*
X838540Y256780D01*
X71243Y843614D02*
X76323Y848694D01*
X81403Y843614D01*
X76323Y838534D01*
X71243Y843614D01*
X191243D02*
X196322Y848694D01*
X201402Y843614D01*
X196322Y838534D01*
X191243Y843614D01*
X265777Y6379D02*
X270857Y11459D01*
X275937Y6379D01*
X270857Y1299D01*
X265777Y6379D01*
X1306Y65504D02*
X6386Y70584D01*
X11466Y65504D01*
X6386Y60423D01*
X1306Y65504D01*
X525777Y6379D02*
X530857Y11459D01*
X535937Y6379D01*
X530857Y1299D01*
X525777Y6379D01*
X1306Y505503D02*
X6386Y510583D01*
X11466Y505503D01*
X6386Y500423D01*
X1306Y505503D01*
X51243Y843614D02*
X56323Y848694D01*
X61403Y843614D01*
X56323Y838534D01*
X51243Y843614D01*
X761241D02*
X766321Y848694D01*
X771401Y843614D01*
X766321Y838534D01*
X761241Y843614D01*
X565777Y6379D02*
X570857Y11459D01*
X575937Y6379D01*
X570857Y1299D01*
X565777Y6379D01*
X838540Y666779D02*
X843620Y671859D01*
X848700Y666779D01*
X843620Y661699D01*
X838540Y666779D01*
X55778Y6379D02*
X60858Y11459D01*
X65938Y6379D01*
X60858Y1299D01*
X55778Y6379D01*
X838540Y536779D02*
X843620Y541859D01*
X848700Y536779D01*
X843620Y531699D01*
X838540Y536779D01*
X1306Y345503D02*
X6386Y350583D01*
X11466Y345503D01*
X6386Y340423D01*
X1306Y345503D01*
X838540Y396780D02*
X843620Y401860D01*
X848700Y396780D01*
X843620Y391700D01*
X838540Y396780D01*
X1306Y295503D02*
X6386Y300583D01*
X11466Y295503D01*
X6386Y290423D01*
X1306Y295503D01*
X661242Y843614D02*
X666322Y848694D01*
X671402Y843614D01*
X666322Y838534D01*
X661242Y843614D01*
X185778Y6379D02*
X190858Y11459D01*
X195938Y6379D01*
X190858Y1299D01*
X185778Y6379D01*
X1306Y365503D02*
X6386Y370583D01*
X11466Y365503D01*
X6386Y360423D01*
X1306Y365503D01*
X251242Y843614D02*
X256322Y848694D01*
X261402Y843614D01*
X256322Y838534D01*
X251242Y843614D01*
X401242D02*
X406322Y848694D01*
X411402Y843614D01*
X406322Y838534D01*
X401242Y843614D01*
X838540Y106780D02*
X843620Y111860D01*
X848700Y106780D01*
X843620Y101700D01*
X838540Y106780D01*
X1306Y445503D02*
X6386Y450583D01*
X11466Y445503D01*
X6386Y440423D01*
X1306Y445503D01*
X355777Y6379D02*
X360857Y11459D01*
X365937Y6379D01*
X360857Y1299D01*
X355777Y6379D01*
X838540Y26781D02*
X843620Y31860D01*
X848700Y26781D01*
X843620Y21700D01*
X838540Y26781D01*
X635777Y6379D02*
X640857Y11459D01*
X645937Y6379D01*
X640857Y1299D01*
X635777Y6379D01*
X1306Y145503D02*
X6386Y150583D01*
X11466Y145503D01*
X6386Y140423D01*
X1306Y145503D01*
Y135503D02*
X6386Y140583D01*
X11466Y135503D01*
X6386Y130423D01*
X1306Y135503D01*
X641242Y843614D02*
X646322Y848694D01*
X651402Y843614D01*
X646322Y838534D01*
X641242Y843614D01*
X1306Y75503D02*
X6386Y80583D01*
X11466Y75503D01*
X6386Y70423D01*
X1306Y75503D01*
Y805502D02*
X6386Y810582D01*
X11466Y805502D01*
X6386Y800422D01*
X1306Y805502D01*
Y515503D02*
X6386Y520583D01*
X11466Y515503D01*
X6386Y510423D01*
X1306Y515503D01*
Y725502D02*
X6386Y730582D01*
X11466Y725502D01*
X6386Y720422D01*
X1306Y725502D01*
Y395503D02*
X6386Y400583D01*
X11466Y395503D01*
X6386Y390423D01*
X1306Y395503D01*
X231242Y843614D02*
X236322Y848694D01*
X241402Y843614D01*
X236322Y838534D01*
X231242Y843614D01*
X838540Y36780D02*
X843620Y41860D01*
X848700Y36780D01*
X843620Y31700D01*
X838540Y36780D01*
X1306Y105503D02*
X6386Y110583D01*
X11466Y105503D01*
X6386Y100423D01*
X1306Y105503D01*
Y155503D02*
X6386Y160583D01*
X11466Y155503D01*
X6386Y150423D01*
X1306Y155503D01*
X175778Y6379D02*
X180858Y11459D01*
X185938Y6379D01*
X180858Y1299D01*
X175778Y6379D01*
X1306Y605502D02*
X6386Y610582D01*
X11466Y605502D01*
X6386Y600422D01*
X1306Y605502D01*
X161243Y843614D02*
X166323Y848694D01*
X171403Y843614D01*
X166323Y838534D01*
X161243Y843614D01*
X561242D02*
X566322Y848694D01*
X571402Y843614D01*
X566322Y838534D01*
X561242Y843614D01*
X838540Y516780D02*
X843620Y521860D01*
X848700Y516780D01*
X843620Y511699D01*
X838540Y516780D01*
X1306Y15504D02*
X6386Y20584D01*
X11466Y15504D01*
X6386Y10424D01*
X1306Y15504D01*
Y265503D02*
X6386Y270583D01*
X11466Y265503D01*
X6386Y260423D01*
X1306Y265503D01*
X485777Y6379D02*
X490857Y11459D01*
X495937Y6379D01*
X490857Y1299D01*
X485777Y6379D01*
X838540Y46780D02*
X843620Y51860D01*
X848700Y46780D01*
X843620Y41700D01*
X838540Y46780D01*
X461242Y843614D02*
X466322Y848694D01*
X471402Y843614D01*
X466322Y838534D01*
X461242Y843614D01*
X1306Y45504D02*
X6386Y50584D01*
X11466Y45504D01*
X6386Y40423D01*
X1306Y45504D01*
X631242Y843614D02*
X636322Y848694D01*
X641402Y843614D01*
X636322Y838534D01*
X631242Y843614D01*
X781241D02*
X786321Y848694D01*
X791401Y843614D01*
X786321Y838534D01*
X781241Y843614D01*
X838540Y596779D02*
X843620Y601859D01*
X848700Y596779D01*
X843620Y591699D01*
X838540Y596779D01*
Y816779D02*
X843620Y821859D01*
X848700Y816779D01*
X843620Y811699D01*
X838540Y816779D01*
X451242Y843614D02*
X456322Y848694D01*
X461402Y843614D01*
X456322Y838534D01*
X451242Y843614D01*
X721242D02*
X726321Y848694D01*
X731402Y843614D01*
X726321Y838534D01*
X721242Y843614D01*
X838540Y506780D02*
X843620Y511860D01*
X848700Y506780D01*
X843620Y501699D01*
X838540Y506780D01*
Y116780D02*
X843620Y121860D01*
X848700Y116780D01*
X843620Y111700D01*
X838540Y116780D01*
Y296780D02*
X843620Y301860D01*
X848700Y296780D01*
X843620Y291700D01*
X838540Y296780D01*
X615777Y6379D02*
X620857Y11459D01*
X625937Y6379D01*
X620857Y1299D01*
X615777Y6379D01*
X45778D02*
X50858Y11459D01*
X55938Y6379D01*
X50858Y1299D01*
X45778Y6379D01*
X1306Y585502D02*
X6386Y590582D01*
X11466Y585502D01*
X6386Y580422D01*
X1306Y585502D01*
X495777Y6379D02*
X500857Y11459D01*
X505937Y6379D01*
X500857Y1299D01*
X495777Y6379D01*
X195778D02*
X200858Y11459D01*
X205938Y6379D01*
X200858Y1299D01*
X195778Y6379D01*
X1306Y705502D02*
X6386Y710582D01*
X11466Y705502D01*
X6386Y700422D01*
X1306Y705502D01*
X481242Y843614D02*
X486322Y848694D01*
X491402Y843614D01*
X486322Y838534D01*
X481242Y843614D01*
X1306Y755502D02*
X6386Y760582D01*
X11466Y755502D01*
X6386Y750422D01*
X1306Y755502D01*
Y695502D02*
X6386Y700582D01*
X11466Y695502D01*
X6386Y690422D01*
X1306Y695502D01*
X331242Y843614D02*
X336322Y848694D01*
X341402Y843614D01*
X336322Y838534D01*
X331242Y843614D01*
X1306Y85503D02*
X6386Y90583D01*
X11466Y85503D01*
X6386Y80423D01*
X1306Y85503D01*
X838540Y166780D02*
X843620Y171860D01*
X848700Y166780D01*
X843620Y161700D01*
X838540Y166780D01*
X1306Y485503D02*
X6386Y490583D01*
X11466Y485503D01*
X6386Y480423D01*
X1306Y485503D01*
X838540Y336780D02*
X843620Y341860D01*
X848700Y336780D01*
X843620Y331700D01*
X838540Y336780D01*
X415777Y6379D02*
X420857Y11459D01*
X425937Y6379D01*
X420857Y1299D01*
X415777Y6379D01*
X771241Y843614D02*
X776321Y848694D01*
X781401Y843614D01*
X776321Y838534D01*
X771241Y843614D01*
X838540Y466780D02*
X843620Y471860D01*
X848700Y466780D01*
X843620Y461700D01*
X838540Y466780D01*
X345777Y6379D02*
X350857Y11459D01*
X355937Y6379D01*
X350857Y1299D01*
X345777Y6379D01*
X1306Y175503D02*
X6386Y180583D01*
X11466Y175503D01*
X6386Y170423D01*
X1306Y175503D01*
X41243Y843614D02*
X46323Y848694D01*
X51403Y843614D01*
X46323Y838534D01*
X41243Y843614D01*
X691242D02*
X696321Y848694D01*
X701402Y843614D01*
X696321Y838534D01*
X691242Y843614D01*
X75778Y6379D02*
X80858Y11459D01*
X85938Y6379D01*
X80858Y1299D01*
X75778Y6379D01*
X838540Y756779D02*
X843620Y761859D01*
X848700Y756779D01*
X843620Y751699D01*
X838540Y756779D01*
Y626779D02*
X843620Y631859D01*
X848700Y626779D01*
X843620Y621699D01*
X838540Y626779D01*
X505777Y6379D02*
X510857Y11459D01*
X515937Y6379D01*
X510857Y1299D01*
X505777Y6379D01*
X755776D02*
X760856Y11459D01*
X765936Y6379D01*
X760856Y1299D01*
X755776Y6379D01*
X291242Y843614D02*
X296322Y848694D01*
X301402Y843614D01*
X296322Y838534D01*
X291242Y843614D01*
X838540Y456780D02*
X843620Y461860D01*
X848700Y456780D01*
X843620Y451700D01*
X838540Y456780D01*
X475777Y6379D02*
X480857Y11459D01*
X485937Y6379D01*
X480857Y1299D01*
X475777Y6379D01*
X651242Y843614D02*
X656322Y848694D01*
X661402Y843614D01*
X656322Y838534D01*
X651242Y843614D01*
X838540Y436780D02*
X843620Y441860D01*
X848700Y436780D01*
X843620Y431700D01*
X838540Y436780D01*
X1306Y95503D02*
X6386Y100583D01*
X11466Y95503D01*
X6386Y90423D01*
X1306Y95503D01*
X105778Y6379D02*
X110858Y11459D01*
X115938Y6379D01*
X110858Y1299D01*
X105778Y6379D01*
X838540Y736779D02*
X843620Y741859D01*
X848700Y736779D01*
X843620Y731699D01*
X838540Y736779D01*
Y246780D02*
X843620Y251860D01*
X848700Y246780D01*
X843620Y241700D01*
X838540Y246780D01*
X335777Y6379D02*
X340857Y11459D01*
X345937Y6379D01*
X340857Y1299D01*
X335777Y6379D01*
X261242Y843614D02*
X266322Y848694D01*
X271402Y843614D01*
X266322Y838534D01*
X261242Y843614D01*
X1306Y615502D02*
X6386Y620582D01*
X11466Y615502D01*
X6386Y610422D01*
X1306Y615502D01*
X65778Y6379D02*
X70858Y11459D01*
X75938Y6379D01*
X70858Y1299D01*
X65778Y6379D01*
X171243Y843614D02*
X176323Y848694D01*
X181403Y843614D01*
X176323Y838534D01*
X171243Y843614D01*
X341242D02*
X346322Y848694D01*
X351402Y843614D01*
X346322Y838534D01*
X341242Y843614D01*
X371242D02*
X376322Y848694D01*
X381402Y843614D01*
X376322Y838534D01*
X371242Y843614D01*
X611242D02*
X616322Y848694D01*
X621402Y843614D01*
X616322Y838534D01*
X611242Y843614D01*
X838540Y746779D02*
X843620Y751859D01*
X848700Y746779D01*
X843620Y741699D01*
X838540Y746779D01*
Y346780D02*
X843620Y351860D01*
X848700Y346780D01*
X843620Y341700D01*
X838540Y346780D01*
Y226780D02*
X843620Y231860D01*
X848700Y226780D01*
X843620Y221700D01*
X838540Y226780D01*
X325777Y6379D02*
X330857Y11459D01*
X335937Y6379D01*
X330857Y1299D01*
X325777Y6379D01*
X838540Y776779D02*
X843620Y781859D01*
X848700Y776779D01*
X843620Y771699D01*
X838540Y776779D01*
Y646779D02*
X843620Y651859D01*
X848700Y646779D01*
X843620Y641699D01*
X838540Y646779D01*
X1306Y575502D02*
X6386Y580582D01*
X11466Y575502D01*
X6386Y570422D01*
X1306Y575502D01*
X101243Y843614D02*
X106323Y848694D01*
X111403Y843614D01*
X106323Y838534D01*
X101243Y843614D01*
X181243D02*
X186322Y848694D01*
X191402Y843614D01*
X186322Y838534D01*
X181243Y843614D01*
X271242D02*
X276322Y848694D01*
X281402Y843614D01*
X276322Y838534D01*
X271242Y843614D01*
X301242D02*
X306322Y848694D01*
X311402Y843614D01*
X306322Y838534D01*
X301242Y843614D01*
X671242D02*
X676322Y848694D01*
X681402Y843614D01*
X676322Y838534D01*
X671242Y843614D01*
X1306Y745502D02*
X6386Y750582D01*
X11466Y745502D01*
X6386Y740422D01*
X1306Y745502D01*
Y785502D02*
X6386Y790582D01*
X11466Y785502D01*
X6386Y780422D01*
X1306Y785502D01*
X421242Y843614D02*
X426322Y848694D01*
X431402Y843614D01*
X426322Y838534D01*
X421242Y843614D01*
X365777Y6379D02*
X370857Y11459D01*
X375937Y6379D01*
X370857Y1299D01*
X365777Y6379D01*
X838540Y196780D02*
X843620Y201860D01*
X848700Y196780D01*
X843620Y191700D01*
X838540Y196780D01*
X541242Y843614D02*
X546322Y848694D01*
X551402Y843614D01*
X546322Y838534D01*
X541242Y843614D01*
X741241D02*
X746321Y848694D01*
X751401Y843614D01*
X746321Y838534D01*
X741241Y843614D01*
X838540Y576779D02*
X843620Y581859D01*
X848700Y576779D01*
X843620Y571699D01*
X838540Y576779D01*
X545777Y6379D02*
X550857Y11459D01*
X555937Y6379D01*
X550857Y1299D01*
X545777Y6379D01*
X838540Y356780D02*
X843620Y361860D01*
X848700Y356780D01*
X843620Y351700D01*
X838540Y356780D01*
X281242Y843614D02*
X286322Y848694D01*
X291402Y843614D01*
X286322Y838534D01*
X281242Y843614D01*
X571242D02*
X576322Y848694D01*
X581402Y843614D01*
X576322Y838534D01*
X571242Y843614D01*
X431242D02*
X436322Y848694D01*
X441402Y843614D01*
X436322Y838534D01*
X431242Y843614D01*
X1306Y275503D02*
X6386Y280583D01*
X11466Y275503D01*
X6386Y270423D01*
X1306Y275503D01*
Y185503D02*
X6386Y190583D01*
X11466Y185503D01*
X6386Y180423D01*
X1306Y185503D01*
X285777Y6379D02*
X290857Y11459D01*
X295937Y6379D01*
X290857Y1299D01*
X285777Y6379D01*
X1306Y765502D02*
X6386Y770582D01*
X11466Y765502D01*
X6386Y760422D01*
X1306Y765502D01*
X81243Y843614D02*
X86323Y848694D01*
X91403Y843614D01*
X86323Y838534D01*
X81243Y843614D01*
X785776Y6379D02*
X790856Y11459D01*
X795936Y6379D01*
X790856Y1299D01*
X785776Y6379D01*
X131243Y843614D02*
X136323Y848694D01*
X141403Y843614D01*
X136323Y838534D01*
X131243Y843614D01*
X151243D02*
X156323Y848694D01*
X161403Y843614D01*
X156323Y838534D01*
X151243Y843614D01*
X1306Y565503D02*
X6386Y570583D01*
X11466Y565503D01*
X6386Y560423D01*
X1306Y565503D01*
Y825502D02*
X6386Y830582D01*
X11466Y825502D01*
X6386Y820422D01*
X1306Y825502D01*
X838540Y206780D02*
X843620Y211860D01*
X848700Y206780D01*
X843620Y201700D01*
X838540Y206780D01*
Y126780D02*
X843620Y131860D01*
X848700Y126780D01*
X843620Y121700D01*
X838540Y126780D01*
Y146780D02*
X843620Y151860D01*
X848700Y146780D01*
X843620Y141700D01*
X838540Y146780D01*
X1306Y125503D02*
X6386Y130583D01*
X11466Y125503D01*
X6386Y120423D01*
X1306Y125503D01*
X235777Y6379D02*
X240858Y11459D01*
X245938Y6379D01*
X240858Y1299D01*
X235777Y6379D01*
X1306Y225503D02*
X6386Y230583D01*
X11466Y225503D01*
X6386Y220423D01*
X1306Y225503D01*
X838540Y706779D02*
X843620Y711859D01*
X848700Y706779D01*
X843620Y701699D01*
X838540Y706779D01*
X165778Y6379D02*
X170858Y11459D01*
X175938Y6379D01*
X170858Y1299D01*
X165778Y6379D01*
X531242Y843614D02*
X536322Y848694D01*
X541402Y843614D01*
X536322Y838534D01*
X531242Y843614D01*
X535777Y6379D02*
X540857Y11459D01*
X545937Y6379D01*
X540857Y1299D01*
X535777Y6379D01*
X838540Y266780D02*
X843620Y271860D01*
X848700Y266780D01*
X843620Y261700D01*
X838540Y266780D01*
Y726779D02*
X843620Y731859D01*
X848700Y726779D01*
X843620Y721699D01*
X838540Y726779D01*
X315777Y6379D02*
X320857Y11459D01*
X325937Y6379D01*
X320857Y1299D01*
X315777Y6379D01*
X765776D02*
X770856Y11459D01*
X775936Y6379D01*
X770856Y1299D01*
X765776Y6379D01*
X1306Y435503D02*
X6386Y440583D01*
X11466Y435503D01*
X6386Y430423D01*
X1306Y435503D01*
X381242Y843614D02*
X386322Y848694D01*
X391402Y843614D01*
X386322Y838534D01*
X381242Y843614D01*
X838540Y316780D02*
X843620Y321860D01*
X848700Y316780D01*
X843620Y311700D01*
X838540Y316780D01*
X1306Y165503D02*
X6386Y170583D01*
X11466Y165503D01*
X6386Y160423D01*
X1306Y165503D01*
X501242Y843614D02*
X506322Y848694D01*
X511402Y843614D01*
X506322Y838534D01*
X501242Y843614D01*
X838540Y686779D02*
X843620Y691859D01*
X848700Y686779D01*
X843620Y681699D01*
X838540Y686779D01*
Y416780D02*
X843620Y421860D01*
X848700Y416780D01*
X843620Y411700D01*
X838540Y416780D01*
X7153Y843614D02*
X12233Y848694D01*
X17313Y843614D01*
X12233Y838534D01*
X7153Y843614D01*
X585777Y6379D02*
X590857Y11459D01*
X595937Y6379D01*
X590857Y1299D01*
X585777Y6379D01*
X375777D02*
X380857Y11459D01*
X385937Y6379D01*
X380857Y1299D01*
X375777Y6379D01*
X1306Y625502D02*
X6386Y630582D01*
X11466Y625502D01*
X6386Y620422D01*
X1306Y625502D01*
X838540Y426780D02*
X843620Y431860D01*
X848700Y426780D01*
X843620Y421700D01*
X838540Y426780D01*
X1306Y535503D02*
X6386Y540583D01*
X11466Y535503D01*
X6386Y530423D01*
X1306Y535503D01*
X838540Y16781D02*
X843620Y21860D01*
X848700Y16781D01*
X843620Y11701D01*
X838540Y16781D01*
X255777Y6379D02*
X260857Y11459D01*
X265937Y6379D01*
X260857Y1299D01*
X255777Y6379D01*
X1306Y465503D02*
X6386Y470583D01*
X11466Y465503D01*
X6386Y460423D01*
X1306Y465503D01*
X811241Y843614D02*
X816321Y848694D01*
X821401Y843614D01*
X816321Y838534D01*
X811241Y843614D01*
X211243D02*
X216322Y848694D01*
X221402Y843614D01*
X216322Y838534D01*
X211243Y843614D01*
X838540Y476780D02*
X843620Y481860D01*
X848700Y476780D01*
X843620Y471700D01*
X838540Y476780D01*
X145778Y6379D02*
X150858Y11459D01*
X155938Y6379D01*
X150858Y1299D01*
X145778Y6379D01*
X445777D02*
X450857Y11459D01*
X455937Y6379D01*
X450857Y1299D01*
X445777Y6379D01*
X205777D02*
X210858Y11459D01*
X215938Y6379D01*
X210858Y1299D01*
X205777Y6379D01*
X521242Y843614D02*
X526322Y848694D01*
X531402Y843614D01*
X526322Y838534D01*
X521242Y843614D01*
X775776Y6379D02*
X780856Y11459D01*
X785936Y6379D01*
X780856Y1299D01*
X775776Y6379D01*
X601242Y843614D02*
X606322Y848694D01*
X611402Y843614D01*
X606322Y838534D01*
X601242Y843614D01*
X838540Y566779D02*
X843620Y571859D01*
X848700Y566779D01*
X843620Y561699D01*
X838540Y566779D01*
X645777Y6379D02*
X650857Y11459D01*
X655937Y6379D01*
X650857Y1299D01*
X645777Y6379D01*
X1306Y595502D02*
X6386Y600582D01*
X11466Y595502D01*
X6386Y590422D01*
X1306Y595502D01*
X225777Y6379D02*
X230858Y11459D01*
X235938Y6379D01*
X230858Y1299D01*
X225777Y6379D01*
X15778D02*
X20858Y11459D01*
X25938Y6379D01*
X20858Y1299D01*
X15778Y6379D01*
X681242Y843614D02*
X686321Y848694D01*
X691402Y843614D01*
X686321Y838534D01*
X681242Y843614D01*
X838540Y66780D02*
X843620Y71860D01*
X848700Y66780D01*
X843620Y61700D01*
X838540Y66780D01*
Y276780D02*
X843620Y281860D01*
X848700Y276780D01*
X843620Y271700D01*
X838540Y276780D01*
X1306Y815502D02*
X6386Y820582D01*
X11466Y815502D01*
X6386Y810422D01*
X1306Y815502D01*
X665777Y6379D02*
X670857Y11459D01*
X675937Y6379D01*
X670857Y1299D01*
X665777Y6379D01*
X1306Y525503D02*
X6386Y530583D01*
X11466Y525503D01*
X6386Y520423D01*
X1306Y525503D01*
X838540Y86780D02*
X843620Y91860D01*
X848700Y86780D01*
X843620Y81700D01*
X838540Y86780D01*
X351242Y843614D02*
X356322Y848694D01*
X361402Y843614D01*
X356322Y838534D01*
X351242Y843614D01*
X605777Y6379D02*
X610857Y11459D01*
X615937Y6379D01*
X610857Y1299D01*
X605777Y6379D01*
X551242Y843614D02*
X556322Y848694D01*
X561402Y843614D01*
X556322Y838534D01*
X551242Y843614D01*
X838540Y556779D02*
X843620Y561859D01*
X848700Y556779D01*
X843620Y551699D01*
X838540Y556779D01*
Y366780D02*
X843620Y371860D01*
X848700Y366780D01*
X843620Y361700D01*
X838540Y366780D01*
X581242Y843614D02*
X586322Y848694D01*
X591402Y843614D01*
X586322Y838534D01*
X581242Y843614D01*
X711242D02*
X716321Y848694D01*
X721402Y843614D01*
X716321Y838534D01*
X711242Y843614D01*
X595777Y6379D02*
X600857Y11459D01*
X605937Y6379D01*
X600857Y1299D01*
X595777Y6379D01*
X695777D02*
X700857Y11459D01*
X705937Y6379D01*
X700857Y1299D01*
X695777Y6379D01*
X838540Y786779D02*
X843620Y791859D01*
X848700Y786779D01*
X843620Y781699D01*
X838540Y786779D01*
X1306Y355503D02*
X6386Y360583D01*
X11466Y355503D01*
X6386Y350423D01*
X1306Y355503D01*
X838540Y176780D02*
X843620Y181860D01*
X848700Y176780D01*
X843620Y171700D01*
X838540Y176780D01*
X91243Y843614D02*
X96323Y848694D01*
X101403Y843614D01*
X96323Y838534D01*
X91243Y843614D01*
X1306Y455503D02*
X6386Y460583D01*
X11466Y455503D01*
X6386Y450423D01*
X1306Y455503D01*
X121243Y843614D02*
X126323Y848694D01*
X131403Y843614D01*
X126323Y838534D01*
X121243Y843614D01*
X1306Y635502D02*
X6386Y640582D01*
X11466Y635502D01*
X6386Y630422D01*
X1306Y635502D01*
X838540Y616779D02*
X843620Y621859D01*
X848700Y616779D01*
X843620Y611699D01*
X838540Y616779D01*
X555777Y6379D02*
X560857Y11459D01*
X565937Y6379D01*
X560857Y1299D01*
X555777Y6379D01*
X465777D02*
X470857Y11459D01*
X475937Y6379D01*
X470857Y1299D01*
X465777Y6379D01*
X1306Y665502D02*
X6386Y670582D01*
X11466Y665502D01*
X6386Y660422D01*
X1306Y665502D01*
Y735502D02*
X6386Y740582D01*
X11466Y735502D01*
X6386Y730422D01*
X1306Y735502D01*
Y775502D02*
X6386Y780582D01*
X11466Y775502D01*
X6386Y770422D01*
X1306Y775502D01*
X385777Y6379D02*
X390857Y11459D01*
X395937Y6379D01*
X390857Y1299D01*
X385777Y6379D01*
X25778D02*
X30858Y11459D01*
X35938Y6379D01*
X30858Y1299D01*
X25778Y6379D01*
X1306Y305503D02*
X6386Y310583D01*
X11466Y305503D01*
X6386Y300423D01*
X1306Y305503D01*
X321242Y843614D02*
X326322Y848694D01*
X331402Y843614D01*
X326322Y838534D01*
X321242Y843614D01*
X361242D02*
X366322Y848694D01*
X371402Y843614D01*
X366322Y838534D01*
X361242Y843614D01*
X625777Y6379D02*
X630857Y11459D01*
X635937Y6379D01*
X630857Y1299D01*
X625777Y6379D01*
X391242Y843614D02*
X396322Y848694D01*
X401402Y843614D01*
X396322Y838534D01*
X391242Y843614D01*
X838540Y216780D02*
X843620Y221860D01*
X848700Y216780D01*
X843620Y211700D01*
X838540Y216780D01*
X275777Y6379D02*
X280857Y11459D01*
X285937Y6379D01*
X280857Y1299D01*
X275777Y6379D01*
X435777D02*
X440857Y11459D01*
X445937Y6379D01*
X440857Y1299D01*
X435777Y6379D01*
X1306Y545503D02*
X6386Y550583D01*
X11466Y545503D01*
X6386Y540423D01*
X1306Y545503D01*
X155778Y6379D02*
X160858Y11459D01*
X165938Y6379D01*
X160858Y1299D01*
X155778Y6379D01*
X61243Y843614D02*
X66323Y848694D01*
X71403Y843614D01*
X66323Y838534D01*
X61243Y843614D01*
X838540Y186780D02*
X843620Y191860D01*
X848700Y186780D01*
X843620Y181700D01*
X838540Y186780D01*
X731241Y843614D02*
X736321Y848694D01*
X741401Y843614D01*
X736321Y838534D01*
X731241Y843614D01*
X95778Y6379D02*
X100858Y11459D01*
X105938Y6379D01*
X100858Y1299D01*
X95778Y6379D01*
X425777D02*
X430857Y11459D01*
X435937Y6379D01*
X430857Y1299D01*
X425777Y6379D01*
X838540Y156780D02*
X843620Y161860D01*
X848700Y156780D01*
X843620Y151700D01*
X838540Y156780D01*
X1306Y835502D02*
X6386Y840582D01*
X11466Y835502D01*
X6386Y830422D01*
X1306Y835502D01*
Y255503D02*
X6386Y260583D01*
X11466Y255503D01*
X6386Y250423D01*
X1306Y255503D01*
Y385503D02*
X6386Y390583D01*
X11466Y385503D01*
X6386Y380423D01*
X1306Y385503D01*
Y715502D02*
X6386Y720582D01*
X11466Y715502D01*
X6386Y710422D01*
X1306Y715502D01*
X491242Y843614D02*
X496322Y848694D01*
X501402Y843614D01*
X496322Y838534D01*
X491242Y843614D01*
X241242D02*
X246322Y848694D01*
X251402Y843614D01*
X246322Y838534D01*
X241242Y843614D01*
X838540Y306780D02*
X843620Y311860D01*
X848700Y306780D01*
X843620Y301700D01*
X838540Y306780D01*
X395777Y6379D02*
X400857Y11459D01*
X405937Y6379D01*
X400857Y1299D01*
X395777Y6379D01*
X1306Y335503D02*
X6386Y340583D01*
X11466Y335503D01*
X6386Y330423D01*
X1306Y335503D01*
X411242Y843614D02*
X416322Y848694D01*
X421402Y843614D01*
X416322Y838534D01*
X411242Y843614D01*
X725777Y6379D02*
X730856Y11459D01*
X735937Y6379D01*
X730856Y1299D01*
X725777Y6379D01*
X21243Y843614D02*
X26323Y848694D01*
X31403Y843614D01*
X26323Y838534D01*
X21243Y843614D01*
X311242D02*
X316322Y848694D01*
X321402Y843614D01*
X316322Y838534D01*
X311242Y843614D01*
X838540Y406780D02*
X843620Y411860D01*
X848700Y406780D01*
X843620Y401700D01*
X838540Y406780D01*
X655777Y6379D02*
X660857Y11459D01*
X665937Y6379D01*
X660857Y1299D01*
X655777Y6379D01*
X455777D02*
X460857Y11459D01*
X465937Y6379D01*
X460857Y1299D01*
X455777Y6379D01*
X245777D02*
X250858Y11459D01*
X255938Y6379D01*
X250858Y1299D01*
X245777Y6379D01*
X735777D02*
X740856Y11459D01*
X745937Y6379D01*
X740856Y1299D01*
X735777Y6379D01*
X1306Y405503D02*
X6386Y410583D01*
X11466Y405503D01*
X6386Y400423D01*
X1306Y405503D01*
Y425503D02*
X6386Y430583D01*
X11466Y425503D01*
X6386Y420423D01*
X1306Y425503D01*
Y645502D02*
X6386Y650582D01*
X11466Y645502D01*
X6386Y640422D01*
X1306Y645502D01*
X838540Y586779D02*
X843620Y591859D01*
X848700Y586779D01*
X843620Y581699D01*
X838540Y586779D01*
X1306Y35503D02*
X6386Y40584D01*
X11466Y35503D01*
X6386Y30424D01*
X1306Y35503D01*
X838540Y526780D02*
X843620Y531860D01*
X848700Y526780D01*
X843620Y521699D01*
X838540Y526780D01*
X831241Y843614D02*
X836321Y848694D01*
X841401Y843614D01*
X836321Y838534D01*
X831241Y843614D01*
D176*
X172580Y740000D02*
G03*
X172580Y740000I-5080J0D01*
G01*
X357580D02*
G03*
X357580Y740000I-5080J0D01*
G01*
X172580Y692500D02*
G03*
X172580Y692500I-5080J0D01*
G01*
X357580D02*
G03*
X357580Y692500I-5080J0D01*
G01*
X482580Y740000D02*
G03*
X482580Y740000I-5080J0D01*
G01*
X667580D02*
G03*
X667580Y740000I-5080J0D01*
G01*
X482580Y692500D02*
G03*
X482580Y692500I-5080J0D01*
G01*
X667580D02*
G03*
X667580Y692500I-5080J0D01*
G01*
M02*
