M48
;Layer_Color=9474304
;FILE_FORMAT=4:2
METRIC,LZ
;TYPE=PLATED
T01F00S00C0.20
T02F00S00C0.50
T03F00S00C0.75
T04F00S00C0.90
T05F00S00C0.95
T06F00S00C1.10
T07F00S00C3.30
;TYPE=NON_PLATED
T08F00S00C2.30
%
T01
X000109Y000066
X000209Y000064
X000309
X000409
X000509
X000609
X000709
X000809
X000909
X001009
X001109
X001209
X001309
X001409
X001509
X001609
X001709
X001809
X001909
X002009
X002109
X002209
X002309
X002409
X002373Y000358
X00167Y00037
X00147
X00127
X00107
X00087
X00097Y00057
X00117
X00137
X001495Y000608
X00147Y00077
X00127
X00107
X000975Y001035
X000772Y000919
X00057Y00097
X000564Y001344
X00047Y00157
X00057Y00177
X000539Y001958
X000711Y002049
X000933Y001798
X001043Y001729
X000975Y001449
X00097Y00137
X00127Y00117
X001514Y001229
X00157Y00097
X001778Y000997
Y000864
X001867Y00093
Y001064
X001956Y000997
Y000864
X00207Y00077
X00167
X001778Y00113
X001956
X002199Y001295
X002128Y001694
X002189Y00221
X002322Y002213
X002328Y002122
X001545Y002213
X001381Y002226
X001448Y002325
X001374Y00198
X00161Y001595
X000064Y001555
Y001455
Y001355
Y001255
Y001155
Y001055
Y000955
Y000855
Y000755
Y000655
Y000555
Y000455
Y000355
Y000255
Y000155
X00027Y00117
X000064Y001655
Y001755
Y001855
Y001955
Y002055
Y002155
Y002255
X002443Y002233
X002494Y001541
Y001424
X00267Y00157
X002802Y001637
X002932
Y001767
X002802
X003062
X003192
Y001637
X003062
X00347Y00157
X00377Y00137
X00387Y00117
X00398Y00124
X00437Y00137
X00457
X004724Y00141
X004841Y001491
X00494Y001265
X005022Y001184
X005115
X005269
X00517Y00137
X005597Y001336
X00577Y00137
X005913Y001346
X006323Y001273
X005718Y001791
X005545Y00174
X005378Y001841
X005269Y001844
X005697Y002019
X005504Y002281
X004883Y002297
X004803Y002218
X004716Y002297
X004633Y002218
X004547Y002297
X004469Y002212
X004547Y002127
X004462Y002048
X004377Y002128
Y002298
X004045Y002251
X004046Y002157
X003951
X003855
X003759
X003555Y002085
X003411
Y002201
X003239Y001173
X002776Y001241
X002809Y000064
X002709
X002609
X002509
X002909
X003009
X003109
X003209
X003309
X003409
X003509
X003609
X003709
X003809
X003909
X004009
X004109
X004209
X004309
X004409
X004509
X004609
X004709
X004809
X004909
X005009
X005109
X005209
X005309
X005409
X005509
X005609
X005709
X005809
X005909
X006009
X006109
X006209
X006309
X006409
X00447Y00117
X004545Y001951
X004632Y002048
X004716Y002127
X004802Y002048
X006676Y002019
X006766Y00196
X00675Y001833
X006762Y001687
X006558Y001788
X00651Y001336
X00677Y00137
X006798Y001276
X006773Y000968
X007154Y001378
X00737Y00177
X007045Y002051
X00693Y002252
X008436Y002268
Y002168
Y002068
Y001968
Y001868
Y001768
Y001668
Y001568
Y001468
Y001368
Y001268
Y001168
Y001068
Y000968
Y000868
Y000768
Y000668
Y000568
Y000468
Y000368
Y000268
Y000168
X008421Y000089
X008339Y000063
X008222Y000069
X008109Y000064
X008009
X007909
X007809
X007709
X007609
X007509
X007409
X007309
X007209
X007109
X007009
X006909
X006809
X006709
X006609
X006509
X007773Y000358
X008173Y000758
X00757Y00097
X00743Y002969
X007427Y003117
X00732Y003302
Y003423
X007424Y003421
X00767Y00357
X00777Y00377
X00757
X00767Y00397
X00747
X00757Y00417
X00777
X00767Y00437
X00747
X007499Y004587
X007598Y004519
X00777Y00457
X007598Y00479
X007499Y004858
X00727Y00477
X00707
X00717Y00457
X00697
X00661Y004609
X00657Y00457
X00667Y00437
X006579Y004267
X006845Y004193
X00697Y00417
X006835Y004049
X006903Y003925
X006974Y003729
X006903Y003631
X006979Y00352
X006901Y003416
X00677Y00337
X006701Y003543
X006627Y003922
X006691Y003079
X006434Y003019
X006828Y00287
X006743Y002781
X00691Y002568
X00704Y00258
X006833Y002445
X006903Y003213
X007137Y003302
X008436Y003268
Y003368
Y003468
Y003568
Y003668
Y003768
Y003868
Y003968
Y004068
Y004168
Y004268
Y004368
Y004468
Y004568
Y004668
Y004768
Y004868
Y004968
Y005068
Y005168
Y005268
Y005368
Y005468
Y005568
Y005668
Y005768
Y005868
Y005968
Y006068
Y006168
Y006268
X007405Y005888
Y005798
Y00574
X007404Y005643
X007401Y005548
Y00549
Y005395
X007399Y005293
Y005235
X007397Y005142
X007573Y005158
X007673Y005358
X007873
X007073
Y005758
Y006158
X006711Y005867
X006703Y005457
X006716Y005189
X006543Y004887
X00717Y00497
X007262Y00508
X00647Y00557
X008436Y003168
Y003068
Y002968
Y002868
Y002768
Y002668
Y002568
Y002468
Y002368
X005504Y002464
X005268Y002449
X005187Y002784
X00507Y00277
X004704Y002803
X004764Y002594
X00459Y002594
X004384Y002596
X004375Y002775
X00445Y002724
X004233Y002757
X004247Y002648
X004186Y002578
X004061Y002648
X003933Y002526
X003855Y002469
X003784Y002397
X004046Y002345
X003893Y002865
X003616Y002776
X003427Y002772
X00327Y00277
X003266Y00291
X003144Y00256
X002956
X00287Y00277
X00269Y00279
X002486Y002767
X00251Y002332
X002466Y003267
X002871Y003315
X00301Y003288
X003036Y003476
X003125Y003404
X003165Y003644
X003089Y003836
X003145Y004043
X003145Y004153
X00306Y004207
X002879Y004056
X002798Y003921
X002657Y004
X002634Y003802
X002582Y004542
X002475Y004555
X002668Y004617
X002769Y004542
X002956Y004542
X003144
X003035Y004686
X00285Y004685
X002858Y004769
X002766Y00485
X002951
X003137
X003328
X003512Y004843
X003677Y004848
X003821
X004056Y004791
X004141Y004749
X004228Y004831
X004374Y004834
X00437Y00497
X004425Y004999
X004477Y005074
X004531Y005148
X0045Y005318
X004405
X004397Y005387
X004238Y005333
X004185Y005382
X004039Y005365
X004088Y005469
X003983
X003877
X003772
X003666
X003561
X003615Y005715
X00357Y00577
X00367Y0058
X003781
X003891
X00397Y00577
X003946Y005715
X003836
X003725
X00337Y00577
X003348Y005588
X003334Y005318
X003239
X003229Y00539
X003031Y005382
X00297Y00537
X002872Y005367
X002923Y005469
X002817
X002712
X002606
X002501
X002449Y005715
X00256
X00257Y00577
X002615Y0058
X002725
X00277Y00577
X002781Y005715
X00267
X002504Y0058
X00267Y00597
X002629Y006154
Y006271
X002938
X003232Y006243
X003368
X00351Y006241
X004188Y006264
X004298
X004409
X004519
X00467Y00597
X004677Y005835
X004788
X004899
X004954Y00575
X004843
X004733
X00457Y00577
X004514Y005583
X004252Y005521
X003901Y005338
X003798Y005134
X003555Y005133
X003485Y005093
X00336Y005137
X003261Y00516
X003171Y005059
X003072Y005333
X003086Y005521
X002736Y005344
X002591Y005175
X002559Y00485
X003528Y004481
X003627
X00367Y00437
X003629Y004208
X003727Y004155
X003935Y004267
X003927Y004368
X004017Y004412
X004241Y004475
X00428Y004989
X00458Y004964
X00497Y00497
X004889Y004844
X004849Y004651
X00474Y004623
X004795Y004528
X004891Y00455
X005002Y004561
X004984Y004379
X004989Y00426
X005193Y00431
X005275Y004379
X005283Y00461
X005277Y004754
X005623Y004968
X005896Y00473
X006085Y004741
X006271Y00473
X00607Y00517
Y00557
X00587
X00567
X005473Y005463
X004987Y005469
X004885
X004783
X00497Y00537
X004888Y005209
X00487Y00597
X005904Y006095
X00607Y00597
X00627Y006091
X005266Y004077
X004991Y00396
X004963Y003859
X005013Y003697
X005015Y003599
X005085Y00355
X005038Y003457
X005042Y003356
X005003Y003288
X005043Y003211
X004673Y003262
X004746Y003341
X00437Y00337
X004188Y003371
Y003522
X004188Y003677
X003998
X003807
X003617
X003617Y003371
X003616Y003211
X003624Y003135
X003507Y003148
X00352Y003292
X003424Y003495
X003444Y00396
X003539Y003909
X003475Y004301
X00342Y004363
X004727Y004309
X004657Y004176
X004524Y003742
X004462Y003799
X0044Y003852
X004589Y003675
X004535Y002903
X004189Y003214
X004114Y003154
X003999Y003214
X003985Y003371
X00382
X00381Y003215
X002957Y003089
X005266Y00351
X005505Y003407
X005643Y003491
X005682Y002908
X005738Y002784
X00207Y00277
X00197Y00297
X001956Y003213
X002056
X001671Y002895
X001514Y002784
X00136
X00127Y00277
X00137Y00297
Y00337
X00117
X001151Y00357
X001041
X001041Y003714
X001151
X001153Y003929
X00097Y00377
X00087Y00357
X000946Y003397
X00085Y003238
X00107Y00317
X00067Y00277
X000064Y002755
Y002855
Y002955
Y003055
Y003155
Y003255
Y003355
Y003455
Y003555
Y003655
Y003755
Y003855
Y003955
Y004055
Y004155
Y004255
Y004355
Y004455
Y004555
Y004655
Y004755
Y004855
Y004955
Y005055
Y005155
Y005255
Y005355
Y005455
Y005555
Y005655
Y005755
Y005855
Y005955
Y006055
Y006155
Y006255
X000528Y006185
Y006086
X00064Y00621
X000896Y006232
X001471Y006214
X001449Y0058
X00156
X001615Y005715
X001504
X001394
X001283
X001339Y0058
X001335Y005469
X001229
X00144
X001546
X001651
X001757
X001704Y005372
X001873Y005383
X001954Y005334
X002073Y005318
X002076Y005387
X002168
Y005318
X002195Y005137
X002096Y00516
X001928Y005087
X002305Y005116
X00239Y005186
X002395Y005469
X00237Y00577
X00217
X002177Y005591
X001922Y00555
X001961Y006204
X002065
X002169
X00239Y004872
X002405Y004384
X002327Y004027
X002325Y003768
X002153Y004142
X001828Y004142
X001765Y004445
X001915Y00447
X001852Y004661
X00147Y00477
X001467Y005134
X001154Y005093
X001141Y005188
X001029Y005137
X00093Y00516
X000824Y005095
X00097Y00497
X001003Y005318
Y005387
X00091
X000908Y005318
X000741Y005333
X000693Y005383
X000536Y005368
X000563Y005476
X00045
X000458Y005289
X00057Y00497
X000532Y004794
X000433Y004861
X000528Y004483
Y004377
X000519Y004283
X000528Y004148
Y00393
X000527Y003825
X000249Y003932
X000303Y004481
X000874Y004572
X000975Y004572
X001153Y004511
X001194Y004333
Y004232
X000974Y004282
X000823
X00147Y00397
X001493Y003844
X00161Y003729
X001631Y003602
X002189Y002336
X002317
X000943Y002333
X000064Y002355
Y002455
Y002555
Y002655
X000755Y005543
X001008Y005597
X000797Y006326
X00064Y006326
X000734Y006424
X000891Y006424
X000523Y006475
X000456Y006376
X000064Y006355
Y006455
Y006555
Y006655
Y006755
Y006855
Y006955
Y007055
Y007155
Y007255
Y007355
Y007455
Y007555
Y007655
Y007755
Y007855
X00006Y007951
X000064Y008055
Y008155
Y008255
Y008355
X000122Y008436
X000263
X000363
X000463
X000563
X000663
X000763
X000863
X000963
X001063
X001163
X001263
X001363
X001463
X001563
X001663
X001763
X001863
X001963
X002063
X002163
X002263
X002363
X00237Y00817
X00217
X00197
X00177
X00157
X00137
X00117
X00097
X00077
X00057Y00777
X000524Y007625
X000457Y007526
X000525Y007325
X000458Y007226
X000763Y007391
X000857Y007489
X000951Y007588
X000751
X001151
X001057Y007489
X000963Y007391
X001347Y00737
X001446
Y007506
Y00762
X001344Y007573
X001446Y007226
X001344Y006923
X001342Y00682
X001407Y006637
X001435Y006455
X001397Y006329
X0021Y006486
X0021Y006765
X0021Y006988
X00197Y00697
X00187Y00717
X00197Y00737
X00217
X00237
X00227Y00757
X00207
X00187
X00197Y00777
X00217
X00237
X00227Y00797
X00207
X00187
X00227Y00717
X00237Y00697
X000705Y006903
X00037Y00777
X00257
X00277
X00297
X00317
X00337
X00357
X00377
X00397
X004067Y007757
X00407Y00797
X00427
X00447
X00467
X00487
X00507
X00527
X00547
X00567
X00587
X00607
X00627
X00617Y00817
X00597
X00577
X00557
X00537
X00517
X00497
X00477
X00457
X00437
X00417
X00397
X00377
X00357
X00337
X00317
X00297
X00277
X00257
X002563Y008436
X002663
X002763
X002863
X002963
X003063
X003163
X003263
X003363
X003463
X003563
X003663
X003763
X003863
X003963
X004063
X004163
X004263
X004363
X004463
X004563
X004663
X004763
X004863
X004963
X005063
X005163
X005263
X005363
X005463
X005563
X005663
X005763
X005863
X005963
X006063
X006163
X006263
X006363
X00637Y00817
Y00777
X00617
X00597
X00577
X00557
X00537
X00517
X00497
X00477
X004548Y007756
X00467Y00757
X00487
X00507
X00527
X00547
X00567
X00587
X00607
X00627
X00617Y00737
X00597
X00577
X00557
X00537
X00517
X00497
X00487Y00717
X00507
X00527
X00547
X00567
X00587
X00607
X00627
X00617Y00697
X00637
X006399Y00679
X006Y006735
X0058Y006765
X005599Y006736
X0054
Y006515
X005354Y006375
X005538Y006336
X005722Y006335
X00627Y00637
X0062Y006515
X00637Y00737
X005204Y006788
X00487Y00677
X00497Y00697
X005Y006515
X00507Y00637
X004464Y006349
X004354
X004243
X00437Y00657
X004464Y006689
Y007044
X00437Y00697
X004067Y007047
Y006691
X00387Y00677
X00367
X00347
X0033Y006765
X003304Y006988
X00317Y00697
X0029Y006988
X00277Y00697
X0025Y006988
X0025Y006765
Y006503
X0029
Y006765
X003305Y006503
X00337Y00737
X00317
X00297
X00277
X00257
X00247Y00757
X00267
X00287
X00307
X00327
X00347
X00367
Y00797
X00347
X00327
X00307
X00287
X00267
X00247
X002463Y008436
X00387Y00797
X004067Y007402
X004548Y0074
X00647Y00757
X00667
X00687
X006998Y007727
X007097Y00766
X00707Y00797
X00727
X00747
X00767
X007633Y007727
X007732Y00766
X007973Y007558
X008173
X008436Y007568
Y007668
Y007768
Y007868
X008448Y007958
X008448Y008067
X008436Y008168
Y008268
Y008368
X008363Y008436
X008263
X008163
X008063Y008442
X007952Y008444
X007863Y008436
X007763
X007663
X007563
X007463
X007363
X007263
X007163
X007063
X006963
X006863
X006763
X006663
X006563
X006463
X00657Y00817
X00677
X00697
X00717
X00737
X00757
X00777
X007873Y007358
X008073
X008173Y007158
X008436Y007168
Y007068
Y006968
Y006868
Y006768
Y006668
Y006568
Y006468
Y006368
X008173Y006358
Y006758
X007973
X007873Y006958
X007773Y007158
X007676Y007092
X007577Y007159
X007429Y007404
X007303
X00697Y00737
X00677
X00687Y00717
X00667
X00647
X00677Y00697
X00697
X00687Y00677
X00667
X00657Y00657
X006638Y006332
X006819
X006453
X00697Y00657
X007073Y006558
X007254Y006716
X007212Y006832
X007273Y006958
X007373Y006758
X007573
X007673Y006558
X008436Y007268
Y007368
Y007468
X00677Y00777
X00657
X00667Y00797
X00647
X00687
T02
X000196Y000196
X00036Y000131
X000524Y000196
X000593Y00036
X000524Y000524
X00036Y000593
X000196Y000524
X000127Y00036
X007907
X007976Y000196
X00814Y000131
X008304Y000196
X008372Y00036
X008304Y000524
X00814Y000593
X007976Y000524
X000524Y007976
X00036Y007911
X000196Y007976
X000127Y00814
X000196Y008304
X00036Y008372
X000524Y008304
X000593Y00814
X007907
X007976Y007976
X00814Y007911
X008304Y007976
X008372Y00814
X008304Y008304
X00814Y008372
X007976Y008304
T03
X00225Y0005
Y0007
X00245
X00265
Y0005
X00245
X00285
Y0007
X00305
X00325
Y0005
X00305
X00345
X00365
Y0007
X00345
X00385
X00405
Y0005
X00385
X00425
Y0007
X00445
X00465
Y0005
X00445
X00485
X00505
Y0007
X00485
X00525
X00545
Y0005
X00525
X00565
Y0007
X00585
X00605
Y0005
X00585
X00625
Y0007
T04
X007373Y001138
Y001392
Y001646
Y0019
X007627
Y002154
X007373
X007627Y001646
Y001392
Y001138
Y002408
Y002662
X007373
Y002408
T05
X001675Y006925
Y0074
X003525
Y006925
X004775
Y0074
X006625
Y006925
T06
X001153Y001097
Y001351
Y001605
Y001923
Y002177
Y002431
Y002685
Y002939
T07
X00036Y00036
X00814
X00036Y00814
X00814
T08
X0019Y0006
X0066
M30
