G04*
G04 #@! TF.GenerationSoftware,Altium Limited,Altium Designer,24.1.2 (44)*
G04*
G04 Layer_Color=16711935*
%FSLAX44Y44*%
%MOMM*%
G71*
G04*
G04 #@! TF.SameCoordinates,6F585FF1-4DE3-4077-9EA4-C48F536BE3D4*
G04*
G04*
G04 #@! TF.FilePolarity,Negative*
G04*
G01*
G75*
%ADD25C,1.2300*%
%ADD89R,2.0032X2.0032*%
G04:AMPARAMS|DCode=107|XSize=1.1532mm|YSize=1.0532mm|CornerRadius=0.3141mm|HoleSize=0mm|Usage=FLASHONLY|Rotation=0.000|XOffset=0mm|YOffset=0mm|HoleType=Round|Shape=RoundedRectangle|*
%AMROUNDEDRECTD107*
21,1,1.1532,0.4250,0,0,0.0*
21,1,0.5250,1.0532,0,0,0.0*
1,1,0.6282,0.2625,-0.2125*
1,1,0.6282,-0.2625,-0.2125*
1,1,0.6282,-0.2625,0.2125*
1,1,0.6282,0.2625,0.2125*
%
%ADD107ROUNDEDRECTD107*%
%ADD108O,0.8032X2.0032*%
G04:AMPARAMS|DCode=109|XSize=1.1532mm|YSize=1.0532mm|CornerRadius=0.3141mm|HoleSize=0mm|Usage=FLASHONLY|Rotation=90.000|XOffset=0mm|YOffset=0mm|HoleType=Round|Shape=RoundedRectangle|*
%AMROUNDEDRECTD109*
21,1,1.1532,0.4250,0,0,90.0*
21,1,0.5250,1.0532,0,0,90.0*
1,1,0.6282,0.2125,0.2625*
1,1,0.6282,0.2125,-0.2625*
1,1,0.6282,-0.2125,-0.2625*
1,1,0.6282,-0.2125,0.2625*
%
%ADD109ROUNDEDRECTD109*%
%ADD116C,2.5032*%
%ADD117R,1.4612X1.4612*%
%ADD118C,1.4612*%
%ADD121C,1.6612*%
%ADD122C,1.8032*%
%ADD123R,1.8032X1.8032*%
%ADD124C,1.2032*%
%ADD125C,6.2032*%
%ADD149R,0.2746X0.8048*%
%ADD150R,0.8048X0.2746*%
%ADD151R,2.6500X2.6500*%
%ADD154R,2.7178X3.4036*%
%ADD159R,0.3769X0.4877*%
%ADD160R,0.8704X0.4005*%
%ADD161R,0.7127X0.4784*%
%ADD162R,0.5175X0.4406*%
G04:AMPARAMS|DCode=163|XSize=1.8432mm|YSize=0.7932mm|CornerRadius=0.2491mm|HoleSize=0mm|Usage=FLASHONLY|Rotation=90.000|XOffset=0mm|YOffset=0mm|HoleType=Round|Shape=RoundedRectangle|*
%AMROUNDEDRECTD163*
21,1,1.8432,0.2950,0,0,90.0*
21,1,1.3450,0.7932,0,0,90.0*
1,1,0.4982,0.1475,0.6725*
1,1,0.4982,0.1475,-0.6725*
1,1,0.4982,-0.1475,-0.6725*
1,1,0.4982,-0.1475,0.6725*
%
%ADD163ROUNDEDRECTD163*%
G04:AMPARAMS|DCode=164|XSize=1.9532mm|YSize=1.4532mm|CornerRadius=0.3454mm|HoleSize=0mm|Usage=FLASHONLY|Rotation=270.000|XOffset=0mm|YOffset=0mm|HoleType=Round|Shape=RoundedRectangle|*
%AMROUNDEDRECTD164*
21,1,1.9532,0.7625,0,0,270.0*
21,1,1.2625,1.4532,0,0,270.0*
1,1,0.6907,-0.3813,-0.6313*
1,1,0.6907,-0.3813,0.6313*
1,1,0.6907,0.3813,0.6313*
1,1,0.6907,0.3813,-0.6313*
%
%ADD164ROUNDEDRECTD164*%
%ADD165R,2.2032X4.4032*%
%ADD166R,1.5032X1.3532*%
%ADD167O,2.0032X0.8032*%
%ADD168R,1.3000X1.2000*%
%ADD169C,1.7032*%
%ADD170R,1.7032X1.7032*%
G36*
X19560Y11965D02*
X12041D01*
X12003Y12003D01*
X12016Y19362D01*
X12163D01*
X19560Y11965D01*
D02*
G37*
G36*
X19362Y837984D02*
Y837837D01*
X11965Y830440D01*
Y837959D01*
X12003Y837997D01*
X19362Y837984D01*
D02*
G37*
G36*
X838035Y12041D02*
X837997Y12003D01*
X830638Y12016D01*
Y12163D01*
X838035Y19560D01*
Y12041D01*
D02*
G37*
G36*
X837997Y837997D02*
X837984Y830638D01*
X837837D01*
X830440Y838035D01*
X837959D01*
X837997Y837997D01*
D02*
G37*
D25*
X12006Y843650D02*
G03*
X6356Y838012I0J-5650D01*
G01*
X6356Y12000D02*
G03*
X11994Y6350I5650J0D01*
G01*
X838006Y6350D02*
G03*
X843656Y11988I0J5650D01*
G01*
X843656Y838000D02*
G03*
X838024Y843650I-5650J0D01*
G01*
X843656Y12000D02*
X843656Y837975D01*
X12024Y843650D02*
X838006Y843650D01*
X12006Y6350D02*
X837981Y6350D01*
X6356Y12025D02*
X6356Y838000D01*
D89*
X265233Y343601D02*
D03*
Y383601D02*
D03*
D107*
X210000Y691910D02*
D03*
Y676410D02*
D03*
X250000D02*
D03*
Y691910D02*
D03*
X290000D02*
D03*
Y676410D02*
D03*
X330454Y691910D02*
D03*
Y676410D02*
D03*
X231111Y397361D02*
D03*
Y412861D02*
D03*
X681860Y577550D02*
D03*
Y593050D02*
D03*
X681860Y560933D02*
D03*
Y545433D02*
D03*
Y528816D02*
D03*
Y513316D02*
D03*
X681984Y481200D02*
D03*
Y496700D02*
D03*
X663664Y496700D02*
D03*
Y481200D02*
D03*
X645343Y496700D02*
D03*
Y481200D02*
D03*
X627147Y496700D02*
D03*
Y481200D02*
D03*
X608827Y496700D02*
D03*
Y481200D02*
D03*
X590381Y496700D02*
D03*
Y481200D02*
D03*
X572060Y496700D02*
D03*
Y481200D02*
D03*
X553740Y481200D02*
D03*
Y496700D02*
D03*
X535544D02*
D03*
Y481200D02*
D03*
Y513316D02*
D03*
Y528816D02*
D03*
X535544Y560933D02*
D03*
Y545433D02*
D03*
Y593050D02*
D03*
Y577550D02*
D03*
X535419Y609666D02*
D03*
Y625166D02*
D03*
X553833Y609666D02*
D03*
Y625166D02*
D03*
X571998Y609666D02*
D03*
Y625166D02*
D03*
X590287Y609666D02*
D03*
Y625166D02*
D03*
X608577Y609666D02*
D03*
Y625166D02*
D03*
X626866Y609666D02*
D03*
Y625166D02*
D03*
X645281Y609666D02*
D03*
Y625166D02*
D03*
X663445Y625166D02*
D03*
Y609666D02*
D03*
X681859Y609666D02*
D03*
Y625166D02*
D03*
X361696Y277498D02*
D03*
Y261998D02*
D03*
X342646D02*
D03*
Y277498D02*
D03*
X361696Y306962D02*
D03*
Y291462D02*
D03*
X342521Y291716D02*
D03*
Y307216D02*
D03*
X342646Y337058D02*
D03*
Y321558D02*
D03*
X361696D02*
D03*
Y337058D02*
D03*
X380746Y321558D02*
D03*
Y337058D02*
D03*
X399796Y321558D02*
D03*
Y337058D02*
D03*
X418846Y321558D02*
D03*
Y337058D02*
D03*
X418846Y367668D02*
D03*
Y352168D02*
D03*
X399796Y367668D02*
D03*
Y352168D02*
D03*
X380746Y367668D02*
D03*
Y352168D02*
D03*
X361696Y367668D02*
D03*
Y352168D02*
D03*
X342646Y367668D02*
D03*
Y352168D02*
D03*
Y382140D02*
D03*
Y397640D02*
D03*
X361696D02*
D03*
Y382140D02*
D03*
X53866Y320256D02*
D03*
Y335756D02*
D03*
X36612Y320256D02*
D03*
Y335756D02*
D03*
X71120Y320256D02*
D03*
Y335756D02*
D03*
X53866Y355470D02*
D03*
Y370970D02*
D03*
X71120D02*
D03*
Y355470D02*
D03*
X135465Y356007D02*
D03*
Y371507D02*
D03*
X151944Y356106D02*
D03*
Y371606D02*
D03*
X296198Y340154D02*
D03*
Y355654D02*
D03*
X313436Y340230D02*
D03*
Y355730D02*
D03*
X296198Y386718D02*
D03*
Y371218D02*
D03*
X258024Y438515D02*
D03*
Y454015D02*
D03*
X276762Y438515D02*
D03*
Y454015D02*
D03*
X295499Y454015D02*
D03*
Y438515D02*
D03*
X314237D02*
D03*
Y454015D02*
D03*
X351616Y469324D02*
D03*
Y484824D02*
D03*
X332667Y484824D02*
D03*
Y469324D02*
D03*
X294993Y484824D02*
D03*
Y469324D02*
D03*
X276455Y469324D02*
D03*
Y484824D02*
D03*
X257918Y469324D02*
D03*
Y484824D02*
D03*
X239014Y485016D02*
D03*
Y469516D02*
D03*
X370719Y484824D02*
D03*
Y469324D02*
D03*
X313530Y469324D02*
D03*
Y484824D02*
D03*
X94270Y293846D02*
D03*
Y278346D02*
D03*
Y260826D02*
D03*
Y245326D02*
D03*
X53866Y220456D02*
D03*
Y204956D02*
D03*
X71120Y220456D02*
D03*
Y204956D02*
D03*
X36612Y220456D02*
D03*
Y204956D02*
D03*
D108*
X597644Y527031D02*
D03*
X584944D02*
D03*
X572243D02*
D03*
X559543D02*
D03*
X597644Y583531D02*
D03*
X584944D02*
D03*
X572243D02*
D03*
X559543D02*
D03*
X619234Y583531D02*
D03*
X631934D02*
D03*
X644633D02*
D03*
X657334D02*
D03*
X619234Y527031D02*
D03*
X631934D02*
D03*
X644633D02*
D03*
X657334D02*
D03*
D109*
X151530Y107897D02*
D03*
X136030D02*
D03*
X136030Y134251D02*
D03*
X151530D02*
D03*
X135506Y160274D02*
D03*
X151006D02*
D03*
X136030Y187210D02*
D03*
X151530D02*
D03*
X136030Y213689D02*
D03*
X151530D02*
D03*
X136030Y240168D02*
D03*
X151530D02*
D03*
X136030Y266647D02*
D03*
X151530D02*
D03*
X498980Y423164D02*
D03*
X514480D02*
D03*
Y439420D02*
D03*
X498980D02*
D03*
Y455676D02*
D03*
X514480D02*
D03*
X272983Y405721D02*
D03*
X257483D02*
D03*
X287906Y405638D02*
D03*
X303406D02*
D03*
X34160Y82804D02*
D03*
X49660D02*
D03*
X34160Y103497D02*
D03*
X49660D02*
D03*
X34160Y124189D02*
D03*
X49660D02*
D03*
X34160Y144881D02*
D03*
X49660D02*
D03*
X34160Y186265D02*
D03*
X49660D02*
D03*
X34160Y165573D02*
D03*
X49660D02*
D03*
D116*
X660000Y60000D02*
D03*
X190000D02*
D03*
D117*
X225000Y70000D02*
D03*
D118*
Y50000D02*
D03*
X245000Y70000D02*
D03*
Y50000D02*
D03*
X265000Y70000D02*
D03*
Y50000D02*
D03*
X285000Y70000D02*
D03*
Y50000D02*
D03*
X305000Y70000D02*
D03*
Y50000D02*
D03*
X325000Y70000D02*
D03*
Y50000D02*
D03*
X345000Y70000D02*
D03*
Y50000D02*
D03*
X365000Y70000D02*
D03*
Y50000D02*
D03*
X385000Y70000D02*
D03*
Y50000D02*
D03*
X405000Y70000D02*
D03*
Y50000D02*
D03*
X425000Y70000D02*
D03*
Y50000D02*
D03*
X445000Y70000D02*
D03*
Y50000D02*
D03*
X465000Y70000D02*
D03*
Y50000D02*
D03*
X485000Y70000D02*
D03*
Y50000D02*
D03*
X505000Y70000D02*
D03*
Y50000D02*
D03*
X525000Y70000D02*
D03*
Y50000D02*
D03*
X545000Y70000D02*
D03*
Y50000D02*
D03*
X565000Y70000D02*
D03*
Y50000D02*
D03*
X585000Y70000D02*
D03*
Y50000D02*
D03*
X605000Y70000D02*
D03*
Y50000D02*
D03*
X625000Y70000D02*
D03*
Y50000D02*
D03*
D121*
X167500Y740000D02*
D03*
X352500D02*
D03*
X167500Y692500D02*
D03*
X352500D02*
D03*
X477500Y740000D02*
D03*
X662500D02*
D03*
X477500Y692500D02*
D03*
X662500D02*
D03*
D122*
X115316Y192278D02*
D03*
Y217678D02*
D03*
Y243078D02*
D03*
Y268478D02*
D03*
Y135128D02*
D03*
Y109728D02*
D03*
D123*
Y293878D02*
D03*
Y160528D02*
D03*
D124*
X19560Y830440D02*
D03*
X52440Y797560D02*
D03*
X19560D02*
D03*
X52440Y830440D02*
D03*
X59250Y814000D02*
D03*
X36000Y791140D02*
D03*
X12750Y814000D02*
D03*
X36000Y837250D02*
D03*
X814000Y59250D02*
D03*
X790750Y36000D02*
D03*
X814000Y13140D02*
D03*
X837250Y36000D02*
D03*
X830440Y52440D02*
D03*
X797560Y19560D02*
D03*
X830440D02*
D03*
X797560Y52440D02*
D03*
X814000Y837250D02*
D03*
X790750Y814000D02*
D03*
X814000Y791140D02*
D03*
X837250Y814000D02*
D03*
X830440Y830440D02*
D03*
X797560Y797560D02*
D03*
X830440D02*
D03*
X797560Y830440D02*
D03*
X36000Y59250D02*
D03*
X12750Y36000D02*
D03*
X36000Y13140D02*
D03*
X59250Y36000D02*
D03*
X52440Y52440D02*
D03*
X19560Y19560D02*
D03*
X52440D02*
D03*
X19560Y52440D02*
D03*
D125*
X36000Y814000D02*
D03*
X814000Y36000D02*
D03*
Y814000D02*
D03*
X36000Y36000D02*
D03*
D149*
X77430Y439726D02*
D03*
X82430D02*
D03*
X87430D02*
D03*
X92430D02*
D03*
X97430D02*
D03*
X102430D02*
D03*
Y401678D02*
D03*
X97430D02*
D03*
X92430D02*
D03*
X87430D02*
D03*
X82430D02*
D03*
X77430D02*
D03*
D150*
X108954Y433202D02*
D03*
Y428202D02*
D03*
Y423202D02*
D03*
Y418202D02*
D03*
Y413202D02*
D03*
Y408202D02*
D03*
X70906D02*
D03*
Y413202D02*
D03*
Y418202D02*
D03*
Y423202D02*
D03*
Y428202D02*
D03*
Y433202D02*
D03*
D151*
X89930Y420702D02*
D03*
D154*
X204157Y360732D02*
D03*
D159*
X14117Y835558D02*
D03*
D160*
X15211Y13999D02*
D03*
D161*
X834439Y14389D02*
D03*
D162*
X835453Y835831D02*
D03*
D163*
X72934Y244252D02*
D03*
X60234D02*
D03*
X47534D02*
D03*
X34834D02*
D03*
Y296952D02*
D03*
X47534D02*
D03*
X60234D02*
D03*
X72934D02*
D03*
D164*
X199405Y405746D02*
D03*
X171405D02*
D03*
D165*
X224900Y299720D02*
D03*
X181500D02*
D03*
D166*
X115316Y347720D02*
D03*
Y378720D02*
D03*
D167*
X175910Y341376D02*
D03*
Y354076D02*
D03*
Y366776D02*
D03*
Y379476D02*
D03*
X232410Y341376D02*
D03*
Y354076D02*
D03*
Y366776D02*
D03*
Y379476D02*
D03*
D168*
X86232Y82804D02*
D03*
X69232D02*
D03*
X86232Y103497D02*
D03*
X69232D02*
D03*
X86232Y124189D02*
D03*
X69232D02*
D03*
X86232Y144881D02*
D03*
X69232D02*
D03*
X86232Y186265D02*
D03*
X69232D02*
D03*
X86232Y165573D02*
D03*
X69232D02*
D03*
D169*
X762700Y215400D02*
D03*
Y190000D02*
D03*
X737300Y266200D02*
D03*
X762700D02*
D03*
X737300Y240800D02*
D03*
X762700D02*
D03*
X737300Y215400D02*
D03*
Y190000D02*
D03*
Y164600D02*
D03*
X762700D02*
D03*
X737300Y139200D02*
D03*
X762700D02*
D03*
X737300Y113800D02*
D03*
D170*
X762700D02*
D03*
M02*
