G04*
G04 #@! TF.GenerationSoftware,Altium Limited,Altium Designer,25.4.2 (15)*
G04*
G04 Layer_Color=65535*
%FSLAX44Y44*%
%MOMM*%
G71*
G04*
G04 #@! TF.SameCoordinates,AF9A6567-2A65-44A9-BE18-1E1B2F427956*
G04*
G04*
G04 #@! TF.FilePolarity,Positive*
G04*
G01*
G75*
%ADD10C,0.1500*%
%ADD11C,0.6000*%
%ADD12C,0.2500*%
%ADD13C,0.2540*%
%ADD14C,0.2000*%
%ADD15C,0.3810*%
%ADD16C,0.5080*%
%ADD17C,0.3048*%
%ADD18C,0.1250*%
%ADD19C,0.1524*%
%ADD20C,0.1270*%
%ADD21C,0.1000*%
%ADD22C,0.1300*%
%ADD23R,2.5400X1.2700*%
G36*
X441905Y247378D02*
X438095D01*
Y244838D01*
X441905D01*
Y247378D01*
D02*
G37*
G36*
X392878Y301405D02*
X390338D01*
Y297595D01*
X392878D01*
Y301405D01*
D02*
G37*
G36*
Y351405D02*
X390338D01*
Y347595D01*
X392878D01*
Y351405D01*
D02*
G37*
G36*
X421905Y421622D02*
X418095D01*
Y424162D01*
X421905D01*
Y421622D01*
D02*
G37*
G36*
X471905D02*
X468095D01*
Y424162D01*
X471905D01*
Y421622D01*
D02*
G37*
G36*
X491905Y247378D02*
X488095D01*
Y244838D01*
X491905D01*
Y247378D01*
D02*
G37*
G36*
X541905D02*
X538095D01*
Y244838D01*
X541905D01*
Y247378D01*
D02*
G37*
G36*
X567122Y321405D02*
X569662D01*
Y317595D01*
X567122D01*
Y321405D01*
D02*
G37*
G36*
Y371405D02*
X569662D01*
Y367595D01*
X567122D01*
Y371405D01*
D02*
G37*
G36*
X521905Y421622D02*
X518095D01*
Y424162D01*
X521905D01*
Y421622D01*
D02*
G37*
D10*
X198000Y259500D02*
G03*
X196000Y261500I-2000J0D01*
G01*
Y238500D02*
G03*
X198000Y240500I0J2000D01*
G01*
X178000Y261500D02*
G03*
X176000Y259500I0J-2000D01*
G01*
Y240500D02*
G03*
X178000Y238500I2000J0D01*
G01*
X455566Y517750D02*
G03*
X455566Y517750I-690J0D01*
G01*
X337060D02*
G03*
X337060Y517750I-690J0D01*
G01*
X213190Y517750D02*
G03*
X213190Y517750I-690J0D01*
G01*
X93813D02*
G03*
X93813Y517750I-690J0D01*
G01*
X198000Y240500D02*
Y259500D01*
X176000Y240500D02*
Y259500D01*
X178000Y238500D02*
X196000D01*
X178000Y261500D02*
X196000D01*
X664702Y96863D02*
Y141561D01*
X642212Y96863D02*
Y141561D01*
X664702D01*
X642212Y96863D02*
X664702D01*
X549874D02*
Y141561D01*
X527384Y96863D02*
Y141561D01*
X549874D01*
X527384Y96863D02*
X549874D01*
X502132Y160058D02*
Y204755D01*
X524622Y160058D02*
Y204755D01*
X502132Y160058D02*
X524622D01*
X502132Y204755D02*
X524622D01*
X343757Y119642D02*
X388455D01*
X343757Y97152D02*
X388455D01*
X343757D02*
Y119642D01*
X388455Y97152D02*
Y119642D01*
X276549Y160293D02*
Y204990D01*
X299039Y160293D02*
Y204990D01*
X276549Y160293D02*
X299039D01*
X276549Y204990D02*
X299039D01*
X176727Y160293D02*
Y204990D01*
X199217Y160293D02*
Y204990D01*
X176727Y160293D02*
X199217D01*
X176727Y204990D02*
X199217D01*
X30066Y753981D02*
X74764D01*
X30066Y776471D02*
X74764D01*
Y753981D02*
Y776471D01*
X30066Y753981D02*
Y776471D01*
X29749Y638881D02*
X74447D01*
X29749Y661371D02*
X74447D01*
Y638881D02*
Y661371D01*
X29749Y638881D02*
Y661371D01*
D11*
X657310Y560565D02*
G03*
X657310Y560565I-3000J0D01*
G01*
X566620Y547065D02*
G03*
X566620Y547065I-3000J0D01*
G01*
D12*
X668610Y582065D02*
G03*
X668610Y582065I-1250J0D01*
G01*
X551820Y525565D02*
G03*
X551820Y525565I-1250J0D01*
G01*
X169806Y321999D02*
G03*
X169806Y321999I-1250J0D01*
G01*
Y427524D02*
G03*
X169806Y427524I-1250J0D01*
G01*
X273478Y177182D02*
G03*
X273478Y177182I-1250J0D01*
G01*
D13*
X172386Y304475D02*
G03*
X172386Y304475I-1055J0D01*
G01*
X781392Y112993D02*
G03*
X781392Y112993I-1270J0D01*
G01*
X86106Y68072D02*
Y79502D01*
Y42418D02*
Y53848D01*
Y42418D02*
X142494D01*
X86106Y79502D02*
X142494D01*
X101600Y67310D02*
X127000D01*
Y54610D02*
Y67310D01*
X101600Y54610D02*
X127000D01*
X101600D02*
Y67310D01*
X142494Y68072D02*
Y79502D01*
Y42418D02*
Y53848D01*
X625714Y159937D02*
Y159970D01*
X90919Y679249D02*
X90951D01*
X308910Y191536D02*
Y204703D01*
X387445D01*
Y191536D02*
Y204703D01*
X387216Y132903D02*
Y145816D01*
X308910Y132903D02*
X387216D01*
X308910D02*
Y145816D01*
D14*
X442170Y176280D02*
G03*
X442170Y176280I-1000J0D01*
G01*
X357169Y317409D02*
G03*
X357169Y317409I-1000J0D01*
G01*
X613310Y537065D02*
Y570565D01*
X664310Y537065D02*
Y570565D01*
X613310Y537065D02*
X664310D01*
X613310Y570565D02*
X664310D01*
X604620Y537065D02*
Y570565D01*
X553620Y537065D02*
Y570565D01*
X604620D01*
X553620Y537065D02*
X604620D01*
X170556Y332999D02*
X201556D01*
X170556Y351999D02*
X201556D01*
X170556Y332999D02*
Y351999D01*
X201556Y332999D02*
Y351999D01*
X774750Y98550D02*
Y281450D01*
X725250Y98550D02*
Y281450D01*
X774750D01*
X725250Y98550D02*
X774750D01*
X201556Y438524D02*
Y457524D01*
X170556Y438524D02*
Y457524D01*
X201556D01*
X170556Y438524D02*
X201556D01*
X665636Y159237D02*
Y167737D01*
Y146737D02*
Y149237D01*
X641636Y146737D02*
Y149237D01*
Y165237D02*
Y167737D01*
X555605Y108107D02*
Y153807D01*
X584905Y108107D02*
Y153807D01*
X457509Y114256D02*
Y159956D01*
X486809Y114256D02*
Y159956D01*
X204828Y162432D02*
X270828D01*
X204828Y131432D02*
X270828D01*
Y162432D01*
X204828Y131432D02*
Y162432D01*
X390084Y668138D02*
Y672638D01*
Y646638D02*
Y651138D01*
Y646638D02*
X406334D01*
X390084Y672638D02*
X406334D01*
X390084Y708198D02*
X406334D01*
X390084Y682198D02*
X406334D01*
X390084D02*
Y686698D01*
Y703698D02*
Y708198D01*
Y743758D02*
X406334D01*
X390084Y717758D02*
X406334D01*
X390084D02*
Y722258D01*
Y739258D02*
Y743758D01*
Y779318D02*
X406334D01*
X390084Y753318D02*
X406334D01*
X390084D02*
Y757818D01*
Y774818D02*
Y779318D01*
X36488Y749603D02*
X82188D01*
X36488Y720303D02*
X82188D01*
X32378Y608997D02*
X34878D01*
X50878D02*
X53378D01*
X50878Y632997D02*
X53378D01*
X32378D02*
X40878D01*
X16496Y160528D02*
X20729Y156295D01*
X16496Y135128D02*
X20729Y139361D01*
X16496Y135128D02*
X20729Y130895D01*
X16496Y160528D02*
X20729Y164761D01*
X95659Y172805D02*
X99893Y168571D01*
X100316Y97028D02*
Y173228D01*
X74916D02*
X100316D01*
X74916Y97028D02*
X100316D01*
X74916D02*
Y173228D01*
X20729Y164761D02*
X74662D01*
X20729Y156295D02*
X74916D01*
X20729Y139361D02*
X74662D01*
X20729Y130895D02*
X74662D01*
X16496Y109728D02*
X20729Y105495D01*
X16496Y109728D02*
X20729Y113961D01*
X74662D01*
X20729Y105495D02*
X74916D01*
X16496Y290116D02*
X20729Y285883D01*
X16496Y264716D02*
X20729Y268949D01*
X16496Y264716D02*
X20729Y260483D01*
X16496Y290116D02*
X20729Y294349D01*
X95659Y302393D02*
X99893Y298159D01*
X100316Y175816D02*
Y302816D01*
X74916D02*
X100316D01*
X74916Y175816D02*
X100316D01*
X74916D02*
Y302816D01*
X20729Y294349D02*
X74662D01*
X20729Y285883D02*
X74916D01*
X20729Y268949D02*
X74662D01*
X20729Y260483D02*
X74662D01*
X16496Y239316D02*
X20729Y235083D01*
X16496Y213916D02*
X20729Y218149D01*
X16496Y213916D02*
X20729Y209683D01*
X16496Y239316D02*
X20729Y243549D01*
X74662D01*
X20729Y235083D02*
X74916D01*
X20729Y218149D02*
X74662D01*
X20729Y209683D02*
X74662D01*
X16496Y188516D02*
X20729Y184283D01*
X16496Y188516D02*
X20729Y192749D01*
X74662D01*
X20729Y184283D02*
X74916D01*
D15*
X501778Y637500D02*
G03*
X501778Y637500I-1778J0D01*
G01*
X191778D02*
G03*
X191778Y637500I-1778J0D01*
G01*
X133298Y429510D02*
G03*
X133298Y429510I-1778J0D01*
G01*
X78028D02*
G03*
X78028Y429510I-1778J0D01*
G01*
X643372Y121601D02*
X663543D01*
X556824Y138653D02*
X583740Y138738D01*
X528544Y121601D02*
X548715D01*
X503291Y180018D02*
X523462D01*
X458674Y129326D02*
X485591Y129410D01*
X363717Y98312D02*
Y118484D01*
X277708Y180253D02*
X297879D01*
X177886D02*
X198057D01*
X54804Y755140D02*
Y775312D01*
X67034Y748384D02*
X67118Y721468D01*
X54487Y640040D02*
Y660211D01*
D16*
X114808Y383540D02*
G03*
X114808Y383540I-1778J0D01*
G01*
D17*
X390084Y394190D02*
G03*
X390084Y394190I-1524J0D01*
G01*
D18*
X611966Y391954D02*
Y395954D01*
X621966Y391954D02*
Y395954D01*
X623966Y384954D02*
Y402954D01*
X609966Y384954D02*
Y402954D01*
X589820Y379500D02*
X593820D01*
X589820Y389500D02*
X593820D01*
X582820Y391500D02*
X600820D01*
X582820Y377500D02*
X600820D01*
X589312Y398860D02*
X593312D01*
X589312Y408860D02*
X593312D01*
X582312Y410860D02*
X600312D01*
X582312Y396860D02*
X600312D01*
X570800Y241970D02*
X588800D01*
X570800Y255970D02*
X588800D01*
X577800Y253970D02*
X581800D01*
X577800Y243970D02*
X581800D01*
X604089Y241970D02*
X622089D01*
X604089Y255970D02*
X622089D01*
X611089Y253970D02*
X615089D01*
X611089Y243970D02*
X615089D01*
X589169Y104703D02*
Y122703D01*
X603168Y104703D02*
Y122703D01*
X601169Y111703D02*
Y115703D01*
X591169Y111703D02*
Y115703D01*
X624487Y104703D02*
Y122703D01*
X638487Y104703D02*
Y122703D01*
X636487Y111703D02*
Y115703D01*
X626487Y111703D02*
Y115703D01*
X509452Y108742D02*
Y112742D01*
X519452Y108742D02*
Y112742D01*
X521452Y101742D02*
Y119742D01*
X507452Y101742D02*
Y119742D01*
X509452Y136653D02*
Y140653D01*
X519452Y136653D02*
Y140653D01*
X521452Y129653D02*
Y147653D01*
X507452Y129653D02*
Y147653D01*
X470925Y183458D02*
X474925D01*
X470925Y193458D02*
X474925D01*
X463925Y195458D02*
X481925D01*
X463925Y181458D02*
X481925D01*
X410235Y217500D02*
X414235D01*
X410235Y207500D02*
X414235D01*
X403235Y205500D02*
X421235D01*
X403235Y219500D02*
X421235D01*
X380243Y217500D02*
X384243D01*
X380243Y207500D02*
X384243D01*
X373243Y205500D02*
X391243D01*
X373243Y219500D02*
X391243D01*
X180792Y132856D02*
Y150856D01*
X194792Y132856D02*
Y150856D01*
X192792Y139856D02*
Y143856D01*
X182792Y139856D02*
Y143856D01*
X180792Y101742D02*
Y119742D01*
X194792Y101742D02*
Y119742D01*
X192792Y108742D02*
Y112742D01*
X182792Y108742D02*
Y112742D01*
X389500Y617500D02*
X407500D01*
X389500Y631500D02*
X407500D01*
X396500Y629500D02*
X400500D01*
X396500Y619500D02*
X400500D01*
X289250Y617500D02*
X307250D01*
X289250Y631500D02*
X307250D01*
X296250Y629500D02*
X300250D01*
X296250Y619500D02*
X300250D01*
X233000Y631500D02*
X251000D01*
X233000Y617500D02*
X251000D01*
X240000Y619500D02*
X244000D01*
X240000Y629500D02*
X244000D01*
X170750D02*
X174750D01*
X170750Y619500D02*
X174750D01*
X163750Y617500D02*
X181750D01*
X163750Y631500D02*
X181750D01*
X483000Y575250D02*
X487000D01*
X483000Y585250D02*
X487000D01*
X476000Y587250D02*
X494000D01*
X476000Y573250D02*
X494000D01*
X357493D02*
X375494D01*
X357493Y587250D02*
X375494D01*
X364493Y585250D02*
X368493D01*
X364493Y575250D02*
X368493D01*
X240624Y575250D02*
X244624D01*
X240624Y585250D02*
X244624D01*
X233624Y587250D02*
X251624D01*
X233624Y573250D02*
X251624D01*
X52623Y571000D02*
Y589000D01*
X38623Y571000D02*
Y589000D01*
X40623Y578000D02*
Y582000D01*
X50623Y578000D02*
Y582000D01*
X412376Y578000D02*
Y582000D01*
X402376Y578000D02*
Y582000D01*
X400376Y571000D02*
Y589000D01*
X414376Y571000D02*
Y589000D01*
X295870Y571000D02*
Y589000D01*
X281870Y571000D02*
Y589000D01*
X283869Y578000D02*
Y582000D01*
X293869Y578000D02*
Y582000D01*
X172000Y571000D02*
Y589000D01*
X158000Y571000D02*
Y589000D01*
X160000Y578000D02*
Y582000D01*
X170000Y578000D02*
Y582000D01*
X346822Y285500D02*
Y303500D01*
X360822Y285500D02*
Y303500D01*
X358822Y292500D02*
Y296500D01*
X348822Y292500D02*
Y296500D01*
X365364Y285500D02*
Y303500D01*
X379364Y285500D02*
Y303500D01*
X377364Y292500D02*
Y296500D01*
X367364Y292500D02*
Y296500D01*
X365110Y256424D02*
Y274424D01*
X379110Y256424D02*
Y274424D01*
X377110Y263424D02*
Y267424D01*
X367110Y263424D02*
Y267424D01*
X346822Y256424D02*
Y274424D01*
X360822Y256424D02*
Y274424D01*
X358822Y263424D02*
Y267424D01*
X348822Y263424D02*
Y267424D01*
X321452Y284872D02*
Y302872D01*
X307452Y284872D02*
Y302872D01*
X309452Y291872D02*
Y295872D01*
X319452Y291872D02*
Y295872D01*
X321452Y256424D02*
Y274424D01*
X307452Y256424D02*
Y274424D01*
X309452Y263424D02*
Y267424D01*
X319452Y263424D02*
Y267424D01*
X328393Y344179D02*
X341121Y356906D01*
X318494Y354078D02*
X331222Y366806D01*
X324857Y357613D02*
X327686Y360442D01*
X331929Y350542D02*
X334757Y353371D01*
X327402Y328331D02*
X340129Y315603D01*
X317502Y318431D02*
X330230Y305703D01*
X323866Y314895D02*
X326694Y312067D01*
X330937Y321967D02*
X333765Y319138D01*
X467876Y546250D02*
Y564250D01*
X481876Y546250D02*
Y564250D01*
X479876Y553250D02*
Y557250D01*
X469876Y553250D02*
Y557250D01*
X351370Y553250D02*
Y557250D01*
X361370Y553250D02*
Y557250D01*
X363369Y546250D02*
Y564250D01*
X349370Y546250D02*
Y564250D01*
X227500Y553250D02*
Y557250D01*
X237500Y553250D02*
Y557250D01*
X239500Y546250D02*
Y564250D01*
X225500Y546250D02*
Y564250D01*
X106123Y546250D02*
Y564250D01*
X120123Y546250D02*
Y564250D01*
X118123Y553250D02*
Y557250D01*
X108123Y553250D02*
Y557250D01*
X410876Y509750D02*
X428876D01*
X410876Y495750D02*
X428876D01*
X417876Y497750D02*
X421876D01*
X417876Y507750D02*
X421876D01*
X292369Y509750D02*
X310369D01*
X292369Y495750D02*
X310369D01*
X299370Y497750D02*
X303370D01*
X299370Y507750D02*
X303370D01*
X168500Y509750D02*
X186500D01*
X168500Y495750D02*
X186500D01*
X175500Y497750D02*
X179500D01*
X175500Y507750D02*
X179500D01*
X121247Y575250D02*
X125247D01*
X121247Y585250D02*
X125247D01*
X114247Y587250D02*
X132247D01*
X114247Y573250D02*
X132247D01*
X387376Y523250D02*
Y527250D01*
X397376Y523250D02*
Y527250D01*
X399376Y516250D02*
Y534250D01*
X385376Y516250D02*
Y534250D01*
X262369Y523250D02*
Y527250D01*
X272369Y523250D02*
Y527250D01*
X274370Y516250D02*
Y534250D01*
X260369Y516250D02*
Y534250D01*
X142500Y523250D02*
Y527250D01*
X152500Y523250D02*
Y527250D01*
X154500Y516250D02*
Y534250D01*
X140500Y516250D02*
Y534250D01*
X23623Y516250D02*
Y534250D01*
X37623Y516250D02*
Y534250D01*
X35623Y523250D02*
Y527250D01*
X25623Y523250D02*
Y527250D01*
X49123Y509750D02*
X67123D01*
X49123Y495750D02*
X67123D01*
X56123Y497750D02*
X60123D01*
X56123Y507750D02*
X60123D01*
X405700Y425700D02*
Y429700D01*
X395700Y425700D02*
Y429700D01*
X393700Y418700D02*
Y436700D01*
X407700Y418700D02*
Y436700D01*
X33954Y679694D02*
X51954D01*
X33954Y665694D02*
X51954D01*
X40954Y667694D02*
X44954D01*
X40954Y677694D02*
X44954D01*
X34086Y716302D02*
X52086D01*
X34086Y702302D02*
X52086D01*
X41086Y704302D02*
X45086D01*
X41086Y714302D02*
X45086D01*
X319215Y127500D02*
X323215D01*
X319215Y117500D02*
X323215D01*
X312215Y115500D02*
X330215D01*
X312215Y129500D02*
X330215D01*
X318888Y99117D02*
X322888D01*
X318888Y109117D02*
X322888D01*
X311888Y111117D02*
X329888D01*
X311888Y97117D02*
X329888D01*
X280614Y132856D02*
Y150856D01*
X294614Y132856D02*
Y150856D01*
X292614Y139856D02*
Y143856D01*
X282614Y139856D02*
Y143856D01*
X280614Y101742D02*
Y119742D01*
X294614Y101742D02*
Y119742D01*
X292614Y108742D02*
Y112742D01*
X282614Y108742D02*
Y112742D01*
X542544Y576152D02*
Y594152D01*
X528544Y576152D02*
Y594152D01*
X530544Y583153D02*
Y587152D01*
X540544Y583153D02*
Y587152D01*
X528544Y544085D02*
Y562085D01*
X542544Y544085D02*
Y562085D01*
X540544Y551085D02*
Y555085D01*
X530544Y551085D02*
Y555085D01*
X542544Y608220D02*
Y626220D01*
X528544Y608220D02*
Y626220D01*
X530544Y615220D02*
Y619220D01*
X540544Y615220D02*
Y619220D01*
X530544Y519017D02*
Y523018D01*
X540544Y519017D02*
Y523018D01*
X542544Y512018D02*
Y530018D01*
X528544Y512018D02*
Y530018D01*
X585412Y486950D02*
Y490950D01*
X595412Y486950D02*
Y490950D01*
X597412Y479950D02*
Y497950D01*
X583412Y479950D02*
Y497950D01*
X577185Y615220D02*
Y619220D01*
X567185Y615220D02*
Y619220D01*
X565185Y608220D02*
Y626220D01*
X579185Y608220D02*
Y626220D01*
X688859Y544085D02*
Y562085D01*
X674859Y544085D02*
Y562085D01*
X676860Y551085D02*
Y555085D01*
X686860Y551085D02*
Y555085D01*
X674859Y512018D02*
Y530018D01*
X688860Y512018D02*
Y530018D01*
X686860Y519017D02*
Y523018D01*
X676860Y519017D02*
Y523018D01*
X686860Y583153D02*
Y587152D01*
X676860Y583153D02*
Y587152D01*
X674859Y576152D02*
Y594152D01*
X688859Y576152D02*
Y594152D01*
X674859Y479950D02*
Y497950D01*
X688860Y479950D02*
Y497950D01*
X686860Y486950D02*
Y490950D01*
X676860Y486950D02*
Y490950D01*
X603702Y486950D02*
Y490950D01*
X613702Y486950D02*
Y490950D01*
X615702Y479950D02*
Y497950D01*
X601702Y479950D02*
Y497950D01*
X668789Y615220D02*
Y619220D01*
X658789Y615220D02*
Y619220D01*
X656789Y608220D02*
Y626220D01*
X670789Y608220D02*
Y626220D01*
X144311Y446180D02*
Y464180D01*
X158311Y446180D02*
Y464180D01*
X156311Y453180D02*
Y457180D01*
X146311Y453180D02*
Y457180D01*
X144311Y379243D02*
Y397243D01*
X158311Y379243D02*
Y397243D01*
X156311Y386243D02*
Y390243D01*
X146311Y386243D02*
Y390243D01*
X144311Y418711D02*
Y436711D01*
X158311Y418711D02*
Y436711D01*
X156311Y425711D02*
Y429711D01*
X146311Y425711D02*
Y429711D01*
X144311Y351774D02*
Y369774D01*
X158311Y351774D02*
Y369774D01*
X156311Y358774D02*
Y362774D01*
X146311Y358774D02*
Y362774D01*
X144943Y312305D02*
Y330305D01*
X158943Y312305D02*
Y330305D01*
X156943Y319305D02*
Y323305D01*
X146943Y319305D02*
Y323305D01*
X144943Y284837D02*
Y302836D01*
X158943Y284837D02*
Y302836D01*
X156943Y291836D02*
Y295837D01*
X146943Y291836D02*
Y295837D01*
X140860Y109992D02*
X158860D01*
X140860Y95992D02*
X158860D01*
X147860Y97992D02*
X151860D01*
X147860Y107992D02*
X151860D01*
D19*
X413159Y516033D02*
Y520653D01*
Y559467D02*
X417779D01*
X456593Y554847D02*
Y559467D01*
X413159Y516033D02*
X417779D01*
X413159Y554847D02*
Y559467D01*
X451973D02*
X456593D01*
X333467D02*
X338086D01*
X294652Y554847D02*
Y559467D01*
Y516033D02*
X299272D01*
X338086Y554847D02*
Y559467D01*
X294652D02*
X299272D01*
X294652Y516033D02*
Y520653D01*
X170783Y516033D02*
Y520653D01*
Y559467D02*
X175403D01*
X214217Y554847D02*
Y559467D01*
X170783Y516033D02*
X175403D01*
X170783Y554847D02*
Y559467D01*
X209597D02*
X214217D01*
X90220D02*
X94840D01*
X51406Y554847D02*
Y559467D01*
Y516033D02*
X56026D01*
X94840Y554847D02*
Y559467D01*
X51406D02*
X56026D01*
X51406Y516033D02*
Y520653D01*
X176783Y302596D02*
X196849D01*
X176783Y269576D02*
X196849D01*
X124408Y424938D02*
Y434551D01*
X114534Y487422D02*
X124408D01*
X92912Y437984D02*
Y474376D01*
X114534Y424938D02*
X124408D01*
Y477809D02*
Y487422D01*
X69138Y477809D02*
Y487422D01*
X59264Y424938D02*
X69138D01*
X37642Y437984D02*
Y474376D01*
X59264Y487422D02*
X69138D01*
Y424938D02*
Y434551D01*
X103505Y325755D02*
Y349579D01*
X100146Y400685D02*
X103505D01*
X59055Y325755D02*
Y400685D01*
Y325755D02*
X62504D01*
X103505Y376861D02*
Y400685D01*
X100146Y325755D02*
X103505D01*
X59055Y400685D02*
X62504D01*
X552263Y399224D02*
Y406763D01*
X544724Y262237D02*
X552263D01*
X407737D02*
Y269776D01*
Y399224D02*
Y406763D01*
X544724D02*
X552263D01*
Y262237D02*
Y269776D01*
X407737Y262237D02*
X415276D01*
X407737Y406763D02*
X415276D01*
D20*
X724000Y447200D02*
Y472000D01*
Y308000D02*
Y332800D01*
X776000Y308000D02*
Y472000D01*
X724000Y308000D02*
X737000D01*
X724000Y472000D02*
X737000D01*
X709330Y337220D02*
Y343220D01*
X714330Y340220D01*
X709330Y337220D02*
X714330Y340220D01*
X773500Y308000D02*
X776000D01*
X773500Y472000D02*
X776000D01*
X773500Y750100D02*
X776000D01*
X773500Y511100D02*
X776000D01*
X703580Y539720D02*
X708580Y542720D01*
X703580Y545720D02*
X708580Y542720D01*
X703580Y539720D02*
Y545720D01*
X724000Y750100D02*
X737000D01*
X724000Y511100D02*
X737000D01*
X776000D02*
Y750100D01*
X724000Y511100D02*
Y535900D01*
Y725300D02*
Y750100D01*
X395196Y116022D02*
Y155022D01*
X449298Y116022D02*
Y155022D01*
X670500Y703000D02*
Y729500D01*
X469500Y703000D02*
Y729500D01*
X488000Y694000D02*
X652000D01*
X360500Y703000D02*
Y729500D01*
X159500Y703000D02*
Y729500D01*
X178000Y694000D02*
X342000D01*
X339870Y345729D02*
X344113Y349971D01*
X357547Y328051D02*
X361790Y332294D01*
D21*
X285750Y372363D02*
Y378363D01*
X283750Y372363D02*
Y378363D01*
X275750Y368363D02*
X293750D01*
X275750Y382363D02*
X293750D01*
X283750Y425700D02*
Y431700D01*
X285750Y425700D02*
Y431700D01*
X275750Y435700D02*
X293750D01*
X275750Y421700D02*
X293750D01*
X285750Y408157D02*
Y414157D01*
X283750Y408157D02*
Y414157D01*
X275750Y404157D02*
X293750D01*
X275750Y418157D02*
X293750D01*
X214881Y253221D02*
X232881D01*
X214881Y239221D02*
X232881D01*
X222881Y243221D02*
Y249221D01*
X224881Y243221D02*
Y249221D01*
X214881Y271966D02*
X232881D01*
X214881Y257966D02*
X232881D01*
X222881Y261966D02*
Y267966D01*
X224881Y261966D02*
Y267966D01*
X214881Y290711D02*
X232881D01*
X214881Y276711D02*
X232881D01*
X222881Y280711D02*
Y286711D01*
X224881Y280711D02*
Y286711D01*
X214881Y295456D02*
X232881D01*
X214881Y309456D02*
X232881D01*
X224881Y299456D02*
Y305456D01*
X222881Y299456D02*
Y305456D01*
X214881Y314201D02*
X232881D01*
X214881Y328201D02*
X232881D01*
X224881Y318201D02*
Y324201D01*
X222881Y318201D02*
Y324201D01*
X214881Y346946D02*
X232881D01*
X214881Y332946D02*
X232881D01*
X222881Y336946D02*
Y342946D01*
X224881Y336946D02*
Y342946D01*
X214881Y351691D02*
X232881D01*
X214881Y365691D02*
X232881D01*
X224881Y355691D02*
Y361691D01*
X222881Y355691D02*
Y361691D01*
X214881Y370436D02*
X232881D01*
X214881Y384436D02*
X232881D01*
X224881Y374436D02*
Y380436D01*
X222881Y374436D02*
Y380436D01*
X214881Y389181D02*
X232881D01*
X214881Y403181D02*
X232881D01*
X224881Y393181D02*
Y399181D01*
X222881Y393181D02*
Y399181D01*
X214881Y407926D02*
X232881D01*
X214881Y421926D02*
X232881D01*
X224881Y411926D02*
Y417926D01*
X222881Y411926D02*
Y417926D01*
X214881Y426671D02*
X232881D01*
X214881Y440672D02*
X232881D01*
X224881Y430672D02*
Y436671D01*
X222881Y430672D02*
Y436671D01*
X214881Y445417D02*
X232881D01*
X214881Y459417D02*
X232881D01*
X224881Y449417D02*
Y455417D01*
X222881Y449417D02*
Y455417D01*
X214881Y478162D02*
X232881D01*
X214881Y464162D02*
X232881D01*
X222881Y468162D02*
Y474162D01*
X224881Y468162D02*
Y474162D01*
X285750Y302829D02*
Y308829D01*
X283750Y302829D02*
Y308829D01*
X275750Y298829D02*
X293750D01*
X275750Y312829D02*
X293750D01*
X283750Y319686D02*
Y325686D01*
X285750Y319686D02*
Y325686D01*
X275750Y329686D02*
X293750D01*
X275750Y315686D02*
X293750D01*
X283750Y354803D02*
Y360803D01*
X285750Y354803D02*
Y360803D01*
X275750Y364803D02*
X293750D01*
X275750Y350803D02*
X293750D01*
X275750Y347946D02*
X293750D01*
X275750Y333946D02*
X293750D01*
X283750Y337946D02*
Y343946D01*
X285750Y337946D02*
Y343946D01*
X283750Y389906D02*
Y395906D01*
X285750Y389906D02*
Y395906D01*
X275750Y399906D02*
X293750D01*
X275750Y385906D02*
X293750D01*
X692595Y437137D02*
Y443138D01*
X694595Y437137D02*
Y443138D01*
X684595Y447137D02*
X702595D01*
X684595Y433138D02*
X702595D01*
X684595Y411295D02*
X702595D01*
X684595Y425295D02*
X702595D01*
X694595Y415295D02*
Y421295D01*
X692595Y415295D02*
Y421295D01*
X684595Y389453D02*
X702595D01*
X684595Y403452D02*
X702595D01*
X694595Y393452D02*
Y399453D01*
X692595Y393452D02*
Y399453D01*
X684595Y367610D02*
X702595D01*
X684595Y381610D02*
X702595D01*
X694595Y371610D02*
Y377610D01*
X692595Y371610D02*
Y377610D01*
X684595Y345768D02*
X702595D01*
X684595Y359767D02*
X702595D01*
X694595Y349767D02*
Y355768D01*
X692595Y349767D02*
Y355768D01*
X684595Y323925D02*
X702595D01*
X684595Y337925D02*
X702595D01*
X694595Y327925D02*
Y333925D01*
X692595Y327925D02*
Y333925D01*
X684595Y302083D02*
X702595D01*
X684595Y316082D02*
X702595D01*
X694595Y306082D02*
Y312083D01*
X692595Y306082D02*
Y312083D01*
X684595Y294240D02*
X702595D01*
X684595Y280240D02*
X702595D01*
X692595Y284240D02*
Y290240D01*
X694595Y284240D02*
Y290240D01*
X684595Y258398D02*
X702595D01*
X684595Y272397D02*
X702595D01*
X694595Y262397D02*
Y268398D01*
X692595Y262397D02*
Y268398D01*
X684595Y236555D02*
X702595D01*
X684595Y250555D02*
X702595D01*
X694595Y240555D02*
Y246555D01*
X692595Y240555D02*
Y246555D01*
X684595Y228713D02*
X702595D01*
X684595Y214713D02*
X702595D01*
X692595Y218713D02*
Y224713D01*
X694595Y218713D02*
Y224713D01*
X685000Y149185D02*
X703000D01*
X685000Y163185D02*
X703000D01*
X695000Y153185D02*
Y159185D01*
X693000Y153185D02*
Y159185D01*
X685000Y171028D02*
X703000D01*
X685000Y185028D02*
X703000D01*
X695000Y175028D02*
Y181028D01*
X693000Y175028D02*
Y181028D01*
X685000Y192870D02*
X703000D01*
X685000Y206870D02*
X703000D01*
X695000Y196870D02*
Y202870D01*
X693000Y196870D02*
Y202870D01*
X695000Y131342D02*
Y137343D01*
X693000Y131342D02*
Y137343D01*
X685000Y127343D02*
X703000D01*
X685000Y141342D02*
X703000D01*
X685000Y119500D02*
X703000D01*
X685000Y105500D02*
X703000D01*
X693000Y109500D02*
Y115500D01*
X695000Y109500D02*
Y115500D01*
X626566Y135020D02*
Y137279D01*
X624285Y135020D02*
X626566D01*
X601813Y135055D02*
Y137336D01*
Y135055D02*
X604072D01*
X601784Y160848D02*
X604065D01*
X601784Y158589D02*
Y160848D01*
X620953Y104703D02*
Y122703D01*
X606953Y104703D02*
Y122703D01*
X610953Y114703D02*
X616953D01*
X610953Y112703D02*
X616953D01*
X556267Y187341D02*
X562267D01*
X556267Y185341D02*
X562267D01*
X566267Y177341D02*
Y195341D01*
X552267Y177341D02*
Y195341D01*
X612888Y187341D02*
X618888D01*
X612888Y185341D02*
X618888D01*
X622888Y177341D02*
Y195341D01*
X608888Y177341D02*
Y195341D01*
X631762Y187341D02*
X637762D01*
X631762Y185341D02*
X637762D01*
X641762Y177341D02*
Y195341D01*
X627762Y177341D02*
Y195341D01*
X660636Y177341D02*
Y195341D01*
X646636Y177341D02*
Y195341D01*
X650636Y187341D02*
X656636D01*
X650636Y185341D02*
X656636D01*
X594015D02*
X600015D01*
X594015Y187341D02*
X600015D01*
X590015Y177341D02*
Y195341D01*
X604015Y177341D02*
Y195341D01*
X575141Y185341D02*
X581141D01*
X575141Y187341D02*
X581141D01*
X571141Y177341D02*
Y195341D01*
X585141Y177341D02*
Y195341D01*
X441580Y185458D02*
Y191458D01*
X443580Y185458D02*
Y191458D01*
X433580Y195458D02*
X451580D01*
X433580Y181458D02*
X451580D01*
X422924Y604772D02*
X466828D01*
X422924Y570228D02*
X466828D01*
Y604772D01*
X422924Y570228D02*
Y604772D01*
X304417D02*
X348322D01*
X304417Y570228D02*
X348322D01*
Y604772D01*
X304417Y570228D02*
Y604772D01*
X180548Y570228D02*
Y604772D01*
X224452Y570228D02*
Y604772D01*
X180548Y570228D02*
X224452D01*
X180548Y604772D02*
X224452D01*
X61171D02*
X105075D01*
X61171Y570228D02*
X105075D01*
Y604772D01*
X61171Y570228D02*
Y604772D01*
X429674Y642884D02*
X447674D01*
X429674Y656884D02*
X447674D01*
X439674Y646884D02*
Y652884D01*
X437674Y646884D02*
Y652884D01*
X429674Y661884D02*
X447674D01*
X429674Y675884D02*
X447674D01*
X439674Y665884D02*
Y671884D01*
X437674Y665884D02*
Y671884D01*
X429674Y697444D02*
X447674D01*
X429674Y711444D02*
X447674D01*
X439674Y701444D02*
Y707444D01*
X437674Y701444D02*
Y707444D01*
X429674Y714004D02*
X447674D01*
X429674Y728004D02*
X447674D01*
X439674Y718004D02*
Y724004D01*
X437674Y718004D02*
Y724004D01*
X429674Y768564D02*
X447674D01*
X429674Y782564D02*
X447674D01*
X439674Y772564D02*
Y778564D01*
X437674Y772564D02*
Y778564D01*
X429674Y733004D02*
X447674D01*
X429674Y747004D02*
X447674D01*
X439674Y737004D02*
Y743004D01*
X437674Y737004D02*
Y743004D01*
X429674Y749564D02*
X447674D01*
X429674Y763564D02*
X447674D01*
X439674Y753564D02*
Y759564D01*
X437674Y753564D02*
Y759564D01*
X429674Y678444D02*
X447674D01*
X429674Y692444D02*
X447674D01*
X439674Y682444D02*
Y688444D01*
X437674Y682444D02*
Y688444D01*
X341168Y267201D02*
Y289253D01*
Y295141D01*
X326803D02*
X341168D01*
X326803Y267201D02*
Y295141D01*
X329640Y278632D02*
X338328D01*
Y283966D01*
X329640D02*
X338328D01*
X329640Y278632D02*
Y283966D01*
X326803Y267201D02*
X341168D01*
X107476Y641629D02*
X125476D01*
X107476Y627630D02*
X125476D01*
X115476Y631629D02*
Y637630D01*
X117476Y631629D02*
Y637630D01*
X107476Y645933D02*
X125476D01*
X107476Y659933D02*
X125476D01*
X117476Y649933D02*
Y655933D01*
X115476Y649933D02*
Y655933D01*
X107476Y678237D02*
X125476D01*
X107476Y664237D02*
X125476D01*
X115476Y668237D02*
Y674237D01*
X117476Y668237D02*
Y674237D01*
X107476Y682541D02*
X125476D01*
X107476Y696541D02*
X125476D01*
X117476Y686541D02*
Y692541D01*
X115476Y686541D02*
Y692541D01*
X107476Y700845D02*
X125476D01*
X107476Y714845D02*
X125476D01*
X117476Y704845D02*
Y710845D01*
X115476Y704845D02*
Y710845D01*
X107476Y719149D02*
X125476D01*
X107476Y733149D02*
X125476D01*
X117476Y723149D02*
Y729149D01*
X115476Y723149D02*
Y729149D01*
X107476Y751453D02*
X125476D01*
X107476Y737453D02*
X125476D01*
X115476Y741453D02*
Y747453D01*
X117476Y741453D02*
Y747453D01*
X102197Y776721D02*
X131661D01*
X102197Y755893D02*
X131661D01*
X102197D02*
Y776721D01*
X131661Y755893D02*
Y776721D01*
X66002Y678397D02*
X68260D01*
X66002D02*
Y680679D01*
X66037Y703150D02*
X68318D01*
X66037Y700891D02*
Y703150D01*
X91830Y700898D02*
Y703179D01*
X89571D02*
X91830D01*
X485376Y546250D02*
Y564250D01*
X499376Y546250D02*
Y564250D01*
X489376Y554250D02*
X495376D01*
X489376Y556250D02*
X495376D01*
X370869D02*
X376870D01*
X370869Y554250D02*
X376870D01*
X380869Y546250D02*
Y564250D01*
X366870Y546250D02*
Y564250D01*
X247000Y556250D02*
X253000D01*
X247000Y554250D02*
X253000D01*
X257000Y546250D02*
Y564250D01*
X243000Y546250D02*
Y564250D01*
X127249Y556250D02*
X133249D01*
X127249Y554250D02*
X133249D01*
X137249Y546250D02*
Y564250D01*
X123249Y546250D02*
Y564250D01*
X370869Y524250D02*
X376870D01*
X370869Y526250D02*
X376870D01*
X366870Y516250D02*
Y534250D01*
X380869Y516250D02*
Y534250D01*
X363369Y516250D02*
Y534250D01*
X349370Y516250D02*
Y534250D01*
X353369Y526250D02*
X359370D01*
X353369Y524250D02*
X359370D01*
X247000Y524250D02*
X253000D01*
X247000Y526250D02*
X253000D01*
X243000Y516250D02*
Y534250D01*
X257000Y516250D02*
Y534250D01*
X229500Y524250D02*
X235500D01*
X229500Y526250D02*
X235500D01*
X225500Y516250D02*
Y534250D01*
X239500Y516250D02*
Y534250D01*
X127249Y524250D02*
X133249D01*
X127249Y526250D02*
X133249D01*
X123249Y516250D02*
Y534250D01*
X137249Y516250D02*
Y534250D01*
X120123Y516250D02*
Y534250D01*
X106123Y516250D02*
Y534250D01*
X110123Y526250D02*
X116123D01*
X110123Y524250D02*
X116123D01*
X489376D02*
X495376D01*
X489376Y526250D02*
X495376D01*
X485376Y516250D02*
Y534250D01*
X499376Y516250D02*
Y534250D01*
X481876Y516250D02*
Y534250D01*
X467876Y516250D02*
Y534250D01*
X471876Y526250D02*
X477876D01*
X471876Y524250D02*
X477876D01*
X443376Y495750D02*
X461376D01*
X443376Y509750D02*
X461376D01*
X453376Y499750D02*
Y505750D01*
X451376Y499750D02*
Y505750D01*
X324869Y495750D02*
X342869D01*
X324869Y509750D02*
X342869D01*
X334869Y499750D02*
Y505750D01*
X332869Y499750D02*
Y505750D01*
X201000Y495750D02*
X219000D01*
X201000Y509750D02*
X219000D01*
X211000Y499750D02*
Y505750D01*
X209000Y499750D02*
Y505750D01*
X81623Y495750D02*
X99623D01*
X81623Y509750D02*
X99623D01*
X91623Y499750D02*
Y505750D01*
X89623Y499750D02*
Y505750D01*
X375468Y426700D02*
X381469D01*
X375468Y428700D02*
X381469D01*
X371469Y418700D02*
Y436700D01*
X385468Y418700D02*
Y436700D01*
X353362Y428700D02*
X359362D01*
X353362Y426700D02*
X359362D01*
X363362Y418700D02*
Y436700D01*
X349362Y418700D02*
Y436700D01*
X33954Y683873D02*
X51954D01*
X33954Y697873D02*
X51954D01*
X43954Y687873D02*
Y693873D01*
X41954Y687873D02*
Y693873D01*
X527816Y171221D02*
Y200685D01*
X548644Y171221D02*
Y200685D01*
X527816Y171221D02*
X548644D01*
X527816Y200685D02*
X548644D01*
X411235Y185458D02*
Y191458D01*
X413235Y185458D02*
Y191458D01*
X403235Y195458D02*
X421235D01*
X403235Y181458D02*
X421235D01*
X532419Y487950D02*
X538419D01*
X532419Y489950D02*
X538419D01*
X528419Y479950D02*
Y497950D01*
X542419Y479950D02*
Y497950D01*
X550740Y618220D02*
X556740D01*
X550740Y616220D02*
X556740D01*
X560740Y608220D02*
Y626220D01*
X546740Y608220D02*
Y626220D01*
X568998Y489950D02*
X574998D01*
X568998Y487950D02*
X574998D01*
X578998Y479950D02*
Y497950D01*
X564998Y479950D02*
Y497950D01*
X605702Y616220D02*
X611702D01*
X605702Y618220D02*
X611702D01*
X601702Y608220D02*
Y626220D01*
X615702Y608220D02*
Y626220D01*
X587381Y616220D02*
X593381D01*
X587381Y618220D02*
X593381D01*
X583381Y608220D02*
Y626220D01*
X597381Y608220D02*
Y626220D01*
X550708Y489950D02*
X556708D01*
X550708Y487950D02*
X556708D01*
X560708Y479950D02*
Y497950D01*
X546708Y479950D02*
Y497950D01*
X660445Y487950D02*
X666445D01*
X660445Y489950D02*
X666445D01*
X656445Y479950D02*
Y497950D01*
X670445Y479950D02*
Y497950D01*
X678985Y618220D02*
X684985D01*
X678985Y616220D02*
X684985D01*
X688985Y608220D02*
Y626220D01*
X674985Y608220D02*
Y626220D01*
X623866Y489950D02*
X629866D01*
X623866Y487950D02*
X629866D01*
X633866Y479950D02*
Y497950D01*
X619866Y479950D02*
Y497950D01*
X642343Y616220D02*
X648343D01*
X642343Y618220D02*
X648343D01*
X638343Y608220D02*
Y626220D01*
X652343Y608220D02*
Y626220D01*
X624022Y616220D02*
X630022D01*
X624022Y618220D02*
X630022D01*
X620022Y608220D02*
Y626220D01*
X634022Y608220D02*
Y626220D01*
X642156Y489950D02*
X648156D01*
X642156Y487950D02*
X648156D01*
X652156Y479950D02*
Y497950D01*
X638156Y479950D02*
Y497950D01*
X176420Y410860D02*
X194420D01*
X176420Y396860D02*
X194420D01*
X184420Y400860D02*
Y406860D01*
X186420Y400860D02*
Y406860D01*
X176420Y393493D02*
X194420D01*
X176420Y379493D02*
X194420D01*
X184420Y383493D02*
Y389493D01*
X186420Y383493D02*
Y389493D01*
X140860Y253221D02*
X158860D01*
X140860Y239221D02*
X158860D01*
X148860Y243221D02*
Y249221D01*
X150860Y243221D02*
Y249221D01*
X140860Y273700D02*
X158860D01*
X140860Y259700D02*
X158860D01*
X148860Y263700D02*
Y269700D01*
X150860Y263700D02*
Y269700D01*
Y120346D02*
Y126346D01*
X148860Y120346D02*
Y126346D01*
X140860Y116346D02*
X158860D01*
X140860Y130346D02*
X158860D01*
X148860Y161304D02*
Y167304D01*
X150860Y161304D02*
Y167304D01*
X140860Y171304D02*
X158860D01*
X140860Y157304D02*
X158860D01*
X148860Y140825D02*
Y146825D01*
X150860Y140825D02*
Y146825D01*
X140860Y150825D02*
X158860D01*
X140860Y136825D02*
X158860D01*
X148860Y222742D02*
Y228742D01*
X150860Y222742D02*
Y228742D01*
X140860Y232742D02*
X158860D01*
X140860Y218742D02*
X158860D01*
X148860Y202263D02*
Y208263D01*
X150860Y202263D02*
Y208263D01*
X140860Y212263D02*
X158860D01*
X140860Y198263D02*
X158860D01*
X148860Y181784D02*
Y187784D01*
X150860Y181784D02*
Y187784D01*
X140860Y191784D02*
X158860D01*
X140860Y177784D02*
X158860D01*
D22*
X178965Y232798D02*
X175300D01*
Y230049D01*
X177133Y230965D01*
X178049D01*
X178965Y230049D01*
Y228216D01*
X178049Y227300D01*
X176216D01*
X175300Y228216D01*
X180798Y227300D02*
X183547D01*
X184464Y228216D01*
X183547Y229133D01*
X181715D01*
X180798Y230049D01*
X181715Y230965D01*
X184464D01*
X186296Y227300D02*
X189962Y230965D01*
X191795Y231882D02*
X192711Y232798D01*
X194544D01*
X195460Y231882D01*
Y230965D01*
X194544Y230049D01*
X193627D01*
X194544D01*
X195460Y229133D01*
Y228216D01*
X194544Y227300D01*
X192711D01*
X191795Y228216D01*
X197293Y231882D02*
X198209Y232798D01*
X200042D01*
X200958Y231882D01*
Y228216D01*
X200042Y227300D01*
X198209D01*
X197293Y228216D01*
Y231882D01*
X202791Y227300D02*
X205540D01*
X206457Y228216D01*
X205540Y229133D01*
X203707D01*
X202791Y230049D01*
X203707Y230965D01*
X206457D01*
X38328Y145095D02*
Y150593D01*
X41077D01*
X41994Y149677D01*
Y147844D01*
X41077Y146928D01*
X38328D01*
X40161D02*
X41994Y145095D01*
X43826Y150593D02*
X47492Y145095D01*
Y150593D02*
X43826Y145095D01*
X37573Y124571D02*
X41238D01*
X39405D01*
Y119073D01*
X43071Y124571D02*
X46736Y119073D01*
Y124571D02*
X43071Y119073D01*
X38370Y97633D02*
X37454Y98549D01*
X35621D01*
X34705Y97633D01*
Y93967D01*
X35621Y93051D01*
X37454D01*
X38370Y93967D01*
Y95800D01*
X36537D01*
X40203Y93051D02*
Y98549D01*
X43868Y93051D01*
Y98549D01*
X45701D02*
Y93051D01*
X48450D01*
X49366Y93967D01*
Y97633D01*
X48450Y98549D01*
X45701D01*
X33770Y280878D02*
Y277213D01*
X35603Y275380D01*
X37436Y277213D01*
Y280878D01*
X42934Y279962D02*
X42018Y280878D01*
X40185D01*
X39269Y279962D01*
Y276296D01*
X40185Y275380D01*
X42018D01*
X42934Y276296D01*
X48432Y279962D02*
X47516Y280878D01*
X45683D01*
X44767Y279962D01*
Y276296D01*
X45683Y275380D01*
X47516D01*
X48432Y276296D01*
X36920Y254737D02*
X36003Y255654D01*
X34171D01*
X33254Y254737D01*
Y251072D01*
X34171Y250155D01*
X36003D01*
X36920Y251072D01*
Y252904D01*
X35087D01*
X38752Y250155D02*
Y255654D01*
X42418Y250155D01*
Y255654D01*
X44251D02*
Y250155D01*
X47000D01*
X47916Y251072D01*
Y254737D01*
X47000Y255654D01*
X44251D01*
X32216Y229513D02*
X31299Y230429D01*
X29467D01*
X28550Y229513D01*
Y228596D01*
X29467Y227680D01*
X31299D01*
X32216Y226763D01*
Y225847D01*
X31299Y224931D01*
X29467D01*
X28550Y225847D01*
X34049Y230429D02*
Y224931D01*
X35881Y226763D01*
X37714Y224931D01*
Y230429D01*
X39547D02*
Y224931D01*
X42296D01*
X43212Y225847D01*
Y229513D01*
X42296Y230429D01*
X39547D01*
X45045D02*
X46878D01*
X45961D01*
Y224931D01*
X45045D01*
X46878D01*
X52376Y230429D02*
X50543D01*
X49627Y229513D01*
Y225847D01*
X50543Y224931D01*
X52376D01*
X53292Y225847D01*
Y229513D01*
X52376Y230429D01*
X32713Y204288D02*
X31796Y205204D01*
X29964D01*
X29047Y204288D01*
Y203372D01*
X29964Y202455D01*
X31796D01*
X32713Y201539D01*
Y200623D01*
X31796Y199706D01*
X29964D01*
X29047Y200623D01*
X34545Y205204D02*
Y199706D01*
X36378Y201539D01*
X38211Y199706D01*
Y205204D01*
X43709Y204288D02*
X42793Y205204D01*
X40960D01*
X40044Y204288D01*
Y200623D01*
X40960Y199706D01*
X42793D01*
X43709Y200623D01*
X45542Y205204D02*
Y199706D01*
X49207D01*
X51040Y205204D02*
Y199706D01*
Y201539D01*
X54705Y205204D01*
X51956Y202455D01*
X54705Y199706D01*
X31444Y174482D02*
Y179980D01*
X35110Y174482D01*
Y179980D01*
X36943Y174482D02*
Y179980D01*
X39692D01*
X40608Y179063D01*
Y177231D01*
X39692Y176314D01*
X36943D01*
X38775D02*
X40608Y174482D01*
X46106Y179063D02*
X45190Y179980D01*
X43357D01*
X42441Y179063D01*
Y178147D01*
X43357Y177231D01*
X45190D01*
X46106Y176314D01*
Y175398D01*
X45190Y174482D01*
X43357D01*
X42441Y175398D01*
X47939Y179980D02*
X51604D01*
X49772D01*
Y174482D01*
X30792Y358460D02*
X25294D01*
Y354794D01*
X30792Y349296D02*
Y352961D01*
X25294D01*
Y349296D01*
X28043Y352961D02*
Y351129D01*
X30792Y347463D02*
X25294D01*
Y344714D01*
X26210Y343798D01*
X29875D01*
X30792Y344714D01*
Y347463D01*
X24377Y341965D02*
Y338299D01*
X25294Y336467D02*
X30792D01*
X25294Y332801D01*
X30792D01*
Y391035D02*
X25294D01*
Y387370D01*
X30792Y381871D02*
Y385537D01*
X25294D01*
Y381871D01*
X28043Y385537D02*
Y383704D01*
X30792Y380039D02*
X25294D01*
Y377290D01*
X26210Y376373D01*
X29875D01*
X30792Y377290D01*
Y380039D01*
X24377Y374540D02*
Y370875D01*
X25294Y369042D02*
X30792D01*
Y366293D01*
X29875Y365377D01*
X28043D01*
X27126Y366293D01*
Y369042D01*
X28605Y483665D02*
X29521Y484582D01*
Y486414D01*
X28605Y487331D01*
X27688D01*
X26772Y486414D01*
Y484582D01*
X25856Y483665D01*
X24939D01*
X24023Y484582D01*
Y486414D01*
X24939Y487331D01*
X28605Y478167D02*
X29521Y479084D01*
Y480916D01*
X28605Y481833D01*
X24939D01*
X24023Y480916D01*
Y479084D01*
X24939Y478167D01*
X29521Y476334D02*
X24023D01*
Y472669D01*
X28688Y423665D02*
X29604Y424582D01*
Y426414D01*
X28688Y427331D01*
X25023D01*
X24106Y426414D01*
Y424582D01*
X25023Y423665D01*
X26855D01*
Y425498D01*
X24106Y421833D02*
X29604D01*
X24106Y418167D01*
X29604D01*
Y416334D02*
X24106D01*
Y413585D01*
X25023Y412669D01*
X28688D01*
X29604Y413585D01*
Y416334D01*
X28605Y463665D02*
X29521Y464582D01*
Y466414D01*
X28605Y467331D01*
X27688D01*
X26772Y466414D01*
Y464582D01*
X25856Y463665D01*
X24939D01*
X24023Y464582D01*
Y466414D01*
X24939Y467331D01*
X29521Y461833D02*
X24023D01*
Y459084D01*
X24939Y458167D01*
X28605D01*
X29521Y459084D01*
Y461833D01*
X24023Y456334D02*
X27688D01*
X29521Y454502D01*
X27688Y452669D01*
X24023D01*
X26772D01*
Y456334D01*
X29380Y447331D02*
X25714D01*
X23882Y445498D01*
X25714Y443665D01*
X29380D01*
X28463Y438167D02*
X29380Y439084D01*
Y440916D01*
X28463Y441833D01*
X24798D01*
X23882Y440916D01*
Y439084D01*
X24798Y438167D01*
X28463Y432669D02*
X29380Y433585D01*
Y435418D01*
X28463Y436334D01*
X24798D01*
X23882Y435418D01*
Y433585D01*
X24798Y432669D01*
X417418Y92749D02*
Y88167D01*
X418335Y87251D01*
X420167D01*
X421084Y88167D01*
Y92749D01*
X426582Y87251D02*
X422916D01*
X426582Y90916D01*
Y91833D01*
X425666Y92749D01*
X423833D01*
X422916Y91833D01*
X32474Y583877D02*
X33390Y584793D01*
Y586626D01*
X32474Y587542D01*
X28808D01*
X27892Y586626D01*
Y584793D01*
X28808Y583877D01*
X27892Y578378D02*
Y582044D01*
X31558Y578378D01*
X32474D01*
X33390Y579295D01*
Y581127D01*
X32474Y582044D01*
X27892Y573797D02*
X33390D01*
X30641Y576546D01*
Y572880D01*
X151934Y583886D02*
X152850Y584803D01*
Y586636D01*
X151934Y587552D01*
X148268D01*
X147352Y586636D01*
Y584803D01*
X148268Y583886D01*
X147352Y578388D02*
Y582054D01*
X151018Y578388D01*
X151934D01*
X152850Y579305D01*
Y581137D01*
X151934Y582054D01*
X152850Y572890D02*
Y576555D01*
X150101D01*
X151018Y574723D01*
Y573806D01*
X150101Y572890D01*
X148268D01*
X147352Y573806D01*
Y575639D01*
X148268Y576555D01*
X119029Y597865D02*
X118112Y598782D01*
X116279D01*
X115363Y597865D01*
Y594200D01*
X116279Y593284D01*
X118112D01*
X119029Y594200D01*
X124527Y593284D02*
X120861D01*
X124527Y596949D01*
Y597865D01*
X123610Y598782D01*
X121778D01*
X120861Y597865D01*
X130025Y598782D02*
X128192Y597865D01*
X126360Y596033D01*
Y594200D01*
X127276Y593284D01*
X129109D01*
X130025Y594200D01*
Y595116D01*
X129109Y596033D01*
X126360D01*
X238335Y597833D02*
X237418Y598749D01*
X235585D01*
X234669Y597833D01*
Y594167D01*
X235585Y593251D01*
X237418D01*
X238335Y594167D01*
X243833Y593251D02*
X240167D01*
X243833Y596916D01*
Y597833D01*
X242916Y598749D01*
X241084D01*
X240167Y597833D01*
X245665Y598749D02*
X249331D01*
Y597833D01*
X245665Y594167D01*
Y593251D01*
X27006Y547291D02*
X26090Y548208D01*
X24257D01*
X23341Y547291D01*
Y543626D01*
X24257Y542709D01*
X26090D01*
X27006Y543626D01*
X32504Y542709D02*
X28839D01*
X32504Y546375D01*
Y547291D01*
X31588Y548208D01*
X29755D01*
X28839Y547291D01*
X34337D02*
X35253Y548208D01*
X37086D01*
X38003Y547291D01*
Y546375D01*
X37086Y545458D01*
X38003Y544542D01*
Y543626D01*
X37086Y542709D01*
X35253D01*
X34337Y543626D01*
Y544542D01*
X35253Y545458D01*
X34337Y546375D01*
Y547291D01*
X35253Y545458D02*
X37086D01*
X149819Y501728D02*
X150736Y502645D01*
Y504477D01*
X149819Y505394D01*
X146154D01*
X145237Y504477D01*
Y502645D01*
X146154Y501728D01*
X145237Y496230D02*
Y499895D01*
X148903Y496230D01*
X149819D01*
X150736Y497146D01*
Y498979D01*
X149819Y499895D01*
X146154Y494397D02*
X145237Y493481D01*
Y491648D01*
X146154Y490732D01*
X149819D01*
X150736Y491648D01*
Y493481D01*
X149819Y494397D01*
X148903D01*
X147986Y493481D01*
Y490732D01*
X25482Y505384D02*
X26399Y506301D01*
Y508133D01*
X25482Y509050D01*
X21817D01*
X20900Y508133D01*
Y506301D01*
X21817Y505384D01*
X25482Y503551D02*
X26399Y502635D01*
Y500802D01*
X25482Y499886D01*
X24566D01*
X23650Y500802D01*
Y501719D01*
Y500802D01*
X22733Y499886D01*
X21817D01*
X20900Y500802D01*
Y502635D01*
X21817Y503551D01*
X25482Y498053D02*
X26399Y497137D01*
Y495304D01*
X25482Y494388D01*
X21817D01*
X20900Y495304D01*
Y497137D01*
X21817Y498053D01*
X25482D01*
X174563Y489731D02*
X173647Y490647D01*
X171814D01*
X170898Y489731D01*
Y486065D01*
X171814Y485149D01*
X173647D01*
X174563Y486065D01*
X176396Y489731D02*
X177313Y490647D01*
X179145D01*
X180062Y489731D01*
Y488814D01*
X179145Y487898D01*
X178229D01*
X179145D01*
X180062Y486982D01*
Y486065D01*
X179145Y485149D01*
X177313D01*
X176396Y486065D01*
X181894Y485149D02*
X183727D01*
X182811D01*
Y490647D01*
X181894Y489731D01*
X275632Y583886D02*
X276548Y584803D01*
Y586636D01*
X275632Y587552D01*
X271966D01*
X271050Y586636D01*
Y584803D01*
X271966Y583886D01*
X275632Y582054D02*
X276548Y581137D01*
Y579305D01*
X275632Y578388D01*
X274715D01*
X273799Y579305D01*
Y580221D01*
Y579305D01*
X272883Y578388D01*
X271966D01*
X271050Y579305D01*
Y581137D01*
X271966Y582054D01*
X276548Y572890D02*
X275632Y574723D01*
X273799Y576555D01*
X271966D01*
X271050Y575639D01*
Y573806D01*
X271966Y572890D01*
X272883D01*
X273799Y573806D01*
Y576555D01*
X394250Y583886D02*
X395166Y584803D01*
Y586636D01*
X394250Y587552D01*
X390584D01*
X389668Y586636D01*
Y584803D01*
X390584Y583886D01*
X394250Y582054D02*
X395166Y581137D01*
Y579305D01*
X394250Y578388D01*
X393334D01*
X392417Y579305D01*
Y580221D01*
Y579305D01*
X391501Y578388D01*
X390584D01*
X389668Y579305D01*
Y581137D01*
X390584Y582054D01*
X395166Y576555D02*
Y572890D01*
X394250D01*
X390584Y576555D01*
X389668D01*
X362286Y597833D02*
X361370Y598749D01*
X359537D01*
X358621Y597833D01*
Y594167D01*
X359537Y593251D01*
X361370D01*
X362286Y594167D01*
X364119Y597833D02*
X365036Y598749D01*
X366868D01*
X367785Y597833D01*
Y596916D01*
X366868Y596000D01*
X365952D01*
X366868D01*
X367785Y595084D01*
Y594167D01*
X366868Y593251D01*
X365036D01*
X364119Y594167D01*
X369618Y597833D02*
X370534Y598749D01*
X372367D01*
X373283Y597833D01*
Y596916D01*
X372367Y596000D01*
X373283Y595084D01*
Y594167D01*
X372367Y593251D01*
X370534D01*
X369618Y594167D01*
Y595084D01*
X370534Y596000D01*
X369618Y596916D01*
Y597833D01*
X370534Y596000D02*
X372367D01*
X480905Y597833D02*
X479988Y598749D01*
X478155D01*
X477239Y597833D01*
Y594167D01*
X478155Y593251D01*
X479988D01*
X480905Y594167D01*
X482737Y597833D02*
X483654Y598749D01*
X485486D01*
X486403Y597833D01*
Y596916D01*
X485486Y596000D01*
X484570D01*
X485486D01*
X486403Y595084D01*
Y594167D01*
X485486Y593251D01*
X483654D01*
X482737Y594167D01*
X488236D02*
X489152Y593251D01*
X490985D01*
X491901Y594167D01*
Y597833D01*
X490985Y598749D01*
X489152D01*
X488236Y597833D01*
Y596916D01*
X489152Y596000D01*
X491901D01*
X269451Y501728D02*
X270367Y502645D01*
Y504477D01*
X269451Y505394D01*
X265786D01*
X264869Y504477D01*
Y502645D01*
X265786Y501728D01*
X264869Y497146D02*
X270367D01*
X267618Y499895D01*
Y496230D01*
X269451Y494397D02*
X270367Y493481D01*
Y491648D01*
X269451Y490732D01*
X265786D01*
X264869Y491648D01*
Y493481D01*
X265786Y494397D01*
X269451D01*
X394515Y501728D02*
X395431Y502645D01*
Y504477D01*
X394515Y505394D01*
X390849D01*
X389933Y504477D01*
Y502645D01*
X390849Y501728D01*
X389933Y497146D02*
X395431D01*
X392682Y499895D01*
Y496230D01*
X389933Y494397D02*
Y492565D01*
Y493481D01*
X395431D01*
X394515Y494397D01*
X297599Y489826D02*
X296683Y490743D01*
X294850D01*
X293934Y489826D01*
Y486161D01*
X294850Y485244D01*
X296683D01*
X297599Y486161D01*
X302181Y485244D02*
Y490743D01*
X299432Y487994D01*
X303097D01*
X308595Y485244D02*
X304930D01*
X308595Y488910D01*
Y489826D01*
X307679Y490743D01*
X305846D01*
X304930Y489826D01*
X415963D02*
X415047Y490743D01*
X413214D01*
X412298Y489826D01*
Y486161D01*
X413214Y485244D01*
X415047D01*
X415963Y486161D01*
X420545Y485244D02*
Y490743D01*
X417796Y487994D01*
X421461D01*
X423294Y489826D02*
X424210Y490743D01*
X426043D01*
X426959Y489826D01*
Y488910D01*
X426043Y487994D01*
X425127D01*
X426043D01*
X426959Y487077D01*
Y486161D01*
X426043Y485244D01*
X424210D01*
X423294Y486161D01*
X78426Y614749D02*
Y609251D01*
X82092D01*
X87590D02*
X83924D01*
X87590Y612916D01*
Y613833D01*
X86673Y614749D01*
X84841D01*
X83924Y613833D01*
X197806Y614749D02*
Y609251D01*
X201472D01*
X203304Y613833D02*
X204221Y614749D01*
X206053D01*
X206970Y613833D01*
Y612916D01*
X206053Y612000D01*
X205137D01*
X206053D01*
X206970Y611084D01*
Y610167D01*
X206053Y609251D01*
X204221D01*
X203304Y610167D01*
X321758Y614749D02*
Y609251D01*
X325424D01*
X330005D02*
Y614749D01*
X327256Y612000D01*
X330922D01*
X440376Y614749D02*
Y609251D01*
X444041D01*
X449540Y614749D02*
X445874D01*
Y612000D01*
X447707Y612916D01*
X448623D01*
X449540Y612000D01*
Y610167D01*
X448623Y609251D01*
X446791D01*
X445874Y610167D01*
X110251Y509331D02*
X115749D01*
Y506582D01*
X114833Y505666D01*
X113000D01*
X112084Y506582D01*
Y509331D01*
Y507498D02*
X110251Y505666D01*
Y500167D02*
Y503833D01*
X113916Y500167D01*
X114833D01*
X115749Y501084D01*
Y502916D01*
X114833Y503833D01*
Y498335D02*
X115749Y497418D01*
Y495585D01*
X114833Y494669D01*
X113916D01*
X113000Y495585D01*
Y496502D01*
Y495585D01*
X112084Y494669D01*
X111167D01*
X110251Y495585D01*
Y497418D01*
X111167Y498335D01*
X230076Y505394D02*
X235574D01*
Y502645D01*
X234658Y501728D01*
X232825D01*
X231909Y502645D01*
Y505394D01*
Y503561D02*
X230076Y501728D01*
Y496230D02*
Y499895D01*
X233741Y496230D01*
X234658D01*
X235574Y497146D01*
Y498979D01*
X234658Y499895D01*
X230076Y491648D02*
X235574D01*
X232825Y494397D01*
Y490732D01*
X127720Y505394D02*
X133218D01*
Y502645D01*
X132302Y501728D01*
X130469D01*
X129553Y502645D01*
Y505394D01*
Y503561D02*
X127720Y501728D01*
X132302Y499895D02*
X133218Y498979D01*
Y497146D01*
X132302Y496230D01*
X131386D01*
X130469Y497146D01*
Y498063D01*
Y497146D01*
X129553Y496230D01*
X128637D01*
X127720Y497146D01*
Y498979D01*
X128637Y499895D01*
X127720Y494397D02*
Y492565D01*
Y493481D01*
X133218D01*
X132302Y494397D01*
X247348Y505394D02*
X252846D01*
Y502645D01*
X251930Y501728D01*
X250097D01*
X249181Y502645D01*
Y505394D01*
Y503561D02*
X247348Y501728D01*
X251930Y499895D02*
X252846Y498979D01*
Y497146D01*
X251930Y496230D01*
X251013D01*
X250097Y497146D01*
Y498063D01*
Y497146D01*
X249181Y496230D01*
X248264D01*
X247348Y497146D01*
Y498979D01*
X248264Y499895D01*
X247348Y490732D02*
Y494397D01*
X251013Y490732D01*
X251930D01*
X252846Y491648D01*
Y493481D01*
X251930Y494397D01*
X32278Y509050D02*
X37776D01*
Y506301D01*
X36860Y505384D01*
X35027D01*
X34110Y506301D01*
Y509050D01*
Y507217D02*
X32278Y505384D01*
X36860Y503551D02*
X37776Y502635D01*
Y500802D01*
X36860Y499886D01*
X35943D01*
X35027Y500802D01*
Y501719D01*
Y500802D01*
X34110Y499886D01*
X33194D01*
X32278Y500802D01*
Y502635D01*
X33194Y503551D01*
X36860Y498053D02*
X37776Y497137D01*
Y495304D01*
X36860Y494388D01*
X35943D01*
X35027Y495304D01*
Y496221D01*
Y495304D01*
X34110Y494388D01*
X33194D01*
X32278Y495304D01*
Y497137D01*
X33194Y498053D01*
X202559Y485240D02*
Y490738D01*
X205308D01*
X206224Y489822D01*
Y487989D01*
X205308Y487072D01*
X202559D01*
X204392D02*
X206224Y485240D01*
X208057Y489822D02*
X208973Y490738D01*
X210806D01*
X211723Y489822D01*
Y488905D01*
X210806Y487989D01*
X209890D01*
X210806D01*
X211723Y487072D01*
Y486156D01*
X210806Y485240D01*
X208973D01*
X208057Y486156D01*
X216304Y485240D02*
Y490738D01*
X213555Y487989D01*
X217221D01*
X34418Y559749D02*
Y555167D01*
X35335Y554251D01*
X37167D01*
X38084Y555167D01*
Y559749D01*
X43582D02*
X39916D01*
Y557000D01*
X41749Y557916D01*
X42666D01*
X43582Y557000D01*
Y555167D01*
X42666Y554251D01*
X40833D01*
X39916Y555167D01*
X155418Y559749D02*
Y555167D01*
X156335Y554251D01*
X158167D01*
X159084Y555167D01*
Y559749D01*
X164582D02*
X162749Y558833D01*
X160916Y557000D01*
Y555167D01*
X161833Y554251D01*
X163666D01*
X164582Y555167D01*
Y556084D01*
X163666Y557000D01*
X160916D01*
X276418Y559749D02*
Y555167D01*
X277334Y554251D01*
X279167D01*
X280084Y555167D01*
Y559749D01*
X281916D02*
X285582D01*
Y558833D01*
X281916Y555167D01*
Y554251D01*
X397418Y559749D02*
Y555167D01*
X398335Y554251D01*
X400167D01*
X401084Y555167D01*
Y559749D01*
X402916Y558833D02*
X403833Y559749D01*
X405665D01*
X406582Y558833D01*
Y557916D01*
X405665Y557000D01*
X406582Y556084D01*
Y555167D01*
X405665Y554251D01*
X403833D01*
X402916Y555167D01*
Y556084D01*
X403833Y557000D01*
X402916Y557916D01*
Y558833D01*
X403833Y557000D02*
X405665D01*
X371412Y505394D02*
X376910D01*
Y502645D01*
X375994Y501728D01*
X374161D01*
X373245Y502645D01*
Y505394D01*
Y503561D02*
X371412Y501728D01*
Y499895D02*
Y498063D01*
Y498979D01*
X376910D01*
X375994Y499895D01*
X371412Y492565D02*
X376910D01*
X374161Y495314D01*
Y491648D01*
X376910Y486150D02*
X375994Y487983D01*
X374161Y489815D01*
X372328D01*
X371412Y488899D01*
Y487066D01*
X372328Y486150D01*
X373245D01*
X374161Y487066D01*
Y489815D01*
X489557Y505394D02*
X495055D01*
Y502645D01*
X494139Y501728D01*
X492306D01*
X491390Y502645D01*
Y505394D01*
Y503561D02*
X489557Y501728D01*
Y499895D02*
Y498063D01*
Y498979D01*
X495055D01*
X494139Y499895D01*
X489557Y492564D02*
X495055D01*
X492306Y495313D01*
Y491648D01*
X495055Y489815D02*
Y486150D01*
X494139D01*
X490474Y489815D01*
X489557D01*
X324220Y485128D02*
Y490626D01*
X326969D01*
X327885Y489710D01*
Y487877D01*
X326969Y486960D01*
X324220D01*
X326053D02*
X327885Y485128D01*
X329718D02*
X331551D01*
X330634D01*
Y490626D01*
X329718Y489710D01*
X337049Y485128D02*
Y490626D01*
X334300Y487877D01*
X337965D01*
X339798Y489710D02*
X340715Y490626D01*
X342547D01*
X343464Y489710D01*
Y488793D01*
X342547Y487877D01*
X343464Y486960D01*
Y486044D01*
X342547Y485128D01*
X340715D01*
X339798Y486044D01*
Y486960D01*
X340715Y487877D01*
X339798Y488793D01*
Y489710D01*
X340715Y487877D02*
X342547D01*
X353774Y505394D02*
X359272D01*
Y502645D01*
X358356Y501728D01*
X356523D01*
X355607Y502645D01*
Y505394D01*
Y503561D02*
X353774Y501728D01*
X359272Y496230D02*
Y499895D01*
X356523D01*
X357439Y498063D01*
Y497146D01*
X356523Y496230D01*
X354690D01*
X353774Y497146D01*
Y498979D01*
X354690Y499895D01*
X359272Y490732D02*
X358356Y492565D01*
X356523Y494397D01*
X354690D01*
X353774Y493481D01*
Y491648D01*
X354690Y490732D01*
X355607D01*
X356523Y491648D01*
Y494397D01*
X472173Y505394D02*
X477672D01*
Y502645D01*
X476755Y501728D01*
X474922D01*
X474006Y502645D01*
Y505394D01*
Y503561D02*
X472173Y501728D01*
X477672Y496230D02*
Y499895D01*
X474922D01*
X475839Y498063D01*
Y497146D01*
X474922Y496230D01*
X473090D01*
X472173Y497146D01*
Y498979D01*
X473090Y499895D01*
X477672Y494397D02*
Y490732D01*
X476755D01*
X473090Y494397D01*
X472173D01*
X442584Y485128D02*
Y490626D01*
X445333D01*
X446249Y489710D01*
Y487877D01*
X445333Y486960D01*
X442584D01*
X444417D02*
X446249Y485128D01*
X448082D02*
X449915D01*
X448998D01*
Y490626D01*
X448082Y489710D01*
X456329Y490626D02*
X452664D01*
Y487877D01*
X454497Y488793D01*
X455413D01*
X456329Y487877D01*
Y486044D01*
X455413Y485128D01*
X453580D01*
X452664Y486044D01*
X458162Y489710D02*
X459079Y490626D01*
X460911D01*
X461828Y489710D01*
Y486044D01*
X460911Y485128D01*
X459079D01*
X458162Y486044D01*
Y489710D01*
X275007Y274739D02*
Y280237D01*
X277756D01*
X278673Y279321D01*
Y277488D01*
X277756Y276572D01*
X275007D01*
X276840D02*
X278673Y274739D01*
X280505D02*
X282338D01*
X281422D01*
Y280237D01*
X280505Y279321D01*
X285087D02*
X286004Y280237D01*
X287836D01*
X288753Y279321D01*
Y278405D01*
X287836Y277488D01*
X286920D01*
X287836D01*
X288753Y276572D01*
Y275655D01*
X287836Y274739D01*
X286004D01*
X285087Y275655D01*
X290585Y279321D02*
X291502Y280237D01*
X293335D01*
X294251Y279321D01*
Y278405D01*
X293335Y277488D01*
X294251Y276572D01*
Y275655D01*
X293335Y274739D01*
X291502D01*
X290585Y275655D01*
Y276572D01*
X291502Y277488D01*
X290585Y278405D01*
Y279321D01*
X291502Y277488D02*
X293335D01*
X275007Y263495D02*
Y268993D01*
X277756D01*
X278673Y268077D01*
Y266244D01*
X277756Y265328D01*
X275007D01*
X276840D02*
X278673Y263495D01*
X280505D02*
X282338D01*
X281422D01*
Y268993D01*
X280505Y268077D01*
X285087Y263495D02*
X286920D01*
X286004D01*
Y268993D01*
X285087Y268077D01*
X289669Y264411D02*
X290585Y263495D01*
X292418D01*
X293335Y264411D01*
Y268077D01*
X292418Y268993D01*
X290585D01*
X289669Y268077D01*
Y267160D01*
X290585Y266244D01*
X293335D01*
X275007Y285983D02*
Y291481D01*
X277756D01*
X278673Y290565D01*
Y288732D01*
X277756Y287816D01*
X275007D01*
X276840D02*
X278673Y285983D01*
X280505D02*
X282338D01*
X281422D01*
Y291481D01*
X280505Y290565D01*
X285087Y285983D02*
X286920D01*
X286004D01*
Y291481D01*
X285087Y290565D01*
X289669D02*
X290585Y291481D01*
X292418D01*
X293335Y290565D01*
Y289649D01*
X292418Y288732D01*
X293335Y287816D01*
Y286900D01*
X292418Y285983D01*
X290585D01*
X289669Y286900D01*
Y287816D01*
X290585Y288732D01*
X289669Y289649D01*
Y290565D01*
X290585Y288732D02*
X292418D01*
X655037Y438269D02*
Y443767D01*
X657786D01*
X658702Y442851D01*
Y441018D01*
X657786Y440102D01*
X655037D01*
X656870D02*
X658702Y438269D01*
X660535D02*
X662368D01*
X661452D01*
Y443767D01*
X660535Y442851D01*
X665117D02*
X666033Y443767D01*
X667866D01*
X668783Y442851D01*
Y441934D01*
X667866Y441018D01*
X666950D01*
X667866D01*
X668783Y440102D01*
Y439185D01*
X667866Y438269D01*
X666033D01*
X665117Y439185D01*
X673364Y438269D02*
Y443767D01*
X670615Y441018D01*
X674281D01*
X588662Y369371D02*
X587746Y370287D01*
X585913D01*
X584997Y369371D01*
Y365705D01*
X585913Y364789D01*
X587746D01*
X588662Y365705D01*
X590495Y369371D02*
X591412Y370287D01*
X593244D01*
X594161Y369371D01*
Y368454D01*
X593244Y367538D01*
X594161Y366622D01*
Y365705D01*
X593244Y364789D01*
X591412D01*
X590495Y365705D01*
Y366622D01*
X591412Y367538D01*
X590495Y368454D01*
Y369371D01*
X591412Y367538D02*
X593244D01*
X599659Y364789D02*
X595993D01*
X599659Y368454D01*
Y369371D01*
X598743Y370287D01*
X596910D01*
X595993Y369371D01*
X311746Y249535D02*
X310830Y250452D01*
X308997D01*
X308081Y249535D01*
Y245870D01*
X308997Y244953D01*
X310830D01*
X311746Y245870D01*
X313579Y249535D02*
X314495Y250452D01*
X316328D01*
X317244Y249535D01*
Y248619D01*
X316328Y247702D01*
X317244Y246786D01*
Y245870D01*
X316328Y244953D01*
X314495D01*
X313579Y245870D01*
Y246786D01*
X314495Y247702D01*
X313579Y248619D01*
Y249535D01*
X314495Y247702D02*
X316328D01*
X319077Y249535D02*
X319994Y250452D01*
X321826D01*
X322743Y249535D01*
Y245870D01*
X321826Y244953D01*
X319994D01*
X319077Y245870D01*
Y249535D01*
X369399Y239991D02*
X368483Y240907D01*
X366650D01*
X365734Y239991D01*
Y236325D01*
X366650Y235409D01*
X368483D01*
X369399Y236325D01*
X371232Y240907D02*
X374898D01*
Y239991D01*
X371232Y236325D01*
Y235409D01*
X376730Y236325D02*
X377647Y235409D01*
X379479D01*
X380396Y236325D01*
Y239991D01*
X379479Y240907D01*
X377647D01*
X376730Y239991D01*
Y239074D01*
X377647Y238158D01*
X380396D01*
X351111Y239991D02*
X350195Y240907D01*
X348362D01*
X347446Y239991D01*
Y236325D01*
X348362Y235409D01*
X350195D01*
X351111Y236325D01*
X352944Y240907D02*
X356610D01*
Y239991D01*
X352944Y236325D01*
Y235409D01*
X358442Y239991D02*
X359359Y240907D01*
X361191D01*
X362108Y239991D01*
Y239074D01*
X361191Y238158D01*
X362108Y237242D01*
Y236325D01*
X361191Y235409D01*
X359359D01*
X358442Y236325D01*
Y237242D01*
X359359Y238158D01*
X358442Y239074D01*
Y239991D01*
X359359Y238158D02*
X361191D01*
X311746Y239802D02*
X310830Y240718D01*
X308997D01*
X308081Y239802D01*
Y236137D01*
X308997Y235220D01*
X310830D01*
X311746Y236137D01*
X313579Y240718D02*
X317244D01*
Y239802D01*
X313579Y236137D01*
Y235220D01*
X319077Y240718D02*
X322743D01*
Y239802D01*
X319077Y236137D01*
Y235220D01*
X369653Y250232D02*
X368737Y251148D01*
X366904D01*
X365988Y250232D01*
Y246566D01*
X366904Y245650D01*
X368737D01*
X369653Y246566D01*
X371486Y251148D02*
X375152D01*
Y250232D01*
X371486Y246566D01*
Y245650D01*
X380650Y251148D02*
X378817Y250232D01*
X376984Y248399D01*
Y246566D01*
X377901Y245650D01*
X379734D01*
X380650Y246566D01*
Y247483D01*
X379734Y248399D01*
X376984D01*
X351111Y250232D02*
X350195Y251148D01*
X348362D01*
X347446Y250232D01*
Y246566D01*
X348362Y245650D01*
X350195D01*
X351111Y246566D01*
X352944Y251148D02*
X356610D01*
Y250232D01*
X352944Y246566D01*
Y245650D01*
X362108Y251148D02*
X358442D01*
Y248399D01*
X360275Y249315D01*
X361191D01*
X362108Y248399D01*
Y246566D01*
X361191Y245650D01*
X359359D01*
X358442Y246566D01*
X49084Y412749D02*
X47251D01*
X48167D01*
Y408167D01*
X47251Y407251D01*
X46335D01*
X45418Y408167D01*
X50916D02*
X51833Y407251D01*
X53665D01*
X54582Y408167D01*
Y411833D01*
X53665Y412749D01*
X51833D01*
X50916Y411833D01*
Y410916D01*
X51833Y410000D01*
X54582D01*
X108084Y412749D02*
X106251D01*
X107167D01*
Y408167D01*
X106251Y407251D01*
X105335D01*
X104418Y408167D01*
X109916Y411833D02*
X110833Y412749D01*
X112666D01*
X113582Y411833D01*
Y410916D01*
X112666Y410000D01*
X113582Y409084D01*
Y408167D01*
X112666Y407251D01*
X110833D01*
X109916Y408167D01*
Y409084D01*
X110833Y410000D01*
X109916Y410916D01*
Y411833D01*
X110833Y410000D02*
X112666D01*
X370872Y451838D02*
Y457336D01*
X373621D01*
X374537Y456420D01*
Y454587D01*
X373621Y453671D01*
X370872D01*
X372705D02*
X374537Y451838D01*
X376370Y456420D02*
X377286Y457336D01*
X379119D01*
X380035Y456420D01*
Y455504D01*
X379119Y454587D01*
X378203D01*
X379119D01*
X380035Y453671D01*
Y452754D01*
X379119Y451838D01*
X377286D01*
X376370Y452754D01*
X381868Y456420D02*
X382785Y457336D01*
X384617D01*
X385534Y456420D01*
Y455504D01*
X384617Y454587D01*
X385534Y453671D01*
Y452754D01*
X384617Y451838D01*
X382785D01*
X381868Y452754D01*
Y453671D01*
X382785Y454587D01*
X381868Y455504D01*
Y456420D01*
X382785Y454587D02*
X384617D01*
X304669Y372725D02*
Y378223D01*
X307418D01*
X308335Y377307D01*
Y375474D01*
X307418Y374558D01*
X304669D01*
X306502D02*
X308335Y372725D01*
X310167Y377307D02*
X311084Y378223D01*
X312916D01*
X313833Y377307D01*
Y376390D01*
X312916Y375474D01*
X312000D01*
X312916D01*
X313833Y374558D01*
Y373641D01*
X312916Y372725D01*
X311084D01*
X310167Y373641D01*
X315665Y377307D02*
X316582Y378223D01*
X318415D01*
X319331Y377307D01*
Y373641D01*
X318415Y372725D01*
X316582D01*
X315665Y373641D01*
Y377307D01*
X745084Y771729D02*
X743251D01*
X744167D01*
Y767147D01*
X743251Y766231D01*
X742335D01*
X741418Y767147D01*
X746916Y770813D02*
X747833Y771729D01*
X749666D01*
X750582Y770813D01*
Y769896D01*
X749666Y768980D01*
X748749D01*
X749666D01*
X750582Y768064D01*
Y767147D01*
X749666Y766231D01*
X747833D01*
X746916Y767147D01*
X137251Y718112D02*
X142749D01*
Y715363D01*
X141833Y714447D01*
X140000D01*
X139084Y715363D01*
Y718112D01*
Y716280D02*
X137251Y714447D01*
Y712614D02*
Y710781D01*
Y711698D01*
X142749D01*
X141833Y712614D01*
X137251Y705283D02*
X142749D01*
X140000Y708032D01*
Y704367D01*
X138167Y702534D02*
X137251Y701618D01*
Y699785D01*
X138167Y698869D01*
X141833D01*
X142749Y699785D01*
Y701618D01*
X141833Y702534D01*
X140916D01*
X140000Y701618D01*
Y698869D01*
X655037Y416425D02*
Y421923D01*
X657786D01*
X658702Y421007D01*
Y419174D01*
X657786Y418257D01*
X655037D01*
X656870D02*
X658702Y416425D01*
X660535D02*
X662368D01*
X661452D01*
Y421923D01*
X660535Y421007D01*
X665117D02*
X666033Y421923D01*
X667866D01*
X668783Y421007D01*
Y420090D01*
X667866Y419174D01*
X666950D01*
X667866D01*
X668783Y418257D01*
Y417341D01*
X667866Y416425D01*
X666033D01*
X665117Y417341D01*
X670615Y421007D02*
X671532Y421923D01*
X673364D01*
X674281Y421007D01*
Y420090D01*
X673364Y419174D01*
X672448D01*
X673364D01*
X674281Y418257D01*
Y417341D01*
X673364Y416425D01*
X671532D01*
X670615Y417341D01*
X655037Y394581D02*
Y400079D01*
X657786D01*
X658702Y399163D01*
Y397330D01*
X657786Y396413D01*
X655037D01*
X656870D02*
X658702Y394581D01*
X660535D02*
X662368D01*
X661452D01*
Y400079D01*
X660535Y399163D01*
X665117D02*
X666033Y400079D01*
X667866D01*
X668783Y399163D01*
Y398246D01*
X667866Y397330D01*
X666950D01*
X667866D01*
X668783Y396413D01*
Y395497D01*
X667866Y394581D01*
X666033D01*
X665117Y395497D01*
X674281Y394581D02*
X670615D01*
X674281Y398246D01*
Y399163D01*
X673364Y400079D01*
X671532D01*
X670615Y399163D01*
X655953Y372836D02*
Y378335D01*
X658702D01*
X659619Y377418D01*
Y375586D01*
X658702Y374669D01*
X655953D01*
X657786D02*
X659619Y372836D01*
X661452D02*
X663284D01*
X662368D01*
Y378335D01*
X661452Y377418D01*
X666033D02*
X666950Y378335D01*
X668783D01*
X669699Y377418D01*
Y376502D01*
X668783Y375586D01*
X667866D01*
X668783D01*
X669699Y374669D01*
Y373753D01*
X668783Y372836D01*
X666950D01*
X666033Y373753D01*
X671532Y372836D02*
X673364D01*
X672448D01*
Y378335D01*
X671532Y377418D01*
X655037Y350893D02*
Y356391D01*
X657786D01*
X658702Y355475D01*
Y353642D01*
X657786Y352725D01*
X655037D01*
X656870D02*
X658702Y350893D01*
X660535D02*
X662368D01*
X661452D01*
Y356391D01*
X660535Y355475D01*
X665117D02*
X666033Y356391D01*
X667866D01*
X668783Y355475D01*
Y354558D01*
X667866Y353642D01*
X666950D01*
X667866D01*
X668783Y352725D01*
Y351809D01*
X667866Y350893D01*
X666033D01*
X665117Y351809D01*
X670615Y355475D02*
X671532Y356391D01*
X673364D01*
X674281Y355475D01*
Y351809D01*
X673364Y350893D01*
X671532D01*
X670615Y351809D01*
Y355475D01*
X655037Y329303D02*
Y334801D01*
X657786D01*
X658702Y333885D01*
Y332052D01*
X657786Y331135D01*
X655037D01*
X656870D02*
X658702Y329303D01*
X660535D02*
X662368D01*
X661452D01*
Y334801D01*
X660535Y333885D01*
X668783Y329303D02*
X665117D01*
X668783Y332968D01*
Y333885D01*
X667866Y334801D01*
X666033D01*
X665117Y333885D01*
X670615Y330219D02*
X671532Y329303D01*
X673364D01*
X674281Y330219D01*
Y333885D01*
X673364Y334801D01*
X671532D01*
X670615Y333885D01*
Y332968D01*
X671532Y332052D01*
X674281D01*
X655037Y307459D02*
Y312957D01*
X657786D01*
X658702Y312041D01*
Y310208D01*
X657786Y309291D01*
X655037D01*
X656870D02*
X658702Y307459D01*
X660535D02*
X662368D01*
X661452D01*
Y312957D01*
X660535Y312041D01*
X668783Y307459D02*
X665117D01*
X668783Y311124D01*
Y312041D01*
X667866Y312957D01*
X666033D01*
X665117Y312041D01*
X670615D02*
X671532Y312957D01*
X673364D01*
X674281Y312041D01*
Y311124D01*
X673364Y310208D01*
X674281Y309291D01*
Y308375D01*
X673364Y307459D01*
X671532D01*
X670615Y308375D01*
Y309291D01*
X671532Y310208D01*
X670615Y311124D01*
Y312041D01*
X671532Y310208D02*
X673364D01*
X655037Y263771D02*
Y269269D01*
X657786D01*
X658702Y268353D01*
Y266520D01*
X657786Y265604D01*
X655037D01*
X656870D02*
X658702Y263771D01*
X660535D02*
X662368D01*
X661452D01*
Y269269D01*
X660535Y268353D01*
X668783Y263771D02*
X665117D01*
X668783Y267436D01*
Y268353D01*
X667866Y269269D01*
X666033D01*
X665117Y268353D01*
X670615Y269269D02*
X674281D01*
Y268353D01*
X670615Y264687D01*
Y263771D01*
X655037Y241927D02*
Y247425D01*
X657786D01*
X658702Y246509D01*
Y244676D01*
X657786Y243759D01*
X655037D01*
X656870D02*
X658702Y241927D01*
X660535D02*
X662368D01*
X661452D01*
Y247425D01*
X660535Y246509D01*
X668783Y241927D02*
X665117D01*
X668783Y245592D01*
Y246509D01*
X667866Y247425D01*
X666033D01*
X665117Y246509D01*
X674281Y247425D02*
X672448Y246509D01*
X670615Y244676D01*
Y242843D01*
X671532Y241927D01*
X673364D01*
X674281Y242843D01*
Y243759D01*
X673364Y244676D01*
X670615D01*
X654947Y285421D02*
Y290919D01*
X657696D01*
X658613Y290003D01*
Y288170D01*
X657696Y287254D01*
X654947D01*
X656780D02*
X658613Y285421D01*
X660445D02*
X662278D01*
X661362D01*
Y290919D01*
X660445Y290003D01*
X668693Y285421D02*
X665027D01*
X668693Y289086D01*
Y290003D01*
X667776Y290919D01*
X665944D01*
X665027Y290003D01*
X674191Y290919D02*
X670526D01*
Y288170D01*
X672358Y289086D01*
X673275D01*
X674191Y288170D01*
Y286337D01*
X673275Y285421D01*
X671442D01*
X670526Y286337D01*
X672251Y209610D02*
X677749D01*
Y206861D01*
X676833Y205944D01*
X675000D01*
X674084Y206861D01*
Y209610D01*
Y207777D02*
X672251Y205944D01*
Y204111D02*
Y202279D01*
Y203195D01*
X677749D01*
X676833Y204111D01*
X672251Y195864D02*
Y199530D01*
X675916Y195864D01*
X676833D01*
X677749Y196781D01*
Y198613D01*
X676833Y199530D01*
X672251Y191282D02*
X677749D01*
X675000Y194031D01*
Y190366D01*
X672415Y122040D02*
X677913D01*
Y119291D01*
X676997Y118375D01*
X675164D01*
X674248Y119291D01*
Y122040D01*
Y120207D02*
X672415Y118375D01*
Y116542D02*
Y114709D01*
Y115625D01*
X677913D01*
X676997Y116542D01*
X672415Y108294D02*
Y111960D01*
X676080Y108294D01*
X676997D01*
X677913Y109211D01*
Y111044D01*
X676997Y111960D01*
Y106462D02*
X677913Y105545D01*
Y103713D01*
X676997Y102796D01*
X676080D01*
X675164Y103713D01*
Y104629D01*
Y103713D01*
X674248Y102796D01*
X673331D01*
X672415Y103713D01*
Y105545D01*
X673331Y106462D01*
X672251Y186622D02*
X677749D01*
Y183873D01*
X676833Y182956D01*
X675000D01*
X674084Y183873D01*
Y186622D01*
Y184789D02*
X672251Y182956D01*
Y181124D02*
Y179291D01*
Y180207D01*
X677749D01*
X676833Y181124D01*
X672251Y172876D02*
Y176542D01*
X675916Y172876D01*
X676833D01*
X677749Y173793D01*
Y175625D01*
X676833Y176542D01*
X672251Y167378D02*
Y171044D01*
X675916Y167378D01*
X676833D01*
X677749Y168295D01*
Y170127D01*
X676833Y171044D01*
X655864Y220043D02*
Y225542D01*
X658613D01*
X659529Y224625D01*
Y222792D01*
X658613Y221876D01*
X655864D01*
X657696D02*
X659529Y220043D01*
X661362D02*
X663195D01*
X662278D01*
Y225542D01*
X661362Y224625D01*
X669609Y220043D02*
X665944D01*
X669609Y223709D01*
Y224625D01*
X668693Y225542D01*
X666860D01*
X665944Y224625D01*
X671442Y220043D02*
X673275D01*
X672358D01*
Y225542D01*
X671442Y224625D01*
X672251Y163622D02*
X677749D01*
Y160873D01*
X676833Y159956D01*
X675000D01*
X674084Y160873D01*
Y163622D01*
Y161789D02*
X672251Y159956D01*
Y158124D02*
Y156291D01*
Y157207D01*
X677749D01*
X676833Y158124D01*
X672251Y149876D02*
Y153542D01*
X675916Y149876D01*
X676833D01*
X677749Y150793D01*
Y152625D01*
X676833Y153542D01*
Y148044D02*
X677749Y147127D01*
Y145295D01*
X676833Y144378D01*
X673167D01*
X672251Y145295D01*
Y147127D01*
X673167Y148044D01*
X676833D01*
X275007Y252251D02*
Y257749D01*
X277756D01*
X278673Y256833D01*
Y255000D01*
X277756Y254084D01*
X275007D01*
X276840D02*
X278673Y252251D01*
X280505D02*
X282338D01*
X281422D01*
Y257749D01*
X280505Y256833D01*
X287836Y252251D02*
Y257749D01*
X285087Y255000D01*
X288753D01*
X294251Y257749D02*
X290585D01*
Y255000D01*
X292418Y255916D01*
X293335D01*
X294251Y255000D01*
Y253167D01*
X293335Y252251D01*
X291502D01*
X290585Y253167D01*
X588019Y205026D02*
Y210524D01*
X590768D01*
X591685Y209608D01*
Y207775D01*
X590768Y206859D01*
X588019D01*
X589852D02*
X591685Y205026D01*
X593517D02*
X595350D01*
X594434D01*
Y210524D01*
X593517Y209608D01*
X598099D02*
X599016Y210524D01*
X600848D01*
X601765Y209608D01*
Y208691D01*
X600848Y207775D01*
X599932D01*
X600848D01*
X601765Y206859D01*
Y205942D01*
X600848Y205026D01*
X599016D01*
X598099Y205942D01*
X607263Y210524D02*
X603597D01*
Y207775D01*
X605430Y208691D01*
X606347D01*
X607263Y207775D01*
Y205942D01*
X606347Y205026D01*
X604514D01*
X603597Y205942D01*
X744793Y294749D02*
X742960D01*
X743876D01*
Y290167D01*
X742960Y289251D01*
X742044D01*
X741127Y290167D01*
X746626Y289251D02*
X748458D01*
X747542D01*
Y294749D01*
X746626Y293833D01*
X754873Y289251D02*
X751207D01*
X754873Y292916D01*
Y293833D01*
X753956Y294749D01*
X752124D01*
X751207Y293833D01*
X366334Y362749D02*
X370000Y357251D01*
Y362749D02*
X366334Y357251D01*
X371833D02*
X373666D01*
X372749D01*
Y362749D01*
X371833Y361833D01*
X179585Y311749D02*
Y307167D01*
X180502Y306251D01*
X182334D01*
X183251Y307167D01*
Y311749D01*
X188749Y306251D02*
X185084D01*
X188749Y309916D01*
Y310833D01*
X187833Y311749D01*
X186000D01*
X185084Y310833D01*
X190582Y306251D02*
X192415D01*
X191498D01*
Y311749D01*
X190582Y310833D01*
X145127Y343749D02*
Y339167D01*
X146044Y338251D01*
X147876D01*
X148793Y339167D01*
Y343749D01*
X150625Y338251D02*
X152458D01*
X151542D01*
Y343749D01*
X150625Y342833D01*
X155207D02*
X156124Y343749D01*
X157956D01*
X158873Y342833D01*
Y341916D01*
X157956Y341000D01*
X158873Y340084D01*
Y339167D01*
X157956Y338251D01*
X156124D01*
X155207Y339167D01*
Y340084D01*
X156124Y341000D01*
X155207Y341916D01*
Y342833D01*
X156124Y341000D02*
X157956D01*
X159127Y479749D02*
Y475167D01*
X160044Y474251D01*
X161876D01*
X162793Y475167D01*
Y479749D01*
X164625Y474251D02*
X166458D01*
X165542D01*
Y479749D01*
X164625Y478833D01*
X169207Y479749D02*
X172873D01*
Y478833D01*
X169207Y475167D01*
Y474251D01*
X633127Y511749D02*
Y507167D01*
X634044Y506251D01*
X635876D01*
X636793Y507167D01*
Y511749D01*
X638625Y506251D02*
X640458D01*
X639542D01*
Y511749D01*
X638625Y510833D01*
X645956Y506251D02*
Y511749D01*
X643207Y509000D01*
X646873D01*
X572127Y511749D02*
Y507167D01*
X573044Y506251D01*
X574876D01*
X575793Y507167D01*
Y511749D01*
X577626Y506251D02*
X579458D01*
X578542D01*
Y511749D01*
X577626Y510833D01*
X582207D02*
X583124Y511749D01*
X584956D01*
X585873Y510833D01*
Y509916D01*
X584956Y509000D01*
X584040D01*
X584956D01*
X585873Y508084D01*
Y507167D01*
X584956Y506251D01*
X583124D01*
X582207Y507167D01*
X470602Y337342D02*
Y332760D01*
X471518Y331844D01*
X473351D01*
X474268Y332760D01*
Y337342D01*
X476100Y331844D02*
X477933D01*
X477017D01*
Y337342D01*
X476100Y336426D01*
X484347Y331844D02*
X480682D01*
X484347Y335509D01*
Y336426D01*
X483431Y337342D01*
X481599D01*
X480682Y336426D01*
X258418Y201749D02*
Y197167D01*
X259335Y196251D01*
X261167D01*
X262084Y197167D01*
Y201749D01*
X266665Y196251D02*
Y201749D01*
X263916Y199000D01*
X267582D01*
X83288Y671839D02*
Y667257D01*
X84205Y666341D01*
X86038D01*
X86954Y667257D01*
Y671839D01*
X88787Y670922D02*
X89703Y671839D01*
X91536D01*
X92452Y670922D01*
Y670006D01*
X91536Y669090D01*
X90619D01*
X91536D01*
X92452Y668173D01*
Y667257D01*
X91536Y666341D01*
X89703D01*
X88787Y667257D01*
X590335Y164749D02*
Y160167D01*
X591251Y159251D01*
X593084D01*
X594000Y160167D01*
Y164749D01*
X595833Y159251D02*
X597665D01*
X596749D01*
Y164749D01*
X595833Y163833D01*
X24200Y631428D02*
Y627763D01*
Y629595D01*
X18702D01*
X24200Y625930D02*
X20535D01*
X18702Y624097D01*
X20535Y622265D01*
X24200D01*
X23284Y616766D02*
X24200Y617683D01*
Y619515D01*
X23284Y620432D01*
X22368D01*
X21451Y619515D01*
Y617683D01*
X20535Y616766D01*
X19619D01*
X18702Y617683D01*
Y619515D01*
X19619Y620432D01*
X18702Y611268D02*
Y614934D01*
X22368Y611268D01*
X23284D01*
X24200Y612184D01*
Y614017D01*
X23284Y614934D01*
X618421Y170676D02*
X621087D01*
X619754D01*
Y166677D01*
X622420Y170676D02*
Y168010D01*
X623753Y166677D01*
X625086Y168010D01*
Y170676D01*
X629085Y170009D02*
X628418Y170676D01*
X627085D01*
X626419Y170009D01*
Y169343D01*
X627085Y168677D01*
X628418D01*
X629085Y168010D01*
Y167344D01*
X628418Y166677D01*
X627085D01*
X626419Y167344D01*
X630418Y166677D02*
X631750D01*
X631084D01*
Y170676D01*
X630418Y170009D01*
X242378Y243182D02*
Y248680D01*
X245127D01*
X246044Y247764D01*
Y245931D01*
X245127Y245015D01*
X242378D01*
X244211D02*
X246044Y243182D01*
X247876D02*
X249709D01*
X248793D01*
Y248680D01*
X247876Y247764D01*
X252458D02*
X253375Y248680D01*
X255207D01*
X256124Y247764D01*
Y244098D01*
X255207Y243182D01*
X253375D01*
X252458Y244098D01*
Y247764D01*
X257956Y248680D02*
X261622D01*
Y247764D01*
X257956Y244098D01*
Y243182D01*
X242378Y261978D02*
Y267476D01*
X245127D01*
X246044Y266560D01*
Y264727D01*
X245127Y263811D01*
X242378D01*
X244211D02*
X246044Y261978D01*
X247876D02*
X249709D01*
X248793D01*
Y267476D01*
X247876Y266560D01*
X252458D02*
X253375Y267476D01*
X255207D01*
X256124Y266560D01*
Y262894D01*
X255207Y261978D01*
X253375D01*
X252458Y262894D01*
Y266560D01*
X261622Y267476D02*
X259789Y266560D01*
X257956Y264727D01*
Y262894D01*
X258873Y261978D01*
X260706D01*
X261622Y262894D01*
Y263811D01*
X260706Y264727D01*
X257956D01*
X242378Y280520D02*
Y286018D01*
X245127D01*
X246044Y285102D01*
Y283269D01*
X245127Y282353D01*
X242378D01*
X244211D02*
X246044Y280520D01*
X247876D02*
X249709D01*
X248793D01*
Y286018D01*
X247876Y285102D01*
X252458D02*
X253375Y286018D01*
X255207D01*
X256124Y285102D01*
Y281436D01*
X255207Y280520D01*
X253375D01*
X252458Y281436D01*
Y285102D01*
X261622Y286018D02*
X257956D01*
Y283269D01*
X259789Y284186D01*
X260706D01*
X261622Y283269D01*
Y281436D01*
X260706Y280520D01*
X258873D01*
X257956Y281436D01*
X242378Y336808D02*
Y342307D01*
X245127D01*
X246044Y341390D01*
Y339557D01*
X245127Y338641D01*
X242378D01*
X244211D02*
X246044Y336808D01*
X247876D02*
X249709D01*
X248793D01*
Y342307D01*
X247876Y341390D01*
X252458D02*
X253375Y342307D01*
X255207D01*
X256124Y341390D01*
Y337725D01*
X255207Y336808D01*
X253375D01*
X252458Y337725D01*
Y341390D01*
X257956Y336808D02*
X259789D01*
X258873D01*
Y342307D01*
X257956Y341390D01*
X242378Y355704D02*
Y361202D01*
X245127D01*
X246044Y360286D01*
Y358453D01*
X245127Y357537D01*
X242378D01*
X244211D02*
X246044Y355704D01*
X247876D02*
X249709D01*
X248793D01*
Y361202D01*
X247876Y360286D01*
X252458D02*
X253375Y361202D01*
X255207D01*
X256124Y360286D01*
Y356620D01*
X255207Y355704D01*
X253375D01*
X252458Y356620D01*
Y360286D01*
X257956D02*
X258873Y361202D01*
X260706D01*
X261622Y360286D01*
Y356620D01*
X260706Y355704D01*
X258873D01*
X257956Y356620D01*
Y360286D01*
X242378Y299321D02*
Y304819D01*
X245127D01*
X246044Y303903D01*
Y302070D01*
X245127Y301154D01*
X242378D01*
X244211D02*
X246044Y299321D01*
X247876Y300237D02*
X248793Y299321D01*
X250625D01*
X251542Y300237D01*
Y303903D01*
X250625Y304819D01*
X248793D01*
X247876Y303903D01*
Y302986D01*
X248793Y302070D01*
X251542D01*
X253375Y300237D02*
X254291Y299321D01*
X256124D01*
X257040Y300237D01*
Y303903D01*
X256124Y304819D01*
X254291D01*
X253375Y303903D01*
Y302986D01*
X254291Y302070D01*
X257040D01*
X242378Y467977D02*
Y473475D01*
X245127D01*
X246044Y472559D01*
Y470726D01*
X245127Y469810D01*
X242378D01*
X244211D02*
X246044Y467977D01*
X247876Y468893D02*
X248793Y467977D01*
X250625D01*
X251542Y468893D01*
Y472559D01*
X250625Y473475D01*
X248793D01*
X247876Y472559D01*
Y471642D01*
X248793Y470726D01*
X251542D01*
X253375Y472559D02*
X254291Y473475D01*
X256124D01*
X257040Y472559D01*
Y471642D01*
X256124Y470726D01*
X257040Y469810D01*
Y468893D01*
X256124Y467977D01*
X254291D01*
X253375Y468893D01*
Y469810D01*
X254291Y470726D01*
X253375Y471642D01*
Y472559D01*
X254291Y470726D02*
X256124D01*
X242378Y318117D02*
Y323615D01*
X245127D01*
X246044Y322699D01*
Y320866D01*
X245127Y319950D01*
X242378D01*
X244211D02*
X246044Y318117D01*
X247876Y319033D02*
X248793Y318117D01*
X250625D01*
X251542Y319033D01*
Y322699D01*
X250625Y323615D01*
X248793D01*
X247876Y322699D01*
Y321782D01*
X248793Y320866D01*
X251542D01*
X253375Y323615D02*
X257040D01*
Y322699D01*
X253375Y319033D01*
Y318117D01*
X242378Y449435D02*
Y454933D01*
X245127D01*
X246044Y454017D01*
Y452184D01*
X245127Y451268D01*
X242378D01*
X244211D02*
X246044Y449435D01*
X247876Y450351D02*
X248793Y449435D01*
X250625D01*
X251542Y450351D01*
Y454017D01*
X250625Y454933D01*
X248793D01*
X247876Y454017D01*
Y453100D01*
X248793Y452184D01*
X251542D01*
X257040Y454933D02*
X255207Y454017D01*
X253375Y452184D01*
Y450351D01*
X254291Y449435D01*
X256124D01*
X257040Y450351D01*
Y451268D01*
X256124Y452184D01*
X253375D01*
X242378Y393047D02*
Y398545D01*
X245127D01*
X246044Y397629D01*
Y395796D01*
X245127Y394880D01*
X242378D01*
X244211D02*
X246044Y393047D01*
X247876Y393963D02*
X248793Y393047D01*
X250625D01*
X251542Y393963D01*
Y397629D01*
X250625Y398545D01*
X248793D01*
X247876Y397629D01*
Y396712D01*
X248793Y395796D01*
X251542D01*
X257040Y398545D02*
X253375D01*
Y395796D01*
X255207Y396712D01*
X256124D01*
X257040Y395796D01*
Y393963D01*
X256124Y393047D01*
X254291D01*
X253375Y393963D01*
X242378Y374251D02*
Y379749D01*
X245127D01*
X246044Y378833D01*
Y377000D01*
X245127Y376084D01*
X242378D01*
X244211D02*
X246044Y374251D01*
X247876Y375167D02*
X248793Y374251D01*
X250625D01*
X251542Y375167D01*
Y378833D01*
X250625Y379749D01*
X248793D01*
X247876Y378833D01*
Y377916D01*
X248793Y377000D01*
X251542D01*
X256124Y374251D02*
Y379749D01*
X253375Y377000D01*
X257040D01*
X242378Y411843D02*
Y417341D01*
X245127D01*
X246044Y416425D01*
Y414592D01*
X245127Y413676D01*
X242378D01*
X244211D02*
X246044Y411843D01*
X247876Y412759D02*
X248793Y411843D01*
X250625D01*
X251542Y412759D01*
Y416425D01*
X250625Y417341D01*
X248793D01*
X247876Y416425D01*
Y415508D01*
X248793Y414592D01*
X251542D01*
X253375Y416425D02*
X254291Y417341D01*
X256124D01*
X257040Y416425D01*
Y415508D01*
X256124Y414592D01*
X255207D01*
X256124D01*
X257040Y413676D01*
Y412759D01*
X256124Y411843D01*
X254291D01*
X253375Y412759D01*
X242378Y430639D02*
Y436137D01*
X245127D01*
X246044Y435221D01*
Y433388D01*
X245127Y432472D01*
X242378D01*
X244211D02*
X246044Y430639D01*
X247876Y431555D02*
X248793Y430639D01*
X250625D01*
X251542Y431555D01*
Y435221D01*
X250625Y436137D01*
X248793D01*
X247876Y435221D01*
Y434304D01*
X248793Y433388D01*
X251542D01*
X257040Y430639D02*
X253375D01*
X257040Y434304D01*
Y435221D01*
X256124Y436137D01*
X254291D01*
X253375Y435221D01*
X454769Y673948D02*
X460268D01*
Y671199D01*
X459351Y670282D01*
X457519D01*
X456602Y671199D01*
Y673948D01*
Y672115D02*
X454769Y670282D01*
X460268Y664784D02*
X459351Y666617D01*
X457519Y668449D01*
X455686D01*
X454769Y667533D01*
Y665700D01*
X455686Y664784D01*
X456602D01*
X457519Y665700D01*
Y668449D01*
X460268Y659286D02*
Y662951D01*
X457519D01*
X458435Y661118D01*
Y660202D01*
X457519Y659286D01*
X455686D01*
X454769Y660202D01*
Y662035D01*
X455686Y662951D01*
X454769Y711393D02*
X460268D01*
Y708644D01*
X459351Y707727D01*
X457519D01*
X456602Y708644D01*
Y711393D01*
Y709560D02*
X454769Y707727D01*
X460268Y702229D02*
X459351Y704062D01*
X457519Y705894D01*
X455686D01*
X454769Y704978D01*
Y703145D01*
X455686Y702229D01*
X456602D01*
X457519Y703145D01*
Y705894D01*
X454769Y697647D02*
X460268D01*
X457519Y700396D01*
Y696731D01*
X454769Y748838D02*
X460268D01*
Y746089D01*
X459351Y745172D01*
X457519D01*
X456602Y746089D01*
Y748838D01*
Y747005D02*
X454769Y745172D01*
X460268Y739674D02*
X459351Y741507D01*
X457519Y743340D01*
X455686D01*
X454769Y742423D01*
Y740591D01*
X455686Y739674D01*
X456602D01*
X457519Y740591D01*
Y743340D01*
X459351Y737841D02*
X460268Y736925D01*
Y735092D01*
X459351Y734176D01*
X458435D01*
X457519Y735092D01*
Y736009D01*
Y735092D01*
X456602Y734176D01*
X455686D01*
X454769Y735092D01*
Y736925D01*
X455686Y737841D01*
X454769Y786283D02*
X460268D01*
Y783534D01*
X459351Y782617D01*
X457519D01*
X456602Y783534D01*
Y786283D01*
Y784450D02*
X454769Y782617D01*
X460268Y777119D02*
X459351Y778952D01*
X457519Y780785D01*
X455686D01*
X454769Y779868D01*
Y778036D01*
X455686Y777119D01*
X456602D01*
X457519Y778036D01*
Y780785D01*
X454769Y771621D02*
Y775286D01*
X458435Y771621D01*
X459351D01*
X460268Y772537D01*
Y774370D01*
X459351Y775286D01*
X454769Y655225D02*
X460268D01*
Y652476D01*
X459351Y651560D01*
X457519D01*
X456602Y652476D01*
Y655225D01*
Y653392D02*
X454769Y651560D01*
X460268Y646061D02*
X459351Y647894D01*
X457519Y649727D01*
X455686D01*
X454769Y648811D01*
Y646978D01*
X455686Y646061D01*
X456602D01*
X457519Y646978D01*
Y649727D01*
X454769Y644229D02*
Y642396D01*
Y643312D01*
X460268D01*
X459351Y644229D01*
X454769Y692670D02*
X460268D01*
Y689921D01*
X459351Y689005D01*
X457519D01*
X456602Y689921D01*
Y692670D01*
Y690837D02*
X454769Y689005D01*
X460268Y683506D02*
X459351Y685339D01*
X457519Y687172D01*
X455686D01*
X454769Y686255D01*
Y684423D01*
X455686Y683506D01*
X456602D01*
X457519Y684423D01*
Y687172D01*
X459351Y681674D02*
X460268Y680757D01*
Y678925D01*
X459351Y678008D01*
X455686D01*
X454769Y678925D01*
Y680757D01*
X455686Y681674D01*
X459351D01*
X454769Y730115D02*
X460268D01*
Y727366D01*
X459351Y726450D01*
X457519D01*
X456602Y727366D01*
Y730115D01*
Y728282D02*
X454769Y726450D01*
X460268Y720952D02*
Y724617D01*
X457519D01*
X458435Y722784D01*
Y721868D01*
X457519Y720952D01*
X455686D01*
X454769Y721868D01*
Y723701D01*
X455686Y724617D01*
Y719119D02*
X454769Y718202D01*
Y716370D01*
X455686Y715453D01*
X459351D01*
X460268Y716370D01*
Y718202D01*
X459351Y719119D01*
X458435D01*
X457519Y718202D01*
Y715453D01*
X454769Y767560D02*
X460268D01*
Y764811D01*
X459351Y763895D01*
X457519D01*
X456602Y764811D01*
Y767560D01*
Y765728D02*
X454769Y763895D01*
X460268Y758397D02*
Y762062D01*
X457519D01*
X458435Y760229D01*
Y759313D01*
X457519Y758397D01*
X455686D01*
X454769Y759313D01*
Y761146D01*
X455686Y762062D01*
X459351Y756564D02*
X460268Y755648D01*
Y753815D01*
X459351Y752898D01*
X458435D01*
X457519Y753815D01*
X456602Y752898D01*
X455686D01*
X454769Y753815D01*
Y755648D01*
X455686Y756564D01*
X456602D01*
X457519Y755648D01*
X458435Y756564D01*
X459351D01*
X457519Y755648D02*
Y753815D01*
X348806Y451843D02*
Y457341D01*
X351555D01*
X352472Y456425D01*
Y454592D01*
X351555Y453676D01*
X348806D01*
X350639D02*
X352472Y451843D01*
X357053D02*
Y457341D01*
X354304Y454592D01*
X357970D01*
X363468Y457341D02*
X361635Y456425D01*
X359803Y454592D01*
Y452759D01*
X360719Y451843D01*
X362552D01*
X363468Y452759D01*
Y453676D01*
X362552Y454592D01*
X359803D01*
X304669Y408539D02*
Y414037D01*
X307418D01*
X308335Y413121D01*
Y411288D01*
X307418Y410372D01*
X304669D01*
X306502D02*
X308335Y408539D01*
X313833D02*
X310167D01*
X313833Y412204D01*
Y413121D01*
X312916Y414037D01*
X311084D01*
X310167Y413121D01*
X315665Y409455D02*
X316582Y408539D01*
X318415D01*
X319331Y409455D01*
Y413121D01*
X318415Y414037D01*
X316582D01*
X315665Y413121D01*
Y412204D01*
X316582Y411288D01*
X319331D01*
X304669Y390251D02*
Y395749D01*
X307418D01*
X308335Y394833D01*
Y393000D01*
X307418Y392084D01*
X304669D01*
X306502D02*
X308335Y390251D01*
X313833D02*
X310167D01*
X313833Y393916D01*
Y394833D01*
X312916Y395749D01*
X311084D01*
X310167Y394833D01*
X319331Y395749D02*
X317498Y394833D01*
X315665Y393000D01*
Y391167D01*
X316582Y390251D01*
X318415D01*
X319331Y391167D01*
Y392084D01*
X318415Y393000D01*
X315665D01*
X304669Y426065D02*
Y431563D01*
X307418D01*
X308335Y430647D01*
Y428814D01*
X307418Y427898D01*
X304669D01*
X306502D02*
X308335Y426065D01*
X313833D02*
X310167D01*
X313833Y429730D01*
Y430647D01*
X312916Y431563D01*
X311084D01*
X310167Y430647D01*
X319331Y431563D02*
X315665D01*
Y428814D01*
X317498Y429730D01*
X318415D01*
X319331Y428814D01*
Y426981D01*
X318415Y426065D01*
X316582D01*
X315665Y426981D01*
X18702Y698221D02*
X24200D01*
Y695472D01*
X23284Y694556D01*
X21451D01*
X20535Y695472D01*
Y698221D01*
Y696388D02*
X18702Y694556D01*
Y692723D02*
Y690890D01*
Y691806D01*
X24200D01*
X23284Y692723D01*
X19619Y688141D02*
X18702Y687225D01*
Y685392D01*
X19619Y684475D01*
X23284D01*
X24200Y685392D01*
Y687225D01*
X23284Y688141D01*
X22368D01*
X21451Y687225D01*
Y684475D01*
X137251Y677311D02*
X142749D01*
Y674562D01*
X141833Y673646D01*
X140000D01*
X139084Y674562D01*
Y677311D01*
Y675479D02*
X137251Y673646D01*
Y671813D02*
Y669980D01*
Y670897D01*
X142749D01*
X141833Y671813D01*
Y667231D02*
X142749Y666315D01*
Y664482D01*
X141833Y663566D01*
X140916D01*
X140000Y664482D01*
X139084Y663566D01*
X138167D01*
X137251Y664482D01*
Y666315D01*
X138167Y667231D01*
X139084D01*
X140000Y666315D01*
X140916Y667231D01*
X141833D01*
X140000Y666315D02*
Y664482D01*
X137251Y642009D02*
X142749D01*
Y639260D01*
X141833Y638343D01*
X140000D01*
X139084Y639260D01*
Y642009D01*
Y640176D02*
X137251Y638343D01*
Y636511D02*
Y634678D01*
Y635594D01*
X142749D01*
X141833Y636511D01*
X142749Y631929D02*
Y628263D01*
X141833D01*
X138167Y631929D01*
X137251D01*
Y753415D02*
X142749D01*
Y750666D01*
X141833Y749750D01*
X140000D01*
X139084Y750666D01*
Y753415D01*
Y751582D02*
X137251Y749750D01*
Y747917D02*
Y746084D01*
Y747001D01*
X142749D01*
X141833Y747917D01*
X142749Y739670D02*
Y743335D01*
X140000D01*
X140916Y741502D01*
Y740586D01*
X140000Y739670D01*
X138167D01*
X137251Y740586D01*
Y742419D01*
X138167Y743335D01*
X137251Y735764D02*
X142749D01*
Y733015D01*
X141833Y732098D01*
X140000D01*
X139084Y733015D01*
Y735764D01*
Y733931D02*
X137251Y732098D01*
Y730266D02*
Y728433D01*
Y729349D01*
X142749D01*
X141833Y730266D01*
X137251Y722935D02*
X142749D01*
X140000Y725684D01*
Y722018D01*
X137251Y659660D02*
X142749D01*
Y656911D01*
X141833Y655995D01*
X140000D01*
X139084Y656911D01*
Y659660D01*
Y657827D02*
X137251Y655995D01*
Y654162D02*
Y652329D01*
Y653245D01*
X142749D01*
X141833Y654162D01*
Y649580D02*
X142749Y648664D01*
Y646831D01*
X141833Y645915D01*
X140916D01*
X140000Y646831D01*
Y647747D01*
Y646831D01*
X139084Y645915D01*
X138167D01*
X137251Y646831D01*
Y648664D01*
X138167Y649580D01*
X137247Y694963D02*
X142745D01*
Y692214D01*
X141829Y691297D01*
X139996D01*
X139080Y692214D01*
Y694963D01*
Y693130D02*
X137247Y691297D01*
Y689465D02*
Y687632D01*
Y688548D01*
X142745D01*
X141829Y689465D01*
X137247Y681217D02*
Y684883D01*
X140912Y681217D01*
X141829D01*
X142745Y682134D01*
Y683966D01*
X141829Y684883D01*
X437871Y202595D02*
Y208093D01*
X440620D01*
X441537Y207177D01*
Y205344D01*
X440620Y204428D01*
X437871D01*
X439704D02*
X441537Y202595D01*
X443369Y203511D02*
X444286Y202595D01*
X446118D01*
X447035Y203511D01*
Y207177D01*
X446118Y208093D01*
X444286D01*
X443369Y207177D01*
Y206260D01*
X444286Y205344D01*
X447035D01*
X672415Y138804D02*
X677913D01*
Y136055D01*
X676997Y135139D01*
X675164D01*
X674248Y136055D01*
Y138804D01*
Y136971D02*
X672415Y135139D01*
X676997Y133306D02*
X677913Y132389D01*
Y130557D01*
X676997Y129640D01*
X676081D01*
X675164Y130557D01*
X674248Y129640D01*
X673332D01*
X672415Y130557D01*
Y132389D01*
X673332Y133306D01*
X674248D01*
X675164Y132389D01*
X676081Y133306D01*
X676997D01*
X675164Y132389D02*
Y130557D01*
X609266Y86954D02*
Y92452D01*
X612015D01*
X612932Y91536D01*
Y89703D01*
X612015Y88786D01*
X609266D01*
X611099D02*
X612932Y86954D01*
X614765Y92452D02*
X618430D01*
Y91536D01*
X614765Y87870D01*
Y86954D01*
X611835Y205026D02*
Y210524D01*
X614584D01*
X615500Y209608D01*
Y207775D01*
X614584Y206859D01*
X611835D01*
X613668D02*
X615500Y205026D01*
X620999Y210524D02*
X619166Y209608D01*
X617333Y207775D01*
Y205942D01*
X618250Y205026D01*
X620082D01*
X620999Y205942D01*
Y206859D01*
X620082Y207775D01*
X617333D01*
X555193Y205026D02*
Y210524D01*
X557942D01*
X558858Y209608D01*
Y207775D01*
X557942Y206859D01*
X555193D01*
X557026D02*
X558858Y205026D01*
X563440D02*
Y210524D01*
X560691Y207775D01*
X564357D01*
X573969Y205026D02*
Y210524D01*
X576718D01*
X577635Y209608D01*
Y207775D01*
X576718Y206859D01*
X573969D01*
X575802D02*
X577635Y205026D01*
X579467Y209608D02*
X580384Y210524D01*
X582216D01*
X583133Y209608D01*
Y208691D01*
X582216Y207775D01*
X581300D01*
X582216D01*
X583133Y206859D01*
Y205942D01*
X582216Y205026D01*
X580384D01*
X579467Y205942D01*
X649661Y205026D02*
Y210524D01*
X652410D01*
X653327Y209608D01*
Y207775D01*
X652410Y206859D01*
X649661D01*
X651494D02*
X653327Y205026D01*
X658825D02*
X655159D01*
X658825Y208691D01*
Y209608D01*
X657908Y210524D01*
X656076D01*
X655159Y209608D01*
X631647Y205026D02*
Y210524D01*
X634396D01*
X635312Y209608D01*
Y207775D01*
X634396Y206859D01*
X631647D01*
X633480D02*
X635312Y205026D01*
X637145D02*
X638978D01*
X638061D01*
Y210524D01*
X637145Y209608D01*
X370866Y660288D02*
X374531D01*
X375448Y661205D01*
Y663037D01*
X374531Y663954D01*
X370866D01*
X369949Y663037D01*
Y661205D01*
X371782Y662121D02*
X369949Y660288D01*
Y661205D02*
X370866Y660288D01*
X369949Y655706D02*
X375448D01*
X372698Y658455D01*
Y654790D01*
X370866Y695848D02*
X374531D01*
X375448Y696765D01*
Y698597D01*
X374531Y699514D01*
X370866D01*
X369949Y698597D01*
Y696765D01*
X371782Y697681D02*
X369949Y695848D01*
Y696765D02*
X370866Y695848D01*
X374531Y694015D02*
X375448Y693099D01*
Y691266D01*
X374531Y690350D01*
X373615D01*
X372698Y691266D01*
Y692183D01*
Y691266D01*
X371782Y690350D01*
X370866D01*
X369949Y691266D01*
Y693099D01*
X370866Y694015D01*
Y731408D02*
X374531D01*
X375448Y732325D01*
Y734157D01*
X374531Y735074D01*
X370866D01*
X369949Y734157D01*
Y732325D01*
X371782Y733241D02*
X369949Y731408D01*
Y732325D02*
X370866Y731408D01*
X369949Y725910D02*
Y729575D01*
X373615Y725910D01*
X374531D01*
X375448Y726826D01*
Y728659D01*
X374531Y729575D01*
X370866Y765897D02*
X374531D01*
X375448Y766814D01*
Y768646D01*
X374531Y769563D01*
X370866D01*
X369949Y768646D01*
Y766814D01*
X371782Y767730D02*
X369949Y765897D01*
Y766814D02*
X370866Y765897D01*
X369949Y764065D02*
Y762232D01*
Y763148D01*
X375448D01*
X374531Y764065D01*
X330794Y246775D02*
Y241277D01*
X334460D01*
X336292Y246775D02*
X339958D01*
Y245859D01*
X336292Y242193D01*
Y241277D01*
X352238Y165818D02*
Y171316D01*
X348573D01*
X346740D02*
X344907D01*
X345823D01*
Y165818D01*
X346740Y166734D01*
X62709Y92749D02*
X60876D01*
X61793D01*
Y88167D01*
X60876Y87251D01*
X59960D01*
X59044Y88167D01*
X64542Y87251D02*
X66375D01*
X65458D01*
Y92749D01*
X64542Y91833D01*
X69124Y87251D02*
X70956D01*
X70040D01*
Y92749D01*
X69124Y91833D01*
X47251Y386793D02*
Y384960D01*
Y385876D01*
X51833D01*
X52749Y384960D01*
Y384044D01*
X51833Y383127D01*
X52749Y388625D02*
Y390458D01*
Y389542D01*
X47251D01*
X48167Y388625D01*
Y393207D02*
X47251Y394124D01*
Y395956D01*
X48167Y396873D01*
X51833D01*
X52749Y395956D01*
Y394124D01*
X51833Y393207D01*
X48167D01*
X568797Y771725D02*
X566965D01*
X567881D01*
Y767143D01*
X566965Y766227D01*
X566048D01*
X565132Y767143D01*
X570630Y771725D02*
X574296D01*
Y770809D01*
X570630Y767143D01*
Y766227D01*
X64084Y312749D02*
X62251D01*
X63167D01*
Y308167D01*
X62251Y307251D01*
X61335D01*
X60418Y308167D01*
X69582Y312749D02*
X67749Y311833D01*
X65916Y310000D01*
Y308167D01*
X66833Y307251D01*
X68665D01*
X69582Y308167D01*
Y309084D01*
X68665Y310000D01*
X65916D01*
X258917Y771725D02*
X257085D01*
X258001D01*
Y767143D01*
X257085Y766227D01*
X256168D01*
X255252Y767143D01*
X264416Y771725D02*
X260750D01*
Y768976D01*
X262583Y769893D01*
X263499D01*
X264416Y768976D01*
Y767143D01*
X263499Y766227D01*
X261667D01*
X260750Y767143D01*
X749084Y489749D02*
X747251D01*
X748167D01*
Y485167D01*
X747251Y484251D01*
X746335D01*
X745418Y485167D01*
X753665Y484251D02*
Y489749D01*
X750916Y487000D01*
X754582D01*
X24200Y740930D02*
X18702D01*
Y738181D01*
X19619Y737264D01*
X23284D01*
X24200Y738181D01*
Y740930D01*
X23284Y735432D02*
X24200Y734515D01*
Y732683D01*
X23284Y731766D01*
X22368D01*
X21451Y732683D01*
Y733599D01*
Y732683D01*
X20535Y731766D01*
X19619D01*
X18702Y732683D01*
Y734515D01*
X19619Y735432D01*
X467418Y92749D02*
Y87251D01*
X470167D01*
X471084Y88167D01*
Y91833D01*
X470167Y92749D01*
X467418D01*
X476582Y87251D02*
X472916D01*
X476582Y90916D01*
Y91833D01*
X475666Y92749D01*
X473833D01*
X472916Y91833D01*
X567335Y91749D02*
Y86251D01*
X570084D01*
X571000Y87167D01*
Y90833D01*
X570084Y91749D01*
X567335D01*
X572833Y86251D02*
X574665D01*
X573749D01*
Y91749D01*
X572833Y90833D01*
X309198Y338736D02*
X309198Y340032D01*
X307902Y341328D01*
X306606Y341328D01*
X304014Y338736D01*
Y337440D01*
X305310Y336144D01*
X306606D01*
X307254Y334200D02*
X308550Y332904D01*
X307902Y333552D01*
X311790Y337440D01*
X310494Y337440D01*
X316973Y332256D02*
X314382Y334848D01*
X312438Y332904D01*
X314382Y332256D01*
X315030Y331608D01*
Y330312D01*
X313734Y329016D01*
X312438D01*
X311142Y330312D01*
Y331608D01*
X314382Y327072D02*
X315677Y325776D01*
X315030Y326424D01*
X318917Y330312D01*
X317621D01*
X342412Y372084D02*
X341116Y372084D01*
X339820Y370788D01*
X339820Y369492D01*
X342412Y366900D01*
X343708D01*
X345004Y368196D01*
Y369492D01*
X346948Y370140D02*
X348244Y371436D01*
X347596Y370788D01*
X343708Y374676D01*
X343708Y373380D01*
X348892Y379860D02*
X346300Y377268D01*
X348244Y375324D01*
X348892Y377268D01*
X349540Y377916D01*
X350836D01*
X352132Y376620D01*
Y375324D01*
X350836Y374028D01*
X349540D01*
X350836Y380508D02*
Y381804D01*
X352132Y383100D01*
X353428D01*
X356020Y380508D01*
Y379212D01*
X354724Y377916D01*
X353428D01*
X350836Y380508D01*
X376298Y229833D02*
X375382Y230749D01*
X373549D01*
X372633Y229833D01*
Y226167D01*
X373549Y225251D01*
X375382D01*
X376298Y226167D01*
X378131Y225251D02*
X379964D01*
X379048D01*
Y230749D01*
X378131Y229833D01*
X385462Y225251D02*
Y230749D01*
X382713Y228000D01*
X386379D01*
X391877Y230749D02*
X390044Y229833D01*
X388211Y228000D01*
Y226167D01*
X389128Y225251D01*
X390960D01*
X391877Y226167D01*
Y227084D01*
X390960Y228000D01*
X388211D01*
X607378Y235923D02*
X606461Y236839D01*
X604629D01*
X603712Y235923D01*
Y232257D01*
X604629Y231341D01*
X606461D01*
X607378Y232257D01*
X609211Y231341D02*
X611043D01*
X610127D01*
Y236839D01*
X609211Y235923D01*
X616541Y231341D02*
Y236839D01*
X613792Y234090D01*
X617458D01*
X622040Y231341D02*
Y236839D01*
X619291Y234090D01*
X622956D01*
X406270Y229833D02*
X405354Y230749D01*
X403521D01*
X402605Y229833D01*
Y226167D01*
X403521Y225251D01*
X405354D01*
X406270Y226167D01*
X408103Y225251D02*
X409936D01*
X409020D01*
Y230749D01*
X408103Y229833D01*
X412685D02*
X413601Y230749D01*
X415434D01*
X416351Y229833D01*
Y228916D01*
X415434Y228000D01*
X414518D01*
X415434D01*
X416351Y227084D01*
Y226167D01*
X415434Y225251D01*
X413601D01*
X412685Y226167D01*
X418183Y229833D02*
X419100Y230749D01*
X420932D01*
X421849Y229833D01*
Y228916D01*
X420932Y228000D01*
X421849Y227084D01*
Y226167D01*
X420932Y225251D01*
X419100D01*
X418183Y226167D01*
Y227084D01*
X419100Y228000D01*
X418183Y228916D01*
Y229833D01*
X419100Y228000D02*
X420932D01*
X574044Y235833D02*
X573127Y236749D01*
X571295D01*
X570378Y235833D01*
Y232167D01*
X571295Y231251D01*
X573127D01*
X574044Y232167D01*
X575876Y231251D02*
X577709D01*
X576793D01*
Y236749D01*
X575876Y235833D01*
X580458D02*
X581375Y236749D01*
X583207D01*
X584124Y235833D01*
Y234916D01*
X583207Y234000D01*
X582291D01*
X583207D01*
X584124Y233084D01*
Y232167D01*
X583207Y231251D01*
X581375D01*
X580458Y232167D01*
X589622Y236749D02*
X587789Y235833D01*
X585956Y234000D01*
Y232167D01*
X586873Y231251D01*
X588705D01*
X589622Y232167D01*
Y233084D01*
X588705Y234000D01*
X585956D01*
X634039Y401434D02*
X634955Y402351D01*
Y404184D01*
X634039Y405100D01*
X630373D01*
X629457Y404184D01*
Y402351D01*
X630373Y401434D01*
X629457Y399602D02*
Y397769D01*
Y398685D01*
X634955D01*
X634039Y399602D01*
X629457Y391354D02*
Y395020D01*
X633122Y391354D01*
X634039D01*
X634955Y392271D01*
Y394103D01*
X634039Y395020D01*
X630373Y389522D02*
X629457Y388605D01*
Y386772D01*
X630373Y385856D01*
X634039D01*
X634955Y386772D01*
Y388605D01*
X634039Y389522D01*
X633122D01*
X632206Y388605D01*
Y385856D01*
X394640Y456455D02*
X393723Y457371D01*
X391891D01*
X390974Y456455D01*
Y452789D01*
X391891Y451873D01*
X393723D01*
X394640Y452789D01*
X396473Y451873D02*
X398305D01*
X397389D01*
Y457371D01*
X396473Y456455D01*
X404720Y451873D02*
X401054D01*
X404720Y455538D01*
Y456455D01*
X403803Y457371D01*
X401971D01*
X401054Y456455D01*
X406553D02*
X407469Y457371D01*
X409302D01*
X410218Y456455D01*
Y455538D01*
X409302Y454622D01*
X410218Y453706D01*
Y452789D01*
X409302Y451873D01*
X407469D01*
X406553Y452789D01*
Y453706D01*
X407469Y454622D01*
X406553Y455538D01*
Y456455D01*
X407469Y454622D02*
X409302D01*
X587356Y421695D02*
X586439Y422611D01*
X584607D01*
X583690Y421695D01*
Y418029D01*
X584607Y417113D01*
X586439D01*
X587356Y418029D01*
X589188Y417113D02*
X591021D01*
X590105D01*
Y422611D01*
X589188Y421695D01*
X597436Y417113D02*
X593770D01*
X597436Y420778D01*
Y421695D01*
X596519Y422611D01*
X594687D01*
X593770Y421695D01*
X602934Y422611D02*
X601101Y421695D01*
X599268Y419862D01*
Y418029D01*
X600185Y417113D01*
X602018D01*
X602934Y418029D01*
Y418946D01*
X602018Y419862D01*
X599268D01*
X367335Y626833D02*
X366418Y627749D01*
X364585D01*
X363669Y626833D01*
Y623167D01*
X364585Y622251D01*
X366418D01*
X367335Y623167D01*
X371916Y622251D02*
Y627749D01*
X369167Y625000D01*
X372833D01*
X378331Y627749D02*
X374665D01*
Y625000D01*
X376498Y625916D01*
X377415D01*
X378331Y625000D01*
Y623167D01*
X377415Y622251D01*
X375582D01*
X374665Y623167D01*
X322674Y626833D02*
X321758Y627749D01*
X319925D01*
X319009Y626833D01*
Y623167D01*
X319925Y622251D01*
X321758D01*
X322674Y623167D01*
X327256Y622251D02*
Y627749D01*
X324507Y625000D01*
X328173D01*
X332754Y622251D02*
Y627749D01*
X330005Y625000D01*
X333671D01*
X264335Y626833D02*
X263418Y627749D01*
X261585D01*
X260669Y626833D01*
Y623167D01*
X261585Y622251D01*
X263418D01*
X264335Y623167D01*
X266167Y626833D02*
X267084Y627749D01*
X268916D01*
X269833Y626833D01*
Y625916D01*
X268916Y625000D01*
X268000D01*
X268916D01*
X269833Y624084D01*
Y623167D01*
X268916Y622251D01*
X267084D01*
X266167Y623167D01*
X271665Y626833D02*
X272582Y627749D01*
X274415D01*
X275331Y626833D01*
Y625916D01*
X274415Y625000D01*
X273498D01*
X274415D01*
X275331Y624084D01*
Y623167D01*
X274415Y622251D01*
X272582D01*
X271665Y623167D01*
X194140Y626833D02*
X193224Y627749D01*
X191391D01*
X190475Y626833D01*
Y623167D01*
X191391Y622251D01*
X193224D01*
X194140Y623167D01*
X195973Y626833D02*
X196890Y627749D01*
X198722D01*
X199639Y626833D01*
Y625916D01*
X198722Y625000D01*
X197806D01*
X198722D01*
X199639Y624084D01*
Y623167D01*
X198722Y622251D01*
X196890D01*
X195973Y623167D01*
X205137Y622251D02*
X201472D01*
X205137Y625916D01*
Y626833D01*
X204221Y627749D01*
X202388D01*
X201472Y626833D01*
X174629Y113761D02*
X175545Y114677D01*
Y116510D01*
X174629Y117427D01*
X170963D01*
X170047Y116510D01*
Y114677D01*
X170963Y113761D01*
X170047Y108263D02*
Y111928D01*
X173712Y108263D01*
X174629D01*
X175545Y109179D01*
Y111012D01*
X174629Y111928D01*
X170047Y106430D02*
Y104597D01*
Y105514D01*
X175545D01*
X174629Y106430D01*
X174833Y145207D02*
X175749Y146124D01*
Y147956D01*
X174833Y148873D01*
X171167D01*
X170251Y147956D01*
Y146124D01*
X171167Y145207D01*
X170251Y143375D02*
Y141542D01*
Y142458D01*
X175749D01*
X174833Y143375D01*
X171167Y138793D02*
X170251Y137876D01*
Y136044D01*
X171167Y135127D01*
X174833D01*
X175749Y136044D01*
Y137876D01*
X174833Y138793D01*
X173916D01*
X173000Y137876D01*
Y135127D01*
X184793Y217833D02*
X183876Y218749D01*
X182044D01*
X181127Y217833D01*
Y214167D01*
X182044Y213251D01*
X183876D01*
X184793Y214167D01*
X186625Y213251D02*
X188458D01*
X187542D01*
Y218749D01*
X186625Y217833D01*
X191207D02*
X192124Y218749D01*
X193956D01*
X194873Y217833D01*
Y216916D01*
X193956Y216000D01*
X194873Y215084D01*
Y214167D01*
X193956Y213251D01*
X192124D01*
X191207Y214167D01*
Y215084D01*
X192124Y216000D01*
X191207Y216916D01*
Y217833D01*
X192124Y216000D02*
X193956D01*
X284615Y217833D02*
X283698Y218749D01*
X281866D01*
X280949Y217833D01*
Y214167D01*
X281866Y213251D01*
X283698D01*
X284615Y214167D01*
X286448Y213251D02*
X288280D01*
X287364D01*
Y218749D01*
X286448Y217833D01*
X291029Y218749D02*
X294695D01*
Y217833D01*
X291029Y214167D01*
Y213251D01*
X23284Y677207D02*
X24200Y678124D01*
Y679956D01*
X23284Y680873D01*
X19619D01*
X18702Y679956D01*
Y678124D01*
X19619Y677207D01*
X18702Y675375D02*
Y673542D01*
Y674458D01*
X24200D01*
X23284Y675375D01*
X24200Y667127D02*
Y670793D01*
X21451D01*
X22368Y668960D01*
Y668044D01*
X21451Y667127D01*
X19619D01*
X18702Y668044D01*
Y669876D01*
X19619Y670793D01*
X23284Y714556D02*
X24200Y715472D01*
Y717305D01*
X23284Y718221D01*
X19619D01*
X18702Y717305D01*
Y715472D01*
X19619Y714556D01*
X18702Y712723D02*
Y710890D01*
Y711806D01*
X24200D01*
X23284Y712723D01*
X18702Y705392D02*
X24200D01*
X21451Y708141D01*
Y704475D01*
X23284Y769556D02*
X24200Y770472D01*
Y772305D01*
X23284Y773221D01*
X19619D01*
X18702Y772305D01*
Y770472D01*
X19619Y769556D01*
X18702Y767723D02*
Y765890D01*
Y766806D01*
X24200D01*
X23284Y767723D01*
Y763141D02*
X24200Y762225D01*
Y760392D01*
X23284Y759475D01*
X22368D01*
X21451Y760392D01*
Y761308D01*
Y760392D01*
X20535Y759475D01*
X19619D01*
X18702Y760392D01*
Y762225D01*
X19619Y763141D01*
X23284Y654556D02*
X24200Y655472D01*
Y657305D01*
X23284Y658221D01*
X19619D01*
X18702Y657305D01*
Y655472D01*
X19619Y654556D01*
X18702Y652723D02*
Y650890D01*
Y651806D01*
X24200D01*
X23284Y652723D01*
X18702Y644475D02*
Y648141D01*
X22368Y644475D01*
X23284D01*
X24200Y645392D01*
Y647225D01*
X23284Y648141D01*
X501838Y114267D02*
X502754Y115184D01*
Y117016D01*
X501838Y117933D01*
X498172D01*
X497256Y117016D01*
Y115184D01*
X498172Y114267D01*
X497256Y112435D02*
Y110602D01*
Y111518D01*
X502754D01*
X501838Y112435D01*
Y107853D02*
X502754Y106936D01*
Y105104D01*
X501838Y104187D01*
X498172D01*
X497256Y105104D01*
Y106936D01*
X498172Y107853D01*
X501838D01*
X512084Y215608D02*
X511167Y216524D01*
X509334D01*
X508418Y215608D01*
Y211942D01*
X509334Y211026D01*
X511167D01*
X512084Y211942D01*
X513916D02*
X514833Y211026D01*
X516665D01*
X517582Y211942D01*
Y215608D01*
X516665Y216524D01*
X514833D01*
X513916Y215608D01*
Y214691D01*
X514833Y213775D01*
X517582D01*
X382084Y91833D02*
X381167Y92749D01*
X379334D01*
X378418Y91833D01*
Y88167D01*
X379334Y87251D01*
X381167D01*
X382084Y88167D01*
X383916Y91833D02*
X384833Y92749D01*
X386665D01*
X387582Y91833D01*
Y90916D01*
X386665Y90000D01*
X387582Y89084D01*
Y88167D01*
X386665Y87251D01*
X384833D01*
X383916Y88167D01*
Y89084D01*
X384833Y90000D01*
X383916Y90916D01*
Y91833D01*
X384833Y90000D02*
X386665D01*
X501833Y139916D02*
X502749Y140833D01*
Y142665D01*
X501833Y143582D01*
X498167D01*
X497251Y142665D01*
Y140833D01*
X498167Y139916D01*
X502749Y134418D02*
X501833Y136251D01*
X500000Y138084D01*
X498167D01*
X497251Y137167D01*
Y135335D01*
X498167Y134418D01*
X499084D01*
X500000Y135335D01*
Y138084D01*
X472017Y207177D02*
X471100Y208093D01*
X469268D01*
X468351Y207177D01*
Y203511D01*
X469268Y202595D01*
X471100D01*
X472017Y203511D01*
X477515Y208093D02*
X473849D01*
Y205344D01*
X475682Y206260D01*
X476598D01*
X477515Y205344D01*
Y203511D01*
X476598Y202595D01*
X474766D01*
X473849Y203511D01*
X630477Y91446D02*
X629561Y92362D01*
X627728D01*
X626812Y91446D01*
Y87780D01*
X627728Y86864D01*
X629561D01*
X630477Y87780D01*
X635059Y86864D02*
Y92362D01*
X632310Y89613D01*
X635976D01*
X595172Y91446D02*
X594255Y92362D01*
X592422D01*
X591506Y91446D01*
Y87780D01*
X592422Y86864D01*
X594255D01*
X595172Y87780D01*
X597004Y91446D02*
X597921Y92362D01*
X599753D01*
X600670Y91446D01*
Y90529D01*
X599753Y89613D01*
X598837D01*
X599753D01*
X600670Y88697D01*
Y87780D01*
X599753Y86864D01*
X597921D01*
X597004Y87780D01*
X538084Y90833D02*
X537167Y91749D01*
X535335D01*
X534418Y90833D01*
Y87167D01*
X535335Y86251D01*
X537167D01*
X538084Y87167D01*
X543582Y86251D02*
X539916D01*
X543582Y89916D01*
Y90833D01*
X542665Y91749D01*
X540833D01*
X539916Y90833D01*
X654000Y91446D02*
X653084Y92362D01*
X651251D01*
X650334Y91446D01*
Y87780D01*
X651251Y86864D01*
X653084D01*
X654000Y87780D01*
X655833Y86864D02*
X657665D01*
X656749D01*
Y92362D01*
X655833Y91446D01*
X107585Y35749D02*
Y30251D01*
X110335D01*
X111251Y31167D01*
Y32084D01*
X110335Y33000D01*
X107585D01*
X110335D01*
X111251Y33916D01*
Y34833D01*
X110335Y35749D01*
X107585D01*
X113084D02*
X116749D01*
X114916D01*
Y30251D01*
X118582D02*
X120415D01*
X119498D01*
Y35749D01*
X118582Y34833D01*
D23*
X114300Y60960D02*
D03*
M02*
