G04*
G04 #@! TF.GenerationSoftware,Altium Limited,Altium Designer,25.4.2 (15)*
G04*
G04 Layer_Color=2752767*
%FSLAX44Y44*%
%MOMM*%
G71*
G04*
G04 #@! TF.SameCoordinates,0B77EEE1-2FE1-4B8D-8C77-C7101B25D961*
G04*
G04*
G04 #@! TF.FilePolarity,Positive*
G04*
G01*
G75*
%ADD20C,0.1270*%
%ADD179C,0.1693*%
D20*
X654920Y54920D02*
X657460Y60000D01*
X654920Y65080D01*
X660000Y62540D01*
X665080Y65080D01*
X662540Y60000D01*
X665080Y54920D01*
X660000Y57460D01*
X654920Y54920D01*
X184920D02*
X187460Y60000D01*
X184920Y65080D01*
X190000Y62540D01*
X195080Y65080D01*
X192540Y60000D01*
X195080Y54920D01*
X190000Y57460D01*
X184920Y54920D01*
X482460Y67460D02*
Y64920D01*
X487540D01*
Y67460D01*
X490080D01*
Y72540D01*
X487540D01*
Y75080D01*
X482460D01*
Y72540D01*
X479920D01*
Y67460D01*
X482460D01*
Y47460D02*
Y44920D01*
X487540D01*
Y47460D01*
X490080D01*
Y52540D01*
X487540D01*
Y55080D01*
X482460D01*
Y52540D01*
X479920D01*
Y47460D01*
X482460D01*
X502460Y67460D02*
Y64920D01*
X507540D01*
Y67460D01*
X510080D01*
Y72540D01*
X507540D01*
Y75080D01*
X502460D01*
Y72540D01*
X499920D01*
Y67460D01*
X502460D01*
Y47460D02*
Y44920D01*
X507540D01*
Y47460D01*
X510080D01*
Y52540D01*
X507540D01*
Y55080D01*
X502460D01*
Y52540D01*
X499920D01*
Y47460D01*
X502460D01*
X522460Y67460D02*
Y64920D01*
X527540D01*
Y67460D01*
X530080D01*
Y72540D01*
X527540D01*
Y75080D01*
X522460D01*
Y72540D01*
X519920D01*
Y67460D01*
X522460D01*
Y47460D02*
Y44920D01*
X527540D01*
Y47460D01*
X530080D01*
Y52540D01*
X527540D01*
Y55080D01*
X522460D01*
Y52540D01*
X519920D01*
Y47460D01*
X522460D01*
X542460Y67460D02*
Y64920D01*
X547540D01*
Y67460D01*
X550080D01*
Y72540D01*
X547540D01*
Y75080D01*
X542460D01*
Y72540D01*
X539920D01*
Y67460D01*
X542460D01*
Y47460D02*
Y44920D01*
X547540D01*
Y47460D01*
X550080D01*
Y52540D01*
X547540D01*
Y55080D01*
X542460D01*
Y52540D01*
X539920D01*
Y47460D01*
X542460D01*
X562460Y67460D02*
Y64920D01*
X567540D01*
Y67460D01*
X570080D01*
Y72540D01*
X567540D01*
Y75080D01*
X562460D01*
Y72540D01*
X559920D01*
Y67460D01*
X562460D01*
Y47460D02*
Y44920D01*
X567540D01*
Y47460D01*
X570080D01*
Y52540D01*
X567540D01*
Y55080D01*
X562460D01*
Y52540D01*
X559920D01*
Y47460D01*
X562460D01*
X442460D02*
Y44920D01*
X447540D01*
Y47460D01*
X450080D01*
Y52540D01*
X447540D01*
Y55080D01*
X442460D01*
Y52540D01*
X439920D01*
Y47460D01*
X442460D01*
Y67460D02*
Y64920D01*
X447540D01*
Y67460D01*
X450080D01*
Y72540D01*
X447540D01*
Y75080D01*
X442460D01*
Y72540D01*
X439920D01*
Y67460D01*
X442460D01*
X402460Y47460D02*
Y44920D01*
X407540D01*
Y47460D01*
X410080D01*
Y52540D01*
X407540D01*
Y55080D01*
X402460D01*
Y52540D01*
X399920D01*
Y47460D01*
X402460D01*
Y67460D02*
Y64920D01*
X407540D01*
Y67460D01*
X410080D01*
Y72540D01*
X407540D01*
Y75080D01*
X402460D01*
Y72540D01*
X399920D01*
Y67460D01*
X402460D01*
X362460Y47460D02*
Y44920D01*
X367540D01*
Y47460D01*
X370080D01*
Y52540D01*
X367540D01*
Y55080D01*
X362460D01*
Y52540D01*
X359920D01*
Y47460D01*
X362460D01*
Y67460D02*
Y64920D01*
X367540D01*
Y67460D01*
X370080D01*
Y72540D01*
X367540D01*
Y75080D01*
X362460D01*
Y72540D01*
X359920D01*
Y67460D01*
X362460D01*
X282460Y47460D02*
Y44920D01*
X287540D01*
Y47460D01*
X290080D01*
Y52540D01*
X287540D01*
Y55080D01*
X282460D01*
Y52540D01*
X279920D01*
Y47460D01*
X282460D01*
Y67460D02*
Y64920D01*
X287540D01*
Y67460D01*
X290080D01*
Y72540D01*
X287540D01*
Y75080D01*
X282460D01*
Y72540D01*
X279920D01*
Y67460D01*
X282460D01*
X222460Y47460D02*
Y44920D01*
X227540D01*
Y47460D01*
X230080D01*
Y52540D01*
X227540D01*
Y55080D01*
X222460D01*
Y52540D01*
X219920D01*
Y47460D01*
X222460D01*
X242460D02*
Y44920D01*
X247540D01*
Y47460D01*
X250080D01*
Y52540D01*
X247540D01*
Y55080D01*
X242460D01*
Y52540D01*
X239920D01*
Y47460D01*
X242460D01*
Y67460D02*
Y64920D01*
X247540D01*
Y67460D01*
X250080D01*
Y72540D01*
X247540D01*
Y75080D01*
X242460D01*
Y72540D01*
X239920D01*
Y67460D01*
X242460D01*
X302460Y47460D02*
Y44920D01*
X307540D01*
Y47460D01*
X310080D01*
Y52540D01*
X307540D01*
Y55080D01*
X302460D01*
Y52540D01*
X299920D01*
Y47460D01*
X302460D01*
Y67460D02*
Y64920D01*
X307540D01*
Y67460D01*
X310080D01*
Y72540D01*
X307540D01*
Y75080D01*
X302460D01*
Y72540D01*
X299920D01*
Y67460D01*
X302460D01*
X322460D02*
Y64920D01*
X327540D01*
Y67460D01*
X330080D01*
Y72540D01*
X327540D01*
Y75080D01*
X322460D01*
Y72540D01*
X319920D01*
Y67460D01*
X322460D01*
Y47460D02*
Y44920D01*
X327540D01*
Y47460D01*
X330080D01*
Y52540D01*
X327540D01*
Y55080D01*
X322460D01*
Y52540D01*
X319920D01*
Y47460D01*
X322460D01*
X382460D02*
Y44920D01*
X387540D01*
Y47460D01*
X390080D01*
Y52540D01*
X387540D01*
Y55080D01*
X382460D01*
Y52540D01*
X379920D01*
Y47460D01*
X382460D01*
Y67460D02*
Y64920D01*
X387540D01*
Y67460D01*
X390080D01*
Y72540D01*
X387540D01*
Y75080D01*
X382460D01*
Y72540D01*
X379920D01*
Y67460D01*
X382460D01*
X422460Y47460D02*
Y44920D01*
X427540D01*
Y47460D01*
X430080D01*
Y52540D01*
X427540D01*
Y55080D01*
X422460D01*
Y52540D01*
X419920D01*
Y47460D01*
X422460D01*
Y67460D02*
Y64920D01*
X427540D01*
Y67460D01*
X430080D01*
Y72540D01*
X427540D01*
Y75080D01*
X422460D01*
Y72540D01*
X419920D01*
Y67460D01*
X422460D01*
X342460Y47460D02*
Y44920D01*
X347540D01*
Y47460D01*
X350080D01*
Y52540D01*
X347540D01*
Y55080D01*
X342460D01*
Y52540D01*
X339920D01*
Y47460D01*
X342460D01*
Y67460D02*
Y64920D01*
X347540D01*
Y67460D01*
X350080D01*
Y72540D01*
X347540D01*
Y75080D01*
X342460D01*
Y72540D01*
X339920D01*
Y67460D01*
X342460D01*
X222460D02*
Y64920D01*
X227540D01*
Y67460D01*
X230080D01*
Y72540D01*
X227540D01*
Y75080D01*
X222460D01*
Y72540D01*
X219920D01*
Y67460D01*
X222460D01*
X262460Y47460D02*
Y44920D01*
X267540D01*
Y47460D01*
X270080D01*
Y52540D01*
X267540D01*
Y55080D01*
X262460D01*
Y52540D01*
X259920D01*
Y47460D01*
X262460D01*
Y67460D02*
Y64920D01*
X267540D01*
Y67460D01*
X270080D01*
Y72540D01*
X267540D01*
Y75080D01*
X262460D01*
Y72540D01*
X259920D01*
Y67460D01*
X262460D01*
X622460D02*
Y64920D01*
X627540D01*
Y67460D01*
X630080D01*
Y72540D01*
X627540D01*
Y75080D01*
X622460D01*
Y72540D01*
X619920D01*
Y67460D01*
X622460D01*
X602460D02*
Y64920D01*
X607540D01*
Y67460D01*
X610080D01*
Y72540D01*
X607540D01*
Y75080D01*
X602460D01*
Y72540D01*
X599920D01*
Y67460D01*
X602460D01*
X582460D02*
Y64920D01*
X587540D01*
Y67460D01*
X590080D01*
Y72540D01*
X587540D01*
Y75080D01*
X582460D01*
Y72540D01*
X579920D01*
Y67460D01*
X582460D01*
X462460D02*
Y64920D01*
X467540D01*
Y67460D01*
X470080D01*
Y72540D01*
X467540D01*
Y75080D01*
X462460D01*
Y72540D01*
X459920D01*
Y67460D01*
X462460D01*
X622460Y47460D02*
Y44920D01*
X627540D01*
Y47460D01*
X630080D01*
Y52540D01*
X627540D01*
Y55080D01*
X622460D01*
Y52540D01*
X619920D01*
Y47460D01*
X622460D01*
X602460D02*
Y44920D01*
X607540D01*
Y47460D01*
X610080D01*
Y52540D01*
X607540D01*
Y55080D01*
X602460D01*
Y52540D01*
X599920D01*
Y47460D01*
X602460D01*
X582460D02*
Y44920D01*
X587540D01*
Y47460D01*
X590080D01*
Y52540D01*
X587540D01*
Y55080D01*
X582460D01*
Y52540D01*
X579920D01*
Y47460D01*
X582460D01*
X462460D02*
Y44920D01*
X467540D01*
Y47460D01*
X470080D01*
Y52540D01*
X467540D01*
Y55080D01*
X462460D01*
Y52540D01*
X459920D01*
Y47460D01*
X462460D01*
X732220Y261120D02*
X734760D01*
X737300Y263660D01*
X739840Y261120D01*
X742380D01*
Y263660D01*
X739840Y266200D01*
X742380Y268740D01*
Y271280D01*
X739840D01*
X737300Y268740D01*
X734760Y271280D01*
X732220D01*
Y268740D01*
X734760Y266200D01*
X732220Y263660D01*
Y261120D01*
Y235720D02*
X734760D01*
X737300Y238260D01*
X739840Y235720D01*
X742380D01*
Y238260D01*
X739840Y240800D01*
X742380Y243340D01*
Y245880D01*
X739840D01*
X737300Y243340D01*
X734760Y245880D01*
X732220D01*
Y243340D01*
X734760Y240800D01*
X732220Y238260D01*
Y235720D01*
X757620D02*
X760160D01*
X762700Y238260D01*
X765240Y235720D01*
X767780D01*
Y238260D01*
X765240Y240800D01*
X767780Y243340D01*
Y245880D01*
X765240D01*
X762700Y243340D01*
X760160Y245880D01*
X757620D01*
Y243340D01*
X760160Y240800D01*
X757620Y238260D01*
Y235720D01*
X732220Y210320D02*
X734760D01*
X737300Y212860D01*
X739840Y210320D01*
X742380D01*
Y212860D01*
X739840Y215400D01*
X742380Y217940D01*
Y220480D01*
X739840D01*
X737300Y217940D01*
X734760Y220480D01*
X732220D01*
Y217940D01*
X734760Y215400D01*
X732220Y212860D01*
Y210320D01*
X757620D02*
X760160D01*
X762700Y212860D01*
X765240Y210320D01*
X767780D01*
Y212860D01*
X765240Y215400D01*
X767780Y217940D01*
Y220480D01*
X765240D01*
X762700Y217940D01*
X760160Y220480D01*
X757620D01*
Y217940D01*
X760160Y215400D01*
X757620Y212860D01*
Y210320D01*
X732220Y184920D02*
X734760D01*
X737300Y187460D01*
X739840Y184920D01*
X742380D01*
Y187460D01*
X739840Y190000D01*
X742380Y192540D01*
Y195080D01*
X739840D01*
X737300Y192540D01*
X734760Y195080D01*
X732220D01*
Y192540D01*
X734760Y190000D01*
X732220Y187460D01*
Y184920D01*
X757620D02*
X760160D01*
X762700Y187460D01*
X765240Y184920D01*
X767780D01*
Y187460D01*
X765240Y190000D01*
X767780Y192540D01*
Y195080D01*
X765240D01*
X762700Y192540D01*
X760160Y195080D01*
X757620D01*
Y192540D01*
X760160Y190000D01*
X757620Y187460D01*
Y184920D01*
X732220Y159520D02*
X734760D01*
X737300Y162060D01*
X739840Y159520D01*
X742380D01*
Y162060D01*
X739840Y164600D01*
X742380Y167140D01*
Y169680D01*
X739840D01*
X737300Y167140D01*
X734760Y169680D01*
X732220D01*
Y167140D01*
X734760Y164600D01*
X732220Y162060D01*
Y159520D01*
X757620D02*
X760160D01*
X762700Y162060D01*
X765240Y159520D01*
X767780D01*
Y162060D01*
X765240Y164600D01*
X767780Y167140D01*
Y169680D01*
X765240D01*
X762700Y167140D01*
X760160Y169680D01*
X757620D01*
Y167140D01*
X760160Y164600D01*
X757620Y162060D01*
Y159520D01*
Y261120D02*
X760160D01*
X762700Y263660D01*
X765240Y261120D01*
X767780D01*
Y263660D01*
X765240Y266200D01*
X767780Y268740D01*
Y271280D01*
X765240D01*
X762700Y268740D01*
X760160Y271280D01*
X757620D01*
Y268740D01*
X760160Y266200D01*
X757620Y263660D01*
Y261120D01*
X732220Y108720D02*
X734760D01*
X737300Y111260D01*
X739840Y108720D01*
X742380D01*
Y111260D01*
X739840Y113800D01*
X742380Y116340D01*
Y118880D01*
X739840D01*
X737300Y116340D01*
X734760Y118880D01*
X732220D01*
Y116340D01*
X734760Y113800D01*
X732220Y111260D01*
Y108720D01*
Y134120D02*
X734760D01*
X737300Y136660D01*
X739840Y134120D01*
X742380D01*
Y136660D01*
X739840Y139200D01*
X742380Y141740D01*
Y144280D01*
X739840D01*
X737300Y141740D01*
X734760Y144280D01*
X732220D01*
Y141740D01*
X734760Y139200D01*
X732220Y136660D01*
Y134120D01*
X757620Y108720D02*
X760160D01*
X762700Y111260D01*
X765240Y108720D01*
X767780D01*
Y111260D01*
X765240Y113800D01*
X767780Y116340D01*
Y118880D01*
X765240D01*
X762700Y116340D01*
X760160Y118880D01*
X757620D01*
Y116340D01*
X760160Y113800D01*
X757620Y111260D01*
Y108720D01*
Y134120D02*
X760160D01*
X762700Y136660D01*
X765240Y134120D01*
X767780D01*
Y136660D01*
X765240Y139200D01*
X767780Y141740D01*
Y144280D01*
X765240D01*
X762700Y141740D01*
X760160Y144280D01*
X757620D01*
Y141740D01*
X760160Y139200D01*
X757620Y136660D01*
Y134120D01*
X436540Y142080D02*
X441620Y147160D01*
X446700Y142080D01*
X441620Y137000D01*
X436540Y142080D01*
Y129080D02*
X441620Y134160D01*
X446700Y129080D01*
X441620Y124000D01*
X436540Y129080D01*
X410540Y142080D02*
X415620Y147160D01*
X420700Y142080D01*
X415620Y137000D01*
X410540Y142080D01*
Y129080D02*
X415620Y134160D01*
X420700Y129080D01*
X415620Y124000D01*
X410540Y129080D01*
X397540Y142080D02*
X402620Y147160D01*
X407700Y142080D01*
X402620Y137000D01*
X397540Y142080D01*
Y129080D02*
X402620Y134160D01*
X407700Y129080D01*
X402620Y124000D01*
X397540Y129080D01*
X110236Y130048D02*
Y140208D01*
X120396D01*
Y130048D01*
X110236D01*
Y155448D02*
Y165608D01*
X120396D01*
Y155448D01*
X110236D01*
Y104648D02*
Y114808D01*
X120396D01*
Y104648D01*
X110236D01*
Y183436D02*
Y193596D01*
X120396D01*
Y183436D01*
X110236D01*
Y208836D02*
Y218996D01*
X120396D01*
Y208836D01*
X110236D01*
Y234236D02*
Y244396D01*
X120396D01*
Y234236D01*
X110236D01*
Y285036D02*
Y295196D01*
X120396D01*
Y285036D01*
X110236D01*
Y259636D02*
Y269796D01*
X120396D01*
Y259636D01*
X110236D01*
X36000Y30920D02*
X30920Y41080D01*
X41080D01*
X36000Y30920D01*
Y54170D02*
X38540Y56710D01*
X41080D01*
X38540Y59250D01*
X41080Y61790D01*
X38540D01*
X36000Y64330D01*
X33460Y61790D01*
X30920D01*
X33460Y59250D01*
X30920Y56710D01*
X33460D01*
X36000Y54170D01*
X12750Y30920D02*
X15290Y33460D01*
X17830D01*
X15290Y36000D01*
X17830Y38540D01*
X15290D01*
X12750Y41080D01*
X10210Y38540D01*
X7670D01*
X10210Y36000D01*
X7670Y33460D01*
X10210D01*
X12750Y30920D01*
X36000Y8060D02*
X38540Y10600D01*
X41080D01*
X38540Y13140D01*
X41080Y15680D01*
X38540D01*
X36000Y18220D01*
X33460Y15680D01*
X30920D01*
X33460Y13140D01*
X30920Y10600D01*
X33460D01*
X36000Y8060D01*
X59250Y30920D02*
X61790Y33460D01*
X64330D01*
X61790Y36000D01*
X64330Y38540D01*
X61790D01*
X59250Y41080D01*
X56710Y38540D01*
X54170D01*
X56710Y36000D01*
X54170Y33460D01*
X56710D01*
X59250Y30920D01*
X52440Y47360D02*
X54980Y49900D01*
X57520D01*
X54980Y52440D01*
X57520Y54980D01*
X54980D01*
X52440Y57520D01*
X49900Y54980D01*
X47360D01*
X49900Y52440D01*
X47360Y49900D01*
X49900D01*
X52440Y47360D01*
X19560Y14480D02*
X22100Y17020D01*
X24640D01*
X22100Y19560D01*
X24640Y22100D01*
X22100D01*
X19560Y24640D01*
X17020Y22100D01*
X14480D01*
X17020Y19560D01*
X14480Y17020D01*
X17020D01*
X19560Y14480D01*
X52440D02*
X54980Y17020D01*
X57520D01*
X54980Y19560D01*
X57520Y22100D01*
X54980D01*
X52440Y24640D01*
X49900Y22100D01*
X47360D01*
X49900Y19560D01*
X47360Y17020D01*
X49900D01*
X52440Y14480D01*
X19560Y47360D02*
X22100Y49900D01*
X24640D01*
X22100Y52440D01*
X24640Y54980D01*
X22100D01*
X19560Y57520D01*
X17020Y54980D01*
X14480D01*
X17020Y52440D01*
X14480Y49900D01*
X17020D01*
X19560Y47360D01*
Y825360D02*
X22100Y827900D01*
X24640D01*
X22100Y830440D01*
X24640Y832980D01*
X22100D01*
X19560Y835520D01*
X17020Y832980D01*
X14480D01*
X17020Y830440D01*
X14480Y827900D01*
X17020D01*
X19560Y825360D01*
X52440Y792480D02*
X54980Y795020D01*
X57520D01*
X54980Y797560D01*
X57520Y800100D01*
X54980D01*
X52440Y802640D01*
X49900Y800100D01*
X47360D01*
X49900Y797560D01*
X47360Y795020D01*
X49900D01*
X52440Y792480D01*
X19560D02*
X22100Y795020D01*
X24640D01*
X22100Y797560D01*
X24640Y800100D01*
X22100D01*
X19560Y802640D01*
X17020Y800100D01*
X14480D01*
X17020Y797560D01*
X14480Y795020D01*
X17020D01*
X19560Y792480D01*
X52440Y825360D02*
X54980Y827900D01*
X57520D01*
X54980Y830440D01*
X57520Y832980D01*
X54980D01*
X52440Y835520D01*
X49900Y832980D01*
X47360D01*
X49900Y830440D01*
X47360Y827900D01*
X49900D01*
X52440Y825360D01*
X59250Y808920D02*
X61790Y811460D01*
X64330D01*
X61790Y814000D01*
X64330Y816540D01*
X61790D01*
X59250Y819080D01*
X56710Y816540D01*
X54170D01*
X56710Y814000D01*
X54170Y811460D01*
X56710D01*
X59250Y808920D01*
X36000Y786060D02*
X38540Y788600D01*
X41080D01*
X38540Y791140D01*
X41080Y793680D01*
X38540D01*
X36000Y796220D01*
X33460Y793680D01*
X30920D01*
X33460Y791140D01*
X30920Y788600D01*
X33460D01*
X36000Y786060D01*
X12750Y808920D02*
X15290Y811460D01*
X17830D01*
X15290Y814000D01*
X17830Y816540D01*
X15290D01*
X12750Y819080D01*
X10210Y816540D01*
X7670D01*
X10210Y814000D01*
X7670Y811460D01*
X10210D01*
X12750Y808920D01*
X36000Y832170D02*
X38540Y834710D01*
X41080D01*
X38540Y837250D01*
X41080Y839790D01*
X38540D01*
X36000Y842330D01*
X33460Y839790D01*
X30920D01*
X33460Y837250D01*
X30920Y834710D01*
X33460D01*
X36000Y832170D01*
Y808920D02*
X30920Y819080D01*
X41080D01*
X36000Y808920D01*
X814000D02*
X808920Y819080D01*
X819080D01*
X814000Y808920D01*
Y832170D02*
X816540Y834710D01*
X819080D01*
X816540Y837250D01*
X819080Y839790D01*
X816540D01*
X814000Y842330D01*
X811460Y839790D01*
X808920D01*
X811460Y837250D01*
X808920Y834710D01*
X811460D01*
X814000Y832170D01*
X790750Y808920D02*
X793290Y811460D01*
X795830D01*
X793290Y814000D01*
X795830Y816540D01*
X793290D01*
X790750Y819080D01*
X788210Y816540D01*
X785670D01*
X788210Y814000D01*
X785670Y811460D01*
X788210D01*
X790750Y808920D01*
X814000Y786060D02*
X816540Y788600D01*
X819080D01*
X816540Y791140D01*
X819080Y793680D01*
X816540D01*
X814000Y796220D01*
X811460Y793680D01*
X808920D01*
X811460Y791140D01*
X808920Y788600D01*
X811460D01*
X814000Y786060D01*
X837250Y808920D02*
X839790Y811460D01*
X842330D01*
X839790Y814000D01*
X842330Y816540D01*
X839790D01*
X837250Y819080D01*
X834710Y816540D01*
X832170D01*
X834710Y814000D01*
X832170Y811460D01*
X834710D01*
X837250Y808920D01*
X830440Y825360D02*
X832980Y827900D01*
X835520D01*
X832980Y830440D01*
X835520Y832980D01*
X832980D01*
X830440Y835520D01*
X827900Y832980D01*
X825360D01*
X827900Y830440D01*
X825360Y827900D01*
X827900D01*
X830440Y825360D01*
X797560Y792480D02*
X800100Y795020D01*
X802640D01*
X800100Y797560D01*
X802640Y800100D01*
X800100D01*
X797560Y802640D01*
X795020Y800100D01*
X792480D01*
X795020Y797560D01*
X792480Y795020D01*
X795020D01*
X797560Y792480D01*
X830440D02*
X832980Y795020D01*
X835520D01*
X832980Y797560D01*
X835520Y800100D01*
X832980D01*
X830440Y802640D01*
X827900Y800100D01*
X825360D01*
X827900Y797560D01*
X825360Y795020D01*
X827900D01*
X830440Y792480D01*
X797560Y825360D02*
X800100Y827900D01*
X802640D01*
X800100Y830440D01*
X802640Y832980D01*
X800100D01*
X797560Y835520D01*
X795020Y832980D01*
X792480D01*
X795020Y830440D01*
X792480Y827900D01*
X795020D01*
X797560Y825360D01*
Y47360D02*
X800100Y49900D01*
X802640D01*
X800100Y52440D01*
X802640Y54980D01*
X800100D01*
X797560Y57520D01*
X795020Y54980D01*
X792480D01*
X795020Y52440D01*
X792480Y49900D01*
X795020D01*
X797560Y47360D01*
X830440Y14480D02*
X832980Y17020D01*
X835520D01*
X832980Y19560D01*
X835520Y22100D01*
X832980D01*
X830440Y24640D01*
X827900Y22100D01*
X825360D01*
X827900Y19560D01*
X825360Y17020D01*
X827900D01*
X830440Y14480D01*
X797560D02*
X800100Y17020D01*
X802640D01*
X800100Y19560D01*
X802640Y22100D01*
X800100D01*
X797560Y24640D01*
X795020Y22100D01*
X792480D01*
X795020Y19560D01*
X792480Y17020D01*
X795020D01*
X797560Y14480D01*
X830440Y47360D02*
X832980Y49900D01*
X835520D01*
X832980Y52440D01*
X835520Y54980D01*
X832980D01*
X830440Y57520D01*
X827900Y54980D01*
X825360D01*
X827900Y52440D01*
X825360Y49900D01*
X827900D01*
X830440Y47360D01*
X837250Y30920D02*
X839790Y33460D01*
X842330D01*
X839790Y36000D01*
X842330Y38540D01*
X839790D01*
X837250Y41080D01*
X834710Y38540D01*
X832170D01*
X834710Y36000D01*
X832170Y33460D01*
X834710D01*
X837250Y30920D01*
X814000Y8060D02*
X816540Y10600D01*
X819080D01*
X816540Y13140D01*
X819080Y15680D01*
X816540D01*
X814000Y18220D01*
X811460Y15680D01*
X808920D01*
X811460Y13140D01*
X808920Y10600D01*
X811460D01*
X814000Y8060D01*
X790750Y30920D02*
X793290Y33460D01*
X795830D01*
X793290Y36000D01*
X795830Y38540D01*
X793290D01*
X790750Y41080D01*
X788210Y38540D01*
X785670D01*
X788210Y36000D01*
X785670Y33460D01*
X788210D01*
X790750Y30920D01*
X814000Y54170D02*
X816540Y56710D01*
X819080D01*
X816540Y59250D01*
X819080Y61790D01*
X816540D01*
X814000Y64330D01*
X811460Y61790D01*
X808920D01*
X811460Y59250D01*
X808920Y56710D01*
X811460D01*
X814000Y54170D01*
Y30920D02*
X808920Y41080D01*
X819080D01*
X814000Y30920D01*
X125637Y588963D02*
X130716Y594043D01*
X135796Y588963D01*
X130716Y583882D01*
X125637Y588963D01*
X368599Y588179D02*
X373679Y593259D01*
X378759Y588179D01*
X373679Y583099D01*
X368599Y588179D01*
X480060Y599660D02*
X485140Y604740D01*
X490220Y599660D01*
X485140Y594580D01*
X480060Y599660D01*
X240742Y599709D02*
X245822Y604789D01*
X250902Y599709D01*
X245822Y594629D01*
X240742Y599709D01*
X245294Y587750D02*
X250374Y592830D01*
X255454Y587750D01*
X250374Y582670D01*
X245294Y587750D01*
X486922Y587185D02*
X492002Y592265D01*
X497082Y587185D01*
X492002Y582105D01*
X486922Y587185D01*
X363918Y599156D02*
X368998Y604236D01*
X374078Y599156D01*
X368998Y594076D01*
X363918Y599156D01*
X286004Y448897D02*
X291084Y453977D01*
X296164Y448897D01*
X291084Y443817D01*
X286004Y448897D01*
X351282Y499190D02*
X356362Y504270D01*
X361442Y499190D01*
X356362Y494110D01*
X351282Y499190D01*
X124968Y603470D02*
X130048Y608550D01*
X135128Y603470D01*
X130048Y598390D01*
X124968Y603470D01*
X436880Y178399D02*
X441960Y183479D01*
X447040Y178399D01*
X441960Y173319D01*
X436880Y178399D01*
X528048Y191177D02*
X533128Y196257D01*
X538208Y191177D01*
X533128Y186097D01*
X528048Y191177D01*
X538462D02*
X543542Y196257D01*
X548622Y191177D01*
X543542Y186097D01*
X538462Y191177D01*
X384228Y142080D02*
X389308Y147160D01*
X394388Y142080D01*
X389308Y137000D01*
X384228Y142080D01*
X510752Y87842D02*
X515832Y92922D01*
X520912Y87842D01*
X515832Y82762D01*
X510752Y87842D01*
X612772Y334550D02*
X617852Y339630D01*
X622932Y334550D01*
X617852Y329470D01*
X612772Y334550D01*
X621850Y340919D02*
X626930Y345999D01*
X632010Y340919D01*
X626930Y335839D01*
X621850Y340919D01*
X607468Y347288D02*
X612548Y352368D01*
X617628Y347288D01*
X612548Y342208D01*
X607468Y347288D01*
X622731Y369550D02*
X627811Y374630D01*
X632891Y369550D01*
X627811Y364470D01*
X622731Y369550D01*
X607073Y364500D02*
X612153Y369580D01*
X617233Y364500D01*
X612153Y359420D01*
X607073Y364500D01*
X588772Y369450D02*
X593852Y374530D01*
X598932Y369450D01*
X593852Y364370D01*
X588772Y369450D01*
X594490Y374500D02*
X599570Y379580D01*
X604650Y374500D01*
X599570Y369420D01*
X594490Y374500D01*
X538734Y329184D02*
X543814Y334264D01*
X548894Y329184D01*
X543814Y324104D01*
X538734Y329184D01*
X630727Y438698D02*
X635807Y443778D01*
X640887Y438698D01*
X635807Y433618D01*
X630727Y438698D01*
X579120Y445770D02*
X584200Y450850D01*
X589280Y445770D01*
X584200Y440690D01*
X579120Y445770D01*
X533400Y379500D02*
X538480Y384580D01*
X543560Y379500D01*
X538480Y374420D01*
X533400Y379500D01*
X600964Y450820D02*
X606044Y455900D01*
X611124Y450820D01*
X606044Y445740D01*
X600964Y450820D01*
X502165Y380038D02*
X507245Y385118D01*
X512325Y380038D01*
X507245Y374958D01*
X502165Y380038D01*
X489920Y374935D02*
X495000Y380015D01*
X500080Y374935D01*
X495000Y369855D01*
X489920Y374935D01*
X465206Y318782D02*
X470286Y323862D01*
X475366Y318782D01*
X470286Y313702D01*
X465206Y318782D01*
X300139Y36026D02*
X305219Y41106D01*
X310299Y36026D01*
X305219Y30946D01*
X300139Y36026D01*
X239920Y35560D02*
X245000Y40640D01*
X250080Y35560D01*
X245000Y30480D01*
X239920Y35560D01*
X737953Y599820D02*
X743033Y604900D01*
X748113Y599820D01*
X743033Y594740D01*
X737953Y599820D01*
Y574820D02*
X743033Y579900D01*
X748113Y574820D01*
X743033Y569740D01*
X737953Y574820D01*
X737738Y548960D02*
X742818Y554040D01*
X747898Y548960D01*
X742818Y543880D01*
X737738Y548960D01*
X470532Y448584D02*
X475612Y453664D01*
X480692Y448584D01*
X475612Y443504D01*
X470532Y448584D01*
X445672Y476676D02*
X450752Y481756D01*
X455832Y476676D01*
X450752Y471596D01*
X445672Y476676D01*
X688584Y385299D02*
X693664Y390378D01*
X698744Y385299D01*
X693664Y380219D01*
X688584Y385299D01*
Y407588D02*
X693664Y412668D01*
X698744Y407588D01*
X693664Y402508D01*
X688584Y407588D01*
X621850Y353292D02*
X626930Y358372D01*
X632010Y353292D01*
X626930Y348212D01*
X621850Y353292D01*
X453459Y229082D02*
X458539Y234162D01*
X463619Y229082D01*
X458539Y224002D01*
X453459Y229082D01*
X491872Y397442D02*
X496952Y402522D01*
X502032Y397442D01*
X496952Y392362D01*
X491872Y397442D01*
X665206Y293846D02*
X670286Y298927D01*
X675366Y293846D01*
X670286Y288766D01*
X665206Y293846D01*
X274928Y598782D02*
X280008Y603862D01*
X285088Y598782D01*
X280008Y593702D01*
X274928Y598782D01*
Y636250D02*
X280008Y641330D01*
X285088Y636250D01*
X280008Y631170D01*
X274928Y636250D01*
Y618823D02*
X280008Y623903D01*
X285088Y618823D01*
X280008Y613743D01*
X274928Y618823D01*
X254928D02*
X260008Y623903D01*
X265088Y618823D01*
X260008Y613743D01*
X254928Y618823D01*
Y636250D02*
X260008Y641330D01*
X265088Y636250D01*
X260008Y631170D01*
X254928Y636250D01*
Y599500D02*
X260008Y604580D01*
X265088Y599500D01*
X260008Y594420D01*
X254928Y599500D01*
X159920Y634630D02*
X165000Y639710D01*
X170080Y634630D01*
X165000Y629549D01*
X159920Y634630D01*
X67132Y428950D02*
X72212Y434030D01*
X77292Y428950D01*
X72212Y423870D01*
X67132Y428950D01*
X41557Y426618D02*
X46637Y431698D01*
X51717Y426618D01*
X46637Y421538D01*
X41557Y426618D01*
X67132Y441180D02*
X72212Y446260D01*
X77292Y441180D01*
X72212Y436100D01*
X67132Y441180D01*
X429796Y537750D02*
X434876Y542830D01*
X439956Y537750D01*
X434876Y532670D01*
X429796Y537750D01*
X421441D02*
X426521Y542830D01*
X431601Y537750D01*
X426521Y532670D01*
X421441Y537750D01*
X429796Y545338D02*
X434876Y550418D01*
X439956Y545338D01*
X434876Y540258D01*
X429796Y545338D01*
X311289Y537750D02*
X316369Y542830D01*
X321449Y537750D01*
X316369Y532670D01*
X311289Y537750D01*
X302935D02*
X308015Y542830D01*
X313095Y537750D01*
X308015Y532670D01*
X302935Y537750D01*
X311289Y545338D02*
X316369Y550418D01*
X321449Y545338D01*
X316369Y540258D01*
X311289Y545338D01*
X187420Y537750D02*
X192500Y542830D01*
X197580Y537750D01*
X192500Y532670D01*
X187420Y537750D01*
X179065D02*
X184146Y542830D01*
X189226Y537750D01*
X184146Y532670D01*
X179065Y537750D01*
X187420Y545338D02*
X192500Y550418D01*
X197580Y545338D01*
X192500Y540258D01*
X187420Y545338D01*
X81826Y331470D02*
X86906Y336550D01*
X91986Y331470D01*
X86906Y326390D01*
X81826Y331470D01*
X80543Y588370D02*
X85623Y593450D01*
X90703Y588370D01*
X85623Y583290D01*
X80543Y588370D01*
X199920D02*
X205000Y593450D01*
X210080Y588370D01*
X205000Y583290D01*
X199920Y588370D01*
X323789D02*
X328869Y593450D01*
X333949Y588370D01*
X328869Y583290D01*
X323789Y588370D01*
X441526Y592350D02*
X446606Y597430D01*
X451686Y592350D01*
X446606Y587270D01*
X441526Y592350D01*
X351119Y93263D02*
X356199Y98343D01*
X361279Y93263D01*
X356199Y88183D01*
X351119Y93263D01*
X293462Y103180D02*
X298542Y108259D01*
X303622Y103180D01*
X298542Y98099D01*
X293462Y103180D01*
X168679Y102992D02*
X173759Y108072D01*
X178839Y102992D01*
X173759Y97912D01*
X168679Y102992D01*
X232748Y141932D02*
X237828Y147012D01*
X242908Y141932D01*
X237828Y136852D01*
X232748Y141932D01*
X225284Y215655D02*
X230364Y220735D01*
X235444Y215655D01*
X230364Y210574D01*
X225284Y215655D01*
X205284D02*
X210364Y220735D01*
X215444Y215655D01*
X210364Y210574D01*
X205284Y215655D01*
X165673Y145212D02*
X170753Y150292D01*
X175833Y145212D01*
X170753Y140132D01*
X165673Y145212D01*
X523272Y345982D02*
X528352Y351062D01*
X533432Y345982D01*
X528352Y340902D01*
X523272Y345982D01*
X287420Y291872D02*
X292500Y296952D01*
X297580Y291872D01*
X292500Y286792D01*
X287420Y291872D01*
X316589Y333624D02*
X321669Y338704D01*
X326749Y333624D01*
X321669Y328544D01*
X316589Y333624D01*
X100799Y387561D02*
X105879Y392641D01*
X110959Y387561D01*
X105879Y382481D01*
X100799Y387561D01*
X201828Y435529D02*
X206908Y440609D01*
X211988Y435529D01*
X206908Y430449D01*
X201828Y435529D01*
X165476Y444750D02*
X170556Y449830D01*
X175636Y444750D01*
X170556Y439670D01*
X165476Y444750D01*
X137160Y423950D02*
X142240Y429030D01*
X147320Y423950D01*
X142240Y418870D01*
X137160Y423950D01*
X40062Y482910D02*
X45142Y487990D01*
X50222Y482910D01*
X45142Y477830D01*
X40062Y482910D01*
X34835Y417923D02*
X39915Y423003D01*
X44995Y417923D01*
X39915Y412843D01*
X34835Y417923D01*
X122155Y413953D02*
X127235Y419033D01*
X132315Y413953D01*
X127235Y408873D01*
X122155Y413953D01*
X136567Y353000D02*
X141648Y358080D01*
X146728Y353000D01*
X141648Y347920D01*
X136567Y353000D01*
X412449Y555503D02*
X417529Y560583D01*
X422609Y555503D01*
X417529Y550423D01*
X412449Y555503D01*
X449227Y557181D02*
X454307Y562261D01*
X459387Y557181D01*
X454307Y552101D01*
X449227Y557181D01*
X293942Y555503D02*
X299022Y560583D01*
X304102Y555503D01*
X299022Y550423D01*
X293942Y555503D01*
X330720Y557181D02*
X335800Y562261D01*
X340880Y557181D01*
X335800Y552101D01*
X330720Y557181D01*
X170073Y555503D02*
X175153Y560583D01*
X180233Y555503D01*
X175153Y550423D01*
X170073Y555503D01*
X206851Y557181D02*
X211931Y562261D01*
X217011Y557181D01*
X211931Y552101D01*
X206851Y557181D01*
X87474D02*
X92554Y562261D01*
X97634Y557181D01*
X92554Y552101D01*
X87474Y557181D01*
X50696Y555503D02*
X55776Y560583D01*
X60856Y555503D01*
X55776Y550423D01*
X50696Y555503D01*
X469796Y547500D02*
X474876Y552580D01*
X479956Y547500D01*
X474876Y542420D01*
X469796Y547500D01*
X227420Y547500D02*
X232500Y552580D01*
X237580Y547500D01*
X232500Y542420D01*
X227420Y547500D01*
X108043D02*
X113123Y552580D01*
X118203Y547500D01*
X113123Y542420D01*
X108043Y547500D01*
X351289Y547500D02*
X356370Y552580D01*
X361450Y547500D01*
X356370Y542420D01*
X351289Y547500D01*
X474486Y489000D02*
X479566Y494080D01*
X484646Y489000D01*
X479566Y483920D01*
X474486Y489000D01*
X394807Y596438D02*
X399887Y601518D01*
X404967Y596438D01*
X399887Y591358D01*
X394807Y596438D01*
X151950Y587750D02*
X157030Y592830D01*
X162110Y587750D01*
X157030Y582670D01*
X151950Y587750D01*
X40543Y595720D02*
X45623Y600800D01*
X50703Y595720D01*
X45623Y590640D01*
X40543Y595720D01*
X40543Y518319D02*
X45623Y523399D01*
X50703Y518319D01*
X45623Y513239D01*
X40543Y518319D01*
X90424Y483362D02*
X95504Y488442D01*
X100584Y483362D01*
X95504Y478282D01*
X90424Y483362D01*
X68043Y545338D02*
X73123Y550418D01*
X78203Y545338D01*
X73123Y540258D01*
X68043Y545338D01*
X59689Y537750D02*
X64769Y542830D01*
X69848Y537750D01*
X64769Y532670D01*
X59689Y537750D01*
X68043D02*
X73123Y542830D01*
X78203Y537750D01*
X73123Y532670D01*
X68043Y537750D01*
X379703Y312067D02*
X384783Y317147D01*
X389863Y312067D01*
X384783Y306987D01*
X379703Y312067D01*
X418639Y396997D02*
X423719Y402077D01*
X428800Y396997D01*
X423719Y391917D01*
X418639Y396997D01*
Y361924D02*
X423719Y367004D01*
X428800Y361924D01*
X423719Y356844D01*
X418639Y361924D01*
X462769Y347712D02*
X467849Y352792D01*
X472929Y347712D01*
X467849Y342632D01*
X462769Y347712D01*
X523272Y326343D02*
X528352Y331423D01*
X533432Y326343D01*
X528352Y321263D01*
X523272Y326343D01*
Y308552D02*
X528352Y313632D01*
X533432Y308552D01*
X528352Y303472D01*
X523272Y308552D01*
Y290795D02*
X528352Y295875D01*
X533432Y290795D01*
X528352Y285715D01*
X523272Y290795D01*
Y272970D02*
X528352Y278050D01*
X533432Y272970D01*
X528352Y267890D01*
X523272Y272970D01*
X652526Y157226D02*
X657606Y162306D01*
X662686Y157226D01*
X657606Y152146D01*
X652526Y157226D01*
X644652D02*
X649732Y162306D01*
X654812Y157226D01*
X649732Y152146D01*
X644652Y157226D01*
X207772Y387096D02*
X212852Y392176D01*
X217932Y387096D01*
X212852Y382016D01*
X207772Y387096D01*
X198852Y407887D02*
X203932Y412967D01*
X209012Y407887D01*
X203932Y402807D01*
X198852Y407887D01*
X639954Y124342D02*
X645034Y129423D01*
X650114Y124342D01*
X645034Y119263D01*
X639954Y124342D01*
X655038Y124361D02*
X660118Y129441D01*
X665198Y124361D01*
X660118Y119281D01*
X655038Y124361D01*
X655020Y136986D02*
X660099Y142065D01*
X665180Y136986D01*
X660099Y131905D01*
X655020Y136986D01*
X639936Y137004D02*
X645016Y142084D01*
X650096Y137004D01*
X645016Y131924D01*
X639936Y137004D01*
X647293Y145476D02*
X652373Y150556D01*
X657453Y145476D01*
X652373Y140396D01*
X647293Y145476D01*
X632460Y132334D02*
X637540Y137414D01*
X642620Y132334D01*
X637540Y127254D01*
X632460Y132334D01*
X520565Y116913D02*
X525645Y121993D01*
X530725Y116913D01*
X525645Y111833D01*
X520565Y116913D01*
X487352Y507537D02*
X492432Y512617D01*
X497512Y507537D01*
X492432Y502457D01*
X487352Y507537D01*
X410983Y463298D02*
X416063Y468378D01*
X421143Y463298D01*
X416063Y458218D01*
X410983Y463298D01*
X395224D02*
X400304Y468378D01*
X405384Y463298D01*
X400304Y458218D01*
X395224Y463298D01*
X481387Y499364D02*
X486467Y504444D01*
X491547Y499364D01*
X486467Y494284D01*
X481387Y499364D01*
X461296Y502750D02*
X466376Y507830D01*
X471456Y502750D01*
X466376Y497670D01*
X461296Y502750D01*
X342789D02*
X347869Y507830D01*
X352949Y502750D01*
X347869Y497670D01*
X342789Y502750D01*
X218920D02*
X224000Y507830D01*
X229080Y502750D01*
X224000Y497670D01*
X218920Y502750D01*
X99543D02*
X104623Y507830D01*
X109703Y502750D01*
X104623Y497670D01*
X99543Y502750D01*
X106172Y499364D02*
X111252Y504444D01*
X116332Y499364D01*
X111252Y494284D01*
X106172Y499364D01*
X119634D02*
X124714Y504444D01*
X129794Y499364D01*
X124714Y494284D01*
X119634Y499364D01*
X225549D02*
X230629Y504444D01*
X235709Y499364D01*
X230629Y494284D01*
X225549Y499364D01*
X237995D02*
X243075Y504444D01*
X248155Y499364D01*
X243075Y494284D01*
X237995Y499364D01*
X361865D02*
X366945Y504444D01*
X372024Y499364D01*
X366945Y494284D01*
X361865Y499364D01*
X146231Y471180D02*
X151311Y476260D01*
X156391Y471180D01*
X151311Y466100D01*
X146231Y471180D01*
X226551Y440212D02*
X231631Y445292D01*
X236711Y440212D01*
X231631Y435132D01*
X226551Y440212D01*
X401387Y411716D02*
X406467Y416796D01*
X411547Y411716D01*
X406467Y406636D01*
X401387Y411716D01*
X409596Y597720D02*
X414676Y602800D01*
X419756Y597720D01*
X414676Y592640D01*
X409596Y597720D01*
X429768Y461234D02*
X434848Y466314D01*
X439928Y461234D01*
X434848Y456154D01*
X429768Y461234D01*
X264281Y348581D02*
X269361Y353661D01*
X274441Y348581D01*
X269361Y343501D01*
X264281Y348581D01*
X411670Y344500D02*
X416750Y349580D01*
X421830Y344500D01*
X416750Y339420D01*
X411670Y344500D01*
X557453Y251714D02*
X562533Y256794D01*
X567613Y251714D01*
X562533Y246634D01*
X557453Y251714D01*
X615699Y202976D02*
X620779Y208056D01*
X625858Y202976D01*
X620779Y197896D01*
X615699Y202976D01*
X582498Y198060D02*
X587578Y203140D01*
X592658Y198060D01*
X587578Y192980D01*
X582498Y198060D01*
X342646Y142080D02*
X347726Y147160D01*
X352806Y142080D01*
X347726Y137000D01*
X342646Y142080D01*
X177704Y155190D02*
X182784Y160270D01*
X187864Y155190D01*
X182784Y150110D01*
X177704Y155190D01*
X414905Y228828D02*
X419985Y233908D01*
X425065Y228828D01*
X419985Y223748D01*
X414905Y228828D01*
X374668Y319988D02*
X379748Y325068D01*
X384828Y319988D01*
X379748Y314908D01*
X374668Y319988D01*
X290576Y257674D02*
X295656Y262754D01*
X300736Y257674D01*
X295656Y252594D01*
X290576Y257674D01*
X226568Y365715D02*
X231648Y370795D01*
X236728Y365715D01*
X231648Y360635D01*
X226568Y365715D01*
X236486Y302456D02*
X241566Y307536D01*
X246646Y302456D01*
X241566Y297376D01*
X236486Y302456D01*
X163883Y386530D02*
X168963Y391610D01*
X174043Y386530D01*
X168963Y381450D01*
X163883Y386530D01*
X247288Y208534D02*
X252369Y213614D01*
X257449Y208534D01*
X252369Y203454D01*
X247288Y208534D01*
X236486Y283711D02*
X241566Y288791D01*
X246646Y283711D01*
X241566Y278631D01*
X236486Y283711D01*
X253238Y163322D02*
X258318Y168402D01*
X263398Y163322D01*
X258318Y158242D01*
X253238Y163322D01*
X262382D02*
X267462Y168402D01*
X272542Y163322D01*
X267462Y158242D01*
X262382Y163322D01*
X268224Y153162D02*
X273304Y158242D01*
X278384Y153162D01*
X273304Y148082D01*
X268224Y153162D01*
X257810Y153416D02*
X262890Y158496D01*
X267970Y153416D01*
X262890Y148336D01*
X257810Y153416D01*
X247650D02*
X252730Y158496D01*
X257810Y153416D01*
X252730Y148336D01*
X247650Y153416D01*
X66879Y752602D02*
X71959Y757682D01*
X77039Y752602D01*
X71959Y747522D01*
X66879Y752602D01*
X76862D02*
X81942Y757682D01*
X87022Y752602D01*
X81942Y747522D01*
X76862Y752602D01*
X86845D02*
X91925Y757682D01*
X97005Y752602D01*
X91925Y747522D01*
X86845Y752602D01*
X56896D02*
X61976Y757682D01*
X67056Y752602D01*
X61976Y747522D01*
X56896Y752602D01*
X73343Y770008D02*
X78423Y775088D01*
X83503Y770008D01*
X78423Y764928D01*
X73343Y770008D01*
X83326D02*
X88406Y775088D01*
X93486Y770008D01*
X88406Y764928D01*
X83326Y770008D01*
X93309D02*
X98389Y775088D01*
X103469Y770008D01*
X98389Y764928D01*
X93309Y770008D01*
X63360D02*
X68440Y775088D01*
X73520Y770008D01*
X68440Y764928D01*
X63360Y770008D01*
X145034Y507492D02*
X150114Y512572D01*
X155194Y507492D01*
X150114Y502412D01*
X145034Y507492D01*
X510032Y391414D02*
X515112Y396494D01*
X520192Y391414D01*
X515112Y386334D01*
X510032Y391414D01*
X296672Y448897D02*
X301752Y453977D01*
X306832Y448897D01*
X301752Y443817D01*
X296672Y448897D01*
Y441745D02*
X301752Y446825D01*
X306832Y441745D01*
X301752Y436665D01*
X296672Y441745D01*
Y434594D02*
X301752Y439674D01*
X306832Y434594D01*
X301752Y429514D01*
X296672Y434594D01*
X38608Y454914D02*
X43688Y459994D01*
X48768Y454914D01*
X43688Y449834D01*
X38608Y454914D01*
X29972Y454152D02*
X35052Y459232D01*
X40132Y454152D01*
X35052Y449072D01*
X29972Y454152D01*
X31496Y441452D02*
X36576Y446532D01*
X41656Y441452D01*
X36576Y436372D01*
X31496Y441452D01*
X290576Y271526D02*
X295656Y276606D01*
X300736Y271526D01*
X295656Y266446D01*
X290576Y271526D01*
X111868Y429914D02*
X116947Y434994D01*
X122028Y429914D01*
X116947Y424834D01*
X111868Y429914D01*
X105156Y438437D02*
X110236Y443517D01*
X115316Y438437D01*
X110236Y433357D01*
X105156Y438437D01*
X96865Y404619D02*
X101945Y409699D01*
X107025Y404619D01*
X101945Y399539D01*
X96865Y404619D01*
X72136Y409799D02*
X77216Y414879D01*
X82296Y409799D01*
X77216Y404719D01*
X72136Y409799D01*
X15748Y565150D02*
X20828Y570230D01*
X25908Y565150D01*
X20828Y560070D01*
X15748Y565150D01*
X92456Y82804D02*
X97536Y87884D01*
X102616Y82804D01*
X97536Y77724D01*
X92456Y82804D01*
X583762Y87793D02*
X588842Y92873D01*
X593922Y87793D01*
X588842Y82713D01*
X583762Y87793D01*
X647010Y87630D02*
X652089Y92710D01*
X657169Y87630D01*
X652089Y82550D01*
X647010Y87630D01*
X726422Y340018D02*
X731502Y345098D01*
X736582Y340018D01*
X731502Y334938D01*
X726422Y340018D01*
X716028Y340042D02*
X721108Y345122D01*
X726188Y340042D01*
X721108Y334962D01*
X716028Y340042D01*
X533132Y200195D02*
X538212Y205275D01*
X543292Y200195D01*
X538212Y195115D01*
X533132Y200195D01*
X640588Y194056D02*
X645668Y199136D01*
X650748Y194056D01*
X645668Y188976D01*
X640588Y194056D01*
X725170Y718114D02*
X730250Y723194D01*
X735330Y718114D01*
X730250Y713034D01*
X725170Y718114D01*
X709493Y718089D02*
X714573Y723169D01*
X719653Y718089D01*
X714573Y713009D01*
X709493Y718089D01*
X725170Y705614D02*
X730250Y710694D01*
X735330Y705614D01*
X730250Y700534D01*
X725170Y705614D01*
X709493Y705589D02*
X714573Y710669D01*
X719653Y705589D01*
X714573Y700509D01*
X709493Y705589D01*
X725170Y543114D02*
X730250Y548194D01*
X735330Y543114D01*
X730250Y538034D01*
X725170Y543114D01*
X709493Y543089D02*
X714573Y548169D01*
X719653Y543089D01*
X714573Y538009D01*
X709493Y543089D01*
X395732Y250698D02*
X400812Y255778D01*
X405892Y250698D01*
X400812Y245618D01*
X395732Y250698D01*
X479970Y239522D02*
X485050Y244602D01*
X490130Y239522D01*
X485050Y234442D01*
X479970Y239522D01*
X489843Y245358D02*
X494923Y250438D01*
X500003Y245358D01*
X494923Y240278D01*
X489843Y245358D01*
X595600Y234666D02*
X600680Y239746D01*
X605760Y234666D01*
X600680Y229586D01*
X595600Y234666D01*
X602559D02*
X607639Y239746D01*
X612719Y234666D01*
X607639Y229586D01*
X602559Y234666D01*
X396880Y259283D02*
X401959Y264363D01*
X407039Y259283D01*
X401959Y254203D01*
X396880Y259283D01*
X522458Y365949D02*
X527538Y371029D01*
X532618Y365949D01*
X527538Y360869D01*
X522458Y365949D01*
X523748Y463042D02*
X528828Y468122D01*
X533908Y463042D01*
X528828Y457962D01*
X523748Y463042D01*
X539499Y458439D02*
X544579Y463519D01*
X549659Y458439D01*
X544579Y453359D01*
X539499Y458439D01*
X530339Y473170D02*
X535419Y478250D01*
X540499Y473170D01*
X535419Y468090D01*
X530339Y473170D01*
X548660Y443708D02*
X553740Y448788D01*
X558820Y443708D01*
X553740Y438628D01*
X548660Y443708D01*
X562301Y269450D02*
X567381Y274530D01*
X572461Y269450D01*
X567381Y264370D01*
X562301Y269450D01*
X562027Y262237D02*
X567107Y267317D01*
X572187Y262237D01*
X567107Y257157D01*
X562027Y262237D01*
X374604Y245358D02*
X379684Y250438D01*
X384764Y245358D01*
X379684Y240278D01*
X374604Y245358D01*
X481845Y228828D02*
X486925Y233908D01*
X492005Y228828D01*
X486925Y223748D01*
X481845Y228828D01*
X464870D02*
X469950Y233908D01*
X475030Y228828D01*
X469950Y223748D01*
X464870Y228828D01*
X409956Y279500D02*
X415036Y284580D01*
X420116Y279500D01*
X415036Y274420D01*
X409956Y279500D01*
X381922Y271653D02*
X387002Y276733D01*
X392082Y271653D01*
X387002Y266573D01*
X381922Y271653D01*
Y281249D02*
X387002Y286329D01*
X392082Y281249D01*
X387002Y276169D01*
X381922Y281249D01*
X199687Y399895D02*
X204767Y404975D01*
X209847Y399895D01*
X204767Y394815D01*
X199687Y399895D01*
X184226Y336926D02*
X189306Y342006D01*
X194386Y336926D01*
X189306Y331846D01*
X184226Y336926D01*
X465004Y456184D02*
X470084Y461264D01*
X475164Y456184D01*
X470084Y451104D01*
X465004Y456184D01*
X390144Y406146D02*
X395224Y411226D01*
X400304Y406146D01*
X395224Y401066D01*
X390144Y406146D01*
X455247Y468299D02*
X460327Y473379D01*
X465407Y468299D01*
X460327Y463219D01*
X455247Y468299D01*
X425930Y468348D02*
X431010Y473428D01*
X436090Y468348D01*
X431010Y463268D01*
X425930Y468348D01*
X296672Y456049D02*
X301752Y461129D01*
X306832Y456049D01*
X301752Y450969D01*
X296672Y456049D01*
X444920Y425458D02*
X450000Y430538D01*
X455080Y425458D01*
X450000Y420378D01*
X444920Y425458D01*
X475072Y433384D02*
X480152Y438464D01*
X485232Y433384D01*
X480152Y428304D01*
X475072Y433384D01*
X470038Y440984D02*
X475118Y446064D01*
X480198Y440984D01*
X475118Y435904D01*
X470038Y440984D01*
X459970Y448584D02*
X465050Y453664D01*
X470130Y448584D01*
X465050Y443504D01*
X459970Y448584D01*
X416307Y290761D02*
X421387Y295841D01*
X426467Y290761D01*
X421387Y285681D01*
X416307Y290761D01*
X271920Y440672D02*
X277000Y445751D01*
X282080Y440672D01*
X277000Y435592D01*
X271920Y440672D01*
X489920Y441288D02*
X495000Y446368D01*
X500080Y441288D01*
X495000Y436208D01*
X489920Y441288D01*
X494920Y436000D02*
X500000Y441080D01*
X505080Y436000D01*
X500000Y430920D01*
X494920Y436000D01*
X676905Y473170D02*
X681984Y478250D01*
X687065Y473170D01*
X681984Y468090D01*
X676905Y473170D01*
X483840Y273050D02*
X488920Y278130D01*
X494000Y273050D01*
X488920Y267970D01*
X483840Y273050D01*
X483823Y290830D02*
X488903Y295910D01*
X493983Y290830D01*
X488903Y285750D01*
X483823Y290830D01*
X483840Y308552D02*
X488920Y313632D01*
X494000Y308552D01*
X488920Y303472D01*
X483840Y308552D01*
Y326343D02*
X488920Y331423D01*
X494000Y326343D01*
X488920Y321263D01*
X483840Y326343D01*
X658365Y633000D02*
X663445Y638080D01*
X668525Y633000D01*
X663445Y627920D01*
X658365Y633000D01*
X409590Y489000D02*
X414670Y494080D01*
X419751Y489000D01*
X414670Y483920D01*
X409590Y489000D01*
X291084D02*
X296164Y494080D01*
X301244Y489000D01*
X296164Y483920D01*
X291084Y489000D01*
X167220Y489085D02*
X172300Y494165D01*
X177380Y489085D01*
X172300Y484005D01*
X167220Y489085D01*
X203807Y378385D02*
X208887Y383465D01*
X213967Y378385D01*
X208887Y373304D01*
X203807Y378385D01*
X177800Y334772D02*
X182880Y339852D01*
X187960Y334772D01*
X182880Y329692D01*
X177800Y334772D01*
X525272Y642112D02*
X530352Y647192D01*
X535432Y642112D01*
X530352Y637032D01*
X525272Y642112D01*
X421640Y308610D02*
X426720Y313690D01*
X431800Y308610D01*
X426720Y303530D01*
X421640Y308610D01*
X418592Y326390D02*
X423672Y331470D01*
X428752Y326390D01*
X423672Y321310D01*
X418592Y326390D01*
X409956Y297942D02*
X415036Y303022D01*
X420116Y297942D01*
X415036Y292862D01*
X409956Y297942D01*
X105156Y450413D02*
X110236Y455493D01*
X115316Y450413D01*
X110236Y445333D01*
X105156Y450413D01*
X96520Y472978D02*
X101600Y478058D01*
X106680Y472978D01*
X101600Y467898D01*
X96520Y472978D01*
X76708Y478312D02*
X81788Y483392D01*
X86868Y478312D01*
X81788Y473232D01*
X76708Y478312D01*
X432575Y564917D02*
X437655Y569997D01*
X442735Y564917D01*
X437655Y559837D01*
X432575Y564917D01*
X419300Y565168D02*
X424380Y570248D01*
X429460Y565168D01*
X424380Y560088D01*
X419300Y565168D01*
X314069Y564917D02*
X319149Y569997D01*
X324229Y564917D01*
X319149Y559837D01*
X314069Y564917D01*
X300794Y565168D02*
X305874Y570248D01*
X310954Y565168D01*
X305874Y560088D01*
X300794Y565168D01*
X176924Y565168D02*
X182004Y570248D01*
X187084Y565168D01*
X182004Y560088D01*
X176924Y565168D01*
X190199Y564917D02*
X195279Y569997D01*
X200359Y564917D01*
X195279Y559837D01*
X190199Y564917D01*
X70822D02*
X75902Y569997D01*
X80982Y564917D01*
X75902Y559837D01*
X70822Y564917D01*
X402139Y565150D02*
X407219Y570230D01*
X412299Y565150D01*
X407219Y560070D01*
X402139Y565150D01*
X283633D02*
X288713Y570230D01*
X293792Y565150D01*
X288713Y560070D01*
X283633Y565150D01*
X159763Y565150D02*
X164843Y570230D01*
X169923Y565150D01*
X164843Y560070D01*
X159763Y565150D01*
X40386D02*
X45466Y570230D01*
X50546Y565150D01*
X45466Y560070D01*
X40386Y565150D01*
X57547Y565168D02*
X62627Y570248D01*
X67707Y565168D01*
X62627Y560088D01*
X57547Y565168D01*
X60732Y494188D02*
X65812Y499268D01*
X70891Y494188D01*
X65812Y489109D01*
X60732Y494188D01*
X113703Y489016D02*
X118783Y494096D01*
X123863Y489016D01*
X118783Y483936D01*
X113703Y489016D01*
X422485Y494188D02*
X427565Y499268D01*
X432645Y494188D01*
X427565Y489109D01*
X422485Y494188D01*
X303978D02*
X309058Y499268D01*
X314138Y494188D01*
X309058Y489109D01*
X303978Y494188D01*
X180109D02*
X185189Y499268D01*
X190268Y494188D01*
X185189Y489109D01*
X180109Y494188D01*
X411670Y369250D02*
X416750Y374330D01*
X421830Y369250D01*
X416750Y364170D01*
X411670Y369250D01*
X368415Y508000D02*
X373495Y513080D01*
X378576Y508000D01*
X373495Y502920D01*
X368415Y508000D01*
X343167Y517500D02*
X348246Y522580D01*
X353326Y517500D01*
X348246Y512420D01*
X343167Y517500D01*
X461673D02*
X466753Y522580D01*
X471833Y517500D01*
X466753Y512420D01*
X461673Y517500D01*
X244546Y508000D02*
X249626Y513080D01*
X254706Y508000D01*
X249626Y502920D01*
X244546Y508000D01*
X219297Y517500D02*
X224377Y522580D01*
X229457Y517500D01*
X224377Y512420D01*
X219297Y517500D01*
X487297Y554750D02*
X492377Y559830D01*
X497457Y554750D01*
X492377Y549670D01*
X487297Y554750D01*
X368791D02*
X373871Y559830D01*
X378951Y554750D01*
X373871Y549670D01*
X368791Y554750D01*
X244921Y554750D02*
X250001Y559830D01*
X255081Y554750D01*
X250001Y549670D01*
X244921Y554750D01*
X125170D02*
X130250Y559830D01*
X135330Y554750D01*
X130250Y549670D01*
X125170Y554750D01*
X125169Y508000D02*
X130249Y513080D01*
X135329Y508000D01*
X130249Y502920D01*
X125169Y508000D01*
X99920Y517500D02*
X105000Y522580D01*
X110080Y517500D01*
X105000Y512420D01*
X99920Y517500D01*
X55420Y697802D02*
X60500Y702881D01*
X65580Y697802D01*
X60500Y692721D01*
X55420Y697802D01*
X557190Y496759D02*
X562270Y501839D01*
X567350Y496759D01*
X562270Y491679D01*
X557190Y496759D01*
X666010Y586705D02*
X671090Y591785D01*
X676170Y586705D01*
X671090Y581625D01*
X666010Y586705D01*
X621942Y609098D02*
X627022Y614178D01*
X632102Y609098D01*
X627022Y604018D01*
X621942Y609098D01*
X585301Y609470D02*
X590381Y614550D01*
X595461Y609470D01*
X590381Y604390D01*
X585301Y609470D01*
X567105Y633515D02*
X572185Y638595D01*
X577265Y633515D01*
X572185Y628435D01*
X567105Y633515D01*
X649224Y488696D02*
X654304Y493776D01*
X659384Y488696D01*
X654304Y483616D01*
X649224Y488696D01*
X640201Y633196D02*
X645281Y638276D01*
X650360Y633196D01*
X645281Y628116D01*
X640201Y633196D01*
X676779D02*
X681860Y638276D01*
X686939Y633196D01*
X681860Y628116D01*
X676779Y633196D01*
X622067Y473048D02*
X627147Y478128D01*
X632227Y473048D01*
X627147Y467968D01*
X622067Y473048D01*
X666496Y518922D02*
X671576Y524002D01*
X676656Y518922D01*
X671576Y513842D01*
X666496Y518922D01*
X37360Y770008D02*
X42440Y775088D01*
X47520Y770008D01*
X42440Y764928D01*
X37360Y770008D01*
X30640Y760102D02*
X35720Y765182D01*
X40800Y760102D01*
X35720Y755022D01*
X30640Y760102D01*
X30706Y730127D02*
X35786Y735207D01*
X40866Y730127D01*
X35786Y725047D01*
X30706Y730127D01*
X37426Y740033D02*
X42506Y745113D01*
X47586Y740033D01*
X42506Y734953D01*
X37426Y740033D01*
X30508Y645122D02*
X35588Y650202D01*
X40668Y645122D01*
X35588Y640042D01*
X30508Y645122D01*
X37228Y655028D02*
X42308Y660108D01*
X47388Y655028D01*
X42308Y649948D01*
X37228Y655028D01*
X37752Y625990D02*
X42832Y631070D01*
X47912Y625990D01*
X42832Y620910D01*
X37752Y625990D01*
Y616084D02*
X42832Y621164D01*
X47912Y616084D01*
X42832Y611004D01*
X37752Y616084D01*
X744840Y458664D02*
X749920Y463744D01*
X755000Y458664D01*
X749920Y453584D01*
X744840Y458664D01*
X401574Y775716D02*
X406654Y780796D01*
X411734Y775716D01*
X406654Y770636D01*
X401574Y775716D01*
X401640Y740222D02*
X406720Y745302D01*
X411800Y740222D01*
X406720Y735142D01*
X401640Y740222D01*
Y704662D02*
X406720Y709742D01*
X411800Y704662D01*
X406720Y699582D01*
X401640Y704662D01*
Y669102D02*
X406720Y674182D01*
X411800Y669102D01*
X406720Y664022D01*
X401640Y669102D01*
X449708Y775600D02*
X454788Y780680D01*
X459868Y775600D01*
X454788Y770520D01*
X449708Y775600D01*
Y740040D02*
X454788Y745120D01*
X459868Y740040D01*
X454788Y734960D01*
X449708Y740040D01*
X441344Y704444D02*
X446424Y709524D01*
X451504Y704444D01*
X446424Y699364D01*
X441344Y704444D01*
Y668884D02*
X446424Y673964D01*
X451504Y668884D01*
X446424Y663804D01*
X441344Y668884D01*
X125655Y671237D02*
X130735Y676317D01*
X135815Y671237D01*
X130735Y666157D01*
X125655Y671237D01*
X124637Y640384D02*
X129717Y645464D01*
X134797Y640384D01*
X129717Y635304D01*
X124637Y640384D01*
X204892Y698754D02*
X209972Y703834D01*
X215052Y698754D01*
X209972Y693674D01*
X204892Y698754D01*
X244892D02*
X249972Y703834D01*
X255052Y698754D01*
X249972Y693674D01*
X244892Y698754D01*
X284892D02*
X289972Y703834D01*
X295052Y698754D01*
X289972Y693674D01*
X284892Y698754D01*
X325346D02*
X330426Y703834D01*
X335506Y698754D01*
X330426Y693674D01*
X325346Y698754D01*
X738857Y307618D02*
X743937Y312698D01*
X749017Y307618D01*
X743937Y302538D01*
X738857Y307618D01*
X755052Y458445D02*
X760132Y463525D01*
X765212Y458445D01*
X760132Y453365D01*
X755052Y458445D01*
X585640Y473135D02*
X590720Y478215D01*
X595801Y473135D01*
X590720Y468055D01*
X585640Y473135D01*
X603442D02*
X608522Y478215D01*
X613602Y473135D01*
X608522Y468055D01*
X603442Y473135D01*
X204920Y676500D02*
X210000Y681580D01*
X215080Y676500D01*
X210000Y671420D01*
X204920Y676500D01*
X244920D02*
X250000Y681580D01*
X255080Y676500D01*
X250000Y671420D01*
X244920Y676500D01*
X284920D02*
X290000Y681580D01*
X295080Y676500D01*
X290000Y671420D01*
X284920Y676500D01*
X324920D02*
X330000Y681580D01*
X335080Y676500D01*
X330000Y671420D01*
X324920Y676500D01*
X51308Y134366D02*
X56388Y139446D01*
X61468Y134366D01*
X56388Y129286D01*
X51308Y134366D01*
X574920Y676500D02*
X580000Y681580D01*
X585080Y676500D01*
X580000Y671420D01*
X574920Y676500D01*
X614920Y651500D02*
X620000Y656580D01*
X625080Y651500D01*
X620000Y646420D01*
X614920Y651500D01*
X534920Y673595D02*
X540000Y678675D01*
X545080Y673595D01*
X540000Y668515D01*
X534920Y673595D01*
Y651500D02*
X540000Y656580D01*
X545080Y651500D01*
X540000Y646420D01*
X534920Y651500D01*
X494920D02*
X500000Y656580D01*
X505080Y651500D01*
X500000Y646420D01*
X494920Y651500D01*
X542233Y546315D02*
X547313Y551395D01*
X552393Y546315D01*
X547313Y541235D01*
X542233Y546315D01*
X665264Y545689D02*
X670344Y550769D01*
X675424Y545689D01*
X670344Y540609D01*
X665264Y545689D01*
X110585Y699753D02*
X115665Y704833D01*
X120745Y699753D01*
X115665Y694673D01*
X110585Y699753D01*
X92456Y144881D02*
X97536Y149961D01*
X102616Y144881D01*
X97536Y139801D01*
X92456Y144881D01*
X119146Y689541D02*
X124226Y694621D01*
X129306Y689541D01*
X124226Y684461D01*
X119146Y689541D01*
X129567Y769500D02*
X134647Y774580D01*
X139727Y769500D01*
X134647Y764420D01*
X129567Y769500D01*
X119363Y764801D02*
X124443Y769881D01*
X129523Y764801D01*
X124443Y759721D01*
X119363Y764801D01*
X129567Y758070D02*
X134647Y763150D01*
X139727Y758070D01*
X134647Y752990D01*
X129567Y758070D01*
Y744453D02*
X134647Y749533D01*
X139727Y744453D01*
X134647Y739373D01*
X129567Y744453D01*
Y730130D02*
X134647Y735210D01*
X139727Y730130D01*
X134647Y725050D01*
X129567Y730130D01*
X92456Y103497D02*
X97536Y108576D01*
X102616Y103497D01*
X97536Y98417D01*
X92456Y103497D01*
X58344Y649948D02*
X63424Y655028D01*
X68504Y649948D01*
X63424Y644868D01*
X58344Y649948D01*
X64619Y640070D02*
X69699Y645150D01*
X74779Y640070D01*
X69699Y634990D01*
X64619Y640070D01*
X548740Y633555D02*
X553820Y638635D01*
X558900Y633555D01*
X553820Y628475D01*
X548740Y633555D01*
X179970Y222588D02*
X185049Y227668D01*
X190130Y222588D01*
X185049Y217508D01*
X179970Y222588D01*
X831241Y843614D02*
X836321Y848694D01*
X841401Y843614D01*
X836321Y838534D01*
X831241Y843614D01*
X838540Y526780D02*
X843620Y531860D01*
X848700Y526780D01*
X843620Y521699D01*
X838540Y526780D01*
X1306Y35503D02*
X6386Y40584D01*
X11466Y35503D01*
X6386Y30424D01*
X1306Y35503D01*
X838540Y586779D02*
X843620Y591859D01*
X848700Y586779D01*
X843620Y581699D01*
X838540Y586779D01*
X1306Y645502D02*
X6386Y650582D01*
X11466Y645502D01*
X6386Y640422D01*
X1306Y645502D01*
Y425503D02*
X6386Y430583D01*
X11466Y425503D01*
X6386Y420423D01*
X1306Y425503D01*
Y405503D02*
X6386Y410583D01*
X11466Y405503D01*
X6386Y400423D01*
X1306Y405503D01*
X735777Y6379D02*
X740856Y11459D01*
X745937Y6379D01*
X740856Y1299D01*
X735777Y6379D01*
X245777D02*
X250858Y11459D01*
X255938Y6379D01*
X250858Y1299D01*
X245777Y6379D01*
X455777D02*
X460857Y11459D01*
X465937Y6379D01*
X460857Y1299D01*
X455777Y6379D01*
X655777D02*
X660857Y11459D01*
X665937Y6379D01*
X660857Y1299D01*
X655777Y6379D01*
X838540Y406780D02*
X843620Y411860D01*
X848700Y406780D01*
X843620Y401700D01*
X838540Y406780D01*
X311242Y843614D02*
X316322Y848694D01*
X321402Y843614D01*
X316322Y838534D01*
X311242Y843614D01*
X21243D02*
X26323Y848694D01*
X31403Y843614D01*
X26323Y838534D01*
X21243Y843614D01*
X725777Y6379D02*
X730856Y11459D01*
X735937Y6379D01*
X730856Y1299D01*
X725777Y6379D01*
X411242Y843614D02*
X416322Y848694D01*
X421402Y843614D01*
X416322Y838534D01*
X411242Y843614D01*
X1306Y335503D02*
X6386Y340583D01*
X11466Y335503D01*
X6386Y330423D01*
X1306Y335503D01*
X395777Y6379D02*
X400857Y11459D01*
X405937Y6379D01*
X400857Y1299D01*
X395777Y6379D01*
X838540Y306780D02*
X843620Y311860D01*
X848700Y306780D01*
X843620Y301700D01*
X838540Y306780D01*
X241242Y843614D02*
X246322Y848694D01*
X251402Y843614D01*
X246322Y838534D01*
X241242Y843614D01*
X491242D02*
X496322Y848694D01*
X501402Y843614D01*
X496322Y838534D01*
X491242Y843614D01*
X1306Y715502D02*
X6386Y720582D01*
X11466Y715502D01*
X6386Y710422D01*
X1306Y715502D01*
Y385503D02*
X6386Y390583D01*
X11466Y385503D01*
X6386Y380423D01*
X1306Y385503D01*
Y255503D02*
X6386Y260583D01*
X11466Y255503D01*
X6386Y250423D01*
X1306Y255503D01*
Y835502D02*
X6386Y840582D01*
X11466Y835502D01*
X6386Y830422D01*
X1306Y835502D01*
X838540Y156780D02*
X843620Y161860D01*
X848700Y156780D01*
X843620Y151700D01*
X838540Y156780D01*
X425777Y6379D02*
X430857Y11459D01*
X435937Y6379D01*
X430857Y1299D01*
X425777Y6379D01*
X95778D02*
X100858Y11459D01*
X105938Y6379D01*
X100858Y1299D01*
X95778Y6379D01*
X731241Y843614D02*
X736321Y848694D01*
X741401Y843614D01*
X736321Y838534D01*
X731241Y843614D01*
X838540Y186780D02*
X843620Y191860D01*
X848700Y186780D01*
X843620Y181700D01*
X838540Y186780D01*
X61243Y843614D02*
X66323Y848694D01*
X71403Y843614D01*
X66323Y838534D01*
X61243Y843614D01*
X155778Y6379D02*
X160858Y11459D01*
X165938Y6379D01*
X160858Y1299D01*
X155778Y6379D01*
X1306Y545503D02*
X6386Y550583D01*
X11466Y545503D01*
X6386Y540423D01*
X1306Y545503D01*
X435777Y6379D02*
X440857Y11459D01*
X445937Y6379D01*
X440857Y1299D01*
X435777Y6379D01*
X275777D02*
X280857Y11459D01*
X285937Y6379D01*
X280857Y1299D01*
X275777Y6379D01*
X838540Y216780D02*
X843620Y221860D01*
X848700Y216780D01*
X843620Y211700D01*
X838540Y216780D01*
X391242Y843614D02*
X396322Y848694D01*
X401402Y843614D01*
X396322Y838534D01*
X391242Y843614D01*
X625777Y6379D02*
X630857Y11459D01*
X635937Y6379D01*
X630857Y1299D01*
X625777Y6379D01*
X361242Y843614D02*
X366322Y848694D01*
X371402Y843614D01*
X366322Y838534D01*
X361242Y843614D01*
X321242D02*
X326322Y848694D01*
X331402Y843614D01*
X326322Y838534D01*
X321242Y843614D01*
X1306Y305503D02*
X6386Y310583D01*
X11466Y305503D01*
X6386Y300423D01*
X1306Y305503D01*
X25778Y6379D02*
X30858Y11459D01*
X35938Y6379D01*
X30858Y1299D01*
X25778Y6379D01*
X385777D02*
X390857Y11459D01*
X395937Y6379D01*
X390857Y1299D01*
X385777Y6379D01*
X1306Y775502D02*
X6386Y780582D01*
X11466Y775502D01*
X6386Y770422D01*
X1306Y775502D01*
Y735502D02*
X6386Y740582D01*
X11466Y735502D01*
X6386Y730422D01*
X1306Y735502D01*
Y665502D02*
X6386Y670582D01*
X11466Y665502D01*
X6386Y660422D01*
X1306Y665502D01*
X465777Y6379D02*
X470857Y11459D01*
X475937Y6379D01*
X470857Y1299D01*
X465777Y6379D01*
X555777D02*
X560857Y11459D01*
X565937Y6379D01*
X560857Y1299D01*
X555777Y6379D01*
X838540Y616779D02*
X843620Y621859D01*
X848700Y616779D01*
X843620Y611699D01*
X838540Y616779D01*
X1306Y635502D02*
X6386Y640582D01*
X11466Y635502D01*
X6386Y630422D01*
X1306Y635502D01*
X121243Y843614D02*
X126323Y848694D01*
X131403Y843614D01*
X126323Y838534D01*
X121243Y843614D01*
X1306Y455503D02*
X6386Y460583D01*
X11466Y455503D01*
X6386Y450423D01*
X1306Y455503D01*
X91243Y843614D02*
X96323Y848694D01*
X101403Y843614D01*
X96323Y838534D01*
X91243Y843614D01*
X838540Y176780D02*
X843620Y181860D01*
X848700Y176780D01*
X843620Y171700D01*
X838540Y176780D01*
X1306Y355503D02*
X6386Y360583D01*
X11466Y355503D01*
X6386Y350423D01*
X1306Y355503D01*
X838540Y786779D02*
X843620Y791859D01*
X848700Y786779D01*
X843620Y781699D01*
X838540Y786779D01*
X695777Y6379D02*
X700857Y11459D01*
X705937Y6379D01*
X700857Y1299D01*
X695777Y6379D01*
X595777D02*
X600857Y11459D01*
X605937Y6379D01*
X600857Y1299D01*
X595777Y6379D01*
X711242Y843614D02*
X716321Y848694D01*
X721402Y843614D01*
X716321Y838534D01*
X711242Y843614D01*
X581242D02*
X586322Y848694D01*
X591402Y843614D01*
X586322Y838534D01*
X581242Y843614D01*
X838540Y366780D02*
X843620Y371860D01*
X848700Y366780D01*
X843620Y361700D01*
X838540Y366780D01*
Y556779D02*
X843620Y561859D01*
X848700Y556779D01*
X843620Y551699D01*
X838540Y556779D01*
X551242Y843614D02*
X556322Y848694D01*
X561402Y843614D01*
X556322Y838534D01*
X551242Y843614D01*
X605777Y6379D02*
X610857Y11459D01*
X615937Y6379D01*
X610857Y1299D01*
X605777Y6379D01*
X351242Y843614D02*
X356322Y848694D01*
X361402Y843614D01*
X356322Y838534D01*
X351242Y843614D01*
X838540Y86780D02*
X843620Y91860D01*
X848700Y86780D01*
X843620Y81700D01*
X838540Y86780D01*
X1306Y525503D02*
X6386Y530583D01*
X11466Y525503D01*
X6386Y520423D01*
X1306Y525503D01*
X665777Y6379D02*
X670857Y11459D01*
X675937Y6379D01*
X670857Y1299D01*
X665777Y6379D01*
X1306Y815502D02*
X6386Y820582D01*
X11466Y815502D01*
X6386Y810422D01*
X1306Y815502D01*
X838540Y276780D02*
X843620Y281860D01*
X848700Y276780D01*
X843620Y271700D01*
X838540Y276780D01*
Y66780D02*
X843620Y71860D01*
X848700Y66780D01*
X843620Y61700D01*
X838540Y66780D01*
X681242Y843614D02*
X686321Y848694D01*
X691402Y843614D01*
X686321Y838534D01*
X681242Y843614D01*
X821241D02*
X826321Y848694D01*
X831401Y843614D01*
X826321Y838534D01*
X821241Y843614D01*
X838540Y76780D02*
X843620Y81860D01*
X848700Y76780D01*
X843620Y71700D01*
X838540Y76780D01*
Y836779D02*
X843620Y841859D01*
X848700Y836779D01*
X843620Y831699D01*
X838540Y836779D01*
X31243Y843614D02*
X36323Y848694D01*
X41403Y843614D01*
X36323Y838534D01*
X31243Y843614D01*
X838540Y136780D02*
X843620Y141860D01*
X848700Y136780D01*
X843620Y131700D01*
X838540Y136780D01*
X1306Y285503D02*
X6386Y290583D01*
X11466Y285503D01*
X6386Y280423D01*
X1306Y285503D01*
X141243Y843614D02*
X146323Y848694D01*
X151403Y843614D01*
X146323Y838534D01*
X141243Y843614D01*
X1306Y685502D02*
X6386Y690582D01*
X11466Y685502D01*
X6386Y680422D01*
X1306Y685502D01*
X221243Y843614D02*
X226322Y848694D01*
X231402Y843614D01*
X226322Y838534D01*
X221243Y843614D01*
X305777Y6379D02*
X310857Y11459D01*
X315937Y6379D01*
X310857Y1299D01*
X305777Y6379D01*
X838540Y96780D02*
X843620Y101860D01*
X848700Y96780D01*
X843620Y91700D01*
X838540Y96780D01*
Y766779D02*
X843620Y771859D01*
X848700Y766779D01*
X843620Y761699D01*
X838540Y766779D01*
X471242Y843614D02*
X476322Y848694D01*
X481402Y843614D01*
X476322Y838534D01*
X471242Y843614D01*
X805776Y6379D02*
X810856Y11459D01*
X815936Y6379D01*
X810856Y1299D01*
X805776Y6379D01*
X838540Y636779D02*
X843620Y641859D01*
X848700Y636779D01*
X843620Y631699D01*
X838540Y636779D01*
X115778Y6379D02*
X120858Y11459D01*
X125938Y6379D01*
X120858Y1299D01*
X115778Y6379D01*
X111243Y843614D02*
X116323Y848694D01*
X121403Y843614D01*
X116323Y838534D01*
X111243Y843614D01*
X751241D02*
X756321Y848694D01*
X761401Y843614D01*
X756321Y838534D01*
X751241Y843614D01*
X1306Y325503D02*
X6386Y330583D01*
X11466Y325503D01*
X6386Y320423D01*
X1306Y325503D01*
X85778Y6379D02*
X90858Y11459D01*
X95938Y6379D01*
X90858Y1299D01*
X85778Y6379D01*
X1306Y25503D02*
X6386Y30584D01*
X11466Y25503D01*
X6386Y20424D01*
X1306Y25503D01*
X215777Y6379D02*
X220858Y11459D01*
X225938Y6379D01*
X220858Y1299D01*
X215777Y6379D01*
X838540Y386780D02*
X843620Y391860D01*
X848700Y386780D01*
X843620Y381700D01*
X838540Y386780D01*
Y426780D02*
X843620Y431860D01*
X848700Y426780D01*
X843620Y421700D01*
X838540Y426780D01*
X1306Y625502D02*
X6386Y630582D01*
X11466Y625502D01*
X6386Y620422D01*
X1306Y625502D01*
X375777Y6379D02*
X380857Y11459D01*
X385937Y6379D01*
X380857Y1299D01*
X375777Y6379D01*
X585777D02*
X590857Y11459D01*
X595937Y6379D01*
X590857Y1299D01*
X585777Y6379D01*
X7153Y843614D02*
X12233Y848694D01*
X17313Y843614D01*
X12233Y838534D01*
X7153Y843614D01*
X838540Y416780D02*
X843620Y421860D01*
X848700Y416780D01*
X843620Y411700D01*
X838540Y416780D01*
Y686779D02*
X843620Y691859D01*
X848700Y686779D01*
X843620Y681699D01*
X838540Y686779D01*
X501242Y843614D02*
X506322Y848694D01*
X511402Y843614D01*
X506322Y838534D01*
X501242Y843614D01*
X1306Y165503D02*
X6386Y170583D01*
X11466Y165503D01*
X6386Y160423D01*
X1306Y165503D01*
X838540Y316780D02*
X843620Y321860D01*
X848700Y316780D01*
X843620Y311700D01*
X838540Y316780D01*
X381242Y843614D02*
X386322Y848694D01*
X391402Y843614D01*
X386322Y838534D01*
X381242Y843614D01*
X1306Y435503D02*
X6386Y440583D01*
X11466Y435503D01*
X6386Y430423D01*
X1306Y435503D01*
X765776Y6379D02*
X770856Y11459D01*
X775936Y6379D01*
X770856Y1299D01*
X765776Y6379D01*
X315777D02*
X320857Y11459D01*
X325937Y6379D01*
X320857Y1299D01*
X315777Y6379D01*
X838540Y726779D02*
X843620Y731859D01*
X848700Y726779D01*
X843620Y721699D01*
X838540Y726779D01*
Y266780D02*
X843620Y271860D01*
X848700Y266780D01*
X843620Y261700D01*
X838540Y266780D01*
X535777Y6379D02*
X540857Y11459D01*
X545937Y6379D01*
X540857Y1299D01*
X535777Y6379D01*
X531242Y843614D02*
X536322Y848694D01*
X541402Y843614D01*
X536322Y838534D01*
X531242Y843614D01*
X165778Y6379D02*
X170858Y11459D01*
X175938Y6379D01*
X170858Y1299D01*
X165778Y6379D01*
X838540Y706779D02*
X843620Y711859D01*
X848700Y706779D01*
X843620Y701699D01*
X838540Y706779D01*
X1306Y225503D02*
X6386Y230583D01*
X11466Y225503D01*
X6386Y220423D01*
X1306Y225503D01*
X235777Y6379D02*
X240858Y11459D01*
X245938Y6379D01*
X240858Y1299D01*
X235777Y6379D01*
X1306Y125503D02*
X6386Y130583D01*
X11466Y125503D01*
X6386Y120423D01*
X1306Y125503D01*
X838540Y146780D02*
X843620Y151860D01*
X848700Y146780D01*
X843620Y141700D01*
X838540Y146780D01*
Y126780D02*
X843620Y131860D01*
X848700Y126780D01*
X843620Y121700D01*
X838540Y126780D01*
Y206780D02*
X843620Y211860D01*
X848700Y206780D01*
X843620Y201700D01*
X838540Y206780D01*
X1306Y825502D02*
X6386Y830582D01*
X11466Y825502D01*
X6386Y820422D01*
X1306Y825502D01*
Y565503D02*
X6386Y570583D01*
X11466Y565503D01*
X6386Y560423D01*
X1306Y565503D01*
X151243Y843614D02*
X156323Y848694D01*
X161403Y843614D01*
X156323Y838534D01*
X151243Y843614D01*
X131243D02*
X136323Y848694D01*
X141403Y843614D01*
X136323Y838534D01*
X131243Y843614D01*
X785776Y6379D02*
X790856Y11459D01*
X795936Y6379D01*
X790856Y1299D01*
X785776Y6379D01*
X81243Y843614D02*
X86323Y848694D01*
X91403Y843614D01*
X86323Y838534D01*
X81243Y843614D01*
X1306Y765502D02*
X6386Y770582D01*
X11466Y765502D01*
X6386Y760422D01*
X1306Y765502D01*
X285777Y6379D02*
X290857Y11459D01*
X295937Y6379D01*
X290857Y1299D01*
X285777Y6379D01*
X1306Y185503D02*
X6386Y190583D01*
X11466Y185503D01*
X6386Y180423D01*
X1306Y185503D01*
Y275503D02*
X6386Y280583D01*
X11466Y275503D01*
X6386Y270423D01*
X1306Y275503D01*
X431242Y843614D02*
X436322Y848694D01*
X441402Y843614D01*
X436322Y838534D01*
X431242Y843614D01*
X571242D02*
X576322Y848694D01*
X581402Y843614D01*
X576322Y838534D01*
X571242Y843614D01*
X281242D02*
X286322Y848694D01*
X291402Y843614D01*
X286322Y838534D01*
X281242Y843614D01*
X838540Y356780D02*
X843620Y361860D01*
X848700Y356780D01*
X843620Y351700D01*
X838540Y356780D01*
X545777Y6379D02*
X550857Y11459D01*
X555937Y6379D01*
X550857Y1299D01*
X545777Y6379D01*
X838540Y576779D02*
X843620Y581859D01*
X848700Y576779D01*
X843620Y571699D01*
X838540Y576779D01*
X741241Y843614D02*
X746321Y848694D01*
X751401Y843614D01*
X746321Y838534D01*
X741241Y843614D01*
X541242D02*
X546322Y848694D01*
X551402Y843614D01*
X546322Y838534D01*
X541242Y843614D01*
X838540Y196780D02*
X843620Y201860D01*
X848700Y196780D01*
X843620Y191700D01*
X838540Y196780D01*
X365777Y6379D02*
X370857Y11459D01*
X375937Y6379D01*
X370857Y1299D01*
X365777Y6379D01*
X421242Y843614D02*
X426322Y848694D01*
X431402Y843614D01*
X426322Y838534D01*
X421242Y843614D01*
X1306Y785502D02*
X6386Y790582D01*
X11466Y785502D01*
X6386Y780422D01*
X1306Y785502D01*
Y745502D02*
X6386Y750582D01*
X11466Y745502D01*
X6386Y740422D01*
X1306Y745502D01*
X671242Y843614D02*
X676322Y848694D01*
X681402Y843614D01*
X676322Y838534D01*
X671242Y843614D01*
X301242D02*
X306322Y848694D01*
X311402Y843614D01*
X306322Y838534D01*
X301242Y843614D01*
X271242D02*
X276322Y848694D01*
X281402Y843614D01*
X276322Y838534D01*
X271242Y843614D01*
X181243D02*
X186322Y848694D01*
X191402Y843614D01*
X186322Y838534D01*
X181243Y843614D01*
X101243D02*
X106323Y848694D01*
X111403Y843614D01*
X106323Y838534D01*
X101243Y843614D01*
X1306Y575502D02*
X6386Y580582D01*
X11466Y575502D01*
X6386Y570422D01*
X1306Y575502D01*
X838540Y646779D02*
X843620Y651859D01*
X848700Y646779D01*
X843620Y641699D01*
X838540Y646779D01*
Y776779D02*
X843620Y781859D01*
X848700Y776779D01*
X843620Y771699D01*
X838540Y776779D01*
X325777Y6379D02*
X330857Y11459D01*
X335937Y6379D01*
X330857Y1299D01*
X325777Y6379D01*
X838540Y226780D02*
X843620Y231860D01*
X848700Y226780D01*
X843620Y221700D01*
X838540Y226780D01*
Y346780D02*
X843620Y351860D01*
X848700Y346780D01*
X843620Y341700D01*
X838540Y346780D01*
Y746779D02*
X843620Y751859D01*
X848700Y746779D01*
X843620Y741699D01*
X838540Y746779D01*
X611242Y843614D02*
X616322Y848694D01*
X621402Y843614D01*
X616322Y838534D01*
X611242Y843614D01*
X371242D02*
X376322Y848694D01*
X381402Y843614D01*
X376322Y838534D01*
X371242Y843614D01*
X341242D02*
X346322Y848694D01*
X351402Y843614D01*
X346322Y838534D01*
X341242Y843614D01*
X171243D02*
X176323Y848694D01*
X181403Y843614D01*
X176323Y838534D01*
X171243Y843614D01*
X65778Y6379D02*
X70858Y11459D01*
X75938Y6379D01*
X70858Y1299D01*
X65778Y6379D01*
X1306Y615502D02*
X6386Y620582D01*
X11466Y615502D01*
X6386Y610422D01*
X1306Y615502D01*
X261242Y843614D02*
X266322Y848694D01*
X271402Y843614D01*
X266322Y838534D01*
X261242Y843614D01*
X335777Y6379D02*
X340857Y11459D01*
X345937Y6379D01*
X340857Y1299D01*
X335777Y6379D01*
X838540Y246780D02*
X843620Y251860D01*
X848700Y246780D01*
X843620Y241700D01*
X838540Y246780D01*
Y736779D02*
X843620Y741859D01*
X848700Y736779D01*
X843620Y731699D01*
X838540Y736779D01*
X105778Y6379D02*
X110858Y11459D01*
X115938Y6379D01*
X110858Y1299D01*
X105778Y6379D01*
X1306Y95503D02*
X6386Y100583D01*
X11466Y95503D01*
X6386Y90423D01*
X1306Y95503D01*
X838540Y436780D02*
X843620Y441860D01*
X848700Y436780D01*
X843620Y431700D01*
X838540Y436780D01*
X651242Y843614D02*
X656322Y848694D01*
X661402Y843614D01*
X656322Y838534D01*
X651242Y843614D01*
X475777Y6379D02*
X480857Y11459D01*
X485937Y6379D01*
X480857Y1299D01*
X475777Y6379D01*
X838540Y456780D02*
X843620Y461860D01*
X848700Y456780D01*
X843620Y451700D01*
X838540Y456780D01*
X291242Y843614D02*
X296322Y848694D01*
X301402Y843614D01*
X296322Y838534D01*
X291242Y843614D01*
X755776Y6379D02*
X760856Y11459D01*
X765936Y6379D01*
X760856Y1299D01*
X755776Y6379D01*
X505777D02*
X510857Y11459D01*
X515937Y6379D01*
X510857Y1299D01*
X505777Y6379D01*
X838540Y626779D02*
X843620Y631859D01*
X848700Y626779D01*
X843620Y621699D01*
X838540Y626779D01*
Y756779D02*
X843620Y761859D01*
X848700Y756779D01*
X843620Y751699D01*
X838540Y756779D01*
X75778Y6379D02*
X80858Y11459D01*
X85938Y6379D01*
X80858Y1299D01*
X75778Y6379D01*
X691242Y843614D02*
X696321Y848694D01*
X701402Y843614D01*
X696321Y838534D01*
X691242Y843614D01*
X41243D02*
X46323Y848694D01*
X51403Y843614D01*
X46323Y838534D01*
X41243Y843614D01*
X1306Y175503D02*
X6386Y180583D01*
X11466Y175503D01*
X6386Y170423D01*
X1306Y175503D01*
X345777Y6379D02*
X350857Y11459D01*
X355937Y6379D01*
X350857Y1299D01*
X345777Y6379D01*
X838540Y466780D02*
X843620Y471860D01*
X848700Y466780D01*
X843620Y461700D01*
X838540Y466780D01*
X771241Y843614D02*
X776321Y848694D01*
X781401Y843614D01*
X776321Y838534D01*
X771241Y843614D01*
X415777Y6379D02*
X420857Y11459D01*
X425937Y6379D01*
X420857Y1299D01*
X415777Y6379D01*
X838540Y336780D02*
X843620Y341860D01*
X848700Y336780D01*
X843620Y331700D01*
X838540Y336780D01*
X1306Y485503D02*
X6386Y490583D01*
X11466Y485503D01*
X6386Y480423D01*
X1306Y485503D01*
X838540Y166780D02*
X843620Y171860D01*
X848700Y166780D01*
X843620Y161700D01*
X838540Y166780D01*
X1306Y85503D02*
X6386Y90583D01*
X11466Y85503D01*
X6386Y80423D01*
X1306Y85503D01*
X331242Y843614D02*
X336322Y848694D01*
X341402Y843614D01*
X336322Y838534D01*
X331242Y843614D01*
X1306Y695502D02*
X6386Y700582D01*
X11466Y695502D01*
X6386Y690422D01*
X1306Y695502D01*
Y755502D02*
X6386Y760582D01*
X11466Y755502D01*
X6386Y750422D01*
X1306Y755502D01*
X481242Y843614D02*
X486322Y848694D01*
X491402Y843614D01*
X486322Y838534D01*
X481242Y843614D01*
X1306Y705502D02*
X6386Y710582D01*
X11466Y705502D01*
X6386Y700422D01*
X1306Y705502D01*
X195778Y6379D02*
X200858Y11459D01*
X205938Y6379D01*
X200858Y1299D01*
X195778Y6379D01*
X495777D02*
X500857Y11459D01*
X505937Y6379D01*
X500857Y1299D01*
X495777Y6379D01*
X1306Y585502D02*
X6386Y590582D01*
X11466Y585502D01*
X6386Y580422D01*
X1306Y585502D01*
X45778Y6379D02*
X50858Y11459D01*
X55938Y6379D01*
X50858Y1299D01*
X45778Y6379D01*
X615777D02*
X620857Y11459D01*
X625937Y6379D01*
X620857Y1299D01*
X615777Y6379D01*
X838540Y296780D02*
X843620Y301860D01*
X848700Y296780D01*
X843620Y291700D01*
X838540Y296780D01*
Y116780D02*
X843620Y121860D01*
X848700Y116780D01*
X843620Y111700D01*
X838540Y116780D01*
Y506780D02*
X843620Y511860D01*
X848700Y506780D01*
X843620Y501699D01*
X838540Y506780D01*
X721242Y843614D02*
X726321Y848694D01*
X731402Y843614D01*
X726321Y838534D01*
X721242Y843614D01*
X451242D02*
X456322Y848694D01*
X461402Y843614D01*
X456322Y838534D01*
X451242Y843614D01*
X838540Y816779D02*
X843620Y821859D01*
X848700Y816779D01*
X843620Y811699D01*
X838540Y816779D01*
Y596779D02*
X843620Y601859D01*
X848700Y596779D01*
X843620Y591699D01*
X838540Y596779D01*
X781241Y843614D02*
X786321Y848694D01*
X791401Y843614D01*
X786321Y838534D01*
X781241Y843614D01*
X631242D02*
X636322Y848694D01*
X641402Y843614D01*
X636322Y838534D01*
X631242Y843614D01*
X1306Y45504D02*
X6386Y50584D01*
X11466Y45504D01*
X6386Y40423D01*
X1306Y45504D01*
X461242Y843614D02*
X466322Y848694D01*
X471402Y843614D01*
X466322Y838534D01*
X461242Y843614D01*
X838540Y46780D02*
X843620Y51860D01*
X848700Y46780D01*
X843620Y41700D01*
X838540Y46780D01*
X485777Y6379D02*
X490857Y11459D01*
X495937Y6379D01*
X490857Y1299D01*
X485777Y6379D01*
X1306Y265503D02*
X6386Y270583D01*
X11466Y265503D01*
X6386Y260423D01*
X1306Y265503D01*
Y15504D02*
X6386Y20584D01*
X11466Y15504D01*
X6386Y10424D01*
X1306Y15504D01*
X838540Y516780D02*
X843620Y521860D01*
X848700Y516780D01*
X843620Y511699D01*
X838540Y516780D01*
X561242Y843614D02*
X566322Y848694D01*
X571402Y843614D01*
X566322Y838534D01*
X561242Y843614D01*
X161243D02*
X166323Y848694D01*
X171403Y843614D01*
X166323Y838534D01*
X161243Y843614D01*
X1306Y605502D02*
X6386Y610582D01*
X11466Y605502D01*
X6386Y600422D01*
X1306Y605502D01*
X175778Y6379D02*
X180858Y11459D01*
X185938Y6379D01*
X180858Y1299D01*
X175778Y6379D01*
X1306Y155503D02*
X6386Y160583D01*
X11466Y155503D01*
X6386Y150423D01*
X1306Y155503D01*
Y105503D02*
X6386Y110583D01*
X11466Y105503D01*
X6386Y100423D01*
X1306Y105503D01*
X838540Y36780D02*
X843620Y41860D01*
X848700Y36780D01*
X843620Y31700D01*
X838540Y36780D01*
X231242Y843614D02*
X236322Y848694D01*
X241402Y843614D01*
X236322Y838534D01*
X231242Y843614D01*
X1306Y395503D02*
X6386Y400583D01*
X11466Y395503D01*
X6386Y390423D01*
X1306Y395503D01*
Y725502D02*
X6386Y730582D01*
X11466Y725502D01*
X6386Y720422D01*
X1306Y725502D01*
Y515503D02*
X6386Y520583D01*
X11466Y515503D01*
X6386Y510423D01*
X1306Y515503D01*
Y805502D02*
X6386Y810582D01*
X11466Y805502D01*
X6386Y800422D01*
X1306Y805502D01*
Y75503D02*
X6386Y80583D01*
X11466Y75503D01*
X6386Y70423D01*
X1306Y75503D01*
X641242Y843614D02*
X646322Y848694D01*
X651402Y843614D01*
X646322Y838534D01*
X641242Y843614D01*
X1306Y135503D02*
X6386Y140583D01*
X11466Y135503D01*
X6386Y130423D01*
X1306Y135503D01*
Y145503D02*
X6386Y150583D01*
X11466Y145503D01*
X6386Y140423D01*
X1306Y145503D01*
X635777Y6379D02*
X640857Y11459D01*
X645937Y6379D01*
X640857Y1299D01*
X635777Y6379D01*
X838540Y26781D02*
X843620Y31860D01*
X848700Y26781D01*
X843620Y21700D01*
X838540Y26781D01*
X355777Y6379D02*
X360857Y11459D01*
X365937Y6379D01*
X360857Y1299D01*
X355777Y6379D01*
X1306Y445503D02*
X6386Y450583D01*
X11466Y445503D01*
X6386Y440423D01*
X1306Y445503D01*
X838540Y106780D02*
X843620Y111860D01*
X848700Y106780D01*
X843620Y101700D01*
X838540Y106780D01*
X401242Y843614D02*
X406322Y848694D01*
X411402Y843614D01*
X406322Y838534D01*
X401242Y843614D01*
X251242D02*
X256322Y848694D01*
X261402Y843614D01*
X256322Y838534D01*
X251242Y843614D01*
X1306Y365503D02*
X6386Y370583D01*
X11466Y365503D01*
X6386Y360423D01*
X1306Y365503D01*
X185778Y6379D02*
X190858Y11459D01*
X195938Y6379D01*
X190858Y1299D01*
X185778Y6379D01*
X661242Y843614D02*
X666322Y848694D01*
X671402Y843614D01*
X666322Y838534D01*
X661242Y843614D01*
X1306Y295503D02*
X6386Y300583D01*
X11466Y295503D01*
X6386Y290423D01*
X1306Y295503D01*
X838540Y396780D02*
X843620Y401860D01*
X848700Y396780D01*
X843620Y391700D01*
X838540Y396780D01*
X1306Y345503D02*
X6386Y350583D01*
X11466Y345503D01*
X6386Y340423D01*
X1306Y345503D01*
X838540Y536779D02*
X843620Y541859D01*
X848700Y536779D01*
X843620Y531699D01*
X838540Y536779D01*
X55778Y6379D02*
X60858Y11459D01*
X65938Y6379D01*
X60858Y1299D01*
X55778Y6379D01*
X838540Y666779D02*
X843620Y671859D01*
X848700Y666779D01*
X843620Y661699D01*
X838540Y666779D01*
X565777Y6379D02*
X570857Y11459D01*
X575937Y6379D01*
X570857Y1299D01*
X565777Y6379D01*
X761241Y843614D02*
X766321Y848694D01*
X771401Y843614D01*
X766321Y838534D01*
X761241Y843614D01*
X51243D02*
X56323Y848694D01*
X61403Y843614D01*
X56323Y838534D01*
X51243Y843614D01*
X1306Y505503D02*
X6386Y510583D01*
X11466Y505503D01*
X6386Y500423D01*
X1306Y505503D01*
X525777Y6379D02*
X530857Y11459D01*
X535937Y6379D01*
X530857Y1299D01*
X525777Y6379D01*
X1306Y65504D02*
X6386Y70584D01*
X11466Y65504D01*
X6386Y60423D01*
X1306Y65504D01*
X265777Y6379D02*
X270857Y11459D01*
X275937Y6379D01*
X270857Y1299D01*
X265777Y6379D01*
X191243Y843614D02*
X196322Y848694D01*
X201402Y843614D01*
X196322Y838534D01*
X191243Y843614D01*
X71243D02*
X76323Y848694D01*
X81403Y843614D01*
X76323Y838534D01*
X71243Y843614D01*
X838540Y256780D02*
X843620Y261860D01*
X848700Y256780D01*
X843620Y251700D01*
X838540Y256780D01*
X1306Y495503D02*
X6386Y500583D01*
X11466Y495503D01*
X6386Y490423D01*
X1306Y495503D01*
X838540Y286780D02*
X843620Y291860D01*
X848700Y286780D01*
X843620Y281700D01*
X838540Y286780D01*
Y326780D02*
X843620Y331860D01*
X848700Y326780D01*
X843620Y321700D01*
X838540Y326780D01*
Y376780D02*
X843620Y381860D01*
X848700Y376780D01*
X843620Y371700D01*
X838540Y376780D01*
Y446780D02*
X843620Y451860D01*
X848700Y446780D01*
X843620Y441700D01*
X838540Y446780D01*
X621242Y843614D02*
X626322Y848694D01*
X631402Y843614D01*
X626322Y838534D01*
X621242Y843614D01*
X295777Y6379D02*
X300857Y11459D01*
X305937Y6379D01*
X300857Y1299D01*
X295777Y6379D01*
X1306Y55504D02*
X6386Y60584D01*
X11466Y55504D01*
X6386Y50423D01*
X1306Y55504D01*
X685777Y6379D02*
X690857Y11459D01*
X695937Y6379D01*
X690857Y1299D01*
X685777Y6379D01*
X838540Y56780D02*
X843620Y61860D01*
X848700Y56780D01*
X843620Y51700D01*
X838540Y56780D01*
Y546779D02*
X843620Y551859D01*
X848700Y546779D01*
X843620Y541699D01*
X838540Y546779D01*
Y606779D02*
X843620Y611859D01*
X848700Y606779D01*
X843620Y601699D01*
X838540Y606779D01*
X515777Y6379D02*
X520857Y11459D01*
X525937Y6379D01*
X520857Y1299D01*
X515777Y6379D01*
X745777D02*
X750856Y11459D01*
X755937Y6379D01*
X750856Y1299D01*
X745777Y6379D01*
X838540Y826779D02*
X843620Y831859D01*
X848700Y826779D01*
X843620Y821699D01*
X838540Y826779D01*
X1306Y315503D02*
X6386Y320583D01*
X11466Y315503D01*
X6386Y310423D01*
X1306Y315503D01*
X795776Y6379D02*
X800856Y11459D01*
X805936Y6379D01*
X800856Y1299D01*
X795776Y6379D01*
X701242Y843614D02*
X706321Y848694D01*
X711402Y843614D01*
X706321Y838534D01*
X701242Y843614D01*
X35778Y6379D02*
X40858Y11459D01*
X45938Y6379D01*
X40858Y1299D01*
X35778Y6379D01*
X441242Y843614D02*
X446322Y848694D01*
X451402Y843614D01*
X446322Y838534D01*
X441242Y843614D01*
X838540Y696779D02*
X843620Y701859D01*
X848700Y696779D01*
X843620Y691699D01*
X838540Y696779D01*
X405777Y6379D02*
X410857Y11459D01*
X415937Y6379D01*
X410857Y1299D01*
X405777Y6379D01*
X201243Y843614D02*
X206322Y848694D01*
X211402Y843614D01*
X206322Y838534D01*
X201243Y843614D01*
X5780Y6560D02*
X10860Y11640D01*
X15940Y6560D01*
X10860Y1480D01*
X5780Y6560D01*
X838540Y656779D02*
X843620Y661859D01*
X848700Y656779D01*
X843620Y651699D01*
X838540Y656779D01*
Y716779D02*
X843620Y721859D01*
X848700Y716779D01*
X843620Y711699D01*
X838540Y716779D01*
X675777Y6379D02*
X680857Y11459D01*
X685937Y6379D01*
X680857Y1299D01*
X675777Y6379D01*
X1306Y555503D02*
X6386Y560583D01*
X11466Y555503D01*
X6386Y550423D01*
X1306Y555503D01*
X575777Y6379D02*
X580857Y11459D01*
X585937Y6379D01*
X580857Y1299D01*
X575777Y6379D01*
X838540Y676779D02*
X843620Y681859D01*
X848700Y676779D01*
X843620Y671699D01*
X838540Y676779D01*
X511242Y843614D02*
X516322Y848694D01*
X521402Y843614D01*
X516322Y838534D01*
X511242Y843614D01*
X135778Y6379D02*
X140858Y11459D01*
X145938Y6379D01*
X140858Y1299D01*
X135778Y6379D01*
X1306Y655502D02*
X6386Y660582D01*
X11466Y655502D01*
X6386Y650422D01*
X1306Y655502D01*
Y115503D02*
X6386Y120583D01*
X11466Y115503D01*
X6386Y110423D01*
X1306Y115503D01*
Y375503D02*
X6386Y380583D01*
X11466Y375503D01*
X6386Y370423D01*
X1306Y375503D01*
Y215503D02*
X6386Y220583D01*
X11466Y215503D01*
X6386Y210423D01*
X1306Y215503D01*
Y475503D02*
X6386Y480583D01*
X11466Y475503D01*
X6386Y470423D01*
X1306Y475503D01*
X838540Y236780D02*
X843620Y241860D01*
X848700Y236780D01*
X843620Y231700D01*
X838540Y236780D01*
X591242Y843614D02*
X596322Y848694D01*
X601402Y843614D01*
X596322Y838534D01*
X591242Y843614D01*
X1306Y245503D02*
X6386Y250583D01*
X11466Y245503D01*
X6386Y240423D01*
X1306Y245503D01*
Y235503D02*
X6386Y240583D01*
X11466Y235503D01*
X6386Y230423D01*
X1306Y235503D01*
Y415503D02*
X6386Y420583D01*
X11466Y415503D01*
X6386Y410423D01*
X1306Y415503D01*
Y675502D02*
X6386Y680582D01*
X11466Y675502D01*
X6386Y670422D01*
X1306Y675502D01*
Y205503D02*
X6386Y210583D01*
X11466Y205503D01*
X6386Y200423D01*
X1306Y205503D01*
Y195503D02*
X6386Y200583D01*
X11466Y195503D01*
X6386Y190423D01*
X1306Y195503D01*
X125778Y6379D02*
X130858Y11459D01*
X135938Y6379D01*
X130858Y1299D01*
X125778Y6379D01*
X705777D02*
X710856Y11459D01*
X715937Y6379D01*
X710856Y1299D01*
X705777Y6379D01*
X715777D02*
X720856Y11459D01*
X725937Y6379D01*
X720856Y1299D01*
X715777Y6379D01*
X838540Y486780D02*
X843620Y491860D01*
X848700Y486780D01*
X843620Y481699D01*
X838540Y486780D01*
Y496780D02*
X843620Y501860D01*
X848700Y496780D01*
X843620Y491699D01*
X838540Y496780D01*
X839724Y806704D02*
X844804Y811784D01*
X849884Y806704D01*
X844804Y801624D01*
X839724Y806704D01*
X839739Y795831D02*
X844819Y800911D01*
X849899Y795831D01*
X844819Y790751D01*
X839739Y795831D01*
X801203Y844220D02*
X806283Y849300D01*
X811363Y844220D01*
X806283Y839140D01*
X801203Y844220D01*
X790140Y844373D02*
X795220Y849453D01*
X800300Y844373D01*
X795220Y839293D01*
X790140Y844373D01*
X941Y795118D02*
X6021Y800198D01*
X11101Y795118D01*
X6021Y790038D01*
X941Y795118D01*
X817118Y6858D02*
X822198Y11938D01*
X827278Y6858D01*
X822198Y1778D01*
X817118Y6858D01*
X828802Y6347D02*
X833882Y11427D01*
X838962Y6347D01*
X833882Y1267D01*
X828802Y6347D01*
X837045Y8881D02*
X842125Y13961D01*
X847205Y8881D01*
X842125Y3801D01*
X837045Y8881D01*
X515279Y678786D02*
X520359Y683866D01*
X525439Y678786D01*
X520359Y673706D01*
X515279Y678786D01*
X554856Y673595D02*
X559936Y678675D01*
X565016Y673595D01*
X559936Y668515D01*
X554856Y673595D01*
X594880Y673453D02*
X599961Y678533D01*
X605041Y673453D01*
X599961Y668373D01*
X594880Y673453D01*
X634828Y679047D02*
X639908Y684127D01*
X644988Y679047D01*
X639908Y673967D01*
X634828Y679047D01*
X119595Y744453D02*
X124675Y749533D01*
X129755Y744453D01*
X124675Y739373D01*
X119595Y744453D01*
X128430Y652971D02*
X133510Y658051D01*
X138590Y652971D01*
X133510Y647891D01*
X128430Y652971D01*
X737953Y608760D02*
X743033Y613840D01*
X748113Y608760D01*
X743033Y603680D01*
X737953Y608760D01*
Y614540D02*
X743033Y619620D01*
X748113Y614540D01*
X743033Y609460D01*
X737953Y614540D01*
X737738Y558816D02*
X742818Y563896D01*
X747898Y558816D01*
X742818Y553736D01*
X737738Y558816D01*
Y564596D02*
X742818Y569676D01*
X747898Y564596D01*
X742818Y559516D01*
X737738Y564596D01*
X737953Y584034D02*
X743033Y589114D01*
X748113Y584034D01*
X743033Y578954D01*
X737953Y584034D01*
Y589814D02*
X743033Y594894D01*
X748113Y589814D01*
X743033Y584734D01*
X737953Y589814D01*
X111423Y371196D02*
X116503Y376276D01*
X121583Y371196D01*
X116503Y366116D01*
X111423Y371196D01*
X100047Y370919D02*
X105127Y375999D01*
X110207Y370919D01*
X105127Y365840D01*
X100047Y370919D01*
X100679Y355801D02*
X105759Y360881D01*
X110839Y355801D01*
X105759Y350721D01*
X100679Y355801D01*
X111021Y356075D02*
X116101Y361155D01*
X121181Y356075D01*
X116101Y350995D01*
X111021Y356075D01*
X435843Y207642D02*
X440923Y212722D01*
X446003Y207642D01*
X440923Y202562D01*
X435843Y207642D01*
X456360D02*
X461440Y212722D01*
X466520Y207642D01*
X461440Y202562D01*
X456360Y207642D01*
X466618D02*
X471698Y212722D01*
X476778Y207642D01*
X471698Y202562D01*
X466618Y207642D01*
X446101D02*
X451181Y212722D01*
X456261Y207642D01*
X451181Y202562D01*
X446101Y207642D01*
X525435Y244712D02*
X530515Y249792D01*
X535595Y244712D01*
X530515Y239632D01*
X525435Y244712D01*
X476877Y207642D02*
X481957Y212722D01*
X487037Y207642D01*
X481957Y202562D01*
X476877Y207642D01*
X487136D02*
X492216Y212722D01*
X497296Y207642D01*
X492216Y202562D01*
X487136Y207642D01*
X311404Y617982D02*
X316484Y623062D01*
X321564Y617982D01*
X316484Y612902D01*
X311404Y617982D01*
X295402Y402336D02*
X300482Y407416D01*
X305562Y402336D01*
X300482Y397256D01*
X295402Y402336D01*
X302514Y374142D02*
X307594Y379222D01*
X312674Y374142D01*
X307594Y369062D01*
X302514Y374142D01*
X297180Y348581D02*
X302260Y353661D01*
X307340Y348581D01*
X302260Y343501D01*
X297180Y348581D01*
X156972Y361007D02*
X162052Y366087D01*
X167132Y361007D01*
X162052Y355927D01*
X156972Y361007D01*
Y370749D02*
X162052Y375829D01*
X167132Y370749D01*
X162052Y365669D01*
X156972Y370749D01*
Y380492D02*
X162052Y385572D01*
X167132Y380492D01*
X162052Y375412D01*
X156972Y380492D01*
X358140Y292054D02*
X363220Y297134D01*
X368300Y292054D01*
X363220Y286974D01*
X358140Y292054D01*
Y257674D02*
X363220Y262754D01*
X368300Y257674D01*
X363220Y252594D01*
X358140Y257674D01*
X337106D02*
X342186Y262754D01*
X347266Y257674D01*
X342186Y252594D01*
X337106Y257674D01*
X456692Y291261D02*
X461772Y296341D01*
X466852Y291261D01*
X461772Y286181D01*
X456692Y291261D01*
X542036Y591820D02*
X547116Y596900D01*
X552196Y591820D01*
X547116Y586740D01*
X542036Y591820D01*
X622731Y386204D02*
X627811Y391284D01*
X632891Y386204D01*
X627811Y381124D01*
X622731Y386204D01*
X611886Y374284D02*
X616966Y379364D01*
X622046Y374284D01*
X616966Y369204D01*
X611886Y374284D01*
X665239Y106258D02*
X670319Y111338D01*
X675399Y106258D01*
X670319Y101178D01*
X665239Y106258D01*
X626407Y94742D02*
X631487Y99822D01*
X636567Y94742D01*
X631487Y89662D01*
X626407Y94742D01*
X608873D02*
X613953Y99822D01*
X619033Y94742D01*
X613953Y89662D01*
X608873Y94742D01*
X591088D02*
X596169Y99822D01*
X601249Y94742D01*
X596169Y89662D01*
X591088Y94742D01*
X579920Y110962D02*
X585000Y116042D01*
X590080Y110962D01*
X585000Y105882D01*
X579920Y110962D01*
X533728Y106258D02*
X538808Y111338D01*
X543888Y106258D01*
X538808Y101178D01*
X533728Y106258D01*
X620522Y197136D02*
X625602Y202216D01*
X630682Y197136D01*
X625602Y192056D01*
X620522Y197136D01*
X495429Y206724D02*
X500508Y211804D01*
X505588Y206724D01*
X500508Y201644D01*
X495429Y206724D01*
X455676Y139954D02*
X460756Y145034D01*
X465836Y139954D01*
X460756Y134874D01*
X455676Y139954D01*
X410690Y93263D02*
X415770Y98343D01*
X420850Y93263D01*
X415770Y88183D01*
X410690Y93263D01*
X373980D02*
X379060Y98343D01*
X384140Y93263D01*
X379060Y88183D01*
X373980Y93263D01*
X323558D02*
X328638Y98343D01*
X333718Y93263D01*
X328638Y88183D01*
X323558Y93263D01*
X223497Y123190D02*
X228577Y128270D01*
X233657Y123190D01*
X228577Y118110D01*
X223497Y123190D01*
Y111760D02*
X228577Y116840D01*
X233657Y111760D01*
X228577Y106680D01*
X223497Y111760D01*
X241995Y123190D02*
X247075Y128270D01*
X252155Y123190D01*
X247075Y118110D01*
X241995Y123190D01*
Y111760D02*
X247075Y116840D01*
X252155Y111760D01*
X247075Y106680D01*
X241995Y111760D01*
X300206Y195595D02*
X305286Y200676D01*
X310366Y195595D01*
X305286Y190515D01*
X300206Y195595D01*
X182714Y184284D02*
X187794Y189363D01*
X192873Y184284D01*
X187794Y179203D01*
X182714Y184284D01*
X196510Y195595D02*
X201590Y200676D01*
X206670Y195595D01*
X201590Y190515D01*
X196510Y195595D01*
X157972Y286086D02*
X163053Y291166D01*
X168132Y286086D01*
X163053Y281006D01*
X157972Y286086D01*
X136940Y256451D02*
X142020Y261531D01*
X147100Y256451D01*
X142020Y251371D01*
X136940Y256451D01*
X40543Y512119D02*
X45623Y517199D01*
X50703Y512119D01*
X45623Y507039D01*
X40543Y512119D01*
X27178Y505206D02*
X32258Y510286D01*
X37338Y505206D01*
X32258Y500126D01*
X27178Y505206D01*
X133920Y525250D02*
X139000Y530330D01*
X144080Y525250D01*
X139000Y520170D01*
X133920Y525250D01*
X274928Y581139D02*
X280008Y586219D01*
X285088Y581139D01*
X280008Y576059D01*
X274928Y581139D01*
X222504Y616458D02*
X227584Y621538D01*
X232664Y616458D01*
X227584Y611378D01*
X222504Y616458D01*
X571974Y415045D02*
X577054Y420125D01*
X582134Y415045D01*
X577054Y409965D01*
X571974Y415045D01*
X15778Y6379D02*
X20858Y11459D01*
X25938Y6379D01*
X20858Y1299D01*
X15778Y6379D01*
X225777D02*
X230858Y11459D01*
X235938Y6379D01*
X230858Y1299D01*
X225777Y6379D01*
X1306Y595502D02*
X6386Y600582D01*
X11466Y595502D01*
X6386Y590422D01*
X1306Y595502D01*
X645777Y6379D02*
X650857Y11459D01*
X655937Y6379D01*
X650857Y1299D01*
X645777Y6379D01*
X838540Y566779D02*
X843620Y571859D01*
X848700Y566779D01*
X843620Y561699D01*
X838540Y566779D01*
X601242Y843614D02*
X606322Y848694D01*
X611402Y843614D01*
X606322Y838534D01*
X601242Y843614D01*
X775776Y6379D02*
X780856Y11459D01*
X785936Y6379D01*
X780856Y1299D01*
X775776Y6379D01*
X521242Y843614D02*
X526322Y848694D01*
X531402Y843614D01*
X526322Y838534D01*
X521242Y843614D01*
X205777Y6379D02*
X210858Y11459D01*
X215938Y6379D01*
X210858Y1299D01*
X205777Y6379D01*
X445777D02*
X450857Y11459D01*
X455937Y6379D01*
X450857Y1299D01*
X445777Y6379D01*
X145778D02*
X150858Y11459D01*
X155938Y6379D01*
X150858Y1299D01*
X145778Y6379D01*
X838540Y476780D02*
X843620Y481860D01*
X848700Y476780D01*
X843620Y471700D01*
X838540Y476780D01*
X211243Y843614D02*
X216322Y848694D01*
X221402Y843614D01*
X216322Y838534D01*
X211243Y843614D01*
X811241D02*
X816321Y848694D01*
X821401Y843614D01*
X816321Y838534D01*
X811241Y843614D01*
X1306Y465503D02*
X6386Y470583D01*
X11466Y465503D01*
X6386Y460423D01*
X1306Y465503D01*
X255777Y6379D02*
X260857Y11459D01*
X265937Y6379D01*
X260857Y1299D01*
X255777Y6379D01*
X838540Y16781D02*
X843620Y21860D01*
X848700Y16781D01*
X843620Y11701D01*
X838540Y16781D01*
X1306Y535503D02*
X6386Y540583D01*
X11466Y535503D01*
X6386Y530423D01*
X1306Y535503D01*
X405206Y818782D02*
X410286Y823862D01*
X415366Y818782D01*
X410286Y813702D01*
X405206Y818782D01*
X420206Y338782D02*
X425286Y343862D01*
X430366Y338782D01*
X425286Y333702D01*
X420206Y338782D01*
Y353782D02*
X425286Y358862D01*
X430366Y353782D01*
X425286Y348702D01*
X420206Y353782D01*
Y623782D02*
X425286Y628862D01*
X430366Y623782D01*
X425286Y618702D01*
X420206Y623782D01*
Y638782D02*
X425286Y643862D01*
X430366Y638782D01*
X425286Y633702D01*
X420206Y638782D01*
Y788782D02*
X425286Y793862D01*
X430366Y788782D01*
X425286Y783702D01*
X420206Y788782D01*
Y803782D02*
X425286Y808862D01*
X430366Y803782D01*
X425286Y798702D01*
X420206Y803782D01*
Y818782D02*
X425286Y823862D01*
X430366Y818782D01*
X425286Y813702D01*
X420206Y818782D01*
X435206Y593782D02*
X440286Y598862D01*
X445366Y593782D01*
X440286Y588702D01*
X435206Y593782D01*
Y623782D02*
X440286Y628862D01*
X445366Y623782D01*
X440286Y618702D01*
X435206Y623782D01*
Y638782D02*
X440286Y643862D01*
X445366Y638782D01*
X440286Y633702D01*
X435206Y638782D01*
Y713782D02*
X440286Y718862D01*
X445366Y713782D01*
X440286Y708702D01*
X435206Y713782D01*
Y728782D02*
X440286Y733862D01*
X445366Y728782D01*
X440286Y723702D01*
X435206Y728782D01*
Y788782D02*
X440286Y793862D01*
X445366Y788782D01*
X440286Y783702D01*
X435206Y788782D01*
Y803782D02*
X440286Y808862D01*
X445366Y803782D01*
X440286Y798702D01*
X435206Y803782D01*
Y818782D02*
X440286Y823862D01*
X445366Y818782D01*
X440286Y813702D01*
X435206Y818782D01*
X450206Y473782D02*
X455286Y478862D01*
X460366Y473782D01*
X455286Y468702D01*
X450206Y473782D01*
Y623782D02*
X455286Y628862D01*
X460366Y623782D01*
X455286Y618702D01*
X450206Y623782D01*
Y728782D02*
X455286Y733862D01*
X460366Y728782D01*
X455286Y723702D01*
X450206Y728782D01*
Y758782D02*
X455286Y763862D01*
X460366Y758782D01*
X455286Y753702D01*
X450206Y758782D01*
Y788782D02*
X455286Y793862D01*
X460366Y788782D01*
X455286Y783702D01*
X450206Y788782D01*
Y803782D02*
X455286Y808862D01*
X460366Y803782D01*
X455286Y798702D01*
X450206Y803782D01*
Y818782D02*
X455286Y823862D01*
X460366Y818782D01*
X455286Y813702D01*
X450206Y818782D01*
X465206Y278782D02*
X470286Y283862D01*
X475366Y278782D01*
X470286Y273702D01*
X465206Y278782D01*
Y713782D02*
X470286Y718862D01*
X475366Y713782D01*
X470286Y708702D01*
X465206Y713782D01*
Y728782D02*
X470286Y733862D01*
X475366Y728782D01*
X470286Y723702D01*
X465206Y728782D01*
Y758782D02*
X470286Y763862D01*
X475366Y758782D01*
X470286Y753702D01*
X465206Y758782D01*
Y773782D02*
X470286Y778862D01*
X475366Y773782D01*
X470286Y768702D01*
X465206Y773782D01*
Y788782D02*
X470286Y793862D01*
X475366Y788782D01*
X470286Y783702D01*
X465206Y788782D01*
Y803782D02*
X470286Y808862D01*
X475366Y803782D01*
X470286Y798702D01*
X465206Y803782D01*
Y818782D02*
X470286Y823862D01*
X475366Y818782D01*
X470286Y813702D01*
X465206Y818782D01*
X480206Y278782D02*
X485286Y283862D01*
X490366Y278782D01*
X485286Y273702D01*
X480206Y278782D01*
Y653782D02*
X485286Y658862D01*
X490366Y653782D01*
X485286Y648702D01*
X480206Y653782D01*
Y668782D02*
X485286Y673862D01*
X490366Y668782D01*
X485286Y663702D01*
X480206Y668782D01*
Y683782D02*
X485286Y688862D01*
X490366Y683782D01*
X485286Y678702D01*
X480206Y683782D01*
Y713782D02*
X485286Y718862D01*
X490366Y713782D01*
X485286Y708702D01*
X480206Y713782D01*
Y728782D02*
X485286Y733862D01*
X490366Y728782D01*
X485286Y723702D01*
X480206Y728782D01*
Y758782D02*
X485286Y763862D01*
X490366Y758782D01*
X485286Y753702D01*
X480206Y758782D01*
Y773782D02*
X485286Y778862D01*
X490366Y773782D01*
X485286Y768702D01*
X480206Y773782D01*
Y788782D02*
X485286Y793862D01*
X490366Y788782D01*
X485286Y783702D01*
X480206Y788782D01*
Y803782D02*
X485286Y808862D01*
X490366Y803782D01*
X485286Y798702D01*
X480206Y803782D01*
Y818782D02*
X485286Y823862D01*
X490366Y818782D01*
X485286Y813702D01*
X480206Y818782D01*
X495206Y638782D02*
X500286Y643862D01*
X505366Y638782D01*
X500286Y633702D01*
X495206Y638782D01*
Y698782D02*
X500286Y703862D01*
X505366Y698782D01*
X500286Y693702D01*
X495206Y698782D01*
Y713782D02*
X500286Y718862D01*
X505366Y713782D01*
X500286Y708702D01*
X495206Y713782D01*
Y728782D02*
X500286Y733862D01*
X505366Y728782D01*
X500286Y723702D01*
X495206Y728782D01*
Y743782D02*
X500286Y748862D01*
X505366Y743782D01*
X500286Y738702D01*
X495206Y743782D01*
Y758782D02*
X500286Y763862D01*
X505366Y758782D01*
X500286Y753702D01*
X495206Y758782D01*
Y773782D02*
X500286Y778862D01*
X505366Y773782D01*
X500286Y768702D01*
X495206Y773782D01*
Y788782D02*
X500286Y793862D01*
X505366Y788782D01*
X500286Y783702D01*
X495206Y788782D01*
Y803782D02*
X500286Y808862D01*
X505366Y803782D01*
X500286Y798702D01*
X495206Y803782D01*
Y818782D02*
X500286Y823862D01*
X505366Y818782D01*
X500286Y813702D01*
X495206Y818782D01*
X510206Y713782D02*
X515286Y718862D01*
X520366Y713782D01*
X515286Y708702D01*
X510206Y713782D01*
Y728782D02*
X515286Y733862D01*
X520366Y728782D01*
X515286Y723702D01*
X510206Y728782D01*
Y743782D02*
X515286Y748862D01*
X520366Y743782D01*
X515286Y738702D01*
X510206Y743782D01*
Y758782D02*
X515286Y763862D01*
X520366Y758782D01*
X515286Y753702D01*
X510206Y758782D01*
Y773782D02*
X515286Y778862D01*
X520366Y773782D01*
X515286Y768702D01*
X510206Y773782D01*
Y788782D02*
X515286Y793862D01*
X520366Y788782D01*
X515286Y783702D01*
X510206Y788782D01*
Y803782D02*
X515286Y808862D01*
X520366Y803782D01*
X515286Y798702D01*
X510206Y803782D01*
Y818782D02*
X515286Y823862D01*
X520366Y818782D01*
X515286Y813702D01*
X510206Y818782D01*
X525206Y353782D02*
X530286Y358862D01*
X535366Y353782D01*
X530286Y348702D01*
X525206Y353782D01*
Y653782D02*
X530286Y658862D01*
X535366Y653782D01*
X530286Y648702D01*
X525206Y653782D01*
Y713782D02*
X530286Y718862D01*
X535366Y713782D01*
X530286Y708702D01*
X525206Y713782D01*
Y728782D02*
X530286Y733862D01*
X535366Y728782D01*
X530286Y723702D01*
X525206Y728782D01*
Y743782D02*
X530286Y748862D01*
X535366Y743782D01*
X530286Y738702D01*
X525206Y743782D01*
Y758782D02*
X530286Y763862D01*
X535366Y758782D01*
X530286Y753702D01*
X525206Y758782D01*
Y773782D02*
X530286Y778862D01*
X535366Y773782D01*
X530286Y768702D01*
X525206Y773782D01*
Y788782D02*
X530286Y793862D01*
X535366Y788782D01*
X530286Y783702D01*
X525206Y788782D01*
Y803782D02*
X530286Y808862D01*
X535366Y803782D01*
X530286Y798702D01*
X525206Y803782D01*
Y818782D02*
X530286Y823862D01*
X535366Y818782D01*
X530286Y813702D01*
X525206Y818782D01*
X540206Y278782D02*
X545286Y283862D01*
X550366Y278782D01*
X545286Y273702D01*
X540206Y278782D01*
Y473782D02*
X545286Y478862D01*
X550366Y473782D01*
X545286Y468702D01*
X540206Y473782D01*
Y518782D02*
X545286Y523862D01*
X550366Y518782D01*
X545286Y513702D01*
X540206Y518782D01*
Y713782D02*
X545286Y718862D01*
X550366Y713782D01*
X545286Y708702D01*
X540206Y713782D01*
Y728782D02*
X545286Y733862D01*
X550366Y728782D01*
X545286Y723702D01*
X540206Y728782D01*
Y743782D02*
X545286Y748862D01*
X550366Y743782D01*
X545286Y738702D01*
X540206Y743782D01*
Y758782D02*
X545286Y763862D01*
X550366Y758782D01*
X545286Y753702D01*
X540206Y758782D01*
Y773782D02*
X545286Y778862D01*
X550366Y773782D01*
X545286Y768702D01*
X540206Y773782D01*
Y788782D02*
X545286Y793862D01*
X550366Y788782D01*
X545286Y783702D01*
X540206Y788782D01*
Y803782D02*
X545286Y808862D01*
X550366Y803782D01*
X545286Y798702D01*
X540206Y803782D01*
Y818782D02*
X545286Y823862D01*
X550366Y818782D01*
X545286Y813702D01*
X540206Y818782D01*
X555206Y443782D02*
X560286Y448862D01*
X565366Y443782D01*
X560286Y438702D01*
X555206Y443782D01*
Y488782D02*
X560286Y493862D01*
X565366Y488782D01*
X560286Y483702D01*
X555206Y488782D01*
Y548782D02*
X560286Y553862D01*
X565366Y548782D01*
X560286Y543702D01*
X555206Y548782D01*
Y563782D02*
X560286Y568862D01*
X565366Y563782D01*
X560286Y558702D01*
X555206Y563782D01*
Y638782D02*
X560286Y643862D01*
X565366Y638782D01*
X560286Y633702D01*
X555206Y638782D01*
Y713782D02*
X560286Y718862D01*
X565366Y713782D01*
X560286Y708702D01*
X555206Y713782D01*
Y728782D02*
X560286Y733862D01*
X565366Y728782D01*
X560286Y723702D01*
X555206Y728782D01*
Y743782D02*
X560286Y748862D01*
X565366Y743782D01*
X560286Y738702D01*
X555206Y743782D01*
Y758782D02*
X560286Y763862D01*
X565366Y758782D01*
X560286Y753702D01*
X555206Y758782D01*
Y773782D02*
X560286Y778862D01*
X565366Y773782D01*
X560286Y768702D01*
X555206Y773782D01*
Y788782D02*
X560286Y793862D01*
X565366Y788782D01*
X560286Y783702D01*
X555206Y788782D01*
Y803782D02*
X560286Y808862D01*
X565366Y803782D01*
X560286Y798702D01*
X555206Y803782D01*
Y818782D02*
X560286Y823862D01*
X565366Y818782D01*
X560286Y813702D01*
X555206Y818782D01*
X570206Y548782D02*
X575286Y553862D01*
X580366Y548782D01*
X575286Y543702D01*
X570206Y548782D01*
Y563782D02*
X575286Y568862D01*
X580366Y563782D01*
X575286Y558702D01*
X570206Y563782D01*
Y638782D02*
X575286Y643862D01*
X580366Y638782D01*
X575286Y633702D01*
X570206Y638782D01*
Y713782D02*
X575286Y718862D01*
X580366Y713782D01*
X575286Y708702D01*
X570206Y713782D01*
Y728782D02*
X575286Y733862D01*
X580366Y728782D01*
X575286Y723702D01*
X570206Y728782D01*
Y743782D02*
X575286Y748862D01*
X580366Y743782D01*
X575286Y738702D01*
X570206Y743782D01*
Y758782D02*
X575286Y763862D01*
X580366Y758782D01*
X575286Y753702D01*
X570206Y758782D01*
Y773782D02*
X575286Y778862D01*
X580366Y773782D01*
X575286Y768702D01*
X570206Y773782D01*
Y788782D02*
X575286Y793862D01*
X580366Y788782D01*
X575286Y783702D01*
X570206Y788782D01*
Y803782D02*
X575286Y808862D01*
X580366Y803782D01*
X575286Y798702D01*
X570206Y803782D01*
Y818782D02*
X575286Y823862D01*
X580366Y818782D01*
X575286Y813702D01*
X570206Y818782D01*
X585206Y338782D02*
X590286Y343862D01*
X595366Y338782D01*
X590286Y333702D01*
X585206Y338782D01*
Y548782D02*
X590286Y553862D01*
X595366Y548782D01*
X590286Y543702D01*
X585206Y548782D01*
Y563782D02*
X590286Y568862D01*
X595366Y563782D01*
X590286Y558702D01*
X585206Y563782D01*
Y668782D02*
X590286Y673862D01*
X595366Y668782D01*
X590286Y663702D01*
X585206Y668782D01*
Y683782D02*
X590286Y688862D01*
X595366Y683782D01*
X590286Y678702D01*
X585206Y683782D01*
Y713782D02*
X590286Y718862D01*
X595366Y713782D01*
X590286Y708702D01*
X585206Y713782D01*
Y728782D02*
X590286Y733862D01*
X595366Y728782D01*
X590286Y723702D01*
X585206Y728782D01*
Y743782D02*
X590286Y748862D01*
X595366Y743782D01*
X590286Y738702D01*
X585206Y743782D01*
Y758782D02*
X590286Y763862D01*
X595366Y758782D01*
X590286Y753702D01*
X585206Y758782D01*
Y773782D02*
X590286Y778862D01*
X595366Y773782D01*
X590286Y768702D01*
X585206Y773782D01*
Y788782D02*
X590286Y793862D01*
X595366Y788782D01*
X590286Y783702D01*
X585206Y788782D01*
Y803782D02*
X590286Y808862D01*
X595366Y803782D01*
X590286Y798702D01*
X585206Y803782D01*
Y818782D02*
X590286Y823862D01*
X595366Y818782D01*
X590286Y813702D01*
X585206Y818782D01*
X600206Y113782D02*
X605286Y118862D01*
X610366Y113782D01*
X605286Y108702D01*
X600206Y113782D01*
Y128782D02*
X605286Y133862D01*
X610366Y128782D01*
X605286Y123702D01*
X600206Y128782D01*
Y413782D02*
X605286Y418862D01*
X610366Y413782D01*
X605286Y408702D01*
X600206Y413782D01*
Y548782D02*
X605286Y553862D01*
X610366Y548782D01*
X605286Y543702D01*
X600206Y548782D01*
Y563782D02*
X605286Y568862D01*
X610366Y563782D01*
X605286Y558702D01*
X600206Y563782D01*
Y593782D02*
X605286Y598862D01*
X610366Y593782D01*
X605286Y588702D01*
X600206Y593782D01*
Y713782D02*
X605286Y718862D01*
X610366Y713782D01*
X605286Y708702D01*
X600206Y713782D01*
Y728782D02*
X605286Y733862D01*
X610366Y728782D01*
X605286Y723702D01*
X600206Y728782D01*
Y743782D02*
X605286Y748862D01*
X610366Y743782D01*
X605286Y738702D01*
X600206Y743782D01*
Y758782D02*
X605286Y763862D01*
X610366Y758782D01*
X605286Y753702D01*
X600206Y758782D01*
Y773782D02*
X605286Y778862D01*
X610366Y773782D01*
X605286Y768702D01*
X600206Y773782D01*
Y788782D02*
X605286Y793862D01*
X610366Y788782D01*
X605286Y783702D01*
X600206Y788782D01*
Y803782D02*
X605286Y808862D01*
X610366Y803782D01*
X605286Y798702D01*
X600206Y803782D01*
Y818782D02*
X605286Y823862D01*
X610366Y818782D01*
X605286Y813702D01*
X600206Y818782D01*
X615206Y113782D02*
X620286Y118862D01*
X625366Y113782D01*
X620286Y108702D01*
X615206Y113782D01*
Y488782D02*
X620286Y493862D01*
X625366Y488782D01*
X620286Y483702D01*
X615206Y488782D01*
Y548782D02*
X620286Y553862D01*
X625366Y548782D01*
X620286Y543702D01*
X615206Y548782D01*
Y698782D02*
X620286Y703862D01*
X625366Y698782D01*
X620286Y693702D01*
X615206Y698782D01*
Y713782D02*
X620286Y718862D01*
X625366Y713782D01*
X620286Y708702D01*
X615206Y713782D01*
Y728782D02*
X620286Y733862D01*
X625366Y728782D01*
X620286Y723702D01*
X615206Y728782D01*
Y743782D02*
X620286Y748862D01*
X625366Y743782D01*
X620286Y738702D01*
X615206Y743782D01*
Y758782D02*
X620286Y763862D01*
X625366Y758782D01*
X620286Y753702D01*
X615206Y758782D01*
Y773782D02*
X620286Y778862D01*
X625366Y773782D01*
X620286Y768702D01*
X615206Y773782D01*
Y788782D02*
X620286Y793862D01*
X625366Y788782D01*
X620286Y783702D01*
X615206Y788782D01*
Y803782D02*
X620286Y808862D01*
X625366Y803782D01*
X620286Y798702D01*
X615206Y803782D01*
Y818782D02*
X620286Y823862D01*
X625366Y818782D01*
X620286Y813702D01*
X615206Y818782D01*
X630206Y473782D02*
X635286Y478862D01*
X640366Y473782D01*
X635286Y468702D01*
X630206Y473782D01*
Y488782D02*
X635286Y493862D01*
X640366Y488782D01*
X635286Y483702D01*
X630206Y488782D01*
Y563782D02*
X635286Y568862D01*
X640366Y563782D01*
X635286Y558702D01*
X630206Y563782D01*
Y698782D02*
X635286Y703862D01*
X640366Y698782D01*
X635286Y693702D01*
X630206Y698782D01*
Y713782D02*
X635286Y718862D01*
X640366Y713782D01*
X635286Y708702D01*
X630206Y713782D01*
Y728782D02*
X635286Y733862D01*
X640366Y728782D01*
X635286Y723702D01*
X630206Y728782D01*
Y743782D02*
X635286Y748862D01*
X640366Y743782D01*
X635286Y738702D01*
X630206Y743782D01*
Y758782D02*
X635286Y763862D01*
X640366Y758782D01*
X635286Y753702D01*
X630206Y758782D01*
Y773782D02*
X635286Y778862D01*
X640366Y773782D01*
X635286Y768702D01*
X630206Y773782D01*
Y788782D02*
X635286Y793862D01*
X640366Y788782D01*
X635286Y783702D01*
X630206Y788782D01*
Y803782D02*
X635286Y808862D01*
X640366Y803782D01*
X635286Y798702D01*
X630206Y803782D01*
Y818782D02*
X635286Y823862D01*
X640366Y818782D01*
X635286Y813702D01*
X630206Y818782D01*
X645206Y248782D02*
X650286Y253862D01*
X655366Y248782D01*
X650286Y243702D01*
X645206Y248782D01*
Y428782D02*
X650286Y433862D01*
X655366Y428782D01*
X650286Y423702D01*
X645206Y428782D01*
Y563782D02*
X650286Y568862D01*
X655366Y563782D01*
X650286Y558702D01*
X645206Y563782D01*
Y638782D02*
X650286Y643862D01*
X655366Y638782D01*
X650286Y633702D01*
X645206Y638782D01*
Y653782D02*
X650286Y658862D01*
X655366Y653782D01*
X650286Y648702D01*
X645206Y653782D01*
Y698782D02*
X650286Y703862D01*
X655366Y698782D01*
X650286Y693702D01*
X645206Y698782D01*
Y713782D02*
X650286Y718862D01*
X655366Y713782D01*
X650286Y708702D01*
X645206Y713782D01*
Y728782D02*
X650286Y733862D01*
X655366Y728782D01*
X650286Y723702D01*
X645206Y728782D01*
Y743782D02*
X650286Y748862D01*
X655366Y743782D01*
X650286Y738702D01*
X645206Y743782D01*
Y758782D02*
X650286Y763862D01*
X655366Y758782D01*
X650286Y753702D01*
X645206Y758782D01*
Y773782D02*
X650286Y778862D01*
X655366Y773782D01*
X650286Y768702D01*
X645206Y773782D01*
Y788782D02*
X650286Y793862D01*
X655366Y788782D01*
X650286Y783702D01*
X645206Y788782D01*
Y803782D02*
X650286Y808862D01*
X655366Y803782D01*
X650286Y798702D01*
X645206Y803782D01*
Y818782D02*
X650286Y823862D01*
X655366Y818782D01*
X650286Y813702D01*
X645206Y818782D01*
X660206Y383782D02*
X665286Y388862D01*
X670366Y383782D01*
X665286Y378702D01*
X660206Y383782D01*
Y428782D02*
X665286Y433862D01*
X670366Y428782D01*
X665286Y423702D01*
X660206Y428782D01*
Y458782D02*
X665286Y463862D01*
X670366Y458782D01*
X665286Y453702D01*
X660206Y458782D01*
Y518782D02*
X665286Y523862D01*
X670366Y518782D01*
X665286Y513702D01*
X660206Y518782D01*
Y653782D02*
X665286Y658862D01*
X670366Y653782D01*
X665286Y648702D01*
X660206Y653782D01*
Y713782D02*
X665286Y718862D01*
X670366Y713782D01*
X665286Y708702D01*
X660206Y713782D01*
Y728782D02*
X665286Y733862D01*
X670366Y728782D01*
X665286Y723702D01*
X660206Y728782D01*
Y758782D02*
X665286Y763862D01*
X670366Y758782D01*
X665286Y753702D01*
X660206Y758782D01*
Y773782D02*
X665286Y778862D01*
X670366Y773782D01*
X665286Y768702D01*
X660206Y773782D01*
Y788782D02*
X665286Y793862D01*
X670366Y788782D01*
X665286Y783702D01*
X660206Y788782D01*
Y803782D02*
X665286Y808862D01*
X670366Y803782D01*
X665286Y798702D01*
X660206Y803782D01*
Y818782D02*
X665286Y823862D01*
X670366Y818782D01*
X665286Y813702D01*
X660206Y818782D01*
X675206Y338782D02*
X680286Y343862D01*
X685366Y338782D01*
X680286Y333702D01*
X675206Y338782D01*
Y668782D02*
X680286Y673862D01*
X685366Y668782D01*
X680286Y663702D01*
X675206Y668782D01*
Y683782D02*
X680286Y688862D01*
X685366Y683782D01*
X680286Y678702D01*
X675206Y683782D01*
Y698782D02*
X680286Y703862D01*
X685366Y698782D01*
X680286Y693702D01*
X675206Y698782D01*
Y713782D02*
X680286Y718862D01*
X685366Y713782D01*
X680286Y708702D01*
X675206Y713782D01*
Y728782D02*
X680286Y733862D01*
X685366Y728782D01*
X680286Y723702D01*
X675206Y728782D01*
Y743782D02*
X680286Y748862D01*
X685366Y743782D01*
X680286Y738702D01*
X675206Y743782D01*
Y758782D02*
X680286Y763862D01*
X685366Y758782D01*
X680286Y753702D01*
X675206Y758782D01*
Y773782D02*
X680286Y778862D01*
X685366Y773782D01*
X680286Y768702D01*
X675206Y773782D01*
Y788782D02*
X680286Y793862D01*
X685366Y788782D01*
X680286Y783702D01*
X675206Y788782D01*
Y803782D02*
X680286Y808862D01*
X685366Y803782D01*
X680286Y798702D01*
X675206Y803782D01*
Y818782D02*
X680286Y823862D01*
X685366Y818782D01*
X680286Y813702D01*
X675206Y818782D01*
X690206Y143782D02*
X695286Y148862D01*
X700366Y143782D01*
X695286Y138702D01*
X690206Y143782D01*
Y338782D02*
X695286Y343862D01*
X700366Y338782D01*
X695286Y333702D01*
X690206Y338782D01*
Y428782D02*
X695286Y433862D01*
X700366Y428782D01*
X695286Y423702D01*
X690206Y428782D01*
Y653782D02*
X695286Y658862D01*
X700366Y653782D01*
X695286Y648702D01*
X690206Y653782D01*
Y668782D02*
X695286Y673862D01*
X700366Y668782D01*
X695286Y663702D01*
X690206Y668782D01*
Y683782D02*
X695286Y688862D01*
X700366Y683782D01*
X695286Y678702D01*
X690206Y683782D01*
Y698782D02*
X695286Y703862D01*
X700366Y698782D01*
X695286Y693702D01*
X690206Y698782D01*
Y713782D02*
X695286Y718862D01*
X700366Y713782D01*
X695286Y708702D01*
X690206Y713782D01*
Y728782D02*
X695286Y733862D01*
X700366Y728782D01*
X695286Y723702D01*
X690206Y728782D01*
Y743782D02*
X695286Y748862D01*
X700366Y743782D01*
X695286Y738702D01*
X690206Y743782D01*
Y758782D02*
X695286Y763862D01*
X700366Y758782D01*
X695286Y753702D01*
X690206Y758782D01*
Y773782D02*
X695286Y778862D01*
X700366Y773782D01*
X695286Y768702D01*
X690206Y773782D01*
Y788782D02*
X695286Y793862D01*
X700366Y788782D01*
X695286Y783702D01*
X690206Y788782D01*
Y803782D02*
X695286Y808862D01*
X700366Y803782D01*
X695286Y798702D01*
X690206Y803782D01*
Y818782D02*
X695286Y823862D01*
X700366Y818782D01*
X695286Y813702D01*
X690206Y818782D01*
X705206Y398782D02*
X710286Y403862D01*
X715366Y398782D01*
X710286Y393702D01*
X705206Y398782D01*
Y458782D02*
X710286Y463862D01*
X715366Y458782D01*
X710286Y453702D01*
X705206Y458782D01*
Y473782D02*
X710286Y478862D01*
X715366Y473782D01*
X710286Y468702D01*
X705206Y473782D01*
Y488782D02*
X710286Y493862D01*
X715366Y488782D01*
X710286Y483702D01*
X705206Y488782D01*
Y788782D02*
X710286Y793862D01*
X715366Y788782D01*
X710286Y783702D01*
X705206Y788782D01*
Y803782D02*
X710286Y808862D01*
X715366Y803782D01*
X710286Y798702D01*
X705206Y803782D01*
Y818782D02*
X710286Y823862D01*
X715366Y818782D01*
X710286Y813702D01*
X705206Y818782D01*
X720206Y458782D02*
X725286Y463862D01*
X730366Y458782D01*
X725286Y453702D01*
X720206Y458782D01*
Y473782D02*
X725286Y478862D01*
X730366Y473782D01*
X725286Y468702D01*
X720206Y473782D01*
Y488782D02*
X725286Y493862D01*
X730366Y488782D01*
X725286Y483702D01*
X720206Y488782D01*
Y788782D02*
X725286Y793862D01*
X730366Y788782D01*
X725286Y783702D01*
X720206Y788782D01*
Y803782D02*
X725286Y808862D01*
X730366Y803782D01*
X725286Y798702D01*
X720206Y803782D01*
Y818782D02*
X725286Y823862D01*
X730366Y818782D01*
X725286Y813702D01*
X720206Y818782D01*
X735206Y203782D02*
X740286Y208862D01*
X745366Y203782D01*
X740286Y198702D01*
X735206Y203782D01*
Y278782D02*
X740286Y283862D01*
X745366Y278782D01*
X740286Y273702D01*
X735206Y278782D01*
Y293782D02*
X740286Y298862D01*
X745366Y293782D01*
X740286Y288702D01*
X735206Y293782D01*
Y338782D02*
X740286Y343862D01*
X745366Y338782D01*
X740286Y333702D01*
X735206Y338782D01*
Y353782D02*
X740286Y358862D01*
X745366Y353782D01*
X740286Y348702D01*
X735206Y353782D01*
Y368782D02*
X740286Y373862D01*
X745366Y368782D01*
X740286Y363702D01*
X735206Y368782D01*
Y383782D02*
X740286Y388862D01*
X745366Y383782D01*
X740286Y378702D01*
X735206Y383782D01*
Y398782D02*
X740286Y403862D01*
X745366Y398782D01*
X740286Y393702D01*
X735206Y398782D01*
Y413782D02*
X740286Y418862D01*
X745366Y413782D01*
X740286Y408702D01*
X735206Y413782D01*
Y428782D02*
X740286Y433862D01*
X745366Y428782D01*
X740286Y423702D01*
X735206Y428782D01*
Y443782D02*
X740286Y448862D01*
X745366Y443782D01*
X740286Y438702D01*
X735206Y443782D01*
Y488782D02*
X740286Y493862D01*
X745366Y488782D01*
X740286Y483702D01*
X735206Y488782D01*
Y788782D02*
X740286Y793862D01*
X745366Y788782D01*
X740286Y783702D01*
X735206Y788782D01*
Y803782D02*
X740286Y808862D01*
X745366Y803782D01*
X740286Y798702D01*
X735206Y803782D01*
Y818782D02*
X740286Y823862D01*
X745366Y818782D01*
X740286Y813702D01*
X735206Y818782D01*
X750206Y98782D02*
X755286Y103862D01*
X760366Y98782D01*
X755286Y93702D01*
X750206Y98782D01*
Y173782D02*
X755286Y178862D01*
X760366Y173782D01*
X755286Y168702D01*
X750206Y173782D01*
Y278782D02*
X755286Y283862D01*
X760366Y278782D01*
X755286Y273702D01*
X750206Y278782D01*
Y293782D02*
X755286Y298862D01*
X760366Y293782D01*
X755286Y288702D01*
X750206Y293782D01*
Y338782D02*
X755286Y343862D01*
X760366Y338782D01*
X755286Y333702D01*
X750206Y338782D01*
Y353782D02*
X755286Y358862D01*
X760366Y353782D01*
X755286Y348702D01*
X750206Y353782D01*
Y368782D02*
X755286Y373862D01*
X760366Y368782D01*
X755286Y363702D01*
X750206Y368782D01*
Y383782D02*
X755286Y388862D01*
X760366Y383782D01*
X755286Y378702D01*
X750206Y383782D01*
Y398782D02*
X755286Y403862D01*
X760366Y398782D01*
X755286Y393702D01*
X750206Y398782D01*
Y413782D02*
X755286Y418862D01*
X760366Y413782D01*
X755286Y408702D01*
X750206Y413782D01*
Y428782D02*
X755286Y433862D01*
X760366Y428782D01*
X755286Y423702D01*
X750206Y428782D01*
Y443782D02*
X755286Y448862D01*
X760366Y443782D01*
X755286Y438702D01*
X750206Y443782D01*
Y488782D02*
X755286Y493862D01*
X760366Y488782D01*
X755286Y483702D01*
X750206Y488782D01*
Y788782D02*
X755286Y793862D01*
X760366Y788782D01*
X755286Y783702D01*
X750206Y788782D01*
Y803782D02*
X755286Y808862D01*
X760366Y803782D01*
X755286Y798702D01*
X750206Y803782D01*
Y818782D02*
X755286Y823862D01*
X760366Y818782D01*
X755286Y813702D01*
X750206Y818782D01*
X765206Y173782D02*
X770286Y178862D01*
X775366Y173782D01*
X770286Y168702D01*
X765206Y173782D01*
Y248782D02*
X770286Y253862D01*
X775366Y248782D01*
X770286Y243702D01*
X765206Y248782D01*
Y278782D02*
X770286Y283862D01*
X775366Y278782D01*
X770286Y273702D01*
X765206Y278782D01*
Y293782D02*
X770286Y298862D01*
X775366Y293782D01*
X770286Y288702D01*
X765206Y293782D01*
Y338782D02*
X770286Y343862D01*
X775366Y338782D01*
X770286Y333702D01*
X765206Y338782D01*
Y353782D02*
X770286Y358862D01*
X775366Y353782D01*
X770286Y348702D01*
X765206Y353782D01*
Y368782D02*
X770286Y373862D01*
X775366Y368782D01*
X770286Y363702D01*
X765206Y368782D01*
Y383782D02*
X770286Y388862D01*
X775366Y383782D01*
X770286Y378702D01*
X765206Y383782D01*
Y398782D02*
X770286Y403862D01*
X775366Y398782D01*
X770286Y393702D01*
X765206Y398782D01*
Y413782D02*
X770286Y418862D01*
X775366Y413782D01*
X770286Y408702D01*
X765206Y413782D01*
Y428782D02*
X770286Y433862D01*
X775366Y428782D01*
X770286Y423702D01*
X765206Y428782D01*
Y443782D02*
X770286Y448862D01*
X775366Y443782D01*
X770286Y438702D01*
X765206Y443782D01*
Y488782D02*
X770286Y493862D01*
X775366Y488782D01*
X770286Y483702D01*
X765206Y488782D01*
Y788782D02*
X770286Y793862D01*
X775366Y788782D01*
X770286Y783702D01*
X765206Y788782D01*
Y803782D02*
X770286Y808862D01*
X775366Y803782D01*
X770286Y798702D01*
X765206Y803782D01*
Y818782D02*
X770286Y823862D01*
X775366Y818782D01*
X770286Y813702D01*
X765206Y818782D01*
X780206Y788782D02*
X785286Y793862D01*
X790366Y788782D01*
X785286Y783702D01*
X780206Y788782D01*
X195206Y728782D02*
X200286Y733862D01*
X205366Y728782D01*
X200286Y723702D01*
X195206Y728782D01*
Y743782D02*
X200286Y748862D01*
X205366Y743782D01*
X200286Y738702D01*
X195206Y743782D01*
Y758782D02*
X200286Y763862D01*
X205366Y758782D01*
X200286Y753702D01*
X195206Y758782D01*
Y773782D02*
X200286Y778862D01*
X205366Y773782D01*
X200286Y768702D01*
X195206Y773782D01*
Y788782D02*
X200286Y793862D01*
X205366Y788782D01*
X200286Y783702D01*
X195206Y788782D01*
Y803782D02*
X200286Y808862D01*
X205366Y803782D01*
X200286Y798702D01*
X195206Y803782D01*
Y818782D02*
X200286Y823862D01*
X205366Y818782D01*
X200286Y813702D01*
X195206Y818782D01*
X210206Y203782D02*
X215286Y208862D01*
X220366Y203782D01*
X215286Y198702D01*
X210206Y203782D01*
Y713782D02*
X215286Y718862D01*
X220366Y713782D01*
X215286Y708702D01*
X210206Y713782D01*
Y743782D02*
X215286Y748862D01*
X220366Y743782D01*
X215286Y738702D01*
X210206Y743782D01*
Y758782D02*
X215286Y763862D01*
X220366Y758782D01*
X215286Y753702D01*
X210206Y758782D01*
Y773782D02*
X215286Y778862D01*
X220366Y773782D01*
X215286Y768702D01*
X210206Y773782D01*
Y788782D02*
X215286Y793862D01*
X220366Y788782D01*
X215286Y783702D01*
X210206Y788782D01*
Y803782D02*
X215286Y808862D01*
X220366Y803782D01*
X215286Y798702D01*
X210206Y803782D01*
Y818782D02*
X215286Y823862D01*
X220366Y818782D01*
X215286Y813702D01*
X210206Y818782D01*
X225206Y203782D02*
X230286Y208862D01*
X235366Y203782D01*
X230286Y198702D01*
X225206Y203782D01*
Y293782D02*
X230286Y298862D01*
X235366Y293782D01*
X230286Y288702D01*
X225206Y293782D01*
Y713782D02*
X230286Y718862D01*
X235366Y713782D01*
X230286Y708702D01*
X225206Y713782D01*
Y743782D02*
X230286Y748862D01*
X235366Y743782D01*
X230286Y738702D01*
X225206Y743782D01*
Y758782D02*
X230286Y763862D01*
X235366Y758782D01*
X230286Y753702D01*
X225206Y758782D01*
Y773782D02*
X230286Y778862D01*
X235366Y773782D01*
X230286Y768702D01*
X225206Y773782D01*
Y788782D02*
X230286Y793862D01*
X235366Y788782D01*
X230286Y783702D01*
X225206Y788782D01*
Y803782D02*
X230286Y808862D01*
X235366Y803782D01*
X230286Y798702D01*
X225206Y803782D01*
Y818782D02*
X230286Y823862D01*
X235366Y818782D01*
X230286Y813702D01*
X225206Y818782D01*
X240206Y203782D02*
X245286Y208862D01*
X250366Y203782D01*
X245286Y198702D01*
X240206Y203782D01*
Y293782D02*
X245286Y298862D01*
X250366Y293782D01*
X245286Y288702D01*
X240206Y293782D01*
Y308782D02*
X245286Y313862D01*
X250366Y308782D01*
X245286Y303702D01*
X240206Y308782D01*
Y743782D02*
X245286Y748862D01*
X250366Y743782D01*
X245286Y738702D01*
X240206Y743782D01*
Y758782D02*
X245286Y763862D01*
X250366Y758782D01*
X245286Y753702D01*
X240206Y758782D01*
Y773782D02*
X245286Y778862D01*
X250366Y773782D01*
X245286Y768702D01*
X240206Y773782D01*
Y788782D02*
X245286Y793862D01*
X250366Y788782D01*
X245286Y783702D01*
X240206Y788782D01*
Y803782D02*
X245286Y808862D01*
X250366Y803782D01*
X245286Y798702D01*
X240206Y803782D01*
Y818782D02*
X245286Y823862D01*
X250366Y818782D01*
X245286Y813702D01*
X240206Y818782D01*
X255206Y218782D02*
X260286Y223862D01*
X265366Y218782D01*
X260286Y213702D01*
X255206Y218782D01*
Y263782D02*
X260286Y268862D01*
X265366Y263782D01*
X260286Y258702D01*
X255206Y263782D01*
Y593782D02*
X260286Y598862D01*
X265366Y593782D01*
X260286Y588702D01*
X255206Y593782D01*
Y698782D02*
X260286Y703862D01*
X265366Y698782D01*
X260286Y693702D01*
X255206Y698782D01*
Y713782D02*
X260286Y718862D01*
X265366Y713782D01*
X260286Y708702D01*
X255206Y713782D01*
Y743782D02*
X260286Y748862D01*
X265366Y743782D01*
X260286Y738702D01*
X255206Y743782D01*
Y758782D02*
X260286Y763862D01*
X265366Y758782D01*
X260286Y753702D01*
X255206Y758782D01*
Y773782D02*
X260286Y778862D01*
X265366Y773782D01*
X260286Y768702D01*
X255206Y773782D01*
Y788782D02*
X260286Y793862D01*
X265366Y788782D01*
X260286Y783702D01*
X255206Y788782D01*
Y803782D02*
X260286Y808862D01*
X265366Y803782D01*
X260286Y798702D01*
X255206Y803782D01*
Y818782D02*
X260286Y823862D01*
X265366Y818782D01*
X260286Y813702D01*
X255206Y818782D01*
X270206Y293782D02*
X275286Y298862D01*
X280366Y293782D01*
X275286Y288702D01*
X270206Y293782D01*
Y713782D02*
X275286Y718862D01*
X280366Y713782D01*
X275286Y708702D01*
X270206Y713782D01*
Y743782D02*
X275286Y748862D01*
X280366Y743782D01*
X275286Y738702D01*
X270206Y743782D01*
Y758782D02*
X275286Y763862D01*
X280366Y758782D01*
X275286Y753702D01*
X270206Y758782D01*
Y773782D02*
X275286Y778862D01*
X280366Y773782D01*
X275286Y768702D01*
X270206Y773782D01*
Y788782D02*
X275286Y793862D01*
X280366Y788782D01*
X275286Y783702D01*
X270206Y788782D01*
Y803782D02*
X275286Y808862D01*
X280366Y803782D01*
X275286Y798702D01*
X270206Y803782D01*
Y818782D02*
X275286Y823862D01*
X280366Y818782D01*
X275286Y813702D01*
X270206Y818782D01*
X285206Y263782D02*
X290286Y268862D01*
X295366Y263782D01*
X290286Y258702D01*
X285206Y263782D01*
Y743782D02*
X290286Y748862D01*
X295366Y743782D01*
X290286Y738702D01*
X285206Y743782D01*
Y758782D02*
X290286Y763862D01*
X295366Y758782D01*
X290286Y753702D01*
X285206Y758782D01*
Y773782D02*
X290286Y778862D01*
X295366Y773782D01*
X290286Y768702D01*
X285206Y773782D01*
Y788782D02*
X290286Y793862D01*
X295366Y788782D01*
X290286Y783702D01*
X285206Y788782D01*
Y803782D02*
X290286Y808862D01*
X295366Y803782D01*
X290286Y798702D01*
X285206Y803782D01*
Y818782D02*
X290286Y823862D01*
X295366Y818782D01*
X290286Y813702D01*
X285206Y818782D01*
X300206Y98782D02*
X305286Y103862D01*
X310366Y98782D01*
X305286Y93702D01*
X300206Y98782D01*
Y113782D02*
X305286Y118862D01*
X310366Y113782D01*
X305286Y108702D01*
X300206Y113782D01*
Y128782D02*
X305286Y133862D01*
X310366Y128782D01*
X305286Y123702D01*
X300206Y128782D01*
Y203782D02*
X305286Y208862D01*
X310366Y203782D01*
X305286Y198702D01*
X300206Y203782D01*
Y263782D02*
X305286Y268862D01*
X310366Y263782D01*
X305286Y258702D01*
X300206Y263782D01*
Y278782D02*
X305286Y283862D01*
X310366Y278782D01*
X305286Y273702D01*
X300206Y278782D01*
Y743782D02*
X305286Y748862D01*
X310366Y743782D01*
X305286Y738702D01*
X300206Y743782D01*
Y758782D02*
X305286Y763862D01*
X310366Y758782D01*
X305286Y753702D01*
X300206Y758782D01*
Y773782D02*
X305286Y778862D01*
X310366Y773782D01*
X305286Y768702D01*
X300206Y773782D01*
Y788782D02*
X305286Y793862D01*
X310366Y788782D01*
X305286Y783702D01*
X300206Y788782D01*
Y803782D02*
X305286Y808862D01*
X310366Y803782D01*
X305286Y798702D01*
X300206Y803782D01*
Y818782D02*
X305286Y823862D01*
X310366Y818782D01*
X305286Y813702D01*
X300206Y818782D01*
X315206Y113782D02*
X320286Y118862D01*
X325366Y113782D01*
X320286Y108702D01*
X315206Y113782D01*
Y203782D02*
X320286Y208862D01*
X325366Y203782D01*
X320286Y198702D01*
X315206Y203782D01*
Y698782D02*
X320286Y703862D01*
X325366Y698782D01*
X320286Y693702D01*
X315206Y698782D01*
Y743782D02*
X320286Y748862D01*
X325366Y743782D01*
X320286Y738702D01*
X315206Y743782D01*
Y758782D02*
X320286Y763862D01*
X325366Y758782D01*
X320286Y753702D01*
X315206Y758782D01*
Y773782D02*
X320286Y778862D01*
X325366Y773782D01*
X320286Y768702D01*
X315206Y773782D01*
Y788782D02*
X320286Y793862D01*
X325366Y788782D01*
X320286Y783702D01*
X315206Y788782D01*
Y803782D02*
X320286Y808862D01*
X325366Y803782D01*
X320286Y798702D01*
X315206Y803782D01*
Y818782D02*
X320286Y823862D01*
X325366Y818782D01*
X320286Y813702D01*
X315206Y818782D01*
X330206Y203782D02*
X335286Y208862D01*
X340366Y203782D01*
X335286Y198702D01*
X330206Y203782D01*
Y443782D02*
X335286Y448862D01*
X340366Y443782D01*
X335286Y438702D01*
X330206Y443782D01*
Y743782D02*
X335286Y748862D01*
X340366Y743782D01*
X335286Y738702D01*
X330206Y743782D01*
Y758782D02*
X335286Y763862D01*
X340366Y758782D01*
X335286Y753702D01*
X330206Y758782D01*
Y773782D02*
X335286Y778862D01*
X340366Y773782D01*
X335286Y768702D01*
X330206Y773782D01*
Y788782D02*
X335286Y793862D01*
X340366Y788782D01*
X335286Y783702D01*
X330206Y788782D01*
Y803782D02*
X335286Y808862D01*
X340366Y803782D01*
X335286Y798702D01*
X330206Y803782D01*
Y818782D02*
X335286Y823862D01*
X340366Y818782D01*
X335286Y813702D01*
X330206Y818782D01*
X345206Y188782D02*
X350286Y193862D01*
X355366Y188782D01*
X350286Y183702D01*
X345206Y188782D01*
Y203782D02*
X350286Y208862D01*
X355366Y203782D01*
X350286Y198702D01*
X345206Y203782D01*
Y338782D02*
X350286Y343862D01*
X355366Y338782D01*
X350286Y333702D01*
X345206Y338782D01*
Y443782D02*
X350286Y448862D01*
X355366Y443782D01*
X350286Y438702D01*
X345206Y443782D01*
Y668782D02*
X350286Y673862D01*
X355366Y668782D01*
X350286Y663702D01*
X345206Y668782D01*
Y758782D02*
X350286Y763862D01*
X355366Y758782D01*
X350286Y753702D01*
X345206Y758782D01*
Y773782D02*
X350286Y778862D01*
X355366Y773782D01*
X350286Y768702D01*
X345206Y773782D01*
Y788782D02*
X350286Y793862D01*
X355366Y788782D01*
X350286Y783702D01*
X345206Y788782D01*
Y803782D02*
X350286Y808862D01*
X355366Y803782D01*
X350286Y798702D01*
X345206Y803782D01*
Y818782D02*
X350286Y823862D01*
X355366Y818782D01*
X350286Y813702D01*
X345206Y818782D01*
X360206Y98782D02*
X365286Y103862D01*
X370366Y98782D01*
X365286Y93702D01*
X360206Y98782D01*
Y128782D02*
X365286Y133862D01*
X370366Y128782D01*
X365286Y123702D01*
X360206Y128782D01*
Y413782D02*
X365286Y418862D01*
X370366Y413782D01*
X365286Y408702D01*
X360206Y413782D01*
Y668782D02*
X365286Y673862D01*
X370366Y668782D01*
X365286Y663702D01*
X360206Y668782D01*
Y683782D02*
X365286Y688862D01*
X370366Y683782D01*
X365286Y678702D01*
X360206Y683782D01*
Y698782D02*
X365286Y703862D01*
X370366Y698782D01*
X365286Y693702D01*
X360206Y698782D01*
Y743782D02*
X365286Y748862D01*
X370366Y743782D01*
X365286Y738702D01*
X360206Y743782D01*
Y758782D02*
X365286Y763862D01*
X370366Y758782D01*
X365286Y753702D01*
X360206Y758782D01*
Y773782D02*
X365286Y778862D01*
X370366Y773782D01*
X365286Y768702D01*
X360206Y773782D01*
Y788782D02*
X365286Y793862D01*
X370366Y788782D01*
X365286Y783702D01*
X360206Y788782D01*
Y803782D02*
X365286Y808862D01*
X370366Y803782D01*
X365286Y798702D01*
X360206Y803782D01*
Y818782D02*
X365286Y823862D01*
X370366Y818782D01*
X365286Y813702D01*
X360206Y818782D01*
X375206Y728782D02*
X380286Y733862D01*
X385366Y728782D01*
X380286Y723702D01*
X375206Y728782D01*
Y773782D02*
X380286Y778862D01*
X385366Y773782D01*
X380286Y768702D01*
X375206Y773782D01*
Y788782D02*
X380286Y793862D01*
X385366Y788782D01*
X380286Y783702D01*
X375206Y788782D01*
Y803782D02*
X380286Y808862D01*
X385366Y803782D01*
X380286Y798702D01*
X375206Y803782D01*
Y818782D02*
X380286Y823862D01*
X385366Y818782D01*
X380286Y813702D01*
X375206Y818782D01*
X390206Y188782D02*
X395286Y193862D01*
X400366Y188782D01*
X395286Y183702D01*
X390206Y188782D01*
Y263782D02*
X395286Y268862D01*
X400366Y263782D01*
X395286Y258702D01*
X390206Y263782D01*
Y638782D02*
X395286Y643862D01*
X400366Y638782D01*
X395286Y633702D01*
X390206Y638782D01*
Y668782D02*
X395286Y673862D01*
X400366Y668782D01*
X395286Y663702D01*
X390206Y668782D01*
Y683782D02*
X395286Y688862D01*
X400366Y683782D01*
X395286Y678702D01*
X390206Y683782D01*
Y713782D02*
X395286Y718862D01*
X400366Y713782D01*
X395286Y708702D01*
X390206Y713782D01*
Y743782D02*
X395286Y748862D01*
X400366Y743782D01*
X395286Y738702D01*
X390206Y743782D01*
Y788782D02*
X395286Y793862D01*
X400366Y788782D01*
X395286Y783702D01*
X390206Y788782D01*
Y803782D02*
X395286Y808862D01*
X400366Y803782D01*
X395286Y798702D01*
X390206Y803782D01*
Y818782D02*
X395286Y823862D01*
X400366Y818782D01*
X395286Y813702D01*
X390206Y818782D01*
X405206Y638782D02*
X410286Y643862D01*
X415366Y638782D01*
X410286Y633702D01*
X405206Y638782D01*
Y788782D02*
X410286Y793862D01*
X415366Y788782D01*
X410286Y783702D01*
X405206Y788782D01*
Y803782D02*
X410286Y808862D01*
X415366Y803782D01*
X410286Y798702D01*
X405206Y803782D01*
X263652Y500634D02*
X268732Y505714D01*
X273812Y500634D01*
X268732Y495554D01*
X263652Y500634D01*
X45206Y68782D02*
X50286Y73862D01*
X55366Y68782D01*
X50286Y63702D01*
X45206Y68782D01*
Y203782D02*
X50286Y208862D01*
X55366Y203782D01*
X50286Y198702D01*
X45206Y203782D01*
Y218782D02*
X50286Y223862D01*
X55366Y218782D01*
X50286Y213702D01*
X45206Y218782D01*
Y233782D02*
X50286Y238862D01*
X55366Y233782D01*
X50286Y228702D01*
X45206Y233782D01*
Y248782D02*
X50286Y253862D01*
X55366Y248782D01*
X50286Y243702D01*
X45206Y248782D01*
Y263782D02*
X50286Y268862D01*
X55366Y263782D01*
X50286Y258702D01*
X45206Y263782D01*
Y278782D02*
X50286Y283862D01*
X55366Y278782D01*
X50286Y273702D01*
X45206Y278782D01*
Y293782D02*
X50286Y298862D01*
X55366Y293782D01*
X50286Y288702D01*
X45206Y293782D01*
Y308782D02*
X50286Y313862D01*
X55366Y308782D01*
X50286Y303702D01*
X45206Y308782D01*
Y323782D02*
X50286Y328862D01*
X55366Y323782D01*
X50286Y318702D01*
X45206Y323782D01*
Y338782D02*
X50286Y343862D01*
X55366Y338782D01*
X50286Y333702D01*
X45206Y338782D01*
Y353782D02*
X50286Y358862D01*
X55366Y353782D01*
X50286Y348702D01*
X45206Y353782D01*
Y368782D02*
X50286Y373862D01*
X55366Y368782D01*
X50286Y363702D01*
X45206Y368782D01*
Y383782D02*
X50286Y388862D01*
X55366Y383782D01*
X50286Y378702D01*
X45206Y383782D01*
X60206Y53782D02*
X65286Y58862D01*
X70366Y53782D01*
X65286Y48702D01*
X60206Y53782D01*
Y68782D02*
X65286Y73862D01*
X70366Y68782D01*
X65286Y63702D01*
X60206Y68782D01*
Y203782D02*
X65286Y208862D01*
X70366Y203782D01*
X65286Y198702D01*
X60206Y203782D01*
Y218782D02*
X65286Y223862D01*
X70366Y218782D01*
X65286Y213702D01*
X60206Y218782D01*
Y233782D02*
X65286Y238862D01*
X70366Y233782D01*
X65286Y228702D01*
X60206Y233782D01*
Y248782D02*
X65286Y253862D01*
X70366Y248782D01*
X65286Y243702D01*
X60206Y248782D01*
Y263782D02*
X65286Y268862D01*
X70366Y263782D01*
X65286Y258702D01*
X60206Y263782D01*
Y278782D02*
X65286Y283862D01*
X70366Y278782D01*
X65286Y273702D01*
X60206Y278782D01*
Y293782D02*
X65286Y298862D01*
X70366Y293782D01*
X65286Y288702D01*
X60206Y293782D01*
Y668782D02*
X65286Y673862D01*
X70366Y668782D01*
X65286Y663702D01*
X60206Y668782D01*
X75206Y203782D02*
X80286Y208862D01*
X85366Y203782D01*
X80286Y198702D01*
X75206Y203782D01*
Y218782D02*
X80286Y223862D01*
X85366Y218782D01*
X80286Y213702D01*
X75206Y218782D01*
Y233782D02*
X80286Y238862D01*
X85366Y233782D01*
X80286Y228702D01*
X75206Y233782D01*
Y248782D02*
X80286Y253862D01*
X85366Y248782D01*
X80286Y243702D01*
X75206Y248782D01*
Y263782D02*
X80286Y268862D01*
X85366Y263782D01*
X80286Y258702D01*
X75206Y263782D01*
Y278782D02*
X80286Y283862D01*
X85366Y278782D01*
X80286Y273702D01*
X75206Y278782D01*
Y818782D02*
X80286Y823862D01*
X85366Y818782D01*
X80286Y813702D01*
X75206Y818782D01*
X90206Y308782D02*
X95286Y313862D01*
X100366Y308782D01*
X95286Y303702D01*
X90206Y308782D01*
Y818782D02*
X95286Y823862D01*
X100366Y818782D01*
X95286Y813702D01*
X90206Y818782D01*
X105206Y53782D02*
X110286Y58862D01*
X115366Y53782D01*
X110286Y48702D01*
X105206Y53782D01*
Y68782D02*
X110286Y73862D01*
X115366Y68782D01*
X110286Y63702D01*
X105206Y68782D01*
Y83782D02*
X110286Y88862D01*
X115366Y83782D01*
X110286Y78702D01*
X105206Y83782D01*
Y818782D02*
X110286Y823862D01*
X115366Y818782D01*
X110286Y813702D01*
X105206Y818782D01*
X120206Y53782D02*
X125286Y58862D01*
X130366Y53782D01*
X125286Y48702D01*
X120206Y53782D01*
Y68782D02*
X125286Y73862D01*
X130366Y68782D01*
X125286Y63702D01*
X120206Y68782D01*
Y83782D02*
X125286Y88862D01*
X130366Y83782D01*
X125286Y78702D01*
X120206Y83782D01*
Y203782D02*
X125286Y208862D01*
X130366Y203782D01*
X125286Y198702D01*
X120206Y203782D01*
Y248782D02*
X125286Y253862D01*
X130366Y248782D01*
X125286Y243702D01*
X120206Y248782D01*
Y308782D02*
X125286Y313862D01*
X130366Y308782D01*
X125286Y303702D01*
X120206Y308782D01*
Y818782D02*
X125286Y823862D01*
X130366Y818782D01*
X125286Y813702D01*
X120206Y818782D01*
X135206Y68782D02*
X140286Y73862D01*
X145366Y68782D01*
X140286Y63702D01*
X135206Y68782D01*
Y83782D02*
X140286Y88862D01*
X145366Y83782D01*
X140286Y78702D01*
X135206Y83782D01*
Y818782D02*
X140286Y823862D01*
X145366Y818782D01*
X140286Y813702D01*
X135206Y818782D01*
X150206D02*
X155286Y823862D01*
X160366Y818782D01*
X155286Y813702D01*
X150206Y818782D01*
X165206D02*
X170286Y823862D01*
X175366Y818782D01*
X170286Y813702D01*
X165206Y818782D01*
X180206Y278782D02*
X185286Y283862D01*
X190366Y278782D01*
X185286Y273702D01*
X180206Y278782D01*
Y818782D02*
X185286Y823862D01*
X190366Y818782D01*
X185286Y813702D01*
X180206Y818782D01*
X195206Y248782D02*
X200286Y253862D01*
X205366Y248782D01*
X200286Y243702D01*
X195206Y248782D01*
Y698782D02*
X200286Y703862D01*
X205366Y698782D01*
X200286Y693702D01*
X195206Y698782D01*
X384287Y503443D02*
X389367Y508523D01*
X394447Y503443D01*
X389367Y498363D01*
X384287Y503443D01*
D179*
X482580Y740000D02*
G03*
X482580Y740000I-5080J0D01*
G01*
X667580D02*
G03*
X667580Y740000I-5080J0D01*
G01*
X482580Y692500D02*
G03*
X482580Y692500I-5080J0D01*
G01*
X667580D02*
G03*
X667580Y692500I-5080J0D01*
G01*
X172580Y740000D02*
G03*
X172580Y740000I-5080J0D01*
G01*
X357580D02*
G03*
X357580Y740000I-5080J0D01*
G01*
X172580Y692500D02*
G03*
X172580Y692500I-5080J0D01*
G01*
X357580D02*
G03*
X357580Y692500I-5080J0D01*
G01*
M02*
