G04*
G04 #@! TF.GenerationSoftware,Altium Limited,Altium Designer,24.1.2 (44)*
G04*
G04 Layer_Color=65535*
%FSLAX44Y44*%
%MOMM*%
G71*
G04*
G04 #@! TF.SameCoordinates,6F585FF1-4DE3-4077-9EA4-C48F536BE3D4*
G04*
G04*
G04 #@! TF.FilePolarity,Positive*
G04*
G01*
G75*
%ADD10C,0.2500*%
%ADD11C,0.5080*%
%ADD12C,0.2540*%
%ADD13C,0.2000*%
%ADD14C,0.2520*%
%ADD15C,0.3810*%
%ADD16C,0.1540*%
%ADD17C,0.6000*%
%ADD18C,0.1524*%
%ADD19C,0.1000*%
%ADD20C,0.1270*%
%ADD21C,0.1500*%
%ADD22C,0.1200*%
%ADD23C,0.1250*%
%ADD24R,2.5400X1.2700*%
G36*
X369576Y294990D02*
X365766D01*
Y292450D01*
X369576D01*
Y294990D01*
D02*
G37*
G36*
X321662Y347904D02*
X319122D01*
Y344094D01*
X321662D01*
Y347904D01*
D02*
G37*
G36*
Y397904D02*
X319122D01*
Y394094D01*
X321662D01*
Y397904D01*
D02*
G37*
G36*
X349576Y467008D02*
X345766D01*
Y469548D01*
X349576D01*
Y467008D01*
D02*
G37*
G36*
X399576D02*
X395766D01*
Y469548D01*
X399576D01*
Y467008D01*
D02*
G37*
G36*
X419576Y294990D02*
X415766D01*
Y292450D01*
X419576D01*
Y294990D01*
D02*
G37*
G36*
X469576D02*
X465766D01*
Y292450D01*
X469576D01*
Y294990D01*
D02*
G37*
G36*
X493680Y367904D02*
X496220D01*
Y364094D01*
X493680D01*
Y367904D01*
D02*
G37*
G36*
Y417904D02*
X496220D01*
Y414094D01*
X493680D01*
Y417904D01*
D02*
G37*
G36*
X449576Y467008D02*
X445766D01*
Y469548D01*
X449576D01*
Y467008D01*
D02*
G37*
D10*
X508088Y165120D02*
G03*
X508088Y165120I-1250J0D01*
G01*
X551470Y392380D02*
G03*
X551470Y392380I-1250J0D01*
G01*
X668610Y582065D02*
G03*
X668610Y582065I-1250J0D01*
G01*
X551820Y525565D02*
G03*
X551820Y525565I-1250J0D01*
G01*
X180818Y335269D02*
G03*
X180818Y335269I-1250J0D01*
G01*
X297468Y357162D02*
G03*
X297468Y357162I-1250J0D01*
G01*
X178568Y435024D02*
G03*
X178568Y435024I-1250J0D01*
G01*
X641392Y133604D02*
G03*
X641392Y133604I-1250J0D01*
G01*
D11*
X758698Y737870D02*
G03*
X758698Y737870I-1778J0D01*
G01*
X114808Y383540D02*
G03*
X114808Y383540I-1778J0D01*
G01*
D12*
X460973Y522356D02*
G03*
X460973Y522356I-1256J0D01*
G01*
X344405D02*
G03*
X344405Y522356I-1256J0D01*
G01*
X227836D02*
G03*
X227836Y522356I-1256J0D01*
G01*
X111268D02*
G03*
X111268Y522356I-1256J0D01*
G01*
X181048Y312226D02*
G03*
X181048Y312226I-1055J0D01*
G01*
X781392Y112993D02*
G03*
X781392Y112993I-1270J0D01*
G01*
X568430Y299880D02*
G03*
X568430Y299880I-1250J0D01*
G01*
X190738Y139746D02*
X190770D01*
X100919Y671749D02*
X100951D01*
X420555Y154942D02*
Y167855D01*
X342248D02*
X420555D01*
X342248Y154942D02*
Y167855D01*
X342020Y96054D02*
Y109222D01*
Y96054D02*
X420555D01*
Y109222D01*
X86106Y68072D02*
Y79502D01*
Y42418D02*
Y53848D01*
Y42418D02*
X142494D01*
X86106Y79502D02*
X142494D01*
X101600Y67310D02*
X127000D01*
Y54610D02*
Y67310D01*
X101600Y54610D02*
X127000D01*
X101600D02*
Y67310D01*
X142494Y68072D02*
Y79502D01*
Y42418D02*
Y53848D01*
D13*
X281670Y129480D02*
G03*
X281670Y129480I-1000J0D01*
G01*
X617728Y135128D02*
G03*
X611632Y135128I-3048J0D01*
G01*
X439438Y119370D02*
Y150370D01*
X505438Y119370D02*
Y150370D01*
X439438Y119370D02*
X505438D01*
X439438Y150370D02*
X505438D01*
X172750Y382864D02*
Y399114D01*
X146750Y382864D02*
Y399114D01*
X151250D01*
X168250D02*
X172750D01*
Y467654D02*
Y483904D01*
X146750Y467654D02*
Y483904D01*
X151250D01*
X168250D02*
X172750D01*
X138908Y180555D02*
X184608D01*
X138908Y209855D02*
X184608D01*
X264335Y145802D02*
Y191502D01*
X235035Y145802D02*
Y191502D01*
X46488Y712803D02*
X92188D01*
X46488Y742103D02*
X92188D01*
X774750Y98550D02*
Y281450D01*
X725250Y98550D02*
Y281450D01*
X774750D01*
X725250Y98550D02*
X774750D01*
X42378Y601497D02*
X44878D01*
X60878D02*
X63378D01*
X60878Y625497D02*
X63378D01*
X42378D02*
X50878D01*
X613310Y570565D02*
X664310D01*
X613310Y537065D02*
X664310D01*
Y570565D01*
X613310Y537065D02*
Y570565D01*
X553620Y537065D02*
X604620D01*
X553620Y570565D02*
X604620D01*
X553620Y537065D02*
Y570565D01*
X604620Y537065D02*
Y570565D01*
X212568Y346269D02*
Y365269D01*
X181568Y346269D02*
Y365269D01*
X212568D01*
X181568Y346269D02*
X212568D01*
X16496Y293878D02*
X20729Y289645D01*
X16496Y268478D02*
X20729Y272711D01*
X16496Y268478D02*
X20729Y264245D01*
X16496Y293878D02*
X20729Y298111D01*
X95659Y306155D02*
X99893Y301921D01*
X100316Y179578D02*
Y306578D01*
X74916D02*
X100316D01*
X74916Y179578D02*
X100316D01*
X74916D02*
Y306578D01*
X20729Y298111D02*
X74662D01*
X20729Y289645D02*
X74916D01*
X20729Y272711D02*
X74662D01*
X20729Y264245D02*
X74662D01*
X16496Y243078D02*
X20729Y238845D01*
X16496Y217678D02*
X20729Y221911D01*
X16496Y217678D02*
X20729Y213445D01*
X16496Y243078D02*
X20729Y247311D01*
X74662D01*
X20729Y238845D02*
X74916D01*
X20729Y221911D02*
X74662D01*
X20729Y213445D02*
X74662D01*
X16496Y192278D02*
X20729Y188045D01*
X16496Y192278D02*
X20729Y196511D01*
X74662D01*
X20729Y188045D02*
X74916D01*
X20729Y105495D02*
X74916D01*
X20729Y113961D02*
X74662D01*
X16496Y109728D02*
X20729Y113961D01*
X16496Y109728D02*
X20729Y105495D01*
X20729Y130895D02*
X74662D01*
X20729Y139361D02*
X74662D01*
X20729Y156295D02*
X74916D01*
X20729Y164761D02*
X74662D01*
X74916Y97028D02*
Y173228D01*
Y97028D02*
X100316D01*
X74916Y173228D02*
X100316D01*
Y97028D02*
Y173228D01*
X95659Y172805D02*
X99893Y168571D01*
X16496Y160528D02*
X20729Y164761D01*
X16496Y135128D02*
X20729Y130895D01*
X16496Y135128D02*
X20729Y139361D01*
X16496Y160528D02*
X20729Y156295D01*
X179318Y446024D02*
X210318D01*
X179318Y465024D02*
X210318D01*
X179318Y446024D02*
Y465024D01*
X210318Y446024D02*
Y465024D01*
X213158Y96045D02*
X221658D01*
X200658D02*
X203158D01*
X200658Y120045D02*
X203158D01*
X219158D02*
X221658D01*
X390084Y668138D02*
Y672638D01*
Y646638D02*
Y651138D01*
Y646638D02*
X406334D01*
X390084Y672638D02*
X406334D01*
X390084Y703698D02*
Y708198D01*
Y682198D02*
Y686698D01*
Y682198D02*
X406334D01*
X390084Y708198D02*
X406334D01*
X390084Y739258D02*
Y743758D01*
Y717758D02*
Y722258D01*
Y717758D02*
X406334D01*
X390084Y743758D02*
X406334D01*
X390084Y774818D02*
Y779318D01*
Y753318D02*
Y757818D01*
Y753318D02*
X406334D01*
X390084Y779318D02*
X406334D01*
X594680Y185020D02*
X634680D01*
X594680Y135020D02*
X634680D01*
D14*
X330900Y447504D02*
G03*
X330900Y447504I-762J0D01*
G01*
D15*
X131572Y429514D02*
G03*
X131572Y429514I-1778J0D01*
G01*
X80023Y428284D02*
G03*
X80023Y428284I-1778J0D01*
G01*
X191778Y637500D02*
G03*
X191778Y637500I-1778J0D01*
G01*
X501778D02*
G03*
X501778Y637500I-1778J0D01*
G01*
X169454Y208636D02*
X169539Y181720D01*
X236254Y176348D02*
X263170Y176432D01*
X77034Y740884D02*
X77118Y713968D01*
X157654Y97130D02*
Y117302D01*
X156886Y216744D02*
Y236916D01*
X367543Y185937D02*
Y206108D01*
X263111Y218006D02*
Y238177D01*
X64487Y632540D02*
Y652711D01*
X64804Y747640D02*
Y767811D01*
X490003Y218006D02*
Y238177D01*
X436477Y218007D02*
Y238178D01*
D16*
X609096Y295513D02*
G03*
X618679Y295380I4802J680D01*
G01*
D17*
X657310Y560565D02*
G03*
X657310Y560565I-3000J0D01*
G01*
X566620Y547065D02*
G03*
X566620Y547065I-3000J0D01*
G01*
D18*
X774065Y788396D02*
Y791845D01*
X699135Y747395D02*
Y750754D01*
X750241Y747395D02*
X774065D01*
X699135Y788396D02*
Y791845D01*
X774065D01*
Y747395D02*
Y750754D01*
X699135Y747395D02*
X722959D01*
X429339Y522518D02*
X433625D01*
X429200Y554184D02*
X433485D01*
X456660Y554144D02*
X460945D01*
X312771Y522518D02*
X317056D01*
X312631Y554184D02*
X316917D01*
X340091Y554144D02*
X344377D01*
X196202Y522518D02*
X200488D01*
X196063Y554184D02*
X200348D01*
X223523Y554144D02*
X227808D01*
X79633Y522518D02*
X83919D01*
X79494Y554184D02*
X83780D01*
X106954Y554144D02*
X111240D01*
X335408Y453262D02*
X342819D01*
X479934Y445851D02*
Y453262D01*
X472522Y308736D02*
X479934D01*
X335408D02*
Y316148D01*
Y445851D02*
Y453262D01*
X472522D02*
X479934D01*
Y308736D02*
Y316148D01*
X335408Y308736D02*
X342819D01*
X122682Y477813D02*
Y487426D01*
X112808Y424942D02*
X122682D01*
X91186Y437988D02*
Y474380D01*
X112808Y487426D02*
X122682D01*
Y424942D02*
Y434555D01*
X71133Y423712D02*
Y433324D01*
X61259Y486196D02*
X71133D01*
X39637Y436758D02*
Y473149D01*
X61259Y423712D02*
X71133D01*
Y476583D02*
Y486196D01*
X185445Y310347D02*
X205511D01*
X185445Y277327D02*
X205511D01*
X103505Y325755D02*
Y349579D01*
X100146Y400685D02*
X103505D01*
X59055Y325755D02*
Y400685D01*
Y325755D02*
X62504D01*
X103505Y376861D02*
Y400685D01*
X100146Y325755D02*
X103505D01*
X59055Y400685D02*
X62504D01*
D19*
X86412Y558425D02*
Y602329D01*
X120956Y558425D02*
Y602329D01*
X86412D02*
X120956D01*
X86412Y558425D02*
X120956D01*
X202981D02*
Y602329D01*
X237525Y558425D02*
Y602329D01*
X202981D02*
X237525D01*
X202981Y558425D02*
X237525D01*
X319550D02*
Y602329D01*
X354094Y558425D02*
Y602329D01*
X319550D02*
X354094D01*
X319550Y558425D02*
X354094D01*
X436118D02*
Y602329D01*
X470662Y558425D02*
Y602329D01*
X436118D02*
X470662D01*
X436118Y558425D02*
X470662D01*
X165821Y138894D02*
X168079D01*
X165821D02*
Y141175D01*
X165856Y163647D02*
X168137D01*
X165856Y161388D02*
Y163647D01*
X191649Y161394D02*
Y163676D01*
X189390D02*
X191649D01*
X76002Y670897D02*
X78260D01*
X76002D02*
Y673179D01*
X76037Y695650D02*
X78318D01*
X76037Y693391D02*
Y695650D01*
X101830Y693398D02*
Y695679D01*
X99571D02*
X101830D01*
X284127Y287019D02*
Y309071D01*
Y314959D01*
X269762D02*
X284127D01*
X269762Y287019D02*
Y314959D01*
X272599Y298450D02*
X281287D01*
Y303784D01*
X272599D02*
X281287D01*
X272599Y298450D02*
Y303784D01*
X269762Y287019D02*
X284127D01*
X196455Y238326D02*
X225919D01*
X196455Y217498D02*
X225919D01*
X196455D02*
Y238326D01*
X225919Y217498D02*
Y238326D01*
X112197Y769221D02*
X141661D01*
X112197Y748393D02*
X141661D01*
X112197D02*
Y769221D01*
X141661Y748393D02*
Y769221D01*
X310530Y447238D02*
X316530D01*
X310530Y445238D02*
X316530D01*
X320530Y437238D02*
Y455238D01*
X306530Y437238D02*
Y455238D01*
X670445Y479950D02*
Y497950D01*
X656445Y479950D02*
Y497950D01*
X660445Y489950D02*
X666445D01*
X660445Y487950D02*
X666445D01*
X619866Y479950D02*
Y497950D01*
X633866Y479950D02*
Y497950D01*
X623866Y487950D02*
X629866D01*
X623866Y489950D02*
X629866D01*
X638156Y479950D02*
Y497950D01*
X652156Y479950D02*
Y497950D01*
X642156Y487950D02*
X648156D01*
X642156Y489950D02*
X648156D01*
X652343Y608220D02*
Y626220D01*
X638343Y608220D02*
Y626220D01*
X642343Y618220D02*
X648343D01*
X642343Y616220D02*
X648343D01*
X634022Y608220D02*
Y626220D01*
X620022Y608220D02*
Y626220D01*
X624022Y618220D02*
X630022D01*
X624022Y616220D02*
X630022D01*
X674985Y608220D02*
Y626220D01*
X688985Y608220D02*
Y626220D01*
X678985Y616220D02*
X684985D01*
X678985Y618220D02*
X684985D01*
X542419Y479950D02*
Y497950D01*
X528419Y479950D02*
Y497950D01*
X532419Y489950D02*
X538419D01*
X532419Y487950D02*
X538419D01*
X564998Y479950D02*
Y497950D01*
X578998Y479950D02*
Y497950D01*
X568998Y487950D02*
X574998D01*
X568998Y489950D02*
X574998D01*
X546708Y479950D02*
Y497950D01*
X560708Y479950D02*
Y497950D01*
X550708Y487950D02*
X556708D01*
X550708Y489950D02*
X556708D01*
X615702Y608220D02*
Y626220D01*
X601702Y608220D02*
Y626220D01*
X605702Y618220D02*
X611702D01*
X605702Y616220D02*
X611702D01*
X597381Y608220D02*
Y626220D01*
X583381Y608220D02*
Y626220D01*
X587381Y618220D02*
X593381D01*
X587381Y616220D02*
X593381D01*
X546740Y608220D02*
Y626220D01*
X560740Y608220D02*
Y626220D01*
X550740Y616220D02*
X556740D01*
X550740Y618220D02*
X556740D01*
X397969Y263504D02*
Y281504D01*
X411969Y263504D02*
Y281504D01*
X401969Y271504D02*
X407969D01*
X401969Y273504D02*
X407969D01*
X689159Y97295D02*
X707159D01*
X689159Y83295D02*
X707159D01*
X697159Y87295D02*
Y93295D01*
X699159Y87295D02*
Y93295D01*
X689159Y57702D02*
X707159D01*
X689159Y43702D02*
X707159D01*
X697159Y47702D02*
Y53702D01*
X699159Y47702D02*
Y53702D01*
X689159Y77498D02*
X707159D01*
X689159Y63498D02*
X707159D01*
X697159Y67498D02*
Y73498D01*
X699159Y67498D02*
Y73498D01*
X689008Y334775D02*
X707008D01*
X689008Y348774D02*
X707008D01*
X699008Y338774D02*
Y344775D01*
X697008Y338774D02*
Y344775D01*
X689008Y356056D02*
X707008D01*
X689008Y370056D02*
X707008D01*
X699008Y360056D02*
Y366056D01*
X697008Y360056D02*
Y366056D01*
X689008Y376829D02*
X707008D01*
X689008Y390830D02*
X707008D01*
X699008Y380830D02*
Y386829D01*
X697008Y380830D02*
Y386829D01*
X689008Y397857D02*
X707008D01*
X689008Y411857D02*
X707008D01*
X699008Y401857D02*
Y407857D01*
X697008Y401857D02*
Y407857D01*
X689008Y418884D02*
X707008D01*
X689008Y432884D02*
X707008D01*
X699008Y422884D02*
Y428884D01*
X697008Y422884D02*
Y428884D01*
X689159Y117472D02*
X707159D01*
X689159Y103472D02*
X707159D01*
X697159Y107472D02*
Y113472D01*
X699159Y107472D02*
Y113472D01*
X689008Y138500D02*
X707008D01*
X689008Y124500D02*
X707008D01*
X697008Y128500D02*
Y134500D01*
X699008Y128500D02*
Y134500D01*
X689008Y166555D02*
X707008D01*
X689008Y180555D02*
X707008D01*
X699008Y170555D02*
Y176555D01*
X697008Y170555D02*
Y176555D01*
X689008Y145527D02*
X707008D01*
X689008Y159527D02*
X707008D01*
X699008Y149527D02*
Y155527D01*
X697008Y149527D02*
Y155527D01*
X689008Y187582D02*
X707008D01*
X689008Y201582D02*
X707008D01*
X699008Y191582D02*
Y197582D01*
X697008Y191582D02*
Y197582D01*
X689008Y222610D02*
X707008D01*
X689008Y208610D02*
X707008D01*
X697008Y212610D02*
Y218610D01*
X699008Y212610D02*
Y218610D01*
X689008Y229637D02*
X707008D01*
X689008Y243637D02*
X707008D01*
X699008Y233637D02*
Y239637D01*
X697008Y233637D02*
Y239637D01*
X689008Y264665D02*
X707008D01*
X689008Y250665D02*
X707008D01*
X697008Y254665D02*
Y260665D01*
X699008Y254665D02*
Y260665D01*
X689008Y285692D02*
X707008D01*
X689008Y271692D02*
X707008D01*
X697008Y275692D02*
Y281692D01*
X699008Y275692D02*
Y281692D01*
X689008Y292720D02*
X707008D01*
X689008Y306720D02*
X707008D01*
X699008Y296720D02*
Y302720D01*
X697008Y296720D02*
Y302720D01*
X689008Y313747D02*
X707008D01*
X689008Y327747D02*
X707008D01*
X699008Y317747D02*
Y323747D01*
X697008Y317747D02*
Y323747D01*
X251024Y437265D02*
Y455265D01*
X265024Y437265D02*
Y455265D01*
X255024Y445265D02*
X261024D01*
X255024Y447265D02*
X261024D01*
X269456Y468074D02*
Y486074D01*
X283456Y468074D02*
Y486074D01*
X273456Y476074D02*
X279456D01*
X273456Y478074D02*
X279456D01*
X269762Y437265D02*
Y455265D01*
X283762Y437265D02*
Y455265D01*
X273762Y445265D02*
X279762D01*
X273762Y447265D02*
X279762D01*
X287993Y468074D02*
Y486074D01*
X301993Y468074D02*
Y486074D01*
X291993Y476074D02*
X297993D01*
X291993Y478074D02*
X297993D01*
X288499Y437265D02*
Y455265D01*
X302500Y437265D02*
Y455265D01*
X292500Y445265D02*
X298500D01*
X292500Y447265D02*
X298500D01*
X533664Y296570D02*
Y302570D01*
X535664Y296570D02*
Y302570D01*
X525664Y306570D02*
X543664D01*
X525664Y292570D02*
X543664D01*
X656678Y418885D02*
X674678D01*
X656678Y432885D02*
X674678D01*
X666678Y422885D02*
Y428885D01*
X664678Y422885D02*
Y428885D01*
X533659Y401624D02*
Y407624D01*
X535659Y401624D02*
Y407624D01*
X525659Y411624D02*
X543659D01*
X525659Y397624D02*
X543659D01*
X533664Y359602D02*
Y365602D01*
X535664Y359602D02*
Y365602D01*
X525664Y369602D02*
X543664D01*
X525664Y355602D02*
X543664D01*
X533664Y380613D02*
Y386613D01*
X535664Y380613D02*
Y386613D01*
X525664Y390613D02*
X543664D01*
X525664Y376613D02*
X543664D01*
X533664Y275559D02*
Y281559D01*
X535664Y275559D02*
Y281559D01*
X525664Y285559D02*
X543664D01*
X525664Y271559D02*
X543664D01*
X533664Y212865D02*
Y218865D01*
X535664Y212865D02*
Y218865D01*
X525664Y222865D02*
X543664D01*
X525664Y208865D02*
X543664D01*
X533664Y254548D02*
Y260548D01*
X535664Y254548D02*
Y260548D01*
X525664Y264548D02*
X543664D01*
X525664Y250548D02*
X543664D01*
X533664Y317747D02*
Y323747D01*
X535664Y317747D02*
Y323747D01*
X525664Y327747D02*
X543664D01*
X525664Y313747D02*
X543664D01*
X533664Y338591D02*
Y344591D01*
X535664Y338591D02*
Y344591D01*
X525664Y348591D02*
X543664D01*
X525664Y334591D02*
X543664D01*
X533664Y192024D02*
Y198024D01*
X535664Y192024D02*
Y198024D01*
X525664Y202024D02*
X543664D01*
X525664Y188024D02*
X543664D01*
X533664Y233706D02*
Y239706D01*
X535664Y233706D02*
Y239706D01*
X525664Y243706D02*
X543664D01*
X525664Y229706D02*
X543664D01*
X533664Y149494D02*
Y155494D01*
X535664Y149494D02*
Y155494D01*
X525664Y159494D02*
X543664D01*
X525664Y145494D02*
X543664D01*
X533664Y128483D02*
Y134483D01*
X535664Y128483D02*
Y134483D01*
X525664Y138483D02*
X543664D01*
X525664Y124483D02*
X543664D01*
X533664Y170759D02*
Y176759D01*
X535664Y170759D02*
Y176759D01*
X525664Y180759D02*
X543664D01*
X525664Y166759D02*
X543664D01*
X533664Y107472D02*
Y113472D01*
X535664Y107472D02*
Y113472D01*
X525664Y117472D02*
X543664D01*
X525664Y103472D02*
X543664D01*
X125476Y697345D02*
Y703345D01*
X127476Y697345D02*
Y703345D01*
X117476Y707345D02*
X135476D01*
X117476Y693345D02*
X135476D01*
X410956Y483770D02*
X416956D01*
X410956Y481770D02*
X416956D01*
X420956Y473770D02*
Y491770D01*
X406956Y473770D02*
Y491770D01*
X211142Y174252D02*
Y180252D01*
X213142Y174252D02*
Y180252D01*
X203142Y184252D02*
X221142D01*
X203142Y170252D02*
X221142D01*
X385986Y273504D02*
X391986D01*
X385986Y271504D02*
X391986D01*
X395986Y263504D02*
Y281504D01*
X381986Y263504D02*
Y281504D01*
X233745Y379001D02*
Y385001D01*
X231745Y379001D02*
Y385001D01*
X223745Y375001D02*
X241745D01*
X223745Y389001D02*
X241745D01*
X231745Y330671D02*
Y336671D01*
X233745Y330671D02*
Y336671D01*
X223745Y340671D02*
X241745D01*
X223745Y326671D02*
X241745D01*
X231745Y346781D02*
Y352781D01*
X233745Y346781D02*
Y352781D01*
X223745Y356781D02*
X241745D01*
X223745Y342781D02*
X241745D01*
X233745Y475662D02*
Y481662D01*
X231745Y475662D02*
Y481662D01*
X223745Y471662D02*
X241745D01*
X223745Y485662D02*
X241745D01*
X231745Y362891D02*
Y368891D01*
X233745Y362891D02*
Y368891D01*
X223745Y372891D02*
X241745D01*
X223745Y358891D02*
X241745D01*
X231745Y459552D02*
Y465552D01*
X233745Y459552D02*
Y465552D01*
X223745Y469552D02*
X241745D01*
X223745Y455552D02*
X241745D01*
X231745Y411222D02*
Y417221D01*
X233745Y411222D02*
Y417221D01*
X223745Y421222D02*
X241745D01*
X223745Y407221D02*
X241745D01*
X231745Y395111D02*
Y401111D01*
X233745Y395111D02*
Y401111D01*
X223745Y405111D02*
X241745D01*
X223745Y391111D02*
X241745D01*
X231745Y427332D02*
Y433332D01*
X233745Y427332D02*
Y433332D01*
X223745Y437332D02*
X241745D01*
X223745Y423332D02*
X241745D01*
X231745Y443442D02*
Y449442D01*
X233745Y443442D02*
Y449442D01*
X223745Y453442D02*
X241745D01*
X223745Y439442D02*
X241745D01*
X198882Y395111D02*
Y401111D01*
X196882Y395111D02*
Y401111D01*
X188882Y391111D02*
X206882D01*
X188882Y405111D02*
X206882D01*
X198882Y411222D02*
Y417221D01*
X196882Y411222D02*
Y417221D01*
X188882Y407221D02*
X206882D01*
X188882Y421222D02*
X206882D01*
X306530Y468074D02*
Y486074D01*
X320530Y468074D02*
Y486074D01*
X310530Y476074D02*
X316530D01*
X310530Y478074D02*
X316530D01*
X255024D02*
X261024D01*
X255024Y476074D02*
X261024D01*
X265024Y468074D02*
Y486074D01*
X251024Y468074D02*
Y486074D01*
X211142Y126972D02*
Y132972D01*
X213142Y126972D02*
Y132972D01*
X203142Y136972D02*
X221142D01*
X203142Y122972D02*
X221142D01*
X213142Y142732D02*
Y148732D01*
X211142Y142732D02*
Y148732D01*
X203142Y138732D02*
X221142D01*
X203142Y152732D02*
X221142D01*
X211142Y190012D02*
Y196012D01*
X213142Y190012D02*
Y196012D01*
X203142Y200012D02*
X221142D01*
X203142Y186012D02*
X221142D01*
X213142Y205773D02*
Y211773D01*
X211142Y205773D02*
Y211773D01*
X203142Y201773D02*
X221142D01*
X203142Y215773D02*
X221142D01*
X213142Y158492D02*
Y164492D01*
X211142Y158492D02*
Y164492D01*
X203142Y154492D02*
X221142D01*
X203142Y168492D02*
X221142D01*
X143504Y148507D02*
Y154507D01*
X145504Y148507D02*
Y154507D01*
X135504Y158507D02*
X153504D01*
X135504Y144507D02*
X153504D01*
X280265Y114300D02*
Y120300D01*
X278265Y114300D02*
Y120300D01*
X270265Y110300D02*
X288265D01*
X270265Y124300D02*
X288265D01*
X310610Y114300D02*
Y120300D01*
X308610Y114300D02*
Y120300D01*
X300610Y110300D02*
X318610D01*
X300610Y124300D02*
X318610D01*
X125476Y679041D02*
Y685041D01*
X127476Y679041D02*
Y685041D01*
X117476Y689041D02*
X135476D01*
X117476Y675041D02*
X135476D01*
X125476Y642433D02*
Y648433D01*
X127476Y642433D02*
Y648433D01*
X117476Y652433D02*
X135476D01*
X117476Y638433D02*
X135476D01*
X125476Y715649D02*
Y721649D01*
X127476Y715649D02*
Y721649D01*
X117476Y725649D02*
X135476D01*
X117476Y711649D02*
X135476D01*
X127476Y733953D02*
Y739953D01*
X125476Y733953D02*
Y739953D01*
X117476Y729953D02*
X135476D01*
X117476Y743953D02*
X135476D01*
X127476Y660737D02*
Y666737D01*
X125476Y660737D02*
Y666737D01*
X117476Y656737D02*
X135476D01*
X117476Y670737D02*
X135476D01*
X127476Y624129D02*
Y630130D01*
X125476Y624129D02*
Y630130D01*
X117476Y620130D02*
X135476D01*
X117476Y634129D02*
X135476D01*
X51954Y680373D02*
Y686373D01*
X53954Y680373D02*
Y686373D01*
X43954Y690373D02*
X61954D01*
X43954Y676373D02*
X61954D01*
X233643Y314220D02*
Y320220D01*
X231643Y314220D02*
Y320220D01*
X223643Y310220D02*
X241643D01*
X223643Y324220D02*
X241643D01*
X233643Y298045D02*
Y304045D01*
X231643Y298045D02*
Y304045D01*
X223643Y294045D02*
X241643D01*
X223643Y308045D02*
X241643D01*
X233528Y281986D02*
Y287986D01*
X231528Y281986D02*
Y287986D01*
X223528Y277986D02*
X241528D01*
X223528Y291986D02*
X241528D01*
X160096Y266173D02*
Y272173D01*
X158096Y266173D02*
Y272173D01*
X150096Y262173D02*
X168095D01*
X150096Y276173D02*
X168095D01*
X231707Y265886D02*
Y271886D01*
X233707Y265886D02*
Y271886D01*
X223707Y275886D02*
X241707D01*
X223707Y261886D02*
X241707D01*
X379128Y481678D02*
X385128D01*
X379128Y483678D02*
X385128D01*
X375128Y473678D02*
Y491678D01*
X389128Y473678D02*
Y491678D01*
X394481Y483678D02*
X400481D01*
X394481Y481678D02*
X400481D01*
X404481Y473678D02*
Y491678D01*
X390481Y473678D02*
Y491678D01*
X437674Y646884D02*
Y652884D01*
X439674Y646884D02*
Y652884D01*
X429674Y656884D02*
X447674D01*
X429674Y642884D02*
X447674D01*
X437674Y682444D02*
Y688444D01*
X439674Y682444D02*
Y688444D01*
X429674Y692444D02*
X447674D01*
X429674Y678444D02*
X447674D01*
X437674Y718004D02*
Y724004D01*
X439674Y718004D02*
Y724004D01*
X429674Y728004D02*
X447674D01*
X429674Y714004D02*
X447674D01*
X437674Y753564D02*
Y759564D01*
X439674Y753564D02*
Y759564D01*
X429674Y763564D02*
X447674D01*
X429674Y749564D02*
X447674D01*
X437674Y665884D02*
Y671884D01*
X439674Y665884D02*
Y671884D01*
X429674Y675884D02*
X447674D01*
X429674Y661884D02*
X447674D01*
X437674Y701444D02*
Y707444D01*
X439674Y701444D02*
Y707444D01*
X429674Y711444D02*
X447674D01*
X429674Y697444D02*
X447674D01*
X437674Y737004D02*
Y743004D01*
X439674Y737004D02*
Y743004D01*
X429674Y747004D02*
X447674D01*
X429674Y733004D02*
X447674D01*
X437674Y772564D02*
Y778564D01*
X439674Y772564D02*
Y778564D01*
X429674Y782564D02*
X447674D01*
X429674Y768564D02*
X447674D01*
D20*
X326644Y150738D02*
Y189738D01*
X272542Y150738D02*
Y189738D01*
X360500Y703000D02*
Y729500D01*
X159500Y703000D02*
Y729500D01*
X178000Y694000D02*
X342000D01*
X670500Y703000D02*
Y729500D01*
X469500Y703000D02*
Y729500D01*
X488000Y694000D02*
X652000D01*
X773500Y715100D02*
X776000D01*
X773500Y476100D02*
X776000D01*
X703580Y504720D02*
X708580Y507720D01*
X703580Y510720D02*
X708580Y507720D01*
X703580Y504720D02*
Y510720D01*
X724000Y715100D02*
X737000D01*
X724000Y476100D02*
X737000D01*
X776000D02*
Y715100D01*
X724000Y476100D02*
Y500900D01*
Y690300D02*
Y715100D01*
Y437200D02*
Y462000D01*
Y298000D02*
Y322800D01*
X776000Y298000D02*
Y462000D01*
X724000Y298000D02*
X737000D01*
X724000Y462000D02*
X737000D01*
X709330Y327220D02*
Y333220D01*
X714330Y330220D01*
X709330Y327220D02*
X714330Y330220D01*
X773500Y298000D02*
X776000D01*
X773500Y462000D02*
X776000D01*
D21*
X340106Y441960D02*
X346964Y448564D01*
X132916Y95972D02*
Y118462D01*
X177614Y95972D02*
Y118462D01*
X132916D02*
X177614D01*
X132916Y95972D02*
X177614D01*
X132148Y215586D02*
Y238076D01*
X176846Y215586D02*
Y238076D01*
X132148D02*
X176846D01*
X132148Y215586D02*
X176846D01*
X342805Y184778D02*
Y207268D01*
X387503Y184778D02*
Y207268D01*
X342805D02*
X387503D01*
X342805Y184778D02*
X387503D01*
X238373Y216847D02*
Y239337D01*
X283071Y216847D02*
Y239337D01*
X238373D02*
X283071D01*
X238373Y216847D02*
X283071D01*
X39749Y631381D02*
Y653871D01*
X84447Y631381D02*
Y653871D01*
X39749D02*
X84447D01*
X39749Y631381D02*
X84447D01*
X40066Y746481D02*
Y768971D01*
X84764Y746481D02*
Y768971D01*
X40066D02*
X84764D01*
X40066Y746481D02*
X84764D01*
X465265Y216847D02*
Y239337D01*
X509963Y216847D02*
Y239337D01*
X465265D02*
X509963D01*
X465265Y216847D02*
X509963D01*
X461215Y216847D02*
Y239337D01*
X416517Y216847D02*
Y239337D01*
Y216847D02*
X461215D01*
X416517Y239337D02*
X461215D01*
X579484Y344130D02*
Y402630D01*
Y344130D02*
X654956D01*
Y402630D01*
X579484D02*
X654956D01*
D22*
X594679Y196530D02*
X634679D01*
X594679Y296230D02*
X634679D01*
X29917Y355977D02*
X25918D01*
Y353311D01*
X29917Y349312D02*
Y351978D01*
X25918D01*
Y349312D01*
X27918Y351978D02*
Y350645D01*
X29917Y347979D02*
X25918D01*
Y345980D01*
X26585Y345313D01*
X29251D01*
X29917Y345980D01*
Y347979D01*
X25252Y343980D02*
Y341315D01*
X25918Y339982D02*
X29917D01*
X25918Y337316D01*
X29917D01*
X29734Y382694D02*
X25735D01*
Y380028D01*
X29734Y376029D02*
Y378695D01*
X25735D01*
Y376029D01*
X27735Y378695D02*
Y377362D01*
X29734Y374696D02*
X25735D01*
Y372697D01*
X26402Y372030D01*
X29067D01*
X29734Y372697D01*
Y374696D01*
X25069Y370698D02*
Y368032D01*
X25735Y366699D02*
X29734D01*
Y364700D01*
X29067Y364033D01*
X27735D01*
X27068Y364700D01*
Y366699D01*
X35497Y178130D02*
Y182129D01*
X38163Y178130D01*
Y182129D01*
X39496Y178130D02*
Y182129D01*
X41495D01*
X42162Y181463D01*
Y180130D01*
X41495Y179463D01*
X39496D01*
X40829D02*
X42162Y178130D01*
X46160Y181463D02*
X45494Y182129D01*
X44161D01*
X43495Y181463D01*
Y180796D01*
X44161Y180130D01*
X45494D01*
X46160Y179463D01*
Y178797D01*
X45494Y178130D01*
X44161D01*
X43495Y178797D01*
X47493Y182129D02*
X50159D01*
X48826D01*
Y178130D01*
X36516Y206687D02*
X35849Y207354D01*
X34516D01*
X33850Y206687D01*
Y206021D01*
X34516Y205354D01*
X35849D01*
X36516Y204688D01*
Y204022D01*
X35849Y203355D01*
X34516D01*
X33850Y204022D01*
X37848Y207354D02*
Y203355D01*
X39181Y204688D01*
X40514Y203355D01*
Y207354D01*
X44513Y206687D02*
X43847Y207354D01*
X42514D01*
X41847Y206687D01*
Y204022D01*
X42514Y203355D01*
X43847D01*
X44513Y204022D01*
X45846Y207354D02*
Y203355D01*
X48512D01*
X49844Y207354D02*
Y203355D01*
Y204688D01*
X52510Y207354D01*
X50511Y205354D01*
X52510Y203355D01*
X35894Y231912D02*
X35227Y232578D01*
X33894D01*
X33228Y231912D01*
Y231245D01*
X33894Y230579D01*
X35227D01*
X35894Y229913D01*
Y229246D01*
X35227Y228580D01*
X33894D01*
X33228Y229246D01*
X37227Y232578D02*
Y228580D01*
X38560Y229913D01*
X39892Y228580D01*
Y232578D01*
X41225D02*
Y228580D01*
X43225D01*
X43891Y229246D01*
Y231912D01*
X43225Y232578D01*
X41225D01*
X45224D02*
X46557D01*
X45890D01*
Y228580D01*
X45224D01*
X46557D01*
X50556Y232578D02*
X49223D01*
X48556Y231912D01*
Y229246D01*
X49223Y228580D01*
X50556D01*
X51222Y229246D01*
Y231912D01*
X50556Y232578D01*
X39223Y257137D02*
X38557Y257803D01*
X37224D01*
X36557Y257137D01*
Y254471D01*
X37224Y253804D01*
X38557D01*
X39223Y254471D01*
Y255804D01*
X37890D01*
X40556Y253804D02*
Y257803D01*
X43222Y253804D01*
Y257803D01*
X44555D02*
Y253804D01*
X46554D01*
X47221Y254471D01*
Y257137D01*
X46554Y257803D01*
X44555D01*
X37074Y283028D02*
Y280362D01*
X38406Y279029D01*
X39739Y280362D01*
Y283028D01*
X43738Y282361D02*
X43072Y283028D01*
X41739D01*
X41072Y282361D01*
Y279695D01*
X41739Y279029D01*
X43072D01*
X43738Y279695D01*
X47737Y282361D02*
X47070Y283028D01*
X45737D01*
X45071Y282361D01*
Y279695D01*
X45737Y279029D01*
X47070D01*
X47737Y279695D01*
X28188Y485461D02*
X28855Y486128D01*
Y487460D01*
X28188Y488127D01*
X27522D01*
X26855Y487460D01*
Y486128D01*
X26189Y485461D01*
X25522D01*
X24856Y486128D01*
Y487460D01*
X25522Y488127D01*
X28188Y481462D02*
X28855Y482129D01*
Y483462D01*
X28188Y484128D01*
X25522D01*
X24856Y483462D01*
Y482129D01*
X25522Y481462D01*
X28855Y480130D02*
X24856D01*
Y477464D01*
X28188Y428806D02*
X28855Y429473D01*
Y430805D01*
X28188Y431472D01*
X25522D01*
X24856Y430805D01*
Y429473D01*
X25522Y428806D01*
X26855D01*
Y430139D01*
X24856Y427473D02*
X28855D01*
X24856Y424807D01*
X28855D01*
Y423475D02*
X24856D01*
Y421475D01*
X25522Y420809D01*
X28188D01*
X28855Y421475D01*
Y423475D01*
X28188Y466461D02*
X28855Y467128D01*
Y468461D01*
X28188Y469127D01*
X27522D01*
X26855Y468461D01*
Y467128D01*
X26189Y466461D01*
X25522D01*
X24856Y467128D01*
Y468461D01*
X25522Y469127D01*
X28855Y465128D02*
X24856D01*
Y463129D01*
X25522Y462462D01*
X28188D01*
X28855Y463129D01*
Y465128D01*
X24856Y461130D02*
X27522D01*
X28855Y459797D01*
X27522Y458464D01*
X24856D01*
X26855D01*
Y461130D01*
X28855Y450292D02*
X26189D01*
X24856Y448959D01*
X26189Y447626D01*
X28855D01*
X28188Y443627D02*
X28855Y444294D01*
Y445627D01*
X28188Y446293D01*
X25522D01*
X24856Y445627D01*
Y444294D01*
X25522Y443627D01*
X28188Y439629D02*
X28855Y440295D01*
Y441628D01*
X28188Y442294D01*
X25522D01*
X24856Y441628D01*
Y440295D01*
X25522Y439629D01*
X40056Y150087D02*
X39390Y150753D01*
X38057D01*
X37390Y150087D01*
Y147421D01*
X38057Y146754D01*
X39390D01*
X40056Y147421D01*
Y148754D01*
X38723D01*
X41389Y146754D02*
Y150753D01*
X44055Y146754D01*
Y150753D01*
X45388D02*
Y146754D01*
X47387D01*
X48053Y147421D01*
Y150087D01*
X47387Y150753D01*
X45388D01*
X38822Y124715D02*
X41488D01*
X40155D01*
Y120716D01*
X42821Y124715D02*
X45486Y120716D01*
Y124715D02*
X42821Y120716D01*
X39530Y96396D02*
Y100394D01*
X41529D01*
X42195Y99728D01*
Y98395D01*
X41529Y97729D01*
X39530D01*
X40862D02*
X42195Y96396D01*
X43528Y100394D02*
X46194Y96396D01*
Y100394D02*
X43528Y96396D01*
X347339Y287158D02*
Y283826D01*
X348006Y283160D01*
X349339D01*
X350005Y283826D01*
Y287158D01*
X354004Y283160D02*
X351338D01*
X354004Y285825D01*
Y286492D01*
X353337Y287158D01*
X352004D01*
X351338Y286492D01*
X355337D02*
X356003Y287158D01*
X357336D01*
X358002Y286492D01*
Y283826D01*
X357336Y283160D01*
X356003D01*
X355337Y283826D01*
Y286492D01*
X785718Y714469D02*
X784385D01*
X785051D01*
Y711137D01*
X784385Y710471D01*
X783718D01*
X783052Y711137D01*
X787050Y713803D02*
X787717Y714469D01*
X789050D01*
X789716Y713803D01*
Y713137D01*
X789050Y712470D01*
X788383D01*
X789050D01*
X789716Y711804D01*
Y711137D01*
X789050Y710471D01*
X787717D01*
X787050Y711137D01*
X782019Y280637D02*
X780686D01*
X781353D01*
Y277305D01*
X780686Y276639D01*
X780020D01*
X779354Y277305D01*
X783352Y276639D02*
X784685D01*
X784019D01*
Y280637D01*
X783352Y279971D01*
X789350Y276639D02*
X786685D01*
X789350Y279305D01*
Y279971D01*
X788684Y280637D01*
X787351D01*
X786685Y279971D01*
X189790Y269954D02*
Y266621D01*
X190456Y265955D01*
X191789D01*
X192456Y266621D01*
Y269954D01*
X196455Y265955D02*
X193789D01*
X196455Y268621D01*
Y269287D01*
X195788Y269954D01*
X194455D01*
X193789Y269287D01*
X197787Y265955D02*
X199120D01*
X198454D01*
Y269954D01*
X197787Y269287D01*
X633561Y510609D02*
Y507277D01*
X634228Y506610D01*
X635561D01*
X636227Y507277D01*
Y510609D01*
X637560Y506610D02*
X638893D01*
X638226D01*
Y510609D01*
X637560Y509943D01*
X642892Y506610D02*
Y510609D01*
X640892Y508610D01*
X643558D01*
X574137Y510609D02*
Y507277D01*
X574803Y506610D01*
X576136D01*
X576802Y507277D01*
Y510609D01*
X578135Y506610D02*
X579468D01*
X578802D01*
Y510609D01*
X578135Y509943D01*
X581468D02*
X582134Y510609D01*
X583467D01*
X584133Y509943D01*
Y509276D01*
X583467Y508610D01*
X582800D01*
X583467D01*
X584133Y507943D01*
Y507277D01*
X583467Y506610D01*
X582134D01*
X581468Y507277D01*
X611460Y340581D02*
Y337249D01*
X612126Y336583D01*
X613459D01*
X614125Y337249D01*
Y340581D01*
X615458Y336583D02*
X616791D01*
X616125D01*
Y340581D01*
X615458Y339915D01*
X621456Y336583D02*
X618791D01*
X621456Y339249D01*
Y339915D01*
X620790Y340581D01*
X619457D01*
X618791Y339915D01*
X612793Y192753D02*
Y189421D01*
X613459Y188755D01*
X614792D01*
X615458Y189421D01*
Y192753D01*
X616791Y188755D02*
X618124D01*
X617458D01*
Y192753D01*
X616791Y192087D01*
X620123Y188755D02*
X621456D01*
X620790D01*
Y192753D01*
X620123Y192087D01*
X611460Y129327D02*
Y125995D01*
X612126Y125329D01*
X613459D01*
X614125Y125995D01*
Y129327D01*
X615458Y125329D02*
X616791D01*
X616125D01*
Y129327D01*
X615458Y128661D01*
X618791D02*
X619457Y129327D01*
X620790D01*
X621456Y128661D01*
Y125995D01*
X620790Y125329D01*
X619457D01*
X618791Y125995D01*
Y128661D01*
X441902Y512182D02*
Y508849D01*
X442569Y508183D01*
X443902D01*
X444568Y508849D01*
Y512182D01*
X445901Y511515D02*
X446568Y512182D01*
X447901D01*
X448567Y511515D01*
Y510849D01*
X447901Y510182D01*
X448567Y509516D01*
Y508849D01*
X447901Y508183D01*
X446568D01*
X445901Y508849D01*
Y509516D01*
X446568Y510182D01*
X445901Y510849D01*
Y511515D01*
X446568Y510182D02*
X447901D01*
X325316Y512182D02*
Y508849D01*
X325983Y508183D01*
X327316D01*
X327982Y508849D01*
Y512182D01*
X329315D02*
X331981D01*
Y511515D01*
X329315Y508849D01*
Y508183D01*
X208730Y512182D02*
Y508849D01*
X209397Y508183D01*
X210730D01*
X211396Y508849D01*
Y512182D01*
X215395D02*
X214062Y511515D01*
X212729Y510182D01*
Y508849D01*
X213396Y508183D01*
X214729D01*
X215395Y508849D01*
Y509516D01*
X214729Y510182D01*
X212729D01*
X92144Y512182D02*
Y508849D01*
X92811Y508183D01*
X94144D01*
X94810Y508849D01*
Y512182D01*
X98809D02*
X96143D01*
Y510182D01*
X97476Y510849D01*
X98142D01*
X98809Y510182D01*
Y508849D01*
X98142Y508183D01*
X96810D01*
X96143Y508849D01*
X500081Y107188D02*
Y103855D01*
X500747Y103189D01*
X502080D01*
X502747Y103855D01*
Y107188D01*
X506079Y103189D02*
Y107188D01*
X504080Y105188D01*
X506745D01*
X84614Y664466D02*
Y661134D01*
X85280Y660468D01*
X86613D01*
X87280Y661134D01*
Y664466D01*
X88612Y663800D02*
X89279Y664466D01*
X90612D01*
X91278Y663800D01*
Y663134D01*
X90612Y662467D01*
X89945D01*
X90612D01*
X91278Y661801D01*
Y661134D01*
X90612Y660468D01*
X89279D01*
X88612Y661134D01*
X332160Y178708D02*
Y175376D01*
X332826Y174710D01*
X334160D01*
X334826Y175376D01*
Y178708D01*
X338825Y174710D02*
X336159D01*
X338825Y177375D01*
Y178042D01*
X338158Y178708D01*
X336825D01*
X336159Y178042D01*
X175775Y131821D02*
Y128489D01*
X176441Y127823D01*
X177774D01*
X178441Y128489D01*
Y131821D01*
X179774Y127823D02*
X181106D01*
X180440D01*
Y131821D01*
X179774Y131155D01*
X477460Y582477D02*
Y578478D01*
X480126D01*
X484124Y582477D02*
X481459D01*
Y580477D01*
X482792Y581144D01*
X483458D01*
X484124Y580477D01*
Y579144D01*
X483458Y578478D01*
X482125D01*
X481459Y579144D01*
X360874Y582477D02*
Y578478D01*
X363540D01*
X366872D02*
Y582477D01*
X364873Y580477D01*
X367538D01*
X244288Y582477D02*
Y578478D01*
X246954D01*
X248287Y581810D02*
X248953Y582477D01*
X250286D01*
X250952Y581810D01*
Y581144D01*
X250286Y580477D01*
X249620D01*
X250286D01*
X250952Y579811D01*
Y579144D01*
X250286Y578478D01*
X248953D01*
X248287Y579144D01*
X127702Y582477D02*
Y578478D01*
X130368D01*
X134367D02*
X131701D01*
X134367Y581144D01*
Y581810D01*
X133700Y582477D01*
X132367D01*
X131701Y581810D01*
X431574Y107459D02*
Y103460D01*
X434240D01*
X435572D02*
X436905D01*
X436239D01*
Y107459D01*
X435572Y106792D01*
X572104Y768571D02*
X570771D01*
X571437D01*
Y765239D01*
X570771Y764573D01*
X570104D01*
X569438Y765239D01*
X573436Y768571D02*
X576102D01*
Y767905D01*
X573436Y765239D01*
Y764573D01*
X255620Y768825D02*
X254287D01*
X254953D01*
Y765493D01*
X254287Y764827D01*
X253620D01*
X252954Y765493D01*
X259618Y768825D02*
X256952D01*
Y766826D01*
X258285Y767493D01*
X258952D01*
X259618Y766826D01*
Y765493D01*
X258952Y764827D01*
X257619D01*
X256952Y765493D01*
X783940Y461993D02*
X782607D01*
X783273D01*
Y458661D01*
X782607Y457995D01*
X781940D01*
X781274Y458661D01*
X787272Y457995D02*
Y461993D01*
X785272Y459994D01*
X787938D01*
X792630Y768778D02*
X791297D01*
X791964D01*
Y765446D01*
X791297Y764780D01*
X790631D01*
X789965Y765446D01*
X796629Y764780D02*
X793963D01*
X796629Y767446D01*
Y768112D01*
X795963Y768778D01*
X794630D01*
X793963Y768112D01*
D23*
X688859Y576152D02*
Y594152D01*
X674859Y576152D02*
Y594152D01*
X676860Y583153D02*
Y587152D01*
X686860Y583153D02*
Y587152D01*
X242431Y519152D02*
Y523153D01*
X252431Y519152D02*
Y523153D01*
X254431Y512152D02*
Y530153D01*
X240431Y512152D02*
Y530153D01*
X307362Y291990D02*
Y309990D01*
X321362Y291990D02*
Y309990D01*
X319362Y298990D02*
Y302990D01*
X309362Y298990D02*
Y302990D01*
X288624Y262272D02*
Y280272D01*
X302624Y262272D02*
Y280272D01*
X300625Y269272D02*
Y273272D01*
X290625Y269272D02*
Y273272D01*
X307362Y262272D02*
Y280272D01*
X321362Y262272D02*
Y280272D01*
X319362Y269272D02*
Y273272D01*
X309362Y269272D02*
Y273272D01*
X288624Y291990D02*
Y309990D01*
X302624Y291990D02*
Y309990D01*
X300625Y298990D02*
Y302990D01*
X290625Y298990D02*
Y302990D01*
X265149Y262272D02*
Y280272D01*
X251149Y262272D02*
Y280272D01*
X253149Y269272D02*
Y273272D01*
X263149Y269272D02*
Y273272D01*
X269887Y262272D02*
Y280272D01*
X283887Y262272D02*
Y280272D01*
X281887Y269272D02*
Y273272D01*
X271887Y269272D02*
Y273272D01*
X540544Y583153D02*
Y587152D01*
X530544Y583153D02*
Y587152D01*
X528544Y576152D02*
Y594152D01*
X542544Y576152D02*
Y594152D01*
X540544Y615220D02*
Y619220D01*
X530544Y615220D02*
Y619220D01*
X528544Y608220D02*
Y626220D01*
X542544Y608220D02*
Y626220D01*
X530544Y551085D02*
Y555085D01*
X540544Y551085D02*
Y555085D01*
X542544Y544085D02*
Y562085D01*
X528544Y544085D02*
Y562085D01*
Y512018D02*
Y530018D01*
X542544Y512018D02*
Y530018D01*
X540544Y519017D02*
Y523018D01*
X530544Y519017D02*
Y523018D01*
X686860Y551085D02*
Y555085D01*
X676860Y551085D02*
Y555085D01*
X674859Y544085D02*
Y562085D01*
X688859Y544085D02*
Y562085D01*
X676860Y519017D02*
Y523018D01*
X686860Y519017D02*
Y523018D01*
X688860Y512018D02*
Y530018D01*
X674859Y512018D02*
Y530018D01*
X676860Y486950D02*
Y490950D01*
X686860Y486950D02*
Y490950D01*
X688860Y479950D02*
Y497950D01*
X674859Y479950D02*
Y497950D01*
X601702Y479950D02*
Y497950D01*
X615702Y479950D02*
Y497950D01*
X613702Y486950D02*
Y490950D01*
X603702Y486950D02*
Y490950D01*
X670789Y608220D02*
Y626220D01*
X656789Y608220D02*
Y626220D01*
X658789Y615220D02*
Y619220D01*
X668789Y615220D02*
Y619220D01*
X583412Y479950D02*
Y497950D01*
X597412Y479950D02*
Y497950D01*
X595412Y486950D02*
Y490950D01*
X585412Y486950D02*
Y490950D01*
X579185Y608220D02*
Y626220D01*
X565185Y608220D02*
Y626220D01*
X567185Y615220D02*
Y619220D01*
X577185Y615220D02*
Y619220D01*
X166512Y604124D02*
X184512D01*
X166512Y618124D02*
X184512D01*
X173512Y616124D02*
X177512D01*
X173512Y606124D02*
X177512D01*
X267402Y369831D02*
X280129Y357103D01*
X257502Y359931D02*
X270230Y347203D01*
X263866Y356395D02*
X266694Y353567D01*
X270937Y363467D02*
X273765Y360638D01*
X157750Y328591D02*
X161750D01*
X157750Y338591D02*
X161750D01*
X150750Y340591D02*
X168750D01*
X150750Y326591D02*
X168750D01*
X157750Y415898D02*
X161750D01*
X157750Y425898D02*
X161750D01*
X150750Y427898D02*
X168750D01*
X150750Y413898D02*
X168750D01*
X157750Y360261D02*
X161750D01*
X157750Y350261D02*
X161750D01*
X150750Y348261D02*
X168750D01*
X150750Y362261D02*
X168750D01*
X157847Y445351D02*
X161847D01*
X157847Y435351D02*
X161847D01*
X150847Y433351D02*
X168847D01*
X150847Y447351D02*
X168847D01*
X431160Y188149D02*
X449160D01*
X431160Y202149D02*
X449160D01*
X438160Y200149D02*
X442160D01*
X438160Y190149D02*
X442160D01*
X488520Y202149D02*
X506520D01*
X488520Y188149D02*
X506520D01*
X495520Y190149D02*
X499520D01*
X495520Y200149D02*
X499520D01*
X459840Y202149D02*
X477840D01*
X459840Y188149D02*
X477840D01*
X466840Y190149D02*
X470840D01*
X466840Y200149D02*
X470840D01*
X402480Y188149D02*
X420480D01*
X402480Y202149D02*
X420480D01*
X409480Y200149D02*
X413480D01*
X409480Y190149D02*
X413480D01*
X663733Y315622D02*
X667733D01*
X663733Y325622D02*
X667733D01*
X656733Y327622D02*
X674733D01*
X656733Y313622D02*
X674733D01*
X630966Y315622D02*
X634966D01*
X630966Y325622D02*
X634966D01*
X623966Y327622D02*
X641966D01*
X623966Y313622D02*
X641966D01*
X598198Y325622D02*
X602198D01*
X598198Y315622D02*
X602198D01*
X591198Y313622D02*
X609198D01*
X591198Y327622D02*
X609198D01*
X565431Y325622D02*
X569431D01*
X565431Y315622D02*
X569431D01*
X558431Y313622D02*
X576431D01*
X558431Y327622D02*
X576431D01*
X565211Y430760D02*
X569211D01*
X565211Y420760D02*
X569211D01*
X558210Y418760D02*
X576211D01*
X558210Y432760D02*
X576211D01*
X598033Y420760D02*
X602033D01*
X598033Y430760D02*
X602033D01*
X591033Y432760D02*
X609033D01*
X591033Y418760D02*
X609033D01*
X630855Y420760D02*
X634855D01*
X630855Y430760D02*
X634855D01*
X623855Y432760D02*
X641855D01*
X623855Y418760D02*
X641855D01*
X532388Y430759D02*
X536388D01*
X532388Y420760D02*
X536388D01*
X525388Y418759D02*
X543388D01*
X525388Y432760D02*
X543388D01*
X565431Y115472D02*
X569431D01*
X565431Y105472D02*
X569431D01*
X558431Y103472D02*
X576431D01*
X558431Y117472D02*
X576431D01*
X663733Y105472D02*
X667733D01*
X663733Y115472D02*
X667733D01*
X656733Y117472D02*
X674733D01*
X656733Y103472D02*
X674733D01*
X598198Y115472D02*
X602198D01*
X598198Y105472D02*
X602198D01*
X591198Y103472D02*
X609198D01*
X591198Y117472D02*
X609198D01*
X630966Y105472D02*
X634966D01*
X630966Y115472D02*
X634966D01*
X623966Y117472D02*
X641966D01*
X623966Y103472D02*
X641966D01*
X169520Y512152D02*
Y530153D01*
X155520Y512152D02*
Y530153D01*
X157520Y519152D02*
Y523153D01*
X167520Y519152D02*
Y523153D01*
X169520Y546335D02*
Y564335D01*
X155520Y546335D02*
Y564335D01*
X157520Y553335D02*
Y557335D01*
X167520Y553335D02*
Y557335D01*
X171349Y512152D02*
Y530153D01*
X185349Y512152D02*
Y530153D01*
X183349Y519152D02*
Y523153D01*
X173349Y519152D02*
Y523153D01*
X256260Y512152D02*
Y530153D01*
X270260Y512152D02*
Y530153D01*
X268260Y519152D02*
Y523153D01*
X258260Y519152D02*
Y523153D01*
X287917Y512152D02*
Y530153D01*
X301917Y512152D02*
Y530153D01*
X299917Y519152D02*
Y523153D01*
X289917Y519152D02*
Y523153D01*
X286089Y512152D02*
Y530153D01*
X272089Y512152D02*
Y530153D01*
X274088Y519152D02*
Y523153D01*
X284088Y519152D02*
Y523153D01*
X185349Y546335D02*
Y564335D01*
X171349Y546335D02*
Y564335D01*
X173349Y553335D02*
Y557335D01*
X183349Y553335D02*
Y557335D01*
X177365Y587255D02*
X195365D01*
X177365Y573255D02*
X195365D01*
X184365Y575255D02*
X188365D01*
X184365Y585255D02*
X188365D01*
X270260Y546335D02*
Y564335D01*
X256260Y546335D02*
Y564335D01*
X258260Y553335D02*
Y557335D01*
X268260Y553335D02*
Y557335D01*
X254431Y546335D02*
Y564335D01*
X240431Y546335D02*
Y564335D01*
X242431Y553335D02*
Y557335D01*
X252431Y553335D02*
Y557335D01*
X286089Y546335D02*
Y564335D01*
X272089Y546335D02*
Y564335D01*
X274088Y553335D02*
Y557335D01*
X284088Y553335D02*
Y557335D01*
X301917Y546335D02*
Y564335D01*
X287917Y546335D02*
Y564335D01*
X289917Y553335D02*
Y557335D01*
X299917Y553335D02*
Y557335D01*
X293933Y587255D02*
X311933D01*
X293933Y573255D02*
X311933D01*
X300933Y575255D02*
X304933D01*
X300933Y585255D02*
X304933D01*
X357000Y512152D02*
Y530153D01*
X370999Y512152D02*
Y530153D01*
X368999Y519152D02*
Y523153D01*
X358999Y519152D02*
Y523153D01*
X372828Y512152D02*
Y530153D01*
X386828Y512152D02*
Y530153D01*
X384828Y519152D02*
Y523153D01*
X374828Y519152D02*
Y523153D01*
X386828Y546335D02*
Y564335D01*
X372828Y546335D02*
Y564335D01*
X374828Y553335D02*
Y557335D01*
X384828Y553335D02*
Y557335D01*
X370999Y546335D02*
Y564335D01*
X357000Y546335D02*
Y564335D01*
X358999Y553335D02*
Y557335D01*
X368999Y553335D02*
Y557335D01*
X410502Y587255D02*
X428502D01*
X410502Y573255D02*
X428502D01*
X417502Y575255D02*
X421502D01*
X417502Y585255D02*
X421502D01*
X402657Y546335D02*
Y564335D01*
X388657Y546335D02*
Y564335D01*
X390657Y553335D02*
Y557335D01*
X400657Y553335D02*
Y557335D01*
X418486Y546335D02*
Y564335D01*
X404486Y546335D02*
Y564335D01*
X406486Y553335D02*
Y557335D01*
X416486Y553335D02*
Y557335D01*
X404486Y512152D02*
Y530153D01*
X418486Y512152D02*
Y530153D01*
X416486Y519152D02*
Y523153D01*
X406486Y519152D02*
Y523153D01*
X402657Y512152D02*
Y530153D01*
X388657Y512152D02*
Y530153D01*
X390657Y519152D02*
Y523153D01*
X400657Y519152D02*
Y523153D01*
X503316Y546335D02*
Y564335D01*
X489316Y546335D02*
Y564335D01*
X491316Y553335D02*
Y557335D01*
X501316Y553335D02*
Y557335D01*
X487568Y546335D02*
Y564335D01*
X473568Y546335D02*
Y564335D01*
X475568Y553335D02*
Y557335D01*
X485568Y553335D02*
Y557335D01*
X473568Y512152D02*
Y530153D01*
X487568Y512152D02*
Y530153D01*
X485568Y519152D02*
Y523153D01*
X475568Y519152D02*
Y523153D01*
X489316Y512152D02*
Y530153D01*
X503316Y512152D02*
Y530153D01*
X501316Y519152D02*
Y523153D01*
X491316Y519152D02*
Y523153D01*
X347717Y634122D02*
X365717D01*
X347717Y620122D02*
X365717D01*
X354717Y622122D02*
X358717D01*
X354717Y632122D02*
X358717D01*
X363217Y604124D02*
X381217D01*
X363217Y618124D02*
X381217D01*
X370217Y616124D02*
X374217D01*
X370217Y606124D02*
X374217D01*
X378717Y620122D02*
X396717D01*
X378717Y634122D02*
X396717D01*
X385717Y632122D02*
X389717D01*
X385717Y622122D02*
X389717D01*
X135863Y553335D02*
Y557335D01*
X125863Y553335D02*
Y557335D01*
X123862Y546335D02*
Y564335D01*
X137863Y546335D02*
Y564335D01*
X66780Y553335D02*
Y557335D01*
X56780Y553335D02*
Y557335D01*
X54780Y546335D02*
Y564335D01*
X68780Y546335D02*
Y564335D01*
X151691Y553335D02*
Y557335D01*
X141691Y553335D02*
Y557335D01*
X139691Y546335D02*
Y564335D01*
X153691Y546335D02*
Y564335D01*
X50778Y553335D02*
Y557335D01*
X40778Y553335D02*
Y557335D01*
X38778Y546335D02*
Y564335D01*
X52778Y546335D02*
Y564335D01*
X222153Y632122D02*
X226153D01*
X222153Y622122D02*
X226153D01*
X215153Y620122D02*
X233153D01*
X215153Y634122D02*
X233153D01*
X158012Y632122D02*
X162012D01*
X158012Y622122D02*
X162012D01*
X151012Y620122D02*
X169012D01*
X151012Y634122D02*
X169012D01*
X67796Y585255D02*
X71796D01*
X67796Y575255D02*
X71796D01*
X60796Y573255D02*
X78796D01*
X60796Y587255D02*
X78796D01*
X237653Y606124D02*
X241653D01*
X237653Y616124D02*
X241653D01*
X230653Y618124D02*
X248653D01*
X230653Y604124D02*
X248653D01*
X56780Y519152D02*
Y523153D01*
X66780Y519152D02*
Y523153D01*
X68780Y512152D02*
Y530153D01*
X54780Y512152D02*
Y530153D01*
X50778Y519152D02*
Y523153D01*
X40778Y519152D02*
Y523153D01*
X38778Y512152D02*
Y530153D01*
X52778Y512152D02*
Y530153D01*
X141691Y519152D02*
Y523153D01*
X151691Y519152D02*
Y523153D01*
X153691Y512152D02*
Y530153D01*
X139691Y512152D02*
Y530153D01*
X253153Y622122D02*
X257153D01*
X253153Y632122D02*
X257153D01*
X246153Y634122D02*
X264153D01*
X246153Y620122D02*
X264153D01*
X189012Y622122D02*
X193012D01*
X189012Y632122D02*
X193012D01*
X182012Y634122D02*
X200012D01*
X182012Y620122D02*
X200012D01*
X125863Y519152D02*
Y523153D01*
X135863Y519152D02*
Y523153D01*
X137863Y512152D02*
Y530153D01*
X123862Y512152D02*
Y530153D01*
X281058Y622122D02*
X285058D01*
X281058Y632122D02*
X285058D01*
X274058Y634122D02*
X292058D01*
X274058Y620122D02*
X292058D01*
X299109Y606124D02*
X303109D01*
X299109Y616124D02*
X303109D01*
X292109Y618124D02*
X310109D01*
X292109Y604124D02*
X310109D01*
X314609Y622122D02*
X318609D01*
X314609Y632122D02*
X318609D01*
X307609Y634122D02*
X325609D01*
X307609Y620122D02*
X325609D01*
X142504Y174291D02*
X146504D01*
X142504Y164291D02*
X146504D01*
X135504Y162291D02*
X153504D01*
X135504Y176291D02*
X153504D01*
X142504Y138973D02*
X146504D01*
X142504Y128973D02*
X146504D01*
X135504Y126973D02*
X153504D01*
X135504Y140973D02*
X153504D01*
X246920Y122300D02*
X250920D01*
X246920Y112300D02*
X250920D01*
X239920Y110300D02*
X257920D01*
X239920Y124300D02*
X257920D01*
X391700Y232913D02*
X395700D01*
X391700Y222913D02*
X395700D01*
X384700Y220913D02*
X402700D01*
X384700Y234913D02*
X402700D01*
X300775Y222913D02*
X304775D01*
X300775Y232913D02*
X304775D01*
X293775Y234913D02*
X311775D01*
X293775Y220913D02*
X311775D01*
X361220Y232913D02*
X365220D01*
X361220Y222913D02*
X365220D01*
X354220Y220913D02*
X372220D01*
X354220Y234913D02*
X372220D01*
X331659Y222913D02*
X335659D01*
X331659Y232913D02*
X335659D01*
X324659Y234913D02*
X342659D01*
X324659Y220913D02*
X342659D01*
X51086Y706802D02*
X55086D01*
X51086Y696802D02*
X55086D01*
X44086Y694802D02*
X62086D01*
X44086Y708802D02*
X62086D01*
X50954Y670194D02*
X54954D01*
X50954Y660194D02*
X54954D01*
X43954Y658194D02*
X61954D01*
X43954Y672194D02*
X61954D01*
X304880Y346234D02*
Y350234D01*
X314880Y346234D02*
Y350234D01*
X316880Y339234D02*
Y357234D01*
X302880Y339234D02*
Y357234D01*
X465401Y270504D02*
Y274504D01*
X475401Y270504D02*
Y274504D01*
X477401Y263504D02*
Y281504D01*
X463401Y263504D02*
Y281504D01*
X448485Y270504D02*
Y274504D01*
X458485Y270504D02*
Y274504D01*
X460485Y263504D02*
Y281504D01*
X446485Y263504D02*
Y281504D01*
X337692Y475074D02*
Y479074D01*
X327692Y475074D02*
Y479074D01*
X325692Y468074D02*
Y486074D01*
X339692Y468074D02*
Y486074D01*
X157724Y316635D02*
X161723D01*
X157724Y306635D02*
X161723D01*
X150723Y304635D02*
X168724D01*
X150723Y318635D02*
X168724D01*
X157724Y284791D02*
X161723D01*
X157724Y294791D02*
X161723D01*
X150723Y296791D02*
X168724D01*
X150723Y282791D02*
X168724D01*
X271929Y392042D02*
X274757Y394871D01*
X264858Y399114D02*
X267686Y401942D01*
X258494Y395578D02*
X271222Y408306D01*
X268393Y385678D02*
X281121Y398406D01*
D24*
X114300Y60960D02*
D03*
M02*
