G04*
G04 #@! TF.GenerationSoftware,Altium Limited,Altium Designer,24.1.2 (44)*
G04*
G04 Layer_Color=255*
%FSLAX44Y44*%
%MOMM*%
G71*
G04*
G04 #@! TF.SameCoordinates,6F585FF1-4DE3-4077-9EA4-C48F536BE3D4*
G04*
G04*
G04 #@! TF.FilePolarity,Positive*
G04*
G01*
G75*
%ADD45R,1.8000X1.8000*%
G04:AMPARAMS|DCode=62|XSize=0.95mm|YSize=0.85mm|CornerRadius=0.2125mm|HoleSize=0mm|Usage=FLASHONLY|Rotation=0.000|XOffset=0mm|YOffset=0mm|HoleType=Round|Shape=RoundedRectangle|*
%AMROUNDEDRECTD62*
21,1,0.9500,0.4250,0,0,0.0*
21,1,0.5250,0.8500,0,0,0.0*
1,1,0.4250,0.2625,-0.2125*
1,1,0.4250,-0.2625,-0.2125*
1,1,0.4250,-0.2625,0.2125*
1,1,0.4250,0.2625,0.2125*
%
%ADD62ROUNDEDRECTD62*%
%ADD63O,0.6000X1.8000*%
G04:AMPARAMS|DCode=64|XSize=0.95mm|YSize=0.85mm|CornerRadius=0.2125mm|HoleSize=0mm|Usage=FLASHONLY|Rotation=90.000|XOffset=0mm|YOffset=0mm|HoleType=Round|Shape=RoundedRectangle|*
%AMROUNDEDRECTD64*
21,1,0.9500,0.4250,0,0,90.0*
21,1,0.5250,0.8500,0,0,90.0*
1,1,0.4250,0.2125,0.2625*
1,1,0.4250,0.2125,-0.2625*
1,1,0.4250,-0.2125,-0.2625*
1,1,0.4250,-0.2125,0.2625*
%
%ADD64ROUNDEDRECTD64*%
%ADD130C,2.3000*%
%ADD131R,1.2580X1.2580*%
%ADD132C,1.2580*%
%ADD133C,0.3000*%
%ADD136C,1.4580*%
%ADD137C,1.6000*%
%ADD138R,1.6000X1.6000*%
%ADD139C,1.0000*%
%ADD140C,6.0000*%
G04:AMPARAMS|DCode=146|XSize=1.64mm|YSize=0.59mm|CornerRadius=0.1475mm|HoleSize=0mm|Usage=FLASHONLY|Rotation=90.000|XOffset=0mm|YOffset=0mm|HoleType=Round|Shape=RoundedRectangle|*
%AMROUNDEDRECTD146*
21,1,1.6400,0.2950,0,0,90.0*
21,1,1.3450,0.5900,0,0,90.0*
1,1,0.2950,0.1475,0.6725*
1,1,0.2950,0.1475,-0.6725*
1,1,0.2950,-0.1475,-0.6725*
1,1,0.2950,-0.1475,0.6725*
%
%ADD146ROUNDEDRECTD146*%
G04:AMPARAMS|DCode=147|XSize=1.75mm|YSize=1.25mm|CornerRadius=0.2438mm|HoleSize=0mm|Usage=FLASHONLY|Rotation=270.000|XOffset=0mm|YOffset=0mm|HoleType=Round|Shape=RoundedRectangle|*
%AMROUNDEDRECTD147*
21,1,1.7500,0.7625,0,0,270.0*
21,1,1.2625,1.2500,0,0,270.0*
1,1,0.4875,-0.3813,-0.6313*
1,1,0.4875,-0.3813,0.6313*
1,1,0.4875,0.3813,0.6313*
1,1,0.4875,0.3813,-0.6313*
%
%ADD147ROUNDEDRECTD147*%
%ADD148R,2.0000X4.2000*%
%ADD149R,0.2746X0.8048*%
%ADD150R,0.8048X0.2746*%
%ADD151R,2.6500X2.6500*%
%ADD152R,1.3000X1.1500*%
%ADD153O,1.8000X0.6000*%
%ADD154R,2.7178X3.4036*%
%ADD155R,1.1000X1.0000*%
%ADD157C,1.5000*%
%ADD158R,1.5000X1.5000*%
D45*
X265233Y343601D02*
D03*
Y383601D02*
D03*
D62*
X210000Y691910D02*
D03*
Y676410D02*
D03*
X250000D02*
D03*
Y691910D02*
D03*
X290000D02*
D03*
Y676410D02*
D03*
X330454Y691910D02*
D03*
Y676410D02*
D03*
X231111Y397361D02*
D03*
Y412861D02*
D03*
X681860Y577550D02*
D03*
Y593050D02*
D03*
X681860Y560933D02*
D03*
Y545433D02*
D03*
Y528816D02*
D03*
Y513316D02*
D03*
X681984Y481200D02*
D03*
Y496700D02*
D03*
X663664Y496700D02*
D03*
Y481200D02*
D03*
X645343Y496700D02*
D03*
Y481200D02*
D03*
X627147Y496700D02*
D03*
Y481200D02*
D03*
X608827Y496700D02*
D03*
Y481200D02*
D03*
X590381Y496700D02*
D03*
Y481200D02*
D03*
X572060Y496700D02*
D03*
Y481200D02*
D03*
X553740Y481200D02*
D03*
Y496700D02*
D03*
X535544D02*
D03*
Y481200D02*
D03*
Y513316D02*
D03*
Y528816D02*
D03*
X535544Y560933D02*
D03*
Y545433D02*
D03*
Y593050D02*
D03*
Y577550D02*
D03*
X535419Y609666D02*
D03*
Y625166D02*
D03*
X553833Y609666D02*
D03*
Y625166D02*
D03*
X571998Y609666D02*
D03*
Y625166D02*
D03*
X590287Y609666D02*
D03*
Y625166D02*
D03*
X608577Y609666D02*
D03*
Y625166D02*
D03*
X626866Y609666D02*
D03*
Y625166D02*
D03*
X645281Y609666D02*
D03*
Y625166D02*
D03*
X663445Y625166D02*
D03*
Y609666D02*
D03*
X681859Y609666D02*
D03*
Y625166D02*
D03*
X361696Y277498D02*
D03*
Y261998D02*
D03*
X342646D02*
D03*
Y277498D02*
D03*
X361696Y306962D02*
D03*
Y291462D02*
D03*
X342521Y291716D02*
D03*
Y307216D02*
D03*
X342646Y337058D02*
D03*
Y321558D02*
D03*
X361696D02*
D03*
Y337058D02*
D03*
X380746Y321558D02*
D03*
Y337058D02*
D03*
X399796Y321558D02*
D03*
Y337058D02*
D03*
X418846Y321558D02*
D03*
Y337058D02*
D03*
X418846Y367668D02*
D03*
Y352168D02*
D03*
X399796Y367668D02*
D03*
Y352168D02*
D03*
X380746Y367668D02*
D03*
Y352168D02*
D03*
X361696Y367668D02*
D03*
Y352168D02*
D03*
X342646Y367668D02*
D03*
Y352168D02*
D03*
Y382140D02*
D03*
Y397640D02*
D03*
X361696D02*
D03*
Y382140D02*
D03*
X53866Y320256D02*
D03*
Y335756D02*
D03*
X36612Y320256D02*
D03*
Y335756D02*
D03*
X71120Y320256D02*
D03*
Y335756D02*
D03*
X53866Y355470D02*
D03*
Y370970D02*
D03*
X71120D02*
D03*
Y355470D02*
D03*
X135465Y356007D02*
D03*
Y371507D02*
D03*
X151944Y356106D02*
D03*
Y371606D02*
D03*
X296198Y340154D02*
D03*
Y355654D02*
D03*
X313436Y340230D02*
D03*
Y355730D02*
D03*
X296198Y386718D02*
D03*
Y371218D02*
D03*
X258024Y438515D02*
D03*
Y454015D02*
D03*
X276762Y438515D02*
D03*
Y454015D02*
D03*
X295499Y454015D02*
D03*
Y438515D02*
D03*
X314237D02*
D03*
Y454015D02*
D03*
X351616Y469324D02*
D03*
Y484824D02*
D03*
X332667Y484824D02*
D03*
Y469324D02*
D03*
X294993Y484824D02*
D03*
Y469324D02*
D03*
X276455Y469324D02*
D03*
Y484824D02*
D03*
X257918Y469324D02*
D03*
Y484824D02*
D03*
X239014Y485016D02*
D03*
Y469516D02*
D03*
X370719Y484824D02*
D03*
Y469324D02*
D03*
X313530Y469324D02*
D03*
Y484824D02*
D03*
X94270Y293846D02*
D03*
Y278346D02*
D03*
Y260826D02*
D03*
Y245326D02*
D03*
X53866Y220456D02*
D03*
Y204956D02*
D03*
X71120Y220456D02*
D03*
Y204956D02*
D03*
X36612Y220456D02*
D03*
Y204956D02*
D03*
D63*
X597644Y527031D02*
D03*
X584944D02*
D03*
X572243D02*
D03*
X559543D02*
D03*
X597644Y583531D02*
D03*
X584944D02*
D03*
X572243D02*
D03*
X559543D02*
D03*
X619234Y583531D02*
D03*
X631934D02*
D03*
X644633D02*
D03*
X657334D02*
D03*
X619234Y527031D02*
D03*
X631934D02*
D03*
X644633D02*
D03*
X657334D02*
D03*
D64*
X151530Y107897D02*
D03*
X136030D02*
D03*
X136030Y134251D02*
D03*
X151530D02*
D03*
X135506Y160274D02*
D03*
X151006D02*
D03*
X136030Y187210D02*
D03*
X151530D02*
D03*
X136030Y213689D02*
D03*
X151530D02*
D03*
X136030Y240168D02*
D03*
X151530D02*
D03*
X136030Y266647D02*
D03*
X151530D02*
D03*
X498980Y423164D02*
D03*
X514480D02*
D03*
Y439420D02*
D03*
X498980D02*
D03*
Y455676D02*
D03*
X514480D02*
D03*
X272983Y405721D02*
D03*
X257483D02*
D03*
X287906Y405638D02*
D03*
X303406D02*
D03*
X34160Y82804D02*
D03*
X49660D02*
D03*
X34160Y103497D02*
D03*
X49660D02*
D03*
X34160Y124189D02*
D03*
X49660D02*
D03*
X34160Y144881D02*
D03*
X49660D02*
D03*
X34160Y186265D02*
D03*
X49660D02*
D03*
X34160Y165573D02*
D03*
X49660D02*
D03*
D130*
X660000Y60000D02*
D03*
X190000D02*
D03*
D131*
X225000Y70000D02*
D03*
D132*
Y50000D02*
D03*
X245000Y70000D02*
D03*
Y50000D02*
D03*
X265000Y70000D02*
D03*
Y50000D02*
D03*
X285000Y70000D02*
D03*
Y50000D02*
D03*
X305000Y70000D02*
D03*
Y50000D02*
D03*
X325000Y70000D02*
D03*
Y50000D02*
D03*
X345000Y70000D02*
D03*
Y50000D02*
D03*
X365000Y70000D02*
D03*
Y50000D02*
D03*
X385000Y70000D02*
D03*
Y50000D02*
D03*
X405000Y70000D02*
D03*
Y50000D02*
D03*
X425000Y70000D02*
D03*
Y50000D02*
D03*
X445000Y70000D02*
D03*
Y50000D02*
D03*
X465000Y70000D02*
D03*
Y50000D02*
D03*
X485000Y70000D02*
D03*
Y50000D02*
D03*
X505000Y70000D02*
D03*
Y50000D02*
D03*
X525000Y70000D02*
D03*
Y50000D02*
D03*
X545000Y70000D02*
D03*
Y50000D02*
D03*
X565000Y70000D02*
D03*
Y50000D02*
D03*
X585000Y70000D02*
D03*
Y50000D02*
D03*
X605000Y70000D02*
D03*
Y50000D02*
D03*
X625000Y70000D02*
D03*
Y50000D02*
D03*
D133*
X280220Y163680D02*
D03*
Y176680D02*
D03*
X293220Y163680D02*
D03*
Y176680D02*
D03*
X306220Y163680D02*
D03*
Y176680D02*
D03*
X319220Y163680D02*
D03*
Y176680D02*
D03*
D136*
X167500Y740000D02*
D03*
X352500D02*
D03*
X167500Y692500D02*
D03*
X352500D02*
D03*
X477500Y740000D02*
D03*
X662500D02*
D03*
X477500Y692500D02*
D03*
X662500D02*
D03*
D137*
X115316Y192278D02*
D03*
Y217678D02*
D03*
Y243078D02*
D03*
Y268478D02*
D03*
Y135128D02*
D03*
Y109728D02*
D03*
D138*
Y293878D02*
D03*
Y160528D02*
D03*
D139*
X19560Y830440D02*
D03*
X52440Y797560D02*
D03*
X19560D02*
D03*
X52440Y830440D02*
D03*
X59250Y814000D02*
D03*
X36000Y791140D02*
D03*
X12750Y814000D02*
D03*
X36000Y837250D02*
D03*
X814000Y59250D02*
D03*
X790750Y36000D02*
D03*
X814000Y13140D02*
D03*
X837250Y36000D02*
D03*
X830440Y52440D02*
D03*
X797560Y19560D02*
D03*
X830440D02*
D03*
X797560Y52440D02*
D03*
X814000Y837250D02*
D03*
X790750Y814000D02*
D03*
X814000Y791140D02*
D03*
X837250Y814000D02*
D03*
X830440Y830440D02*
D03*
X797560Y797560D02*
D03*
X830440D02*
D03*
X797560Y830440D02*
D03*
X36000Y59250D02*
D03*
X12750Y36000D02*
D03*
X36000Y13140D02*
D03*
X59250Y36000D02*
D03*
X52440Y52440D02*
D03*
X19560Y19560D02*
D03*
X52440D02*
D03*
X19560Y52440D02*
D03*
D140*
X36000Y814000D02*
D03*
X814000Y36000D02*
D03*
Y814000D02*
D03*
X36000Y36000D02*
D03*
D146*
X72934Y244252D02*
D03*
X60234D02*
D03*
X47534D02*
D03*
X34834D02*
D03*
Y296952D02*
D03*
X47534D02*
D03*
X60234D02*
D03*
X72934D02*
D03*
D147*
X199405Y405746D02*
D03*
X171405D02*
D03*
D148*
X224900Y299720D02*
D03*
X181500D02*
D03*
D149*
X77430Y439726D02*
D03*
X82430D02*
D03*
X87430D02*
D03*
X92430D02*
D03*
X97430D02*
D03*
X102430D02*
D03*
Y401678D02*
D03*
X97430D02*
D03*
X92430D02*
D03*
X87430D02*
D03*
X82430D02*
D03*
X77430D02*
D03*
D150*
X108954Y433202D02*
D03*
Y428202D02*
D03*
Y423202D02*
D03*
Y418202D02*
D03*
Y413202D02*
D03*
Y408202D02*
D03*
X70906D02*
D03*
Y413202D02*
D03*
Y418202D02*
D03*
Y423202D02*
D03*
Y428202D02*
D03*
Y433202D02*
D03*
D151*
X89930Y420702D02*
D03*
D152*
X115316Y347720D02*
D03*
Y378720D02*
D03*
D153*
X175910Y341376D02*
D03*
Y354076D02*
D03*
Y366776D02*
D03*
Y379476D02*
D03*
X232410Y341376D02*
D03*
Y354076D02*
D03*
Y366776D02*
D03*
Y379476D02*
D03*
D154*
X204157Y360732D02*
D03*
D155*
X86232Y82804D02*
D03*
X69232D02*
D03*
X86232Y103497D02*
D03*
X69232D02*
D03*
X86232Y124189D02*
D03*
X69232D02*
D03*
X86232Y144881D02*
D03*
X69232D02*
D03*
X86232Y186265D02*
D03*
X69232D02*
D03*
X86232Y165573D02*
D03*
X69232D02*
D03*
D157*
X762700Y215400D02*
D03*
Y190000D02*
D03*
X737300Y266200D02*
D03*
X762700D02*
D03*
X737300Y240800D02*
D03*
X762700D02*
D03*
X737300Y215400D02*
D03*
Y190000D02*
D03*
Y164600D02*
D03*
X762700D02*
D03*
X737300Y139200D02*
D03*
X762700D02*
D03*
X737300Y113800D02*
D03*
D158*
X762700D02*
D03*
M02*
