G04*
G04 #@! TF.GenerationSoftware,Altium Limited,Altium Designer,25.4.2 (15)*
G04*
G04 Layer_Color=128*
%FSLAX44Y44*%
%MOMM*%
G71*
G04*
G04 #@! TF.SameCoordinates,AF9A6567-2A65-44A9-BE18-1E1B2F427956*
G04*
G04*
G04 #@! TF.FilePolarity,Positive*
G04*
G01*
G75*
%ADD24C,1.2300*%
G04:AMPARAMS|DCode=26|XSize=0.95mm|YSize=0.85mm|CornerRadius=0.2125mm|HoleSize=0mm|Usage=FLASHONLY|Rotation=180.000|XOffset=0mm|YOffset=0mm|HoleType=Round|Shape=RoundedRectangle|*
%AMROUNDEDRECTD26*
21,1,0.9500,0.4250,0,0,180.0*
21,1,0.5250,0.8500,0,0,180.0*
1,1,0.4250,-0.2625,0.2125*
1,1,0.4250,0.2625,0.2125*
1,1,0.4250,0.2625,-0.2125*
1,1,0.4250,-0.2625,-0.2125*
%
%ADD26ROUNDEDRECTD26*%
G04:AMPARAMS|DCode=27|XSize=0.95mm|YSize=0.85mm|CornerRadius=0.2125mm|HoleSize=0mm|Usage=FLASHONLY|Rotation=270.000|XOffset=0mm|YOffset=0mm|HoleType=Round|Shape=RoundedRectangle|*
%AMROUNDEDRECTD27*
21,1,0.9500,0.4250,0,0,270.0*
21,1,0.5250,0.8500,0,0,270.0*
1,1,0.4250,-0.2125,-0.2625*
1,1,0.4250,-0.2125,0.2625*
1,1,0.4250,0.2125,0.2625*
1,1,0.4250,0.2125,-0.2625*
%
%ADD27ROUNDEDRECTD27*%
%ADD31O,0.6000X1.8000*%
%ADD42R,1.8000X1.8000*%
G04:AMPARAMS|DCode=149|XSize=1.97mm|YSize=0.59mm|CornerRadius=0.0738mm|HoleSize=0mm|Usage=FLASHONLY|Rotation=270.000|XOffset=0mm|YOffset=0mm|HoleType=Round|Shape=RoundedRectangle|*
%AMROUNDEDRECTD149*
21,1,1.9700,0.4425,0,0,270.0*
21,1,1.8225,0.5900,0,0,270.0*
1,1,0.1475,-0.2213,-0.9113*
1,1,0.1475,-0.2213,0.9113*
1,1,0.1475,0.2213,0.9113*
1,1,0.1475,0.2213,-0.9113*
%
%ADD149ROUNDEDRECTD149*%
G04:AMPARAMS|DCode=150|XSize=1.64mm|YSize=0.59mm|CornerRadius=0.1475mm|HoleSize=0mm|Usage=FLASHONLY|Rotation=0.000|XOffset=0mm|YOffset=0mm|HoleType=Round|Shape=RoundedRectangle|*
%AMROUNDEDRECTD150*
21,1,1.6400,0.2950,0,0,0.0*
21,1,1.3450,0.5900,0,0,0.0*
1,1,0.2950,0.6725,-0.1475*
1,1,0.2950,-0.6725,-0.1475*
1,1,0.2950,-0.6725,0.1475*
1,1,0.2950,0.6725,0.1475*
%
%ADD150ROUNDEDRECTD150*%
%ADD151R,1.3000X1.1500*%
%ADD152R,0.2746X0.8048*%
%ADD153R,0.8048X0.2746*%
%ADD154R,2.6500X2.6500*%
G04:AMPARAMS|DCode=155|XSize=1.75mm|YSize=1.25mm|CornerRadius=0.2438mm|HoleSize=0mm|Usage=FLASHONLY|Rotation=270.000|XOffset=0mm|YOffset=0mm|HoleType=Round|Shape=RoundedRectangle|*
%AMROUNDEDRECTD155*
21,1,1.7500,0.7625,0,0,270.0*
21,1,1.2625,1.2500,0,0,270.0*
1,1,0.4875,-0.3813,-0.6313*
1,1,0.4875,-0.3813,0.6313*
1,1,0.4875,0.3813,0.6313*
1,1,0.4875,0.3813,-0.6313*
%
%ADD155ROUNDEDRECTD155*%
%ADD156O,1.8000X0.6000*%
%ADD158R,2.0000X4.2000*%
%ADD159R,1.1000X1.0000*%
G36*
X837997Y837997D02*
X837984Y830638D01*
X837837D01*
X830440Y838035D01*
X837959D01*
X837997Y837997D01*
D02*
G37*
G36*
X19362Y837984D02*
Y837837D01*
X11965Y830440D01*
Y837959D01*
X12003Y837997D01*
X19362Y837984D01*
D02*
G37*
G36*
X92020Y437450D02*
X80770D01*
Y448700D01*
X92020D01*
Y437450D01*
D02*
G37*
G36*
X78770D02*
X67520D01*
Y448700D01*
X78770D01*
Y437450D01*
D02*
G37*
G36*
X92020Y424200D02*
X80770D01*
Y435450D01*
X92020D01*
Y424200D01*
D02*
G37*
G36*
X78770D02*
X67520D01*
Y435450D01*
X78770D01*
Y424200D01*
D02*
G37*
G36*
X838035Y12041D02*
X837997Y12003D01*
X830638Y12016D01*
Y12163D01*
X838035Y19560D01*
Y12041D01*
D02*
G37*
G36*
X19560Y11965D02*
X12041D01*
X12003Y12003D01*
X12016Y19362D01*
X12163D01*
X19560Y11965D01*
D02*
G37*
D24*
X843656Y838000D02*
G03*
X838024Y843650I-5650J0D01*
G01*
X838006Y6350D02*
G03*
X843656Y11988I0J5650D01*
G01*
X6356Y12000D02*
G03*
X11994Y6350I5650J0D01*
G01*
X12006Y843650D02*
G03*
X6356Y838012I0J-5650D01*
G01*
X6356Y12025D02*
X6356Y838000D01*
X12024Y843650D02*
X838006Y843650D01*
X843656Y12000D02*
X843656Y837975D01*
X12006Y6350D02*
X60858D01*
X140858D01*
X150858Y6350D01*
X200858D01*
X265000D01*
X360857D01*
X420857D01*
X430857Y6350D01*
X480857D01*
X550857D01*
X620857D01*
X690857D01*
X700857Y6350D01*
X750856D01*
X837981D01*
D26*
X642500Y280250D02*
D03*
Y264750D02*
D03*
X705400Y344750D02*
D03*
Y360250D02*
D03*
X667300Y344750D02*
D03*
Y360250D02*
D03*
X624999Y162620D02*
D03*
Y178120D02*
D03*
X337227Y162620D02*
D03*
Y178120D02*
D03*
X375596D02*
D03*
Y162620D02*
D03*
X356411Y178120D02*
D03*
Y162620D02*
D03*
X394781Y162620D02*
D03*
Y178120D02*
D03*
X433151Y178120D02*
D03*
Y162620D02*
D03*
X413966Y178120D02*
D03*
Y162620D02*
D03*
X452336Y178120D02*
D03*
Y162620D02*
D03*
X509890Y162620D02*
D03*
Y178120D02*
D03*
X586629Y178120D02*
D03*
Y162620D02*
D03*
X567444Y162620D02*
D03*
Y178120D02*
D03*
X605814D02*
D03*
Y162620D02*
D03*
X471520Y178120D02*
D03*
Y162620D02*
D03*
X548260Y178120D02*
D03*
Y162620D02*
D03*
X529075Y178120D02*
D03*
Y162620D02*
D03*
X490705Y178120D02*
D03*
Y162620D02*
D03*
X102966Y376507D02*
D03*
Y361007D02*
D03*
X119444Y376507D02*
D03*
Y361007D02*
D03*
X216370Y407361D02*
D03*
Y422861D02*
D03*
X236504Y407250D02*
D03*
Y422750D02*
D03*
X335760Y416568D02*
D03*
Y401068D02*
D03*
X314917Y416568D02*
D03*
Y401068D02*
D03*
X356602Y416568D02*
D03*
Y401068D02*
D03*
X377444D02*
D03*
Y416568D02*
D03*
X398955Y341324D02*
D03*
Y356824D02*
D03*
X291295D02*
D03*
Y341324D02*
D03*
X113123Y533000D02*
D03*
Y517500D02*
D03*
X130249Y517500D02*
D03*
Y533000D02*
D03*
X232500D02*
D03*
Y517500D02*
D03*
X250000Y533000D02*
D03*
Y517500D02*
D03*
X356370Y517500D02*
D03*
Y533000D02*
D03*
X373870Y517500D02*
D03*
Y533000D02*
D03*
X474876Y517500D02*
D03*
Y533000D02*
D03*
X492376Y517500D02*
D03*
Y533000D02*
D03*
X535544Y577550D02*
D03*
Y593050D02*
D03*
Y560933D02*
D03*
Y545433D02*
D03*
X535544Y513316D02*
D03*
Y528816D02*
D03*
X681860Y593050D02*
D03*
Y577550D02*
D03*
X681860Y545433D02*
D03*
Y560933D02*
D03*
Y528816D02*
D03*
Y513316D02*
D03*
X535544Y496700D02*
D03*
Y481200D02*
D03*
X553740Y496700D02*
D03*
Y481200D02*
D03*
X572060Y481200D02*
D03*
Y496700D02*
D03*
X590381D02*
D03*
Y481200D02*
D03*
X608827Y496700D02*
D03*
Y481200D02*
D03*
X627147Y496700D02*
D03*
Y481200D02*
D03*
X645343Y496700D02*
D03*
Y481200D02*
D03*
X663664D02*
D03*
Y496700D02*
D03*
X681984Y496700D02*
D03*
Y481200D02*
D03*
X535419Y609666D02*
D03*
Y625166D02*
D03*
X553833Y609666D02*
D03*
Y625166D02*
D03*
X571998Y609666D02*
D03*
Y625166D02*
D03*
X590287D02*
D03*
Y609666D02*
D03*
X608577Y609666D02*
D03*
Y625166D02*
D03*
X626866D02*
D03*
Y609666D02*
D03*
X645281D02*
D03*
Y625166D02*
D03*
X663445Y609666D02*
D03*
Y625166D02*
D03*
X681859Y609666D02*
D03*
Y625166D02*
D03*
X330454Y676410D02*
D03*
Y691910D02*
D03*
X290000Y676410D02*
D03*
Y691910D02*
D03*
X250000Y676410D02*
D03*
Y691910D02*
D03*
X210000Y676410D02*
D03*
Y691910D02*
D03*
X198611Y407361D02*
D03*
Y422861D02*
D03*
D27*
X694274Y232500D02*
D03*
X678774D02*
D03*
Y190000D02*
D03*
X663274D02*
D03*
X709774Y167100D02*
D03*
X694274D02*
D03*
X709774Y190000D02*
D03*
X694274D02*
D03*
X709774Y212900D02*
D03*
X694274D02*
D03*
X65535Y395503D02*
D03*
X50035D02*
D03*
X198484Y436212D02*
D03*
X182984D02*
D03*
X160755Y436071D02*
D03*
X145255D02*
D03*
X320593Y319988D02*
D03*
X336093D02*
D03*
X369113D02*
D03*
X353613D02*
D03*
X343284Y271653D02*
D03*
X327784D02*
D03*
X327784Y290761D02*
D03*
X343284D02*
D03*
X379748Y271653D02*
D03*
X364248D02*
D03*
X364502Y290761D02*
D03*
X380002D02*
D03*
X451816Y379460D02*
D03*
X436316D02*
D03*
Y396997D02*
D03*
X451816D02*
D03*
X452020Y272970D02*
D03*
X436520D02*
D03*
Y290761D02*
D03*
X452020D02*
D03*
Y308552D02*
D03*
X436520D02*
D03*
X452020Y326343D02*
D03*
X436520D02*
D03*
X452020Y344133D02*
D03*
X436520D02*
D03*
X452020Y361924D02*
D03*
X436520D02*
D03*
X513222Y272970D02*
D03*
X497722D02*
D03*
Y290761D02*
D03*
X513222D02*
D03*
Y308552D02*
D03*
X497722D02*
D03*
X513222Y326343D02*
D03*
X497722D02*
D03*
X545783Y241970D02*
D03*
X561283D02*
D03*
X34160Y103497D02*
D03*
X49660D02*
D03*
X34160Y82804D02*
D03*
X49660D02*
D03*
X34160Y144881D02*
D03*
X49660D02*
D03*
X34160Y124189D02*
D03*
X49660D02*
D03*
X34160Y165573D02*
D03*
X49660D02*
D03*
X34160Y186265D02*
D03*
X49660D02*
D03*
D31*
X78323Y520750D02*
D03*
X91023Y577250D02*
D03*
X52923D02*
D03*
X65623Y520750D02*
D03*
X52923D02*
D03*
X91023D02*
D03*
X65623Y577250D02*
D03*
X78323D02*
D03*
X197700Y520750D02*
D03*
X210400Y577250D02*
D03*
X172300D02*
D03*
X185000Y520750D02*
D03*
X172300D02*
D03*
X185000Y577250D02*
D03*
X210400Y520750D02*
D03*
X197700Y577250D02*
D03*
X321570Y520750D02*
D03*
X334269Y577250D02*
D03*
X296169D02*
D03*
X308869Y520750D02*
D03*
X296169D02*
D03*
X308869Y577250D02*
D03*
X334269Y520750D02*
D03*
X321570Y577250D02*
D03*
X440076Y520750D02*
D03*
X452776Y577250D02*
D03*
X414676D02*
D03*
X427376Y520750D02*
D03*
X414676D02*
D03*
X427376Y577250D02*
D03*
X452776Y520750D02*
D03*
X440076Y577250D02*
D03*
X644633Y527031D02*
D03*
X657334D02*
D03*
X631934Y583531D02*
D03*
X644633D02*
D03*
X631934Y527031D02*
D03*
X619234Y583531D02*
D03*
X657334D02*
D03*
X619234Y527031D02*
D03*
X572243Y527031D02*
D03*
X584944D02*
D03*
X597644D02*
D03*
X584944Y583531D02*
D03*
X559543D02*
D03*
X572243D02*
D03*
X559543Y527031D02*
D03*
X597644Y583531D02*
D03*
D42*
X232733Y348601D02*
D03*
Y388601D02*
D03*
D149*
X667300Y265500D02*
D03*
X680000D02*
D03*
X692700D02*
D03*
X705400D02*
D03*
Y315000D02*
D03*
X692700D02*
D03*
X680000D02*
D03*
X667300D02*
D03*
D150*
X319519Y379424D02*
D03*
X372219Y341324D02*
D03*
X319519D02*
D03*
X372219Y354024D02*
D03*
X319519Y366724D02*
D03*
X372219D02*
D03*
Y379424D02*
D03*
X319519Y354024D02*
D03*
D151*
X82816Y383720D02*
D03*
Y352720D02*
D03*
D152*
X67270Y455474D02*
D03*
X72270D02*
D03*
X77270D02*
D03*
X82270D02*
D03*
X87270D02*
D03*
X92270D02*
D03*
Y417426D02*
D03*
X87270D02*
D03*
X82270D02*
D03*
X77270D02*
D03*
X72270D02*
D03*
X67270D02*
D03*
D153*
X98794Y448950D02*
D03*
Y443950D02*
D03*
Y438950D02*
D03*
Y433950D02*
D03*
Y428950D02*
D03*
Y423950D02*
D03*
X60746D02*
D03*
Y428950D02*
D03*
Y433950D02*
D03*
Y438950D02*
D03*
Y443950D02*
D03*
Y448950D02*
D03*
D154*
X79770Y436450D02*
D03*
D155*
X138905Y410746D02*
D03*
X166905D02*
D03*
D156*
X199910Y384476D02*
D03*
X143410D02*
D03*
Y371776D02*
D03*
X199910Y359076D02*
D03*
Y346376D02*
D03*
Y371776D02*
D03*
X143410Y359076D02*
D03*
Y346376D02*
D03*
D158*
X149000Y304720D02*
D03*
X192400D02*
D03*
D159*
X86232Y165573D02*
D03*
X69232D02*
D03*
X86232Y186265D02*
D03*
X69232D02*
D03*
X86232Y144881D02*
D03*
X69232D02*
D03*
X86232Y124189D02*
D03*
X69232D02*
D03*
X86232Y103497D02*
D03*
X69232D02*
D03*
X86232Y82804D02*
D03*
X69232D02*
D03*
M02*
