M48
;Layer_Color=9474304
;FILE_FORMAT=4:2
METRIC,TZ
;TYPE=PLATED
T01F00S00C0.20
T02F00S00C0.50
T03F00S00C0.75
T04F00S00C0.95
T05F00S00C1.02
T06F00S00C1.10
T07F00S00C3.30
;TYPE=NON_PLATED
T08F00S00C2.30
%
T01
X109Y66
X209Y64
X309
X409
X509
X609
X709
X809
X909
X1009
X1109
X1209
X1309
X1409
X1509
X1609
X1709
X1809
X1909
X2009
X2109
X2209
X2309
X2409
X2286Y1118
Y1232
X2378Y1419
X1828Y1552
X1708Y1452
X1738Y1030
X1403Y838
Y688
X1253
Y838
X1103
X975Y828
Y1035
Y1449
X564Y1344
X64Y1355
Y1255
Y1155
Y1055
Y955
Y855
Y755
Y655
Y555
Y455
Y355
Y255
Y155
X653Y538
Y688
X503
X1103
Y538
X1253
Y2038
X803
Y2188
X653
Y2038
X503
Y2188
X64Y2155
Y2255
Y2055
Y1955
Y1855
Y1755
Y1655
Y1555
Y1455
X1878Y1843
X2016Y1956
X2153Y2038
X2303
X2304Y2157
X2104
X1850Y2226
X2603Y2188
X2524Y2085
X2453Y2038
X2583Y1633
X2675
X2629Y1534
X2527
X2733Y1532
X2471Y1232
Y1118
X2985Y1032
X3053Y988
Y1138
X3203
X3286Y933
X3562
X3653Y988
X3791Y933
X4158
X4156Y1291
X4026
Y1421
X4156
X4416
Y1291
X4608Y1400
X4420Y1784
X4409Y2076
X4512
X4614
X4717
X4820
X4922
X5005Y2067
X4869Y2288
X4699
X4585Y2291
X4200Y2288
X3953Y1888
X3503
Y2038
X3353
X3203
X3053
Y1956
Y1288
X3477Y1421
X3653Y1288
X3893Y1421
X3909Y64
X4009
X4109
X4209
X4309
X4409
X4509
X4609
X4709
X4809
X4909
X5009
X5109
X5209
X5309
X5409
X5509
X5609
X5709
X5809
X5909
X6009
X6109
X6209
X6309
X6409
X6315Y947
X6140
X5962
X5888Y878
X5850Y1110
X6053Y1138
X6203
X6053Y1288
X6375Y1323
X6256Y1971
X6208Y2030
X5876Y1981
X5435Y1912
X5331
X5382Y2002
X5388Y1063
X5256Y1169
X5158Y878
X3809Y64
X3709
X3609
X3509
X3409
X3309
X3209
X3109
X3009
X2909
X2809
X2709
X2609
X2509
X2450Y356
X3052Y360
X6509Y64
X6609
X6709
X6809
X6909
X7009
X7109
X7209
X7309
X7409
X7509
X7609
X7709
X7809
X7909
X8009
X8109
X8222Y69
X8339Y63
X8421Y89
X8436Y168
Y268
Y368
Y468
Y568
Y668
Y768
Y868
Y968
Y1068
Y1168
Y1268
Y1368
Y1468
Y1568
Y1668
Y1768
Y1868
Y1968
Y2068
Y2168
Y2268
X7703Y1738
X7553
X7403Y2038
X6457Y1941
X6497Y1572
X6576
X6524Y1455
X6450Y1370
X6450Y1243
X6601Y1244
X6601Y1370
X6703Y1063
X6521Y876
X6953Y1438
X7553Y988
X7703Y2488
Y2788
Y2938
X7553
Y2788
X7403
Y2938
X7439Y3076
X7403Y3388
X7315Y3400
X7211Y3400
X6953Y3388
X6803
X6703Y2938
X6503Y2488
X6653Y3838
X6937Y3853
Y4076
X6953Y4288
X6653
X6503
X6653Y4588
X6820Y4732
X7103Y4738
X7253
Y4888
X7403
X7553
X7703
X7601Y4584
X7499Y4587
X7553Y4438
X7703
Y4288
Y4138
Y3988
Y3838
Y3688
Y3538
Y3388
X7553
Y3538
Y3688
Y3838
Y3988
Y4138
Y4288
X7403
Y4438
Y4138
Y3988
Y3838
Y3688
Y3538
X7103Y3988
Y4588
X7253
X7103Y4888
X6543Y4887
X6653Y5188
X6716Y5189
X6703Y5457
X6503Y5638
X6711Y5867
X7430Y5840
Y5898
Y5998
Y6088
Y6145
Y5748
X7428Y5646
Y5588
Y5490
X7303Y5431
X7146Y5431
X8436Y5468
Y5568
Y5668
Y5768
Y5868
Y5968
Y6068
Y6168
Y6268
Y5368
Y5268
Y5168
Y5068
Y4968
Y4868
Y4768
Y4668
Y4568
Y4468
Y4368
Y4268
Y4168
Y4068
Y3968
Y3868
Y3768
Y3668
Y3568
Y3468
Y3368
Y3268
Y3168
Y3068
Y2968
Y2868
Y2768
Y2668
Y2568
Y2468
Y2368
X6076Y2347
X6007
X5625Y2517
X5671Y2622
X5674Y2694
X5453Y2788
X5284Y2730
Y2908
Y3086
Y3263
X5438Y3292
X5284Y3460
X5303Y3538
X5275Y3659
X5385Y3795
X5072Y3800
X4950Y3749
X4970Y3974
X5151Y3914
X5000Y4360
X4950Y4413
X4751Y4410
X4756Y4486
X4651
X4701Y4562
X4603Y4683
X4553Y4738
X4508Y4767
X4310Y4683
X4348Y4612
X4161Y4633
X4003
X4147Y4890
X4276Y4942
X4265Y5378
X4349
Y5453
X4377Y5649
X4244Y5652
X4175Y5555
X4072Y5652
X3999Y5964
X4147Y5977
X4253Y6238
X4403
X4466Y5923
X4696Y5913
X4852Y5891
X4924Y5548
X4749Y5475
X4543Y5572
X4668Y5175
X4664Y5028
X4865Y4994
X4924Y5075
X4796Y4890
X4802Y4334
X4500Y4255
X4237Y3970
X4065Y4117
X3952Y4061
X3653Y4138
X3503Y4438
X3353
X3018Y4417
Y4489
Y4560
Y4346
X2875Y4483
X2770Y4407
X3005Y4023
X3076Y3741
X3023Y3486
X2694
X2753Y2938
X2925Y2919
X2957Y2715
X2903Y2638
X2957Y2577
X3053Y2638
Y2788
X3422Y2577
X3632
X3797Y2454
X4008Y2507
X4020Y2593
X3953Y2638
X3870Y2717
Y2812
X4150Y2795
X4214Y2908
X4150Y2979
X4267Y3086
X4237Y3264
X4253Y3388
X4167Y3445
X4253Y3538
X4237Y3619
X4167Y3692
X4678Y3477
X4703Y3188
X4889Y3263
Y3086
X4889Y2908
X4853Y2788
X4889Y2731
X4703Y2788
X4618Y2913
X4851Y2395
X4949Y2454
X5305Y2447
X5903Y3388
X6125Y3473
X6122Y3645
X6170Y3743
X6278Y3696
Y3862
X6269Y3533
Y3409
X6179Y3346
X5996Y3745
X5939Y3694
X6053Y4138
X5771Y4150
X5842Y4458
X5603Y4438
X5537Y4437
X5446Y4584
X5453Y4738
X5354Y4732
X5288Y4630
X5603Y4888
X5623Y4968
X5453Y5188
X5473Y5463
X5603Y5488
X5753
X5903
X6053
X6203
X6353Y5638
X6053
X5903
X5753
X5603
X5471Y5918
X6053Y5938
X5904Y6095
X6270Y6091
X6203Y4888
X6353
Y4738
X6271Y4730
X6085Y4731
X5907
X6060Y4508
X6358Y4387
X3851Y4994
X3669
X3545
X3479Y5028
X3482Y5175
X3735Y5080
X3739Y5548
X3564Y5475
X3358Y5572
X3191Y5649
X3059Y5652
X2990Y5555
X2887Y5652
X2800Y5811
Y5988
Y6188
X2600
Y5995
X2603Y5938
X2500Y5547
X2496Y5080
X2591Y4994
X2962Y4890
X3091Y4942
X3080Y5378
X3164
Y5453
X3289Y5884
X3510Y5941
X3667Y5891
X3165Y6180
X3217Y3336
X3503Y3388
X3797Y3200
X3848Y3121
X3632Y2921
X2453Y2938
Y3088
X2603Y2638
X2416Y2837
Y3025
X2303Y2938
X1853Y2788
X1631Y2861
X1420Y2565
X1253Y2488
X803
Y2638
Y2788
X653
Y2938
X503
Y3088
Y3238
Y3388
Y3538
Y3688
Y3838
X399Y4179
X466Y4266
X366Y4415
X351Y4542
X437Y4549
X451Y4829
X456Y5121
Y5183
X323Y5052
X64Y5055
Y5155
Y5255
Y5355
Y5455
Y5555
Y5655
Y5755
Y5855
Y5955
Y6055
Y6155
Y6255
X428Y6260
Y6161
X456Y5957
X455Y5651
X626Y5652
X759Y5649
X731Y5453
Y5378
X648
X558Y5555
X926Y5572
X1131Y5475
X1302Y5547
X1390Y5253
X1302Y5080
X1247Y4994
X1113
X1046Y5028
X1050Y5175
X1188Y4890
X955Y4834
X1016Y4730
X818Y4783
X658Y4942
X722Y4412
Y4289
X772Y4098
X1019Y4046
X1059Y3876
X1051Y3709
X1165Y3712
X1161Y3561
X1058Y3558
X1416Y3530
X1621Y3610
Y3707
Y3805
X1690Y3865
X2129Y3871
X2089Y3784
X2048Y3999
X2039Y4079
X2069Y4355
X2316Y4402
X2306Y4994
X2240Y5028
X2244Y5175
X2431Y4994
X2325Y5475
X2119Y5572
X1953Y5649
X1820Y5652
X1752Y5555
X1648Y5651
X1570Y5878
X1231Y5891
X1077Y5941
X856Y5884
X208Y5651
X64Y4955
Y4855
Y4755
Y4655
Y4555
Y4455
Y4355
Y4255
Y4155
Y4055
Y3955
Y3855
Y3755
Y3655
Y3555
Y3455
Y3355
Y3255
Y3155
Y3055
Y2955
Y2855
Y2755
Y2655
Y2555
Y2455
Y2355
X503Y2338
X653
X803
X653Y2488
Y2638
X503
Y2788
Y2488
X953Y3088
X1253
X869Y3315
X1829Y3348
X1893Y3369
X2316Y3657
X1706Y4448
X1513Y4712
X1501Y5075
X1723Y4891
X1852Y4942
X1841Y5378
X1925
Y5453
X2050Y5884
X2271Y5941
X2428Y5891
X2276Y6165
X1422Y4239
X1272Y4140
X1169Y4299
X1102Y4384
Y4504
X1297Y6404
X1335Y6530
X1307Y6712
X1242Y6895
X1157Y6998
X1346Y7301
Y7445
X1247
X1244Y7648
X1346Y7695
Y7581
X919Y7526
X819
X720
X620
X684Y7700
X784
X884
X984
X953Y8188
X1103
X1253
X1403
X1553
X1703
X1853
X2003
X2153
X2303
Y8038
Y7888
Y7738
Y7588
Y7438
X2153
Y7588
Y7738
Y7888
Y8038
X2003
Y7888
Y7738
Y7588
Y7438
Y7288
X2153Y7138
X2303
X2100Y6988
X2003Y6988
X2100Y6765
X1650Y6346
X697Y6401
X634Y6499
X653Y6688
X605Y6978
X64Y6955
Y7055
Y7155
Y7255
Y7355
Y7455
Y7555
Y7655
Y7755
Y7855
X60Y7951
X64Y8055
Y8155
Y8255
Y8355
X122Y8436
X263
X363
X463
X563
X663
X763
X863
X963
X1063
X1163
X1263
X1363
X1463
X1563
X1663
X1763
X1863
X1963
X2063
X2163
X2263
X2363
X803Y8188
X424Y7700
X357Y7601
X425Y7400
X358Y7301
X64Y6855
Y6755
Y6655
Y6555
Y6455
Y6355
X356Y6451
X423Y6550
X2500Y6765
X2500Y6988
X2603Y6988
Y7138
X2753
X2900Y6988
X2900Y6765
X3300
X3304Y6988
X3203Y6988
X3653
Y6838
Y6688
X3503
X3953
X4067Y6691
X3953Y6838
Y7138
X4067Y7047
Y7402
X3953Y7438
X3803Y7288
X3653Y7438
Y7588
Y7738
X3803
Y7888
X3953
X4103
X4253
X4403
X4553
X4548Y7756
X4703Y7738
X4853
X5003
X5153
X5303
X5453
X5603
X5753
X5903
X6053
X6203
X6353
Y7888
Y8038
Y8188
X6203
Y8038
Y7888
X6053
Y8038
Y8188
X5903
Y8038
Y7888
X5753
Y8038
Y8188
X5603
Y8038
Y7888
X5453
Y8038
Y8188
X5303
Y8038
Y7888
X5153
Y8038
Y8188
X5003
Y8038
Y7888
X4853
Y8038
Y8188
X4703
Y8038
Y7888
Y7588
X4853
X5003
X5153
X5303
X5453
X5603
X5753
X5903
X6053
X6203
X6353
Y7438
Y7288
Y7138
Y6988
X6203
Y7138
Y7288
Y7438
X6053
Y7288
Y7138
X5903
Y7288
Y7438
X5753
Y7288
Y7138
X5603
Y7288
Y7438
X5453
Y7288
Y7138
X5303
Y7288
Y7438
X5153
Y7288
Y7138
X5003
Y7288
Y7438
X4853Y7288
Y7138
X4703
Y7288
X4553
X4548Y7400
X4553Y7588
Y8038
Y8188
X4403
Y8038
X4253
Y8188
X4103
Y8038
X3953
Y8188
X3803
Y8038
X3653
Y8188
X3503
Y8038
Y7888
X3653
X3503Y7738
Y7588
X3353
Y7738
Y7888
Y8038
Y8188
X3203
Y8038
Y7888
Y7738
Y7588
Y7438
X3353
X3053
Y7588
Y7738
Y7888
Y8038
Y8188
X2903
Y8038
Y7888
Y7738
Y7588
Y7438
X2753
Y7588
Y7738
Y7888
Y8038
Y8188
X2603
Y8038
Y7888
Y7738
Y7588
Y7438
X2453
Y7588
Y7738
Y7888
Y8038
Y8188
X2463Y8436
X2563
X2663
X2763
X2863
X2963
X3063
X3163
X3263
X3363
X3463
X3563
X3663
X3763
X3863
X3963
X4063
X4163
X4263
X4363
X4463
X4563
X4663
X4763
X4863
X4963
X5063
X5163
X5263
X5363
X5463
X5563
X5663
X5763
X5863
X5963
X6063
X6163
X6263
X6363
X6399Y6790
X6000Y6735
X5903Y6688
Y6838
X5800Y6765
X5599Y6736
X5400
Y6515
X5303Y6538
X5304Y6421
X5538Y6336
X5603Y6388
X5753
X5722Y6335
X6200Y6515
X5000
X5003Y6388
X4853Y6538
Y6688
Y6838
X5003Y6988
X5204Y6788
X4464Y6689
Y7044
X4403Y7138
Y7288
X4067Y7757
X4103Y6388
X4253
X3953
X2800Y6362
X2600
X6453Y6332
X6503Y6388
Y6538
X6653
X6634Y6330
X6819Y6332
X6953Y6538
Y6688
Y6838
Y6988
Y7138
Y7288
Y7438
Y7588
Y7738
Y7888
X7103
X7253
X7403
X7553
X7703
X7853
X7703Y8038
Y8188
X7553
Y8038
X7403
Y8188
X7253
Y8038
X7103
Y8188
X6953
Y8038
X6803
Y8188
X6653
Y8038
Y7888
X6803
Y7738
Y7588
Y7438
Y7288
Y7138
Y6988
Y6838
Y6688
X6653Y7138
Y7288
X6503
Y7438
Y7588
X6653
Y7738
X6503
Y7888
Y8038
Y8188
X6463Y8436
X6563
X6663
X6763
X6863
X6963
X7063
X7163
X7263
X7363
X7463
X7563
X7663
X7763
X7863
X7952Y8444
X8063Y8442
X8163Y8436
X8263
X8363
X8436Y8368
Y8268
Y8168
X8448Y8067
X8448Y7958
X8436Y7868
Y7768
Y7668
Y7568
Y7468
Y7368
Y7268
Y7168
Y7068
Y6968
Y6868
Y6768
Y6668
Y6568
Y6468
Y6368
X7303Y7056
Y7181
X7146Y7181
Y7056
X6503Y6988
Y7138
T02
X196Y196
X360Y131
X524Y196
X593Y360
X524Y524
X360Y593
X196Y524
X127Y360
X7907
X7976Y524
X8140Y593
X8304Y524
X8372Y360
X8304Y196
X8140Y131
X7976Y196
X524Y7976
X360Y7911
X196Y7976
X127Y8140
X196Y8304
X360Y8372
X524Y8304
X593Y8140
X7907
X7976Y7976
X8140Y7911
X8304Y7976
X8372Y8140
X8304Y8304
X8140Y8372
X7976Y8304
T03
X2250Y500
Y700
X2450
X2650
X2850
Y500
X3050
X3250
Y700
X3050
X3450
X3650
Y500
X3450
X3850
X4050
Y700
X3850
X4250
X4450
X4650
X4850
X5050
Y500
X4850
X4650
X4450
X4250
X5250
X5450
Y700
X5250
X5650
Y500
X5850
X6050
Y700
X5850
X6250
Y500
X2650
X2450
T04
X1675Y6925
Y7400
X3525
Y6925
X4775
Y7400
X6625
Y6925
T05
X7373Y1138
Y1392
Y1646
Y1900
Y2154
X7627
Y1900
Y1646
Y1392
Y1138
Y2408
X7373
Y2662
X7627
T06
X1153Y1097
Y1351
Y1605
Y1885
Y2139
Y2393
Y2647
Y2901
T07
X360Y360
X8140
X360Y8140
X8140
T08
X1900Y600
X6600
M30
