G04*
G04 #@! TF.GenerationSoftware,Altium Limited,Altium Designer,24.1.2 (44)*
G04*
G04 Layer_Physical_Order=2*
G04 Layer_Color=15724527*
%FSLAX44Y44*%
%MOMM*%
G71*
G04*
G04 #@! TF.SameCoordinates,6F585FF1-4DE3-4077-9EA4-C48F536BE3D4*
G04*
G04*
G04 #@! TF.FilePolarity,Positive*
G04*
G01*
G75*
%ADD12C,0.2540*%
%ADD25C,1.2300*%
%ADD130C,2.3000*%
%ADD132C,1.2580*%
%ADD133C,0.3000*%
%ADD134C,1.3700*%
%ADD135R,1.3700X1.3700*%
%ADD136C,1.4580*%
%ADD137C,1.6000*%
%ADD138R,1.6000X1.6000*%
%ADD139C,1.0000*%
%ADD140C,6.0000*%
%ADD141C,0.4000*%
%ADD142C,0.6350*%
%ADD143R,2.0320X2.3114*%
G36*
X837997Y837997D02*
X837984Y830638D01*
X837837D01*
X830440Y838035D01*
X837959D01*
X837997Y837997D01*
D02*
G37*
G36*
X19362Y837984D02*
Y837837D01*
X11965Y830440D01*
Y837959D01*
X12003Y837997D01*
X19362Y837984D01*
D02*
G37*
G36*
X790704Y835648D02*
X789760Y834703D01*
X786819Y830656D01*
X784548Y826199D01*
X783002Y821442D01*
X782220Y816501D01*
Y811499D01*
X783002Y806558D01*
X784548Y801801D01*
X786819Y797344D01*
X789760Y793297D01*
X793297Y789760D01*
X797344Y786819D01*
X801801Y784548D01*
X806558Y783002D01*
X811499Y782220D01*
X816501D01*
X821442Y783002D01*
X826199Y784548D01*
X830656Y786819D01*
X834703Y789760D01*
X835654Y790711D01*
Y780325D01*
X702818D01*
X702123Y780187D01*
X701535Y779793D01*
X701141Y779204D01*
X701003Y778510D01*
Y775037D01*
X701141Y774342D01*
X701383Y773981D01*
X701735Y773130D01*
Y772348D01*
X701383Y771497D01*
X701141Y771136D01*
X701003Y770441D01*
Y504190D01*
X701141Y503495D01*
X701535Y502907D01*
X702123Y502513D01*
X702818Y502375D01*
X767598Y502375D01*
X785585Y484388D01*
Y116576D01*
X710702Y41693D01*
X628114D01*
X628408Y41772D01*
X630422Y42934D01*
X632066Y44578D01*
X633228Y46592D01*
X633801Y48730D01*
X616199D01*
X616772Y46592D01*
X617934Y44578D01*
X619578Y42934D01*
X621592Y41772D01*
X621886Y41693D01*
X608114D01*
X608408Y41772D01*
X610422Y42934D01*
X612066Y44578D01*
X613228Y46592D01*
X613801Y48730D01*
X596199D01*
X596772Y46592D01*
X597934Y44578D01*
X599578Y42934D01*
X601592Y41772D01*
X601886Y41693D01*
X588114D01*
X588408Y41772D01*
X590422Y42934D01*
X592066Y44578D01*
X593228Y46592D01*
X593801Y48730D01*
X576199D01*
X576772Y46592D01*
X577934Y44578D01*
X579578Y42934D01*
X581592Y41772D01*
X581886Y41693D01*
X468114D01*
X468408Y41772D01*
X470422Y42934D01*
X472066Y44578D01*
X473228Y46592D01*
X473801Y48730D01*
X465000D01*
Y50000D01*
X463730D01*
Y58801D01*
X461592Y58228D01*
X459578Y57066D01*
X458116Y55604D01*
Y65782D01*
X458542Y65045D01*
X460045Y63542D01*
X461885Y62480D01*
X463938Y61930D01*
X466062D01*
X468115Y62480D01*
X469955Y63542D01*
X471458Y65045D01*
X472520Y66885D01*
X473070Y68938D01*
Y71062D01*
X472520Y73115D01*
X471458Y74955D01*
X469955Y76458D01*
X468115Y77520D01*
X466062Y78070D01*
X463938D01*
X461885Y77520D01*
X460045Y76458D01*
X458542Y74955D01*
X458116Y74218D01*
Y81280D01*
X457978Y81974D01*
X457585Y82563D01*
X456996Y82957D01*
X456302Y83095D01*
X197643D01*
X197790Y83155D01*
X198853Y84219D01*
X199428Y85608D01*
Y87112D01*
X198853Y88501D01*
X197790Y89565D01*
X196400Y90140D01*
X194897D01*
X193507Y89565D01*
X192444Y88501D01*
X191868Y87112D01*
Y85608D01*
X192444Y84219D01*
X193507Y83155D01*
X193654Y83095D01*
X179795D01*
X179941Y83155D01*
X181005Y84219D01*
X181580Y85608D01*
Y87112D01*
X181005Y88501D01*
X179941Y89565D01*
X178552Y90140D01*
X177048D01*
X175659Y89565D01*
X174596Y88501D01*
X174020Y87112D01*
Y85608D01*
X174596Y84219D01*
X175659Y83155D01*
X175805Y83095D01*
X160858D01*
X160163Y82957D01*
X159574Y82563D01*
X159181Y81974D01*
X159043Y81280D01*
Y14346D01*
X59289Y14346D01*
X60240Y15297D01*
X63181Y19344D01*
X65452Y23801D01*
X66997Y28558D01*
X67780Y33499D01*
Y38501D01*
X66997Y43442D01*
X65452Y48199D01*
X63181Y52656D01*
X60240Y56703D01*
X56703Y60240D01*
X52656Y63181D01*
X48199Y65452D01*
X43442Y66997D01*
X38501Y67780D01*
X33499D01*
X28558Y66997D01*
X23801Y65452D01*
X19344Y63181D01*
X15297Y60240D01*
X14352Y59295D01*
X14352Y790704D01*
X15297Y789760D01*
X19344Y786819D01*
X23801Y784548D01*
X28558Y783002D01*
X33499Y782220D01*
X38501D01*
X43442Y783002D01*
X48199Y784548D01*
X52656Y786819D01*
X56703Y789760D01*
X60240Y793297D01*
X63181Y797344D01*
X65452Y801801D01*
X66997Y806558D01*
X67780Y811499D01*
Y816501D01*
X66997Y821442D01*
X65452Y826199D01*
X63181Y830656D01*
X60240Y834703D01*
X59296Y835648D01*
X790704Y835648D01*
D02*
G37*
G36*
X835654Y59289D02*
X834703Y60240D01*
X830656Y63181D01*
X826199Y65452D01*
X821442Y66997D01*
X816501Y67780D01*
X811499D01*
X806558Y66997D01*
X801801Y65452D01*
X797344Y63181D01*
X793297Y60240D01*
X789760Y56703D01*
X786819Y52656D01*
X784548Y48199D01*
X783002Y43442D01*
X782220Y38501D01*
Y33499D01*
X783002Y28558D01*
X784548Y23801D01*
X786819Y19344D01*
X789760Y15297D01*
X790711Y14346D01*
X160858Y14346D01*
Y81280D01*
X456302D01*
Y39878D01*
X711454D01*
X787400Y115824D01*
Y485140D01*
X768350Y504190D01*
X702818Y504190D01*
Y770441D01*
X702974Y770598D01*
X703550Y771987D01*
Y773491D01*
X702974Y774880D01*
X702818Y775037D01*
Y778510D01*
X835654D01*
X835654Y59289D01*
D02*
G37*
G36*
X838035Y12041D02*
X837997Y12003D01*
X830638Y12016D01*
Y12163D01*
X838035Y19560D01*
Y12041D01*
D02*
G37*
G36*
X19560Y11965D02*
X12041D01*
X12003Y12003D01*
X12016Y19362D01*
X12163D01*
X19560Y11965D01*
D02*
G37*
%LPC*%
G36*
X145399Y765780D02*
X143895D01*
X142506Y765204D01*
X141443Y764141D01*
X140867Y762752D01*
Y761248D01*
X141443Y759859D01*
X142506Y758795D01*
X143895Y758220D01*
X145399D01*
X146788Y758795D01*
X147852Y759859D01*
X148427Y761248D01*
Y762752D01*
X147852Y764141D01*
X146788Y765204D01*
X145399Y765780D01*
D02*
G37*
G36*
X115899Y762598D02*
X114395D01*
X113006Y762022D01*
X111942Y760959D01*
X111367Y759569D01*
Y758066D01*
X111942Y756676D01*
X113006Y755613D01*
X114395Y755038D01*
X115899D01*
X117288Y755613D01*
X118351Y756676D01*
X118927Y758066D01*
Y759569D01*
X118351Y760959D01*
X117288Y762022D01*
X115899Y762598D01*
D02*
G37*
G36*
X95899D02*
X94395D01*
X93006Y762022D01*
X91942Y760959D01*
X91367Y759569D01*
Y758066D01*
X91942Y756676D01*
X93006Y755613D01*
X94395Y755038D01*
X95899D01*
X97288Y755613D01*
X98351Y756676D01*
X98927Y758066D01*
Y759569D01*
X98351Y760959D01*
X97288Y762022D01*
X95899Y762598D01*
D02*
G37*
G36*
X75899D02*
X74395D01*
X73005Y762022D01*
X71942Y760959D01*
X71367Y759569D01*
Y758066D01*
X71942Y756676D01*
X73005Y755613D01*
X74395Y755038D01*
X75899D01*
X77288Y755613D01*
X78351Y756676D01*
X78927Y758066D01*
Y759569D01*
X78351Y760959D01*
X77288Y762022D01*
X75899Y762598D01*
D02*
G37*
G36*
X135195Y761081D02*
X133691D01*
X132302Y760506D01*
X131239Y759442D01*
X130663Y758053D01*
Y756549D01*
X131239Y755160D01*
X132302Y754097D01*
X133691Y753521D01*
X135195D01*
X136585Y754097D01*
X137648Y755160D01*
X138223Y756549D01*
Y758053D01*
X137648Y759442D01*
X136585Y760506D01*
X135195Y761081D01*
D02*
G37*
G36*
X145399Y754350D02*
X143895D01*
X142506Y753774D01*
X141443Y752711D01*
X140867Y751322D01*
Y749818D01*
X141443Y748429D01*
X142506Y747365D01*
X143895Y746790D01*
X145399D01*
X146788Y747365D01*
X147852Y748429D01*
X148427Y749818D01*
Y751322D01*
X147852Y752711D01*
X146788Y753774D01*
X145399Y754350D01*
D02*
G37*
G36*
X106496Y752728D02*
X104992D01*
X103603Y752152D01*
X102539Y751089D01*
X101964Y749699D01*
Y748196D01*
X102539Y746806D01*
X103603Y745743D01*
X104992Y745168D01*
X106496D01*
X107885Y745743D01*
X108948Y746806D01*
X109524Y748196D01*
Y749699D01*
X108948Y751089D01*
X107885Y752152D01*
X106496Y752728D01*
D02*
G37*
G36*
X86496D02*
X84992D01*
X83602Y752152D01*
X82539Y751089D01*
X81964Y749699D01*
Y748196D01*
X82539Y746806D01*
X83602Y745743D01*
X84992Y745168D01*
X86496D01*
X87885Y745743D01*
X88948Y746806D01*
X89524Y748196D01*
Y749699D01*
X88948Y751089D01*
X87885Y752152D01*
X86496Y752728D01*
D02*
G37*
G36*
X97093Y742858D02*
X95589D01*
X94199Y742282D01*
X93136Y741219D01*
X92561Y739830D01*
Y738326D01*
X93136Y736937D01*
X94199Y735873D01*
X95589Y735298D01*
X97093D01*
X98482Y735873D01*
X99545Y736937D01*
X100121Y738326D01*
Y739830D01*
X99545Y741219D01*
X98482Y742282D01*
X97093Y742858D01*
D02*
G37*
G36*
X77092D02*
X75589D01*
X74199Y742282D01*
X73136Y741219D01*
X72561Y739830D01*
Y738326D01*
X73136Y736937D01*
X74199Y735873D01*
X75589Y735298D01*
X77092D01*
X78482Y735873D01*
X79545Y736937D01*
X80121Y738326D01*
Y739830D01*
X79545Y741219D01*
X78482Y742282D01*
X77092Y742858D01*
D02*
G37*
G36*
X145399Y740733D02*
X143895D01*
X142506Y740157D01*
X141443Y739094D01*
X140867Y737704D01*
Y736201D01*
X141443Y734811D01*
X142506Y733748D01*
X143895Y733173D01*
X145399D01*
X146788Y733748D01*
X147852Y734811D01*
X148427Y736201D01*
Y737704D01*
X147852Y739094D01*
X146788Y740157D01*
X145399Y740733D01*
D02*
G37*
G36*
X135427D02*
X133923D01*
X132534Y740157D01*
X131470Y739094D01*
X130895Y737704D01*
Y736201D01*
X131470Y734811D01*
X132534Y733748D01*
X133923Y733173D01*
X135427D01*
X136816Y733748D01*
X137879Y734811D01*
X138455Y736201D01*
Y737704D01*
X137879Y739094D01*
X136816Y740157D01*
X135427Y740733D01*
D02*
G37*
G36*
X663694Y749070D02*
X661306D01*
X658999Y748452D01*
X656931Y747258D01*
X655242Y745569D01*
X654048Y743501D01*
X653430Y741194D01*
Y738806D01*
X654048Y736499D01*
X655242Y734431D01*
X656931Y732742D01*
X658999Y731548D01*
X661306Y730930D01*
X663694D01*
X666001Y731548D01*
X668069Y732742D01*
X669758Y734431D01*
X670952Y736499D01*
X671570Y738806D01*
Y741194D01*
X670952Y743501D01*
X669758Y745569D01*
X668069Y747258D01*
X666001Y748452D01*
X663694Y749070D01*
D02*
G37*
G36*
X478694D02*
X476306D01*
X473999Y748452D01*
X471931Y747258D01*
X470242Y745569D01*
X469048Y743501D01*
X468430Y741194D01*
Y738806D01*
X469048Y736499D01*
X470242Y734431D01*
X471931Y732742D01*
X473999Y731548D01*
X476306Y730930D01*
X478694D01*
X481001Y731548D01*
X483069Y732742D01*
X484758Y734431D01*
X485952Y736499D01*
X486570Y738806D01*
Y741194D01*
X485952Y743501D01*
X484758Y745569D01*
X483069Y747258D01*
X481001Y748452D01*
X478694Y749070D01*
D02*
G37*
G36*
X353694D02*
X351306D01*
X348999Y748452D01*
X346931Y747258D01*
X345242Y745569D01*
X344048Y743501D01*
X343430Y741194D01*
Y738806D01*
X344048Y736499D01*
X345242Y734431D01*
X346931Y732742D01*
X348999Y731548D01*
X351306Y730930D01*
X353694D01*
X356001Y731548D01*
X358069Y732742D01*
X359758Y734431D01*
X360952Y736499D01*
X361570Y738806D01*
Y741194D01*
X360952Y743501D01*
X359758Y745569D01*
X358069Y747258D01*
X356001Y748452D01*
X353694Y749070D01*
D02*
G37*
G36*
X168694D02*
X166306D01*
X163999Y748452D01*
X161931Y747258D01*
X160242Y745569D01*
X159048Y743501D01*
X158430Y741194D01*
Y738806D01*
X159048Y736499D01*
X160242Y734431D01*
X161931Y732742D01*
X163999Y731548D01*
X166306Y730930D01*
X168694D01*
X171001Y731548D01*
X173069Y732742D01*
X174758Y734431D01*
X175952Y736499D01*
X176570Y738806D01*
Y741194D01*
X175952Y743501D01*
X174758Y745569D01*
X173069Y747258D01*
X171001Y748452D01*
X168694Y749070D01*
D02*
G37*
G36*
X145399Y726410D02*
X143895D01*
X142506Y725835D01*
X141443Y724771D01*
X140867Y723382D01*
Y721878D01*
X141443Y720489D01*
X142506Y719426D01*
X143895Y718850D01*
X145399D01*
X146788Y719426D01*
X147852Y720489D01*
X148427Y721878D01*
Y723382D01*
X147852Y724771D01*
X146788Y725835D01*
X145399Y726410D01*
D02*
G37*
G36*
X135179Y696032D02*
X133675D01*
X132286Y695457D01*
X131223Y694394D01*
X130647Y693004D01*
Y691501D01*
X131223Y690111D01*
X132286Y689048D01*
X133675Y688473D01*
X135179D01*
X136569Y689048D01*
X137632Y690111D01*
X138207Y691501D01*
Y693004D01*
X137632Y694394D01*
X136569Y695457D01*
X135179Y696032D01*
D02*
G37*
G36*
X663694Y701570D02*
X661306D01*
X658999Y700952D01*
X656931Y699758D01*
X655242Y698069D01*
X654048Y696001D01*
X653430Y693694D01*
Y691306D01*
X654048Y688999D01*
X655242Y686931D01*
X656931Y685242D01*
X658999Y684048D01*
X661306Y683430D01*
X663694D01*
X666001Y684048D01*
X668069Y685242D01*
X669758Y686931D01*
X670952Y688999D01*
X671570Y691306D01*
Y693694D01*
X670952Y696001D01*
X669758Y698069D01*
X668069Y699758D01*
X666001Y700952D01*
X663694Y701570D01*
D02*
G37*
G36*
X478694D02*
X476306D01*
X473999Y700952D01*
X471931Y699758D01*
X470242Y698069D01*
X469048Y696001D01*
X468430Y693694D01*
Y691306D01*
X469048Y688999D01*
X470242Y686931D01*
X471931Y685242D01*
X473999Y684048D01*
X476306Y683430D01*
X478694D01*
X481001Y684048D01*
X483069Y685242D01*
X484758Y686931D01*
X485952Y688999D01*
X486570Y691306D01*
Y693694D01*
X485952Y696001D01*
X484758Y698069D01*
X483069Y699758D01*
X481001Y700952D01*
X478694Y701570D01*
D02*
G37*
G36*
X353694D02*
X351306D01*
X348999Y700952D01*
X346931Y699758D01*
X345242Y698069D01*
X344048Y696001D01*
X343430Y693694D01*
Y691306D01*
X344048Y688999D01*
X345242Y686931D01*
X346931Y685242D01*
X348999Y684048D01*
X351306Y683430D01*
X353694D01*
X356001Y684048D01*
X358069Y685242D01*
X359758Y686931D01*
X360952Y688999D01*
X361570Y691306D01*
Y693694D01*
X360952Y696001D01*
X359758Y698069D01*
X358069Y699758D01*
X356001Y700952D01*
X353694Y701570D01*
D02*
G37*
G36*
X168694D02*
X166306D01*
X163999Y700952D01*
X161931Y699758D01*
X160242Y698069D01*
X159048Y696001D01*
X158430Y693694D01*
Y691306D01*
X159048Y688999D01*
X160242Y686931D01*
X161931Y685242D01*
X163999Y684048D01*
X166306Y683430D01*
X168694D01*
X171001Y684048D01*
X173069Y685242D01*
X174758Y686931D01*
X175952Y688999D01*
X176570Y691306D01*
Y693694D01*
X175952Y696001D01*
X174758Y698069D01*
X173069Y699758D01*
X171001Y700952D01*
X168694Y701570D01*
D02*
G37*
G36*
X134978Y685821D02*
X133474D01*
X132085Y685246D01*
X131021Y684182D01*
X130446Y682793D01*
Y681289D01*
X131021Y679900D01*
X132085Y678837D01*
X133474Y678261D01*
X134978D01*
X136367Y678837D01*
X137431Y679900D01*
X138006Y681289D01*
Y682793D01*
X137431Y684182D01*
X136367Y685246D01*
X134978Y685821D01*
D02*
G37*
G36*
X640660Y682827D02*
X639156D01*
X637767Y682251D01*
X636703Y681188D01*
X636128Y679799D01*
Y678295D01*
X636703Y676906D01*
X637767Y675842D01*
X639156Y675267D01*
X640660D01*
X642049Y675842D01*
X643112Y676906D01*
X643688Y678295D01*
Y679799D01*
X643112Y681188D01*
X642049Y682251D01*
X640660Y682827D01*
D02*
G37*
G36*
X521111Y682566D02*
X519607D01*
X518218Y681991D01*
X517155Y680927D01*
X516579Y679538D01*
Y678034D01*
X517155Y676645D01*
X518218Y675582D01*
X519607Y675006D01*
X521111D01*
X522500Y675582D01*
X523564Y676645D01*
X524139Y678034D01*
Y679538D01*
X523564Y680927D01*
X522500Y681991D01*
X521111Y682566D01*
D02*
G37*
G36*
X580752Y680280D02*
X579248D01*
X577859Y679705D01*
X576796Y678641D01*
X576220Y677252D01*
Y675748D01*
X576796Y674359D01*
X577859Y673296D01*
X579248Y672720D01*
X580752D01*
X582141Y673296D01*
X583204Y674359D01*
X583780Y675748D01*
Y677252D01*
X583204Y678641D01*
X582141Y679705D01*
X580752Y680280D01*
D02*
G37*
G36*
X330752D02*
X329248D01*
X327859Y679705D01*
X326796Y678641D01*
X326220Y677252D01*
Y675748D01*
X326796Y674359D01*
X327859Y673296D01*
X329248Y672720D01*
X330752D01*
X332141Y673296D01*
X333204Y674359D01*
X333780Y675748D01*
Y677252D01*
X333204Y678641D01*
X332141Y679705D01*
X330752Y680280D01*
D02*
G37*
G36*
X290752D02*
X289248D01*
X287859Y679705D01*
X286795Y678641D01*
X286220Y677252D01*
Y675748D01*
X286795Y674359D01*
X287859Y673296D01*
X289248Y672720D01*
X290752D01*
X292141Y673296D01*
X293204Y674359D01*
X293780Y675748D01*
Y677252D01*
X293204Y678641D01*
X292141Y679705D01*
X290752Y680280D01*
D02*
G37*
G36*
X250752D02*
X249248D01*
X247859Y679705D01*
X246795Y678641D01*
X246220Y677252D01*
Y675748D01*
X246795Y674359D01*
X247859Y673296D01*
X249248Y672720D01*
X250752D01*
X252141Y673296D01*
X253204Y674359D01*
X253780Y675748D01*
Y677252D01*
X253204Y678641D01*
X252141Y679705D01*
X250752Y680280D01*
D02*
G37*
G36*
X210752D02*
X209248D01*
X207859Y679705D01*
X206795Y678641D01*
X206220Y677252D01*
Y675748D01*
X206795Y674359D01*
X207859Y673296D01*
X209248Y672720D01*
X210752D01*
X212141Y673296D01*
X213204Y674359D01*
X213780Y675748D01*
Y677252D01*
X213204Y678641D01*
X212141Y679705D01*
X210752Y680280D01*
D02*
G37*
G36*
X560688Y677375D02*
X559184D01*
X557795Y676799D01*
X556732Y675736D01*
X556156Y674347D01*
Y672843D01*
X556732Y671453D01*
X557795Y670390D01*
X559184Y669815D01*
X560688D01*
X562077Y670390D01*
X563141Y671453D01*
X563716Y672843D01*
Y674347D01*
X563141Y675736D01*
X562077Y676799D01*
X560688Y677375D01*
D02*
G37*
G36*
X540752D02*
X539248D01*
X537859Y676799D01*
X536796Y675736D01*
X536220Y674347D01*
Y672843D01*
X536796Y671453D01*
X537859Y670390D01*
X539248Y669815D01*
X540752D01*
X542141Y670390D01*
X543205Y671453D01*
X543780Y672843D01*
Y674347D01*
X543205Y675736D01*
X542141Y676799D01*
X540752Y677375D01*
D02*
G37*
G36*
X600712Y677233D02*
X599209D01*
X597819Y676658D01*
X596756Y675594D01*
X596180Y674205D01*
Y672701D01*
X596756Y671312D01*
X597819Y670249D01*
X599209Y669673D01*
X600712D01*
X602102Y670249D01*
X603165Y671312D01*
X603741Y672701D01*
Y674205D01*
X603165Y675594D01*
X602102Y676658D01*
X600712Y677233D01*
D02*
G37*
G36*
X620752Y655280D02*
X619248D01*
X617859Y654705D01*
X616796Y653641D01*
X616220Y652252D01*
Y650748D01*
X616796Y649359D01*
X617859Y648296D01*
X619248Y647720D01*
X620752D01*
X622141Y648296D01*
X623204Y649359D01*
X623780Y650748D01*
Y652252D01*
X623204Y653641D01*
X622141Y654705D01*
X620752Y655280D01*
D02*
G37*
G36*
X540752D02*
X539248D01*
X537859Y654705D01*
X536796Y653641D01*
X536220Y652252D01*
Y650748D01*
X536796Y649359D01*
X537859Y648296D01*
X539248Y647720D01*
X540752D01*
X542141Y648296D01*
X543205Y649359D01*
X543780Y650748D01*
Y652252D01*
X543205Y653641D01*
X542141Y654705D01*
X540752Y655280D01*
D02*
G37*
G36*
X500752D02*
X499248D01*
X497859Y654705D01*
X496796Y653641D01*
X496220Y652252D01*
Y650748D01*
X496796Y649359D01*
X497859Y648296D01*
X499248Y647720D01*
X500752D01*
X502141Y648296D01*
X503204Y649359D01*
X503780Y650748D01*
Y652252D01*
X503204Y653641D01*
X502141Y654705D01*
X500752Y655280D01*
D02*
G37*
G36*
X331206Y654030D02*
X329702D01*
X328313Y653455D01*
X327249Y652391D01*
X326674Y651002D01*
Y649498D01*
X327249Y648109D01*
X328313Y647046D01*
X329702Y646470D01*
X331206D01*
X332595Y647046D01*
X333658Y648109D01*
X334234Y649498D01*
Y651002D01*
X333658Y652391D01*
X332595Y653455D01*
X331206Y654030D01*
D02*
G37*
G36*
X290752D02*
X289248D01*
X287859Y653455D01*
X286795Y652391D01*
X286220Y651002D01*
Y649498D01*
X286795Y648109D01*
X287859Y647046D01*
X289248Y646470D01*
X290752D01*
X292141Y647046D01*
X293204Y648109D01*
X293780Y649498D01*
Y651002D01*
X293204Y652391D01*
X292141Y653455D01*
X290752Y654030D01*
D02*
G37*
G36*
X250752D02*
X249248D01*
X247859Y653455D01*
X246795Y652391D01*
X246220Y651002D01*
Y649498D01*
X246795Y648109D01*
X247859Y647046D01*
X249248Y646470D01*
X250752D01*
X252141Y647046D01*
X253204Y648109D01*
X253780Y649498D01*
Y651002D01*
X253204Y652391D01*
X252141Y653455D01*
X250752Y654030D01*
D02*
G37*
G36*
X210724Y652404D02*
X209220D01*
X207831Y651829D01*
X206768Y650766D01*
X206192Y649376D01*
Y647873D01*
X206768Y646483D01*
X207831Y645420D01*
X209220Y644845D01*
X210724D01*
X212113Y645420D01*
X213177Y646483D01*
X213752Y647873D01*
Y649376D01*
X213177Y650766D01*
X212113Y651829D01*
X210724Y652404D01*
D02*
G37*
G36*
X144262Y649251D02*
X142758D01*
X141369Y648675D01*
X140306Y647612D01*
X139730Y646223D01*
Y644719D01*
X140306Y643329D01*
X141369Y642266D01*
X142758Y641691D01*
X144262D01*
X145651Y642266D01*
X146714Y643329D01*
X147290Y644719D01*
Y646223D01*
X146714Y647612D01*
X145651Y648675D01*
X144262Y649251D01*
D02*
G37*
G36*
X74176Y646228D02*
X72672D01*
X71283Y645652D01*
X70219Y644589D01*
X69644Y643199D01*
Y641696D01*
X70219Y640306D01*
X71283Y639243D01*
X72672Y638668D01*
X74176D01*
X75565Y639243D01*
X76628Y640306D01*
X77204Y641696D01*
Y643199D01*
X76628Y644589D01*
X75565Y645652D01*
X74176Y646228D01*
D02*
G37*
G36*
X89854Y646220D02*
X88350D01*
X86961Y645644D01*
X85898Y644581D01*
X85322Y643192D01*
Y641688D01*
X85898Y640298D01*
X86961Y639235D01*
X88350Y638660D01*
X89854D01*
X91243Y639235D01*
X92307Y640298D01*
X92882Y641688D01*
Y643192D01*
X92307Y644581D01*
X91243Y645644D01*
X89854Y646220D01*
D02*
G37*
G36*
X554572Y637335D02*
X553068D01*
X551679Y636759D01*
X550615Y635696D01*
X550040Y634307D01*
Y632803D01*
X550615Y631413D01*
X551679Y630350D01*
X553068Y629775D01*
X554572D01*
X555961Y630350D01*
X557024Y631413D01*
X557600Y632803D01*
Y634307D01*
X557024Y635696D01*
X555961Y636759D01*
X554572Y637335D01*
D02*
G37*
G36*
X64773Y636358D02*
X63269D01*
X61880Y635782D01*
X60816Y634719D01*
X60241Y633330D01*
Y631826D01*
X60816Y630437D01*
X61880Y629373D01*
X63269Y628798D01*
X64773D01*
X66162Y629373D01*
X67225Y630437D01*
X67801Y631826D01*
Y633330D01*
X67225Y634719D01*
X66162Y635782D01*
X64773Y636358D01*
D02*
G37*
G36*
X80451Y636350D02*
X78947D01*
X77558Y635774D01*
X76495Y634711D01*
X75919Y633322D01*
Y631818D01*
X76495Y630429D01*
X77558Y629365D01*
X78947Y628790D01*
X80451D01*
X81840Y629365D01*
X82904Y630429D01*
X83479Y631818D01*
Y633322D01*
X82904Y634711D01*
X81840Y635774D01*
X80451Y636350D01*
D02*
G37*
G36*
X90321Y626947D02*
X88817D01*
X87428Y626371D01*
X86364Y625308D01*
X85789Y623919D01*
Y622415D01*
X86364Y621026D01*
X87428Y619962D01*
X88817Y619387D01*
X90321D01*
X91710Y619962D01*
X92774Y621026D01*
X93349Y622415D01*
Y623919D01*
X92774Y625308D01*
X91710Y626371D01*
X90321Y626947D01*
D02*
G37*
G36*
X64773Y624818D02*
X63269D01*
X61880Y624242D01*
X60816Y623179D01*
X60241Y621790D01*
Y620286D01*
X60816Y618896D01*
X61880Y617833D01*
X63269Y617258D01*
X64773D01*
X66162Y617833D01*
X67225Y618896D01*
X67801Y620286D01*
Y621790D01*
X67225Y623179D01*
X66162Y624242D01*
X64773Y624818D01*
D02*
G37*
G36*
X101595Y563485D02*
X100091D01*
X98702Y562910D01*
X97639Y561846D01*
X97063Y560457D01*
Y558953D01*
X97639Y557564D01*
X98702Y556501D01*
X100091Y555925D01*
X101595D01*
X102984Y556501D01*
X104048Y557564D01*
X104623Y558953D01*
Y560457D01*
X104048Y561846D01*
X102984Y562910D01*
X101595Y563485D01*
D02*
G37*
G36*
X218430Y562834D02*
X216926D01*
X215537Y562258D01*
X214473Y561195D01*
X213898Y559806D01*
Y558302D01*
X214473Y556913D01*
X215537Y555849D01*
X216926Y555274D01*
X218430D01*
X219819Y555849D01*
X220882Y556913D01*
X221458Y558302D01*
Y559806D01*
X220882Y561195D01*
X219819Y562258D01*
X218430Y562834D01*
D02*
G37*
G36*
X335524Y562580D02*
X334020D01*
X332631Y562005D01*
X331567Y560941D01*
X330992Y559552D01*
Y558048D01*
X331567Y556659D01*
X332631Y555596D01*
X334020Y555020D01*
X335524D01*
X336913Y555596D01*
X337976Y556659D01*
X338552Y558048D01*
Y559552D01*
X337976Y560941D01*
X336913Y562005D01*
X335524Y562580D01*
D02*
G37*
G36*
X452110Y562072D02*
X450606D01*
X449217Y561497D01*
X448153Y560433D01*
X447578Y559044D01*
Y557540D01*
X448153Y556151D01*
X449217Y555088D01*
X450606Y554512D01*
X452110D01*
X453499Y555088D01*
X454562Y556151D01*
X455138Y557540D01*
Y559044D01*
X454562Y560433D01*
X453499Y561497D01*
X452110Y562072D01*
D02*
G37*
G36*
X57061Y551365D02*
X55557D01*
X54168Y550790D01*
X53104Y549727D01*
X52529Y548337D01*
Y546834D01*
X53104Y545444D01*
X54168Y544381D01*
X55557Y543805D01*
X57061D01*
X58450Y544381D01*
X59514Y545444D01*
X60089Y546834D01*
Y548337D01*
X59514Y549727D01*
X58450Y550790D01*
X57061Y551365D01*
D02*
G37*
G36*
X45768D02*
X44264D01*
X42875Y550790D01*
X41812Y549727D01*
X41236Y548337D01*
Y546834D01*
X41812Y545444D01*
X42875Y544381D01*
X44264Y543805D01*
X45768D01*
X47158Y544381D01*
X48221Y545444D01*
X48796Y546834D01*
Y548337D01*
X48221Y549727D01*
X47158Y550790D01*
X45768Y551365D01*
D02*
G37*
G36*
X499405Y550642D02*
X497901D01*
X496511Y550067D01*
X495448Y549003D01*
X494873Y547614D01*
Y546110D01*
X495448Y544721D01*
X496511Y543658D01*
X497901Y543082D01*
X499405D01*
X500794Y543658D01*
X501857Y544721D01*
X502433Y546110D01*
Y547614D01*
X501857Y549003D01*
X500794Y550067D01*
X499405Y550642D01*
D02*
G37*
G36*
X489236D02*
X487733D01*
X486343Y550067D01*
X485280Y549003D01*
X484704Y547614D01*
Y546110D01*
X485280Y544721D01*
X486343Y543658D01*
X487733Y543082D01*
X489236D01*
X490626Y543658D01*
X491689Y544721D01*
X492264Y546110D01*
Y547614D01*
X491689Y549003D01*
X490626Y550067D01*
X489236Y550642D01*
D02*
G37*
G36*
X479068D02*
X477564D01*
X476175Y550067D01*
X475112Y549003D01*
X474536Y547614D01*
Y546110D01*
X475112Y544721D01*
X476175Y543658D01*
X477564Y543082D01*
X479068D01*
X480457Y543658D01*
X481521Y544721D01*
X482096Y546110D01*
Y547614D01*
X481521Y549003D01*
X480457Y550067D01*
X479068Y550642D01*
D02*
G37*
G36*
X409577D02*
X408073D01*
X406684Y550067D01*
X405620Y549003D01*
X405045Y547614D01*
Y546110D01*
X405620Y544721D01*
X406684Y543658D01*
X408073Y543082D01*
X409577D01*
X410966Y543658D01*
X412030Y544721D01*
X412605Y546110D01*
Y547614D01*
X412030Y549003D01*
X410966Y550067D01*
X409577Y550642D01*
D02*
G37*
G36*
X399028D02*
X397524D01*
X396134Y550067D01*
X395071Y549003D01*
X394496Y547614D01*
Y546110D01*
X395071Y544721D01*
X396134Y543658D01*
X397524Y543082D01*
X399028D01*
X400417Y543658D01*
X401480Y544721D01*
X402056Y546110D01*
Y547614D01*
X401480Y549003D01*
X400417Y550067D01*
X399028Y550642D01*
D02*
G37*
G36*
X388478D02*
X386974D01*
X385585Y550067D01*
X384522Y549003D01*
X383946Y547614D01*
Y546110D01*
X384522Y544721D01*
X385585Y543658D01*
X386974Y543082D01*
X388478D01*
X389868Y543658D01*
X390931Y544721D01*
X391506Y546110D01*
Y547614D01*
X390931Y549003D01*
X389868Y550067D01*
X388478Y550642D01*
D02*
G37*
G36*
X377929D02*
X376425D01*
X375036Y550067D01*
X373973Y549003D01*
X373397Y547614D01*
Y546110D01*
X373973Y544721D01*
X375036Y543658D01*
X376425Y543082D01*
X377929D01*
X379318Y543658D01*
X380382Y544721D01*
X380957Y546110D01*
Y547614D01*
X380382Y549003D01*
X379318Y550067D01*
X377929Y550642D01*
D02*
G37*
G36*
X367380D02*
X365876D01*
X364487Y550067D01*
X363423Y549003D01*
X362848Y547614D01*
Y546110D01*
X363423Y544721D01*
X364487Y543658D01*
X365876Y543082D01*
X367380D01*
X368769Y543658D01*
X369832Y544721D01*
X370408Y546110D01*
Y547614D01*
X369832Y549003D01*
X368769Y550067D01*
X367380Y550642D01*
D02*
G37*
G36*
X356830D02*
X355327D01*
X353937Y550067D01*
X352874Y549003D01*
X352299Y547614D01*
Y546110D01*
X352874Y544721D01*
X353937Y543658D01*
X355327Y543082D01*
X356830D01*
X358220Y543658D01*
X359283Y544721D01*
X359859Y546110D01*
Y547614D01*
X359283Y549003D01*
X358220Y550067D01*
X356830Y550642D01*
D02*
G37*
G36*
X293008D02*
X291505D01*
X290115Y550067D01*
X289052Y549003D01*
X288477Y547614D01*
Y546110D01*
X289052Y544721D01*
X290115Y543658D01*
X291505Y543082D01*
X293008D01*
X294398Y543658D01*
X295461Y544721D01*
X296036Y546110D01*
Y547614D01*
X295461Y549003D01*
X294398Y550067D01*
X293008Y550642D01*
D02*
G37*
G36*
X282459D02*
X280955D01*
X279566Y550067D01*
X278503Y549003D01*
X277927Y547614D01*
Y546110D01*
X278503Y544721D01*
X279566Y543658D01*
X280955Y543082D01*
X282459D01*
X283848Y543658D01*
X284912Y544721D01*
X285487Y546110D01*
Y547614D01*
X284912Y549003D01*
X283848Y550067D01*
X282459Y550642D01*
D02*
G37*
G36*
X271910D02*
X270406D01*
X269017Y550067D01*
X267953Y549003D01*
X267378Y547614D01*
Y546110D01*
X267953Y544721D01*
X269017Y543658D01*
X270406Y543082D01*
X271910D01*
X273299Y543658D01*
X274362Y544721D01*
X274938Y546110D01*
Y547614D01*
X274362Y549003D01*
X273299Y550067D01*
X271910Y550642D01*
D02*
G37*
G36*
X261360D02*
X259857D01*
X258467Y550067D01*
X257404Y549003D01*
X256829Y547614D01*
Y546110D01*
X257404Y544721D01*
X258467Y543658D01*
X259857Y543082D01*
X261360D01*
X262750Y543658D01*
X263813Y544721D01*
X264389Y546110D01*
Y547614D01*
X263813Y549003D01*
X262750Y550067D01*
X261360Y550642D01*
D02*
G37*
G36*
X250811D02*
X249307D01*
X247918Y550067D01*
X246855Y549003D01*
X246279Y547614D01*
Y546110D01*
X246855Y544721D01*
X247918Y543658D01*
X249307Y543082D01*
X250811D01*
X252201Y543658D01*
X253264Y544721D01*
X253839Y546110D01*
Y547614D01*
X253264Y549003D01*
X252201Y550067D01*
X250811Y550642D01*
D02*
G37*
G36*
X240262D02*
X238758D01*
X237369Y550067D01*
X236305Y549003D01*
X235730Y547614D01*
Y546110D01*
X236305Y544721D01*
X237369Y543658D01*
X238758Y543082D01*
X240262D01*
X241651Y543658D01*
X242715Y544721D01*
X243290Y546110D01*
Y547614D01*
X242715Y549003D01*
X241651Y550067D01*
X240262Y550642D01*
D02*
G37*
G36*
X176440D02*
X174936D01*
X173547Y550067D01*
X172484Y549003D01*
X171908Y547614D01*
Y546110D01*
X172484Y544721D01*
X173547Y543658D01*
X174936Y543082D01*
X176440D01*
X177829Y543658D01*
X178893Y544721D01*
X179468Y546110D01*
Y547614D01*
X178893Y549003D01*
X177829Y550067D01*
X176440Y550642D01*
D02*
G37*
G36*
X165891D02*
X164387D01*
X162997Y550067D01*
X161934Y549003D01*
X161359Y547614D01*
Y546110D01*
X161934Y544721D01*
X162997Y543658D01*
X164387Y543082D01*
X165891D01*
X167280Y543658D01*
X168343Y544721D01*
X168919Y546110D01*
Y547614D01*
X168343Y549003D01*
X167280Y550067D01*
X165891Y550642D01*
D02*
G37*
G36*
X155341D02*
X153837D01*
X152448Y550067D01*
X151385Y549003D01*
X150809Y547614D01*
Y546110D01*
X151385Y544721D01*
X152448Y543658D01*
X153837Y543082D01*
X155341D01*
X156731Y543658D01*
X157794Y544721D01*
X158369Y546110D01*
Y547614D01*
X157794Y549003D01*
X156731Y550067D01*
X155341Y550642D01*
D02*
G37*
G36*
X144792D02*
X143288D01*
X141899Y550067D01*
X140836Y549003D01*
X140260Y547614D01*
Y546110D01*
X140836Y544721D01*
X141899Y543658D01*
X143288Y543082D01*
X144792D01*
X146181Y543658D01*
X147245Y544721D01*
X147820Y546110D01*
Y547614D01*
X147245Y549003D01*
X146181Y550067D01*
X144792Y550642D01*
D02*
G37*
G36*
X134243D02*
X132739D01*
X131350Y550067D01*
X130286Y549003D01*
X129711Y547614D01*
Y546110D01*
X130286Y544721D01*
X131350Y543658D01*
X132739Y543082D01*
X134243D01*
X135632Y543658D01*
X136695Y544721D01*
X137271Y546110D01*
Y547614D01*
X136695Y549003D01*
X135632Y550067D01*
X134243Y550642D01*
D02*
G37*
G36*
X123693D02*
X122190D01*
X120800Y550067D01*
X119737Y549003D01*
X119162Y547614D01*
Y546110D01*
X119737Y544721D01*
X120800Y543658D01*
X122190Y543082D01*
X123693D01*
X125083Y543658D01*
X126146Y544721D01*
X126721Y546110D01*
Y547614D01*
X126146Y549003D01*
X125083Y550067D01*
X123693Y550642D01*
D02*
G37*
G36*
X548064Y550095D02*
X546561D01*
X545171Y549520D01*
X544108Y548457D01*
X543533Y547067D01*
Y545564D01*
X544108Y544174D01*
X545171Y543111D01*
X546561Y542535D01*
X548064D01*
X549454Y543111D01*
X550517Y544174D01*
X551093Y545564D01*
Y547067D01*
X550517Y548457D01*
X549454Y549520D01*
X548064Y550095D01*
D02*
G37*
G36*
X671096Y549469D02*
X669592D01*
X668203Y548894D01*
X667140Y547830D01*
X666564Y546441D01*
Y544937D01*
X667140Y543548D01*
X668203Y542484D01*
X669592Y541909D01*
X671096D01*
X672485Y542484D01*
X673549Y543548D01*
X674124Y544937D01*
Y546441D01*
X673549Y547830D01*
X672485Y548894D01*
X671096Y549469D01*
D02*
G37*
G36*
X188082Y542075D02*
X186579D01*
X185189Y541499D01*
X184126Y540436D01*
X183550Y539047D01*
Y537543D01*
X184126Y536153D01*
X185189Y535090D01*
X186579Y534515D01*
X188082D01*
X189472Y535090D01*
X190535Y536153D01*
X191110Y537543D01*
Y539047D01*
X190535Y540436D01*
X189472Y541499D01*
X188082Y542075D01*
D02*
G37*
G36*
X171177Y540994D02*
X169673D01*
X168284Y540418D01*
X167220Y539355D01*
X166645Y537966D01*
Y536462D01*
X167220Y535073D01*
X168284Y534009D01*
X169673Y533434D01*
X171177D01*
X172566Y534009D01*
X173629Y535073D01*
X174205Y536462D01*
Y537966D01*
X173629Y539355D01*
X172566Y540418D01*
X171177Y540994D01*
D02*
G37*
G36*
X54400Y540546D02*
X52896D01*
X51507Y539971D01*
X50444Y538907D01*
X49868Y537518D01*
Y536014D01*
X50444Y534625D01*
X51507Y533561D01*
X52896Y532986D01*
X54400D01*
X55790Y533561D01*
X56853Y534625D01*
X57428Y536014D01*
Y537518D01*
X56853Y538907D01*
X55790Y539971D01*
X54400Y540546D01*
D02*
G37*
G36*
X287908Y540513D02*
X286404D01*
X285014Y539938D01*
X283951Y538875D01*
X283376Y537485D01*
Y535981D01*
X283951Y534592D01*
X285014Y533529D01*
X286404Y532953D01*
X287908D01*
X289297Y533529D01*
X290360Y534592D01*
X290936Y535981D01*
Y537485D01*
X290360Y538875D01*
X289297Y539938D01*
X287908Y540513D01*
D02*
G37*
G36*
X404671Y540280D02*
X403167D01*
X401778Y539704D01*
X400715Y538641D01*
X400139Y537252D01*
Y535748D01*
X400715Y534358D01*
X401778Y533295D01*
X403167Y532720D01*
X404671D01*
X406061Y533295D01*
X407124Y534358D01*
X407699Y535748D01*
Y537252D01*
X407124Y538641D01*
X406061Y539704D01*
X404671Y540280D01*
D02*
G37*
G36*
X196151Y537191D02*
X194648D01*
X193258Y536615D01*
X192195Y535552D01*
X191619Y534163D01*
Y532659D01*
X192195Y531269D01*
X193258Y530206D01*
X194648Y529631D01*
X196151D01*
X197541Y530206D01*
X198604Y531269D01*
X199179Y532659D01*
Y534163D01*
X198604Y535552D01*
X197541Y536615D01*
X196151Y537191D01*
D02*
G37*
G36*
X419227Y542029D02*
X417723D01*
X416334Y541453D01*
X415271Y540390D01*
X414695Y539001D01*
Y537497D01*
X415271Y536107D01*
X416334Y535044D01*
X417723Y534469D01*
X419227D01*
X420336Y534928D01*
X419988Y534089D01*
Y532585D01*
X420563Y531196D01*
X421627Y530132D01*
X423016Y529557D01*
X424520D01*
X425909Y530132D01*
X426973Y531196D01*
X427548Y532585D01*
Y534089D01*
X426973Y535478D01*
X425909Y536541D01*
X424520Y537117D01*
X423016D01*
X421908Y536658D01*
X422255Y537497D01*
Y539001D01*
X421680Y540390D01*
X420616Y541453D01*
X419227Y542029D01*
D02*
G37*
G36*
X303898Y541943D02*
X302395D01*
X301005Y541367D01*
X299942Y540304D01*
X299366Y538915D01*
Y537411D01*
X299942Y536022D01*
X301005Y534958D01*
X302395Y534383D01*
X303541D01*
X303419Y534089D01*
Y532585D01*
X303995Y531196D01*
X305058Y530132D01*
X306448Y529557D01*
X307951D01*
X309341Y530132D01*
X310404Y531196D01*
X310979Y532585D01*
Y534089D01*
X310404Y535478D01*
X309341Y536541D01*
X307951Y537117D01*
X306805D01*
X306926Y537411D01*
Y538915D01*
X306351Y540304D01*
X305288Y541367D01*
X303898Y541943D01*
D02*
G37*
G36*
X70019Y542040D02*
X68515D01*
X67126Y541465D01*
X66062Y540401D01*
X65487Y539012D01*
Y537508D01*
X66062Y536119D01*
X67126Y535056D01*
X68515Y534480D01*
X70019D01*
X70533Y534693D01*
X70283Y534089D01*
Y532585D01*
X70858Y531196D01*
X71921Y530132D01*
X73311Y529557D01*
X74814D01*
X76204Y530132D01*
X77267Y531196D01*
X77842Y532585D01*
Y534089D01*
X77267Y535478D01*
X76204Y536541D01*
X74814Y537117D01*
X73311D01*
X72797Y536904D01*
X73047Y537508D01*
Y539012D01*
X72471Y540401D01*
X71408Y541465D01*
X70019Y542040D01*
D02*
G37*
G36*
X450709Y535614D02*
X449205D01*
X447816Y535039D01*
X446752Y533976D01*
X446177Y532586D01*
Y531082D01*
X446752Y529693D01*
X447816Y528630D01*
X449205Y528054D01*
X450709D01*
X452098Y528630D01*
X453162Y529693D01*
X453737Y531082D01*
Y532586D01*
X453162Y533976D01*
X452098Y535039D01*
X450709Y535614D01*
D02*
G37*
G36*
X441209D02*
X439705D01*
X438316Y535039D01*
X437253Y533976D01*
X436677Y532586D01*
Y531082D01*
X437253Y529693D01*
X438316Y528630D01*
X439705Y528054D01*
X441209D01*
X442598Y528630D01*
X443662Y529693D01*
X444237Y531082D01*
Y532586D01*
X443662Y533976D01*
X442598Y535039D01*
X441209Y535614D01*
D02*
G37*
G36*
X334140D02*
X332637D01*
X331247Y535039D01*
X330184Y533976D01*
X329608Y532586D01*
Y531082D01*
X330184Y529693D01*
X331247Y528630D01*
X332637Y528054D01*
X334140D01*
X335530Y528630D01*
X336593Y529693D01*
X337169Y531082D01*
Y532586D01*
X336593Y533976D01*
X335530Y535039D01*
X334140Y535614D01*
D02*
G37*
G36*
X324641D02*
X323137D01*
X321748Y535039D01*
X320684Y533976D01*
X320109Y532586D01*
Y531082D01*
X320684Y529693D01*
X321748Y528630D01*
X323137Y528054D01*
X324641D01*
X326030Y528630D01*
X327093Y529693D01*
X327669Y531082D01*
Y532586D01*
X327093Y533976D01*
X326030Y535039D01*
X324641Y535614D01*
D02*
G37*
G36*
X217572D02*
X216068D01*
X214679Y535039D01*
X213615Y533976D01*
X213040Y532586D01*
Y531082D01*
X213615Y529693D01*
X214679Y528630D01*
X216068Y528054D01*
X217572D01*
X218961Y528630D01*
X220025Y529693D01*
X220600Y531082D01*
Y532586D01*
X220025Y533976D01*
X218961Y535039D01*
X217572Y535614D01*
D02*
G37*
G36*
X208072D02*
X206568D01*
X205179Y535039D01*
X204116Y533976D01*
X203540Y532586D01*
Y531082D01*
X204116Y529693D01*
X205179Y528630D01*
X206568Y528054D01*
X208072D01*
X209461Y528630D01*
X210525Y529693D01*
X211100Y531082D01*
Y532586D01*
X210525Y533976D01*
X209461Y535039D01*
X208072Y535614D01*
D02*
G37*
G36*
X101003D02*
X99500D01*
X98110Y535039D01*
X97047Y533976D01*
X96472Y532586D01*
Y531082D01*
X97047Y529693D01*
X98110Y528630D01*
X99500Y528054D01*
X101003D01*
X102393Y528630D01*
X103456Y529693D01*
X104031Y531082D01*
Y532586D01*
X103456Y533976D01*
X102393Y535039D01*
X101003Y535614D01*
D02*
G37*
G36*
X91504D02*
X90000D01*
X88610Y535039D01*
X87547Y533976D01*
X86972Y532586D01*
Y531082D01*
X87547Y529693D01*
X88610Y528630D01*
X90000Y528054D01*
X91504D01*
X92893Y528630D01*
X93956Y529693D01*
X94532Y531082D01*
Y532586D01*
X93956Y533976D01*
X92893Y535039D01*
X91504Y535614D01*
D02*
G37*
G36*
X489543Y524697D02*
X488039D01*
X486650Y524121D01*
X485587Y523058D01*
X485011Y521669D01*
Y520165D01*
X485587Y518775D01*
X486650Y517712D01*
X488039Y517137D01*
X489543D01*
X490932Y517712D01*
X491996Y518775D01*
X492571Y520165D01*
Y521669D01*
X491996Y523058D01*
X490932Y524121D01*
X489543Y524697D01*
D02*
G37*
G36*
X259872Y521233D02*
X258368D01*
X256979Y520657D01*
X255915Y519594D01*
X255340Y518205D01*
Y516701D01*
X255915Y515312D01*
X256979Y514248D01*
X258368Y513673D01*
X259872D01*
X261261Y514248D01*
X262324Y515312D01*
X262900Y516701D01*
Y518205D01*
X262324Y519594D01*
X261261Y520657D01*
X259872Y521233D01*
D02*
G37*
G36*
X326877Y519761D02*
X325373D01*
X323984Y519185D01*
X322921Y518122D01*
X322345Y516732D01*
Y515229D01*
X322921Y513839D01*
X323984Y512776D01*
X325373Y512201D01*
X326877D01*
X328266Y512776D01*
X329330Y513839D01*
X329905Y515229D01*
Y516732D01*
X329330Y518122D01*
X328266Y519185D01*
X326877Y519761D01*
D02*
G37*
G36*
X210309D02*
X208805D01*
X207416Y519185D01*
X206352Y518122D01*
X205777Y516732D01*
Y515229D01*
X206352Y513839D01*
X207416Y512776D01*
X208805Y512201D01*
X210309D01*
X211698Y512776D01*
X212761Y513839D01*
X213337Y515229D01*
Y516732D01*
X212761Y518122D01*
X211698Y519185D01*
X210309Y519761D01*
D02*
G37*
G36*
X93740D02*
X92236D01*
X90847Y519185D01*
X89784Y518122D01*
X89208Y516732D01*
Y515229D01*
X89784Y513839D01*
X90847Y512776D01*
X92236Y512201D01*
X93740D01*
X95129Y512776D01*
X96193Y513839D01*
X96768Y515229D01*
Y516732D01*
X96193Y518122D01*
X95129Y519185D01*
X93740Y519761D01*
D02*
G37*
G36*
X453832Y518629D02*
X452328D01*
X450939Y518054D01*
X449876Y516990D01*
X449300Y515601D01*
Y514097D01*
X449876Y512708D01*
X450939Y511645D01*
X452328Y511069D01*
X453832D01*
X455221Y511645D01*
X456285Y512708D01*
X456860Y514097D01*
Y515601D01*
X456285Y516990D01*
X455221Y518054D01*
X453832Y518629D01*
D02*
G37*
G36*
X336788Y517519D02*
X335285D01*
X333895Y516944D01*
X332832Y515880D01*
X332256Y514491D01*
Y512987D01*
X332832Y511598D01*
X333895Y510535D01*
X335285Y509959D01*
X336788D01*
X338178Y510535D01*
X339241Y511598D01*
X339816Y512987D01*
Y514491D01*
X339241Y515880D01*
X338178Y516944D01*
X336788Y517519D01*
D02*
G37*
G36*
X220220D02*
X218716D01*
X217327Y516944D01*
X216263Y515880D01*
X215688Y514491D01*
Y512987D01*
X216263Y511598D01*
X217327Y510535D01*
X218716Y509959D01*
X220220D01*
X221609Y510535D01*
X222672Y511598D01*
X223248Y512987D01*
Y514491D01*
X222672Y515880D01*
X221609Y516944D01*
X220220Y517519D01*
D02*
G37*
G36*
X103651D02*
X102148D01*
X100758Y516944D01*
X99695Y515880D01*
X99119Y514491D01*
Y512987D01*
X99695Y511598D01*
X100758Y510535D01*
X102148Y509959D01*
X103651D01*
X105041Y510535D01*
X106104Y511598D01*
X106679Y512987D01*
Y514491D01*
X106104Y515880D01*
X105041Y516944D01*
X103651Y517519D01*
D02*
G37*
G36*
X380580Y517183D02*
X379076D01*
X377687Y516607D01*
X376624Y515544D01*
X376048Y514154D01*
Y512651D01*
X376624Y511261D01*
X377687Y510198D01*
X379076Y509622D01*
X380580D01*
X381969Y510198D01*
X383033Y511261D01*
X383608Y512651D01*
Y514154D01*
X383033Y515544D01*
X381969Y516607D01*
X380580Y517183D01*
D02*
G37*
G36*
X147443D02*
X145939D01*
X144550Y516607D01*
X143487Y515544D01*
X142911Y514154D01*
Y512651D01*
X143487Y511261D01*
X144550Y510198D01*
X145939Y509622D01*
X147443D01*
X148833Y510198D01*
X149896Y511261D01*
X150471Y512651D01*
Y514154D01*
X149896Y515544D01*
X148833Y516607D01*
X147443Y517183D01*
D02*
G37*
G36*
X231259Y515417D02*
X229755D01*
X228366Y514842D01*
X227302Y513778D01*
X226727Y512389D01*
Y510885D01*
X227302Y509496D01*
X228366Y508433D01*
X229755Y507857D01*
X231259D01*
X232648Y508433D01*
X233711Y509496D01*
X234287Y510885D01*
Y512389D01*
X233711Y513778D01*
X232648Y514842D01*
X231259Y515417D01*
D02*
G37*
G36*
X83132Y513327D02*
X81629D01*
X80239Y512752D01*
X79176Y511689D01*
X78601Y510299D01*
Y508796D01*
X79176Y507406D01*
X80239Y506343D01*
X81629Y505768D01*
X83132D01*
X84522Y506343D01*
X85585Y507406D01*
X86161Y508796D01*
Y510299D01*
X85585Y511689D01*
X84522Y512752D01*
X83132Y513327D01*
D02*
G37*
G36*
X349297Y513047D02*
X347793D01*
X346404Y512472D01*
X345340Y511409D01*
X344765Y510019D01*
Y508516D01*
X345340Y507126D01*
X346404Y506063D01*
X347793Y505487D01*
X349297D01*
X350686Y506063D01*
X351750Y507126D01*
X352325Y508516D01*
Y510019D01*
X351750Y511409D01*
X350686Y512472D01*
X349297Y513047D01*
D02*
G37*
G36*
X116160D02*
X114656D01*
X113267Y512472D01*
X112204Y511409D01*
X111628Y510019D01*
Y508516D01*
X112204Y507126D01*
X113267Y506063D01*
X114656Y505487D01*
X116160D01*
X117549Y506063D01*
X118613Y507126D01*
X119188Y508516D01*
Y510019D01*
X118613Y511409D01*
X117549Y512472D01*
X116160Y513047D01*
D02*
G37*
G36*
X193590Y512457D02*
X192086D01*
X190697Y511882D01*
X189634Y510818D01*
X189058Y509429D01*
Y507925D01*
X189634Y506536D01*
X190697Y505473D01*
X192086Y504897D01*
X193590D01*
X194979Y505473D01*
X196043Y506536D01*
X196618Y507925D01*
Y509429D01*
X196043Y510818D01*
X194979Y511882D01*
X193590Y512457D01*
D02*
G37*
G36*
X448467Y511218D02*
X446963D01*
X445574Y510643D01*
X444510Y509579D01*
X443935Y508190D01*
Y506686D01*
X444510Y505297D01*
X445574Y504234D01*
X446963Y503658D01*
X448467D01*
X449856Y504234D01*
X450919Y505297D01*
X451495Y506686D01*
Y508190D01*
X450919Y509579D01*
X449856Y510643D01*
X448467Y511218D01*
D02*
G37*
G36*
X317847Y509712D02*
X316344D01*
X314954Y509136D01*
X313891Y508073D01*
X313316Y506684D01*
Y505180D01*
X313891Y503791D01*
X314954Y502727D01*
X316344Y502152D01*
X317847D01*
X319237Y502727D01*
X320300Y503791D01*
X320876Y505180D01*
Y506684D01*
X320300Y508073D01*
X319237Y509136D01*
X317847Y509712D01*
D02*
G37*
G36*
X443275Y503716D02*
X441771D01*
X440382Y503141D01*
X439319Y502078D01*
X438743Y500688D01*
Y499184D01*
X439319Y497795D01*
X440382Y496732D01*
X441771Y496156D01*
X443275D01*
X444664Y496732D01*
X445728Y497795D01*
X446303Y499184D01*
Y500688D01*
X445728Y502078D01*
X444664Y503141D01*
X443275Y503716D01*
D02*
G37*
G36*
X428742Y502636D02*
X427238D01*
X425849Y502061D01*
X424785Y500997D01*
X424210Y499608D01*
Y498104D01*
X424785Y496715D01*
X425849Y495652D01*
X427238Y495076D01*
X428742D01*
X430131Y495652D01*
X431194Y496715D01*
X431770Y498104D01*
Y499608D01*
X431194Y500997D01*
X430131Y502061D01*
X428742Y502636D01*
D02*
G37*
G36*
X458735Y500229D02*
X457231D01*
X455841Y499653D01*
X454778Y498590D01*
X454203Y497201D01*
Y495697D01*
X454778Y494308D01*
X455841Y493244D01*
X457231Y492669D01*
X458735D01*
X460124Y493244D01*
X461187Y494308D01*
X461763Y495697D01*
Y497201D01*
X461187Y498590D01*
X460124Y499653D01*
X458735Y500229D01*
D02*
G37*
G36*
X239766Y490982D02*
X238262D01*
X236873Y490406D01*
X235809Y489343D01*
X235234Y487954D01*
Y486450D01*
X235809Y485061D01*
X236873Y483997D01*
X238262Y483422D01*
X239766D01*
X241155Y483997D01*
X242218Y485061D01*
X242794Y486450D01*
Y487954D01*
X242218Y489343D01*
X241155Y490406D01*
X239766Y490982D01*
D02*
G37*
G36*
X256641Y488790D02*
X255137D01*
X253748Y488214D01*
X252685Y487151D01*
X252109Y485761D01*
Y484258D01*
X252685Y482868D01*
X253748Y481805D01*
X255137Y481230D01*
X256641D01*
X258030Y481805D01*
X259094Y482868D01*
X259669Y484258D01*
Y485761D01*
X259094Y487151D01*
X258030Y488214D01*
X256641Y488790D01*
D02*
G37*
G36*
X333584Y488744D02*
X332080D01*
X330690Y488168D01*
X329627Y487105D01*
X329052Y485716D01*
Y484212D01*
X329627Y482823D01*
X330690Y481759D01*
X332080Y481184D01*
X333584D01*
X334973Y481759D01*
X336036Y482823D01*
X336612Y484212D01*
Y485716D01*
X336036Y487105D01*
X334973Y488168D01*
X333584Y488744D01*
D02*
G37*
G36*
X314422D02*
X312918D01*
X311528Y488168D01*
X310465Y487105D01*
X309890Y485716D01*
Y484212D01*
X310465Y482823D01*
X311528Y481759D01*
X312918Y481184D01*
X314422D01*
X315811Y481759D01*
X316874Y482823D01*
X317450Y484212D01*
Y485716D01*
X316874Y487105D01*
X315811Y488168D01*
X314422Y488744D01*
D02*
G37*
G36*
X295884D02*
X294380D01*
X292991Y488168D01*
X291928Y487105D01*
X291352Y485716D01*
Y484212D01*
X291928Y482823D01*
X292991Y481759D01*
X294380Y481184D01*
X295884D01*
X297274Y481759D01*
X298337Y482823D01*
X298912Y484212D01*
Y485716D01*
X298337Y487105D01*
X297274Y488168D01*
X295884Y488744D01*
D02*
G37*
G36*
X277347D02*
X275843D01*
X274454Y488168D01*
X273391Y487105D01*
X272815Y485716D01*
Y484212D01*
X273391Y482823D01*
X274454Y481759D01*
X275843Y481184D01*
X277347D01*
X278736Y481759D01*
X279800Y482823D01*
X280375Y484212D01*
Y485716D01*
X279800Y487105D01*
X278736Y488168D01*
X277347Y488744D01*
D02*
G37*
G36*
X382880Y488604D02*
X381376D01*
X379987Y488029D01*
X378924Y486965D01*
X378348Y485576D01*
Y484072D01*
X378924Y482683D01*
X379987Y481620D01*
X381376Y481044D01*
X382880D01*
X384270Y481620D01*
X385333Y482683D01*
X385908Y484072D01*
Y485576D01*
X385333Y486965D01*
X384270Y488029D01*
X382880Y488604D01*
D02*
G37*
G36*
X368423D02*
X366919D01*
X365530Y488029D01*
X364466Y486965D01*
X363891Y485576D01*
Y484072D01*
X364466Y482683D01*
X365530Y481620D01*
X366919Y481044D01*
X368423D01*
X369812Y481620D01*
X370875Y482683D01*
X371451Y484072D01*
Y485576D01*
X370875Y486965D01*
X369812Y488029D01*
X368423Y488604D01*
D02*
G37*
G36*
X351947Y488055D02*
X350443D01*
X349054Y487479D01*
X347991Y486416D01*
X347415Y485026D01*
Y483523D01*
X347991Y482133D01*
X349054Y481070D01*
X350443Y480494D01*
X351947D01*
X353336Y481070D01*
X354400Y482133D01*
X354975Y483523D01*
Y485026D01*
X354400Y486416D01*
X353336Y487479D01*
X351947Y488055D01*
D02*
G37*
G36*
X438171Y487188D02*
X436667D01*
X435277Y486612D01*
X434214Y485549D01*
X433639Y484160D01*
Y482656D01*
X434214Y481267D01*
X435277Y480203D01*
X436667Y479628D01*
X438171D01*
X439560Y480203D01*
X440623Y481267D01*
X441199Y482656D01*
Y484160D01*
X440623Y485549D01*
X439560Y486612D01*
X438171Y487188D01*
D02*
G37*
G36*
X423553Y486869D02*
X422049D01*
X420660Y486294D01*
X419596Y485230D01*
X419021Y483841D01*
Y482337D01*
X419596Y480948D01*
X420660Y479885D01*
X422049Y479309D01*
X423553D01*
X424942Y479885D01*
X426006Y480948D01*
X426581Y482337D01*
Y483841D01*
X426006Y485230D01*
X424942Y486294D01*
X423553Y486869D01*
D02*
G37*
G36*
X286524Y480694D02*
X285021D01*
X283631Y480119D01*
X282568Y479055D01*
X281992Y477666D01*
Y476162D01*
X282568Y474773D01*
X283631Y473710D01*
X285021Y473134D01*
X286524D01*
X287914Y473710D01*
X288977Y474773D01*
X289552Y476162D01*
Y477666D01*
X288977Y479055D01*
X287914Y480119D01*
X286524Y480694D01*
D02*
G37*
G36*
X528447Y479162D02*
X526944D01*
X525554Y478587D01*
X524491Y477523D01*
X523916Y476134D01*
Y474630D01*
X524491Y473241D01*
X525554Y472178D01*
X526944Y471602D01*
X528447D01*
X529837Y472178D01*
X530900Y473241D01*
X531476Y474630D01*
Y476134D01*
X530900Y477523D01*
X529837Y478587D01*
X528447Y479162D01*
D02*
G37*
G36*
X414812Y478708D02*
X413309D01*
X411919Y478133D01*
X410856Y477069D01*
X410280Y475680D01*
Y474176D01*
X410856Y472787D01*
X411919Y471724D01*
X413309Y471148D01*
X414812D01*
X416202Y471724D01*
X417265Y472787D01*
X417840Y474176D01*
Y475680D01*
X417265Y477069D01*
X416202Y478133D01*
X414812Y478708D01*
D02*
G37*
G36*
X185918Y469870D02*
X184414D01*
X183025Y469295D01*
X181961Y468231D01*
X181386Y466842D01*
Y465338D01*
X181961Y463949D01*
X183025Y462886D01*
X184414Y462310D01*
X185918D01*
X187307Y462886D01*
X188370Y463949D01*
X188946Y465338D01*
Y466842D01*
X188370Y468231D01*
X187307Y469295D01*
X185918Y469870D01*
D02*
G37*
G36*
X485647Y468919D02*
X484143D01*
X482754Y468343D01*
X481690Y467280D01*
X481115Y465891D01*
Y464387D01*
X481690Y462997D01*
X482754Y461934D01*
X484143Y461359D01*
X485647D01*
X487036Y461934D01*
X488100Y462997D01*
X488675Y464387D01*
Y465891D01*
X488100Y467280D01*
X487036Y468343D01*
X485647Y468919D01*
D02*
G37*
G36*
X474729Y466113D02*
X473225D01*
X471836Y465538D01*
X470772Y464474D01*
X470197Y463085D01*
Y461581D01*
X470772Y460192D01*
X471836Y459128D01*
X473225Y458553D01*
X474729D01*
X476118Y459128D01*
X477181Y460192D01*
X477757Y461581D01*
Y463085D01*
X477181Y464474D01*
X476118Y465538D01*
X474729Y466113D01*
D02*
G37*
G36*
X267549Y465522D02*
X266045D01*
X264656Y464947D01*
X263592Y463883D01*
X263017Y462494D01*
Y460990D01*
X263592Y459601D01*
X264656Y458538D01*
X266045Y457962D01*
X267549D01*
X268938Y458538D01*
X270001Y459601D01*
X270577Y460990D01*
Y462494D01*
X270001Y463883D01*
X268938Y464947D01*
X267549Y465522D01*
D02*
G37*
G36*
X529072Y464790D02*
X527568D01*
X526179Y464215D01*
X525116Y463151D01*
X524540Y461762D01*
Y460258D01*
X525116Y458869D01*
X526179Y457805D01*
X527568Y457230D01*
X529072D01*
X530461Y457805D01*
X531525Y458869D01*
X532100Y460258D01*
Y461762D01*
X531525Y463151D01*
X530461Y464215D01*
X529072Y464790D01*
D02*
G37*
G36*
X98232Y460980D02*
X96728D01*
X95339Y460405D01*
X94276Y459341D01*
X93700Y457952D01*
Y456448D01*
X94276Y455059D01*
X95339Y453996D01*
X96728Y453420D01*
X98232D01*
X99621Y453996D01*
X100685Y455059D01*
X101260Y456448D01*
Y457952D01*
X100685Y459341D01*
X99621Y460405D01*
X98232Y460980D01*
D02*
G37*
G36*
X88110Y460930D02*
X86606D01*
X85217Y460355D01*
X84153Y459291D01*
X83578Y457902D01*
Y456398D01*
X84153Y455009D01*
X85217Y453946D01*
X86606Y453370D01*
X88110D01*
X89499Y453946D01*
X90562Y455009D01*
X91138Y456398D01*
Y457902D01*
X90562Y459291D01*
X89499Y460355D01*
X88110Y460930D01*
D02*
G37*
G36*
X500996Y459906D02*
X499492D01*
X498103Y459331D01*
X497040Y458268D01*
X496464Y456878D01*
Y455374D01*
X497040Y453985D01*
X498103Y452922D01*
X499492Y452346D01*
X500996D01*
X502385Y452922D01*
X503449Y453985D01*
X504024Y455374D01*
Y456878D01*
X503449Y458268D01*
X502385Y459331D01*
X500996Y459906D01*
D02*
G37*
G36*
X248259Y459259D02*
X246755D01*
X245366Y458684D01*
X244302Y457620D01*
X243727Y456231D01*
Y454727D01*
X244302Y453338D01*
X245366Y452275D01*
X246755Y451699D01*
X248259D01*
X249648Y452275D01*
X250711Y453338D01*
X251287Y454727D01*
Y456231D01*
X250711Y457620D01*
X249648Y458684D01*
X248259Y459259D01*
D02*
G37*
G36*
X489852Y458805D02*
X488349D01*
X486959Y458229D01*
X485896Y457166D01*
X485320Y455777D01*
Y454273D01*
X485896Y452884D01*
X486959Y451820D01*
X488349Y451245D01*
X489852D01*
X491242Y451820D01*
X492305Y452884D01*
X492880Y454273D01*
Y455777D01*
X492305Y457166D01*
X491242Y458229D01*
X489852Y458805D01*
D02*
G37*
G36*
X277653Y457935D02*
X276149D01*
X274760Y457360D01*
X273697Y456296D01*
X273121Y454907D01*
Y453403D01*
X273697Y452014D01*
X274760Y450951D01*
X276149Y450375D01*
X277653D01*
X279042Y450951D01*
X280106Y452014D01*
X280681Y453403D01*
Y454907D01*
X280106Y456296D01*
X279042Y457360D01*
X277653Y457935D01*
D02*
G37*
G36*
X258915D02*
X257411D01*
X256022Y457360D01*
X254959Y456296D01*
X254383Y454907D01*
Y453403D01*
X254959Y452014D01*
X256022Y450951D01*
X257411Y450375D01*
X258915D01*
X260305Y450951D01*
X261368Y452014D01*
X261943Y453403D01*
Y454907D01*
X261368Y456296D01*
X260305Y457360D01*
X258915Y457935D01*
D02*
G37*
G36*
X315129Y457935D02*
X313625D01*
X312236Y457360D01*
X311173Y456296D01*
X310597Y454907D01*
Y453403D01*
X311173Y452014D01*
X312236Y450951D01*
X313625Y450375D01*
X315129D01*
X316518Y450951D01*
X317582Y452014D01*
X318157Y453403D01*
Y454907D01*
X317582Y456296D01*
X316518Y457360D01*
X315129Y457935D01*
D02*
G37*
G36*
X296391D02*
X294887D01*
X293498Y457360D01*
X292435Y456296D01*
X291859Y454907D01*
Y453403D01*
X292435Y452014D01*
X293498Y450951D01*
X294887Y450375D01*
X296391D01*
X297780Y450951D01*
X298844Y452014D01*
X299419Y453403D01*
Y454907D01*
X298844Y456296D01*
X297780Y457360D01*
X296391Y457935D01*
D02*
G37*
G36*
X480288Y456542D02*
X478784D01*
X477395Y455967D01*
X476331Y454903D01*
X475756Y453514D01*
Y452010D01*
X476331Y450621D01*
X477395Y449558D01*
X478784Y448982D01*
X480288D01*
X481677Y449558D01*
X482740Y450621D01*
X483316Y452010D01*
Y453514D01*
X482740Y454903D01*
X481677Y455967D01*
X480288Y456542D01*
D02*
G37*
G36*
X116068Y454884D02*
X114564D01*
X113175Y454309D01*
X112112Y453245D01*
X111536Y451856D01*
Y450352D01*
X112112Y448963D01*
X113175Y447900D01*
X114564Y447324D01*
X116068D01*
X117457Y447900D01*
X118520Y448963D01*
X119096Y450352D01*
Y451856D01*
X118520Y453245D01*
X117457Y454309D01*
X116068Y454884D01*
D02*
G37*
G36*
X53525Y452090D02*
X52021D01*
X50631Y451515D01*
X49568Y450451D01*
X48993Y449062D01*
Y447558D01*
X49568Y446169D01*
X50631Y445106D01*
X52021Y444530D01*
X53525D01*
X54914Y445106D01*
X55977Y446169D01*
X56553Y447558D01*
Y449062D01*
X55977Y450451D01*
X54914Y451515D01*
X53525Y452090D01*
D02*
G37*
G36*
X31022Y451843D02*
X29518D01*
X28129Y451268D01*
X27066Y450205D01*
X26490Y448815D01*
Y447312D01*
X27066Y445922D01*
X28129Y444859D01*
X29518Y444283D01*
X31022D01*
X32411Y444859D01*
X33475Y445922D01*
X34050Y447312D01*
Y448815D01*
X33475Y450205D01*
X32411Y451268D01*
X31022Y451843D01*
D02*
G37*
G36*
X363423Y451836D02*
X361919D01*
X360530Y451260D01*
X359466Y450197D01*
X358891Y448808D01*
Y447304D01*
X359466Y445915D01*
X360530Y444851D01*
X361919Y444276D01*
X363423D01*
X364812Y444851D01*
X365875Y445915D01*
X366451Y447304D01*
Y448808D01*
X365875Y450197D01*
X364812Y451260D01*
X363423Y451836D01*
D02*
G37*
G36*
X424852Y451322D02*
X423348D01*
X421959Y450747D01*
X420895Y449683D01*
X420320Y448294D01*
Y446790D01*
X420895Y445401D01*
X421959Y444338D01*
X423348Y443762D01*
X424852D01*
X426241Y444338D01*
X427304Y445401D01*
X427880Y446790D01*
Y448294D01*
X427304Y449683D01*
X426241Y450747D01*
X424852Y451322D01*
D02*
G37*
G36*
X192301Y450805D02*
X190797D01*
X189408Y450229D01*
X188344Y449166D01*
X187769Y447777D01*
Y446273D01*
X188344Y444884D01*
X189408Y443820D01*
X190797Y443245D01*
X192301D01*
X193690Y443820D01*
X194753Y444884D01*
X195329Y446273D01*
Y447777D01*
X194753Y449166D01*
X193690Y450229D01*
X192301Y450805D01*
D02*
G37*
G36*
X177282Y448280D02*
X175778D01*
X174389Y447705D01*
X173326Y446641D01*
X172750Y445252D01*
Y443748D01*
X173326Y442359D01*
X174389Y441296D01*
X175778Y440720D01*
X177282D01*
X178671Y441296D01*
X179734Y442359D01*
X180310Y443748D01*
Y445252D01*
X179734Y446641D01*
X178671Y447705D01*
X177282Y448280D01*
D02*
G37*
G36*
X402445Y445007D02*
X400941D01*
X399552Y444432D01*
X398489Y443368D01*
X397913Y441979D01*
Y440475D01*
X398489Y439086D01*
X399552Y438023D01*
X400941Y437447D01*
X402445D01*
X403834Y438023D01*
X404898Y439086D01*
X405473Y440475D01*
Y441979D01*
X404898Y443368D01*
X403834Y444432D01*
X402445Y445007D01*
D02*
G37*
G36*
X241247Y442167D02*
X239743D01*
X238354Y441591D01*
X237291Y440528D01*
X236715Y439139D01*
Y437635D01*
X237291Y436246D01*
X238354Y435182D01*
X239743Y434607D01*
X241247D01*
X242637Y435182D01*
X243700Y436246D01*
X244275Y437635D01*
Y439139D01*
X243700Y440528D01*
X242637Y441591D01*
X241247Y442167D01*
D02*
G37*
G36*
X528250Y441730D02*
X526746D01*
X525357Y441154D01*
X524294Y440091D01*
X523718Y438702D01*
Y437198D01*
X524294Y435808D01*
X525357Y434745D01*
X526746Y434170D01*
X528250D01*
X529639Y434745D01*
X530703Y435808D01*
X531278Y437198D01*
Y438702D01*
X530703Y440091D01*
X529639Y441154D01*
X528250Y441730D01*
D02*
G37*
G36*
X53525Y441488D02*
X52021D01*
X50631Y440912D01*
X49568Y439849D01*
X48993Y438459D01*
Y436956D01*
X49568Y435566D01*
X50631Y434503D01*
X52021Y433927D01*
X53525D01*
X54914Y434503D01*
X55977Y435566D01*
X56553Y436956D01*
Y438459D01*
X55977Y439849D01*
X54914Y440912D01*
X53525Y441488D01*
D02*
G37*
G36*
X393494Y440554D02*
X391990D01*
X390601Y439978D01*
X389537Y438915D01*
X388962Y437526D01*
Y436022D01*
X389537Y434633D01*
X390601Y433569D01*
X391990Y432994D01*
X393494D01*
X394883Y433569D01*
X395947Y434633D01*
X396522Y436022D01*
Y437526D01*
X395947Y438915D01*
X394883Y439978D01*
X393494Y440554D01*
D02*
G37*
G36*
X342749Y440081D02*
X341245D01*
X339856Y439505D01*
X338792Y438442D01*
X338217Y437053D01*
Y435549D01*
X338792Y434160D01*
X339856Y433096D01*
X341245Y432521D01*
X342749D01*
X344138Y433096D01*
X345201Y434160D01*
X345777Y435549D01*
Y437053D01*
X345201Y438442D01*
X344138Y439505D01*
X342749Y440081D01*
D02*
G37*
G36*
X120132Y437032D02*
X118628D01*
X117239Y436456D01*
X116175Y435393D01*
X115600Y434004D01*
Y432500D01*
X116175Y431110D01*
X117239Y430047D01*
X118628Y429472D01*
X120132D01*
X121521Y430047D01*
X122584Y431110D01*
X123160Y432500D01*
Y434004D01*
X122584Y435393D01*
X121521Y436456D01*
X120132Y437032D01*
D02*
G37*
G36*
X473492Y434716D02*
X471989D01*
X470599Y434140D01*
X469536Y433077D01*
X468960Y431688D01*
Y430184D01*
X469536Y428794D01*
X470599Y427731D01*
X471989Y427156D01*
X473492D01*
X474882Y427731D01*
X475945Y428794D01*
X476521Y430184D01*
Y431688D01*
X475945Y433077D01*
X474882Y434140D01*
X473492Y434716D01*
D02*
G37*
G36*
X348214Y433910D02*
X346710D01*
X345321Y433335D01*
X344258Y432272D01*
X343682Y430882D01*
Y429379D01*
X344258Y427989D01*
X345321Y426926D01*
X346710Y426350D01*
X348214D01*
X349603Y426926D01*
X350667Y427989D01*
X351242Y429379D01*
Y430882D01*
X350667Y432272D01*
X349603Y433335D01*
X348214Y433910D01*
D02*
G37*
G36*
X394244Y430526D02*
X392741D01*
X391351Y429950D01*
X390288Y428887D01*
X389712Y427497D01*
Y425994D01*
X390288Y424604D01*
X391351Y423541D01*
X392741Y422966D01*
X394244D01*
X395634Y423541D01*
X396697Y424604D01*
X397272Y425994D01*
Y427497D01*
X396697Y428887D01*
X395634Y429950D01*
X394244Y430526D01*
D02*
G37*
G36*
X658612Y430500D02*
X657108D01*
X655719Y429925D01*
X654656Y428861D01*
X654080Y427472D01*
Y425968D01*
X654656Y424579D01*
X655719Y423516D01*
X657108Y422940D01*
X658612D01*
X660001Y423516D01*
X661065Y424579D01*
X661640Y425968D01*
Y427472D01*
X661065Y428861D01*
X660001Y429925D01*
X658612Y430500D01*
D02*
G37*
G36*
X499608Y429829D02*
X498104D01*
X496715Y429254D01*
X495652Y428190D01*
X495076Y426801D01*
Y425297D01*
X495652Y423908D01*
X496715Y422845D01*
X498104Y422269D01*
X499608D01*
X500997Y422845D01*
X502061Y423908D01*
X502636Y425297D01*
Y426801D01*
X502061Y428190D01*
X500997Y429254D01*
X499608Y429829D01*
D02*
G37*
G36*
X120132Y426932D02*
X118628D01*
X117239Y426356D01*
X116175Y425293D01*
X115600Y423904D01*
Y422400D01*
X116175Y421011D01*
X117239Y419947D01*
X118628Y419372D01*
X120132D01*
X121521Y419947D01*
X122584Y421011D01*
X123160Y422400D01*
Y423904D01*
X122584Y425293D01*
X121521Y426356D01*
X120132Y426932D01*
D02*
G37*
G36*
X363672Y424581D02*
X362168D01*
X360779Y424005D01*
X359715Y422942D01*
X359140Y421553D01*
Y420049D01*
X359715Y418659D01*
X360779Y417596D01*
X362168Y417021D01*
X363672D01*
X365061Y417596D01*
X366124Y418659D01*
X366700Y420049D01*
Y421553D01*
X366124Y422942D01*
X365061Y424005D01*
X363672Y424581D01*
D02*
G37*
G36*
X306762Y424495D02*
X305258D01*
X303869Y423919D01*
X302805Y422856D01*
X302230Y421467D01*
Y419963D01*
X302805Y418574D01*
X303869Y417510D01*
X305258Y416935D01*
X306762D01*
X308151Y417510D01*
X309214Y418574D01*
X309790Y419963D01*
Y421467D01*
X309214Y422856D01*
X308151Y423919D01*
X306762Y424495D01*
D02*
G37*
G36*
X685238Y423070D02*
X683734D01*
X682345Y422495D01*
X681281Y421431D01*
X680706Y420042D01*
Y418538D01*
X681281Y417149D01*
X682345Y416086D01*
X683734Y415510D01*
X685238D01*
X686627Y416086D01*
X687690Y417149D01*
X688266Y418538D01*
Y420042D01*
X687690Y421431D01*
X686627Y422495D01*
X685238Y423070D01*
D02*
G37*
G36*
X466423Y421338D02*
X464920D01*
X463530Y420763D01*
X462467Y419700D01*
X461892Y418310D01*
Y416806D01*
X462467Y415417D01*
X463530Y414354D01*
X464920Y413778D01*
X466423D01*
X467813Y414354D01*
X468876Y415417D01*
X469452Y416806D01*
Y418310D01*
X468876Y419700D01*
X467813Y420763D01*
X466423Y421338D01*
D02*
G37*
G36*
X373427Y419246D02*
X371924D01*
X370534Y418671D01*
X369471Y417607D01*
X368895Y416218D01*
Y414714D01*
X369471Y413325D01*
X370534Y412262D01*
X371924Y411686D01*
X373427D01*
X374817Y412262D01*
X375880Y413325D01*
X376455Y414714D01*
Y416218D01*
X375880Y417607D01*
X374817Y418671D01*
X373427Y419246D01*
D02*
G37*
G36*
X315278Y419081D02*
X313775D01*
X312385Y418505D01*
X311322Y417442D01*
X310746Y416052D01*
Y414549D01*
X311322Y413159D01*
X312385Y412096D01*
X313775Y411521D01*
X315278D01*
X316668Y412096D01*
X317731Y413159D01*
X318306Y414549D01*
Y416052D01*
X317731Y417442D01*
X316668Y418505D01*
X315278Y419081D01*
D02*
G37*
G36*
X53525Y418563D02*
X52021D01*
X50631Y417987D01*
X49568Y416924D01*
X48993Y415534D01*
Y414031D01*
X49568Y412641D01*
X50631Y411578D01*
X52021Y411003D01*
X53525D01*
X54914Y411578D01*
X55977Y412641D01*
X56553Y414031D01*
Y415534D01*
X55977Y416924D01*
X54914Y417987D01*
X53525Y418563D01*
D02*
G37*
G36*
X216066Y418002D02*
X214562D01*
X213172Y417426D01*
X212109Y416363D01*
X211534Y414973D01*
Y413470D01*
X212109Y412080D01*
X213172Y411017D01*
X214562Y410442D01*
X216066D01*
X217455Y411017D01*
X218518Y412080D01*
X219094Y413470D01*
Y414973D01*
X218518Y416363D01*
X217455Y417426D01*
X216066Y418002D01*
D02*
G37*
G36*
X183570Y418000D02*
X182066D01*
X180677Y417424D01*
X179614Y416361D01*
X179038Y414972D01*
Y413468D01*
X179614Y412079D01*
X180677Y411015D01*
X182066Y410440D01*
X183570D01*
X184960Y411015D01*
X186023Y412079D01*
X186598Y413468D01*
Y414972D01*
X186023Y416361D01*
X184960Y417424D01*
X183570Y418000D01*
D02*
G37*
G36*
X527395Y411444D02*
X525891D01*
X524502Y410868D01*
X523439Y409805D01*
X522863Y408415D01*
Y406912D01*
X523439Y405522D01*
X524502Y404459D01*
X525891Y403884D01*
X527395D01*
X528784Y404459D01*
X529848Y405522D01*
X530423Y406912D01*
Y408415D01*
X529848Y409805D01*
X528784Y410868D01*
X527395Y411444D01*
D02*
G37*
G36*
X684256Y408637D02*
X682752D01*
X681363Y408061D01*
X680300Y406998D01*
X679724Y405609D01*
Y404105D01*
X680300Y402716D01*
X681363Y401652D01*
X682752Y401077D01*
X684256D01*
X685645Y401652D01*
X686709Y402716D01*
X687284Y404105D01*
Y405609D01*
X686709Y406998D01*
X685645Y408061D01*
X684256Y408637D01*
D02*
G37*
G36*
X315208Y408092D02*
X313704D01*
X312315Y407517D01*
X311251Y406453D01*
X310676Y405064D01*
Y403560D01*
X311251Y402171D01*
X312315Y401107D01*
X313704Y400532D01*
X315208D01*
X316597Y401107D01*
X317660Y402171D01*
X318236Y403560D01*
Y405064D01*
X317660Y406453D01*
X316597Y407517D01*
X315208Y408092D01*
D02*
G37*
G36*
X233486Y406461D02*
X231982D01*
X230593Y405886D01*
X229530Y404822D01*
X228954Y403433D01*
Y401929D01*
X229530Y400540D01*
X230593Y399477D01*
X231982Y398901D01*
X233486D01*
X234875Y399477D01*
X235939Y400540D01*
X236514Y401929D01*
Y403433D01*
X235939Y404822D01*
X234875Y405886D01*
X233486Y406461D01*
D02*
G37*
G36*
X499814Y399779D02*
X498310D01*
X496921Y399204D01*
X495858Y398140D01*
X495282Y396751D01*
Y395247D01*
X495858Y393858D01*
X496921Y392795D01*
X498310Y392219D01*
X499814D01*
X501203Y392795D01*
X502267Y393858D01*
X502842Y395247D01*
Y396751D01*
X502267Y398140D01*
X501203Y399204D01*
X499814Y399779D01*
D02*
G37*
G36*
X25647Y396973D02*
X24143D01*
X22754Y396398D01*
X21691Y395335D01*
X21115Y393945D01*
Y392441D01*
X21691Y391052D01*
X22754Y389989D01*
X24143Y389413D01*
X25647D01*
X27036Y389989D01*
X28100Y391052D01*
X28675Y392441D01*
Y393945D01*
X28100Y395335D01*
X27036Y396398D01*
X25647Y396973D01*
D02*
G37*
G36*
X53525Y396797D02*
X52021D01*
X50631Y396221D01*
X49568Y395158D01*
X48993Y393769D01*
Y392265D01*
X49568Y390875D01*
X50631Y389812D01*
X52021Y389237D01*
X53525D01*
X54914Y389812D01*
X55977Y390875D01*
X56553Y392265D01*
Y393769D01*
X55977Y395158D01*
X54914Y396221D01*
X53525Y396797D01*
D02*
G37*
G36*
X116068Y396644D02*
X114564D01*
X113175Y396068D01*
X112112Y395005D01*
X111536Y393616D01*
Y392112D01*
X112112Y390723D01*
X113175Y389659D01*
X114564Y389084D01*
X116068D01*
X117457Y389659D01*
X118520Y390723D01*
X119096Y392112D01*
Y393616D01*
X118520Y395005D01*
X117457Y396068D01*
X116068Y396644D01*
D02*
G37*
G36*
X691010Y396280D02*
X689506D01*
X688117Y395704D01*
X687054Y394641D01*
X686478Y393252D01*
Y391748D01*
X687054Y390359D01*
X688117Y389296D01*
X689506Y388720D01*
X691010D01*
X692399Y389296D01*
X693463Y390359D01*
X694038Y391748D01*
Y393252D01*
X693463Y394641D01*
X692399Y395704D01*
X691010Y396280D01*
D02*
G37*
G36*
X659341Y399914D02*
X573677D01*
X573608Y346456D01*
X659341D01*
Y390417D01*
X659482Y390078D01*
X660545Y389015D01*
X661934Y388439D01*
X663438D01*
X664827Y389015D01*
X665891Y390078D01*
X666466Y391467D01*
Y392971D01*
X665891Y394360D01*
X664827Y395424D01*
X663438Y395999D01*
X661934D01*
X660545Y395424D01*
X659482Y394360D01*
X659341Y394021D01*
Y399914D01*
D02*
G37*
G36*
X354634Y394636D02*
X353131D01*
X351741Y394061D01*
X350678Y392998D01*
X350102Y391608D01*
Y390104D01*
X350678Y388715D01*
X351741Y387652D01*
X353131Y387076D01*
X354634D01*
X356024Y387652D01*
X357087Y388715D01*
X357663Y390104D01*
Y391608D01*
X357087Y392998D01*
X356024Y394061D01*
X354634Y394636D01*
D02*
G37*
G36*
X497067Y389673D02*
X495563D01*
X494174Y389097D01*
X493111Y388034D01*
X492535Y386645D01*
Y385141D01*
X493111Y383752D01*
X494174Y382688D01*
X495563Y382113D01*
X497067D01*
X498456Y382688D01*
X499520Y383752D01*
X500095Y385141D01*
Y386645D01*
X499520Y388034D01*
X498456Y389097D01*
X497067Y389673D01*
D02*
G37*
G36*
X440709Y389002D02*
X439206D01*
X437816Y388426D01*
X436753Y387363D01*
X436177Y385974D01*
Y384470D01*
X436753Y383080D01*
X437816Y382017D01*
X439206Y381442D01*
X440709D01*
X442099Y382017D01*
X443162Y383080D01*
X443737Y384470D01*
Y385974D01*
X443162Y387363D01*
X442099Y388426D01*
X440709Y389002D01*
D02*
G37*
G36*
X150016Y388194D02*
X148512D01*
X147122Y387619D01*
X146059Y386555D01*
X145484Y385166D01*
Y383662D01*
X146059Y382273D01*
X147122Y381210D01*
X148512Y380634D01*
X150016D01*
X151405Y381210D01*
X152468Y382273D01*
X153044Y383662D01*
Y385166D01*
X152468Y386555D01*
X151405Y387619D01*
X150016Y388194D01*
D02*
G37*
G36*
X53436Y386304D02*
X51932D01*
X50543Y385728D01*
X49480Y384665D01*
X48904Y383276D01*
Y381772D01*
X49480Y380383D01*
X50543Y379319D01*
X51932Y378744D01*
X53436D01*
X54826Y379319D01*
X55889Y380383D01*
X56464Y381772D01*
Y383276D01*
X55889Y384665D01*
X54826Y385728D01*
X53436Y386304D01*
D02*
G37*
G36*
X264150Y384018D02*
X262646D01*
X261257Y383442D01*
X260194Y382379D01*
X259618Y380990D01*
Y379486D01*
X260194Y378097D01*
X261257Y377034D01*
X262646Y376458D01*
X264150D01*
X265539Y377034D01*
X266602Y378097D01*
X267178Y379486D01*
Y380990D01*
X266602Y382379D01*
X265539Y383442D01*
X264150Y384018D01*
D02*
G37*
G36*
X446927Y383685D02*
X445423D01*
X444034Y383110D01*
X442970Y382047D01*
X442395Y380657D01*
Y379154D01*
X442970Y377764D01*
X444034Y376701D01*
X445423Y376125D01*
X446927D01*
X448316Y376701D01*
X449379Y377764D01*
X449955Y379154D01*
Y380657D01*
X449379Y382047D01*
X448316Y383110D01*
X446927Y383685D01*
D02*
G37*
G36*
X233207Y380625D02*
X231703D01*
X230314Y380049D01*
X229250Y378986D01*
X228675Y377596D01*
Y376093D01*
X229250Y374703D01*
X230314Y373640D01*
X231703Y373064D01*
X233207D01*
X234596Y373640D01*
X235660Y374703D01*
X236235Y376093D01*
Y377596D01*
X235660Y378986D01*
X234596Y380049D01*
X233207Y380625D01*
D02*
G37*
G36*
X453183Y378000D02*
X451679D01*
X450290Y377425D01*
X449227Y376362D01*
X448651Y374972D01*
Y373468D01*
X449227Y372079D01*
X450290Y371016D01*
X451679Y370440D01*
X453183D01*
X454572Y371016D01*
X455636Y372079D01*
X456211Y373468D01*
Y374972D01*
X455636Y376362D01*
X454572Y377425D01*
X453183Y378000D01*
D02*
G37*
G36*
X161721Y376655D02*
X160217D01*
X158828Y376080D01*
X157765Y375016D01*
X157189Y373627D01*
Y372123D01*
X157765Y370734D01*
X158828Y369670D01*
X160217Y369095D01*
X161721D01*
X163111Y369670D01*
X164174Y370734D01*
X164749Y372123D01*
Y373627D01*
X164174Y375016D01*
X163111Y376080D01*
X161721Y376655D01*
D02*
G37*
G36*
X698174Y376645D02*
X696670D01*
X695281Y376069D01*
X694217Y375006D01*
X693642Y373616D01*
Y372113D01*
X694217Y370723D01*
X695281Y369660D01*
X696670Y369085D01*
X698174D01*
X699563Y369660D01*
X700626Y370723D01*
X701202Y372113D01*
Y373616D01*
X700626Y375006D01*
X699563Y376069D01*
X698174Y376645D01*
D02*
G37*
G36*
X115827Y375221D02*
X114323D01*
X112934Y374646D01*
X111870Y373583D01*
X111295Y372193D01*
Y370690D01*
X111870Y369300D01*
X112934Y368237D01*
X114323Y367662D01*
X115827D01*
X117216Y368237D01*
X118279Y369300D01*
X118855Y370690D01*
Y372193D01*
X118279Y373583D01*
X117216Y374646D01*
X115827Y375221D01*
D02*
G37*
G36*
X104850D02*
X103347D01*
X101957Y374646D01*
X100894Y373583D01*
X100318Y372193D01*
Y370690D01*
X100894Y369300D01*
X101957Y368237D01*
X103347Y367662D01*
X104850D01*
X106240Y368237D01*
X107303Y369300D01*
X107879Y370690D01*
Y372193D01*
X107303Y373583D01*
X106240Y374646D01*
X104850Y375221D01*
D02*
G37*
G36*
X502080Y373478D02*
X500576D01*
X499187Y372903D01*
X498124Y371839D01*
X497548Y370450D01*
Y368946D01*
X498124Y367557D01*
X499187Y366494D01*
X500576Y365918D01*
X502080D01*
X503469Y366494D01*
X504533Y367557D01*
X505108Y368946D01*
Y370450D01*
X504533Y371839D01*
X503469Y372903D01*
X502080Y373478D01*
D02*
G37*
G36*
X419598Y371448D02*
X418094D01*
X416705Y370872D01*
X415642Y369809D01*
X415066Y368420D01*
Y366916D01*
X415642Y365527D01*
X416705Y364464D01*
X418094Y363888D01*
X419598D01*
X420987Y364464D01*
X422051Y365527D01*
X422626Y366916D01*
Y368420D01*
X422051Y369809D01*
X420987Y370872D01*
X419598Y371448D01*
D02*
G37*
G36*
X400548D02*
X399044D01*
X397655Y370872D01*
X396591Y369809D01*
X396016Y368420D01*
Y366916D01*
X396591Y365527D01*
X397655Y364464D01*
X399044Y363888D01*
X400548D01*
X401937Y364464D01*
X403000Y365527D01*
X403576Y366916D01*
Y368420D01*
X403000Y369809D01*
X401937Y370872D01*
X400548Y371448D01*
D02*
G37*
G36*
X381498D02*
X379994D01*
X378605Y370872D01*
X377542Y369809D01*
X376966Y368420D01*
Y366916D01*
X377542Y365527D01*
X378605Y364464D01*
X379994Y363888D01*
X381498D01*
X382887Y364464D01*
X383951Y365527D01*
X384526Y366916D01*
Y368420D01*
X383951Y369809D01*
X382887Y370872D01*
X381498Y371448D01*
D02*
G37*
G36*
X362448D02*
X360944D01*
X359555Y370872D01*
X358492Y369809D01*
X357916Y368420D01*
Y366916D01*
X358492Y365527D01*
X359555Y364464D01*
X360944Y363888D01*
X362448D01*
X363837Y364464D01*
X364901Y365527D01*
X365476Y366916D01*
Y368420D01*
X364901Y369809D01*
X363837Y370872D01*
X362448Y371448D01*
D02*
G37*
G36*
X459613Y371289D02*
X458109D01*
X456720Y370713D01*
X455656Y369650D01*
X455081Y368261D01*
Y366757D01*
X455656Y365368D01*
X456720Y364304D01*
X458109Y363729D01*
X459613D01*
X461002Y364304D01*
X462065Y365368D01*
X462641Y366757D01*
Y368261D01*
X462065Y369650D01*
X461002Y370713D01*
X459613Y371289D01*
D02*
G37*
G36*
X317233Y368134D02*
X315730D01*
X314340Y367559D01*
X313277Y366496D01*
X312701Y365106D01*
Y363602D01*
X313277Y362213D01*
X314340Y361150D01*
X315730Y360574D01*
X317233D01*
X318623Y361150D01*
X319686Y362213D01*
X320261Y363602D01*
Y365106D01*
X319686Y366496D01*
X318623Y367559D01*
X317233Y368134D01*
D02*
G37*
G36*
X691010Y366836D02*
X689506D01*
X688117Y366260D01*
X687054Y365197D01*
X686478Y363808D01*
Y362304D01*
X687054Y360915D01*
X688117Y359851D01*
X689506Y359276D01*
X691010D01*
X692399Y359851D01*
X693463Y360915D01*
X694038Y362304D01*
Y363808D01*
X693463Y365197D01*
X692399Y366260D01*
X691010Y366836D01*
D02*
G37*
G36*
X163892Y363974D02*
X162389D01*
X160999Y363399D01*
X159936Y362336D01*
X159361Y360946D01*
Y359443D01*
X159936Y358053D01*
X160999Y356990D01*
X162389Y356414D01*
X163892D01*
X165282Y356990D01*
X166345Y358053D01*
X166921Y359443D01*
Y360946D01*
X166345Y362336D01*
X165282Y363399D01*
X163892Y363974D01*
D02*
G37*
G36*
X502220Y363654D02*
X500716D01*
X499326Y363078D01*
X498263Y362015D01*
X497688Y360625D01*
Y359122D01*
X498263Y357732D01*
X499326Y356669D01*
X500716Y356093D01*
X502220D01*
X503609Y356669D01*
X504672Y357732D01*
X505248Y359122D01*
Y360625D01*
X504672Y362015D01*
X503609Y363078D01*
X502220Y363654D01*
D02*
G37*
G36*
X115827Y360750D02*
X114323D01*
X112934Y360174D01*
X111870Y359111D01*
X111295Y357722D01*
Y356218D01*
X111870Y354829D01*
X112934Y353765D01*
X114323Y353190D01*
X115827D01*
X117216Y353765D01*
X118279Y354829D01*
X118855Y356218D01*
Y357722D01*
X118279Y359111D01*
X117216Y360174D01*
X115827Y360750D01*
D02*
G37*
G36*
X104855D02*
X103351D01*
X101962Y360174D01*
X100898Y359111D01*
X100323Y357722D01*
Y356218D01*
X100898Y354829D01*
X101962Y353765D01*
X103351Y353190D01*
X104855D01*
X106244Y353765D01*
X107307Y354829D01*
X107883Y356218D01*
Y357722D01*
X107307Y359111D01*
X106244Y360174D01*
X104855Y360750D01*
D02*
G37*
G36*
X509213Y358772D02*
X507709D01*
X506320Y358196D01*
X505257Y357133D01*
X504681Y355744D01*
Y354240D01*
X505257Y352851D01*
X506320Y351787D01*
X507709Y351212D01*
X509213D01*
X510602Y351787D01*
X511666Y352851D01*
X512241Y354240D01*
Y355744D01*
X511666Y357133D01*
X510602Y358196D01*
X509213Y358772D01*
D02*
G37*
G36*
X698618Y355782D02*
X697114D01*
X695725Y355206D01*
X694662Y354143D01*
X694086Y352754D01*
Y351250D01*
X694662Y349861D01*
X695725Y348797D01*
X697114Y348222D01*
X698618D01*
X700007Y348797D01*
X701071Y349861D01*
X701646Y351250D01*
Y352754D01*
X701071Y354143D01*
X700007Y355206D01*
X698618Y355782D01*
D02*
G37*
G36*
X527392Y354779D02*
X525888D01*
X524499Y354203D01*
X523435Y353140D01*
X522860Y351750D01*
Y350247D01*
X523435Y348857D01*
X524499Y347794D01*
X525888Y347219D01*
X527392D01*
X528781Y347794D01*
X529844Y348857D01*
X530420Y350247D01*
Y351750D01*
X529844Y353140D01*
X528781Y354203D01*
X527392Y354779D01*
D02*
G37*
G36*
X343144Y353284D02*
X341640D01*
X340251Y352709D01*
X339188Y351645D01*
X338612Y350256D01*
Y348752D01*
X339188Y347363D01*
X340251Y346300D01*
X341640Y345724D01*
X343144D01*
X344533Y346300D01*
X345597Y347363D01*
X346172Y348752D01*
Y350256D01*
X345597Y351645D01*
X344533Y352709D01*
X343144Y353284D01*
D02*
G37*
G36*
X504547Y349529D02*
X503043D01*
X501654Y348954D01*
X500590Y347890D01*
X500015Y346501D01*
Y344997D01*
X500590Y343608D01*
X501654Y342545D01*
X503043Y341969D01*
X504547D01*
X505936Y342545D01*
X507000Y343608D01*
X507575Y344997D01*
Y346501D01*
X507000Y347890D01*
X505936Y348954D01*
X504547Y349529D01*
D02*
G37*
G36*
X732752Y346054D02*
X731248D01*
X729859Y345479D01*
X728795Y344416D01*
X728220Y343026D01*
Y341523D01*
X728795Y340133D01*
X729859Y339070D01*
X731248Y338494D01*
X732752D01*
X734141Y339070D01*
X735204Y340133D01*
X735780Y341523D01*
Y343026D01*
X735204Y344416D01*
X734141Y345479D01*
X732752Y346054D01*
D02*
G37*
G36*
X743149Y345856D02*
X741645D01*
X740256Y345281D01*
X739193Y344218D01*
X738617Y342828D01*
Y341325D01*
X739193Y339935D01*
X740256Y338872D01*
X741645Y338296D01*
X743149D01*
X744538Y338872D01*
X745602Y339935D01*
X746177Y341325D01*
Y342828D01*
X745602Y344218D01*
X744538Y345281D01*
X743149Y345856D01*
D02*
G37*
G36*
X690901Y345410D02*
X689398D01*
X688008Y344835D01*
X686945Y343771D01*
X686369Y342382D01*
Y340878D01*
X686945Y339489D01*
X688008Y338425D01*
X689398Y337850D01*
X690901D01*
X692291Y338425D01*
X693354Y339489D01*
X693930Y340878D01*
Y342382D01*
X693354Y343771D01*
X692291Y344835D01*
X690901Y345410D01*
D02*
G37*
G36*
X313236Y344141D02*
X311732D01*
X310343Y343566D01*
X309279Y342503D01*
X308704Y341113D01*
Y339609D01*
X309279Y338220D01*
X310343Y337157D01*
X311732Y336581D01*
X313236D01*
X314625Y337157D01*
X315688Y338220D01*
X316264Y339609D01*
Y341113D01*
X315688Y342503D01*
X314625Y343566D01*
X313236Y344141D01*
D02*
G37*
G36*
X504942Y339429D02*
X503438D01*
X502049Y338854D01*
X500985Y337790D01*
X500410Y336401D01*
Y334897D01*
X500985Y333508D01*
X502049Y332445D01*
X503438Y331869D01*
X504942D01*
X506331Y332445D01*
X507394Y333508D01*
X507970Y334897D01*
Y336401D01*
X507394Y337790D01*
X506331Y338854D01*
X504942Y339429D01*
D02*
G37*
G36*
X475305Y337856D02*
X473801D01*
X472412Y337281D01*
X471348Y336217D01*
X470773Y334828D01*
Y333324D01*
X471348Y331935D01*
X472412Y330872D01*
X473801Y330296D01*
X475305D01*
X476694Y330872D01*
X477757Y331935D01*
X478333Y333324D01*
Y334828D01*
X477757Y336217D01*
X476694Y337281D01*
X475305Y337856D01*
D02*
G37*
G36*
X732752Y333960D02*
X731248D01*
X729859Y333384D01*
X728795Y332321D01*
X728220Y330931D01*
Y329428D01*
X728795Y328038D01*
X729859Y326975D01*
X731248Y326400D01*
X732752D01*
X734141Y326975D01*
X735204Y328038D01*
X735780Y329428D01*
Y330931D01*
X735204Y332321D01*
X734141Y333384D01*
X732752Y333960D01*
D02*
G37*
G36*
X714492D02*
X712988D01*
X711599Y333384D01*
X710536Y332321D01*
X709960Y330931D01*
Y329428D01*
X710536Y328038D01*
X711599Y326975D01*
X712988Y326400D01*
X714492D01*
X715881Y326975D01*
X716945Y328038D01*
X717520Y329428D01*
Y330931D01*
X716945Y332321D01*
X715881Y333384D01*
X714492Y333960D01*
D02*
G37*
G36*
X352796Y332964D02*
X351292D01*
X349903Y332388D01*
X348839Y331325D01*
X348264Y329936D01*
Y328432D01*
X348839Y327043D01*
X349903Y325979D01*
X351292Y325404D01*
X352796D01*
X354185Y325979D01*
X355248Y327043D01*
X355824Y328432D01*
Y329936D01*
X355248Y331325D01*
X354185Y332388D01*
X352796Y332964D01*
D02*
G37*
G36*
X501029Y332572D02*
X499525D01*
X498136Y331997D01*
X497072Y330933D01*
X496497Y329544D01*
Y328040D01*
X497072Y326651D01*
X498136Y325588D01*
X499525Y325012D01*
X501029D01*
X502418Y325588D01*
X503481Y326651D01*
X504057Y328040D01*
Y329544D01*
X503481Y330933D01*
X502418Y331997D01*
X501029Y332572D01*
D02*
G37*
G36*
X301750Y332540D02*
X300246D01*
X298857Y331965D01*
X297793Y330901D01*
X297218Y329512D01*
Y328008D01*
X297793Y326619D01*
X298857Y325556D01*
X300246Y324980D01*
X301750D01*
X303139Y325556D01*
X304202Y326619D01*
X304778Y328008D01*
Y329512D01*
X304202Y330901D01*
X303139Y331965D01*
X301750Y332540D01*
D02*
G37*
G36*
X247333Y330530D02*
X245830D01*
X244440Y329955D01*
X243377Y328891D01*
X242801Y327502D01*
Y325998D01*
X243377Y324609D01*
X244440Y323545D01*
X245830Y322970D01*
X247333D01*
X248723Y323545D01*
X249786Y324609D01*
X250361Y325998D01*
Y327502D01*
X249786Y328891D01*
X248723Y329955D01*
X247333Y330530D01*
D02*
G37*
G36*
X468036Y329946D02*
X466532D01*
X465143Y329371D01*
X464080Y328307D01*
X463504Y326918D01*
Y325414D01*
X464080Y324025D01*
X465143Y322962D01*
X466532Y322386D01*
X468036D01*
X469425Y322962D01*
X470489Y324025D01*
X471064Y325414D01*
Y326918D01*
X470489Y328307D01*
X469425Y329371D01*
X468036Y329946D01*
D02*
G37*
G36*
X381710Y325329D02*
X380206D01*
X378817Y324753D01*
X377753Y323690D01*
X377178Y322301D01*
Y320797D01*
X377753Y319408D01*
X378817Y318344D01*
X380206Y317769D01*
X381710D01*
X383099Y318344D01*
X384163Y319408D01*
X384738Y320797D01*
Y322301D01*
X384163Y323690D01*
X383099Y324753D01*
X381710Y325329D01*
D02*
G37*
G36*
X419627Y325184D02*
X418124D01*
X416734Y324608D01*
X415671Y323545D01*
X415095Y322156D01*
Y320652D01*
X415671Y319263D01*
X416734Y318199D01*
X418124Y317624D01*
X419627D01*
X421017Y318199D01*
X422080Y319263D01*
X422655Y320652D01*
Y322156D01*
X422080Y323545D01*
X421017Y324608D01*
X419627Y325184D01*
D02*
G37*
G36*
X400651Y325183D02*
X399147D01*
X397758Y324608D01*
X396695Y323545D01*
X396119Y322155D01*
Y320652D01*
X396695Y319262D01*
X397758Y318199D01*
X399147Y317623D01*
X400651D01*
X402040Y318199D01*
X403104Y319262D01*
X403679Y320652D01*
Y322155D01*
X403104Y323545D01*
X402040Y324608D01*
X400651Y325183D01*
D02*
G37*
G36*
X691010Y325090D02*
X689506D01*
X688117Y324515D01*
X687054Y323451D01*
X686478Y322062D01*
Y320558D01*
X687054Y319169D01*
X688117Y318106D01*
X689506Y317530D01*
X691010D01*
X692399Y318106D01*
X693463Y319169D01*
X694038Y320558D01*
Y322062D01*
X693463Y323451D01*
X692399Y324515D01*
X691010Y325090D01*
D02*
G37*
G36*
X206318D02*
X204814D01*
X203424Y324515D01*
X202361Y323451D01*
X201786Y322062D01*
Y320558D01*
X202361Y319169D01*
X203424Y318106D01*
X204814Y317530D01*
X206318D01*
X207707Y318106D01*
X208770Y319169D01*
X209346Y320558D01*
Y322062D01*
X208770Y323451D01*
X207707Y324515D01*
X206318Y325090D01*
D02*
G37*
G36*
X196332D02*
X194828D01*
X193439Y324515D01*
X192376Y323451D01*
X191800Y322062D01*
Y320558D01*
X192376Y319169D01*
X193439Y318106D01*
X194828Y317530D01*
X196332D01*
X197721Y318106D01*
X198785Y319169D01*
X199360Y320558D01*
Y322062D01*
X198785Y323451D01*
X197721Y324515D01*
X196332Y325090D01*
D02*
G37*
G36*
X505095Y324873D02*
X503591D01*
X502202Y324297D01*
X501139Y323234D01*
X500563Y321845D01*
Y320341D01*
X501139Y318952D01*
X502202Y317888D01*
X503591Y317313D01*
X505095D01*
X506485Y317888D01*
X507548Y318952D01*
X508123Y320341D01*
Y321845D01*
X507548Y323234D01*
X506485Y324297D01*
X505095Y324873D01*
D02*
G37*
G36*
X362381Y324870D02*
X360877D01*
X359488Y324295D01*
X358424Y323232D01*
X357849Y321842D01*
Y320339D01*
X358424Y318949D01*
X359488Y317886D01*
X360877Y317310D01*
X362381D01*
X363770Y317886D01*
X364834Y318949D01*
X365409Y320339D01*
Y321842D01*
X364834Y323232D01*
X363770Y324295D01*
X362381Y324870D01*
D02*
G37*
G36*
X412145Y319214D02*
X410641D01*
X409252Y318638D01*
X408189Y317575D01*
X407613Y316185D01*
Y314682D01*
X408189Y313292D01*
X409252Y312229D01*
X410641Y311653D01*
X412145D01*
X413534Y312229D01*
X414598Y313292D01*
X415173Y314682D01*
Y316185D01*
X414598Y317575D01*
X413534Y318638D01*
X412145Y319214D01*
D02*
G37*
G36*
X351461Y318596D02*
X349958D01*
X348568Y318020D01*
X347505Y316957D01*
X346929Y315567D01*
Y314064D01*
X347505Y312674D01*
X348568Y311611D01*
X349958Y311035D01*
X351461D01*
X352851Y311611D01*
X353914Y312674D01*
X354489Y314064D01*
Y315567D01*
X353914Y316957D01*
X352851Y318020D01*
X351461Y318596D01*
D02*
G37*
G36*
X363114Y317308D02*
X361610D01*
X360221Y316733D01*
X359157Y315669D01*
X358582Y314280D01*
Y312776D01*
X359157Y311387D01*
X360221Y310324D01*
X361610Y309748D01*
X363114D01*
X364503Y310324D01*
X365567Y311387D01*
X366142Y312776D01*
Y314280D01*
X365567Y315669D01*
X364503Y316733D01*
X363114Y317308D01*
D02*
G37*
G36*
X296417Y312645D02*
X294914D01*
X293524Y312070D01*
X292461Y311006D01*
X291886Y309617D01*
Y308113D01*
X292461Y306724D01*
X293524Y305660D01*
X294914Y305085D01*
X296417D01*
X297807Y305660D01*
X298870Y306724D01*
X299445Y308113D01*
Y309617D01*
X298870Y311006D01*
X297807Y312070D01*
X296417Y312645D01*
D02*
G37*
G36*
X669891Y311692D02*
X668387D01*
X666997Y311116D01*
X665934Y310053D01*
X665359Y308664D01*
Y307160D01*
X665934Y305770D01*
X666997Y304707D01*
X668387Y304132D01*
X669891D01*
X671280Y304707D01*
X672343Y305770D01*
X672919Y307160D01*
Y308664D01*
X672343Y310053D01*
X671280Y311116D01*
X669891Y311692D01*
D02*
G37*
G36*
X644111Y305651D02*
X642608D01*
X641218Y305076D01*
X640155Y304013D01*
X639580Y302623D01*
Y301120D01*
X640155Y299730D01*
X641218Y298667D01*
X642608Y298092D01*
X644111D01*
X645501Y298667D01*
X646564Y299730D01*
X647140Y301120D01*
Y302623D01*
X646564Y304013D01*
X645501Y305076D01*
X644111Y305651D01*
D02*
G37*
G36*
X327307Y294791D02*
X325803D01*
X324414Y294215D01*
X323351Y293152D01*
X322775Y291763D01*
Y290259D01*
X323351Y288869D01*
X324414Y287806D01*
X325803Y287231D01*
X327307D01*
X328697Y287806D01*
X329760Y288869D01*
X330335Y290259D01*
Y291763D01*
X329760Y293152D01*
X328697Y294215D01*
X327307Y294791D01*
D02*
G37*
G36*
X568950Y294610D02*
X567446D01*
X566057Y294035D01*
X564994Y292971D01*
X564418Y291582D01*
Y290078D01*
X564994Y288689D01*
X566057Y287626D01*
X567446Y287050D01*
X568950D01*
X570339Y287626D01*
X571403Y288689D01*
X571978Y290078D01*
Y291582D01*
X571403Y292971D01*
X570339Y294035D01*
X568950Y294610D01*
D02*
G37*
G36*
X454228Y294100D02*
X452724D01*
X451335Y293525D01*
X450271Y292462D01*
X449696Y291072D01*
Y289569D01*
X450271Y288179D01*
X451335Y287116D01*
X452724Y286540D01*
X454228D01*
X455617Y287116D01*
X456680Y288179D01*
X457256Y289569D01*
Y291072D01*
X456680Y292462D01*
X455617Y293525D01*
X454228Y294100D01*
D02*
G37*
G36*
X125096Y303658D02*
X105536D01*
Y284098D01*
X125096D01*
Y303658D01*
D02*
G37*
G36*
X683602Y290764D02*
X682098D01*
X680708Y290189D01*
X679645Y289125D01*
X679070Y287736D01*
Y286232D01*
X679645Y284843D01*
X680708Y283779D01*
X682098Y283204D01*
X683602D01*
X684991Y283779D01*
X686054Y284843D01*
X686630Y286232D01*
Y287736D01*
X686054Y289125D01*
X684991Y290189D01*
X683602Y290764D01*
D02*
G37*
G36*
X471153Y284034D02*
X469649D01*
X468260Y283459D01*
X467197Y282395D01*
X466621Y281006D01*
Y279502D01*
X467197Y278113D01*
X468260Y277050D01*
X469649Y276474D01*
X471153D01*
X472542Y277050D01*
X473606Y278113D01*
X474181Y279502D01*
Y281006D01*
X473606Y282395D01*
X472542Y283459D01*
X471153Y284034D01*
D02*
G37*
G36*
X269738Y282802D02*
X268234D01*
X266845Y282227D01*
X265781Y281163D01*
X265206Y279774D01*
Y278270D01*
X265781Y276881D01*
X266845Y275818D01*
X268234Y275242D01*
X269738D01*
X271127Y275818D01*
X272190Y276881D01*
X272766Y278270D01*
Y279774D01*
X272190Y281163D01*
X271127Y282227D01*
X269738Y282802D01*
D02*
G37*
G36*
X136782Y282164D02*
X135278D01*
X133889Y281588D01*
X132825Y280525D01*
X132250Y279136D01*
Y277632D01*
X132825Y276243D01*
X133889Y275180D01*
X135278Y274604D01*
X136782D01*
X138171Y275180D01*
X139235Y276243D01*
X139810Y277632D01*
Y279136D01*
X139235Y280525D01*
X138171Y281588D01*
X136782Y282164D01*
D02*
G37*
G36*
X362381Y281402D02*
X360877D01*
X359488Y280826D01*
X358424Y279763D01*
X357849Y278374D01*
Y276870D01*
X358424Y275481D01*
X359488Y274417D01*
X360877Y273842D01*
X362381D01*
X363770Y274417D01*
X364834Y275481D01*
X365409Y276870D01*
Y278374D01*
X364834Y279763D01*
X363770Y280826D01*
X362381Y281402D01*
D02*
G37*
G36*
X438296Y281246D02*
X436792D01*
X435403Y280671D01*
X434339Y279607D01*
X433764Y278218D01*
Y276714D01*
X434339Y275325D01*
X435403Y274262D01*
X436792Y273686D01*
X438296D01*
X439685Y274262D01*
X440748Y275325D01*
X441324Y276714D01*
Y278218D01*
X440748Y279607D01*
X439685Y280671D01*
X438296Y281246D01*
D02*
G37*
G36*
X249325Y280482D02*
X247821D01*
X246432Y279907D01*
X245368Y278844D01*
X244793Y277454D01*
Y275951D01*
X245368Y274561D01*
X246432Y273498D01*
X247821Y272922D01*
X249325D01*
X250714Y273498D01*
X251777Y274561D01*
X252353Y275951D01*
Y277454D01*
X251777Y278844D01*
X250714Y279907D01*
X249325Y280482D01*
D02*
G37*
G36*
X424024Y279513D02*
X422520D01*
X421131Y278938D01*
X420067Y277875D01*
X419492Y276485D01*
Y274982D01*
X420067Y273592D01*
X421131Y272529D01*
X422520Y271954D01*
X424024D01*
X425413Y272529D01*
X426477Y273592D01*
X427052Y274982D01*
Y276485D01*
X426477Y277875D01*
X425413Y278938D01*
X424024Y279513D01*
D02*
G37*
G36*
X116704Y279018D02*
X116586D01*
Y269748D01*
X125856D01*
Y269866D01*
X125138Y272546D01*
X123750Y274950D01*
X121788Y276912D01*
X119384Y278300D01*
X116704Y279018D01*
D02*
G37*
G36*
X114046D02*
X113928D01*
X111248Y278300D01*
X108844Y276912D01*
X106882Y274950D01*
X105494Y272546D01*
X104776Y269866D01*
Y269748D01*
X114046D01*
Y279018D01*
D02*
G37*
G36*
X445800Y276134D02*
X444296D01*
X442907Y275559D01*
X441843Y274495D01*
X441268Y273106D01*
Y271602D01*
X441843Y270213D01*
X442907Y269150D01*
X444296Y268574D01*
X445800D01*
X447189Y269150D01*
X448252Y270213D01*
X448828Y271602D01*
Y273106D01*
X448252Y274495D01*
X447189Y275559D01*
X445800Y276134D01*
D02*
G37*
G36*
X425453Y268623D02*
X423949D01*
X422560Y268047D01*
X421497Y266984D01*
X420921Y265595D01*
Y264091D01*
X421497Y262701D01*
X422560Y261638D01*
X423949Y261063D01*
X425453D01*
X426842Y261638D01*
X427906Y262701D01*
X428481Y264091D01*
Y265595D01*
X427906Y266984D01*
X426842Y268047D01*
X425453Y268623D01*
D02*
G37*
G36*
X406835D02*
X405331D01*
X403942Y268047D01*
X402878Y266984D01*
X402303Y265595D01*
Y264091D01*
X402878Y262701D01*
X403942Y261638D01*
X405331Y261063D01*
X406835D01*
X408224Y261638D01*
X409287Y262701D01*
X409863Y264091D01*
Y265595D01*
X409287Y266984D01*
X408224Y268047D01*
X406835Y268623D01*
D02*
G37*
G36*
X125856Y267208D02*
X116586D01*
Y257938D01*
X116704D01*
X119384Y258656D01*
X121788Y260044D01*
X123750Y262006D01*
X125138Y264410D01*
X125856Y267090D01*
Y267208D01*
D02*
G37*
G36*
X114046D02*
X104776D01*
Y267090D01*
X105494Y264410D01*
X106882Y262006D01*
X108844Y260044D01*
X111248Y258656D01*
X113928Y257938D01*
X114046D01*
Y267208D01*
D02*
G37*
G36*
X763836Y274830D02*
X761564D01*
X759369Y274242D01*
X757401Y273106D01*
X755794Y271499D01*
X754658Y269531D01*
X754070Y267336D01*
Y265064D01*
X754658Y262869D01*
X755794Y260901D01*
X757401Y259294D01*
X759369Y258158D01*
X761564Y257570D01*
X763836D01*
X766031Y258158D01*
X767999Y259294D01*
X769606Y260901D01*
X770742Y262869D01*
X771330Y265064D01*
Y267336D01*
X770742Y269531D01*
X769606Y271499D01*
X767999Y273106D01*
X766031Y274242D01*
X763836Y274830D01*
D02*
G37*
G36*
X738436D02*
X736164D01*
X733969Y274242D01*
X732001Y273106D01*
X730394Y271499D01*
X729258Y269531D01*
X728670Y267336D01*
Y265064D01*
X729258Y262869D01*
X730394Y260901D01*
X732001Y259294D01*
X733969Y258158D01*
X736164Y257570D01*
X738436D01*
X740631Y258158D01*
X742599Y259294D01*
X744206Y260901D01*
X745342Y262869D01*
X745930Y265064D01*
Y267336D01*
X745342Y269531D01*
X744206Y271499D01*
X742599Y273106D01*
X740631Y274242D01*
X738436Y274830D01*
D02*
G37*
G36*
X439180Y263422D02*
X437676D01*
X436287Y262847D01*
X435224Y261783D01*
X434648Y260394D01*
Y258890D01*
X435224Y257501D01*
X436287Y256438D01*
X437676Y255862D01*
X439180D01*
X440569Y256438D01*
X441633Y257501D01*
X442208Y258890D01*
Y260394D01*
X441633Y261783D01*
X440569Y262847D01*
X439180Y263422D01*
D02*
G37*
G36*
X704755Y261732D02*
X703251D01*
X701861Y261156D01*
X700798Y260093D01*
X700223Y258703D01*
Y257200D01*
X700798Y255810D01*
X701861Y254747D01*
X703251Y254172D01*
X704755D01*
X706144Y254747D01*
X707207Y255810D01*
X707783Y257200D01*
Y258703D01*
X707207Y260093D01*
X706144Y261156D01*
X704755Y261732D01*
D02*
G37*
G36*
X419349Y261611D02*
X417845D01*
X416455Y261036D01*
X415392Y259972D01*
X414817Y258583D01*
Y257079D01*
X415392Y255690D01*
X416455Y254627D01*
X417845Y254051D01*
X419349D01*
X420738Y254627D01*
X421801Y255690D01*
X422377Y257079D01*
Y258583D01*
X421801Y259972D01*
X420738Y261036D01*
X419349Y261611D01*
D02*
G37*
G36*
X691740Y260583D02*
X690236D01*
X688847Y260008D01*
X687783Y258944D01*
X687208Y257555D01*
Y256051D01*
X687783Y254662D01*
X688847Y253599D01*
X690236Y253023D01*
X691740D01*
X693129Y253599D01*
X694192Y254662D01*
X694768Y256051D01*
Y257555D01*
X694192Y258944D01*
X693129Y260008D01*
X691740Y260583D01*
D02*
G37*
G36*
X394037Y256381D02*
X392533D01*
X391144Y255806D01*
X390081Y254743D01*
X389505Y253353D01*
Y251849D01*
X390081Y250460D01*
X391144Y249397D01*
X392533Y248821D01*
X394037D01*
X395427Y249397D01*
X396490Y250460D01*
X397065Y251849D01*
Y253353D01*
X396490Y254743D01*
X395427Y255806D01*
X394037Y256381D01*
D02*
G37*
G36*
X386285Y250638D02*
X384781D01*
X383392Y250062D01*
X382329Y248999D01*
X381753Y247610D01*
Y246106D01*
X382329Y244717D01*
X383392Y243653D01*
X384781Y243078D01*
X386285D01*
X387674Y243653D01*
X388738Y244717D01*
X389313Y246106D01*
Y247610D01*
X388738Y248999D01*
X387674Y250062D01*
X386285Y250638D01*
D02*
G37*
G36*
X551170Y250198D02*
X549666D01*
X548277Y249623D01*
X547214Y248560D01*
X546638Y247170D01*
Y245667D01*
X547214Y244277D01*
X548277Y243214D01*
X549666Y242638D01*
X551170D01*
X552559Y243214D01*
X553623Y244277D01*
X554198Y245667D01*
Y247170D01*
X553623Y248560D01*
X552559Y249623D01*
X551170Y250198D01*
D02*
G37*
G36*
X527548Y248636D02*
X526044D01*
X524655Y248060D01*
X523591Y246997D01*
X523016Y245608D01*
Y244104D01*
X523591Y242715D01*
X524655Y241651D01*
X526044Y241076D01*
X527548D01*
X528937Y241651D01*
X530000Y242715D01*
X530576Y244104D01*
Y245608D01*
X530000Y246997D01*
X528937Y248060D01*
X527548Y248636D01*
D02*
G37*
G36*
X684061Y248258D02*
X682557D01*
X681167Y247683D01*
X680104Y246619D01*
X679529Y245230D01*
Y243726D01*
X680104Y242337D01*
X681167Y241273D01*
X682557Y240698D01*
X684061D01*
X685450Y241273D01*
X686513Y242337D01*
X687089Y243726D01*
Y245230D01*
X686513Y246619D01*
X685450Y247683D01*
X684061Y248258D01*
D02*
G37*
G36*
X379135Y243448D02*
X377631D01*
X376241Y242872D01*
X375178Y241809D01*
X374603Y240420D01*
Y238916D01*
X375178Y237527D01*
X376241Y236463D01*
X377631Y235888D01*
X379135D01*
X380524Y236463D01*
X381587Y237527D01*
X382163Y238916D01*
Y240420D01*
X381587Y241809D01*
X380524Y242872D01*
X379135Y243448D01*
D02*
G37*
G36*
X116604Y252858D02*
X114028D01*
X111541Y252192D01*
X109311Y250904D01*
X107490Y249083D01*
X106202Y246853D01*
X105536Y244366D01*
Y241790D01*
X106202Y239303D01*
X107490Y237073D01*
X109311Y235252D01*
X111541Y233965D01*
X114028Y233298D01*
X116604D01*
X119091Y233965D01*
X121321Y235252D01*
X123142Y237073D01*
X124430Y239303D01*
X125096Y241790D01*
Y244366D01*
X124430Y246853D01*
X123142Y249083D01*
X121321Y250904D01*
X119091Y252192D01*
X116604Y252858D01*
D02*
G37*
G36*
X763836Y249430D02*
X761564D01*
X759369Y248842D01*
X757401Y247706D01*
X755794Y246099D01*
X754658Y244131D01*
X754070Y241936D01*
Y239664D01*
X754658Y237469D01*
X755794Y235501D01*
X757401Y233894D01*
X759369Y232758D01*
X761564Y232170D01*
X763836D01*
X766031Y232758D01*
X767999Y233894D01*
X769606Y235501D01*
X770742Y237469D01*
X771330Y239664D01*
Y241936D01*
X770742Y244131D01*
X769606Y246099D01*
X767999Y247706D01*
X766031Y248842D01*
X763836Y249430D01*
D02*
G37*
G36*
X738436D02*
X736164D01*
X733969Y248842D01*
X732001Y247706D01*
X730394Y246099D01*
X729258Y244131D01*
X728670Y241936D01*
Y239664D01*
X729258Y237469D01*
X730394Y235501D01*
X732001Y233894D01*
X733969Y232758D01*
X736164Y232170D01*
X738436D01*
X740631Y232758D01*
X742599Y233894D01*
X744206Y235501D01*
X745342Y237469D01*
X745930Y239664D01*
Y241936D01*
X745342Y244131D01*
X744206Y246099D01*
X742599Y247706D01*
X740631Y248842D01*
X738436Y249430D01*
D02*
G37*
G36*
X405397Y238246D02*
X403893D01*
X402504Y237670D01*
X401441Y236607D01*
X400865Y235218D01*
Y233714D01*
X401441Y232325D01*
X402504Y231261D01*
X403893Y230686D01*
X405397D01*
X406786Y231261D01*
X407850Y232325D01*
X408425Y233714D01*
Y235218D01*
X407850Y236607D01*
X406786Y237670D01*
X405397Y238246D01*
D02*
G37*
G36*
X232485Y237392D02*
X230981D01*
X229592Y236816D01*
X228529Y235753D01*
X227953Y234364D01*
Y232860D01*
X228529Y231471D01*
X229592Y230407D01*
X230981Y229832D01*
X232485D01*
X233874Y230407D01*
X234938Y231471D01*
X235513Y232860D01*
Y234364D01*
X234938Y235753D01*
X233874Y236816D01*
X232485Y237392D01*
D02*
G37*
G36*
X219685D02*
X218181D01*
X216792Y236816D01*
X215729Y235753D01*
X215153Y234364D01*
Y232860D01*
X215729Y231471D01*
X216792Y230407D01*
X218181Y229832D01*
X219685D01*
X221074Y230407D01*
X222138Y231471D01*
X222713Y232860D01*
Y234364D01*
X222138Y235753D01*
X221074Y236816D01*
X219685Y237392D01*
D02*
G37*
G36*
X438444Y233588D02*
X436940D01*
X435551Y233013D01*
X434487Y231949D01*
X433912Y230560D01*
Y229056D01*
X434487Y227667D01*
X435551Y226604D01*
X436940Y226028D01*
X438444D01*
X439833Y226604D01*
X440897Y227667D01*
X441472Y229056D01*
Y230560D01*
X440897Y231949D01*
X439833Y233013D01*
X438444Y233588D01*
D02*
G37*
G36*
X551170Y231872D02*
X549666D01*
X548277Y231297D01*
X547214Y230233D01*
X546638Y228844D01*
Y227340D01*
X547214Y225951D01*
X548277Y224888D01*
X549666Y224312D01*
X551170D01*
X552559Y224888D01*
X553623Y225951D01*
X554198Y227340D01*
Y228844D01*
X553623Y230233D01*
X552559Y231297D01*
X551170Y231872D01*
D02*
G37*
G36*
X693761Y228984D02*
X692258D01*
X690868Y228409D01*
X689805Y227345D01*
X689230Y225956D01*
Y224452D01*
X689805Y223063D01*
X690868Y222000D01*
X692258Y221424D01*
X693761D01*
X695151Y222000D01*
X696214Y223063D01*
X696789Y224452D01*
Y225956D01*
X696214Y227345D01*
X695151Y228409D01*
X693761Y228984D01*
D02*
G37*
G36*
X405266Y228842D02*
X403762D01*
X402373Y228267D01*
X401309Y227203D01*
X400734Y225814D01*
Y224310D01*
X401309Y222921D01*
X402373Y221858D01*
X403762Y221282D01*
X405266D01*
X406655Y221858D01*
X407719Y222921D01*
X408294Y224310D01*
Y225814D01*
X407719Y227203D01*
X406655Y228267D01*
X405266Y228842D01*
D02*
G37*
G36*
X155219Y225129D02*
X153716D01*
X152326Y224554D01*
X151263Y223490D01*
X150688Y222101D01*
Y220597D01*
X151263Y219208D01*
X152326Y218144D01*
X153716Y217569D01*
X155219D01*
X156609Y218144D01*
X157672Y219208D01*
X158247Y220597D01*
Y222101D01*
X157672Y223490D01*
X156609Y224554D01*
X155219Y225129D01*
D02*
G37*
G36*
X232966Y225065D02*
X231463D01*
X230073Y224490D01*
X229010Y223426D01*
X228435Y222037D01*
Y220533D01*
X229010Y219144D01*
X230073Y218081D01*
X231463Y217505D01*
X232966D01*
X234356Y218081D01*
X235419Y219144D01*
X235994Y220533D01*
Y222037D01*
X235419Y223426D01*
X234356Y224490D01*
X232966Y225065D01*
D02*
G37*
G36*
X219685Y224760D02*
X218181D01*
X216792Y224184D01*
X215729Y223121D01*
X215153Y221732D01*
Y220228D01*
X215729Y218839D01*
X216792Y217775D01*
X218181Y217200D01*
X219685D01*
X221074Y217775D01*
X222138Y218839D01*
X222713Y220228D01*
Y221732D01*
X222138Y223121D01*
X221074Y224184D01*
X219685Y224760D01*
D02*
G37*
G36*
X405397Y219438D02*
X403893D01*
X402504Y218863D01*
X401441Y217800D01*
X400865Y216410D01*
Y214907D01*
X401441Y213517D01*
X402504Y212454D01*
X403893Y211878D01*
X405397D01*
X406786Y212454D01*
X407850Y213517D01*
X408425Y214907D01*
Y216410D01*
X407850Y217800D01*
X406786Y218863D01*
X405397Y219438D01*
D02*
G37*
G36*
X395819D02*
X394315D01*
X392926Y218863D01*
X391862Y217800D01*
X391287Y216410D01*
Y214907D01*
X391862Y213517D01*
X392926Y212454D01*
X394315Y211878D01*
X395819D01*
X397208Y212454D01*
X398271Y213517D01*
X398847Y214907D01*
Y216410D01*
X398271Y217800D01*
X397208Y218863D01*
X395819Y219438D01*
D02*
G37*
G36*
X386241D02*
X384737D01*
X383348Y218863D01*
X382284Y217800D01*
X381709Y216410D01*
Y214907D01*
X382284Y213517D01*
X383348Y212454D01*
X384737Y211878D01*
X386241D01*
X387630Y212454D01*
X388693Y213517D01*
X389269Y214907D01*
Y216410D01*
X388693Y217800D01*
X387630Y218863D01*
X386241Y219438D01*
D02*
G37*
G36*
X376662D02*
X375159D01*
X373769Y218863D01*
X372706Y217800D01*
X372130Y216410D01*
Y214907D01*
X372706Y213517D01*
X373769Y212454D01*
X375159Y211878D01*
X376662D01*
X378051Y212454D01*
X379115Y213517D01*
X379690Y214907D01*
Y216410D01*
X379115Y217800D01*
X378051Y218863D01*
X376662Y219438D01*
D02*
G37*
G36*
X438444Y216629D02*
X436940D01*
X435551Y216054D01*
X434487Y214990D01*
X433912Y213601D01*
Y212097D01*
X434487Y210708D01*
X435551Y209645D01*
X436940Y209069D01*
X438444D01*
X439833Y209645D01*
X440897Y210708D01*
X441472Y212097D01*
Y213601D01*
X440897Y214990D01*
X439833Y216054D01*
X438444Y216629D01*
D02*
G37*
G36*
X455406Y216444D02*
X453902D01*
X452513Y215869D01*
X451449Y214805D01*
X450874Y213416D01*
Y211912D01*
X451449Y210523D01*
X452513Y209460D01*
X453902Y208884D01*
X455406D01*
X456795Y209460D01*
X457859Y210523D01*
X458434Y211912D01*
Y213416D01*
X457859Y214805D01*
X456795Y215869D01*
X455406Y216444D01*
D02*
G37*
G36*
X233553Y215932D02*
X232049D01*
X230660Y215356D01*
X229596Y214293D01*
X229021Y212904D01*
Y211400D01*
X229596Y210011D01*
X230660Y208947D01*
X232049Y208372D01*
X233553D01*
X234942Y208947D01*
X236005Y210011D01*
X236581Y211400D01*
Y212904D01*
X236005Y214293D01*
X234942Y215356D01*
X233553Y215932D01*
D02*
G37*
G36*
X116604Y227458D02*
X114028D01*
X111541Y226791D01*
X109311Y225504D01*
X107490Y223683D01*
X106202Y221453D01*
X105536Y218966D01*
Y216390D01*
X106202Y213903D01*
X107490Y211673D01*
X109311Y209852D01*
X111541Y208564D01*
X114028Y207898D01*
X116604D01*
X119091Y208564D01*
X121321Y209852D01*
X123142Y211673D01*
X124430Y213903D01*
X125096Y216390D01*
Y218966D01*
X124430Y221453D01*
X123142Y223683D01*
X121321Y225504D01*
X119091Y226791D01*
X116604Y227458D01*
D02*
G37*
G36*
X763836Y224030D02*
X761564D01*
X759369Y223442D01*
X757401Y222306D01*
X755794Y220699D01*
X754658Y218731D01*
X754070Y216536D01*
Y214264D01*
X754658Y212069D01*
X755794Y210101D01*
X757401Y208494D01*
X759369Y207358D01*
X761564Y206770D01*
X763836D01*
X766031Y207358D01*
X767999Y208494D01*
X769606Y210101D01*
X770742Y212069D01*
X771330Y214264D01*
Y216536D01*
X770742Y218731D01*
X769606Y220699D01*
X767999Y222306D01*
X766031Y223442D01*
X763836Y224030D01*
D02*
G37*
G36*
X738436D02*
X736164D01*
X733969Y223442D01*
X732001Y222306D01*
X730394Y220699D01*
X729258Y218731D01*
X728670Y216536D01*
Y214264D01*
X729258Y212069D01*
X730394Y210101D01*
X732001Y208494D01*
X733969Y207358D01*
X736164Y206770D01*
X738436D01*
X740631Y207358D01*
X742599Y208494D01*
X744206Y210101D01*
X745342Y212069D01*
X745930Y214264D01*
Y216536D01*
X745342Y218731D01*
X744206Y220699D01*
X742599Y222306D01*
X740631Y223442D01*
X738436Y224030D01*
D02*
G37*
G36*
X705275Y208867D02*
X703771D01*
X702381Y208292D01*
X701318Y207228D01*
X700743Y205839D01*
Y204335D01*
X701318Y202946D01*
X702381Y201882D01*
X703771Y201307D01*
X705275D01*
X706664Y201882D01*
X707727Y202946D01*
X708303Y204335D01*
Y205839D01*
X707727Y207228D01*
X706664Y208292D01*
X705275Y208867D01*
D02*
G37*
G36*
X71872Y208722D02*
X70368D01*
X68979Y208146D01*
X67916Y207083D01*
X67340Y205694D01*
Y204190D01*
X67916Y202801D01*
X68979Y201737D01*
X70368Y201162D01*
X71872D01*
X73261Y201737D01*
X74324Y202801D01*
X74900Y204190D01*
Y205694D01*
X74324Y207083D01*
X73261Y208146D01*
X71872Y208722D01*
D02*
G37*
G36*
X446998Y208553D02*
X445494D01*
X444105Y207978D01*
X443041Y206914D01*
X442466Y205525D01*
Y204021D01*
X443041Y202632D01*
X444105Y201569D01*
X445494Y200993D01*
X446998D01*
X448387Y201569D01*
X449450Y202632D01*
X450026Y204021D01*
Y205525D01*
X449450Y206914D01*
X448387Y207978D01*
X446998Y208553D01*
D02*
G37*
G36*
X651546Y293953D02*
X578708D01*
X578586Y198880D01*
X651546D01*
Y293953D01*
D02*
G37*
G36*
X677386Y199808D02*
X675883D01*
X674493Y199232D01*
X673430Y198169D01*
X672855Y196780D01*
Y195276D01*
X673430Y193887D01*
X674493Y192823D01*
X675883Y192248D01*
X677386D01*
X678776Y192823D01*
X679839Y193887D01*
X680415Y195276D01*
Y196780D01*
X679839Y198169D01*
X678776Y199232D01*
X677386Y199808D01*
D02*
G37*
G36*
X54603Y199570D02*
X53100D01*
X51710Y198994D01*
X50647Y197931D01*
X50072Y196542D01*
Y195038D01*
X50647Y193648D01*
X51710Y192585D01*
X53100Y192010D01*
X54603D01*
X55993Y192585D01*
X57056Y193648D01*
X57632Y195038D01*
Y196542D01*
X57056Y197931D01*
X55993Y198994D01*
X54603Y199570D01*
D02*
G37*
G36*
X116604Y202058D02*
X114028D01*
X111541Y201392D01*
X109311Y200104D01*
X107490Y198283D01*
X106202Y196053D01*
X105536Y193566D01*
Y190990D01*
X106202Y188503D01*
X107490Y186273D01*
X109311Y184452D01*
X111541Y183165D01*
X114028Y182498D01*
X116604D01*
X119091Y183165D01*
X121321Y184452D01*
X123142Y186273D01*
X124430Y188503D01*
X125096Y190990D01*
Y193566D01*
X124430Y196053D01*
X123142Y198283D01*
X121321Y200104D01*
X119091Y201392D01*
X116604Y202058D01*
D02*
G37*
G36*
X763836Y198630D02*
X761564D01*
X759369Y198042D01*
X757401Y196906D01*
X755794Y195299D01*
X754658Y193331D01*
X754070Y191136D01*
Y188864D01*
X754658Y186669D01*
X755794Y184701D01*
X757401Y183094D01*
X759369Y181958D01*
X761564Y181370D01*
X763836D01*
X766031Y181958D01*
X767999Y183094D01*
X769606Y184701D01*
X770742Y186669D01*
X771330Y188864D01*
Y191136D01*
X770742Y193331D01*
X769606Y195299D01*
X767999Y196906D01*
X766031Y198042D01*
X763836Y198630D01*
D02*
G37*
G36*
X738436D02*
X736164D01*
X733969Y198042D01*
X732001Y196906D01*
X730394Y195299D01*
X729258Y193331D01*
X728670Y191136D01*
Y188864D01*
X729258Y186669D01*
X730394Y184701D01*
X732001Y183094D01*
X733969Y181958D01*
X736164Y181370D01*
X738436D01*
X740631Y181958D01*
X742599Y183094D01*
X744206Y184701D01*
X745342Y186669D01*
X745930Y188864D01*
Y191136D01*
X745342Y193331D01*
X744206Y195299D01*
X742599Y196906D01*
X740631Y198042D01*
X738436Y198630D01*
D02*
G37*
G36*
X527666Y188171D02*
X526162D01*
X524773Y187596D01*
X523709Y186532D01*
X523134Y185143D01*
Y183639D01*
X523709Y182250D01*
X524773Y181187D01*
X526162Y180611D01*
X527666D01*
X529055Y181187D01*
X530119Y182250D01*
X530694Y183639D01*
Y185143D01*
X530119Y186532D01*
X529055Y187596D01*
X527666Y188171D01*
D02*
G37*
G36*
X538511Y187871D02*
X537007D01*
X535618Y187295D01*
X534554Y186232D01*
X533979Y184843D01*
Y183339D01*
X534554Y181950D01*
X535618Y180886D01*
X537007Y180311D01*
X538511D01*
X539900Y180886D01*
X540963Y181950D01*
X541539Y183339D01*
Y184843D01*
X540963Y186232D01*
X539900Y187295D01*
X538511Y187871D01*
D02*
G37*
G36*
X675772Y187043D02*
X674269D01*
X672879Y186467D01*
X671816Y185404D01*
X671241Y184015D01*
Y182511D01*
X671816Y181122D01*
X672879Y180058D01*
X674269Y179483D01*
X675772D01*
X677162Y180058D01*
X678225Y181122D01*
X678801Y182511D01*
Y184015D01*
X678225Y185404D01*
X677162Y186467D01*
X675772Y187043D01*
D02*
G37*
G36*
X281490Y180527D02*
Y177950D01*
X284067D01*
X283645Y178969D01*
X282509Y180105D01*
X281490Y180527D01*
D02*
G37*
G36*
X278950D02*
X277931Y180105D01*
X276795Y178969D01*
X276373Y177950D01*
X278950D01*
Y180527D01*
D02*
G37*
G36*
X307490D02*
Y177950D01*
X310067D01*
X309645Y178969D01*
X308508Y180105D01*
X307490Y180527D01*
D02*
G37*
G36*
X294490D02*
Y177950D01*
X297067D01*
X296645Y178969D01*
X295508Y180105D01*
X294490Y180527D01*
D02*
G37*
G36*
X304950D02*
X303932Y180105D01*
X302795Y178969D01*
X302373Y177950D01*
X304950D01*
Y180527D01*
D02*
G37*
G36*
X291950D02*
X290931Y180105D01*
X289795Y178969D01*
X289373Y177950D01*
X291950D01*
Y180527D01*
D02*
G37*
G36*
X320490D02*
Y177950D01*
X323067D01*
X322645Y178969D01*
X321508Y180105D01*
X320490Y180527D01*
D02*
G37*
G36*
X317950D02*
X316931Y180105D01*
X315795Y178969D01*
X315373Y177950D01*
X317950D01*
Y180527D01*
D02*
G37*
G36*
X94067Y183590D02*
X92563D01*
X91174Y183015D01*
X90110Y181952D01*
X89535Y180562D01*
Y179058D01*
X90110Y177669D01*
X91174Y176606D01*
X92563Y176030D01*
X94067D01*
X95456Y176606D01*
X96519Y177669D01*
X97095Y179058D01*
Y180562D01*
X96519Y181952D01*
X95456Y183015D01*
X94067Y183590D01*
D02*
G37*
G36*
X323067Y175410D02*
X320490D01*
Y172833D01*
X321508Y173255D01*
X322645Y174391D01*
X323067Y175410D01*
D02*
G37*
G36*
X278950Y175410D02*
X276373D01*
X276795Y174391D01*
X277931Y173255D01*
X278950Y172833D01*
Y175410D01*
D02*
G37*
G36*
X310067Y175410D02*
X307490D01*
Y172833D01*
X308508Y173255D01*
X309645Y174391D01*
X310067Y175410D01*
D02*
G37*
G36*
X297067D02*
X294490D01*
Y172833D01*
X295508Y173255D01*
X296645Y174391D01*
X297067Y175410D01*
D02*
G37*
G36*
X304950D02*
X302373D01*
X302795Y174391D01*
X303932Y173255D01*
X304950Y172833D01*
Y175410D01*
D02*
G37*
G36*
X291950D02*
X289373D01*
X289795Y174391D01*
X290931Y173255D01*
X291950Y172833D01*
Y175410D01*
D02*
G37*
G36*
X284067Y175410D02*
X281490D01*
Y172833D01*
X282509Y173255D01*
X283645Y174391D01*
X284067Y175410D01*
D02*
G37*
G36*
X317950Y175410D02*
X315373D01*
X315795Y174391D01*
X316931Y173255D01*
X317950Y172833D01*
Y175410D01*
D02*
G37*
G36*
X555234Y177770D02*
X553730D01*
X552341Y177194D01*
X551278Y176131D01*
X550702Y174742D01*
Y173238D01*
X551278Y171849D01*
X552341Y170786D01*
X553730Y170210D01*
X555234D01*
X556623Y170786D01*
X557687Y171849D01*
X558262Y173238D01*
Y174742D01*
X557687Y176131D01*
X556623Y177194D01*
X555234Y177770D01*
D02*
G37*
G36*
X213592Y173161D02*
X212089D01*
X210699Y172586D01*
X209636Y171522D01*
X209060Y170133D01*
Y168629D01*
X209636Y167240D01*
X210699Y166176D01*
X212089Y165601D01*
X213592D01*
X214982Y166176D01*
X216045Y167240D01*
X216621Y168629D01*
Y170133D01*
X216045Y171522D01*
X214982Y172586D01*
X213592Y173161D01*
D02*
G37*
G36*
X676946Y172517D02*
X675443D01*
X674053Y171942D01*
X672990Y170878D01*
X672414Y169489D01*
Y167985D01*
X672990Y166596D01*
X674053Y165533D01*
X675443Y164957D01*
X676946D01*
X678336Y165533D01*
X679399Y166596D01*
X679974Y167985D01*
Y169489D01*
X679399Y170878D01*
X678336Y171942D01*
X676946Y172517D01*
D02*
G37*
G36*
X281490Y167527D02*
Y164950D01*
X284067D01*
X283645Y165968D01*
X282509Y167105D01*
X281490Y167527D01*
D02*
G37*
G36*
X278950D02*
X277931Y167105D01*
X276795Y165968D01*
X276373Y164950D01*
X278950D01*
Y167527D01*
D02*
G37*
G36*
X307490D02*
Y164950D01*
X310067D01*
X309645Y165968D01*
X308508Y167105D01*
X307490Y167527D01*
D02*
G37*
G36*
X294490D02*
Y164950D01*
X297067D01*
X296645Y165968D01*
X295508Y167105D01*
X294490Y167527D01*
D02*
G37*
G36*
X304950D02*
X303932Y167105D01*
X302795Y165968D01*
X302373Y164950D01*
X304950D01*
Y167527D01*
D02*
G37*
G36*
X291950D02*
X290931Y167105D01*
X289795Y165968D01*
X289373Y164950D01*
X291950D01*
Y167527D01*
D02*
G37*
G36*
X320490D02*
Y164950D01*
X323067D01*
X322645Y165968D01*
X321508Y167105D01*
X320490Y167527D01*
D02*
G37*
G36*
X317950D02*
X316931Y167105D01*
X315795Y165968D01*
X315373Y164950D01*
X317950D01*
Y167527D01*
D02*
G37*
G36*
X323067Y162410D02*
X320490D01*
Y159833D01*
X321508Y160255D01*
X322645Y161392D01*
X323067Y162410D01*
D02*
G37*
G36*
X278950Y162410D02*
X276373D01*
X276795Y161392D01*
X277931Y160255D01*
X278950Y159833D01*
Y162410D01*
D02*
G37*
G36*
X310067Y162410D02*
X307490D01*
Y159833D01*
X308508Y160255D01*
X309645Y161392D01*
X310067Y162410D01*
D02*
G37*
G36*
X297067D02*
X294490D01*
Y159833D01*
X295508Y160255D01*
X296645Y161392D01*
X297067Y162410D01*
D02*
G37*
G36*
X304950D02*
X302373D01*
X302795Y161392D01*
X303932Y160255D01*
X304950Y159833D01*
Y162410D01*
D02*
G37*
G36*
X291950D02*
X289373D01*
X289795Y161392D01*
X290931Y160255D01*
X291950Y159833D01*
Y162410D01*
D02*
G37*
G36*
X284067Y162410D02*
X281490D01*
Y159833D01*
X282509Y160255D01*
X283645Y161392D01*
X284067Y162410D01*
D02*
G37*
G36*
X317950Y162410D02*
X315373D01*
X315795Y161392D01*
X316931Y160255D01*
X317950Y159833D01*
Y162410D01*
D02*
G37*
G36*
X763836Y173230D02*
X761564D01*
X759369Y172642D01*
X757401Y171506D01*
X755794Y169899D01*
X754658Y167931D01*
X754070Y165736D01*
Y163464D01*
X754658Y161269D01*
X755794Y159301D01*
X757401Y157694D01*
X759369Y156558D01*
X761564Y155970D01*
X763836D01*
X766031Y156558D01*
X767999Y157694D01*
X769606Y159301D01*
X770742Y161269D01*
X771330Y163464D01*
Y165736D01*
X770742Y167931D01*
X769606Y169899D01*
X767999Y171506D01*
X766031Y172642D01*
X763836Y173230D01*
D02*
G37*
G36*
X738436D02*
X736164D01*
X733969Y172642D01*
X732001Y171506D01*
X730394Y169899D01*
X729258Y167931D01*
X728670Y165736D01*
Y163464D01*
X729258Y161269D01*
X730394Y159301D01*
X732001Y157694D01*
X733969Y156558D01*
X736164Y155970D01*
X738436D01*
X740631Y156558D01*
X742599Y157694D01*
X744206Y159301D01*
X745342Y161269D01*
X745930Y163464D01*
Y165736D01*
X745342Y167931D01*
X744206Y169899D01*
X742599Y171506D01*
X740631Y172642D01*
X738436Y173230D01*
D02*
G37*
G36*
X105053Y176706D02*
X103550D01*
X102160Y176130D01*
X101097Y175067D01*
X100521Y173678D01*
Y172174D01*
X101097Y170784D01*
X102160Y169721D01*
X103550Y169146D01*
X105053D01*
X105536Y169346D01*
Y150748D01*
X125096D01*
Y170308D01*
X107030D01*
X107506Y170784D01*
X108082Y172174D01*
Y173678D01*
X107506Y175067D01*
X106443Y176130D01*
X105053Y176706D01*
D02*
G37*
G36*
X484876Y152878D02*
X483372D01*
X481983Y152303D01*
X480919Y151239D01*
X480344Y149850D01*
Y148346D01*
X480919Y146957D01*
X481983Y145893D01*
X483372Y145318D01*
X484876D01*
X486265Y145893D01*
X487328Y146957D01*
X487904Y148346D01*
Y149850D01*
X487328Y151239D01*
X486265Y152303D01*
X484876Y152878D01*
D02*
G37*
G36*
X98288Y148661D02*
X96784D01*
X95395Y148085D01*
X94331Y147022D01*
X93756Y145633D01*
Y144129D01*
X94331Y142740D01*
X95395Y141677D01*
X96784Y141101D01*
X98288D01*
X99677Y141677D01*
X100740Y142740D01*
X101316Y144129D01*
Y145633D01*
X100740Y147022D01*
X99677Y148085D01*
X98288Y148661D01*
D02*
G37*
G36*
X629920Y182118D02*
X599722D01*
X599666Y138176D01*
X629920D01*
Y182118D01*
D02*
G37*
G36*
X716178Y141574D02*
X714675D01*
X713285Y140998D01*
X712222Y139935D01*
X711646Y138546D01*
Y137042D01*
X712222Y135653D01*
X713285Y134589D01*
X714675Y134014D01*
X716178D01*
X717568Y134589D01*
X718631Y135653D01*
X719206Y137042D01*
Y138546D01*
X718631Y139935D01*
X717568Y140998D01*
X716178Y141574D01*
D02*
G37*
G36*
X592077Y138417D02*
X590574D01*
X589184Y137841D01*
X588121Y136778D01*
X587546Y135389D01*
Y133885D01*
X588121Y132496D01*
X589184Y131432D01*
X590574Y130857D01*
X592077D01*
X593467Y131432D01*
X594530Y132496D01*
X595106Y133885D01*
Y135389D01*
X594530Y136778D01*
X593467Y137841D01*
X592077Y138417D01*
D02*
G37*
G36*
X57140Y138146D02*
X55636D01*
X54247Y137570D01*
X53183Y136507D01*
X52608Y135118D01*
Y133614D01*
X53183Y132225D01*
X54247Y131161D01*
X55636Y130586D01*
X57140D01*
X58529Y131161D01*
X59592Y132225D01*
X60168Y133614D01*
Y135118D01*
X59592Y136507D01*
X58529Y137570D01*
X57140Y138146D01*
D02*
G37*
G36*
X763836Y147830D02*
X761564D01*
X759369Y147242D01*
X757401Y146106D01*
X755794Y144499D01*
X754658Y142531D01*
X754070Y140336D01*
Y138064D01*
X754658Y135869D01*
X755794Y133901D01*
X757401Y132294D01*
X759369Y131158D01*
X761564Y130570D01*
X763836D01*
X766031Y131158D01*
X767999Y132294D01*
X769606Y133901D01*
X770742Y135869D01*
X771330Y138064D01*
Y140336D01*
X770742Y142531D01*
X769606Y144499D01*
X767999Y146106D01*
X766031Y147242D01*
X763836Y147830D01*
D02*
G37*
G36*
X738436D02*
X736164D01*
X733969Y147242D01*
X732001Y146106D01*
X730394Y144499D01*
X729258Y142531D01*
X728670Y140336D01*
Y138064D01*
X729258Y135869D01*
X730394Y133901D01*
X732001Y132294D01*
X733969Y131158D01*
X736164Y130570D01*
X738436D01*
X740631Y131158D01*
X742599Y132294D01*
X744206Y133901D01*
X745342Y135869D01*
X745930Y138064D01*
Y140336D01*
X745342Y142531D01*
X744206Y144499D01*
X742599Y146106D01*
X740631Y147242D01*
X738436Y147830D01*
D02*
G37*
G36*
X220644Y133252D02*
X219140D01*
X217750Y132676D01*
X216687Y131613D01*
X216112Y130224D01*
Y128720D01*
X216687Y127330D01*
X217750Y126267D01*
X219140Y125692D01*
X220644D01*
X222033Y126267D01*
X223096Y127330D01*
X223672Y128720D01*
Y130224D01*
X223096Y131613D01*
X222033Y132676D01*
X220644Y133252D01*
D02*
G37*
G36*
X116604Y144908D02*
X114028D01*
X111541Y144242D01*
X109311Y142954D01*
X107490Y141133D01*
X106202Y138903D01*
X105536Y136416D01*
Y133840D01*
X106202Y131353D01*
X107490Y129123D01*
X109311Y127302D01*
X111541Y126014D01*
X114028Y125348D01*
X116604D01*
X119091Y126014D01*
X121321Y127302D01*
X123142Y129123D01*
X124430Y131353D01*
X125096Y133840D01*
Y136416D01*
X124430Y138903D01*
X123142Y141133D01*
X121321Y142954D01*
X119091Y144242D01*
X116604Y144908D01*
D02*
G37*
G36*
X680567Y131406D02*
X679063D01*
X677674Y130830D01*
X676610Y129767D01*
X676035Y128377D01*
Y126874D01*
X676610Y125484D01*
X677674Y124421D01*
X679063Y123846D01*
X680567D01*
X681956Y124421D01*
X683019Y125484D01*
X683595Y126874D01*
Y128377D01*
X683019Y129767D01*
X681956Y130830D01*
X680567Y131406D01*
D02*
G37*
G36*
X633050Y131108D02*
X631546D01*
X630157Y130533D01*
X629093Y129469D01*
X628518Y128080D01*
Y126576D01*
X629093Y125187D01*
X630157Y124124D01*
X631546Y123548D01*
X633050D01*
X634439Y124124D01*
X635502Y125187D01*
X636078Y126576D01*
Y128080D01*
X635502Y129469D01*
X634439Y130533D01*
X633050Y131108D01*
D02*
G37*
G36*
X494729Y130322D02*
X493225D01*
X491836Y129747D01*
X490773Y128683D01*
X490197Y127294D01*
Y125790D01*
X490773Y124401D01*
X491836Y123337D01*
X493225Y122762D01*
X494729D01*
X496118Y123337D01*
X497182Y124401D01*
X497757Y125790D01*
Y127294D01*
X497182Y128683D01*
X496118Y129747D01*
X494729Y130322D01*
D02*
G37*
G36*
X278326Y127930D02*
X276822D01*
X275433Y127354D01*
X274370Y126291D01*
X273794Y124902D01*
Y123398D01*
X274370Y122009D01*
X275433Y120945D01*
X276822Y120370D01*
X278326D01*
X279716Y120945D01*
X280779Y122009D01*
X281354Y123398D01*
Y124902D01*
X280779Y126291D01*
X279716Y127354D01*
X278326Y127930D01*
D02*
G37*
G36*
X398770Y127732D02*
X397266D01*
X395877Y127156D01*
X394813Y126093D01*
X394238Y124704D01*
Y123200D01*
X394813Y121811D01*
X395877Y120747D01*
X397266Y120172D01*
X398770D01*
X400159Y120747D01*
X401222Y121811D01*
X401798Y123200D01*
Y124704D01*
X401222Y126093D01*
X400159Y127156D01*
X398770Y127732D01*
D02*
G37*
G36*
X152136Y126716D02*
X150632D01*
X149243Y126140D01*
X148180Y125077D01*
X147604Y123688D01*
Y122184D01*
X148180Y120795D01*
X149243Y119732D01*
X150632Y119156D01*
X152136D01*
X153525Y119732D01*
X154588Y120795D01*
X155164Y122184D01*
Y123688D01*
X154588Y125077D01*
X153525Y126140D01*
X152136Y126716D01*
D02*
G37*
G36*
X527666Y122184D02*
X526162D01*
X524773Y121608D01*
X523710Y120545D01*
X523134Y119156D01*
Y117652D01*
X523710Y116263D01*
X524773Y115199D01*
X526162Y114624D01*
X527666D01*
X529055Y115199D01*
X530119Y116263D01*
X530694Y117652D01*
Y119156D01*
X530119Y120545D01*
X529055Y121608D01*
X527666Y122184D01*
D02*
G37*
G36*
X512210D02*
X510706D01*
X509316Y121608D01*
X508253Y120545D01*
X507678Y119156D01*
Y117652D01*
X508253Y116263D01*
X509316Y115199D01*
X510706Y114624D01*
X512210D01*
X513599Y115199D01*
X514662Y116263D01*
X515238Y117652D01*
Y119156D01*
X514662Y120545D01*
X513599Y121608D01*
X512210Y122184D01*
D02*
G37*
G36*
X502994D02*
X501490D01*
X500101Y121608D01*
X499038Y120545D01*
X498462Y119156D01*
Y117652D01*
X499038Y116263D01*
X500101Y115199D01*
X501490Y114624D01*
X502994D01*
X504384Y115199D01*
X505447Y116263D01*
X506022Y117652D01*
Y119156D01*
X505447Y120545D01*
X504384Y121608D01*
X502994Y122184D01*
D02*
G37*
G36*
X116704Y120268D02*
X116586D01*
Y110998D01*
X125856D01*
Y111116D01*
X125138Y113796D01*
X123750Y116200D01*
X121788Y118162D01*
X119384Y119550D01*
X116704Y120268D01*
D02*
G37*
G36*
X114046D02*
X113928D01*
X111248Y119550D01*
X108844Y118162D01*
X106882Y116200D01*
X105494Y113796D01*
X104776Y111116D01*
Y110998D01*
X114046D01*
Y120268D01*
D02*
G37*
G36*
X196400Y116810D02*
X194897D01*
X193507Y116235D01*
X192444Y115171D01*
X191868Y113782D01*
Y112278D01*
X192444Y110889D01*
X193507Y109825D01*
X194897Y109250D01*
X196400D01*
X197790Y109825D01*
X198853Y110889D01*
X199428Y112278D01*
Y113782D01*
X198853Y115171D01*
X197790Y116235D01*
X196400Y116810D01*
D02*
G37*
G36*
X178552D02*
X177048D01*
X175659Y116235D01*
X174596Y115171D01*
X174020Y113782D01*
Y112278D01*
X174596Y110889D01*
X175659Y109825D01*
X177048Y109250D01*
X178552D01*
X179941Y109825D01*
X181005Y110889D01*
X181580Y112278D01*
Y113782D01*
X181005Y115171D01*
X179941Y116235D01*
X178552Y116810D01*
D02*
G37*
G36*
X771330Y122430D02*
X754070D01*
Y105170D01*
X771330D01*
Y122430D01*
D02*
G37*
G36*
X738436D02*
X736164D01*
X733969Y121842D01*
X732001Y120706D01*
X730394Y119099D01*
X729258Y117131D01*
X728670Y114936D01*
Y112664D01*
X729258Y110469D01*
X730394Y108501D01*
X732001Y106894D01*
X733969Y105758D01*
X736164Y105170D01*
X738436D01*
X740631Y105758D01*
X742599Y106894D01*
X744206Y108501D01*
X745342Y110469D01*
X745930Y112664D01*
Y114936D01*
X745342Y117131D01*
X744206Y119099D01*
X742599Y120706D01*
X740631Y121842D01*
X738436Y122430D01*
D02*
G37*
G36*
X187476Y110142D02*
X185972D01*
X184583Y109567D01*
X183520Y108504D01*
X182944Y107114D01*
Y105611D01*
X183520Y104221D01*
X184583Y103158D01*
X185972Y102583D01*
X187476D01*
X188865Y103158D01*
X189929Y104221D01*
X190504Y105611D01*
Y107114D01*
X189929Y108504D01*
X188865Y109567D01*
X187476Y110142D01*
D02*
G37*
G36*
X98288Y107276D02*
X96784D01*
X95395Y106701D01*
X94331Y105638D01*
X93756Y104248D01*
Y102745D01*
X94331Y101355D01*
X95395Y100292D01*
X96784Y99717D01*
X98288D01*
X99677Y100292D01*
X100740Y101355D01*
X101316Y102745D01*
Y104248D01*
X100740Y105638D01*
X99677Y106701D01*
X98288Y107276D01*
D02*
G37*
G36*
X125856Y108458D02*
X116586D01*
Y99188D01*
X116704D01*
X119384Y99906D01*
X121788Y101294D01*
X123750Y103256D01*
X125138Y105660D01*
X125856Y108340D01*
Y108458D01*
D02*
G37*
G36*
X114046D02*
X104776D01*
Y108340D01*
X105494Y105660D01*
X106882Y103256D01*
X108844Y101294D01*
X111248Y99906D01*
X113928Y99188D01*
X114046D01*
Y108458D01*
D02*
G37*
G36*
X196400Y103475D02*
X194897D01*
X193507Y102900D01*
X192444Y101836D01*
X191868Y100447D01*
Y98943D01*
X192444Y97554D01*
X193507Y96490D01*
X194897Y95915D01*
X196400D01*
X197790Y96490D01*
X198853Y97554D01*
X199428Y98943D01*
Y100447D01*
X198853Y101836D01*
X197790Y102900D01*
X196400Y103475D01*
D02*
G37*
G36*
X178552D02*
X177048D01*
X175659Y102900D01*
X174596Y101836D01*
X174020Y100447D01*
Y98943D01*
X174596Y97554D01*
X175659Y96490D01*
X177048Y95915D01*
X178552D01*
X179941Y96490D01*
X181005Y97554D01*
X181580Y98943D01*
Y100447D01*
X181005Y101836D01*
X179941Y102900D01*
X178552Y103475D01*
D02*
G37*
G36*
X678027Y100607D02*
X676523D01*
X675134Y100031D01*
X674071Y98968D01*
X673495Y97578D01*
Y96075D01*
X674071Y94685D01*
X675134Y93622D01*
X676523Y93047D01*
X678027D01*
X679416Y93622D01*
X680480Y94685D01*
X681055Y96075D01*
Y97578D01*
X680480Y98968D01*
X679416Y100031D01*
X678027Y100607D01*
D02*
G37*
G36*
X187476Y96807D02*
X185972D01*
X184583Y96232D01*
X183520Y95169D01*
X182944Y93779D01*
Y92276D01*
X183520Y90886D01*
X184583Y89823D01*
X185972Y89248D01*
X187476D01*
X188865Y89823D01*
X189929Y90886D01*
X190504Y92276D01*
Y93779D01*
X189929Y95169D01*
X188865Y96232D01*
X187476Y96807D01*
D02*
G37*
G36*
X77968Y95728D02*
X76464D01*
X75075Y95153D01*
X74012Y94089D01*
X73436Y92700D01*
Y91196D01*
X74012Y89807D01*
X75075Y88743D01*
X76464Y88168D01*
X77968D01*
X79357Y88743D01*
X80421Y89807D01*
X80996Y91196D01*
Y92700D01*
X80421Y94089D01*
X79357Y95153D01*
X77968Y95728D01*
D02*
G37*
G36*
X626062Y78070D02*
X623938D01*
X621885Y77520D01*
X620045Y76458D01*
X618542Y74955D01*
X617480Y73115D01*
X616930Y71062D01*
Y68938D01*
X617480Y66885D01*
X618542Y65045D01*
X620045Y63542D01*
X621885Y62480D01*
X623938Y61930D01*
X626062D01*
X628115Y62480D01*
X629955Y63542D01*
X631458Y65045D01*
X632520Y66885D01*
X633070Y68938D01*
Y71062D01*
X632520Y73115D01*
X631458Y74955D01*
X629955Y76458D01*
X628115Y77520D01*
X626062Y78070D01*
D02*
G37*
G36*
X606062D02*
X603938D01*
X601885Y77520D01*
X600045Y76458D01*
X598542Y74955D01*
X597480Y73115D01*
X596930Y71062D01*
Y68938D01*
X597480Y66885D01*
X598542Y65045D01*
X600045Y63542D01*
X601885Y62480D01*
X603938Y61930D01*
X606062D01*
X608115Y62480D01*
X609955Y63542D01*
X611458Y65045D01*
X612520Y66885D01*
X613070Y68938D01*
Y71062D01*
X612520Y73115D01*
X611458Y74955D01*
X609955Y76458D01*
X608115Y77520D01*
X606062Y78070D01*
D02*
G37*
G36*
X586062D02*
X583938D01*
X581885Y77520D01*
X580045Y76458D01*
X578542Y74955D01*
X577480Y73115D01*
X576930Y71062D01*
Y68938D01*
X577480Y66885D01*
X578542Y65045D01*
X580045Y63542D01*
X581885Y62480D01*
X583938Y61930D01*
X586062D01*
X588115Y62480D01*
X589955Y63542D01*
X591458Y65045D01*
X592520Y66885D01*
X593070Y68938D01*
Y71062D01*
X592520Y73115D01*
X591458Y74955D01*
X589955Y76458D01*
X588115Y77520D01*
X586062Y78070D01*
D02*
G37*
G36*
X566062D02*
X563938D01*
X561885Y77520D01*
X560045Y76458D01*
X558542Y74955D01*
X557480Y73115D01*
X556930Y71062D01*
Y68938D01*
X557480Y66885D01*
X558542Y65045D01*
X560045Y63542D01*
X561885Y62480D01*
X563938Y61930D01*
X566062D01*
X568115Y62480D01*
X569955Y63542D01*
X571458Y65045D01*
X572520Y66885D01*
X573070Y68938D01*
Y71062D01*
X572520Y73115D01*
X571458Y74955D01*
X569955Y76458D01*
X568115Y77520D01*
X566062Y78070D01*
D02*
G37*
G36*
X546062D02*
X543937D01*
X541885Y77520D01*
X540045Y76458D01*
X538542Y74955D01*
X537480Y73115D01*
X536930Y71062D01*
Y68938D01*
X537480Y66885D01*
X538542Y65045D01*
X540045Y63542D01*
X541885Y62480D01*
X543937Y61930D01*
X546062D01*
X548115Y62480D01*
X549955Y63542D01*
X551458Y65045D01*
X552520Y66885D01*
X553070Y68938D01*
Y71062D01*
X552520Y73115D01*
X551458Y74955D01*
X549955Y76458D01*
X548115Y77520D01*
X546062Y78070D01*
D02*
G37*
G36*
X526062D02*
X523938D01*
X521885Y77520D01*
X520045Y76458D01*
X518542Y74955D01*
X517480Y73115D01*
X516930Y71062D01*
Y68938D01*
X517480Y66885D01*
X518542Y65045D01*
X520045Y63542D01*
X521885Y62480D01*
X523938Y61930D01*
X526062D01*
X528115Y62480D01*
X529955Y63542D01*
X531458Y65045D01*
X532520Y66885D01*
X533070Y68938D01*
Y71062D01*
X532520Y73115D01*
X531458Y74955D01*
X529955Y76458D01*
X528115Y77520D01*
X526062Y78070D01*
D02*
G37*
G36*
X506062D02*
X503937D01*
X501885Y77520D01*
X500045Y76458D01*
X498542Y74955D01*
X497480Y73115D01*
X496930Y71062D01*
Y68938D01*
X497480Y66885D01*
X498542Y65045D01*
X500045Y63542D01*
X501885Y62480D01*
X503937Y61930D01*
X506062D01*
X508115Y62480D01*
X509955Y63542D01*
X511458Y65045D01*
X512520Y66885D01*
X513070Y68938D01*
Y71062D01*
X512520Y73115D01*
X511458Y74955D01*
X509955Y76458D01*
X508115Y77520D01*
X506062Y78070D01*
D02*
G37*
G36*
X486062D02*
X483938D01*
X481885Y77520D01*
X480045Y76458D01*
X478542Y74955D01*
X477480Y73115D01*
X476930Y71062D01*
Y68938D01*
X477480Y66885D01*
X478542Y65045D01*
X480045Y63542D01*
X481885Y62480D01*
X483938Y61930D01*
X486062D01*
X488115Y62480D01*
X489955Y63542D01*
X491458Y65045D01*
X492520Y66885D01*
X493070Y68938D01*
Y71062D01*
X492520Y73115D01*
X491458Y74955D01*
X489955Y76458D01*
X488115Y77520D01*
X486062Y78070D01*
D02*
G37*
G36*
X150300Y64544D02*
X148796D01*
X147407Y63969D01*
X146343Y62905D01*
X145768Y61516D01*
Y60012D01*
X146343Y58623D01*
X147407Y57560D01*
X148796Y56984D01*
X150300D01*
X151689Y57560D01*
X152753Y58623D01*
X153328Y60012D01*
Y61516D01*
X152753Y62905D01*
X151689Y63969D01*
X150300Y64544D01*
D02*
G37*
G36*
X626270Y58801D02*
Y51270D01*
X633801D01*
X633228Y53408D01*
X632066Y55422D01*
X630422Y57066D01*
X628408Y58228D01*
X626270Y58801D01*
D02*
G37*
G36*
X623730D02*
X621592Y58228D01*
X619578Y57066D01*
X617934Y55422D01*
X616772Y53408D01*
X616199Y51270D01*
X623730D01*
Y58801D01*
D02*
G37*
G36*
X606270D02*
Y51270D01*
X613801D01*
X613228Y53408D01*
X612066Y55422D01*
X610422Y57066D01*
X608408Y58228D01*
X606270Y58801D01*
D02*
G37*
G36*
X603730D02*
X601592Y58228D01*
X599578Y57066D01*
X597934Y55422D01*
X596772Y53408D01*
X596199Y51270D01*
X603730D01*
Y58801D01*
D02*
G37*
G36*
X586270D02*
Y51270D01*
X593801D01*
X593228Y53408D01*
X592066Y55422D01*
X590422Y57066D01*
X588408Y58228D01*
X586270Y58801D01*
D02*
G37*
G36*
X583730D02*
X581592Y58228D01*
X579578Y57066D01*
X577934Y55422D01*
X576772Y53408D01*
X576199Y51270D01*
X583730D01*
Y58801D01*
D02*
G37*
G36*
X466270D02*
Y51270D01*
X473801D01*
X473228Y53408D01*
X472066Y55422D01*
X470422Y57066D01*
X468408Y58228D01*
X466270Y58801D01*
D02*
G37*
G36*
X661748Y73280D02*
X658252D01*
X654874Y72375D01*
X651846Y70627D01*
X649373Y68154D01*
X647625Y65126D01*
X646720Y61748D01*
Y58252D01*
X647625Y54874D01*
X649373Y51846D01*
X651846Y49373D01*
X654874Y47625D01*
X658252Y46720D01*
X661748D01*
X665126Y47625D01*
X668154Y49373D01*
X670627Y51846D01*
X672375Y54874D01*
X673280Y58252D01*
Y61748D01*
X672375Y65126D01*
X670627Y68154D01*
X668154Y70627D01*
X665126Y72375D01*
X661748Y73280D01*
D02*
G37*
G36*
X566062Y58070D02*
X563938D01*
X561885Y57520D01*
X560045Y56458D01*
X558542Y54955D01*
X557480Y53115D01*
X556930Y51062D01*
Y48938D01*
X557480Y46885D01*
X558542Y45045D01*
X560045Y43542D01*
X561885Y42480D01*
X563938Y41930D01*
X566062D01*
X568115Y42480D01*
X569955Y43542D01*
X571458Y45045D01*
X572520Y46885D01*
X573070Y48938D01*
Y51062D01*
X572520Y53115D01*
X571458Y54955D01*
X569955Y56458D01*
X568115Y57520D01*
X566062Y58070D01*
D02*
G37*
G36*
X546062D02*
X543937D01*
X541885Y57520D01*
X540045Y56458D01*
X538542Y54955D01*
X537480Y53115D01*
X536930Y51062D01*
Y48938D01*
X537480Y46885D01*
X538542Y45045D01*
X540045Y43542D01*
X541885Y42480D01*
X543937Y41930D01*
X546062D01*
X548115Y42480D01*
X549955Y43542D01*
X551458Y45045D01*
X552520Y46885D01*
X553070Y48938D01*
Y51062D01*
X552520Y53115D01*
X551458Y54955D01*
X549955Y56458D01*
X548115Y57520D01*
X546062Y58070D01*
D02*
G37*
G36*
X526062D02*
X523938D01*
X521885Y57520D01*
X520045Y56458D01*
X518542Y54955D01*
X517480Y53115D01*
X516930Y51062D01*
Y48938D01*
X517480Y46885D01*
X518542Y45045D01*
X520045Y43542D01*
X521885Y42480D01*
X523938Y41930D01*
X526062D01*
X528115Y42480D01*
X529955Y43542D01*
X531458Y45045D01*
X532520Y46885D01*
X533070Y48938D01*
Y51062D01*
X532520Y53115D01*
X531458Y54955D01*
X529955Y56458D01*
X528115Y57520D01*
X526062Y58070D01*
D02*
G37*
G36*
X506062D02*
X503937D01*
X501885Y57520D01*
X500045Y56458D01*
X498542Y54955D01*
X497480Y53115D01*
X496930Y51062D01*
Y48938D01*
X497480Y46885D01*
X498542Y45045D01*
X500045Y43542D01*
X501885Y42480D01*
X503937Y41930D01*
X506062D01*
X508115Y42480D01*
X509955Y43542D01*
X511458Y45045D01*
X512520Y46885D01*
X513070Y48938D01*
Y51062D01*
X512520Y53115D01*
X511458Y54955D01*
X509955Y56458D01*
X508115Y57520D01*
X506062Y58070D01*
D02*
G37*
G36*
X486062D02*
X483938D01*
X481885Y57520D01*
X480045Y56458D01*
X478542Y54955D01*
X477480Y53115D01*
X476930Y51062D01*
Y48938D01*
X477480Y46885D01*
X478542Y45045D01*
X480045Y43542D01*
X481885Y42480D01*
X483938Y41930D01*
X486062D01*
X488115Y42480D01*
X489955Y43542D01*
X491458Y45045D01*
X492520Y46885D01*
X493070Y48938D01*
Y51062D01*
X492520Y53115D01*
X491458Y54955D01*
X489955Y56458D01*
X488115Y57520D01*
X486062Y58070D01*
D02*
G37*
G36*
X764022Y776519D02*
X762518D01*
X761129Y775944D01*
X760066Y774880D01*
X759490Y773491D01*
Y771987D01*
X760066Y770598D01*
X761129Y769535D01*
X762518Y768959D01*
X764022D01*
X765411Y769535D01*
X766475Y770598D01*
X767050Y771987D01*
Y773491D01*
X766475Y774880D01*
X765411Y775944D01*
X764022Y776519D01*
D02*
G37*
G36*
X773928Y769799D02*
X772424D01*
X771035Y769223D01*
X769971Y768160D01*
X769396Y766771D01*
Y765267D01*
X769971Y763878D01*
X771035Y762814D01*
X772424Y762239D01*
X773928D01*
X775317Y762814D01*
X776380Y763878D01*
X776956Y765267D01*
Y766771D01*
X776380Y768160D01*
X775317Y769223D01*
X773928Y769799D01*
D02*
G37*
G36*
X710428D02*
X708924D01*
X707535Y769223D01*
X706471Y768160D01*
X705896Y766771D01*
Y765267D01*
X706471Y763878D01*
X707535Y762814D01*
X708924Y762239D01*
X710428D01*
X711817Y762814D01*
X712880Y763878D01*
X713456Y765267D01*
Y766771D01*
X712880Y768160D01*
X711817Y769223D01*
X710428Y769799D01*
D02*
G37*
G36*
X758434Y719668D02*
X756930D01*
X755541Y719092D01*
X754477Y718029D01*
X753902Y716640D01*
Y715136D01*
X754477Y713747D01*
X755541Y712683D01*
X756930Y712108D01*
X758434D01*
X759823Y712683D01*
X760887Y713747D01*
X761462Y715136D01*
Y716640D01*
X760887Y718029D01*
X759823Y719092D01*
X758434Y719668D01*
D02*
G37*
G36*
X768340Y712948D02*
X766836D01*
X765447Y712373D01*
X764383Y711309D01*
X763808Y709920D01*
Y708416D01*
X764383Y707027D01*
X765447Y705964D01*
X766836Y705388D01*
X768340D01*
X769729Y705964D01*
X770792Y707027D01*
X771368Y708416D01*
Y709920D01*
X770792Y711309D01*
X769729Y712373D01*
X768340Y712948D01*
D02*
G37*
G36*
X741249Y583600D02*
X739745D01*
X738356Y583024D01*
X737293Y581961D01*
X736717Y580572D01*
Y579068D01*
X737293Y577679D01*
X738042Y576930D01*
X737293Y576181D01*
X736717Y574792D01*
Y573288D01*
X737293Y571899D01*
X738356Y570835D01*
X739745Y570260D01*
X741249D01*
X742638Y570835D01*
X743702Y571899D01*
X744277Y573288D01*
Y574792D01*
X743702Y576181D01*
X742953Y576930D01*
X743702Y577679D01*
X744277Y579068D01*
Y580572D01*
X743702Y581961D01*
X742638Y583024D01*
X741249Y583600D01*
D02*
G37*
G36*
X740867Y558573D02*
X739363D01*
X737974Y557998D01*
X736911Y556934D01*
X736335Y555545D01*
Y554041D01*
X736911Y552652D01*
X737660Y551903D01*
X736911Y551154D01*
X736335Y549765D01*
Y548261D01*
X736911Y546872D01*
X737974Y545809D01*
X739363Y545233D01*
X740867D01*
X742257Y545809D01*
X743320Y546872D01*
X743895Y548261D01*
Y549765D01*
X743320Y551154D01*
X742571Y551903D01*
X743320Y552652D01*
X743895Y554041D01*
Y555545D01*
X743320Y556934D01*
X742257Y557998D01*
X740867Y558573D01*
D02*
G37*
G36*
X740654Y533054D02*
X739150D01*
X737761Y532478D01*
X736697Y531415D01*
X736122Y530026D01*
Y528522D01*
X736697Y527133D01*
X737446Y526384D01*
X736697Y525635D01*
X736122Y524246D01*
Y522742D01*
X736697Y521353D01*
X737761Y520289D01*
X739150Y519714D01*
X740654D01*
X742043Y520289D01*
X743107Y521353D01*
X743682Y522742D01*
Y524246D01*
X743107Y525635D01*
X742358Y526384D01*
X743107Y527133D01*
X743682Y528522D01*
Y530026D01*
X743107Y531415D01*
X742043Y532478D01*
X740654Y533054D01*
D02*
G37*
G36*
X207759Y80775D02*
X206256D01*
X204866Y80200D01*
X203803Y79137D01*
X203228Y77747D01*
Y76244D01*
X203803Y74854D01*
X204866Y73791D01*
X206256Y73215D01*
X207759D01*
X209149Y73791D01*
X210212Y74854D01*
X210788Y76244D01*
Y77747D01*
X210212Y79137D01*
X209149Y80200D01*
X207759Y80775D01*
D02*
G37*
G36*
X167759D02*
X166256D01*
X164866Y80200D01*
X163803Y79137D01*
X163228Y77747D01*
Y76244D01*
X163803Y74854D01*
X164866Y73791D01*
X166256Y73215D01*
X167759D01*
X169149Y73791D01*
X170212Y74854D01*
X170788Y76244D01*
Y77747D01*
X170212Y79137D01*
X169149Y80200D01*
X167759Y80775D01*
D02*
G37*
G36*
X446270Y78801D02*
Y71270D01*
X453801D01*
X453228Y73408D01*
X452066Y75422D01*
X450422Y77066D01*
X448408Y78228D01*
X446270Y78801D01*
D02*
G37*
G36*
X443730D02*
X441592Y78228D01*
X439578Y77066D01*
X437934Y75422D01*
X436772Y73408D01*
X436199Y71270D01*
X443730D01*
Y78801D01*
D02*
G37*
G36*
X406270D02*
Y71270D01*
X413801D01*
X413228Y73408D01*
X412066Y75422D01*
X410422Y77066D01*
X408408Y78228D01*
X406270Y78801D01*
D02*
G37*
G36*
X403730D02*
X401592Y78228D01*
X399578Y77066D01*
X397934Y75422D01*
X396772Y73408D01*
X396199Y71270D01*
X403730D01*
Y78801D01*
D02*
G37*
G36*
X366270D02*
Y71270D01*
X373801D01*
X373228Y73408D01*
X372066Y75422D01*
X370422Y77066D01*
X368408Y78228D01*
X366270Y78801D01*
D02*
G37*
G36*
X363730D02*
X361592Y78228D01*
X359578Y77066D01*
X357934Y75422D01*
X356772Y73408D01*
X356199Y71270D01*
X363730D01*
Y78801D01*
D02*
G37*
G36*
X286270D02*
Y71270D01*
X293801D01*
X293228Y73408D01*
X292066Y75422D01*
X290422Y77066D01*
X288408Y78228D01*
X286270Y78801D01*
D02*
G37*
G36*
X283730D02*
X281592Y78228D01*
X279578Y77066D01*
X277934Y75422D01*
X276772Y73408D01*
X276199Y71270D01*
X283730D01*
Y78801D01*
D02*
G37*
G36*
X426062Y78070D02*
X423938D01*
X421885Y77520D01*
X420045Y76458D01*
X418542Y74955D01*
X417480Y73115D01*
X416930Y71062D01*
Y68938D01*
X417480Y66885D01*
X418542Y65045D01*
X420045Y63542D01*
X421885Y62480D01*
X423938Y61930D01*
X426062D01*
X428115Y62480D01*
X429955Y63542D01*
X431458Y65045D01*
X432520Y66885D01*
X433070Y68938D01*
Y71062D01*
X432520Y73115D01*
X431458Y74955D01*
X429955Y76458D01*
X428115Y77520D01*
X426062Y78070D01*
D02*
G37*
G36*
X386062D02*
X383938D01*
X381885Y77520D01*
X380045Y76458D01*
X378542Y74955D01*
X377480Y73115D01*
X376930Y71062D01*
Y68938D01*
X377480Y66885D01*
X378542Y65045D01*
X380045Y63542D01*
X381885Y62480D01*
X383938Y61930D01*
X386062D01*
X388115Y62480D01*
X389955Y63542D01*
X391458Y65045D01*
X392520Y66885D01*
X393070Y68938D01*
Y71062D01*
X392520Y73115D01*
X391458Y74955D01*
X389955Y76458D01*
X388115Y77520D01*
X386062Y78070D01*
D02*
G37*
G36*
X346062D02*
X343938D01*
X341885Y77520D01*
X340045Y76458D01*
X338542Y74955D01*
X337480Y73115D01*
X336930Y71062D01*
Y68938D01*
X337480Y66885D01*
X338542Y65045D01*
X340045Y63542D01*
X341885Y62480D01*
X343938Y61930D01*
X346062D01*
X348115Y62480D01*
X349955Y63542D01*
X351458Y65045D01*
X352520Y66885D01*
X353070Y68938D01*
Y71062D01*
X352520Y73115D01*
X351458Y74955D01*
X349955Y76458D01*
X348115Y77520D01*
X346062Y78070D01*
D02*
G37*
G36*
X326062D02*
X323938D01*
X321885Y77520D01*
X320045Y76458D01*
X318542Y74955D01*
X317480Y73115D01*
X316930Y71062D01*
Y68938D01*
X317480Y66885D01*
X318542Y65045D01*
X320045Y63542D01*
X321885Y62480D01*
X323938Y61930D01*
X326062D01*
X328115Y62480D01*
X329955Y63542D01*
X331458Y65045D01*
X332520Y66885D01*
X333070Y68938D01*
Y71062D01*
X332520Y73115D01*
X331458Y74955D01*
X329955Y76458D01*
X328115Y77520D01*
X326062Y78070D01*
D02*
G37*
G36*
X306062D02*
X303938D01*
X301885Y77520D01*
X300045Y76458D01*
X298542Y74955D01*
X297480Y73115D01*
X296930Y71062D01*
Y68938D01*
X297480Y66885D01*
X298542Y65045D01*
X300045Y63542D01*
X301885Y62480D01*
X303938Y61930D01*
X306062D01*
X308115Y62480D01*
X309955Y63542D01*
X311458Y65045D01*
X312520Y66885D01*
X313070Y68938D01*
Y71062D01*
X312520Y73115D01*
X311458Y74955D01*
X309955Y76458D01*
X308115Y77520D01*
X306062Y78070D01*
D02*
G37*
G36*
X246062D02*
X243938D01*
X241885Y77520D01*
X240045Y76458D01*
X238542Y74955D01*
X237480Y73115D01*
X236930Y71062D01*
Y68938D01*
X237480Y66885D01*
X238542Y65045D01*
X240045Y63542D01*
X241885Y62480D01*
X243938Y61930D01*
X246062D01*
X248115Y62480D01*
X249955Y63542D01*
X251458Y65045D01*
X252520Y66885D01*
X253070Y68938D01*
Y71062D01*
X252520Y73115D01*
X251458Y74955D01*
X249955Y76458D01*
X248115Y77520D01*
X246062Y78070D01*
D02*
G37*
G36*
X453801Y68730D02*
X446270D01*
Y61199D01*
X448408Y61772D01*
X450422Y62934D01*
X452066Y64578D01*
X453228Y66592D01*
X453801Y68730D01*
D02*
G37*
G36*
X443730D02*
X436199D01*
X436772Y66592D01*
X437934Y64578D01*
X439578Y62934D01*
X441592Y61772D01*
X443730Y61199D01*
Y68730D01*
D02*
G37*
G36*
X413801D02*
X406270D01*
Y61199D01*
X408408Y61772D01*
X410422Y62934D01*
X412066Y64578D01*
X413228Y66592D01*
X413801Y68730D01*
D02*
G37*
G36*
X403730D02*
X396199D01*
X396772Y66592D01*
X397934Y64578D01*
X399578Y62934D01*
X401592Y61772D01*
X403730Y61199D01*
Y68730D01*
D02*
G37*
G36*
X373801D02*
X366270D01*
Y61199D01*
X368408Y61772D01*
X370422Y62934D01*
X372066Y64578D01*
X373228Y66592D01*
X373801Y68730D01*
D02*
G37*
G36*
X363730D02*
X356199D01*
X356772Y66592D01*
X357934Y64578D01*
X359578Y62934D01*
X361592Y61772D01*
X363730Y61199D01*
Y68730D01*
D02*
G37*
G36*
X293801D02*
X286270D01*
Y61199D01*
X288408Y61772D01*
X290422Y62934D01*
X292066Y64578D01*
X293228Y66592D01*
X293801Y68730D01*
D02*
G37*
G36*
X283730D02*
X276199D01*
X276772Y66592D01*
X277934Y64578D01*
X279578Y62934D01*
X281592Y61772D01*
X283730Y61199D01*
Y68730D01*
D02*
G37*
G36*
X446270Y58801D02*
Y51270D01*
X453801D01*
X453228Y53408D01*
X452066Y55422D01*
X450422Y57066D01*
X448408Y58228D01*
X446270Y58801D01*
D02*
G37*
G36*
X443730D02*
X441592Y58228D01*
X439578Y57066D01*
X437934Y55422D01*
X436772Y53408D01*
X436199Y51270D01*
X443730D01*
Y58801D01*
D02*
G37*
G36*
X406270D02*
Y51270D01*
X413801D01*
X413228Y53408D01*
X412066Y55422D01*
X410422Y57066D01*
X408408Y58228D01*
X406270Y58801D01*
D02*
G37*
G36*
X403730D02*
X401592Y58228D01*
X399578Y57066D01*
X397934Y55422D01*
X396772Y53408D01*
X396199Y51270D01*
X403730D01*
Y58801D01*
D02*
G37*
G36*
X366270D02*
Y51270D01*
X373801D01*
X373228Y53408D01*
X372066Y55422D01*
X370422Y57066D01*
X368408Y58228D01*
X366270Y58801D01*
D02*
G37*
G36*
X363730D02*
X361592Y58228D01*
X359578Y57066D01*
X357934Y55422D01*
X356772Y53408D01*
X356199Y51270D01*
X363730D01*
Y58801D01*
D02*
G37*
G36*
X286270D02*
Y51270D01*
X293801D01*
X293228Y53408D01*
X292066Y55422D01*
X290422Y57066D01*
X288408Y58228D01*
X286270Y58801D01*
D02*
G37*
G36*
X226270D02*
Y51270D01*
X233801D01*
X233228Y53408D01*
X232066Y55422D01*
X230422Y57066D01*
X228408Y58228D01*
X226270Y58801D01*
D02*
G37*
G36*
X191748Y73280D02*
X188252D01*
X184874Y72375D01*
X181846Y70627D01*
X179373Y68154D01*
X177625Y65126D01*
X176720Y61748D01*
Y58252D01*
X177625Y54874D01*
X179373Y51846D01*
X181846Y49373D01*
X184874Y47625D01*
X188252Y46720D01*
X191748D01*
X195126Y47625D01*
X198154Y49373D01*
X200627Y51846D01*
X202375Y54874D01*
X203280Y58252D01*
Y61748D01*
X202375Y65126D01*
X200627Y68154D01*
X198154Y70627D01*
X195126Y72375D01*
X191748Y73280D01*
D02*
G37*
G36*
X426062Y58070D02*
X423938D01*
X421885Y57520D01*
X420045Y56458D01*
X418542Y54955D01*
X417480Y53115D01*
X416930Y51062D01*
Y48938D01*
X417480Y46885D01*
X418542Y45045D01*
X420045Y43542D01*
X421885Y42480D01*
X423938Y41930D01*
X426062D01*
X428115Y42480D01*
X429955Y43542D01*
X431458Y45045D01*
X432520Y46885D01*
X433070Y48938D01*
Y51062D01*
X432520Y53115D01*
X431458Y54955D01*
X429955Y56458D01*
X428115Y57520D01*
X426062Y58070D01*
D02*
G37*
G36*
X386062D02*
X383938D01*
X381885Y57520D01*
X380045Y56458D01*
X378542Y54955D01*
X377480Y53115D01*
X376930Y51062D01*
Y48938D01*
X377480Y46885D01*
X378542Y45045D01*
X380045Y43542D01*
X381885Y42480D01*
X383938Y41930D01*
X386062D01*
X388115Y42480D01*
X389955Y43542D01*
X391458Y45045D01*
X392520Y46885D01*
X393070Y48938D01*
Y51062D01*
X392520Y53115D01*
X391458Y54955D01*
X389955Y56458D01*
X388115Y57520D01*
X386062Y58070D01*
D02*
G37*
G36*
X346062D02*
X343938D01*
X341885Y57520D01*
X340045Y56458D01*
X338542Y54955D01*
X337480Y53115D01*
X336930Y51062D01*
Y48938D01*
X337480Y46885D01*
X338542Y45045D01*
X340045Y43542D01*
X341885Y42480D01*
X343938Y41930D01*
X346062D01*
X348115Y42480D01*
X349955Y43542D01*
X351458Y45045D01*
X352520Y46885D01*
X353070Y48938D01*
Y51062D01*
X352520Y53115D01*
X351458Y54955D01*
X349955Y56458D01*
X348115Y57520D01*
X346062Y58070D01*
D02*
G37*
G36*
X326062D02*
X323938D01*
X321885Y57520D01*
X320045Y56458D01*
X318542Y54955D01*
X317480Y53115D01*
X316930Y51062D01*
Y48938D01*
X317480Y46885D01*
X318542Y45045D01*
X320045Y43542D01*
X321885Y42480D01*
X323938Y41930D01*
X326062D01*
X328115Y42480D01*
X329955Y43542D01*
X331458Y45045D01*
X332520Y46885D01*
X333070Y48938D01*
Y51062D01*
X332520Y53115D01*
X331458Y54955D01*
X329955Y56458D01*
X328115Y57520D01*
X326062Y58070D01*
D02*
G37*
G36*
X306062D02*
X303938D01*
X301885Y57520D01*
X300045Y56458D01*
X298542Y54955D01*
X297480Y53115D01*
X296930Y51062D01*
Y48938D01*
X297480Y46885D01*
X298542Y45045D01*
X300045Y43542D01*
X301885Y42480D01*
X303938Y41930D01*
X306062D01*
X308115Y42480D01*
X309955Y43542D01*
X311458Y45045D01*
X312520Y46885D01*
X313070Y48938D01*
Y51062D01*
X312520Y53115D01*
X311458Y54955D01*
X309955Y56458D01*
X308115Y57520D01*
X306062Y58070D01*
D02*
G37*
G36*
X246062D02*
X243938D01*
X241885Y57520D01*
X240045Y56458D01*
X238542Y54955D01*
X237480Y53115D01*
X236930Y51062D01*
Y48938D01*
X237480Y46885D01*
X238542Y45045D01*
X240045Y43542D01*
X241885Y42480D01*
X243938Y41930D01*
X246062D01*
X248115Y42480D01*
X249955Y43542D01*
X251458Y45045D01*
X252520Y46885D01*
X253070Y48938D01*
Y51062D01*
X252520Y53115D01*
X251458Y54955D01*
X249955Y56458D01*
X248115Y57520D01*
X246062Y58070D01*
D02*
G37*
G36*
X453801Y48730D02*
X446270D01*
Y41199D01*
X448408Y41772D01*
X450422Y42934D01*
X452066Y44578D01*
X453228Y46592D01*
X453801Y48730D01*
D02*
G37*
G36*
X443730D02*
X436199D01*
X436772Y46592D01*
X437934Y44578D01*
X439578Y42934D01*
X441592Y41772D01*
X443730Y41199D01*
Y48730D01*
D02*
G37*
G36*
X413801D02*
X406270D01*
Y41199D01*
X408408Y41772D01*
X410422Y42934D01*
X412066Y44578D01*
X413228Y46592D01*
X413801Y48730D01*
D02*
G37*
G36*
X403730D02*
X396199D01*
X396772Y46592D01*
X397934Y44578D01*
X399578Y42934D01*
X401592Y41772D01*
X403730Y41199D01*
Y48730D01*
D02*
G37*
G36*
X373801D02*
X366270D01*
Y41199D01*
X368408Y41772D01*
X370422Y42934D01*
X372066Y44578D01*
X373228Y46592D01*
X373801Y48730D01*
D02*
G37*
G36*
X363730D02*
X356199D01*
X356772Y46592D01*
X357934Y44578D01*
X359578Y42934D01*
X361592Y41772D01*
X363730Y41199D01*
Y48730D01*
D02*
G37*
G36*
X293801D02*
X286270D01*
Y41199D01*
X288408Y41772D01*
X290422Y42934D01*
X292066Y44578D01*
X293228Y46592D01*
X293801Y48730D01*
D02*
G37*
G36*
X233801D02*
X226270D01*
Y41199D01*
X228408Y41772D01*
X230422Y42934D01*
X232066Y44578D01*
X233228Y46592D01*
X233801Y48730D01*
D02*
G37*
G36*
X167759Y40775D02*
X166256D01*
X164866Y40200D01*
X163803Y39137D01*
X163228Y37747D01*
Y36244D01*
X163803Y34854D01*
X164866Y33791D01*
X166256Y33215D01*
X167759D01*
X169149Y33791D01*
X170212Y34854D01*
X170788Y36244D01*
Y37747D01*
X170212Y39137D01*
X169149Y40200D01*
X167759Y40775D01*
D02*
G37*
G36*
X746750Y762992D02*
X722246D01*
X720313Y762608D01*
X719769Y762244D01*
X718674Y761512D01*
X709632Y752471D01*
X708537Y750832D01*
X708152Y748898D01*
Y691199D01*
X708537Y689266D01*
X709632Y687627D01*
X717609Y679649D01*
X719249Y678554D01*
X721182Y678169D01*
X723115Y678554D01*
X724754Y679649D01*
X725849Y681288D01*
X726234Y683221D01*
X725849Y685155D01*
X724754Y686794D01*
X718256Y693292D01*
Y746806D01*
X724339Y752888D01*
X744658D01*
X822023Y675522D01*
Y109866D01*
X739193Y27036D01*
X725182D01*
X725997Y27580D01*
X812210Y113793D01*
X812884Y114802D01*
X813121Y115992D01*
Y650519D01*
X812884Y651709D01*
X812210Y652718D01*
X746060Y718868D01*
Y738174D01*
X746154Y738269D01*
X746730Y739658D01*
Y741162D01*
X746154Y742551D01*
X745091Y743615D01*
X743702Y744190D01*
X742198D01*
X740809Y743615D01*
X739745Y742551D01*
X739170Y741162D01*
Y739658D01*
X739745Y738269D01*
X739840Y738174D01*
Y717580D01*
X740077Y716390D01*
X740751Y715381D01*
X806902Y649231D01*
Y117280D01*
X805134Y115512D01*
X805252Y116106D01*
Y645658D01*
X805252Y645658D01*
X805015Y646848D01*
X804341Y647857D01*
X804341Y647857D01*
X733360Y718838D01*
Y738174D01*
X733455Y738269D01*
X734030Y739658D01*
Y741162D01*
X733455Y742551D01*
X732391Y743615D01*
X731002Y744190D01*
X729498D01*
X728109Y743615D01*
X727046Y742551D01*
X726470Y741162D01*
Y739658D01*
X727046Y738269D01*
X727140Y738174D01*
Y717550D01*
X727377Y716360D01*
X728051Y715351D01*
X799033Y644370D01*
Y117394D01*
X719038Y37400D01*
X283533D01*
X278132Y42800D01*
Y44380D01*
X279578Y42934D01*
X281592Y41772D01*
X283730Y41199D01*
Y50000D01*
Y58801D01*
X281592Y58228D01*
X279578Y57066D01*
X278132Y55620D01*
Y59977D01*
X277896Y61167D01*
X277222Y62176D01*
X272517Y66880D01*
X272520Y66885D01*
X273070Y68938D01*
Y71062D01*
X272520Y73115D01*
X271458Y74955D01*
X269955Y76458D01*
X268115Y77520D01*
X266062Y78070D01*
X263937D01*
X261885Y77520D01*
X260045Y76458D01*
X258542Y74955D01*
X257480Y73115D01*
X256930Y71062D01*
Y68938D01*
X257480Y66885D01*
X258542Y65045D01*
X260045Y63542D01*
X261885Y62480D01*
X263937Y61930D01*
X266062D01*
X268115Y62480D01*
X268120Y62483D01*
X271913Y58689D01*
Y54166D01*
X271458Y54955D01*
X269955Y56458D01*
X268115Y57520D01*
X266062Y58070D01*
X263937D01*
X261885Y57520D01*
X260045Y56458D01*
X258542Y54955D01*
X257480Y53115D01*
X256930Y51062D01*
Y48938D01*
X257480Y46885D01*
X258542Y45045D01*
X260045Y43542D01*
X261885Y42480D01*
X262895Y42209D01*
Y37453D01*
X263132Y36263D01*
X263806Y35254D01*
X271480Y27580D01*
X272295Y27036D01*
X220911D01*
X218807Y29140D01*
Y43705D01*
X219578Y42934D01*
X221592Y41772D01*
X223730Y41199D01*
Y50000D01*
Y58801D01*
X221592Y58228D01*
X219578Y57066D01*
X218807Y56295D01*
Y56662D01*
X224075Y61930D01*
X226062D01*
X228115Y62480D01*
X229955Y63542D01*
X231458Y65045D01*
X232520Y66885D01*
X233070Y68938D01*
Y71062D01*
X232520Y73115D01*
X231458Y74955D01*
X229955Y76458D01*
X228115Y77520D01*
X226062Y78070D01*
X223938D01*
X221885Y77520D01*
X220045Y76458D01*
X218542Y74955D01*
X217480Y73115D01*
X216930Y71062D01*
Y69075D01*
X210183Y62327D01*
X209087Y60688D01*
X208703Y58755D01*
Y27047D01*
X209087Y25114D01*
X210183Y23475D01*
X215246Y18411D01*
X216885Y17316D01*
X218819Y16931D01*
X741286D01*
X743219Y17316D01*
X744858Y18411D01*
X830648Y104201D01*
X831743Y105840D01*
X832128Y107773D01*
Y677615D01*
X831807Y679228D01*
X831743Y679548D01*
X830648Y681187D01*
X750323Y761512D01*
X748684Y762608D01*
X746750Y762992D01*
D02*
G37*
%LPD*%
G36*
X764383Y774405D02*
X764936Y773852D01*
X765235Y773130D01*
Y772348D01*
X764936Y771626D01*
X764383Y771073D01*
X763661Y770774D01*
X762879D01*
X762157Y771073D01*
X761604Y771626D01*
X761305Y772348D01*
Y773130D01*
X761604Y773852D01*
X762157Y774405D01*
X762879Y774704D01*
X763661D01*
X764383Y774405D01*
D02*
G37*
G36*
X774289Y767685D02*
X774842Y767132D01*
X775141Y766410D01*
Y765628D01*
X774842Y764906D01*
X774289Y764353D01*
X773567Y764054D01*
X772785D01*
X772063Y764353D01*
X771510Y764906D01*
X771211Y765628D01*
Y766410D01*
X771510Y767132D01*
X772063Y767685D01*
X772785Y767984D01*
X773567D01*
X774289Y767685D01*
D02*
G37*
G36*
X710789D02*
X711342Y767132D01*
X711641Y766410D01*
Y765628D01*
X711342Y764906D01*
X710789Y764353D01*
X710067Y764054D01*
X709285D01*
X708563Y764353D01*
X708010Y764906D01*
X707711Y765628D01*
Y766410D01*
X708010Y767132D01*
X708563Y767685D01*
X709285Y767984D01*
X710067D01*
X710789Y767685D01*
D02*
G37*
G36*
X758795Y717554D02*
X759348Y717001D01*
X759647Y716279D01*
Y715497D01*
X759348Y714775D01*
X758795Y714222D01*
X758073Y713923D01*
X757291D01*
X756569Y714222D01*
X756016Y714775D01*
X755717Y715497D01*
Y716279D01*
X756016Y717001D01*
X756569Y717554D01*
X757291Y717853D01*
X758073D01*
X758795Y717554D01*
D02*
G37*
G36*
X768701Y710834D02*
X769254Y710281D01*
X769553Y709559D01*
Y708777D01*
X769254Y708055D01*
X768701Y707502D01*
X767979Y707203D01*
X767197D01*
X766475Y707502D01*
X765922Y708055D01*
X765623Y708777D01*
Y709559D01*
X765922Y710281D01*
X766475Y710834D01*
X767197Y711133D01*
X767979D01*
X768701Y710834D01*
D02*
G37*
G36*
X208121Y78661D02*
X208673Y78109D01*
X208973Y77386D01*
Y76604D01*
X208673Y75882D01*
X208121Y75329D01*
X207398Y75030D01*
X206617D01*
X205894Y75329D01*
X205342Y75882D01*
X205042Y76604D01*
Y77386D01*
X205342Y78109D01*
X205894Y78661D01*
X206617Y78960D01*
X207398D01*
X208121Y78661D01*
D02*
G37*
G36*
X168121D02*
X168673Y78109D01*
X168973Y77386D01*
Y76604D01*
X168673Y75882D01*
X168121Y75329D01*
X167398Y75030D01*
X166617D01*
X165894Y75329D01*
X165342Y75882D01*
X165042Y76604D01*
Y77386D01*
X165342Y78109D01*
X165894Y78661D01*
X166617Y78960D01*
X167398D01*
X168121Y78661D01*
D02*
G37*
G36*
Y38661D02*
X168673Y38108D01*
X168973Y37386D01*
Y36604D01*
X168673Y35882D01*
X168121Y35329D01*
X167398Y35030D01*
X166617D01*
X165894Y35329D01*
X165342Y35882D01*
X165042Y36604D01*
Y37386D01*
X165342Y38108D01*
X165894Y38661D01*
X166617Y38960D01*
X167398D01*
X168121Y38661D01*
D02*
G37*
G36*
X271913Y41512D02*
X272150Y40322D01*
X272824Y39313D01*
X279248Y32889D01*
X274967D01*
X269114Y38742D01*
Y43057D01*
X269955Y43542D01*
X271458Y45045D01*
X271913Y45834D01*
Y41512D01*
D02*
G37*
D12*
X266005Y37453D02*
X273679Y29779D01*
X723798D01*
X810011Y115992D01*
Y650519D01*
X720326Y34290D02*
X802142Y116106D01*
X282245Y34290D02*
X720326D01*
X802142Y116106D02*
Y645658D01*
X265000Y50000D02*
X266005Y48995D01*
X742950Y717580D02*
X810011Y650519D01*
X742950Y717580D02*
Y740410D01*
X266005Y37453D02*
Y48995D01*
X730250Y717550D02*
X802142Y645658D01*
X275023Y41512D02*
X282245Y34290D01*
X730250Y717550D02*
Y740410D01*
X265000Y70000D02*
X275023Y59977D01*
Y41512D02*
Y59977D01*
D25*
X6353Y11997D02*
G03*
X11991Y6347I5650J0D01*
G01*
X12003Y843647D02*
G03*
X6353Y838009I0J-5650D01*
G01*
X838003Y6347D02*
G03*
X843653Y11984I0J5650D01*
G01*
X843653Y837997D02*
G03*
X838020Y843646I-5650J0D01*
G01*
X843653Y11997D02*
X843653Y837971D01*
X6353Y12022D02*
X6353Y837997D01*
X12003Y6347D02*
X837978Y6347D01*
X12021Y843647D02*
X838003Y843646D01*
D130*
X660000Y60000D02*
D03*
X190000D02*
D03*
D132*
X225000Y70000D02*
D03*
Y50000D02*
D03*
X245000Y70000D02*
D03*
Y50000D02*
D03*
X265000Y70000D02*
D03*
Y50000D02*
D03*
X285000Y70000D02*
D03*
Y50000D02*
D03*
X305000Y70000D02*
D03*
Y50000D02*
D03*
X325000Y70000D02*
D03*
Y50000D02*
D03*
X345000Y70000D02*
D03*
Y50000D02*
D03*
X365000Y70000D02*
D03*
Y50000D02*
D03*
X385000Y70000D02*
D03*
Y50000D02*
D03*
X405000Y70000D02*
D03*
Y50000D02*
D03*
X425000Y70000D02*
D03*
Y50000D02*
D03*
X445000Y70000D02*
D03*
Y50000D02*
D03*
X465000Y70000D02*
D03*
Y50000D02*
D03*
X485000Y70000D02*
D03*
Y50000D02*
D03*
X505000Y70000D02*
D03*
Y50000D02*
D03*
X525000Y70000D02*
D03*
Y50000D02*
D03*
X545000Y70000D02*
D03*
Y50000D02*
D03*
X565000Y70000D02*
D03*
Y50000D02*
D03*
X585000Y70000D02*
D03*
Y50000D02*
D03*
X605000Y70000D02*
D03*
Y50000D02*
D03*
X625000Y70000D02*
D03*
Y50000D02*
D03*
D133*
X280220Y163680D02*
D03*
Y176680D02*
D03*
X293220Y163680D02*
D03*
Y176680D02*
D03*
X306220Y163680D02*
D03*
Y176680D02*
D03*
X319220Y163680D02*
D03*
Y176680D02*
D03*
D134*
X762700Y215400D02*
D03*
Y190000D02*
D03*
X737300Y266200D02*
D03*
X762700D02*
D03*
X737300Y240800D02*
D03*
X762700D02*
D03*
X737300Y215400D02*
D03*
Y190000D02*
D03*
Y164600D02*
D03*
X762700D02*
D03*
X737300Y139200D02*
D03*
X762700D02*
D03*
X737300Y113800D02*
D03*
D135*
X762700D02*
D03*
D136*
X167500Y740000D02*
D03*
X352500D02*
D03*
X167500Y692500D02*
D03*
X352500D02*
D03*
X477500Y740000D02*
D03*
X662500D02*
D03*
X477500Y692500D02*
D03*
X662500D02*
D03*
D137*
X115316Y192278D02*
D03*
Y217678D02*
D03*
Y243078D02*
D03*
Y268478D02*
D03*
Y135128D02*
D03*
Y109728D02*
D03*
D138*
Y293878D02*
D03*
Y160528D02*
D03*
D139*
X19560Y830440D02*
D03*
X52440Y797560D02*
D03*
X19560D02*
D03*
X52440Y830440D02*
D03*
X59250Y814000D02*
D03*
X36000Y791140D02*
D03*
X12750Y814000D02*
D03*
X36000Y837250D02*
D03*
X814000Y59250D02*
D03*
X790750Y36000D02*
D03*
X814000Y13140D02*
D03*
X837250Y36000D02*
D03*
X830440Y52440D02*
D03*
X797560Y19560D02*
D03*
X830440D02*
D03*
X797560Y52440D02*
D03*
X814000Y837250D02*
D03*
X790750Y814000D02*
D03*
X814000Y791140D02*
D03*
X837250Y814000D02*
D03*
X830440Y830440D02*
D03*
X797560Y797560D02*
D03*
X830440D02*
D03*
X797560Y830440D02*
D03*
X36000Y59250D02*
D03*
X12750Y36000D02*
D03*
X36000Y13140D02*
D03*
X59250Y36000D02*
D03*
X52440Y52440D02*
D03*
X19560Y19560D02*
D03*
X52440D02*
D03*
X19560Y52440D02*
D03*
D140*
X36000Y814000D02*
D03*
X814000Y36000D02*
D03*
Y814000D02*
D03*
X36000Y36000D02*
D03*
D141*
X690988Y256803D02*
D03*
X704523Y205087D02*
D03*
X693009Y225204D02*
D03*
X704003Y257952D02*
D03*
X404645Y234466D02*
D03*
X404514Y225062D02*
D03*
X404645Y215658D02*
D03*
X395067D02*
D03*
X385489D02*
D03*
X375910D02*
D03*
X89569Y623167D02*
D03*
X89102Y642440D02*
D03*
X79699Y632570D02*
D03*
X64021Y621038D02*
D03*
Y632578D02*
D03*
X76341Y739078D02*
D03*
X96341D02*
D03*
X105744Y748948D02*
D03*
X85744D02*
D03*
X75147Y758818D02*
D03*
X115147D02*
D03*
X95147D02*
D03*
X295625Y256002D02*
D03*
X314362D02*
D03*
X737287Y675782D02*
D03*
X739705Y514177D02*
D03*
X740115Y539496D02*
D03*
X740441Y564296D02*
D03*
X740497Y588772D02*
D03*
X817287Y755782D02*
D03*
X807287Y735782D02*
D03*
X817287Y715782D02*
D03*
Y675782D02*
D03*
Y635782D02*
D03*
Y75782D02*
D03*
X797287Y755782D02*
D03*
X787287Y735782D02*
D03*
Y695782D02*
D03*
X797287Y675782D02*
D03*
X787287Y535782D02*
D03*
X777287Y715782D02*
D03*
X767287Y655782D02*
D03*
Y535782D02*
D03*
X777287Y35782D02*
D03*
X757287Y675782D02*
D03*
Y515782D02*
D03*
X727287Y695782D02*
D03*
X707287Y655782D02*
D03*
Y615782D02*
D03*
Y575782D02*
D03*
Y535782D02*
D03*
X237286Y35782D02*
D03*
X617008Y816996D02*
D03*
X57007Y776996D02*
D03*
X507008Y756996D02*
D03*
X177008Y816996D02*
D03*
X627008Y636996D02*
D03*
X197008Y296996D02*
D03*
X567008Y756996D02*
D03*
X687008Y716996D02*
D03*
X567008Y556996D02*
D03*
X517008Y736996D02*
D03*
X737008Y176995D02*
D03*
X767008Y436996D02*
D03*
Y396996D02*
D03*
X547008Y716996D02*
D03*
X467008Y756996D02*
D03*
X367008Y676996D02*
D03*
X697008Y416996D02*
D03*
X537008Y816996D02*
D03*
X337008Y736996D02*
D03*
X627008Y716996D02*
D03*
X437008Y696996D02*
D03*
X237008Y576996D02*
D03*
X127008Y76995D02*
D03*
X577008Y816996D02*
D03*
X107008Y316996D02*
D03*
X717008Y456996D02*
D03*
X107008Y36995D02*
D03*
X497008Y776996D02*
D03*
X317008Y816996D02*
D03*
X187008Y716996D02*
D03*
Y756996D02*
D03*
X337008Y776996D02*
D03*
X247008Y756996D02*
D03*
X227008D02*
D03*
X547008D02*
D03*
X607008Y716996D02*
D03*
X117008Y336996D02*
D03*
X377008Y136995D02*
D03*
X327008Y276996D02*
D03*
X507008D02*
D03*
X727008Y796996D02*
D03*
X317008Y776996D02*
D03*
X217008Y576996D02*
D03*
X537008Y776996D02*
D03*
X277008Y816996D02*
D03*
X147008Y36995D02*
D03*
X27008Y116995D02*
D03*
X497008Y536996D02*
D03*
X277008Y576996D02*
D03*
X297008Y776996D02*
D03*
X147008Y476996D02*
D03*
X487008Y716996D02*
D03*
X477008Y816996D02*
D03*
X717008D02*
D03*
X387008Y116995D02*
D03*
X287008Y796996D02*
D03*
X597008Y816996D02*
D03*
X367008Y436996D02*
D03*
X757008Y416996D02*
D03*
X557008Y776996D02*
D03*
X647008Y556996D02*
D03*
X347008Y756996D02*
D03*
X57007Y96995D02*
D03*
X607008Y556996D02*
D03*
X667008Y756996D02*
D03*
X307008Y796996D02*
D03*
X557008Y736996D02*
D03*
X237008Y816996D02*
D03*
X117008D02*
D03*
X397008Y776996D02*
D03*
X667008Y436996D02*
D03*
X657008Y816996D02*
D03*
X567008Y796996D02*
D03*
X657008Y656996D02*
D03*
X347008Y156995D02*
D03*
X377008Y776996D02*
D03*
X777008Y456996D02*
D03*
X257008Y816996D02*
D03*
X457008Y136995D02*
D03*
X347008Y676996D02*
D03*
X207008Y796996D02*
D03*
X677008Y776996D02*
D03*
X687008Y676996D02*
D03*
X487008Y596996D02*
D03*
X217008Y776996D02*
D03*
X747008Y436996D02*
D03*
X147008Y396996D02*
D03*
X567008Y716996D02*
D03*
X367008Y796996D02*
D03*
X407008D02*
D03*
X657008Y456996D02*
D03*
X237008Y776996D02*
D03*
X617008Y736996D02*
D03*
X767008Y356996D02*
D03*
X727008Y476996D02*
D03*
X687008Y756996D02*
D03*
X577008Y736996D02*
D03*
X507008Y796996D02*
D03*
X417008Y816996D02*
D03*
X747008Y796996D02*
D03*
X697008Y456996D02*
D03*
X307008Y756996D02*
D03*
X607008D02*
D03*
X457008Y576996D02*
D03*
X437008Y816996D02*
D03*
X97008D02*
D03*
X507008Y716996D02*
D03*
X627008Y796996D02*
D03*
X137008Y336996D02*
D03*
X87008Y356996D02*
D03*
X537008Y736996D02*
D03*
X437008Y336996D02*
D03*
X577008Y136995D02*
D03*
X677008Y816996D02*
D03*
X607008Y796996D02*
D03*
X527008Y756996D02*
D03*
X677008Y136995D02*
D03*
X97008Y376996D02*
D03*
X617008Y696996D02*
D03*
X367008Y756996D02*
D03*
X217008Y736996D02*
D03*
X667008Y716996D02*
D03*
X497008Y496996D02*
D03*
X437008Y136995D02*
D03*
X97008Y496996D02*
D03*
X77007Y816996D02*
D03*
X657008Y776996D02*
D03*
X127008Y116995D02*
D03*
X447008Y796996D02*
D03*
X57007Y176995D02*
D03*
X297008Y816996D02*
D03*
X157008D02*
D03*
X167008Y36995D02*
D03*
X517008Y816996D02*
D03*
X527008Y796996D02*
D03*
X207008Y756996D02*
D03*
X607008Y516996D02*
D03*
X347008Y796996D02*
D03*
X117008Y56995D02*
D03*
X357008Y576996D02*
D03*
X457008Y816996D02*
D03*
X497008D02*
D03*
X437008Y496996D02*
D03*
X197008Y736996D02*
D03*
X247008Y796996D02*
D03*
X97008Y56995D02*
D03*
X267008Y156995D02*
D03*
X207008Y276996D02*
D03*
X777008Y376996D02*
D03*
X707008Y476996D02*
D03*
X157008Y96995D02*
D03*
X147008Y76995D02*
D03*
X197008Y696996D02*
D03*
X617008Y776996D02*
D03*
X757008Y376996D02*
D03*
X677008Y736996D02*
D03*
X277008Y696996D02*
D03*
X357008Y816996D02*
D03*
X227008Y796996D02*
D03*
X397008Y576996D02*
D03*
X667008Y796996D02*
D03*
X647008Y716996D02*
D03*
X287008Y276996D02*
D03*
X237008Y736996D02*
D03*
X47007Y156995D02*
D03*
X477008Y776996D02*
D03*
X697008Y736996D02*
D03*
X277008Y776996D02*
D03*
X697008Y656996D02*
D03*
X767008Y796996D02*
D03*
X37008Y776996D02*
D03*
X627008Y756996D02*
D03*
X387008Y676996D02*
D03*
X137008Y816996D02*
D03*
X637008D02*
D03*
X497008Y696996D02*
D03*
X517008Y776996D02*
D03*
X487008Y676996D02*
D03*
X397008Y816996D02*
D03*
X717008Y496996D02*
D03*
X127008Y36995D02*
D03*
X747008Y396996D02*
D03*
X217008Y816996D02*
D03*
X597008Y736996D02*
D03*
X497008D02*
D03*
X127008Y276996D02*
D03*
X297008Y736996D02*
D03*
X277008D02*
D03*
X587008Y756996D02*
D03*
X337008Y816996D02*
D03*
X597008Y776996D02*
D03*
X287008Y756996D02*
D03*
X437008Y656996D02*
D03*
X357008Y776996D02*
D03*
X187008Y796996D02*
D03*
X547008D02*
D03*
X327008D02*
D03*
X467008Y596996D02*
D03*
X677008Y336996D02*
D03*
X137008Y296996D02*
D03*
X647008Y756996D02*
D03*
X317008Y736996D02*
D03*
X137008Y56995D02*
D03*
X757008Y816996D02*
D03*
X517008Y136995D02*
D03*
X297008Y536996D02*
D03*
X697008Y816996D02*
D03*
X257008Y776996D02*
D03*
X327008Y756996D02*
D03*
X257008Y736996D02*
D03*
X737008Y816996D02*
D03*
X777008D02*
D03*
X337008Y576996D02*
D03*
X487008Y756996D02*
D03*
X427008Y796996D02*
D03*
X387008D02*
D03*
X707008D02*
D03*
X317008Y696996D02*
D03*
X637008Y776996D02*
D03*
X267008Y796996D02*
D03*
X67007Y276996D02*
D03*
X697008Y696996D02*
D03*
X87008Y36995D02*
D03*
X667008Y676996D02*
D03*
X507008Y636996D02*
D03*
X647008Y796996D02*
D03*
X207008Y76995D02*
D03*
X227008Y716996D02*
D03*
X527008D02*
D03*
X257008Y576996D02*
D03*
X777008Y416996D02*
D03*
X447008Y116995D02*
D03*
X677008Y696996D02*
D03*
X57007Y496996D02*
D03*
X557008Y816996D02*
D03*
X587008Y556996D02*
D03*
X197008Y776996D02*
D03*
X167008Y76995D02*
D03*
X587008Y796996D02*
D03*
X687008D02*
D03*
X607008Y596996D02*
D03*
X237008Y696996D02*
D03*
X267008Y596996D02*
D03*
X577008Y776996D02*
D03*
X637008Y696996D02*
D03*
X107008Y76995D02*
D03*
X637008Y736996D02*
D03*
X487008Y796996D02*
D03*
X757008Y96995D02*
D03*
X467008Y796996D02*
D03*
X587008Y716996D02*
D03*
X377008Y816996D02*
D03*
X97008Y136995D02*
D03*
X267008Y756996D02*
D03*
X197008Y816996D02*
D03*
X249373Y142377D02*
D03*
Y154051D02*
D03*
X405630Y479139D02*
D03*
X454500Y195149D02*
D03*
X488884Y484382D02*
D03*
X527696Y475382D02*
D03*
X550545Y340699D02*
D03*
X51932Y428252D02*
D03*
X425167Y552127D02*
D03*
X308598D02*
D03*
X192230Y555005D02*
D03*
X114102Y518835D02*
D03*
X75462Y554321D02*
D03*
X361696Y337058D02*
D03*
X382016D02*
D03*
X398526D02*
D03*
X418846D02*
D03*
Y352168D02*
D03*
X303523Y468568D02*
D03*
X284986Y468531D02*
D03*
X262903Y627122D02*
D03*
Y615442D02*
D03*
X293793Y627122D02*
D03*
X651002Y133604D02*
D03*
X559682Y133579D02*
D03*
X192838Y508677D02*
D03*
X255889Y485010D02*
D03*
X550418Y246418D02*
D03*
Y228092D02*
D03*
X537759Y184091D02*
D03*
X554482Y173990D02*
D03*
X467284Y326166D02*
D03*
X474553Y334076D02*
D03*
X350709Y314816D02*
D03*
X248573Y276702D02*
D03*
X136030Y278384D02*
D03*
X352044Y329184D02*
D03*
X511458Y118404D02*
D03*
X424100Y447542D02*
D03*
X71120Y204942D02*
D03*
X437544Y277466D02*
D03*
X330426Y698754D02*
D03*
X289972D02*
D03*
X249972D02*
D03*
X209972D02*
D03*
X287068Y331466D02*
D03*
X300998Y328760D02*
D03*
X151384Y278384D02*
D03*
X167131Y289486D02*
D03*
X244278Y223338D02*
D03*
X250998Y233244D02*
D03*
X137387Y198043D02*
D03*
X138053Y222585D02*
D03*
X144773Y232491D02*
D03*
X495384Y575009D02*
D03*
X489853Y583463D02*
D03*
X478792D02*
D03*
X484323Y575009D02*
D03*
X467731Y583463D02*
D03*
X473261Y575009D02*
D03*
X418766Y626424D02*
D03*
X451950D02*
D03*
X446419Y634878D02*
D03*
X435358D02*
D03*
X440888Y626424D02*
D03*
X424297Y634878D02*
D03*
X429827Y626424D02*
D03*
X128323Y571528D02*
D03*
X161507D02*
D03*
X155976Y579981D02*
D03*
X144915D02*
D03*
X150446Y571528D02*
D03*
X133854Y579981D02*
D03*
X139384Y571528D02*
D03*
X244892D02*
D03*
X278075D02*
D03*
X272545Y579981D02*
D03*
X261484D02*
D03*
X267014Y571528D02*
D03*
X250422Y579981D02*
D03*
X255953Y571528D02*
D03*
X372522D02*
D03*
X366991Y579981D02*
D03*
X383583Y571528D02*
D03*
X378052Y579981D02*
D03*
X389113D02*
D03*
X394644Y571528D02*
D03*
X361460D02*
D03*
X351028Y624078D02*
D03*
X323178Y624321D02*
D03*
X336805D02*
D03*
X216918Y620360D02*
D03*
X206493D02*
D03*
X196067D02*
D03*
X147128Y621407D02*
D03*
X139717Y632884D02*
D03*
X140735Y663737D02*
D03*
X446424Y668884D02*
D03*
Y704444D02*
D03*
X454788Y740040D02*
D03*
Y775600D02*
D03*
X406720Y669102D02*
D03*
Y704662D02*
D03*
Y740222D02*
D03*
X406654Y775716D02*
D03*
X699770Y772739D02*
D03*
X709676Y766019D02*
D03*
X763270Y772739D02*
D03*
X773176Y766019D02*
D03*
X757682Y715888D02*
D03*
X767588Y709168D02*
D03*
X749920Y485764D02*
D03*
X759826Y479044D02*
D03*
X749920Y458664D02*
D03*
X759826Y451944D02*
D03*
X742982Y296884D02*
D03*
X742696Y311658D02*
D03*
X569722Y201930D02*
D03*
X667607Y201925D02*
D03*
X655828Y178816D02*
D03*
X571754Y179070D02*
D03*
X472440Y140970D02*
D03*
X323938Y117300D02*
D03*
X94270Y233298D02*
D03*
X84960Y323757D02*
D03*
X94600Y339692D02*
D03*
X43327Y486118D02*
D03*
X53233Y479398D02*
D03*
X52832Y608584D02*
D03*
Y618490D02*
D03*
X52308Y647528D02*
D03*
X45588Y637622D02*
D03*
X52506Y732533D02*
D03*
X45786Y722627D02*
D03*
X45720Y752602D02*
D03*
X52440Y762508D02*
D03*
X97430Y428202D02*
D03*
X82296D02*
D03*
X671576Y518922D02*
D03*
X627147Y473048D02*
D03*
X681860Y633196D02*
D03*
X645281D02*
D03*
X654304Y488696D02*
D03*
X589595Y473048D02*
D03*
X608515Y474137D02*
D03*
X572185Y633515D02*
D03*
X590381Y609470D02*
D03*
X627022Y609098D02*
D03*
X671090Y586705D02*
D03*
X663789Y633196D02*
D03*
X535432Y637516D02*
D03*
X562270Y496759D02*
D03*
X660979Y460863D02*
D03*
X670093Y354308D02*
D03*
X564340Y349061D02*
D03*
X674302Y278130D02*
D03*
X573779Y278442D02*
D03*
X389255Y286492D02*
D03*
X341096Y208494D02*
D03*
Y220066D02*
D03*
X355470Y208494D02*
D03*
X526640Y350998D02*
D03*
X398018Y123952D02*
D03*
X53851Y195790D02*
D03*
X591326Y134637D02*
D03*
X526914Y118404D02*
D03*
X326555Y291011D02*
D03*
X498653Y546862D02*
D03*
X488484D02*
D03*
X478316D02*
D03*
X53648Y536766D02*
D03*
X56309Y547585D02*
D03*
X403919Y536500D02*
D03*
X287156Y536733D02*
D03*
X170425Y537214D02*
D03*
X356078Y546862D02*
D03*
X366628D02*
D03*
X377177D02*
D03*
X387726D02*
D03*
X398276D02*
D03*
X408825D02*
D03*
X239510D02*
D03*
X250059D02*
D03*
X260609D02*
D03*
X271158D02*
D03*
X281707D02*
D03*
X292257D02*
D03*
X122942D02*
D03*
X133491D02*
D03*
X144040D02*
D03*
X154589D02*
D03*
X165139D02*
D03*
X175688D02*
D03*
X209972Y648624D02*
D03*
X390144Y533825D02*
D03*
X439699Y538718D02*
D03*
X322876Y538973D02*
D03*
X91009Y538718D02*
D03*
X100252D02*
D03*
X216820D02*
D03*
X207578D02*
D03*
X239014Y518617D02*
D03*
X273558Y534416D02*
D03*
X163141Y360195D02*
D03*
X277574Y124150D02*
D03*
X518730Y278406D02*
D03*
X476405Y259425D02*
D03*
X459049Y259388D02*
D03*
X470401Y280254D02*
D03*
X406083Y264843D02*
D03*
X526643Y407663D02*
D03*
X669139Y307912D02*
D03*
X643360Y301871D02*
D03*
X662686Y392219D02*
D03*
X676635Y196028D02*
D03*
X676194Y168737D02*
D03*
X675021Y183263D02*
D03*
X679815Y127626D02*
D03*
X484124Y149098D02*
D03*
X632298Y127328D02*
D03*
X73424Y642448D02*
D03*
X134427Y692253D02*
D03*
X246581Y326750D02*
D03*
X268986Y279022D02*
D03*
X316481Y364354D02*
D03*
X263398Y380238D02*
D03*
X568198Y290830D02*
D03*
X526796Y244856D02*
D03*
X526914Y184391D02*
D03*
X212840Y169381D02*
D03*
X93315Y179810D02*
D03*
X151384Y122936D02*
D03*
X176530Y444500D02*
D03*
X185166Y466090D02*
D03*
X45778Y528903D02*
D03*
X115316Y451104D02*
D03*
X240495Y438387D02*
D03*
X351195Y484274D02*
D03*
X547313Y546315D02*
D03*
X670344Y545689D02*
D03*
X580000Y676500D02*
D03*
X620000Y651500D02*
D03*
X540000Y673595D02*
D03*
X500000Y651500D02*
D03*
X540000D02*
D03*
X493977Y126542D02*
D03*
X488318Y229717D02*
D03*
X480255Y221826D02*
D03*
X446246Y204773D02*
D03*
X480164D02*
D03*
X463205D02*
D03*
X446854Y221166D02*
D03*
X437692Y229808D02*
D03*
Y212849D02*
D03*
X471613Y212664D02*
D03*
Y229717D02*
D03*
X454654Y212664D02*
D03*
X454745Y229717D02*
D03*
X463296Y221826D02*
D03*
X191549Y447025D02*
D03*
X182818Y414220D02*
D03*
X56388Y134366D02*
D03*
X97536Y103497D02*
D03*
X52684Y382524D02*
D03*
X77216Y91948D02*
D03*
X154467Y221349D02*
D03*
X97536Y144881D02*
D03*
X104302Y172926D02*
D03*
X445048Y272354D02*
D03*
X438428Y259642D02*
D03*
X502242Y118404D02*
D03*
X677275Y96827D02*
D03*
X239014Y487202D02*
D03*
X414061Y474928D02*
D03*
X382128Y484824D02*
D03*
X367671D02*
D03*
X355470Y513307D02*
D03*
X362671Y448056D02*
D03*
X352806D02*
D03*
X528320Y461010D02*
D03*
X527498Y437950D02*
D03*
X401693Y441227D02*
D03*
X392742Y436774D02*
D03*
X393493Y426746D02*
D03*
X247507Y455479D02*
D03*
X215314Y414221D02*
D03*
X424701Y264843D02*
D03*
X423272Y275734D02*
D03*
X418597Y257831D02*
D03*
X411393Y315434D02*
D03*
X295665Y308865D02*
D03*
X312484Y340361D02*
D03*
X303638Y347619D02*
D03*
X742397Y342076D02*
D03*
X732000Y342275D02*
D03*
X657860Y426720D02*
D03*
X732000Y330180D02*
D03*
X713740D02*
D03*
X721182Y683221D02*
D03*
X314456Y404312D02*
D03*
X115316Y392864D02*
D03*
X341997Y436301D02*
D03*
X347462Y430130D02*
D03*
X186724Y93027D02*
D03*
Y106362D02*
D03*
X177800Y99695D02*
D03*
Y86360D02*
D03*
X195648D02*
D03*
Y99695D02*
D03*
Y113030D02*
D03*
X177800D02*
D03*
X219892Y129472D02*
D03*
X218933Y220980D02*
D03*
X231733Y233612D02*
D03*
X232215Y221285D02*
D03*
X218933Y233612D02*
D03*
X314377Y454155D02*
D03*
X205566Y321310D02*
D03*
X195580D02*
D03*
X500244Y456126D02*
D03*
X472741Y430936D02*
D03*
X489100Y455025D02*
D03*
X479536Y452762D02*
D03*
X484895Y465139D02*
D03*
X473977Y462333D02*
D03*
X553820Y633555D02*
D03*
X488791Y520917D02*
D03*
X422801Y483089D02*
D03*
X437419Y483408D02*
D03*
X457983Y496449D02*
D03*
X496315Y385893D02*
D03*
X501328Y369698D02*
D03*
X465672Y417558D02*
D03*
X452431Y374220D02*
D03*
X458861Y367509D02*
D03*
X439958Y385222D02*
D03*
X446175Y379906D02*
D03*
X499062Y395999D02*
D03*
X690258Y392500D02*
D03*
X683504Y404857D02*
D03*
X684486Y419290D02*
D03*
X508461Y354992D02*
D03*
X501468Y359874D02*
D03*
X503795Y345749D02*
D03*
X134675Y736953D02*
D03*
X143510Y645471D02*
D03*
X330000Y676500D02*
D03*
X290000D02*
D03*
X250000D02*
D03*
X210000D02*
D03*
X144647Y722630D02*
D03*
Y736953D02*
D03*
Y750570D02*
D03*
X134443Y757301D02*
D03*
X144647Y762000D02*
D03*
X134226Y682041D02*
D03*
X378383Y239668D02*
D03*
X393285Y252601D02*
D03*
X45016Y547585D02*
D03*
X742950Y740410D02*
D03*
X730250D02*
D03*
X690150Y341630D02*
D03*
X690258Y321310D02*
D03*
X500277Y328792D02*
D03*
X504343Y321093D02*
D03*
X504190Y335649D02*
D03*
X683309Y244478D02*
D03*
X682850Y286984D02*
D03*
X690258Y363056D02*
D03*
X520359Y678786D02*
D03*
X559936Y673595D02*
D03*
X599961Y673453D02*
D03*
X639908Y679047D02*
D03*
X380746Y367668D02*
D03*
X418846D02*
D03*
X361696D02*
D03*
X399796D02*
D03*
X362920Y420801D02*
D03*
X372676Y415466D02*
D03*
X314526Y415300D02*
D03*
X306010Y420715D02*
D03*
X385533Y246858D02*
D03*
X453476Y290320D02*
D03*
X715426Y137794D02*
D03*
X740497Y579820D02*
D03*
Y574040D02*
D03*
X740115Y554793D02*
D03*
Y549013D02*
D03*
X739902Y523494D02*
D03*
Y529274D02*
D03*
X725424Y671576D02*
D03*
X726186Y508000D02*
D03*
X342678Y277182D02*
D03*
X361629Y277622D02*
D03*
X115075Y356970D02*
D03*
Y371441D02*
D03*
X104099D02*
D03*
X104103Y356970D02*
D03*
X519314Y430983D02*
D03*
X498367Y437950D02*
D03*
X498856Y426049D02*
D03*
X353882Y390856D02*
D03*
X344391Y395955D02*
D03*
X308864Y383601D02*
D03*
X265653Y399996D02*
D03*
X287906Y405638D02*
D03*
X279784Y392085D02*
D03*
X30270Y448064D02*
D03*
X24895Y393193D02*
D03*
X52773Y393017D02*
D03*
X119380Y433252D02*
D03*
Y423152D02*
D03*
X87358Y457150D02*
D03*
X97480Y457200D02*
D03*
X82381Y509548D02*
D03*
X52773Y448310D02*
D03*
Y414782D02*
D03*
Y437707D02*
D03*
X427990Y498856D02*
D03*
X259120Y517453D02*
D03*
X230507Y511637D02*
D03*
X317096Y505932D02*
D03*
X69267Y538260D02*
D03*
X149264Y384414D02*
D03*
X232734Y402681D02*
D03*
X232455Y376844D02*
D03*
X160969Y372875D02*
D03*
X418875Y321404D02*
D03*
X399899Y321403D02*
D03*
X380958Y321549D02*
D03*
X362362Y313528D02*
D03*
X361629Y321090D02*
D03*
X342392Y349504D02*
D03*
X451358Y558292D02*
D03*
X334772Y558800D02*
D03*
X217678Y559054D02*
D03*
X100843Y559705D02*
D03*
X379828Y513402D02*
D03*
X146691D02*
D03*
X418475Y538249D02*
D03*
X423768Y533337D02*
D03*
X303146Y538163D02*
D03*
X307199Y533337D02*
D03*
X440457Y531834D02*
D03*
X449957D02*
D03*
X323889D02*
D03*
X333388D02*
D03*
X207320D02*
D03*
X216820D02*
D03*
X295639Y454155D02*
D03*
X276901Y454155D02*
D03*
X258163D02*
D03*
X332832Y484964D02*
D03*
X313670D02*
D03*
X295132D02*
D03*
X276595D02*
D03*
X266797Y461742D02*
D03*
X285772Y476914D02*
D03*
X232801Y212152D02*
D03*
X149548Y60764D02*
D03*
X195399Y533411D02*
D03*
X697422Y372864D02*
D03*
X697866Y352002D02*
D03*
X161036Y159512D02*
D03*
X70500Y690302D02*
D03*
X74062Y533337D02*
D03*
X100252Y531834D02*
D03*
X90752D02*
D03*
X187330Y538295D02*
D03*
X330454Y650250D02*
D03*
X290000D02*
D03*
X250000D02*
D03*
X92988Y515981D02*
D03*
X115408Y509267D02*
D03*
X102899Y513739D02*
D03*
X209557Y515981D02*
D03*
X219468Y513739D02*
D03*
X326125Y515981D02*
D03*
X348545Y509267D02*
D03*
X336036Y513739D02*
D03*
X442523Y499936D02*
D03*
X453080Y514849D02*
D03*
X447715Y507438D02*
D03*
X842125Y8881D02*
D03*
X833882Y6347D02*
D03*
X822198Y6858D02*
D03*
X6021Y795118D02*
D03*
X795220Y844373D02*
D03*
X806283Y844220D02*
D03*
X844819Y795831D02*
D03*
X844804Y806704D02*
D03*
X843620Y496780D02*
D03*
Y486780D02*
D03*
X720856Y6379D02*
D03*
X710856D02*
D03*
X130858D02*
D03*
X6386Y195503D02*
D03*
Y205503D02*
D03*
Y675502D02*
D03*
Y415503D02*
D03*
Y235503D02*
D03*
Y245503D02*
D03*
X596322Y843614D02*
D03*
X843620Y236780D02*
D03*
X6386Y475503D02*
D03*
Y215503D02*
D03*
Y375503D02*
D03*
Y115503D02*
D03*
Y655502D02*
D03*
X140858Y6379D02*
D03*
X516322Y843614D02*
D03*
X843620Y386780D02*
D03*
X220858Y6379D02*
D03*
X6386Y25503D02*
D03*
X90858Y6379D02*
D03*
X6386Y325503D02*
D03*
X756321Y843614D02*
D03*
X116323D02*
D03*
X120858Y6379D02*
D03*
X843620Y636779D02*
D03*
X810856Y6379D02*
D03*
X476322Y843614D02*
D03*
X843620Y766779D02*
D03*
Y96780D02*
D03*
X310857Y6379D02*
D03*
X226322Y843614D02*
D03*
X6386Y685502D02*
D03*
X146323Y843614D02*
D03*
X6386Y285503D02*
D03*
X843620Y136780D02*
D03*
X36323Y843614D02*
D03*
X843620Y836779D02*
D03*
Y76780D02*
D03*
X826321Y843614D02*
D03*
X843620Y676779D02*
D03*
X580857Y6379D02*
D03*
X6386Y555503D02*
D03*
X680857Y6379D02*
D03*
X843620Y716779D02*
D03*
Y656779D02*
D03*
X10860Y6560D02*
D03*
X206322Y843614D02*
D03*
X410857Y6379D02*
D03*
X843620Y696779D02*
D03*
X446322Y843614D02*
D03*
X40858Y6379D02*
D03*
X706321Y843614D02*
D03*
X800856Y6379D02*
D03*
X6386Y315503D02*
D03*
X843620Y826779D02*
D03*
X750856Y6379D02*
D03*
X520857D02*
D03*
X843620Y606779D02*
D03*
Y546779D02*
D03*
Y56780D02*
D03*
X690857Y6379D02*
D03*
X6386Y55504D02*
D03*
X300857Y6379D02*
D03*
X626322Y843614D02*
D03*
X843620Y446780D02*
D03*
Y376780D02*
D03*
Y326780D02*
D03*
Y286780D02*
D03*
X6386Y495503D02*
D03*
X843620Y256780D02*
D03*
X76323Y843614D02*
D03*
X196322D02*
D03*
X270857Y6379D02*
D03*
X6386Y65504D02*
D03*
X530857Y6379D02*
D03*
X6386Y505503D02*
D03*
X56323Y843614D02*
D03*
X766321D02*
D03*
X570857Y6379D02*
D03*
X843620Y666779D02*
D03*
X60858Y6379D02*
D03*
X843620Y536779D02*
D03*
X6386Y345503D02*
D03*
X843620Y396780D02*
D03*
X6386Y295503D02*
D03*
X666322Y843614D02*
D03*
X190858Y6379D02*
D03*
X6386Y365503D02*
D03*
X256322Y843614D02*
D03*
X406322D02*
D03*
X843620Y106780D02*
D03*
X6386Y445503D02*
D03*
X360857Y6379D02*
D03*
X843620Y26781D02*
D03*
X640857Y6379D02*
D03*
X6386Y145503D02*
D03*
Y135503D02*
D03*
X646322Y843614D02*
D03*
X6386Y75503D02*
D03*
Y805502D02*
D03*
Y515503D02*
D03*
Y725502D02*
D03*
Y395503D02*
D03*
X236322Y843614D02*
D03*
X843620Y36780D02*
D03*
X6386Y105503D02*
D03*
Y155503D02*
D03*
X180858Y6379D02*
D03*
X6386Y605502D02*
D03*
X166323Y843614D02*
D03*
X566322D02*
D03*
X843620Y516780D02*
D03*
X6386Y15504D02*
D03*
Y265503D02*
D03*
X490857Y6379D02*
D03*
X843620Y46780D02*
D03*
X466322Y843614D02*
D03*
X6386Y45504D02*
D03*
X636322Y843614D02*
D03*
X786321D02*
D03*
X843620Y596779D02*
D03*
Y816779D02*
D03*
X456322Y843614D02*
D03*
X726321D02*
D03*
X843620Y506780D02*
D03*
Y116780D02*
D03*
Y296780D02*
D03*
X620857Y6379D02*
D03*
X50858D02*
D03*
X6386Y585502D02*
D03*
X500857Y6379D02*
D03*
X200858D02*
D03*
X6386Y705502D02*
D03*
X486322Y843614D02*
D03*
X6386Y755502D02*
D03*
Y695502D02*
D03*
X336322Y843614D02*
D03*
X6386Y85503D02*
D03*
X843620Y166780D02*
D03*
X6386Y485503D02*
D03*
X843620Y336780D02*
D03*
X420857Y6379D02*
D03*
X776321Y843614D02*
D03*
X843620Y466780D02*
D03*
X350857Y6379D02*
D03*
X6386Y175503D02*
D03*
X46323Y843614D02*
D03*
X696321D02*
D03*
X80858Y6379D02*
D03*
X843620Y756779D02*
D03*
Y626779D02*
D03*
X510857Y6379D02*
D03*
X760856D02*
D03*
X296322Y843614D02*
D03*
X843620Y456780D02*
D03*
X480857Y6379D02*
D03*
X656322Y843614D02*
D03*
X843620Y436780D02*
D03*
X6386Y95503D02*
D03*
X110858Y6379D02*
D03*
X843620Y736779D02*
D03*
Y246780D02*
D03*
X340857Y6379D02*
D03*
X266322Y843614D02*
D03*
X6386Y615502D02*
D03*
X70858Y6379D02*
D03*
X176323Y843614D02*
D03*
X346322D02*
D03*
X376322D02*
D03*
X616322D02*
D03*
X843620Y746779D02*
D03*
Y346780D02*
D03*
Y226780D02*
D03*
X330857Y6379D02*
D03*
X843620Y776779D02*
D03*
Y646779D02*
D03*
X6386Y575502D02*
D03*
X106323Y843614D02*
D03*
X186322D02*
D03*
X276322D02*
D03*
X306322D02*
D03*
X676322D02*
D03*
X6386Y745502D02*
D03*
Y785502D02*
D03*
X426322Y843614D02*
D03*
X370857Y6379D02*
D03*
X843620Y196780D02*
D03*
X546322Y843614D02*
D03*
X746321D02*
D03*
X843620Y576779D02*
D03*
X550857Y6379D02*
D03*
X843620Y356780D02*
D03*
X286322Y843614D02*
D03*
X576322D02*
D03*
X436322D02*
D03*
X6386Y275503D02*
D03*
Y185503D02*
D03*
X290857Y6379D02*
D03*
X6386Y765502D02*
D03*
X86323Y843614D02*
D03*
X790856Y6379D02*
D03*
X136323Y843614D02*
D03*
X156323D02*
D03*
X6386Y565503D02*
D03*
Y825502D02*
D03*
X843620Y206780D02*
D03*
Y126780D02*
D03*
Y146780D02*
D03*
X6386Y125503D02*
D03*
X240858Y6379D02*
D03*
X6386Y225503D02*
D03*
X843620Y706779D02*
D03*
X170858Y6379D02*
D03*
X536322Y843614D02*
D03*
X540857Y6379D02*
D03*
X843620Y266780D02*
D03*
Y726779D02*
D03*
X320857Y6379D02*
D03*
X770856D02*
D03*
X6386Y435503D02*
D03*
X386322Y843614D02*
D03*
X843620Y316780D02*
D03*
X6386Y165503D02*
D03*
X506322Y843614D02*
D03*
X843620Y686779D02*
D03*
Y416780D02*
D03*
X12233Y843614D02*
D03*
X590857Y6379D02*
D03*
X380857D02*
D03*
X6386Y625502D02*
D03*
X843620Y426780D02*
D03*
X6386Y535503D02*
D03*
X843620Y16781D02*
D03*
X260857Y6379D02*
D03*
X6386Y465503D02*
D03*
X816321Y843614D02*
D03*
X216322D02*
D03*
X843620Y476780D02*
D03*
X150858Y6379D02*
D03*
X450857D02*
D03*
X210858D02*
D03*
X526322Y843614D02*
D03*
X780856Y6379D02*
D03*
X606322Y843614D02*
D03*
X843620Y566779D02*
D03*
X650857Y6379D02*
D03*
X6386Y595502D02*
D03*
X230858Y6379D02*
D03*
X20858D02*
D03*
X686321Y843614D02*
D03*
X843620Y66780D02*
D03*
Y276780D02*
D03*
X6386Y815502D02*
D03*
X670857Y6379D02*
D03*
X6386Y525503D02*
D03*
X843620Y86780D02*
D03*
X356322Y843614D02*
D03*
X610857Y6379D02*
D03*
X556322Y843614D02*
D03*
X843620Y556779D02*
D03*
Y366780D02*
D03*
X586322Y843614D02*
D03*
X716321D02*
D03*
X600857Y6379D02*
D03*
X700857D02*
D03*
X843620Y786779D02*
D03*
X6386Y355503D02*
D03*
X843620Y176780D02*
D03*
X96323Y843614D02*
D03*
X6386Y455503D02*
D03*
X126323Y843614D02*
D03*
X6386Y635502D02*
D03*
X843620Y616779D02*
D03*
X560857Y6379D02*
D03*
X470857D02*
D03*
X6386Y665502D02*
D03*
Y735502D02*
D03*
Y775502D02*
D03*
X390857Y6379D02*
D03*
X30858D02*
D03*
X6386Y305503D02*
D03*
X326322Y843614D02*
D03*
X366322D02*
D03*
X630857Y6379D02*
D03*
X396322Y843614D02*
D03*
X843620Y216780D02*
D03*
X280857Y6379D02*
D03*
X440857D02*
D03*
X6386Y545503D02*
D03*
X160858Y6379D02*
D03*
X66323Y843614D02*
D03*
X843620Y186780D02*
D03*
X736321Y843614D02*
D03*
X100858Y6379D02*
D03*
X430857D02*
D03*
X843620Y156780D02*
D03*
X6386Y835502D02*
D03*
Y255503D02*
D03*
Y385503D02*
D03*
Y715502D02*
D03*
X496322Y843614D02*
D03*
X246322D02*
D03*
X843620Y306780D02*
D03*
X400857Y6379D02*
D03*
X6386Y335503D02*
D03*
X416322Y843614D02*
D03*
X730856Y6379D02*
D03*
X26323Y843614D02*
D03*
X316322D02*
D03*
X843620Y406780D02*
D03*
X660857Y6379D02*
D03*
X460857D02*
D03*
X250858D02*
D03*
X740856D02*
D03*
X6386Y405503D02*
D03*
Y425503D02*
D03*
Y645502D02*
D03*
X843620Y586779D02*
D03*
X6386Y35503D02*
D03*
X843620Y526780D02*
D03*
X836321Y843614D02*
D03*
D142*
X741286Y21983D02*
X827076Y107773D01*
X218819Y21983D02*
X741286D01*
X213755Y27047D02*
X218819Y21983D01*
X827076Y107773D02*
Y677615D01*
X746750Y757940D02*
X827076Y677615D01*
X213755Y27047D02*
Y58755D01*
X713204Y691199D02*
X721182Y683221D01*
X722246Y757940D02*
X746750D01*
X213755Y58755D02*
X225000Y70000D01*
X223938Y71062D02*
X225000Y70000D01*
X713204Y748898D02*
X722246Y757940D01*
X713204Y691199D02*
Y748898D01*
D143*
X836210Y19065D02*
D03*
X15310Y15012D02*
D03*
X834940Y832882D02*
D03*
X20320Y829945D02*
D03*
M02*
